<svg xmlns="http://www.w3.org/2000/svg" xmlns:xlink="http://www.w3.org/1999/xlink" width="128" height="128" viewBox="0 0 128 128">
  <defs>
    <clipPath id="clip-path">
      <rect id="Rectángulo_456267" data-name="Rectángulo 456267" width="128" height="128" fill="none"/>
    </clipPath>
    <clipPath id="clip-path-2">
      <rect id="Rectángulo_467148" data-name="Rectángulo 467148" width="61.846" height="60.952" fill="#19538d"/>
    </clipPath>
  </defs>
  <g id="Grupo_1180349" data-name="Grupo 1180349" transform="translate(511.746 8527) rotate(180)">
    <path id="Trazado_999622" data-name="Trazado 999622" d="M59.07,0A59.07,59.07,0,1,1,0,59.07,59.071,59.071,0,0,1,59.07,0" transform="translate(388.676 8403.93)" fill="#fff"/>
    <g id="Grupo_1179902" data-name="Grupo 1179902" transform="translate(383.746 8399)">
      <g id="Grupo_1179905" data-name="Grupo 1179905" clip-path="url(#clip-path)">
        <path id="Trazado_999618" data-name="Trazado 999618" d="M64,0A64,64,0,1,1,0,64,64,64,0,0,1,64,0" fill="none"/>
        <path id="Trazado_999619" data-name="Trazado 999619" d="M5,59a5,5,0,1,1-5,5,5,5,0,0,1,5-5" fill="#19538d"/>
        <path id="Trazado_999620" data-name="Trazado 999620" d="M21,19a5,5,0,1,1-5,5,5,5,0,0,1,5-5" fill="#19538d"/>
        <path id="Trazado_999621" data-name="Trazado 999621" d="M64,124A60.068,60.068,0,0,1,4,64H7A57,57,0,1,0,22.408,25.024L20.22,22.972A60,60,0,1,1,64,124" fill="#19538d"/>
        <rect id="Rectángulo_456268" data-name="Rectángulo 456268" width="128" height="128" fill="none"/>
        <rect id="Rectángulo_456269" data-name="Rectángulo 456269" width="128" height="128" fill="none"/>
      </g>
    </g>
    <g id="Grupo_1181015" data-name="Grupo 1181015" transform="translate(478.669 8493.477) rotate(180)">
      <g id="Grupo_1181014" data-name="Grupo 1181014" clip-path="url(#clip-path-2)">
        <path id="Trazado_1033268" data-name="Trazado 1033268" d="M58.355,7.974l-6.76-.07-.05-5.284A2.789,2.789,0,0,0,48.927,0H12.916A2.786,2.786,0,0,0,10.3,2.618l-.05,5.288-6.366.016A3.932,3.932,0,0,0,0,11.845l.019,36a3.77,3.77,0,0,0,1.232,2.8,4.176,4.176,0,0,0,2.839,1.093h0l15.629-.01,0,2.543-3.959.007a3.5,3.5,0,0,0-2.453.965,3.349,3.349,0,0,0-1,2.438l.006,2.258a.969.969,0,0,0,1.033,1.01l35.139.005h0a.959.959,0,0,0,1.025-1.018l.007-2.259a3.294,3.294,0,0,0-3.262-3.385l-4.146-.021V51.731l15.841-.015A3.873,3.873,0,0,0,61.8,48.045l.042-36c0-1.984-1.3-4.049-3.491-4.072m.933,41.118a1.829,1.829,0,0,1-1.481.636l-53.875,0a1.686,1.686,0,0,1-1.359-.606,4.283,4.283,0,0,1-.534-3.308H59.8a4.2,4.2,0,0,1-.51,3.282M37.914,13.63a1.693,1.693,0,0,0-1.083.248,7.537,7.537,0,0,0-1.006,2.351,1.331,1.331,0,0,0,.548,1.015L35.325,18.3a1.328,1.328,0,0,0-1.011-.547,1.62,1.62,0,0,0-.83.255,2.8,2.8,0,0,1-.376.173L33,18.218c-.658.221-1.4.469-1.3,1.589h-1.54a1.628,1.628,0,0,0-.268-1.051,7.638,7.638,0,0,0-2.346-1.007h0a1.3,1.3,0,0,0-1.019.55l-1.05-1.054a1.326,1.326,0,0,0,.547-1.016,9.527,9.527,0,0,0-.871-2.213,1.424,1.424,0,0,0-1.216-.385,7.25,7.25,0,0,1,0-1.578,1.7,1.7,0,0,0,1.077-.239,7.7,7.7,0,0,0,1.01-2.346,1.3,1.3,0,0,0-.545-1.016l1.034-1.065a1.5,1.5,0,0,0,.83.54,7.137,7.137,0,0,0,2.4-.85,1.392,1.392,0,0,0,.415-1.19l1.534,0a1.612,1.612,0,0,0,.272,1.054,7.356,7.356,0,0,0,2.339,1,1.3,1.3,0,0,0,1.018-.546l1.049,1.058a1.291,1.291,0,0,0-.542,1.016,9.832,9.832,0,0,0,.872,2.207,1.431,1.431,0,0,0,1.212.379,7.054,7.054,0,0,1,0,1.576m11.65-7.966L36.445,5.657a1.443,1.443,0,0,0-1.054-.564,1.388,1.388,0,0,0-1.107.49.291.291,0,0,1-.311.109c-.148-.047-.219-.29-.3-.572-.156-.542-.371-1.284-1.417-1.288l-2.565-.011h-.01a1.439,1.439,0,0,0-1.519,1.328,1.146,1.146,0,0,1-.21.512c-.071.06-.184.007-.47-.175a1.445,1.445,0,0,0-2.076.142L12.277,5.67l-.024-2.646A.973.973,0,0,1,12.5,2.3a1.434,1.434,0,0,1,1.044-.32H48.3a1.432,1.432,0,0,1,1.043.321.974.974,0,0,1,.245.722ZM15.811,20.188A1.006,1.006,0,0,0,16.1,19.5a1.025,1.025,0,0,0-1.133-.973L13.2,18.513a1.042,1.042,0,0,1-.954-1.162l.01-9.661H23.389a1.337,1.337,0,0,0,.264,1.756c.128.248.117.357.1.4-.047.11-.3.177-.536.242-.512.138-1.286.347-1.286,1.334v2.851c0,1.021.852,1.209,1.362,1.321.155.034.414.091.445.147.076.142-.029.34-.212.648-.277.467-.656,1.107.026,1.784l2.157,2.139c.612.607,1.269.186,1.7-.093.178-.114.4-.256.493-.236.118.026.177.217.259.53.143.544.364,1.36,1.522,1.365l2.472-.006c1.228,0,1.43-.919,1.551-1.466a1.361,1.361,0,0,1,.114-.378c.141-.083.36.035.677.226.445.268,1.055.635,1.637.058l2.158-2.139c.681-.675.3-1.318.025-1.787-.182-.308-.287-.5-.212-.643a1.193,1.193,0,0,1,.4-.125c.538-.117,1.438-.313,1.43-1.539l-.017-2.657c-.006-.992-.766-1.192-1.268-1.325-.252-.066-.49-.129-.55-.249a.5.5,0,0,1,.035-.349,1.357,1.357,0,0,0,.316-1.816l11.143.008-.007,9.854a.97.97,0,0,1-.912.962l-1.792.016a1.03,1.03,0,0,0-1.117.8,1,1,0,0,0,.211.8.9.9,0,0,0,.708.35l2.082.015a2.831,2.831,0,0,0,2.791-2.743l.034-7.816,6.363-.008a1.982,1.982,0,0,1,1.9,1.935L59.836,43.8H2.006L2,11.689A2,2,0,0,1,3.883,9.921l6.378.008.007,7.627A2.9,2.9,0,0,0,13.1,20.492l2.06-.021a.909.909,0,0,0,.647-.284M47.469,58.944l-33.1,0-.046-1.268a1.3,1.3,0,0,1,.344-.98,1.544,1.544,0,0,1,1.131-.424H46.045A1.611,1.611,0,0,1,47.2,56.7a1.064,1.064,0,0,1,.3.787Zm-25.692-7.21,18.293-.011,0,2.548-18.256.021Z" transform="translate(-0.001)" fill="#19538d"/>
        <path id="Trazado_1033269" data-name="Trazado 1033269" d="M20.036,67.869a3.344,3.344,0,0,0-2.689,3.358,3.383,3.383,0,0,0,2.877,3.2,3.5,3.5,0,0,0,.472.033,3.434,3.434,0,0,0,3.19-2.326l7.8,0h0a.9.9,0,0,0,.709-.333,1.058,1.058,0,0,0,.239-.664l0-11.246,1.226-.031c.675-.017,1.1-.346,1.164-.9a1.132,1.132,0,0,0-.251-.816.7.7,0,0,0-.526-.247l-2.637-.033H31.6a1,1,0,0,0-.689.279.827.827,0,0,0-.251.589l-.023,11.392-6.793-.009a3.24,3.24,0,0,0-3.808-2.251m1.77,3.945a1.323,1.323,0,0,1-2.387-.312,1.261,1.261,0,0,1,.113-.989,1.359,1.359,0,0,1,.878-.671,1.266,1.266,0,0,1,.3-.037,1.329,1.329,0,0,1,1.238.951,1.375,1.375,0,0,1-.147,1.059" transform="translate(-13.795 -46.019)" fill="#19538d"/>
        <path id="Trazado_1033270" data-name="Trazado 1033270" d="M199.3,59.864l1.412.03,0,11.251a.986.986,0,0,0,1.03,1l7.781.046a3.25,3.25,0,0,0,3.086,2.27,3.7,3.7,0,0,0,.866-.105,3.32,3.32,0,0,0-.363-6.515,3.255,3.255,0,0,0-3.613,2.291l-6.79.006-.024-11.4a.827.827,0,0,0-.25-.589,1,1,0,0,0-.7-.279L199.1,57.9a.7.7,0,0,0-.525.245,1.135,1.135,0,0,0-.253.815.976.976,0,0,0,.978.9m14.638,10.95a1.252,1.252,0,0,1-.139.983,1.322,1.322,0,0,1-.788.6,1.3,1.3,0,0,1-1.6-.864,1.32,1.32,0,0,1,.1-1.068,1.324,1.324,0,0,1,2.422.35" transform="translate(-157.709 -46.023)" fill="#19538d"/>
        <path id="Trazado_1033271" data-name="Trazado 1033271" d="M47.089,119.114a3.32,3.32,0,0,0,.194,6.551,3.8,3.8,0,0,0,.471.03,3.256,3.256,0,0,0,3.156-2.317l9.465-.008a.914.914,0,0,0,.863-.89l.02-11.983a1.047,1.047,0,0,0-.838-1.095,1.144,1.144,0,0,0-.879.2.619.619,0,0,0-.248.494l-.031,11.275-8.346-.013a3.274,3.274,0,0,0-3.827-2.245m1.3,4.42a1.344,1.344,0,0,1-1.809-.557,1.327,1.327,0,0,1-.1-.994,1.226,1.226,0,0,1,.628-.749,1.381,1.381,0,0,1,1.105-.1,1.253,1.253,0,0,1,.734.668,1.335,1.335,0,0,1-.562,1.727" transform="translate(-35.31 -86.986)" fill="#19538d"/>
        <path id="Trazado_1033272" data-name="Trazado 1033272" d="M176.311,123.442l9.4.023a3.191,3.191,0,0,0,3.095,2.293,3.932,3.932,0,0,0,.884-.1,3.327,3.327,0,1,0-4.038-4.2l-8.309-.021-.031-11.275a.6.6,0,0,0-.237-.479,1.166,1.166,0,0,0-.892-.194.948.948,0,0,0-.824.9l.008,12.159a.928.928,0,0,0,.945.9m11.316-1.5a1.159,1.159,0,0,1,.684-.695,1.313,1.313,0,1,1-.6,1.851,1.431,1.431,0,0,1-.08-1.156" transform="translate(-139.453 -87.054)" fill="#19538d"/>
        <path id="Trazado_1033273" data-name="Trazado 1033273" d="M138.087,129.382l.107,0a3.347,3.347,0,0,0,.915-6.532l.015-12.268a1.084,1.084,0,0,0-.334-.816,1.039,1.039,0,0,0-.806-.261.993.993,0,0,0-.9,1.08l0,12.283a3.3,3.3,0,0,0-2.25,3.785,3.347,3.347,0,0,0,3.258,2.731m.525-2.126a1.327,1.327,0,0,1-1.684-.6,1.348,1.348,0,0,1-.08-1.055,1.365,1.365,0,0,1,.748-.784,1.217,1.217,0,0,1,.981-.022,1.39,1.39,0,0,1,.75.75,1.32,1.32,0,0,1-.715,1.715" transform="translate(-107.18 -87.079)" fill="#19538d"/>
        <path id="Trazado_1033274" data-name="Trazado 1033274" d="M137.16,230.457h.005l4.3-.03a.773.773,0,0,0,.626-.335,1.063,1.063,0,0,0,.188-.845,1.036,1.036,0,0,0-.946-.754h0l-4.1.009a.991.991,0,0,0-.974.955,1.119,1.119,0,0,0,.324.737.8.8,0,0,0,.579.263" transform="translate(-108.358 -181.709)" fill="#19538d"/>
        <path id="Trazado_1033275" data-name="Trazado 1033275" d="M181.026,13.768h-.021l-1.817.036a.675.675,0,0,0-.507.242,1.137,1.137,0,0,0-.241.834.973.973,0,0,0,.946.892h.013l1.883-.023.041-.02a1.082,1.082,0,0,0,.639-1.243.96.96,0,0,0-.936-.717" transform="translate(-141.9 -10.949)" fill="#19538d"/>
        <path id="Trazado_1033276" data-name="Trazado 1033276" d="M218.929,13.612a.954.954,0,0,0-.792,1.088.927.927,0,0,0,.806.859,9.388,9.388,0,0,0,1.049.069,2.05,2.05,0,0,0,1.421-.376.938.938,0,0,0,.288-.761.839.839,0,0,0-.3-.633c-.4-.337-1.162-.413-2.472-.246" transform="translate(-173.468 -10.757)" fill="#19538d"/>
        <path id="Trazado_1033277" data-name="Trazado 1033277" d="M200.721,13.672h-1.243a1.039,1.039,0,0,0-1.155.942,1.018,1.018,0,0,0,.261.778.95.95,0,0,0,.71.306h.015l1.668-.024a.854.854,0,0,0,.7-.352,1.072,1.072,0,0,0,.161-.888,1.042,1.042,0,0,0-1.113-.762" transform="translate(-157.712 -10.873)" fill="#19538d"/>
        <path id="Trazado_1033278" data-name="Trazado 1033278" d="M136.814,42.6a4.1,4.1,0,0,0-3.131-.578,4.256,4.256,0,0,0,.831,8.423,4.045,4.045,0,0,0,.849-.09,4.288,4.288,0,0,0,3.33-5.007,4.347,4.347,0,0,0-1.879-2.748M132.4,46.89a2.137,2.137,0,0,1,.126-1.717,2.253,2.253,0,0,1,4.174.451,2.082,2.082,0,0,1-.194,1.6,2.355,2.355,0,0,1-1.409,1.124,2.247,2.247,0,0,1-2.7-1.461" transform="translate(-103.612 -33.341)" fill="#19538d"/>
      </g>
    </g>
  </g>
</svg>
