<svg xmlns="http://www.w3.org/2000/svg" xmlns:xlink="http://www.w3.org/1999/xlink" width="128" height="128" viewBox="0 0 128 128">
  <defs>
    <clipPath id="clip-path">
      <rect id="Rectángulo_456267" data-name="Rectángulo 456267" width="128" height="128" fill="none"/>
    </clipPath>
    <clipPath id="clip-path-2">
      <rect id="Rectángulo_467149" data-name="Rectángulo 467149" width="63.899" height="72.924" fill="#19538d"/>
    </clipPath>
  </defs>
  <g id="Grupo_1180354" data-name="Grupo 1180354" transform="translate(511.746 8527) rotate(180)">
    <path id="Trazado_999622" data-name="Trazado 999622" d="M59.07,0A59.07,59.07,0,1,1,0,59.07,59.071,59.071,0,0,1,59.07,0" transform="translate(388.676 8403.93)" fill="#fff"/>
    <g id="Grupo_1179902" data-name="Grupo 1179902" transform="translate(383.746 8399)">
      <g id="Grupo_1179905" data-name="Grupo 1179905" clip-path="url(#clip-path)">
        <path id="Trazado_999618" data-name="Trazado 999618" d="M64,0A64,64,0,1,1,0,64,64,64,0,0,1,64,0" fill="none"/>
        <path id="Trazado_999619" data-name="Trazado 999619" d="M5,59a5,5,0,1,1-5,5,5,5,0,0,1,5-5" fill="#19538d"/>
        <path id="Trazado_999620" data-name="Trazado 999620" d="M21,19a5,5,0,1,1-5,5,5,5,0,0,1,5-5" fill="#19538d"/>
        <path id="Trazado_999621" data-name="Trazado 999621" d="M64,124A60.068,60.068,0,0,1,4,64H7A57,57,0,1,0,22.408,25.024L20.22,22.972A60,60,0,1,1,64,124" fill="#19538d"/>
        <rect id="Rectángulo_456268" data-name="Rectángulo 456268" width="128" height="128" fill="none"/>
        <rect id="Rectángulo_456269" data-name="Rectángulo 456269" width="128" height="128" fill="none"/>
      </g>
    </g>
    <g id="Grupo_1181017" data-name="Grupo 1181017" transform="translate(488.797 8505.342) rotate(180)">
      <g id="Grupo_1181016" data-name="Grupo 1181016" transform="translate(8 4)" clip-path="url(#clip-path-2)">
        <path id="Trazado_1033279" data-name="Trazado 1033279" d="M73.681,77.115l1.886,2.635.037-9.582c-1.329-.335-2.34-1.454-3.549-1.524a12.343,12.343,0,0,0-2.962,1.163,22.03,22.03,0,0,1-1.271,3.7l-5.376.114a1.142,1.142,0,0,1-1.206-.837l-1.06-3.013a8.279,8.279,0,0,0-2.771-1.1c-1.486-.111-3.122,2.391-4.534.9L49.3,65.81l1.667-3.553L49.8,59.28l-2.982-1.006a1.29,1.29,0,0,1-.975-1.295L45.825,52.7a1.414,1.414,0,0,1,1.037-1.474l3.008-1.024c.059-.978.955-1.889.943-2.788-.019-1.392-2.154-3.237-1.159-4.23l3.407-3.4a1.271,1.271,0,0,1,1.532-.152l2.766,1.439,2.765-1.308c1.08-1.73.657-3.911,2.573-3.906l4.274.013c1.582,0,1.335,2.379,2.342,3.9l2.768,1.3,2.93-1.517a1.158,1.158,0,0,1,1.358.219l3.288,3.27c1.125,1.118-.719,2.52-1.072,4.363a8.8,8.8,0,0,0,1.161,2.792l3,1.1a1.183,1.183,0,0,1,.832,1.157l-.117,5.181c-.005.218-.661.44-.752.638s.136.653.138.988l.076,10.077a3.812,3.812,0,0,1,4.97,2.285A3.7,3.7,0,0,1,92.92,73.89a3.83,3.83,0,0,1,3.584.251,3.589,3.589,0,0,1,1.66,3.032l.016,8.533c.009,4.782,0,9.1-3.972,11.635a15.56,15.56,0,0,1-12.657,1.8c-3.122-.909-5.021-3.07-6.707-5.7L67.187,81.5a3.929,3.929,0,0,1,1.9-5.555,3.74,3.74,0,0,1,4.6,1.172M63.22,71.421l3.147-.086a17.237,17.237,0,0,1,1.2-3.477A19.767,19.767,0,0,0,72,66l3.587,1.668.048-7.891A3.605,3.605,0,0,1,77.3,56.8a4.57,4.57,0,0,1,3.92-.2,11.31,11.31,0,0,0,.053-3.471l-3.448-1.181a23.148,23.148,0,0,0-1.852-4.5l1.588-3.324-2.142-2.211-3.434,1.582a20.559,20.559,0,0,0-4.479-1.844l-1.261-3.513-3.134.061-1.2,3.432a24.588,24.588,0,0,0-4.5,1.866l-3.4-1.589-2.162,2.221,1.609,3.321A23.043,23.043,0,0,0,51.6,51.936l-3.5,1.27.018,3.2a23.814,23.814,0,0,1,3.473,1.177,21.763,21.763,0,0,0,1.87,4.432l-1.618,3.353,2.25,2.257,3.339-1.615a23.07,23.07,0,0,0,4.448,1.872Zm32.727,5.85a1.444,1.444,0,0,0-1.623-1.484c-1.624.159-.917,2.749-2.443,2.506a1.119,1.119,0,0,1-1.018-1.151l-.019-2.223a1.373,1.373,0,0,0-1.559-1.359c-1.7.138-.918,2.723-2.485,2.514a1.121,1.121,0,0,1-1.014-1.188l.012-2a1.425,1.425,0,0,0-1.315-1.563c-1.974-.148-1.137,2.331-2.534,2.522-.385.052-1.2-.271-1.206-.9l-.061-13.182a1.311,1.311,0,0,0-1.471-1.308,1.448,1.448,0,0,0-1.378,1.338l-.046,24.1c0,.61-.752.837-1.095.843-.539.01-.816-.318-1.134-.8L71.952,78.5a1.726,1.726,0,0,0-2.333-.357,1.746,1.746,0,0,0-.531,2.21l7.736,12.095c1.284,2.007,2.592,3.654,4.969,4.449a13.319,13.319,0,0,0,9.319-.41c3.975-1.629,4.771-4.031,4.788-8.257Z" transform="translate(-34.282 -26.829)" fill="#19538d"/>
        <path id="Trazado_1033280" data-name="Trazado 1033280" d="M72.328,14.865l-6.369-1.358a1.093,1.093,0,0,1-.82-1.325,1.022,1.022,0,0,1,1.214-.812l3.663.62a25.734,25.734,0,0,0-41.974,2.216,1.154,1.154,0,0,1-1.674.5,1.123,1.123,0,0,1-.238-1.645A27.962,27.962,0,0,1,71.119,9.868l.039-2.885c.009-.65.642-.878,1.172-.79a1.182,1.182,0,0,1,.963,1.049l.451,6.3a1.168,1.168,0,0,1-1.416,1.32" transform="translate(-19.364 0)" fill="#19538d"/>
        <path id="Trazado_1033281" data-name="Trazado 1033281" d="M45.45,177.156a28,28,0,0,1-17.059-9.595c-.246,1.853.532,3.353-.818,3.7a1.027,1.027,0,0,1-1.307-.876l-.487-6.553a1.11,1.11,0,0,1,1.261-1.28l6.466,1.36a1.064,1.064,0,0,1,.854,1.294,1.041,1.041,0,0,1-1.243.887l-3.628-.7a25.489,25.489,0,0,0,16.181,9.539,1.233,1.233,0,0,1,1.171,1.129,1.156,1.156,0,0,1-1.391,1.095" transform="translate(-19.283 -121.586)" fill="#19538d"/>
        <path id="Trazado_1033282" data-name="Trazado 1033282" d="M40.625,255.2l-20.715.02a1.022,1.022,0,0,1-1-1.13,1.048,1.048,0,0,1,1.043-1.079l20.539,0a1.092,1.092,0,0,1,1.1.847,1.08,1.08,0,0,1-.968,1.346" transform="translate(-14.146 -189.272)" fill="#19538d"/>
        <path id="Trazado_1033283" data-name="Trazado 1033283" d="M210.79,96.065c-.562.563-1.185.7-1.668.33a1.184,1.184,0,0,1,.041-1.821l5.191-5.172-5.44-5.5a1.152,1.152,0,0,1,.005-1.3,1.093,1.093,0,0,1,1.5-.225l6.3,6.294c.537.536.221,1.222-.208,1.652Z" transform="translate(-156.137 -61.471)" fill="#19538d"/>
        <path id="Trazado_1033284" data-name="Trazado 1033284" d="M8.111,95.014a1.073,1.073,0,0,1-.218,1.473,1.139,1.139,0,0,1-1.475-.141L.255,90.16a1.037,1.037,0,0,1,.024-1.388l6.3-6.279c.411-.409,1.235-.106,1.479.227a1.1,1.1,0,0,1-.078,1.423L2.663,89.49Z" transform="translate(0 -61.565)" fill="#19538d"/>
        <path id="Trazado_1033285" data-name="Trazado 1033285" d="M32.74,275.629,19.9,275.608a1.1,1.1,0,1,1,.241-2.187l12.849.025A1.019,1.019,0,0,1,33.9,274.6a1.109,1.109,0,0,1-1.16,1.031" transform="translate(-14.142 -204.546)" fill="#19538d"/>
        <path id="Trazado_1033286" data-name="Trazado 1033286" d="M28.26,234.909l-8.1.051a1.187,1.187,0,0,1-1.225-.912c-.1-.422.087-1.287.744-1.289l8.75-.034a1.092,1.092,0,0,1,.977,1.128,1.166,1.166,0,0,1-1.15,1.055" transform="translate(-14.149 -174.102)" fill="#19538d"/>
        <path id="Trazado_1033287" data-name="Trazado 1033287" d="M80.455,234.832l-7.053.036a1.2,1.2,0,0,1-1.216-1.107,1.09,1.09,0,0,1,1.167-1.123l7.051.012a1.091,1.091,0,0,1,1.054.911,1.055,1.055,0,0,1-1,1.271" transform="translate(-54.002 -174.035)" fill="#19538d"/>
        <path id="Trazado_1033288" data-name="Trazado 1033288" d="M93.989,275.354l-2.656.042a1.084,1.084,0,0,1-1.133-.842c-.106-.372.035-1.16.665-1.263,1.959-.319,3.935-.272,4.045.882a1,1,0,0,1-.921,1.18" transform="translate(-67.455 -204.323)" fill="#19538d"/>
        <path id="Trazado_1033289" data-name="Trazado 1033289" d="M89.711,71.118a10.039,10.039,0,1,1-8.673,11.424,10.038,10.038,0,0,1,8.673-11.424m0,2.245a7.822,7.822,0,1,0,8.981,6.41,7.8,7.8,0,0,0-8.981-6.41" transform="translate(-60.542 -53.14)" fill="#19538d"/>
        <path id="Trazado_1033290" data-name="Trazado 1033290" d="M105.276,104.8c-1.043,1.215-2.451-1.206-4.062-2.887a1.2,1.2,0,0,1-.152-1.685,1.151,1.151,0,0,1,1.712.116l1.77,1.931,4.05-4.735a1.076,1.076,0,0,1,1.528-.136,1.135,1.135,0,0,1,.039,1.708Z" transform="translate(-75.392 -72.675)" fill="#19538d"/>
      </g>
    </g>
  </g>
</svg>
