<svg xmlns="http://www.w3.org/2000/svg" xmlns:xlink="http://www.w3.org/1999/xlink" width="85" height="85" viewBox="0 0 85 85">
  <defs>
    <clipPath id="clip-path">
      <rect id="Rectángulo_467151" data-name="Rectángulo 467151" width="60.632" height="52.154" fill="#12263f"/>
    </clipPath>
  </defs>
  <g id="Grupo_1180365" data-name="Grupo 1180365" transform="translate(-705.629 -410)">
    <g id="Grupo_1180019" data-name="Grupo 1180019">
      <g id="Grupo_1180023" data-name="Grupo 1180023">
        <rect id="Rectángulo_456333" data-name="Rectángulo 456333" width="85" height="85" rx="10" transform="translate(705.629 410)" fill="#68eae0"/>
        <g id="Grupo_1181021" data-name="Grupo 1181021" transform="translate(716.838 425.599)">
          <g id="Grupo_1181020" data-name="Grupo 1181020" clip-path="url(#clip-path)">
            <path id="Trazado_1033307" data-name="Trazado 1033307" d="M60.632,49.985a2,2,0,0,1-1.971,2.169L7.08,52.118A7.128,7.128,0,0,1,.01,44.987L0,7.108A7.084,7.084,0,0,1,6.187.01,1.747,1.747,0,0,1,8.034,1.658L8.1,6.187l50.581.006a1.934,1.934,0,0,1,1.949,2.063ZM6.3,37.744,6.288,1.763a5.393,5.393,0,0,0-4.53,5.216l.009,33.192A7.928,7.928,0,0,1,6.3,37.744M7.3,50.332l51.546,0,.006-42.362L8.077,7.959,8.048,37.887c0,.946-.938,1.536-1.72,1.7A5.409,5.409,0,0,0,7.3,50.332" transform="translate(0 0)" fill="#12263f"/>
            <path id="Trazado_1033308" data-name="Trazado 1033308" d="M197.247,172.606,178.5,172.6a.977.977,0,0,1-1.079-.983l.012-10.459a.933.933,0,0,1,1.042-.862l18.74.005a.911.911,0,0,1,.911.852l0,10.5a.989.989,0,0,1-.877.958m-.893-1.834-.013-8.7H179.228l0,8.717Z" transform="translate(-143.801 -129.918)" fill="#12263f"/>
            <path id="Trazado_1033309" data-name="Trazado 1033309" d="M75.122,72.706l-18.61,0a.968.968,0,0,1-1.074-1V61.279a.921.921,0,0,1,.874-.876H75.228a.945.945,0,0,1,.9.988l0,10.348a.94.94,0,0,1-1,.966m-.763-1.813,0-8.706-17.155,0,.009,8.729Z" transform="translate(-44.933 -48.957)" fill="#12263f"/>
            <path id="Trazado_1033310" data-name="Trazado 1033310" d="M195.05,60.381l1.994-.034a1,1,0,0,1,1.071,1l0,10.342a.987.987,0,0,1-1.092.979l-18.706-.016a.937.937,0,0,1-.905-.993l.015-10.425a.939.939,0,0,1,1.034-.889l12.318,0a.9.9,0,0,1,1,.872.929.929,0,0,1-1,.922l-11.557-.007,0,8.726,17.119,0,.013-8.671-1.213-.066a.889.889,0,0,1-.888-.769.858.858,0,0,1,.8-.978" transform="translate(-143.789 -48.91)" fill="#12263f"/>
            <path id="Trazado_1033311" data-name="Trazado 1033311" d="M73.167,160.282l2.091,0a.862.862,0,0,1,.869.852l.009,10.5a.948.948,0,0,1-.937.945l-18.853.005a.943.943,0,0,1-.9-.99l.008-10.42a.932.932,0,0,1,1.032-.9l12.322,0a.884.884,0,0,1,.992.885.927.927,0,0,1-1,.905l-11.583,0v8.714l17.132,0,0-8.711L73,162.014a.891.891,0,0,1-.729-.862.861.861,0,0,1,.9-.87" transform="translate(-44.94 -129.901)" fill="#12263f"/>
            <path id="Trazado_1033312" data-name="Trazado 1033312" d="M226.717,239.636l-9.48.015a.918.918,0,0,1-.911-.837.9.9,0,0,1,.951-.932l9.322.005a.9.9,0,0,1,.948.8.88.88,0,0,1-.83.953" transform="translate(-175.331 -192.803)" fill="#12263f"/>
            <path id="Trazado_1033313" data-name="Trazado 1033313" d="M104.7,139.764l-9.527.022a.954.954,0,0,1-.9-.851c0-.647.439-.91,1.074-.912l9.1-.024a1,1,0,0,1,1.043.767.875.875,0,0,1-.791,1" transform="translate(-76.403 -111.848)" fill="#12263f"/>
            <path id="Trazado_1033314" data-name="Trazado 1033314" d="M100.284,239.681l-5.073-.013a.912.912,0,0,1-.911-.833.889.889,0,0,1,.954-.926l5.159.005a.835.835,0,0,1,.875.942.88.88,0,0,1-1,.825" transform="translate(-76.428 -192.825)" fill="#12263f"/>
            <path id="Trazado_1033315" data-name="Trazado 1033315" d="M222.413,139.966h-5.2a.933.933,0,0,1-.863-.744c-.093-.365.135-.976.662-.978l5.5-.021a.829.829,0,0,1,.811.886.861.861,0,0,1-.911.858" transform="translate(-175.336 -112.029)" fill="#12263f"/>
            <path id="Trazado_1033316" data-name="Trazado 1033316" d="M63.971,239.687l-2.041.011a.907.907,0,0,1-.95-.83.848.848,0,0,1,.859-.915l2.091-.014a.8.8,0,0,1,.886.76.826.826,0,0,1-.845.989" transform="translate(-49.422 -192.85)" fill="#12263f"/>
            <path id="Trazado_1033317" data-name="Trazado 1033317" d="M186.025,239.693l-2.046,0a.892.892,0,0,1-.94-.832.849.849,0,0,1,.847-.917l2.093-.01a.82.82,0,0,1,.9.76.847.847,0,0,1-.851,1" transform="translate(-148.352 -192.849)" fill="#12263f"/>
            <path id="Trazado_1033318" data-name="Trazado 1033318" d="M186.142,139.938l-2.165.034a.9.9,0,0,1-.914-.712c-.085-.36.063-.953.552-.966l2.442-.066a.865.865,0,0,1,.851.767.852.852,0,0,1-.767.943" transform="translate(-148.355 -112.034)" fill="#12263f"/>
            <path id="Trazado_1033319" data-name="Trazado 1033319" d="M64.1,139.825l-2.32,0a.823.823,0,0,1-.778-.838.847.847,0,0,1,.929-.888l1.907-.014a.887.887,0,0,1,.991.728.808.808,0,0,1-.73,1.008" transform="translate(-49.445 -111.921)" fill="#12263f"/>
          </g>
        </g>
      </g>
    </g>
  </g>
</svg>
