<svg xmlns="http://www.w3.org/2000/svg" xmlns:xlink="http://www.w3.org/1999/xlink" width="396" height="1680" viewBox="0 0 396 1680">
  <defs>
    <clipPath id="clip-path">
      <rect id="Rectángulo_466849" data-name="Rectángulo 466849" width="83.212" height="82.616" fill="#12263f"/>
    </clipPath>
    <clipPath id="clip-path-2">
      <rect id="Rectángulo_466850" data-name="Rectángulo 466850" width="91" height="92" transform="translate(0.413 -0.147)" fill="#12263f"/>
    </clipPath>
    <clipPath id="clip-path-3">
      <rect id="Rectángulo_466851" data-name="Rectángulo 466851" width="97.42" height="75.245" fill="#12263f"/>
    </clipPath>
    <clipPath id="clip-path-4">
      <rect id="Rectángulo_466852" data-name="Rectángulo 466852" width="80.592" height="80.552" fill="#12263f"/>
    </clipPath>
    <clipPath id="clip-path-5">
      <rect id="Rectángulo_466853" data-name="Rectángulo 466853" width="87.259" height="76.903" fill="#12263f"/>
    </clipPath>
  </defs>
  <g id="Grupo_1180605" data-name="Grupo 1180605" transform="translate(-810 -8938)">
    <rect id="Rectángulo_466854" data-name="Rectángulo 466854" width="396" height="1680" transform="translate(810 8938)" fill="#c0f6f2"/>
    <g id="Grupo_1180600" data-name="Grupo 1180600" transform="translate(830.333 9713.455)">
      <circle id="Elipse_5841" data-name="Elipse 5841" cx="21.252" cy="21.252" r="21.252" transform="translate(0 0)" fill="#ae0000"/>
      <text id="_1" data-name="1" transform="translate(16.528 28.638)" fill="#fff" font-size="18" font-family="SegoeUI-Bold, Segoe UI" font-weight="700"><tspan x="0" y="0">1</tspan></text>
    </g>
    <g id="Grupo_1180604" data-name="Grupo 1180604" transform="translate(830.333 10427.135)">
      <circle id="Elipse_5841-2" data-name="Elipse 5841" cx="21.252" cy="21.252" r="21.252" transform="translate(0 0)" fill="#ae0000"/>
      <text id="_5" data-name="5" transform="translate(16.528 28.638)" fill="#fff" font-size="18" font-family="SegoeUI-Bold, Segoe UI" font-weight="700"><tspan x="0" y="0">5</tspan></text>
    </g>
    <g id="Grupo_1180602" data-name="Grupo 1180602" transform="translate(830.333 10069.799)">
      <circle id="Elipse_5841-3" data-name="Elipse 5841" cx="21.252" cy="21.252" r="21.252" transform="translate(0 0)" fill="#ae0000"/>
      <text id="_3" data-name="3" transform="translate(16.528 28.638)" fill="#fff" font-size="18" font-family="SegoeUI-Bold, Segoe UI" font-weight="700"><tspan x="0" y="0">3</tspan></text>
    </g>
    <g id="Grupo_1180601" data-name="Grupo 1180601" transform="translate(830.333 9892.295)">
      <circle id="Elipse_5841-4" data-name="Elipse 5841" cx="21.252" cy="21.252" r="21.252" transform="translate(0 0)" fill="#ae0000"/>
      <text id="_2" data-name="2" transform="translate(16.528 28.638)" fill="#fff" font-size="18" font-family="SegoeUI-Bold, Segoe UI" font-weight="700"><tspan x="0" y="0">2</tspan></text>
    </g>
    <g id="Grupo_1180603" data-name="Grupo 1180603" transform="translate(830.333 10249.361)">
      <circle id="Elipse_5841-5" data-name="Elipse 5841" cx="21.252" cy="21.252" r="21.252" transform="translate(0 0)" fill="#ae0000"/>
      <text id="_4" data-name="4" transform="translate(16.528 28.638)" fill="#fff" font-size="18" font-family="SegoeUI-Bold, Segoe UI" font-weight="700"><tspan x="0" y="0">4</tspan></text>
    </g>
    <text id="Escena_Representa_una_acción_o_situación_concreta_dentro_de_un_contexto_de_uso_definido_describiendo_el_entorno_y_el_momento_en_que_ocurre_la_interacción." data-name="Escena

Representa una acción o situación concreta dentro de un contexto de uso definido, describiendo el entorno y el momento en que ocurre la interacción." transform="translate(891.667 9724.959)" fill="#12263f" font-size="16" font-family="SegoeUI-Bold, Segoe UI" letter-spacing="0.003em" font-weight="700"><tspan x="0" y="17">Escena</tspan><tspan font-family="SegoeUI, Segoe UI" font-weight="400"><tspan x="0" y="41"></tspan><tspan x="0" y="65">Representa una acción o situación </tspan><tspan x="0" y="89">concreta dentro de un contexto de uso </tspan><tspan x="0" y="113">definido, describiendo el entorno y el </tspan><tspan x="0" y="137">momento en que ocurre la interacción.</tspan></tspan></text>
    <text id="Resultado_Respuesta_generada_por_el_sistema_tras_la_interacción_que_puede_incluir_cambios_de_estado_retroalimentación_visual_o_confirmaciones_para_el_usuario." data-name="Resultado

Respuesta generada por el sistema tras la interacción, que puede incluir cambios de estado, retroalimentación visual o confirmaciones para el usuario." transform="translate(891.667 10438.639)" fill="#12263f" font-size="16" font-family="SegoeUI-Bold, Segoe UI" letter-spacing="0.003em" font-weight="700"><tspan x="0" y="17">Resultado</tspan><tspan font-family="SegoeUI, Segoe UI" font-weight="400"><tspan x="0" y="41"></tspan><tspan x="0" y="65">Respuesta generada por el sistema tras </tspan><tspan x="0" y="89">la interacción, que puede incluir </tspan><tspan x="0" y="113">cambios de estado, retroalimentación </tspan><tspan x="0" y="137">visual o confirmaciones para el usuario.</tspan></tspan></text>
    <text id="Interacción_Conjunto_de_acciones_realizadas_por_el_usuario_sobre_la_interfaz_como_seleccionar_ingresar_o_confirmar_información." data-name="Interacción

Conjunto de acciones realizadas por el usuario sobre la interfaz, como seleccionar, ingresar o confirmar información." transform="translate(891.667 10081.303)" fill="#12263f" font-size="16" font-family="SegoeUI-Bold, Segoe UI" letter-spacing="0.003em" font-weight="700"><tspan x="0" y="17">Interacción</tspan><tspan font-family="SegoeUI, Segoe UI" font-weight="400"><tspan x="0" y="41"></tspan><tspan x="0" y="65">Conjunto de acciones realizadas por el </tspan><tspan x="0" y="89">usuario sobre la interfaz, como </tspan><tspan x="0" y="113">seleccionar, ingresar o confirmar </tspan><tspan x="0" y="137">información.</tspan></tspan></text>
    <text id="Usuario_Actor_principal_que_interactúa_con_el_sistema_caracterizado_por_un_rol_necesidades_específicas_y_un_objetivo_a_alcanzar." data-name="Usuario

Actor principal que interactúa con el sistema, caracterizado por un rol, necesidades específicas y un objetivo a alcanzar." transform="translate(891.667 9903.799)" fill="#12263f" font-size="16" font-family="SegoeUI-Bold, Segoe UI" letter-spacing="0.003em" font-weight="700"><tspan x="0" y="17">Usuario</tspan><tspan font-family="SegoeUI, Segoe UI" font-weight="400"><tspan x="0" y="41"></tspan><tspan x="0" y="65">Actor principal que interactúa con el </tspan><tspan x="0" y="89">sistema, caracterizado por un rol, </tspan><tspan x="0" y="113">necesidades específicas y un objetivo a </tspan><tspan x="0" y="137">alcanzar.</tspan></tspan></text>
    <text id="Flujo_Secuencia_lógica_y_ordenada_de_eventos_e_interacciones_que_muestran_cómo_evoluciona_el_proceso_dentro_del_sistema." data-name="Flujo

Secuencia lógica y ordenada de eventos e interacciones que muestran cómo evoluciona el proceso dentro del sistema." transform="translate(891.667 10260.865)" fill="#12263f" font-size="16" font-family="SegoeUI-Bold, Segoe UI" letter-spacing="0.003em" font-weight="700"><tspan x="0" y="17">Flujo</tspan><tspan font-family="SegoeUI, Segoe UI" font-weight="400"><tspan x="0" y="41"></tspan><tspan x="0" y="65">Secuencia lógica y ordenada de </tspan><tspan x="0" y="89">eventos e interacciones que muestran </tspan><tspan x="0" y="113">cómo evoluciona el proceso dentro </tspan><tspan x="0" y="137">del sistema.</tspan></tspan></text>
    <g id="Rectángulo_466839" data-name="Rectángulo 466839" transform="translate(830 9026)" fill="#fff" stroke="#12263f" stroke-width="3">
      <rect width="180" height="155" stroke="none"/>
      <rect x="1.5" y="1.5" width="177" height="152" fill="none"/>
    </g>
    <g id="Rectángulo_466840" data-name="Rectángulo 466840" transform="translate(1007 9026)" fill="#fff" stroke="#12263f" stroke-width="3">
      <rect width="180" height="155" stroke="none"/>
      <rect x="1.5" y="1.5" width="177" height="152" fill="none"/>
    </g>
    <g id="Rectángulo_466844" data-name="Rectángulo 466844" transform="translate(830 8972)" fill="#ffb758" stroke="#12263f" stroke-width="3">
      <rect width="180" height="57" stroke="none"/>
      <rect x="1.5" y="1.5" width="177" height="54" fill="none"/>
    </g>
    <g id="Rectángulo_466845" data-name="Rectángulo 466845" transform="translate(1007 8972)" fill="#ffcc74" stroke="#12263f" stroke-width="3">
      <rect width="180" height="57" stroke="none"/>
      <rect x="1.5" y="1.5" width="177" height="54" fill="none"/>
    </g>
    <text id="Escena" transform="translate(860.854 8989.278)" fill="#12263f" font-size="17" font-family="SegoeUI, Segoe UI"><tspan x="33.214" y="18">Escena</tspan></text>
    <text id="Usuario" transform="translate(1038.307 8989.278)" fill="#12263f" font-size="17" font-family="SegoeUI, Segoe UI"><tspan x="30.051" y="18">Usuario</tspan></text>
    <g id="Grupo_1180578" data-name="Grupo 1180578" transform="translate(877.875 9060.822)">
      <g id="Grupo_1180577" data-name="Grupo 1180577" clip-path="url(#clip-path)">
        <path id="Trazado_1031676" data-name="Trazado 1031676" d="M67.462,82.573l-49.639.043A16.278,16.278,0,0,1,1.745,66.274l.046-13.9c0-1.048,1.213-1.554,1.978-1.583.9-.034,2.173.446,2.183,1.592L6.075,66.81A11.934,11.934,0,0,0,18.088,78.383l48.419.04c6.4.021,12.289-4.834,12.316-11.382l.1-24.647L4.2,42.411c-1.462,0-2.43-.7-2.444-2.139L1.62,26.934.1,18.085C-.53,14.444,1.935,11.5,5.543,10.833L64.328.027c1.411-.259,2.108,1.393,2.071,2.3-.052,1.283-1.045,1.854-2.309,2.1L58.361,5.536l9.291,7.388,7.087-1.359c1.264-.243,1.49-1.631,1.3-2.707l-.86-4.983c-.186-1.077.873-1.82,1.8-1.968a1.928,1.928,0,0,1,2.279,1.266L80.3,8.53a6.177,6.177,0,0,1-5.041,7.355L28.651,24.594l49.085.225c3.145.014,5.476,3.12,5.476,6.09V66.263c0,8.564-6.833,16.3-15.748,16.31m-5.5-68.65L52.635,6.515,39.355,9.021l9.384,7.424ZM43.033,17.455l-9.394-7.449L18.8,12.814l9.311,7.417ZM5.725,24.4l16.769-3.149-9.337-7.429L6.028,15.136a1.979,1.979,0,0,0-1.671,2.407ZM22.939,38.091l-9.069-9.1-7.843.044.012,9.109Zm21.774-.085L35.8,29l-15.705.044,9.031,9.078Zm20.228.068-9.055-9.065-14.064.038,9.1,9.093Zm13.912-7.545a1.691,1.691,0,0,0-1.635-1.5l-15.149.018,9.04,9.054,7.838-.043Z" transform="translate(0 0)" fill="#12263f"/>
        <path id="Trazado_1031677" data-name="Trazado 1031677" d="M137.755,195.393l-13.007,7.955a4.253,4.253,0,0,1-4.543.113,4.368,4.368,0,0,1-2.182-3.748l.11-16.613c.018-2.76,3.692-4.714,6.017-3.306l13.841,8.383a4.306,4.306,0,0,1,1.8,3.626,4.133,4.133,0,0,1-2.032,3.589m-2.281-3.665-13.045-7.988-.073,15.934Z" transform="translate(-86.432 -131.325)" fill="#12263f"/>
      </g>
    </g>
    <g id="Grupo_1180580" data-name="Grupo 1180580" transform="translate(1051.587 9056.147)">
      <g id="Grupo_1180579" data-name="Grupo 1180579" clip-path="url(#clip-path-2)">
        <path id="Trazado_1031678" data-name="Trazado 1031678" d="M91.627,45.814A45.813,45.813,0,1,1,45.813,0,45.813,45.813,0,0,1,91.627,45.814M56.611,50.263a31.533,31.533,0,0,1,19.722,22,40.4,40.4,0,1,0-61.036,0A31.426,31.426,0,0,1,35.051,50.282a19.258,19.258,0,1,1,21.559-.019m3.1-15.939a13.9,13.9,0,1,0-13.9,13.9,13.9,13.9,0,0,0,13.9-13.9m12.065,42.4A26.319,26.319,0,0,0,56.437,56.044a25.82,25.82,0,0,0-24.346,1.676A26.123,26.123,0,0,0,19.91,76.79a40.262,40.262,0,0,0,51.866-.064" transform="translate(0 -0.001)" fill="#12263f"/>
      </g>
    </g>
    <g id="Grupo_1180593" data-name="Grupo 1180593" transform="translate(898.748 9158.16)">
      <circle id="Elipse_5841-6" data-name="Elipse 5841" cx="21.252" cy="21.252" r="21.252" transform="translate(0 0)" fill="#ae0000"/>
      <text id="_1-2" data-name="1" transform="translate(16.528 28.638)" fill="#fff" font-size="18" font-family="SegoeUI-Bold, Segoe UI" font-weight="700"><tspan x="0" y="0">1</tspan></text>
    </g>
    <g id="Grupo_1180594" data-name="Grupo 1180594" transform="translate(1076.748 9158.16)">
      <circle id="Elipse_5841-7" data-name="Elipse 5841" cx="21.252" cy="21.252" r="21.252" transform="translate(0 0)" fill="#ae0000"/>
      <text id="_2-2" data-name="2" transform="translate(16.528 28.638)" fill="#fff" font-size="18" font-family="SegoeUI-Bold, Segoe UI" font-weight="700"><tspan x="0" y="0">2</tspan></text>
    </g>
    <g id="Rectángulo_466856" data-name="Rectángulo 466856" transform="translate(830 9269)" fill="#fff" stroke="#12263f" stroke-width="3">
      <rect width="180" height="155" stroke="none"/>
      <rect x="1.5" y="1.5" width="177" height="152" fill="none"/>
    </g>
    <g id="Rectángulo_466857" data-name="Rectángulo 466857" transform="translate(1007 9269)" fill="#fff" stroke="#12263f" stroke-width="3">
      <rect width="180" height="155" stroke="none"/>
      <rect x="1.5" y="1.5" width="177" height="152" fill="none"/>
    </g>
    <g id="Rectángulo_466855" data-name="Rectángulo 466855" transform="translate(830 9215)" fill="#c9e8f7" stroke="#12263f" stroke-width="3">
      <rect width="180" height="57" stroke="none"/>
      <rect x="1.5" y="1.5" width="177" height="54" fill="none"/>
    </g>
    <g id="Rectángulo_466858" data-name="Rectángulo 466858" transform="translate(1007 9215)" fill="#7dd3ff" stroke="#12263f" stroke-width="3">
      <rect width="180" height="57" stroke="none"/>
      <rect x="1.5" y="1.5" width="177" height="54" fill="none"/>
    </g>
    <text id="Interacción" transform="translate(861.198 9232.316)" fill="#12263f" font-size="17" font-family="SegoeUI, Segoe UI"><tspan x="17.375" y="18">Interacción</tspan></text>
    <text id="Flujo" transform="translate(1038.293 9232.316)" fill="#12263f" font-size="17" font-family="SegoeUI, Segoe UI"><tspan x="40.697" y="18">Flujo</tspan></text>
    <g id="Grupo_1180595" data-name="Grupo 1180595" transform="translate(871.243 9307.621)">
      <g id="Grupo_1180581" data-name="Grupo 1180581" clip-path="url(#clip-path-3)">
        <path id="Trazado_1031679" data-name="Trazado 1031679" d="M43.8,83.725a9.9,9.9,0,0,1,8.6-9.232l17.676-2.809L39.565,41.034c-3.36-3.376-2.452-8.916.833-11.792a8.537,8.537,0,0,1,11.831.612l7.529,7.508a9.113,9.113,0,0,1,5.165-5.437c2.861-1.169,5.654-.3,8.06.985,1.01-2.275,2.851-4.615,5.18-5.39a8.453,8.453,0,0,1,8.144,1.156,8.631,8.631,0,0,1,6.022-5.857,8.48,8.48,0,0,1,8.523,2.56l16.479,18.174a24.164,24.164,0,0,1-1.076,33.31l-7.969,7.883a22.478,22.478,0,0,1-15.912,6.181L50.2,90.916a6.565,6.565,0,0,1-6.4-7.191m-.772-45.333L76.474,71.9a2,2,0,0,1,.23,2.336,2.334,2.334,0,0,1-1.742,1.2L53.135,78.855a5.565,5.565,0,0,0-4.945,5.2,2.327,2.327,0,0,0,2.523,2.46L92.065,86.5a18.653,18.653,0,0,0,13.443-5.181l8.035-8.01c7.68-8.118,6.822-20.02-.585-28.12L97.866,28.682c-1.691-1.849-3.988-2.364-5.931-.833a4.068,4.068,0,0,0-.243,6.051,2.3,2.3,0,0,1,0,3.321,2.22,2.22,0,0,1-3.144-.168L83.966,32.51a3.958,3.958,0,0,0-5.685.126,4.032,4.032,0,0,0,.156,5.706l4.4,4.415a2.215,2.215,0,1,1-2.983,3.276l-9.493-9.365c-1.594-1.572-4.5-.885-5.722.794a4.129,4.129,0,0,0,.668,5.505l8.659,8.648a2.237,2.237,0,0,1,.04,3.262,2.138,2.138,0,0,1-3.171-.151L48.633,32.588a3.979,3.979,0,0,0-5.674.306,4.022,4.022,0,0,0,.069,5.5" transform="translate(-26.048 -15.682)" fill="#12263f"/>
        <path id="Trazado_1031680" data-name="Trazado 1031680" d="M34.078,13.665A15.473,15.473,0,1,0,13.387,33.914a2.3,2.3,0,0,1,1.269,3.007,2.238,2.238,0,0,1-3.132,1.037,19.9,19.9,0,1,1,26.52-26.2,2.2,2.2,0,0,1-3.966,1.906" transform="translate(0 0)" fill="#12263f"/>
      </g>
    </g>
    <g id="Grupo_1180596" data-name="Grupo 1180596" transform="translate(1056.751 9304.968)">
      <g id="Grupo_1180583" data-name="Grupo 1180583" clip-path="url(#clip-path-4)">
        <path id="Trazado_1031681" data-name="Trazado 1031681" d="M64.781,30.619a2.779,2.779,0,0,1,3.6.024,2.712,2.712,0,0,1,.384,3.784l-2.887,2.99,4.5.041a4.6,4.6,0,0,0,4.585-4.764l0-12.962A4.546,4.546,0,0,0,70.6,15.024l-46.283-.039a8.355,8.355,0,0,1-8.194,9.343l-7.882.019A8.438,8.438,0,0,1,0,15.826V8.5A8.429,8.429,0,0,1,7.395.043c3.327.132,6.517-.241,9.822.119a8.276,8.276,0,0,1,7.1,9.192l46.322.063a10.172,10.172,0,0,1,9.953,10.3V32.7A10.2,10.2,0,0,1,70.67,43.085l-4.8.058,2.776,2.832A2.774,2.774,0,0,1,64.857,50L56.82,42.014a2.711,2.711,0,0,1,0-3.469ZM15.988,18.7a2.868,2.868,0,0,0,2.767-3.147V8.766c0-1.405-.809-3.045-2.365-3.046l-8.422,0A2.648,2.648,0,0,0,5.627,8.482v7.352a2.833,2.833,0,0,0,2.891,2.888Z" transform="translate(-0.001 0)" fill="#12263f"/>
        <path id="Trazado_1031682" data-name="Trazado 1031682" d="M38.2,134.723a2.725,2.725,0,0,1,.089-3.815c.8-.838,2.568-1.34,3.61-.3l8.164,8.145a2.593,2.593,0,0,1-.006,3.214L41.9,150.108a2.637,2.637,0,0,1-3.612-.3,2.7,2.7,0,0,1-.15-3.741l2.767-2.872-30.682-.039A10.259,10.259,0,0,1,0,132.788l.006-12.962a10.321,10.321,0,0,1,10.479-10.39l17.674.007a8.3,8.3,0,0,1,7.618-9.269l9.046-.062a8.279,8.279,0,0,1,7.625,8.185l0,7.891a8.308,8.308,0,0,1-8.2,8.232l-7.6.008a8.421,8.421,0,0,1-8.481-9.364l-18.2.05a4.542,4.542,0,0,0-4.333,4.7V132.77a4.7,4.7,0,0,0,4.885,4.8l30.4-.02Zm5.908-15.944a2.765,2.765,0,0,0,2.736-2.862V108.56a2.646,2.646,0,0,0-2.34-2.765l-8.421,0c-1.555,0-2.365,1.641-2.365,3.047l0,6.78a2.933,2.933,0,0,0,2.919,3.174Z" transform="translate(0 -71.964)" fill="#12263f"/>
        <path id="Trazado_1031683" data-name="Trazado 1031683" d="M216.312,224.57l-8.06.016a8.314,8.314,0,0,1-8.234-8.486l.015-7.642c.008-4.2,3.351-8.087,7.638-8.088l9.046,0c4.266,0,7.627,3.9,7.626,8.09l0,7.923a8.138,8.138,0,0,1-8.03,8.188m-.3-5.606a2.766,2.766,0,0,0,2.735-2.862v-7.356a2.648,2.648,0,0,0-2.34-2.766h-8.426a2.648,2.648,0,0,0-2.34,2.766V216.1a2.834,2.834,0,0,0,2.889,2.888Z" transform="translate(-143.782 -144.034)" fill="#12263f"/>
      </g>
    </g>
    <g id="Grupo_1180597" data-name="Grupo 1180597" transform="translate(898.748 9401.16)">
      <circle id="Elipse_5841-8" data-name="Elipse 5841" cx="21.252" cy="21.252" r="21.252" transform="translate(0 0)" fill="#ae0000"/>
      <text id="_3-2" data-name="3" transform="translate(16.528 28.638)" fill="#fff" font-size="18" font-family="SegoeUI-Bold, Segoe UI" font-weight="700"><tspan x="0" y="0">3</tspan></text>
    </g>
    <g id="Grupo_1180598" data-name="Grupo 1180598" transform="translate(1076.496 9401.16)">
      <circle id="Elipse_5841-9" data-name="Elipse 5841" cx="21.252" cy="21.252" r="21.252" transform="translate(0 0)" fill="#ae0000"/>
      <text id="_4-2" data-name="4" transform="translate(16.528 28.638)" fill="#fff" font-size="18" font-family="SegoeUI-Bold, Segoe UI" font-weight="700"><tspan x="0" y="0">4</tspan></text>
    </g>
    <g id="Rectángulo_466843" data-name="Rectángulo 466843" transform="translate(918 9513)" fill="#fff" stroke="#12263f" stroke-width="3">
      <rect width="180" height="155" stroke="none"/>
      <rect x="1.5" y="1.5" width="177" height="152" fill="none"/>
    </g>
    <g id="Rectángulo_466848" data-name="Rectángulo 466848" transform="translate(918 9459)" fill="#68c6ea" stroke="#12263f" stroke-width="3">
      <rect width="180" height="57" stroke="none"/>
      <rect x="1.5" y="1.5" width="177" height="54" fill="none"/>
    </g>
    <text id="Resultado" transform="translate(949.166 9476.299)" fill="#12263f" font-size="17" font-family="SegoeUI, Segoe UI"><tspan x="21.748" y="18">Resultado</tspan></text>
    <g id="Grupo_1180586" data-name="Grupo 1180586" transform="translate(964.23 9545.643)">
      <g id="Grupo_1180585" data-name="Grupo 1180585" clip-path="url(#clip-path-5)">
        <path id="Trazado_1031684" data-name="Trazado 1031684" d="M59.839,76.9l-32.808-.034a2.534,2.534,0,0,1,.064-5.036l3.677-.1-.011-5.049L6.407,66.6A6.506,6.506,0,0,1,0,59.937l.038-53.7C.041,3.123,2.8,0,6.025,0H81.236c3.226,0,5.984,3.121,5.986,6.241l.037,53.7a6.432,6.432,0,0,1-6.185,6.634L56.5,66.69l-.005,5.044,3.674.1a2.508,2.508,0,0,1,2.276,2.458,2.549,2.549,0,0,1-2.6,2.613M82.114,5.032H5.146V51.3H82.114ZM5.146,56.36l0,5.206,76.969.035,0-5.206ZM51.332,66.653h-15.4V71.8h15.4Z" transform="translate(0)" fill="#12263f"/>
        <path id="Trazado_1031685" data-name="Trazado 1031685" d="M130.065,55.335a17.957,17.957,0,1,1-17.957-17.957,17.957,17.957,0,0,1,17.957,17.957m-5.118-.009a12.84,12.84,0,1,0-12.84,12.84,12.84,12.84,0,0,0,12.84-12.84" transform="translate(-68.478 -27.186)" fill="#12263f"/>
        <path id="Trazado_1031686" data-name="Trazado 1031686" d="M135.762,94.323l-3.2-3.185a2.594,2.594,0,0,1-.053-3.5,2.55,2.55,0,0,1,3.676-.128l1.556,1.578,5.341-3.556a2.62,2.62,0,0,1,3.567.425,2.556,2.556,0,0,1-.373,3.583l-7.507,5.037a2.387,2.387,0,0,1-3-.258" transform="translate(-95.9 -61.843)" fill="#12263f"/>
      </g>
    </g>
    <g id="Grupo_1180599" data-name="Grupo 1180599" transform="translate(986.748 9646.748)">
      <circle id="Elipse_5841-10" data-name="Elipse 5841" cx="21.252" cy="21.252" r="21.252" transform="translate(0 0)" fill="#ae0000"/>
      <text id="_5-2" data-name="5" transform="translate(16.528 28.638)" fill="#fff" font-size="18" font-family="SegoeUI-Bold, Segoe UI" font-weight="700"><tspan x="0" y="0">5</tspan></text>
    </g>
  </g>
</svg>
