<svg xmlns="http://www.w3.org/2000/svg" xmlns:xlink="http://www.w3.org/1999/xlink" width="128" height="128" viewBox="0 0 128 128">
  <defs>
    <clipPath id="clip-path">
      <rect id="Rectángulo_456267" data-name="Rectángulo 456267" width="128" height="128" fill="none"/>
    </clipPath>
    <clipPath id="clip-path-2">
      <rect id="Rectángulo_467152" data-name="Rectángulo 467152" width="70.902" height="80.463" fill="#19538d"/>
    </clipPath>
  </defs>
  <g id="Grupo_1180371" data-name="Grupo 1180371" transform="translate(511.746 8527) rotate(180)">
    <path id="Trazado_999622" data-name="Trazado 999622" d="M59.07,0A59.07,59.07,0,1,1,0,59.07,59.071,59.071,0,0,1,59.07,0" transform="translate(388.676 8403.93)" fill="#fff"/>
    <g id="Grupo_1179902" data-name="Grupo 1179902" transform="translate(383.746 8399)">
      <g id="Grupo_1179905" data-name="Grupo 1179905" clip-path="url(#clip-path)">
        <path id="Trazado_999618" data-name="Trazado 999618" d="M64,0A64,64,0,1,1,0,64,64,64,0,0,1,64,0" fill="none"/>
        <path id="Trazado_999619" data-name="Trazado 999619" d="M5,59a5,5,0,1,1-5,5,5,5,0,0,1,5-5" fill="#19538d"/>
        <path id="Trazado_999620" data-name="Trazado 999620" d="M21,19a5,5,0,1,1-5,5,5,5,0,0,1,5-5" fill="#19538d"/>
        <path id="Trazado_999621" data-name="Trazado 999621" d="M64,124A60.068,60.068,0,0,1,4,64H7A57,57,0,1,0,22.408,25.024L20.22,22.972A60,60,0,1,1,64,124" fill="#19538d"/>
        <rect id="Rectángulo_456268" data-name="Rectángulo 456268" width="128" height="128" fill="none"/>
        <rect id="Rectángulo_456269" data-name="Rectángulo 456269" width="128" height="128" fill="none"/>
      </g>
    </g>
    <g id="Grupo_1181023" data-name="Grupo 1181023" transform="translate(483.197 8503.231) rotate(180)">
      <g id="Grupo_1181022" data-name="Grupo 1181022" clip-path="url(#clip-path-2)">
        <path id="Trazado_1033320" data-name="Trazado 1033320" d="M23.365,69.381l-11.812,0a1.29,1.29,0,0,1-1.425-1.288l0-13.67-7.65-.051a2.613,2.613,0,0,1-2.468-2.56l.028-7.567A2.49,2.49,0,0,1,2.239,42l7.841-.1,0-3.945L2.75,37.927A2.72,2.72,0,0,1,0,35.2l.047-7.546A2.533,2.533,0,0,1,2.5,25.42l7.58-.047.055-3.965A1.129,1.129,0,0,1,11.317,20.3l22.881.009.04-2.707H26.892a2.736,2.736,0,0,1-2.777-2.767V11.562a1.176,1.176,0,0,1,.959-1.189,1.1,1.1,0,0,1,1.341.929l.107,3.964,17.847.022.075-12.909L26.521,2.339l-.066,3.7a1.17,1.17,0,1,1-2.34-.017l0-3.286A2.657,2.657,0,0,1,26.672.03L43.992,0a2.728,2.728,0,0,1,2.786,2.763V14.823A2.737,2.737,0,0,1,44,17.595l-7.348.006.042,2.708L59.577,20.3a1.081,1.081,0,0,1,1.143.915l.095,4.168,7.337.008a2.6,2.6,0,0,1,2.7,2.273l.049,3.76a1.132,1.132,0,0,1-.942,1.164,1.072,1.072,0,0,1-1.345-.91l-.146-3.908-17.849-.011,0,12.9,17.842-.01.148-3.939a1.031,1.031,0,0,1,1.16-.935A1.16,1.16,0,0,1,70.9,36.958l-.045,3.761a2.587,2.587,0,0,1-2.7,2.269L60.777,43l-.009,25.079a1.236,1.236,0,0,1-1.191,1.282l-12,.023A9.168,9.168,0,0,1,45.9,71.568l-7.789,7.769a3.746,3.746,0,0,1-5.458-.115l-7.775-7.793a6.175,6.175,0,0,1-1.518-2.047M19.755,54.4l-7.239.007.009,12.552,10.6-.018c.318,0,.614-.628.684-.9L33.353,56.5c.29-.06.9-.365.9-.681l-.01-7.2a8.819,8.819,0,0,1,.005-17.465l.006-8.506-21.676,0-.013,2.735,7.313,0a2.682,2.682,0,0,1,2.737,2.5l0,7.573a2.67,2.67,0,0,1-2.741,2.466l-7.321.019,0,3.99h7.321a2.72,2.72,0,0,1,2.779,2.806l0,7.051a2.751,2.751,0,0,1-2.89,2.609m25.13,14.775a1.415,1.415,0,0,0-.058-2.131l-1.871-1.881a1.136,1.136,0,0,1,.289-1.671,1.273,1.273,0,0,1,1.709.423,16.443,16.443,0,0,1,2.734,3.067l10.687-.033L58.369,43l-7.091.021a2.871,2.871,0,0,1-3.034-2.538L48.281,27.9a2.681,2.681,0,0,1,2.743-2.5l7.31-.012-.014-2.738-21.7.028.041,8.488a8.825,8.825,0,0,1-.043,17.48l.029,7.168c0,.421.683.533.853.7L40.923,59.9a1.1,1.1,0,0,1-.174,1.585,1.132,1.132,0,0,1-1.589-.079l-2.5-2.52a1.63,1.63,0,0,0-1.332-.606,1.673,1.673,0,0,0-1.091.618l-8.155,8.154a1.535,1.535,0,0,0-.54,1.208,1.656,1.656,0,0,0,.654,1.1l8.421,8.4a1.121,1.121,0,0,0,1.662,0ZM20.26,35.521l.03-7.734L2.363,27.756l.021,7.77Zm14.175-1.97A6.382,6.382,0,0,0,29.1,40.927a6.439,6.439,0,1,0,5.339-7.376M20.285,52.018l-.017-7.754-17.92,0,.051,7.8Z" transform="translate(0 0.001)" fill="#19538d"/>
      </g>
    </g>
  </g>
</svg>
