<svg xmlns="http://www.w3.org/2000/svg" xmlns:xlink="http://www.w3.org/1999/xlink" width="128" height="128" viewBox="0 0 128 128">
  <defs>
    <clipPath id="clip-path">
      <rect id="Rectángulo_456267" data-name="Rectángulo 456267" width="128" height="128" fill="none"/>
    </clipPath>
    <clipPath id="clip-path-2">
      <rect id="Rectángulo_467153" data-name="Rectángulo 467153" width="63.876" height="63.896" fill="#19538d"/>
    </clipPath>
  </defs>
  <g id="Grupo_1180372" data-name="Grupo 1180372" transform="translate(511.746 8527) rotate(180)">
    <path id="Trazado_999622" data-name="Trazado 999622" d="M59.07,0A59.07,59.07,0,1,1,0,59.07,59.071,59.071,0,0,1,59.07,0" transform="translate(388.676 8403.93)" fill="#fff"/>
    <g id="Grupo_1179902" data-name="Grupo 1179902" transform="translate(383.746 8399)">
      <g id="Grupo_1179905" data-name="Grupo 1179905" clip-path="url(#clip-path)">
        <path id="Trazado_999618" data-name="Trazado 999618" d="M64,0A64,64,0,1,1,0,64,64,64,0,0,1,64,0" fill="none"/>
        <path id="Trazado_999619" data-name="Trazado 999619" d="M5,59a5,5,0,1,1-5,5,5,5,0,0,1,5-5" fill="#19538d"/>
        <path id="Trazado_999620" data-name="Trazado 999620" d="M21,19a5,5,0,1,1-5,5,5,5,0,0,1,5-5" fill="#19538d"/>
        <path id="Trazado_999621" data-name="Trazado 999621" d="M64,124A60.068,60.068,0,0,1,4,64H7A57,57,0,1,0,22.408,25.024L20.22,22.972A60,60,0,1,1,64,124" fill="#19538d"/>
        <rect id="Rectángulo_456268" data-name="Rectángulo 456268" width="128" height="128" fill="none"/>
        <rect id="Rectángulo_456269" data-name="Rectángulo 456269" width="128" height="128" fill="none"/>
      </g>
    </g>
    <g id="Grupo_1181025" data-name="Grupo 1181025" transform="translate(482.878 8501.853) rotate(180)">
      <g id="Grupo_1181024" data-name="Grupo 1181024" transform="translate(2.448 3)" clip-path="url(#clip-path-2)">
        <path id="Trazado_1033321" data-name="Trazado 1033321" d="M63.816,56.218l.059,4.483A3.127,3.127,0,0,1,60.66,63.9L7.212,63.891A3.067,3.067,0,0,1,4.125,60.7l.021-4.218c.01-2.085,1.959-3.2,4.1-2.882L8.11,36.1C4.789,34.432,1.8,31.5.729,28.13A13.356,13.356,0,0,1,2.344,16.139l-.273-1.41-.016-5.36A9.321,9.321,0,0,1,11.571,0l4.41.022a9.127,9.127,0,0,1,8.742,8.944l.015,5.6a4.781,4.781,0,0,1-.352,1.459,14.328,14.328,0,0,1,2.032,4.555l8.762.012a3.109,3.109,0,0,1,4.733-3.537,3.22,3.22,0,0,1,1.16,3.535l16.6.014a2.044,2.044,0,0,1,2.09,2.166l0,30.857c1.969-.328,3.833.607,4.054,2.587M15.884,4.192a5.139,5.139,0,0,1,4.678,6.059,10.105,10.105,0,0,1,2.058.529c.6-4.254-2.115-8.255-6.4-8.646a33.3,33.3,0,0,0-5.521-.009,7.28,7.28,0,0,0-6.487,8.667,5.693,5.693,0,0,1,2.006-.509,5.158,5.158,0,0,1,4.746-6.1c1.62-.052,3.188-.081,4.925.011m1.663,5.715.966.893-.03-2.011A2.828,2.828,0,0,0,15.761,6.22l-4.785.009c-1.995,0-3.082,2.2-2.693,4.013,1.476.564.842-1.372,2.76-1.927a2.207,2.207,0,0,1,2.334.657l2.195,2.856ZM14.388,24.093l.078-2.273a4.336,4.336,0,0,0,4.03-4.068l.02-3.919L17.458,12.8l-2.134,2.1L12.11,10.641a.56.56,0,0,0-.44-.289c-.106-.01-.306.025-.309.211l-.027,1.806L8.2,12.386l.034,5.162a4.413,4.413,0,0,0,4.093,4.261l.088,2.346a1.42,1.42,0,0,0,.974.97c.366.032.981-.623,1-1.032M6.15,12.374a2.033,2.033,0,0,0,.013,4.066Zm14.483,4.105a2.057,2.057,0,0,0,2.018-2.172,1.967,1.967,0,0,0-2.059-1.91ZM10.527,23.667C8.158,22.4,6.7,20.927,6.335,18.575a4.5,4.5,0,0,1-2.579-.831,11.208,11.208,0,0,0-.373,11.231c1.638-2.877,4.083-4.347,7.145-5.308m5.751.033A11.228,11.228,0,0,1,23.4,29.012a11.3,11.3,0,0,0-.374-11.277,4.913,4.913,0,0,1-2.568.87c-.408,2.378-1.934,3.774-4.179,5.1m21.51-5.092a1.054,1.054,0,0,0-.608,1.4,1.028,1.028,0,1,0,.608-1.4M12.372,37.095c-.764-.167-1.315-.227-2.071-.342l0,16.831,47.391,0,.006-30.9-30.909,0-.01,2.07,28.883,0,0,26.764H12.378ZM15.73,25.859l-2.357,2.366-2.418-2.368a8.5,8.5,0,0,0-6.24,5.085,11.223,11.223,0,0,0,17.323.008,8.272,8.272,0,0,0-6.308-5.09m.739,10.9-2.035.3V49.481l16.476,0-.017-22.715-4.482.024a10.621,10.621,0,0,1-.658,1.993l3.087.08L28.824,43.3l-12.317.016Zm23.843-5.085a3.991,3.991,0,0,1-.589-4.9l-6.752,0V37.1l4.119,0a6.136,6.136,0,0,1,3.222-5.425m2.431-4.812a2.052,2.052,0,0,0-1.433,2.614,2.029,2.029,0,0,0,2.437,1.371,2.055,2.055,0,1,0-1-3.985M53.594,37,53.563,26.76l-6.705.045a4.141,4.141,0,0,1-.582,4.869,6.282,6.282,0,0,1,3.193,5.439ZM26.77,41.154l-.006-10.2a7.657,7.657,0,0,0-2.165.016,13.285,13.285,0,0,1-6.072,5.1l.005,5.135Zm20.659-4.129a4.144,4.144,0,0,0-8.288.085Zm-7.172,7.012a4.037,4.037,0,0,1-.517-4.9l-6.769,0V49.477l4.121-.017a6.243,6.243,0,0,1,3.165-5.423m2.488-4.813a2.056,2.056,0,0,0-1.435,2.614,2.059,2.059,0,0,0,3.949-1.161,2.07,2.07,0,0,0-2.514-1.453M53.594,49.365l-.029-10.233H46.832a4.154,4.154,0,0,1-.558,4.918,6.259,6.259,0,0,1,3.193,5.423ZM47.4,49.44a4.127,4.127,0,0,0-8.254.026ZM61.738,61.088l.073-4.339c.014-.828-.608-1.081-1.327-1.08l-19.362.022a5.212,5.212,0,0,1-5.187,4.067l-4.209-.005a5.148,5.148,0,0,1-4.832-4.062L7.387,55.673c-.715,0-1.2.264-1.2,1.045L6.168,60.7a1.047,1.047,0,0,0,1.078,1.114l38.1,0,.016-4.117H59.718l.105,4.075c.755.156,1.9.093,1.915-.691m-25.3-3.43a2.91,2.91,0,0,0,2.5-1.979l-9.857-.008a3.178,3.178,0,0,0,3.257,2.045Zm13,4.134L49.42,59.78l-2.012,0V61.8Zm4.161-.018-.027-1.98-2.062-.038v2.066Zm4.1.041-.011-2.063-2.026.037.027,2.036Z" transform="translate(0 0)" fill="#19538d"/>
        <path id="Trazado_1033322" data-name="Trazado 1033322" d="M147.543,22.687a12.191,12.191,0,0,0-10.382,4.694,6.46,6.46,0,0,1-1.572-1.319c4.629-5.615,12.1-7.222,18.236-3.4a17.188,17.188,0,0,1,3.871,3.395,6.368,6.368,0,0,1-1.584,1.328,12.458,12.458,0,0,0-8.569-4.7" transform="translate(-108.516 -16.469)" fill="#19538d"/>
        <path id="Trazado_1033323" data-name="Trazado 1033323" d="M168.385,56.421a6.971,6.971,0,0,0-5.27-2.691,6.756,6.756,0,0,0-5.438,2.681,7.72,7.72,0,0,1-1.632-1.345,9.1,9.1,0,0,1,6.886-3.388,8.919,8.919,0,0,1,7.019,3.4,7.794,7.794,0,0,1-1.565,1.347" transform="translate(-124.888 -41.36)" fill="#19538d"/>
        <path id="Trazado_1033324" data-name="Trazado 1033324" d="M94.925,229.179l-12.246.007-.041-2.029,12.256-.024a5.972,5.972,0,0,1,.031,2.046" transform="translate(-66.138 -181.782)" fill="#19538d"/>
      </g>
    </g>
  </g>
</svg>
