<svg xmlns="http://www.w3.org/2000/svg" xmlns:xlink="http://www.w3.org/1999/xlink" width="128" height="128" viewBox="0 0 128 128">
  <defs>
    <clipPath id="clip-path">
      <rect id="Rectángulo_456267" data-name="Rectángulo 456267" width="128" height="128" fill="none"/>
    </clipPath>
    <clipPath id="clip-path-2">
      <rect id="Rectángulo_467154" data-name="Rectángulo 467154" width="65.872" height="67.71" fill="#19538d"/>
    </clipPath>
  </defs>
  <g id="Grupo_1180373" data-name="Grupo 1180373" transform="translate(511.746 8527) rotate(180)">
    <path id="Trazado_999622" data-name="Trazado 999622" d="M59.07,0A59.07,59.07,0,1,1,0,59.07,59.071,59.071,0,0,1,59.07,0" transform="translate(388.676 8403.93)" fill="#fff"/>
    <g id="Grupo_1179902" data-name="Grupo 1179902" transform="translate(383.746 8399)">
      <g id="Grupo_1179905" data-name="Grupo 1179905" clip-path="url(#clip-path)">
        <path id="Trazado_999618" data-name="Trazado 999618" d="M64,0A64,64,0,1,1,0,64,64,64,0,0,1,64,0" fill="none"/>
        <path id="Trazado_999619" data-name="Trazado 999619" d="M5,59a5,5,0,1,1-5,5,5,5,0,0,1,5-5" fill="#19538d"/>
        <path id="Trazado_999620" data-name="Trazado 999620" d="M21,19a5,5,0,1,1-5,5,5,5,0,0,1,5-5" fill="#19538d"/>
        <path id="Trazado_999621" data-name="Trazado 999621" d="M64,124A60.068,60.068,0,0,1,4,64H7A57,57,0,1,0,22.408,25.024L20.22,22.972A60,60,0,1,1,64,124" fill="#19538d"/>
        <rect id="Rectángulo_456268" data-name="Rectángulo 456268" width="128" height="128" fill="none"/>
        <rect id="Rectángulo_456269" data-name="Rectángulo 456269" width="128" height="128" fill="none"/>
      </g>
    </g>
    <g id="Grupo_1181027" data-name="Grupo 1181027" transform="translate(480.682 8496.854) rotate(180)">
      <g id="Grupo_1181026" data-name="Grupo 1181026" clip-path="url(#clip-path-2)">
        <path id="Trazado_1033325" data-name="Trazado 1033325" d="M48.212,67.705l-30.475,0a.921.921,0,0,1-.99-.93l0-3.664A4.263,4.263,0,0,1,20.915,58.9l5.191-.05-.034-2.721L3.955,56.116A3.9,3.9,0,0,1,0,52.206L.032,9.381A3.756,3.756,0,0,1,3.742,5.806l15.6-.041c1.572-1.387,3.072-3.267,4.108-2.226l1.936,1.943a15.647,15.647,0,0,1,3.37-1.44l.032-2.752a.957.957,0,0,1,.674-.965,18.975,18.975,0,0,1,6.779-.04.994.994,0,0,1,.832,1.05l.035,2.7a13.963,13.963,0,0,1,3.327,1.449L42.3,3.636c1.2-1.191,2.509.63,4.22,2.131l15.612.04a3.755,3.755,0,0,1,3.711,3.574l.031,42.825a3.9,3.9,0,0,1-3.955,3.909L39.8,56.134l-.034,2.723,5,.031A4.379,4.379,0,0,1,49.136,63.3l-.011,3.49a.89.89,0,0,1-.913.918M35.246,35.734V32.989c0-1.171,2.125-.88,4.966-2.67a.926.926,0,0,1,1.017.092l2.042,2a15.63,15.63,0,0,0,3.193-3.161l-1.706-1.721c-1.217-1.228.578-2.138,1.347-5.495a1.027,1.027,0,0,1,1.013-.859l2.711-.02a16.4,16.4,0,0,0,0-4.48l-2.68-.053c-1.378-.027-.926-2.031-2.553-4.6-.232-.366-.523-.988-.161-1.364l2.035-2.112a15.628,15.628,0,0,0-3.178-3.168L41.3,7.3a.949.949,0,0,1-1.18.114c-2.771-1.736-4.85-1.478-4.873-2.553l-.061-2.883a23.471,23.471,0,0,0-4.509,0l-.091,3.065c-.023.786-2.314.76-4.836,2.37A.957.957,0,0,1,24.568,7.3L22.562,5.4A14.122,14.122,0,0,0,19.4,8.575l2.036,2.084c.363.371.075.993-.159,1.362a12.426,12.426,0,0,0-1.522,3.766c-.329,1.325-1.878.617-3.72.91a16.873,16.873,0,0,0,.011,4.458l2.514,0a1.119,1.119,0,0,1,1.213.878c.734,3.32,2.578,4.253,1.348,5.493l-1.706,1.721A15.684,15.684,0,0,0,22.6,32.415L24.417,30.6c1.06-1.056,2.019.679,5.423,1.471a.958.958,0,0,1,.788.916l.008,2.756a13.929,13.929,0,0,0,4.611-.012M60.86,10.053c.531,0,.78.567.78,1.009l0,39.85a.924.924,0,0,1-1.024.975H5.261a.928.928,0,0,1-1.028-.977l0-39.85a.971.971,0,0,1,1.03-1.041L18.149,10c-.316-.509-.768-.747-.85-1.068-.129-.509.136-.857.413-1.318L3.945,7.623A2.117,2.117,0,0,0,1.836,9.755L1.847,52.2a2.033,2.033,0,0,0,2.137,2.042H61.889A2.03,2.03,0,0,0,64.025,52.2l.022-42.241a2.126,2.126,0,0,0-1.932-2.313l-13.94-.022c.334.526.51.871.393,1.3-.086.316-.446.572-.825,1.029ZM37.025,36.77c-.02,1.277-5.008,1.154-7.493.723a.832.832,0,0,1-.7-.806l-.09-3a17.253,17.253,0,0,1-3.357-1.356l-2.1,2.02a.822.822,0,0,1-1.078.087c-1.972-1.376-5.756-4.889-4.748-5.92l2.051-2.1a15.867,15.867,0,0,1-1.388-3.35l-2.729-.021A1.068,1.068,0,0,1,14.283,22a20.715,20.715,0,0,1,.023-6.345.992.992,0,0,1,1.063-.91l2.734,0a24.838,24.838,0,0,1,1.1-2.9L6.08,11.85l.009,38.159H59.781l.008-38.159-13.13-.008a23.372,23.372,0,0,1,1.113,2.9l2.733,0a.994.994,0,0,1,1.06.915A20.682,20.682,0,0,1,51.587,22a1.071,1.071,0,0,1-1.1,1.041l-2.732.03a16.411,16.411,0,0,1-1.385,3.348l2.048,2.1c1,1.027-2.709,4.456-4.614,5.839a.969.969,0,0,1-1.352-.093l-2.048-1.931a19.329,19.329,0,0,1-3.337,1.434Zm.825,22.1.024-2.733-9.875,0,.051,2.738Zm9.41,6.958-.033-2.976a2.314,2.314,0,0,0-2.254-2.072l-24.071,0a2.359,2.359,0,0,0-2.277,2.249l.035,2.807Z" transform="translate(-0.001 0)" fill="#19538d"/>
        <path id="Trazado_1033326" data-name="Trazado 1033326" d="M95.4,198.562H53.577a.959.959,0,0,1-.912-1.061l.019-5.714a.829.829,0,0,1,.87-.855l41.811,0a.836.836,0,0,1,.869.858V197.7c0,.4-.24.722-.835.859m-1.06-1.874v-3.912l-39.76,0v3.914Z" transform="translate(-41.522 -150.531)" fill="#19538d"/>
        <path id="Trazado_1033327" data-name="Trazado 1033327" d="M118.533,44.808a9.451,9.451,0,1,1-7.36,11.172,9.429,9.429,0,0,1,7.36-11.172m1.472,1.675a7.595,7.595,0,1,0,8.008,7.03,7.564,7.564,0,0,0-8.008-7.03" transform="translate(-87.495 -35.17)" fill="#19538d"/>
        <path id="Trazado_1033328" data-name="Trazado 1033328" d="M72.564,205.508l-1.881-.02V203h1.873Z" transform="translate(-55.727 -160.052)" fill="#19538d"/>
        <path id="Trazado_1033329" data-name="Trazado 1033329" d="M90.506,205.486l-1.874.009,0-2.484H90.5Z" transform="translate(-69.879 -160.057)" fill="#19538d"/>
        <path id="Trazado_1033330" data-name="Trazado 1033330" d="M108.518,205.474l-1.857.009,0-2.478,1.849-.009Z" transform="translate(-84.092 -160.045)" fill="#19538d"/>
        <path id="Trazado_1033331" data-name="Trazado 1033331" d="M126.524,205.5l-1.842,0,0-2.479,1.837,0Z" transform="translate(-98.3 -160.07)" fill="#19538d"/>
        <path id="Trazado_1033332" data-name="Trazado 1033332" d="M144.589,205.482l-1.84.01,0-2.48,1.836,0Z" transform="translate(-112.542 -160.055)" fill="#19538d"/>
        <path id="Trazado_1033333" data-name="Trazado 1033333" d="M162.534,205.511l-1.878-.019,0-2.484h1.874Z" transform="translate(-126.66 -160.054)" fill="#19538d"/>
        <path id="Trazado_1033334" data-name="Trazado 1033334" d="M180.5,205.477l-1.87.008,0-2.483,1.857,0Z" transform="translate(-140.835 -160.048)" fill="#19538d"/>
      </g>
    </g>
  </g>
</svg>
