<svg xmlns="http://www.w3.org/2000/svg" xmlns:xlink="http://www.w3.org/1999/xlink" width="128" height="128" viewBox="0 0 128 128">
  <defs>
    <clipPath id="clip-path">
      <rect id="Rectángulo_456267" data-name="Rectángulo 456267" width="128" height="128" fill="none"/>
    </clipPath>
    <clipPath id="clip-path-2">
      <rect id="Rectángulo_467155" data-name="Rectángulo 467155" width="66.805" height="61.625" fill="#19538d"/>
    </clipPath>
  </defs>
  <g id="Grupo_1180376" data-name="Grupo 1180376" transform="translate(511.746 8527) rotate(180)">
    <path id="Trazado_999622" data-name="Trazado 999622" d="M59.07,0A59.07,59.07,0,1,1,0,59.07,59.071,59.071,0,0,1,59.07,0" transform="translate(388.676 8403.93)" fill="#fff"/>
    <g id="Grupo_1179902" data-name="Grupo 1179902" transform="translate(383.746 8399)">
      <g id="Grupo_1179905" data-name="Grupo 1179905" clip-path="url(#clip-path)">
        <path id="Trazado_999618" data-name="Trazado 999618" d="M64,0A64,64,0,1,1,0,64,64,64,0,0,1,64,0" fill="none"/>
        <path id="Trazado_999619" data-name="Trazado 999619" d="M5,59a5,5,0,1,1-5,5,5,5,0,0,1,5-5" fill="#19538d"/>
        <path id="Trazado_999620" data-name="Trazado 999620" d="M21,19a5,5,0,1,1-5,5,5,5,0,0,1,5-5" fill="#19538d"/>
        <path id="Trazado_999621" data-name="Trazado 999621" d="M64,124A60.068,60.068,0,0,1,4,64H7A57,57,0,1,0,22.408,25.024L20.22,22.972A60,60,0,1,1,64,124" fill="#19538d"/>
        <rect id="Rectángulo_456268" data-name="Rectángulo 456268" width="128" height="128" fill="none"/>
        <rect id="Rectángulo_456269" data-name="Rectángulo 456269" width="128" height="128" fill="none"/>
      </g>
    </g>
    <g id="Grupo_1181029" data-name="Grupo 1181029" transform="translate(481.148 8493.813) rotate(180)">
      <g id="Grupo_1181028" data-name="Grupo 1181028" clip-path="url(#clip-path-2)">
        <path id="Trazado_1033335" data-name="Trazado 1033335" d="M56.774,0,66.8,10.01l0,47.906a3.7,3.7,0,0,1-3.659,3.706l-41.32,0A3.783,3.783,0,0,1,18.2,57.161l-5.687-.013a3.309,3.309,0,0,1-3.318-2.565l-.078-2.09-6.2-.026A2.9,2.9,0,0,1,0,49.559V12.028A2.828,2.828,0,0,1,2.724,9.153l6.468-.079c-.453-1.994.429-4.232,2.536-4.507L18.2,4.454A3.72,3.72,0,0,1,21.8.011L31.642,0A1.3,1.3,0,0,1,33,1.252a1.314,1.314,0,0,1-1.483,1.364l-9.773.019a1.056,1.056,0,0,0-.992,1.126V57.826a1.12,1.12,0,0,0,1.207,1.167H63.008A1.078,1.078,0,0,0,64.191,57.9l0-45.924-5.54-.019A3.729,3.729,0,0,1,54.84,8.25l0-5.633-11.2,0a1.325,1.325,0,0,1-1.461-1.187A1.3,1.3,0,0,1,43.511,0Zm1.977,9.373,3.592-.111L57.479,4.419l-.035,3.626a1.245,1.245,0,0,0,1.308,1.327M12.627,54.581l5.537,0V7.031l-5.639-.009a.788.788,0,0,0-.841.845V53.72a.831.831,0,0,0,.943.861M9.108,49.776l0-38.019-6.5.092L2.614,49.81Z" fill="#19538d"/>
        <path id="Trazado_1033336" data-name="Trazado 1033336" d="M143.6,72.061A15.752,15.752,0,1,1,127.982,88.1,15.755,15.755,0,0,1,143.6,72.061m-1.438,2.716a13.138,13.138,0,1,0,14.621,11.481,13.111,13.111,0,0,0-14.621-11.481" transform="translate(-101.257 -57.014)" fill="#19538d"/>
        <path id="Trazado_1033337" data-name="Trazado 1033337" d="M174.443.285a1.29,1.29,0,1,1,1.234,2.264,1.347,1.347,0,0,1-1.635-.375,1.3,1.3,0,0,1,.4-1.889" transform="translate(-137.507 -0.091)" fill="#19538d"/>
        <path id="Trazado_1033338" data-name="Trazado 1033338" d="M167.71,130.868l-3.633-3.61a2.433,2.433,0,0,1-.251-3.2,15.771,15.771,0,0,1,2.732-2.68c1.314-.949,2.914-.146,3.81,1.142l3.507-3.412a2.354,2.354,0,0,1,3.27.1l2.108,2.1a2.4,2.4,0,0,1,.123,3.278l-6.475,6.462a3.732,3.732,0,0,1-5.192-.181m-1.7-5.348,3.362,3.353a1.374,1.374,0,0,0,2.025.048l5.871-5.885-1.795-1.832-4.02,4.022a1.307,1.307,0,0,1-1.765.2l-1.842-1.774Z" transform="translate(-129.23 -93.751)" fill="#19538d"/>
      </g>
    </g>
  </g>
</svg>
