<svg xmlns="http://www.w3.org/2000/svg" xmlns:xlink="http://www.w3.org/1999/xlink" width="69.323" height="69.323" viewBox="0 0 69.323 69.323">
  <defs>
    <clipPath id="clip-path">
      <rect id="Rectángulo_467009" data-name="Rectángulo 467009" width="49.185" height="45.557" fill="#fff"/>
    </clipPath>
  </defs>
  <g id="Grupo_1181048" data-name="Grupo 1181048" transform="translate(-305 -1406.05)">
    <path id="Trazado_1031458" data-name="Trazado 1031458" d="M0,0H69.323V69.323H0Z" transform="translate(305 1406.05)" fill="#0f654d"/>
    <g id="Grupo_1180864" data-name="Grupo 1180864" transform="translate(314.908 1416.933)">
      <g id="Grupo_1180863" data-name="Grupo 1180863" clip-path="url(#clip-path)">
        <path id="Trazado_1032118" data-name="Trazado 1032118" d="M28.677,15.985l18.952-.008a1.469,1.469,0,0,1,1.555,1.553l0,7.832A1.5,1.5,0,0,1,47.775,26.9H39.616l0,5.27a6.774,6.774,0,1,1-8.061,8.084l-9.526.008-.005,2.48A1.421,1.421,0,0,1,20.57,44.23L1.286,44.215A1.35,1.35,0,0,1,.022,42.876L0,34.889a1.444,1.444,0,0,1,1.542-1.536H9.574V26.9l-8.168,0a1.507,1.507,0,0,1-1.4-1.536l0-7.845a1.391,1.391,0,0,1,1.24-1.51l9.113-.033L10.385,5.3a1.331,1.331,0,0,1,1.306-1.316l15.45-.02.029-2.6C27.176.807,27.593,0,28.3,0L48.088,0c.551,0,1.077.777,1.077,1.235l-.009,8.3A1.509,1.509,0,0,1,47.6,10.886l-18.932-.008a1.429,1.429,0,0,1-1.48-1.324l-.042-2.726-13.9,0v9.163l7.207,0a1.468,1.468,0,0,1,1.573,1.546l0,7.837a1.484,1.484,0,0,1-1.445,1.528l-8.125.007v6.454l8,0a1.443,1.443,0,0,1,1.569,1.53l.007,2.474,9.531-.026a6.8,6.8,0,0,1,5.175-5.173V26.9l-8.124,0a1.489,1.489,0,0,1-1.445-1.531l0-7.839a1.45,1.45,0,0,1,1.516-1.543" transform="translate(0)" fill="#fff"/>
      </g>
    </g>
  </g>
</svg>
