<svg xmlns="http://www.w3.org/2000/svg" xmlns:xlink="http://www.w3.org/1999/xlink" width="128" height="128" viewBox="0 0 128 128">
  <defs>
    <clipPath id="clip-path">
      <rect id="Rectángulo_456267" data-name="Rectángulo 456267" width="128" height="128" fill="none"/>
    </clipPath>
    <clipPath id="clip-path-2">
      <rect id="Rectángulo_467156" data-name="Rectángulo 467156" width="58.151" height="60.349" fill="#19538d"/>
    </clipPath>
  </defs>
  <g id="Grupo_1180377" data-name="Grupo 1180377" transform="translate(511.746 8527) rotate(180)">
    <path id="Trazado_999622" data-name="Trazado 999622" d="M59.07,0A59.07,59.07,0,1,1,0,59.07,59.071,59.071,0,0,1,59.07,0" transform="translate(388.676 8403.93)" fill="#fff"/>
    <g id="Grupo_1179902" data-name="Grupo 1179902" transform="translate(383.746 8399)">
      <g id="Grupo_1179905" data-name="Grupo 1179905" clip-path="url(#clip-path)">
        <path id="Trazado_999618" data-name="Trazado 999618" d="M64,0A64,64,0,1,1,0,64,64,64,0,0,1,64,0" fill="none"/>
        <path id="Trazado_999619" data-name="Trazado 999619" d="M5,59a5,5,0,1,1-5,5,5,5,0,0,1,5-5" fill="#19538d"/>
        <path id="Trazado_999620" data-name="Trazado 999620" d="M21,19a5,5,0,1,1-5,5,5,5,0,0,1,5-5" fill="#19538d"/>
        <path id="Trazado_999621" data-name="Trazado 999621" d="M64,124A60.068,60.068,0,0,1,4,64H7A57,57,0,1,0,22.408,25.024L20.22,22.972A60,60,0,1,1,64,124" fill="#19538d"/>
        <rect id="Rectángulo_456268" data-name="Rectángulo 456268" width="128" height="128" fill="none"/>
        <rect id="Rectángulo_456269" data-name="Rectángulo 456269" width="128" height="128" fill="none"/>
      </g>
    </g>
    <g id="Grupo_1181031" data-name="Grupo 1181031" transform="translate(476.822 8493.174) rotate(180)">
      <g id="Grupo_1181030" data-name="Grupo 1181030" clip-path="url(#clip-path-2)">
        <path id="Trazado_1033339" data-name="Trazado 1033339" d="M51.56,55.261a5.23,5.23,0,0,1-5.339,5.088l-34.477-.021a5.187,5.187,0,0,1-5.153-5.052l-.086-6.446c-3.25.543-6.474-1.558-6.478-4.9L0,22.26a5.317,5.317,0,0,1,6.524-5.072l.1-12.29A5.173,5.173,0,0,1,12.3.012L35.286,0A8.792,8.792,0,0,1,42.239,3.25l6.551,6.828a9.618,9.618,0,0,1,2.832,7.115c3.287-.614,6.5,1.539,6.5,4.879l.028,21.664c0,3.421-3.139,5.659-6.512,5.092ZM46.14,12.428,39.005,4.966A4.42,4.42,0,0,0,36.04,3.6L11.559,3.565a1.68,1.68,0,0,0-1.443,1.609l-.023,11.954,37.938,0a5.769,5.769,0,0,0-1.891-4.7M52.689,45.42a1.869,1.869,0,0,0,1.968-1.893l0-21.058a1.8,1.8,0,0,0-1.871-1.854L5.2,20.623a1.777,1.777,0,0,0-1.7,1.84V43.532a1.845,1.845,0,0,0,1.878,1.878ZM46.3,56.79a1.645,1.645,0,0,0,1.722-1.62l.026-6.271H10.1l.024,6.272a1.665,1.665,0,0,0,1.816,1.618Z" transform="translate(0 0)" fill="#19538d"/>
        <path id="Trazado_1033340" data-name="Trazado 1033340" d="M130.607,147.357l-3.983.029a1.593,1.593,0,0,1-1.6-1.419l-.054-13.558a1.587,1.587,0,0,1,1.536-1.537l4.369,0a6.182,6.182,0,0,1,5.433,3.445,10.356,10.356,0,0,1,.159,9.129,6.51,6.51,0,0,1-5.864,3.911m2.987-6.117c.855-3.081-.141-6.882-2.96-6.873l-2.157.007.015,9.445c2.615.169,4.1.022,5.1-2.58" transform="translate(-101.409 -106.194)" fill="#19538d"/>
        <path id="Trazado_1033341" data-name="Trazado 1033341" d="M48.516,141.952,48.491,146A1.766,1.766,0,0,1,46.93,147.8a1.676,1.676,0,0,1-1.9-1.435l-.059-13.938a1.59,1.59,0,0,1,1.537-1.536l4.363,0a5.428,5.428,0,0,1,5.206,5.565,5.582,5.582,0,0,1-5.316,5.481Zm2.518-3.627a2,2,0,0,0,1.494-2.2,1.963,1.963,0,0,0-1.743-1.719l-2.308-.026.048,4.039a9.288,9.288,0,0,0,2.509-.1" transform="translate(-36.489 -106.207)" fill="#19538d"/>
        <path id="Trazado_1033342" data-name="Trazado 1033342" d="M221.561,136.392a1.8,1.8,0,0,1,1.911,1.7,1.707,1.707,0,0,1-1.645,1.825l-3.322.034-.044,5.2a1.615,1.615,0,0,1-1.644,1.558,1.649,1.649,0,0,1-1.82-1.566L215,131.386c0-.976,1.064-1.537,1.893-1.537l5.126,0a1.778,1.778,0,0,1,1.865,1.632,1.733,1.733,0,0,1-1.722,1.914l-3.649.017-.008,2.976Z" transform="translate(-174.457 -105.364)" fill="#19538d"/>
      </g>
    </g>
  </g>
</svg>
