<svg xmlns="http://www.w3.org/2000/svg" width="69.323" height="69.323" viewBox="0 0 69.323 69.323">
  <g id="Grupo_1181051" data-name="Grupo 1181051" transform="translate(-1225.838 -1406.05)">
    <rect id="Rectángulo_466580" data-name="Rectángulo 466580" width="69.323" height="69.323" transform="translate(1225.838 1406.05)" fill="#19538d"/>
    <g id="Grupo_1180868" data-name="Grupo 1180868" transform="translate(1234.763 1414.392)">
      <path id="Trazado_1032128" data-name="Trazado 1032128" d="M43.36,29.431l.006-3.118,3.083,0-.012,7.723-3.047.034-.03,3.049-6.186.041-.013-3.1-9.281-.007-.051,3.1-6.133.005-.014-4.629-3.1,0V26.319H34.051l.031,3.113ZM15.469,0l0,13.928,9.312.009-.011,3.09-3.083.028.011,3.037,3.085.072-.025,3.047-9.288,0,0,9.331L0,32.526V46.443l9.272,0-.005,3.061-3.08.054L6.2,52.639l9.263,0,0-3.111-3.085-.014.019-3.063,9.275-.014.011-6.182,6.161.009.019,3.1,9.285-.021.018-3.083,6.169-.016.022,3.112h9.274V34.06l-3.107-.014,0-10.836H43.375l-.026-3.083-9.27,0-.028,3.083-6.2-.006.013-3.069,3.072-.04.01-3.036-3.085-.028.014-3.1,9.289.013V0Z" fill="#fff"/>
      <path id="Trazado_1032129" data-name="Trazado 1032129" d="M13.517,54.67l1.7,2.585L9.726,60.9l-5.5-3.668,1.693-2.565,2.249,1.4,0-18.358,7.733-.021v3.058l-4.611.019.012,15.3Z" transform="translate(-3.527 -31.494)" fill="#fff"/>
    </g>
  </g>
</svg>
