<svg xmlns="http://www.w3.org/2000/svg" xmlns:xlink="http://www.w3.org/1999/xlink" width="396" height="280" viewBox="0 0 396 280">
  <defs>
    <clipPath id="clip-path">
      <rect id="Rectángulo_467056" data-name="Rectángulo 467056" width="312.217" height="279.147" fill="none"/>
    </clipPath>
  </defs>
  <g id="Grupo_1180882" data-name="Grupo 1180882" transform="translate(-290 -4353)">
    <rect id="Rectángulo_466463" data-name="Rectángulo 466463" width="396" height="280" transform="translate(290 4353)" fill="none"/>
    <g id="Grupo_1180881" data-name="Grupo 1180881" transform="translate(332 4353)">
      <g id="Grupo_1180880" data-name="Grupo 1180880" clip-path="url(#clip-path)">
        <path id="Trazado_1032252" data-name="Trazado 1032252" d="M103.652,251.647C75.177,268.195,8.94,274.1,1.14,221.568c-10.135-68.262,50.85-68,43.344-122.441S92-23.02,144.831,23.327s60.2,39.114,92.508,29.2,76.07,33.957,47.6,79.1,17.052,116.9-56.367,141.8c-86.062,29.186-69.649-53.894-124.92-21.775" transform="translate(0 -1.148)" fill="#c0f6f2"/>
        <path id="Trazado_1032253" data-name="Trazado 1032253" d="M351.544,182.912l-2.7-.486a3.124,3.124,0,0,1-2.572-2.685,24.971,24.971,0,0,0-1.185-5.254,3.131,3.131,0,0,1,1.2-3.568l2.467-1.713a3.161,3.161,0,0,0,.793-4.4l-2.141-3.084a3.163,3.163,0,0,0-4.4-.793L340.4,162.74a3.2,3.2,0,0,1-3.767-.051,24.908,24.908,0,0,0-4.889-2.949A3.127,3.127,0,0,1,330,156.333l.431-2.386a3.162,3.162,0,0,0-2.551-3.673l-3.694-.667a3.163,3.163,0,0,0-3.673,2.551l-.554,3.074a3.2,3.2,0,0,1-2.67,2.569,24.949,24.949,0,0,0-4.472,1.164,3.2,3.2,0,0,1-3.559-.913l-2.7-3.212a3.162,3.162,0,0,0-4.455-.383l-2.872,2.417a3.163,3.163,0,0,0-.383,4.455l2.1,2.5a3.139,3.139,0,0,1,.144,3.88,25,25,0,0,0-2.158,3.5,3.127,3.127,0,0,1-3.349,1.62l-2.7-.487a3.161,3.161,0,0,0-3.672,2.55l-.667,3.695a3.162,3.162,0,0,0,2.551,3.673l2.685.484a3.148,3.148,0,0,1,2.591,2.7,24.973,24.973,0,0,0,.545,3.05,3.139,3.139,0,0,1-1.679,3.547l-1.991.982a3.16,3.16,0,0,0-1.438,4.233l1.659,3.367a3.161,3.161,0,0,0,4.234,1.438l3.076-1.515a3.2,3.2,0,0,1,3.585.553,24.989,24.989,0,0,0,4.526,3.305,3.2,3.2,0,0,1,1.606,3.336l-.555,3.078a3.161,3.161,0,0,0,2.55,3.673l3.695.666a3.161,3.161,0,0,0,3.673-2.55l.43-2.387a3.126,3.126,0,0,1,2.818-2.587,24.909,24.909,0,0,0,5.582-1.047,3.19,3.19,0,0,1,3.536,1.265l1.844,2.655a3.162,3.162,0,0,0,4.4.793l3.084-2.141a3.162,3.162,0,0,0,.793-4.4l-1.728-2.489a3.13,3.13,0,0,1,.12-3.767,24.932,24.932,0,0,0,2.967-4.537,3.127,3.127,0,0,1,3.349-1.618l2.7.487a3.162,3.162,0,0,0,3.672-2.551l.666-3.694a3.162,3.162,0,0,0-2.55-3.673m-16.7,1.907a13.744,13.744,0,1,1-11.089-15.964,13.744,13.744,0,0,1,11.089,15.964" transform="translate(-41.929 -21.736)" fill="#68c6ea"/>
        <path id="Trazado_1032254" data-name="Trazado 1032254" d="M100.922,53.99l-3.3,0A3.761,3.761,0,0,1,94,51.35a30.015,30.015,0,0,0-2.517-5.975,3.768,3.768,0,0,1,.669-4.482l2.56-2.553a3.805,3.805,0,0,0,.007-5.382l-3.19-3.2a3.805,3.805,0,0,0-5.382-.007l-2.709,2.7a3.849,3.849,0,0,1-4.474.737,29.96,29.96,0,0,0-6.417-2.457,3.763,3.763,0,0,1-2.779-3.669l0-2.92a3.805,3.805,0,0,0-3.8-3.81l-4.519-.006a3.8,3.8,0,0,0-3.81,3.8l-.005,3.759a3.853,3.853,0,0,1-2.62,3.61,29.957,29.957,0,0,0-5.051,2.327,3.853,3.853,0,0,1-4.409-.328l-3.884-3.232a3.806,3.806,0,0,0-5.36.491l-2.89,3.473a3.806,3.806,0,0,0,.491,5.36l3.02,2.514a3.778,3.778,0,0,1,.994,4.566,30.061,30.061,0,0,0-1.817,4.6A3.76,3.76,0,0,1,32.49,53.9l-3.3,0a3.807,3.807,0,0,0-3.811,3.8l-.006,4.519a3.805,3.805,0,0,0,3.8,3.81l3.283,0a3.789,3.789,0,0,1,3.643,2.65,30.119,30.119,0,0,0,1.293,3.5,3.779,3.779,0,0,1-1.238,4.558L34,78.319a3.807,3.807,0,0,0-.808,5.322l2.68,3.637a3.805,3.805,0,0,0,5.321.807l3.323-2.448a3.855,3.855,0,0,1,4.365-.1,30.11,30.11,0,0,0,6.063,2.957A3.846,3.846,0,0,1,57.552,92.1l0,3.763a3.8,3.8,0,0,0,3.8,3.811l4.519.006a3.806,3.806,0,0,0,3.811-3.8l0-2.919a3.763,3.763,0,0,1,2.79-3.662,30.013,30.013,0,0,0,6.391-2.423,3.839,3.839,0,0,1,4.457.749l2.748,2.755a3.805,3.805,0,0,0,5.382.008l3.2-3.19a3.806,3.806,0,0,0,.008-5.383L92.08,79.233a3.768,3.768,0,0,1-.655-4.489,30.072,30.072,0,0,0,2.554-6A3.761,3.761,0,0,1,97.6,66.115l3.3,0a3.805,3.805,0,0,0,3.811-3.8l.006-4.519a3.806,3.806,0,0,0-3.8-3.811m-19.377,5.8A16.543,16.543,0,1,1,65.024,43.222,16.542,16.542,0,0,1,81.545,59.787" transform="translate(-3.687 -2.954)" fill="#7dd3ff"/>
        <path id="Trazado_1032255" data-name="Trazado 1032255" d="M171.746,16.257l-1.833.227a2.1,2.1,0,0,1-2.191-1.211,16.76,16.76,0,0,0-1.812-3.139,2.106,2.106,0,0,1,.06-2.533l1.242-1.595a2.128,2.128,0,0,0-.37-2.986l-1.993-1.553a2.128,2.128,0,0,0-2.986.371l-1.315,1.687a2.151,2.151,0,0,1-2.431.72,16.816,16.816,0,0,0-3.731-.917,2.1,2.1,0,0,1-1.8-1.842l-.2-1.62A2.127,2.127,0,0,0,150.014.016l-2.508.311a2.126,2.126,0,0,0-1.85,2.373l.258,2.086a2.154,2.154,0,0,1-1.2,2.185,16.813,16.813,0,0,0-2.641,1.642,2.154,2.154,0,0,1-2.469.126l-2.379-1.523a2.127,2.127,0,0,0-2.939.644l-1.362,2.128a2.129,2.129,0,0,0,.645,2.94l1.851,1.185a2.112,2.112,0,0,1,.868,2.464,16.827,16.827,0,0,0-.687,2.679,2.1,2.1,0,0,1-1.827,1.711l-1.834.227a2.128,2.128,0,0,0-1.85,2.373l.311,2.508a2.128,2.128,0,0,0,2.373,1.849L134.6,27.7a2.117,2.117,0,0,1,2.205,1.216,16.7,16.7,0,0,0,.961,1.851,2.113,2.113,0,0,1-.369,2.615l-1.084,1.029a2.128,2.128,0,0,0-.077,3.008l1.74,1.832a2.128,2.128,0,0,0,3.008.078l1.673-1.59a2.155,2.155,0,0,1,2.414-.362,16.854,16.854,0,0,0,3.57,1.219,2.15,2.15,0,0,1,1.7,1.822l.259,2.088a2.129,2.129,0,0,0,2.374,1.85l2.507-.311a2.128,2.128,0,0,0,1.85-2.374l-.2-1.62a2.1,2.1,0,0,1,1.293-2.226,16.772,16.772,0,0,0,3.377-1.79,2.147,2.147,0,0,1,2.526.106l1.715,1.337a2.129,2.129,0,0,0,2.987-.37l1.553-1.993a2.128,2.128,0,0,0-.371-2.986L168.6,30.877a2.105,2.105,0,0,1-.675-2.444,16.781,16.781,0,0,0,1-3.509,2.1,2.1,0,0,1,1.829-1.708l1.832-.228a2.127,2.127,0,0,0,1.85-2.373l-.311-2.508a2.128,2.128,0,0,0-2.373-1.849M161.4,20.821a9.25,9.25,0,1,1-10.318-8.041A9.25,9.25,0,0,1,161.4,20.821" transform="translate(-18.904 0)" fill="#7dd3ff"/>
        <path id="Trazado_1032256" data-name="Trazado 1032256" d="M209.925,291.031a12.143,12.143,0,0,0-.473-5.766,2.636,2.636,0,0,0-4-1.374c-2.066,1.419-4.673,2.746-4.876.576-.338-3.631,7.227-2.632,6.91-7.954a17.625,17.625,0,0,0-2.218-6.915,2.64,2.64,0,0,0-2.579-1.379,17.842,17.842,0,0,0-7.317,2.134c-4.5,2.859-.582,9.278-3.744,11.094-1.787,1.027-2.065-2.29-1.968-5.367a2.649,2.649,0,0,0-4.085-2.314c-.643.422-1.333.914-2.055,1.484-3.7,2.921,2.152,10-.037,12.617-1.28,1.532-2.867-1.942-3.963-5.088a2.654,2.654,0,0,0-4.871-.368,11.191,11.191,0,0,0-1.08,3.682c-.672,5.563,5.939,7.184,2.7,8.483a2.544,2.544,0,0,1-2.641-.6,2.647,2.647,0,0,0-4.247,2.108c-.117,7.332,1.427,17.775,7.295,21.5.813.515,10.377-.4,11.138-.247,6.725,1.37,11.817-1.785,15.076-5.062a2.656,2.656,0,0,0-1.733-4.527c-2.475-.138-4.95-.693-5.337-2.321-.807-3.4,6.974,1.644,11.133-2.111a10.988,10.988,0,0,0,2.732-3.713,2.659,2.659,0,0,0-2.9-3.689c-3.413.6-7.864,1.006-7.314-1.057.879-3.3,9.6.809,10.458-3.824" transform="translate(-24.616 -38.98)" fill="#68eae0"/>
        <path id="Trazado_1032257" data-name="Trazado 1032257" d="M183.63,312.378s5.629-17.227,20.478-38.618" transform="translate(-26.688 -39.787)" fill="#e1ecfa"/>
        <path id="Trazado_1032258" data-name="Trazado 1032258" d="M152.98,284.291a9.56,9.56,0,0,0-3.856-.926,2.65,2.65,0,0,0-2.668,3.389c.555,1.835.8,3.781-.819,3.478-2.964-.556-.45-6.345-4.755-7.3a14.186,14.186,0,0,0-5.65.118,2.645,2.645,0,0,0-2.094,2.153,14.3,14.3,0,0,0,.093,5.962c1.252,4.229,7.247,2.571,7.973,5.5.365,1.472-1.731,1.213-3.9.592a2.657,2.657,0,0,0-3.253,3.445q.174.485.387,1c1.483,3.605,8.44.56,10.025,2.9.8,1.178-1.408,1.691-3.793,1.911a2.655,2.655,0,0,0-1.2,4.889,9.89,9.89,0,0,0,1.332.681c4.271,1.8,7.061-3.091,7.359-.218a1.958,1.958,0,0,1-.777,1.731,2.64,2.64,0,0,0,.992,4.47c5.062,1.65,12.08,2.948,17.229,1.626a11.542,11.542,0,0,0,6.043-3.942c3.648-4.611.179-13.906-2.981-19.846a2.648,2.648,0,0,0-4.762.156c-.652,1.526-1.536,2.773-2.677,2.722-2.886-.131,2.891-5.172.85-9.333a11.52,11.52,0,0,0-.98-1.647,2.649,2.649,0,0,0-4.717,1.109c-.514,2.619-1.389,5.372-2.73,4.57-2.423-1.448,2.825-7.448-.665-9.185" transform="translate(-19.31 -41.085)" fill="#68eae0"/>
        <path id="Trazado_1032259" data-name="Trazado 1032259" d="M163.541,312.156s-12.421-8.389-26.059-25.058" transform="translate(-19.981 -41.725)" fill="#e1ecfa"/>
        <path id="Trazado_1032260" data-name="Trazado 1032260" d="M335.063,295.6a10.059,10.059,0,0,0-.219-4.3,2.666,2.666,0,0,0-4.053-1.561c-1.691,1.1-3.61,1.932-3.77.212-.291-3.125,6.219-2.265,5.946-6.845a14.851,14.851,0,0,0-1.767-5.684,2.655,2.655,0,0,0-2.644-1.424,14.973,14.973,0,0,0-6.013,1.807c-3.873,2.461-.5,7.984-3.222,9.547-1.409.81-1.728-1.518-1.708-3.95a2.657,2.657,0,0,0-4.207-2.179q-.515.364-1.065.8c-3.182,2.514,1.853,8.6-.031,10.859-.991,1.185-2.194-1.109-3.112-3.552a2.65,2.65,0,0,0-4.975.025,10.065,10.065,0,0,0-.446,2c-.578,4.786,5.112,6.182,2.321,7.3a2.017,2.017,0,0,1-1.905-.251,2.644,2.644,0,0,0-4.027,2.265c.009,6.255,1.422,14.7,6.283,17.784.7.444,8.93-.346,9.586-.212a13.739,13.739,0,0,0,12.345-3.752,2.652,2.652,0,0,0-1.608-4.558c-1.858-.186-3.553-.7-3.847-1.941-.695-2.924,6,1.414,9.58-1.817a9.755,9.755,0,0,0,1.875-2.269,2.656,2.656,0,0,0-2.674-3.991c-2.819.444-6.082.628-5.643-1.019.756-2.838,8.259.7,9-3.29" transform="translate(-43.625 -40.109)" fill="#68eae0"/>
        <path id="Trazado_1032261" data-name="Trazado 1032261" d="M312.434,313.963s4.844-14.825,17.623-33.235" transform="translate(-45.407 -40.799)" fill="#e1ecfa"/>
        <path id="Trazado_1032262" data-name="Trazado 1032262" d="M273.024,245.762H29.293a11.435,11.435,0,0,1-11.435-11.435V95.515A11.436,11.436,0,0,1,29.293,84.08h243.73a11.436,11.436,0,0,1,11.435,11.435V234.327a11.436,11.436,0,0,1-11.435,11.435" transform="translate(-2.595 -12.22)" fill="#315782"/>
        <path id="Trazado_1032263" data-name="Trazado 1032263" d="M269.606,237.631H36.086a6.615,6.615,0,0,1-6.615-6.615V102.158a6.615,6.615,0,0,1,6.615-6.615h233.52a6.615,6.615,0,0,1,6.615,6.615V231.016a6.615,6.615,0,0,1-6.615,6.615" transform="translate(-4.283 -13.886)" fill="#fff"/>
        <line id="Línea_3309" data-name="Línea 3309" x2="228.694" transform="translate(34.523 111.405)" fill="none" stroke="#e1ecfa" stroke-linecap="round" stroke-miterlimit="10" stroke-width="1"/>
        <line id="Línea_3310" data-name="Línea 3310" y2="128.901" transform="translate(148.487 87.53)" fill="none" stroke="#e1ecfa" stroke-linecap="round" stroke-miterlimit="10" stroke-width="1"/>
        <line id="Línea_3311" data-name="Línea 3311" y2="128.901" transform="translate(208.46 87.53)" fill="none" stroke="#e1ecfa" stroke-linecap="round" stroke-miterlimit="10" stroke-width="1"/>
        <path id="Trazado_1032264" data-name="Trazado 1032264" d="M81.967,116.937H46.838a2.466,2.466,0,0,1-2.467-2.466v-1.658a2.466,2.466,0,0,1,2.467-2.466H81.967a2.466,2.466,0,0,1,2.466,2.466v1.658a2.466,2.466,0,0,1-2.466,2.466" transform="translate(-6.449 -16.037)" fill="#e1ecfa"/>
        <path id="Trazado_1032265" data-name="Trazado 1032265" d="M151.611,116.937H116.482a2.466,2.466,0,0,1-2.467-2.466v-1.658a2.466,2.466,0,0,1,2.467-2.466h35.129a2.466,2.466,0,0,1,2.466,2.466v1.658a2.466,2.466,0,0,1-2.466,2.466" transform="translate(-16.57 -16.037)" fill="#e1ecfa"/>
        <path id="Trazado_1032266" data-name="Trazado 1032266" d="M222.923,116.937H187.794a2.466,2.466,0,0,1-2.467-2.466v-1.658a2.466,2.466,0,0,1,2.467-2.466h35.129a2.466,2.466,0,0,1,2.466,2.466v1.658a2.466,2.466,0,0,1-2.466,2.466" transform="translate(-26.934 -16.037)" fill="#e1ecfa"/>
        <path id="Trazado_1032267" data-name="Trazado 1032267" d="M292.191,116.937H257.062a2.466,2.466,0,0,1-2.466-2.466v-1.658a2.465,2.465,0,0,1,2.466-2.466h35.129a2.465,2.465,0,0,1,2.466,2.466v1.658a2.466,2.466,0,0,1-2.466,2.466" transform="translate(-37.002 -16.037)" fill="#e1ecfa"/>
        <path id="Trazado_1032268" data-name="Trazado 1032268" d="M79.482,166.046H60.123a2.022,2.022,0,0,1-2.021-2.022V144.665a2.021,2.021,0,0,1,2.021-2.021H79.482a2.022,2.022,0,0,1,2.022,2.021v19.359a2.022,2.022,0,0,1-2.022,2.022" transform="translate(-8.444 -20.731)" fill="#f0c66c"/>
        <path id="Trazado_1032269" data-name="Trazado 1032269" d="M72.244,206.213H51.879a2.022,2.022,0,0,1-2.022-2.022V183.826a2.022,2.022,0,0,1,2.022-2.022H72.244a2.022,2.022,0,0,1,2.022,2.022v20.365a2.022,2.022,0,0,1-2.022,2.022" transform="translate(-7.246 -26.422)" fill="#f0c66c"/>
        <path id="Trazado_1032270" data-name="Trazado 1032270" d="M78.4,242.7l-18.925,2.632a2.022,2.022,0,0,1-2.281-1.724l-2.632-18.925a2.023,2.023,0,0,1,1.724-2.282l18.925-2.632a2.022,2.022,0,0,1,2.281,1.725l2.632,18.925A2.022,2.022,0,0,1,78.4,242.7" transform="translate(-7.927 -31.936)" fill="#e69724"/>
        <path id="Trazado_1032271" data-name="Trazado 1032271" d="M146.127,242.331l-24.055-1.857a2.022,2.022,0,0,1-1.861-2.172l1.857-24.055a2.022,2.022,0,0,1,2.172-1.86l24.055,1.856a2.023,2.023,0,0,1,1.861,2.172L148.3,240.47a2.022,2.022,0,0,1-2.172,1.861" transform="translate(-17.47 -30.866)" fill="#f0c66c"/>
        <path id="Trazado_1032272" data-name="Trazado 1032272" d="M200.65,169.57l25.442,1.964a2.022,2.022,0,0,1,1.86,2.172l-1.964,25.442a2.021,2.021,0,0,1-2.172,1.86l-25.441-1.964a2.021,2.021,0,0,1-1.861-2.172l1.964-25.441a2.022,2.022,0,0,1,2.172-1.861" transform="translate(-28.559 -24.643)" fill="#e69724"/>
        <path id="Trazado_1032273" data-name="Trazado 1032273" d="M221.38,236.955l-20.359,2.832a2.022,2.022,0,0,1-2.281-1.725l-2.392-17.195a2.022,2.022,0,0,1,1.724-2.282l20.359-2.831a2.022,2.022,0,0,1,2.282,1.724l2.391,17.2a2.022,2.022,0,0,1-1.724,2.281" transform="translate(-28.533 -31.354)" fill="#f0c66c"/>
        <path id="Trazado_1032274" data-name="Trazado 1032274" d="M144.6,203.322H126.552a2.022,2.022,0,0,1-2.021-2.022V183.258a2.021,2.021,0,0,1,2.021-2.022H144.6a2.021,2.021,0,0,1,2.022,2.022V201.3a2.022,2.022,0,0,1-2.022,2.022" transform="translate(-18.099 -26.34)" fill="#f0c66c"/>
        <path id="Trazado_1032275" data-name="Trazado 1032275" d="M272.183,162.535H256.618a2.022,2.022,0,0,1-2.022-2.022V144.948a2.022,2.022,0,0,1,2.022-2.022h15.565a2.022,2.022,0,0,1,2.022,2.022v15.565a2.022,2.022,0,0,1-2.022,2.022" transform="translate(-37.002 -20.772)" fill="#f0c66c"/>
        <path id="Trazado_1032276" data-name="Trazado 1032276" d="M305.883,167.574l-18.109,2.52a2.023,2.023,0,0,1-2.282-1.725l-2.519-18.11a2.022,2.022,0,0,1,1.724-2.281l18.109-2.52a2.022,2.022,0,0,1,2.282,1.724l2.519,18.11a2.022,2.022,0,0,1-1.724,2.281" transform="translate(-41.123 -21.137)" fill="#f0c66c"/>
        <path id="Trazado_1032277" data-name="Trazado 1032277" d="M294.8,210.2l-24.862,3.458a2.022,2.022,0,0,1-2.281-1.724L264.2,187.07a2.022,2.022,0,0,1,1.725-2.281l24.861-3.458a2.021,2.021,0,0,1,2.281,1.724l3.459,24.861A2.023,2.023,0,0,1,294.8,210.2" transform="translate(-38.395 -26.351)" fill="#f0c66c"/>
        <path id="Trazado_1032278" data-name="Trazado 1032278" d="M285.12,250.494,267.9,246.88a2.023,2.023,0,0,1-1.564-2.395l3.614-17.222a2.022,2.022,0,0,1,2.395-1.563l17.222,3.614a2.021,2.021,0,0,1,1.563,2.394l-3.614,17.222a2.022,2.022,0,0,1-2.394,1.564" transform="translate(-38.701 -32.796)" fill="#e69724"/>
        <path id="Trazado_1032279" data-name="Trazado 1032279" d="M281.321,209.27h0a1.358,1.358,0,0,0,1.158-1.532l-2.408-17.305a1.358,1.358,0,1,0-2.69.374l2.408,17.3a1.358,1.358,0,0,0,1.532,1.158" transform="translate(-40.311 -27.506)" fill="#fff"/>
        <path id="Trazado_1032280" data-name="Trazado 1032280" d="M275.691,210.792h0a1.358,1.358,0,0,0,1.158-1.532l-1.814-13.04a1.358,1.358,0,0,0-2.69.374l1.814,13.04a1.357,1.357,0,0,0,1.532,1.158" transform="translate(-39.579 -28.347)" fill="#fff"/>
        <path id="Trazado_1032281" data-name="Trazado 1032281" d="M292.229,208.144h0a1.358,1.358,0,0,0,1.158-1.532l-2.093-15.047a1.358,1.358,0,1,0-2.69.373l2.093,15.047a1.358,1.358,0,0,0,1.532,1.158" transform="translate(-41.942 -27.671)" fill="#fff"/>
        <path id="Trazado_1032282" data-name="Trazado 1032282" d="M286.924,209.776h0a1.357,1.357,0,0,0,1.156-1.532l-1.375-9.889a1.358,1.358,0,0,0-2.69.374l1.375,9.889a1.358,1.358,0,0,0,1.533,1.157" transform="translate(-41.275 -28.658)" fill="#fff"/>
        <path id="Trazado_1032283" data-name="Trazado 1032283" d="M207.554,171.172l-18.739,2.607a2.023,2.023,0,0,1-2.282-1.724l-2.607-18.739a2.023,2.023,0,0,1,1.725-2.281l18.739-2.607a2.021,2.021,0,0,1,2.281,1.724l2.607,18.739a2.022,2.022,0,0,1-1.724,2.281" transform="translate(-26.728 -21.569)" fill="#f0c66c"/>
        <path id="Trazado_1032284" data-name="Trazado 1032284" d="M210.572,194.023l-4.828-4.792a1.386,1.386,0,0,1-.109-1.89,1.338,1.338,0,0,1,1.942-.06l3.836,3.808,7.963-9.381a1.338,1.338,0,0,1,1.939-.107,1.388,1.388,0,0,1,.052,1.894L212.5,193.94a1.315,1.315,0,0,1-1.928.082" transform="translate(-29.839 -26.34)" fill="#fff"/>
        <path id="Trazado_1032285" data-name="Trazado 1032285" d="M132.077,234.305l-5.071-5.032a1.455,1.455,0,0,1-.114-1.985,1.4,1.4,0,0,1,2.038-.062l4.029,4,8.362-9.852a1.4,1.4,0,0,1,2.037-.111,1.457,1.457,0,0,1,.055,1.989l-9.312,10.97a1.38,1.38,0,0,1-2.025.086" transform="translate(-18.392 -32.101)" fill="#fff"/>
        <path id="Trazado_1032286" data-name="Trazado 1032286" d="M66.076,150.3l4.2,4.063,4.063-4.2a1.076,1.076,0,1,1,1.547,1.495l-4.063,4.2,4.2,4.063a1.076,1.076,0,1,1-1.495,1.547l-4.2-4.063-4.063,4.2a1.076,1.076,0,1,1-1.547-1.495l4.063-4.2-4.2-4.063a1.076,1.076,0,1,1,1.5-1.547" transform="translate(-9.338 -21.776)" fill="#fff"/>
        <path id="Trazado_1032287" data-name="Trazado 1032287" d="M291.2,154.684l4.843,3.276,3.276-4.843a1.076,1.076,0,0,1,1.782,1.206l-3.276,4.842,4.843,3.277a1.076,1.076,0,0,1-1.206,1.782l-4.843-3.276-3.276,4.843a1.076,1.076,0,0,1-1.782-1.206l3.276-4.843L290,156.466a1.076,1.076,0,0,1,1.206-1.782" transform="translate(-42.078 -22.184)" fill="#fff"/>
        <line id="Línea_3312" data-name="Línea 3312" y2="128.901" transform="translate(88.558 87.53)" fill="none" stroke="#e1ecfa" stroke-linecap="round" stroke-miterlimit="10" stroke-width="1"/>
        <path id="Trazado_1032288" data-name="Trazado 1032288" d="M95.616,312.126l-.167,5.408-6.975-.035.027-5.408Z" transform="translate(-12.858 -45.358)" fill="#f3d6c1"/>
        <path id="Trazado_1032289" data-name="Trazado 1032289" d="M88.47,318.419l6.82.034a1.3,1.3,0,0,1,.3.035,50.023,50.023,0,0,1,11.4,4.331,1.348,1.348,0,0,1-.67,2.52l-16.542-.082a1.347,1.347,0,0,1-1.339-1.353Z" transform="translate(-12.854 -46.277)" fill="#2f526e"/>
        <path id="Trazado_1032290" data-name="Trazado 1032290" d="M52.228,305.954l-3.355,4.758-5.782-3.9,3.024-4.484Z" transform="translate(-6.263 -43.939)" fill="#f3d6c1"/>
        <path id="Trazado_1032291" data-name="Trazado 1032291" d="M42.53,307.574l5.655,3.814a1.28,1.28,0,0,1,.232.2,50.02,50.02,0,0,1,7.079,9.93,1.347,1.347,0,0,1-1.957,1.724l-13.713-9.249a1.345,1.345,0,0,1-.363-1.868Z" transform="translate(-5.702 -44.701)" fill="#315780"/>
        <path id="Trazado_1032292" data-name="Trazado 1032292" d="M63.951,234.2a1.986,1.986,0,0,0-2.259,1.843c-.4,6.388-1.771,25.224-4.443,30.619l-12.605,23a1.99,1.99,0,0,0,.695,2.648l7.584,4.713a1.99,1.99,0,0,0,2.723-.612l14.905-23.1a2,2,0,0,0,.282-.706l6.576-34.429a1.99,1.99,0,0,0-1.683-2.345Z" transform="translate(-6.452 -34.034)" fill="#f0c66c"/>
        <path id="Trazado_1032293" data-name="Trazado 1032293" d="M90.285,234.879l6.6,64.579a2.259,2.259,0,0,1-2.248,2.489h-8.4a2.259,2.259,0,0,1-2.248-2.032l-4.731-46.76a2.014,2.014,0,0,1-.012-.227V234.413a2.259,2.259,0,0,1,2.5-2.246l6.527.695a2.26,2.26,0,0,1,2.008,2.017" transform="translate(-11.518 -33.74)" fill="#f0c66c"/>
        <line id="Línea_3313" data-name="Línea 3313" y1="17.633" x2="1.873" transform="translate(67.846 202.786)" fill="none" stroke="#e69724" stroke-linecap="round" stroke-miterlimit="10" stroke-width="0.5"/>
        <path id="Trazado_1032294" data-name="Trazado 1032294" d="M80.349,247.075l2.249-.7a1.6,1.6,0,0,0,1.127-1.53v-7.986" transform="translate(-11.677 -34.424)" fill="none" stroke="#e69724" stroke-linecap="round" stroke-miterlimit="10" stroke-width="0.5"/>
        <line id="Línea_3314" data-name="Línea 3314" x2="6.344" y2="4.072" transform="translate(40.545 256.215)" fill="none" stroke="#e69724" stroke-linecap="round" stroke-miterlimit="10" stroke-width="0.5"/>
        <line id="Línea_3315" data-name="Línea 3315" x2="7.542" transform="translate(75.616 265.4)" fill="none" stroke="#e69724" stroke-linecap="round" stroke-miterlimit="10" stroke-width="0.5"/>
        <path id="Trazado_1032295" data-name="Trazado 1032295" d="M64.575,239.251,62.3,265.345,48.838,289.273" transform="translate(-7.098 -34.771)" fill="none" stroke="#e69724" stroke-linecap="round" stroke-miterlimit="10" stroke-width="0.5"/>
        <line id="Línea_3316" data-name="Línea 3316" x2="4.552" y2="45.835" transform="translate(70.36 217.039)" fill="none" stroke="#e69724" stroke-linecap="round" stroke-miterlimit="10" stroke-width="0.5"/>
        <path id="Trazado_1032296" data-name="Trazado 1032296" d="M97.275,183.535l5.882.1,8.6-17.715s-2.566-1.7-3.243-3.791-.289-2.732.267-2.614,1.692,2.458,2.754,2.473,1.183-.651.836-3.774-.528-4.549.279-5,1.656,1.445,1.656,1.445a1.639,1.639,0,0,1,1.285-.671c.75.066.895.919.895.919a1.29,1.29,0,0,1,1.227-.244c.847.178.905,1.206.905,1.206s.814-.946,1.59.566,2.553,6.783-3.025,11.117c0,0-5.665,25.031-7.987,26.191s-10.151,2.294-10.151,2.294Z" transform="translate(-14.137 -22.257)" fill="#e8bfa5"/>
        <path id="Trazado_1032297" data-name="Trazado 1032297" d="M83.87,188.9l13.092-.739a.992.992,0,0,1,1.045.883,64.9,64.9,0,0,1,.449,8.222.991.991,0,0,1-.862.942l-.743.1a1.078,1.078,0,0,1-.845-.179Z" transform="translate(-12.189 -27.346)" fill="#2e506e"/>
        <path id="Trazado_1032298" data-name="Trazado 1032298" d="M85.863,157.726s.2,2.21,2.562,6.9c2.411,4.793,1.638,11.9-2.079,13.287a8.331,8.331,0,0,1-4.966.45L79.3,188.533l-8.976-2.654,1.3-10-1.851-14.52Z" transform="translate(-10.141 -22.923)" fill="#f3d6c1"/>
        <path id="Trazado_1032299" data-name="Trazado 1032299" d="M70.008,175.923l2.76-3.011a.78.78,0,0,0-.133-1.172c-.955-.659-2.429-1.972-2.24-3.7.278-2.535,3.108-3.333,5.025-1.082,0,0,.358,1.425,1.35-3.913s5.281-1.079,7.575-3.167,3.795-3.261,3.5-5.388-1.438-5.218-4.272-3.6-2.766-1.938-5.831-.638c-3.818,1.62-7.577-2.573-8.33,1.94s-5.823,1.031-4.642,4.811-4.6,3.35-3.422,6.046-.864,5.81,1.5,7.252,4.368.331,4.368,3.757c0,2,2.8,1.871,2.8,1.871" transform="translate(-8.892 -21.793)" fill="#2f5482"/>
        <path id="Trazado_1032300" data-name="Trazado 1032300" d="M133.947,170.1l-23.9,3.324a2.022,2.022,0,0,1-2.282-1.724l-3.324-23.9a2.023,2.023,0,0,1,1.724-2.282l23.9-3.324a2.022,2.022,0,0,1,2.281,1.724l3.324,23.9a2.022,2.022,0,0,1-1.724,2.281" transform="translate(-15.177 -20.663)" fill="#e69724"/>
        <path id="Trazado_1032301" data-name="Trazado 1032301" d="M114.885,169.321l14.987-2.085a1.2,1.2,0,0,0-.332-2.379l-14.986,2.085a1.2,1.2,0,0,0,.331,2.379" transform="translate(-16.498 -23.958)" fill="#fff"/>
        <path id="Trazado_1032302" data-name="Trazado 1032302" d="M97.759,192.836l5.639,1.673,13.038-14.758s-2.015-2.33-2.107-4.523.455-2.708.957-2.445.971,2.821,1.99,3.12,1.314-.309,1.818-3.411.712-4.525,1.611-4.741,1.208,1.837,1.208,1.837a1.639,1.639,0,0,1,1.419-.3,1.1,1.1,0,0,1,.615,1.124,1.288,1.288,0,0,1,1.247.1,1.318,1.318,0,0,1,.549,1.4s1.038-.693,1.38.971.639,7.22-5.9,9.9c0,0-12.172,22.593-14.721,23.089s-10.394-.514-10.394-.514Z" transform="translate(-13.968 -24.378)" fill="#f3d6c1"/>
        <path id="Trazado_1032303" data-name="Trazado 1032303" d="M64.923,229.839a1.463,1.463,0,0,1-1.47-1.462c0-5.907.06-28.019.814-35.081.96-8.987,8.7-8.757,19.456-3.423l9.891,4.9a1.463,1.463,0,0,1,.813,1.4c-.144,2.4-.594,8.68-1.495,11.847a1.466,1.466,0,0,1-1.749,1.03l-2.85-.666.534,19.944a1.469,1.469,0,0,1-1.468,1.508Z" transform="translate(-9.222 -27.054)" fill="#315780"/>
        <path id="Trazado_1032304" data-name="Trazado 1032304" d="M90.1,210.028S75.246,204.5,75.6,197.439" transform="translate(-10.987 -28.695)" fill="none" stroke="#2e506e" stroke-linecap="round" stroke-miterlimit="10" stroke-width="0.5"/>
        <path id="Trazado_1032305" data-name="Trazado 1032305" d="M83.921,189.52s-6.728-2.059-7.678,3.868" transform="translate(-11.081 -27.493)" fill="none" stroke="#2e506e" stroke-linecap="round" stroke-miterlimit="10" stroke-width="0.5"/>
        <line id="Línea_3317" data-name="Línea 3317" x1="1.451" y2="11.076" transform="translate(81.686 168.744)" fill="none" stroke="#2e506e" stroke-linecap="round" stroke-miterlimit="10" stroke-width="0.5"/>
        <line id="Línea_3318" data-name="Línea 3318" x1="0.633" y2="4.782" transform="translate(80.525 175.039)" fill="none" stroke="#2e506e" stroke-linecap="round" stroke-miterlimit="10" stroke-width="0.5"/>
        <line id="Línea_3319" data-name="Línea 3319" x1="19.522" transform="translate(57.478 200.165)" fill="none" stroke="#2e506e" stroke-linecap="round" stroke-miterlimit="10" stroke-width="0.5"/>
        <path id="Trazado_1032306" data-name="Trazado 1032306" d="M112.937,155.321l14.986-2.085a1.2,1.2,0,1,0-.331-2.379l-14.986,2.085a1.2,1.2,0,0,0,.331,2.379" transform="translate(-16.215 -21.923)" fill="#fff"/>
        <path id="Trazado_1032307" data-name="Trazado 1032307" d="M113.86,161.956l14.987-2.085a1.2,1.2,0,0,0-.332-2.379l-14.986,2.085a1.2,1.2,0,0,0,.331,2.379" transform="translate(-16.349 -22.887)" fill="#fff"/>
        <path id="Trazado_1032308" data-name="Trazado 1032308" d="M274.975,250.886l1.388,12.23-10.706,5.64-8.6-9.883,3.527-8.76Z" transform="translate(-37.359 -36.35)" fill="#e6ae90"/>
        <path id="Trazado_1032309" data-name="Trazado 1032309" d="M244.327,274.487l-3.109,18.069,6.887,3.278,5.033-21.347Z" transform="translate(-35.057 -39.892)" fill="#f3d6c1"/>
        <path id="Trazado_1032310" data-name="Trazado 1032310" d="M293.877,275.006l2.405,14.734-5.4,5.931L283.7,273.8Z" transform="translate(-41.232 -39.792)" fill="#f3d6c1"/>
        <path id="Trazado_1032311" data-name="Trazado 1032311" d="M272.16,257.866s12.754-3.278,14.722,6.167l1.647,7.911a.545.545,0,0,1-.591.656c-1.561-.169-5.124-.367-6.381,1.164l3.478,19.509-6.11,7.84-32.034-3.575,4.831-22.312s-3.849-2.2-7.065-2.021a1.143,1.143,0,0,1-1.208-1.326c.738-4.463,3.841-16.514,15.528-12.449,0,0,.509,8,7.38,7.066,7.067-.957,5.8-8.63,5.8-8.63" transform="translate(-35.379 -37.397)" fill="#f0c66c"/>
        <path id="Trazado_1032312" data-name="Trazado 1032312" d="M252.562,305.348a25.481,25.481,0,0,1,11.021-2.485c6.051.109,9.941,1.945,14.371-.648s8.7-5.68,11.4-7.625S296,290.005,300,292.922s1.837,14.371-5.078,16.857-19.125,7.023-28.2,6.375-14.155-10.806-14.155-10.806" transform="translate(-36.706 -42.383)" fill="#2e506e"/>
        <path id="Trazado_1032313" data-name="Trazado 1032313" d="M275.363,316.027l5.751,2.437a36,36,0,0,0,.516,4.587,3.166,3.166,0,0,1,0,1.944s-8.693-.271-11.208-3.431Z" transform="translate(-39.302 -45.93)" fill="#f3d6c1"/>
        <path id="Trazado_1032314" data-name="Trazado 1032314" d="M283.448,324.536s15.559,0,19.125-3.133,2.378-6.267-3.241-8.536c0,0-10.888,4.141-16.4,5.138Z" transform="translate(-41.12 -45.47)" fill="#e69724"/>
        <path id="Trazado_1032315" data-name="Trazado 1032315" d="M246.251,313.274s-6.7-4-9.184,1.945,6.7,8.752,13.182,8.212a42.99,42.99,0,0,0,11.993-2.917Z" transform="translate(-34.393 -45.338)" fill="#e69724"/>
        <path id="Trazado_1032316" data-name="Trazado 1032316" d="M275.31,241.484s1,9.618-3.431,14.052a5.539,5.539,0,0,1-5.984,1.123c-3.044-1.232-7.138-4.767-6.465-14.911l5.966-8.51s9.124,8.6,9.913,8.247" transform="translate(-37.694 -33.897)" fill="#f3d6c1"/>
        <path id="Trazado_1032317" data-name="Trazado 1032317" d="M269.285,312.668s-17.936-10.531-21.934-13.773-11.886-8.776-16.532-4.309-1.246,10.03,3.349,12.464c4.419,2.339,17.22,9.269,27.611,12.3a2.048,2.048,0,0,0,2.1-.615Z" transform="translate(-33.223 -42.57)" fill="#315780"/>
        <path id="Trazado_1032318" data-name="Trazado 1032318" d="M264.491,235.124c1.234,1.743,4.037,5.319,6.654,5.964a1.17,1.17,0,0,1,.869,1.131c.059,3.787.407,16.878,2.408,19.986,2.347,3.644,6.849.224,9.642-2.2s-4.679-15.953-4.679-21.767-5.531-14.535-14.322-13.613-10.706,7.09-11.628,13.9-5.176,6.948-5.247,13.117-.785,8.651,2.406,10.494,7.662,3.118,8.512-1.561,1.276-8.153.284-12.975c-.785-3.814,2.458-10,3.848-12.416a.742.742,0,0,1,1.251-.059" transform="translate(-36.054 -32.636)" fill="#2e506e"/>
        <path id="Trazado_1032319" data-name="Trazado 1032319" d="M285.621,276.484l-.544,17.856a1.936,1.936,0,0,1-1.936,1.878H250.1a1.937,1.937,0,0,1-1.935-1.861l-.68-17.557a1.937,1.937,0,0,1,1.919-2.011l34.27-.3a1.937,1.937,0,0,1,1.953,2" transform="translate(-35.967 -39.892)" fill="#e69724"/>
        <path id="Trazado_1032320" data-name="Trazado 1032320" d="M266.819,287.2a3.457,3.457,0,1,0,3.457-3.457,3.457,3.457,0,0,0-3.457,3.457" transform="translate(-38.778 -41.238)" fill="#f0c66c"/>
        <line id="Línea_3320" data-name="Línea 3320" x2="283.598" transform="translate(16.109 278.602)" fill="none" stroke="#315782" stroke-linecap="round" stroke-miterlimit="10" stroke-width="1"/>
        <path id="Trazado_1032321" data-name="Trazado 1032321" d="M282.882,53.8,271.393,63.31a2.534,2.534,0,0,1-3.937-.939l-14.6-33.447Z" transform="translate(-36.749 -4.204)" fill="#bad4ef"/>
        <path id="Trazado_1032322" data-name="Trazado 1032322" d="M286.97,50.636,252.859,28.922l43.556,13.341a1.1,1.1,0,0,1,.283,1.969Z" transform="translate(-36.749 -4.203)" fill="#bad4ef"/>
        <path id="Trazado_1032323" data-name="Trazado 1032323" d="M282.882,53.8l3.5,8.054.589-11.221L252.859,28.923Z" transform="translate(-36.749 -4.203)" fill="#315782"/>
        <path id="Trazado_1032324" data-name="Trazado 1032324" d="M284.443,60.541l6.528,5.548-3.5-8.054Z" transform="translate(-41.339 -8.434)" fill="#2e506e"/>
        <path id="Trazado_1032325" data-name="Trazado 1032325" d="M297.387,69.32s.713.362,1.92.934" transform="translate(-43.221 -10.075)" fill="none" stroke="#315782" stroke-linecap="round" stroke-miterlimit="10" stroke-width="1"/>
        <path id="Trazado_1032326" data-name="Trazado 1032326" d="M304.233,71.927c7.6,3.327,20.262,8.072,23.451,4.328,4.637-5.443-5.18-11.29-6.96-5.137s26.557,6.636,19.416,19.483c-3.8,6.836-13.1-9.378,2.218-5.5,8.892,2.253,7.585,15.493,2.33,23.168a15.183,15.183,0,0,1-7.007,5.318" transform="translate(-44.215 -9.953)" fill="none" stroke="#315782" stroke-linecap="round" stroke-miterlimit="10" stroke-width="1" stroke-dasharray="5.055 5.055"/>
        <path id="Trazado_1032327" data-name="Trazado 1032327" d="M340.62,122.07a15.753,15.753,0,0,1-2.084.454" transform="translate(-49.201 -17.741)" fill="none" stroke="#315782" stroke-linecap="round" stroke-miterlimit="10" stroke-width="1"/>
      </g>
    </g>
  </g>
</svg>
