<svg xmlns="http://www.w3.org/2000/svg" xmlns:xlink="http://www.w3.org/1999/xlink" width="85" height="85" viewBox="0 0 85 85">
  <defs>
    <clipPath id="clip-path">
      <rect id="Rectángulo_467117" data-name="Rectángulo 467117" width="56.005" height="55.074" fill="#12263f"/>
    </clipPath>
  </defs>
  <g id="Grupo_1180258" data-name="Grupo 1180258" transform="translate(-705.629 -410)">
    <g id="Grupo_1180019" data-name="Grupo 1180019">
      <g id="Grupo_1180023" data-name="Grupo 1180023">
        <rect id="Rectángulo_456333" data-name="Rectángulo 456333" width="85" height="85" rx="10" transform="translate(705.629 410)" fill="#68eae0"/>
        <g id="Grupo_1180955" data-name="Grupo 1180955" transform="translate(724.629 424.963)">
          <g id="Grupo_1180954" data-name="Grupo 1180954" clip-path="url(#clip-path)">
            <path id="Trazado_1033041" data-name="Trazado 1033041" d="M7.042,19.768c.73-.512.236-1.576-.045-1.891-.325-.365-2.276.217-2.291-.921l-.047-3.72a1.12,1.12,0,0,1,.331-.885c.55-.432,1.432-.061,1.907-.3a2.94,2.94,0,0,0,.563-1.476c-.134-.437-1.476-1.026-1.014-1.989A.887.887,0,0,1,7.688,8.17a14.591,14.591,0,0,1,1.8,1.742A.886.886,0,0,1,9.526,11a21.2,21.2,0,0,0-1.154,2.622c-.286.53-1.272.384-1.8.341a6.663,6.663,0,0,0,.018,1.93c.445-.037,1.557-.214,1.777.312l1.29,3.07c.224.533-.66,1.163-1.047,1.481a7.751,7.751,0,0,0,1.4,1.422c.365-.472.9-1.208,1.508-1.056.867.216,1.526.881,2.43.914a15.049,15.049,0,0,1,1.164-2.52A4.661,4.661,0,1,1,20.479,14.2a11.286,11.286,0,0,1,2.484-1.185c.125-.942-.651-1.6-.9-2.421-.184-.62.609-1.171,1.05-1.52l-1.379-1.4c-.307.292-.835,1.132-1.391,1.083l-3.2-1.321c-.465-.192-.409-1.217-.3-1.738A5.513,5.513,0,0,0,14.9,5.638c.031.517.2,1.515-.338,1.8a23.246,23.246,0,0,0-2.746,1.214.875.875,0,0,1-1.069-.18L9.112,6.749c-.392-.412.03-1.06.414-1.243.969-.462,1.565.895,1.99,1.013a2.977,2.977,0,0,0,1.473-.556c.215-.465-.168-2.159.7-2.16l4.35,0c.86,0,.482,1.712.7,2.166a2.936,2.936,0,0,0,1.469.551c.359-.12,1.351-1.587,1.921-1.03l3.109,3.042c.327.32.06.929-.183,1.191l-.845.913a8.489,8.489,0,0,1,.63,1.832,15.061,15.061,0,0,1,10.614,1.643l.009-12.241H1.864l0,19.563a.912.912,0,0,1-.852.94A.914.914,0,0,1,0,21.43V.948A.907.907,0,0,1,.967,0l35.39,0A.874.874,0,0,1,37.3.78l.035,14.647c1.725,1.447,4.421,4.241,2.944,4.963a.961.961,0,0,1-1.243-.273A13,13,0,1,0,40.5,23.305a.966.966,0,0,1,.543-1.2.913.913,0,0,1,1.224.591,14.809,14.809,0,0,1-1.931,12.723L44.622,39.6c.744.065,1.769-.09,2.377.56l8.291,8.305a2.657,2.657,0,0,1,0,3.627l-2.264,2.264a2.615,2.615,0,0,1-3.521.077l-8.329-8.255c-.724-.717-.523-1.657-.71-2.476-.773-1.268-2.118-2.148-3.109-3.29l-.043,10.9a.934.934,0,0,1-.962.949H.97A.941.941,0,0,1,0,51.285V25.215a.918.918,0,0,1,.854-.948.909.909,0,0,1,1.007.949l0,25.181h33.6L35.452,39.96A14.854,14.854,0,0,1,16.8,36.928l-.014,10.643a.949.949,0,0,1-.931.95l-3.724-.007a.926.926,0,0,1-.932-.937l-.006-6.51H9.33l-.006,6.51a.927.927,0,0,1-.931.937H4.669a.926.926,0,0,1-.932-.937v-5.59a.862.862,0,0,1,.767-.9l3.029-.1c-.2-.711-.076-1.692.545-1.709l3.108-.085L11.2,37.32a.905.905,0,0,1,.93-.923l4.186-.038A14.966,14.966,0,0,1,13.4,23.878l-2-.588c-.3.445-1.07,1.363-1.678,1.122a21.738,21.738,0,0,1-3.292-3.226c-.384-.436.295-1.2.611-1.42m11.565-4.234a2.8,2.8,0,1,0-5.533-.331c.116,1.5,1.768,3.049,3.364,2.308.755-.433,1.233-1.546,2.168-1.977M41.682,42.007l1.269-1.344L39.128,36.9a17.586,17.586,0,0,1-1.3,1.343Zm-26.745,4.6-.007-8.34H13.06v8.371Zm37.039,6.2,1.818-1.824a1.014,1.014,0,0,0,.187-1.224l-7.92-7.919a.993.993,0,0,0-1.42-.2L42.587,43.7a.993.993,0,0,0,.2,1.419L50.7,53.04a1.059,1.059,0,0,0,1.275-.231M7.478,46.63l-.013-3.705-1.87,0v3.719Z" transform="translate(0 -0.001)" fill="#12263f"/>
            <path id="Trazado_1033042" data-name="Trazado 1033042" d="M97.356,104.676a9.32,9.32,0,1,0-2.588-1.733c.392.376.043,1.171-.27,1.328a1.03,1.03,0,0,1-1.308-.3,11.189,11.189,0,1,1,3.408,2.386.931.931,0,0,1-.345-1.207.946.946,0,0,1,1.1-.477" transform="translate(-73.203 -69.113)" fill="#12263f"/>
            <path id="Trazado_1033043" data-name="Trazado 1033043" d="M21.637,146.192l-3.8.015a.922.922,0,0,1-.932-.933l-.008-3.708-.927-.026a.932.932,0,0,1-.791-.437.959.959,0,0,1,.041-1.06l3.826-4.752a.954.954,0,0,1,1.4.089l3.73,4.664a.963.963,0,0,1,.1.934.925.925,0,0,1-.854.562l-.925.03-.008,3.7a.889.889,0,0,1-.848.917m-1-1.869-.019-3.539a1.172,1.172,0,0,1,.8-1.166l-1.725-2.132-1.719,2.1c.375.228.776.512.778,1.018l.008,3.731Z" transform="translate(-12.229 -109.825)" fill="#12263f"/>
            <path id="Trazado_1033044" data-name="Trazado 1033044" d="M115.6,129.017l-4.173,3.261a.91.91,0,0,1-1.221-.3.948.948,0,0,1,.221-1.254l4.436-3.573a1.134,1.134,0,0,1,1.656.1l1.929,1.948,2.316-2.368c-.782.039-1.314-.274-1.367-.874s.411-1.022,1.1-1.019l2.614.009a.9.9,0,0,1,.927.932v2.788a.911.911,0,0,1-1.009.923c-.616-.061-.9-.591-.881-1.368l-2.934,2.9a1.045,1.045,0,0,1-1.533,0Z" transform="translate(-89.517 -101.618)" fill="#12263f"/>
            <path id="Trazado_1033045" data-name="Trazado 1033045" d="M107.053,230.075a2.8,2.8,0,1,1-1.9,3.58,2.766,2.766,0,0,1,1.9-3.58m.444,1.82a.923.923,0,1,0,1.151.491.918.918,0,0,0-1.151-.491" transform="translate(-85.412 -187.049)" fill="#12263f"/>
            <path id="Trazado_1033046" data-name="Trazado 1033046" d="M145.6,250.068a.894.894,0,0,1,1.219.458.925.925,0,1,1-1.219-.458" transform="translate(-117.979 -203.325)" fill="#12263f"/>
            <path id="Trazado_1033047" data-name="Trazado 1033047" d="M165.6,250.068a.894.894,0,0,1,1.219.458.925.925,0,1,1-1.219-.458" transform="translate(-134.247 -203.325)" fill="#12263f"/>
          </g>
        </g>
      </g>
    </g>
  </g>
</svg>
