<svg xmlns="http://www.w3.org/2000/svg" xmlns:xlink="http://www.w3.org/1999/xlink" width="128" height="128" viewBox="0 0 128 128">
  <defs>
    <clipPath id="clip-path">
      <rect id="Rectángulo_456267" data-name="Rectángulo 456267" width="128" height="128" fill="none"/>
    </clipPath>
    <clipPath id="clip-path-2">
      <rect id="Rectángulo_467118" data-name="Rectángulo 467118" width="67.417" height="67.419" fill="#19538d"/>
    </clipPath>
  </defs>
  <g id="Grupo_1180267" data-name="Grupo 1180267" transform="translate(511.746 8527) rotate(180)">
    <path id="Trazado_999622" data-name="Trazado 999622" d="M59.07,0A59.07,59.07,0,1,1,0,59.07,59.071,59.071,0,0,1,59.07,0" transform="translate(388.676 8403.93)" fill="#fff"/>
    <g id="Grupo_1179902" data-name="Grupo 1179902" transform="translate(383.746 8399)">
      <g id="Grupo_1179905" data-name="Grupo 1179905" clip-path="url(#clip-path)">
        <path id="Trazado_999618" data-name="Trazado 999618" d="M64,0A64,64,0,1,1,0,64,64,64,0,0,1,64,0" fill="none"/>
        <path id="Trazado_999619" data-name="Trazado 999619" d="M5,59a5,5,0,1,1-5,5,5,5,0,0,1,5-5" fill="#19538d"/>
        <path id="Trazado_999620" data-name="Trazado 999620" d="M21,19a5,5,0,1,1-5,5,5,5,0,0,1,5-5" fill="#19538d"/>
        <path id="Trazado_999621" data-name="Trazado 999621" d="M64,124A60.068,60.068,0,0,1,4,64H7A57,57,0,1,0,22.408,25.024L20.22,22.972A60,60,0,1,1,64,124" fill="#19538d"/>
        <rect id="Rectángulo_456268" data-name="Rectángulo 456268" width="128" height="128" fill="none"/>
        <rect id="Rectángulo_456269" data-name="Rectángulo 456269" width="128" height="128" fill="none"/>
      </g>
    </g>
    <g id="Grupo_1180957" data-name="Grupo 1180957" transform="translate(481.454 8496.71) rotate(180)">
      <g id="Grupo_1180956" data-name="Grupo 1180956" clip-path="url(#clip-path-2)">
        <path id="Trazado_1033048" data-name="Trazado 1033048" d="M97.637,102.628h.011a2.3,2.3,0,0,0,1.63-.678l2.566-2.551a2.34,2.34,0,0,0,.219-3.286l-2.138-2.2c.318-.678.561-1.29.829-2.018l2.666-.022a2.366,2.366,0,0,0,2.531-2.451l-.017-3.79a2.206,2.206,0,0,0-2.286-2.206l-2.895-.048c-.243-.652-.495-1.3-.828-2.006l2.038-2.078a2.384,2.384,0,0,0-.118-3.414l-2.335-2.344a2.422,2.422,0,0,0-3.407-.317l-2.2,2.13c-.694-.318-1.309-.573-2.008-.833l-.044-2.889a2.22,2.22,0,0,0-2.208-2.279H85.624a2.218,2.218,0,0,0-2.2,2.281l-.043,2.9a18.225,18.225,0,0,0-2.007.828l-2.084-2.043a2.352,2.352,0,0,0-3.291.021l-2.567,2.55a2.593,2.593,0,0,0-.779,1.816,2.231,2.231,0,0,0,.66,1.593l2.029,2.022-.822,2.074-3.1.062a2.132,2.132,0,0,0-2.071,2.178v4.031a2.133,2.133,0,0,0,2.069,2.186l3.108.055.82,2.073-2.028,2.021a2.232,2.232,0,0,0-.662,1.589,2.6,2.6,0,0,0,.778,1.822l2.452,2.452a2.345,2.345,0,0,0,3.286.215l2.2-2.138c.621.294,1.224.542,2.014.828l.066,3.107a2.126,2.126,0,0,0,2.162,2.074h.013l4.15-.022a2.168,2.168,0,0,0,2.083-2.256l.044-2.9,2.068-.823,1.9,1.928a2.533,2.533,0,0,0,1.77.764M76.6,95.742a2.826,2.826,0,0,0,.316-3.534c-.09-.18-.17-.387-.254-.606-.295-.765-.662-1.718-1.7-1.754l-3.474-.12-.05-4.131,3.52-.16c1.041-.047,1.411-1,1.709-1.766.063-.162.125-.322.191-.47.455-1.011,1.021-2.269.054-3.283l-2.172-2.28,2.891-2.889,2.409,2.263c.664.624,2.082.36,3.186-.1,1-.412,2.175-1.17,2.2-1.953l.12-3.471,4.123-.05.159,3.533c.046,1.03.978,1.389,1.727,1.677a6.528,6.528,0,0,1,.64.271,2.832,2.832,0,0,0,3.659-.429l1.782-1.743,2.887,2.888-2.263,2.405c-.617.656-.364,2.055.078,3.146.41,1.013,1.172,2.21,1.969,2.246l3.519.162-.053,4.166c-.437.02-.871.009-1.293,0a8.889,8.889,0,0,0-2.412.156c-.88.219-1.183.993-1.45,1.676a6.037,6.037,0,0,1-.263.609,2.839,2.839,0,0,0,.418,3.657l1.748,1.784-2.893,2.88-2.271-2.166c-1.015-.968-2.275-.4-3.287.057-.15.068-.313.131-.479.2-.768.3-1.724.669-1.762,1.713l-.126,3.509-4.159-.044-.114-3.467c-.034-1.038-.978-1.406-1.736-1.7-.176-.069-.343-.134-.494-.2-1.154-.534-2.369-.971-3.421.044l-2.149,2.074-2.89-2.892Z" transform="translate(-53.925 -53.929)" fill="#19538d"/>
        <path id="Trazado_1033049" data-name="Trazado 1033049" d="M208.631,187.575a4.238,4.238,0,0,0-4.221,3.177l-6.779-.008h0a1.039,1.039,0,0,0-.782.334,1.084,1.084,0,0,0-.271.835,1.039,1.039,0,0,0,1.066.949l6.8.037a4.318,4.318,0,0,0,3.015,3.018l-.043,9.246a2.091,2.091,0,0,1-2.078,1.906l-9.418.015a4.481,4.481,0,0,0-3.042-3.059l0-7.949,0-.045a1.1,1.1,0,0,0-1.183-.929,1.064,1.064,0,0,0-.941.966l-.031,7.978a4.228,4.228,0,0,0,.747,8.3q.173.013.344.013a4.247,4.247,0,0,0,4.089-3.131l9.027.006h0a4.78,4.78,0,0,0,3.327-1.257,4.456,4.456,0,0,0,1.347-3.273l0-8.825a4.224,4.224,0,0,0-.982-8.3m-1.967,3.222a2.236,2.236,0,0,1,1.457-1.076h0a2.11,2.11,0,0,1,.993,4.1,2.088,2.088,0,0,1-2.6-1.374,2.044,2.044,0,0,1,.153-1.65M192.3,210.206a2.124,2.124,0,0,1-2.361-3.07,2.006,2.006,0,0,1,1.264-1.017,2.182,2.182,0,0,1,1.686.179,2.03,2.03,0,0,1,.961,1.251,2.106,2.106,0,0,1-1.55,2.657" transform="translate(-145.89 -145.878)" fill="#19538d"/>
        <path id="Trazado_1033050" data-name="Trazado 1033050" d="M190.724,10.895l0,6.775a1.04,1.04,0,0,0,.347.792,1.062,1.062,0,0,0,.832.26,1.078,1.078,0,0,0,.944-1.063l.042-6.811a4.123,4.123,0,0,0,2.967-2.973l9.078-.021h0a2.075,2.075,0,0,1,2.087,1.929l.037,9.6A4.506,4.506,0,0,0,204,22.416H196.7a1.106,1.106,0,0,0-1.037,1.158,1.077,1.077,0,0,0,1.056.983l7.315.017a4.155,4.155,0,0,0,4.086,3.141,4.741,4.741,0,0,0,.48-.025,4.189,4.189,0,0,0,3.731-3.866,4.28,4.28,0,0,0-3.117-4.439L209.166,9.9A4.138,4.138,0,0,0,205.13,5.74l-9.267-.057a4.232,4.232,0,1,0-5.139,5.212m2.822-2.949a2.125,2.125,0,0,1-3.848-.738,1.968,1.968,0,0,1,.258-1.508A2.2,2.2,0,0,1,191.4,4.691a2.03,2.03,0,0,1,.415-.043,2.141,2.141,0,0,1,2.024,1.681,2.069,2.069,0,0,1-.294,1.617m12.57,14.823a1.958,1.958,0,0,1,1.1-1.188,2.2,2.2,0,0,1,1.705-.055,2.128,2.128,0,0,1,0,3.937,2.152,2.152,0,0,1-2.657-.933,2.223,2.223,0,0,1-.151-1.761" transform="translate(-145.859 -1.992)" fill="#19538d"/>
        <path id="Trazado_1033051" data-name="Trazado 1033051" d="M25.825,204.429l0-6.8a1.024,1.024,0,0,0-.335-.771,1.1,1.1,0,0,0-.84-.275,1.062,1.062,0,0,0-.949,1.058l-.035,6.821a4.378,4.378,0,0,0-3.055,3.011l-8.784-.029a2.2,2.2,0,0,1-1.657-.57,2.076,2.076,0,0,1-.669-1.538L9.5,195.933a4.5,4.5,0,0,0,3.032-3.018l7.076-.035a1.165,1.165,0,0,0,.879-.366,1.027,1.027,0,0,0,.254-.8,1.066,1.066,0,0,0-1.1-.966l-7.12-.019a4.175,4.175,0,0,0-4.565-3.107,4.174,4.174,0,0,0-3.735,3.859,4.25,4.25,0,0,0,3.115,4.435l.077,9.69a4.214,4.214,0,0,0,4.419,4.005h.014l8.811-.026a4.288,4.288,0,0,0,4.136,3.185c.1,0,.21,0,.316-.011a4.239,4.239,0,0,0,.718-8.327m-.224,6.052a2.111,2.111,0,1,1-1.648-3.887,2.139,2.139,0,0,1,.85-.184,2.19,2.19,0,0,1,1.953,1.392,2.125,2.125,0,0,1-1.155,2.679M10.164,193.053a2.054,2.054,0,0,1-1.355.846,2.113,2.113,0,0,1-2.453-1.624,2.136,2.136,0,0,1,.32-1.662,2.058,2.058,0,0,1,1.422-.887,2.125,2.125,0,0,1,2.411,1.661,2.187,2.187,0,0,1-.344,1.665" transform="translate(-3.27 -145.894)" fill="#19538d"/>
        <path id="Trazado_1033052" data-name="Trazado 1033052" d="M6.637,29.015h.035a4.287,4.287,0,0,0,4.182-3.158l6.779-.006a1.036,1.036,0,0,0,.78-.348,1.1,1.1,0,0,0,.281-.839,1.061,1.061,0,0,0-1.067-.954l-6.811-.032a4.354,4.354,0,0,0-3.027-3.045l.034-8.791A2.215,2.215,0,0,1,8.4,10.177a2.069,2.069,0,0,1,1.53-.665l9.417,0a4.46,4.46,0,0,0,3.01,3.025l.034,6.636a1.1,1.1,0,0,0,.928,1.149,1.187,1.187,0,0,0,.88-.276.849.849,0,0,0,.3-.648l.042-6.867a4.227,4.227,0,0,0-.751-8.3,4.253,4.253,0,0,0-4.45,3.129l-9.479.055a4.039,4.039,0,0,0-4.133,3.818l-.11,9.451a4.275,4.275,0,0,0-3.069,4.649,4.172,4.172,0,0,0,4.083,3.682m.7-2.19A2.134,2.134,0,0,1,4.8,25.633a2.016,2.016,0,0,1-.051-1.591,2.155,2.155,0,0,1,1.221-1.215,2.052,2.052,0,0,1,1.619.007,2.177,2.177,0,0,1,1.15,1.247,2.139,2.139,0,0,1-1.4,2.744m14.2-19.3a2.137,2.137,0,0,1,3.953.287,2.136,2.136,0,0,1-1.3,2.621,2.114,2.114,0,0,1-2.671-1.117,2.232,2.232,0,0,1,.013-1.791" transform="translate(-1.961 -3.281)" fill="#19538d"/>
        <path id="Trazado_1033053" data-name="Trazado 1033053" d="M147.858,13.7a1.106,1.106,0,0,0,.121-.007,1.118,1.118,0,0,0,.972-1.227L148.931,1.07a1.044,1.044,0,0,0-.356-.784A1.079,1.079,0,0,0,147.759,0a1.109,1.109,0,0,0-.972,1.065l-.009,11.508a1.116,1.116,0,0,0,.362.847,1.075,1.075,0,0,0,.717.273" transform="translate(-114.151 0)" fill="#19538d"/>
        <path id="Trazado_1033054" data-name="Trazado 1033054" d="M12.666,148.977h.024l.023,0a1.118,1.118,0,0,0,.978-1.216,1.075,1.075,0,0,0-1.111-.961h0l-11.509.011a1.04,1.04,0,0,0-.78.35,1.084,1.084,0,0,0-.284.817,1.1,1.1,0,0,0,1.068.982Z" transform="translate(0 -114.164)" fill="#19538d"/>
        <path id="Trazado_1033055" data-name="Trazado 1033055" d="M255.361,147.776a1.105,1.105,0,0,0-1.062-.968l-11.511-.006h0a1.116,1.116,0,0,0-.842.354,1.09,1.09,0,0,0-.269.84,1.1,1.1,0,0,0,1.117.975l11.622,0,.033-.01a1.157,1.157,0,0,0,.913-1.188" transform="translate(-187.949 -114.169)" fill="#19538d"/>
        <path id="Trazado_1033056" data-name="Trazado 1033056" d="M147.739,241.663a1.089,1.089,0,0,0-.964,1.117l.011,11.507a1.045,1.045,0,0,0,.36.787,1.094,1.094,0,0,0,.712.283.868.868,0,0,0,.1-.006,1.135,1.135,0,0,0,.979-1.169v-11.4a1.12,1.12,0,0,0-.362-.848,1.08,1.08,0,0,0-.837-.268" transform="translate(-114.148 -187.938)" fill="#19538d"/>
        <path id="Trazado_1033057" data-name="Trazado 1033057" d="M123.266,131.414c.158,0,.318,0,.478-.014a8.111,8.111,0,1,0-6.587-13.47,8.132,8.132,0,0,0,6.109,13.485M118.3,119.9a5.867,5.867,0,0,1,3.874-2.489,6.358,6.358,0,0,1,1.111-.1,5.933,5.933,0,0,1,5.881,4.9,6,6,0,0,1-11.772,2.341,6.122,6.122,0,0,1,.906-4.654" transform="translate(-89.552 -89.586)" fill="#19538d"/>
      </g>
    </g>
  </g>
</svg>
