<svg xmlns="http://www.w3.org/2000/svg" xmlns:xlink="http://www.w3.org/1999/xlink" width="128" height="128" viewBox="0 0 128 128">
  <defs>
    <clipPath id="clip-path">
      <rect id="Rectángulo_456267" data-name="Rectángulo 456267" width="128" height="128" fill="none"/>
    </clipPath>
    <clipPath id="clip-path-2">
      <rect id="Rectángulo_467119" data-name="Rectángulo 467119" width="67.577" height="64.973" fill="#19538d"/>
    </clipPath>
  </defs>
  <g id="Grupo_1180268" data-name="Grupo 1180268" transform="translate(511.746 8527) rotate(180)">
    <path id="Trazado_999622" data-name="Trazado 999622" d="M59.07,0A59.07,59.07,0,1,1,0,59.07,59.071,59.071,0,0,1,59.07,0" transform="translate(388.676 8403.93)" fill="#fff"/>
    <g id="Grupo_1179902" data-name="Grupo 1179902" transform="translate(383.746 8399)">
      <g id="Grupo_1179905" data-name="Grupo 1179905" clip-path="url(#clip-path)">
        <path id="Trazado_999618" data-name="Trazado 999618" d="M64,0A64,64,0,1,1,0,64,64,64,0,0,1,64,0" fill="none"/>
        <path id="Trazado_999619" data-name="Trazado 999619" d="M5,59a5,5,0,1,1-5,5,5,5,0,0,1,5-5" fill="#19538d"/>
        <path id="Trazado_999620" data-name="Trazado 999620" d="M21,19a5,5,0,1,1-5,5,5,5,0,0,1,5-5" fill="#19538d"/>
        <path id="Trazado_999621" data-name="Trazado 999621" d="M64,124A60.068,60.068,0,0,1,4,64H7A57,57,0,1,0,22.408,25.024L20.22,22.972A60,60,0,1,1,64,124" fill="#19538d"/>
        <rect id="Rectángulo_456268" data-name="Rectángulo 456268" width="128" height="128" fill="none"/>
        <rect id="Rectángulo_456269" data-name="Rectángulo 456269" width="128" height="128" fill="none"/>
      </g>
    </g>
    <g id="Grupo_1180959" data-name="Grupo 1180959" transform="translate(481.534 8495.486) rotate(180)">
      <g id="Grupo_1180958" data-name="Grupo 1180958" clip-path="url(#clip-path-2)">
        <path id="Trazado_1033058" data-name="Trazado 1033058" d="M67.292,61.072l-3.584-6.6.028-50.6a4.142,4.142,0,0,0-.975-2.659A3.316,3.316,0,0,0,60.218,0L3.523,0h0A3.677,3.677,0,0,0,.011,3.651L0,53.7a3.665,3.665,0,0,0,1.165,2.7,3.954,3.954,0,0,0,2.719,1.06h0l17.285-.008-1.91,3.474a2.631,2.631,0,0,0,.133,2.8,2.849,2.849,0,0,0,2.538,1.247h0l42.942-.013A2.708,2.708,0,0,0,67.1,63.724a2.561,2.561,0,0,0,.19-2.652M2.091,3.614a1.627,1.627,0,0,1,1.64-1.556H59.643c.073-.007.145-.011.216-.011a1.784,1.784,0,0,1,1.254.474,1.939,1.939,0,0,1,.555,1.513l-.022,5.8L2.092,9.841ZM61.643,50.92,45.456,22.115a2.5,2.5,0,0,0-2.3-1.194,2.631,2.631,0,0,0-2.334,1.55L22.361,55.394,3.707,55.387a1.676,1.676,0,0,1-1.636-1.7l.009-41.748H61.668ZM21.026,61.953,42.716,23.31a.631.631,0,0,1,.475-.35.491.491,0,0,1,.058,0,.627.627,0,0,1,.53.36L65.448,61.948a.84.84,0,0,1-.092.71.737.737,0,0,1-.61.229l-42.919,0a.9.9,0,0,1-.677-.221.726.726,0,0,1-.122-.717" transform="translate(0)" fill="#19538d"/>
        <path id="Trazado_1033059" data-name="Trazado 1033059" d="M27.553,82.849l24.425.007.015,0a1.074,1.074,0,0,0,.843-1.215,1.031,1.031,0,0,0-1.135-.853H27.548a1.085,1.085,0,0,0-.779.315,1.022,1.022,0,0,0-.3.723,1.091,1.091,0,0,0,1.083,1.028" transform="translate(-20.898 -63.779)" fill="#19538d"/>
        <path id="Trazado_1033060" data-name="Trazado 1033060" d="M51.944,142.128l-24.439,0a.842.842,0,0,0-.675.321,1.077,1.077,0,0,0,.819,1.745l24.247,0a1.05,1.05,0,0,0,.786-.308,1.074,1.074,0,0,0,.281-.782,1.053,1.053,0,0,0-1.019-.976" transform="translate(-20.997 -112.211)" fill="#19538d"/>
        <path id="Trazado_1033061" data-name="Trazado 1033061" d="M51.856,111.5h0l-24.568.036a.52.52,0,0,0-.4.184,1.3,1.3,0,0,0-.238.893c.07.567.368.893.817.893l24.669.012h.016l.015,0a1.031,1.031,0,0,0,.793-1.306,1,1,0,0,0-1.1-.707" transform="translate(-21.036 -88.029)" fill="#19538d"/>
        <path id="Trazado_1033062" data-name="Trazado 1033062" d="M188.577,173.088a3.873,3.873,0,0,0,2.68,1.084l.121,0a3.749,3.749,0,0,0,3.665-3.727l.012-10.822a3.741,3.741,0,0,0-1.111-2.7,3.8,3.8,0,0,0-2.764-1.082,3.71,3.71,0,0,0-3.693,3.711l.01,11.017a3.491,3.491,0,0,0,1.079,2.522m.95-2.666,0-10.91a1.747,1.747,0,0,1,1.65-1.622l.079,0a1.826,1.826,0,0,1,1.235.5,1.587,1.587,0,0,1,.5,1.155l.02,10.785a1.784,1.784,0,0,1-1.648,1.778,1.8,1.8,0,0,1-1.338-.48,1.615,1.615,0,0,1-.507-1.2" transform="translate(-148.022 -123.035)" fill="#19538d"/>
        <path id="Trazado_1033063" data-name="Trazado 1033063" d="M191.186,254.5a3.892,3.892,0,0,0,.591-.045,3.783,3.783,0,1,0-1.219-7.467,3.713,3.713,0,0,0-2.451,1.533,3.84,3.84,0,0,0-.634,2.882,3.769,3.769,0,0,0,3.714,3.1M189.615,250a1.724,1.724,0,0,1,1.068-.935,1.7,1.7,0,0,1,2.184,1.144,1.771,1.771,0,0,1-1.022,2.085,1.74,1.74,0,0,1-2.26-.987,1.593,1.593,0,0,1,.031-1.307" transform="translate(-147.962 -194.951)" fill="#19538d"/>
        <path id="Trazado_1033064" data-name="Trazado 1033064" d="M194.9,23.4l-18.5-.011h0a1.1,1.1,0,0,0-.826.318,1.044,1.044,0,0,0,.747,1.745l18.74.007.021-.009a1.146,1.146,0,0,0,.813-1.157,1.07,1.07,0,0,0-1-.893" transform="translate(-138.404 -18.466)" fill="#19538d"/>
        <path id="Trazado_1033065" data-name="Trazado 1033065" d="M33.283,16.626a2.644,2.644,0,0,0-2.045-.056,2.357,2.357,0,0,0-1.406,1.341,2.633,2.633,0,0,0,.088,2.139,2.49,2.49,0,0,0,2.245,1.368,2.519,2.519,0,0,0,2.386-3.349,2.479,2.479,0,0,0-1.268-1.443m-1.546,2.118a.438.438,0,0,1,.26-.286.368.368,0,0,1,.3-.011.568.568,0,0,1,.294.278.5.5,0,0,1-.205.554.386.386,0,0,1-.534-.06.59.59,0,0,1-.111-.475" transform="translate(-23.405 -12.942)" fill="#19538d"/>
        <path id="Trazado_1033066" data-name="Trazado 1033066" d="M63.4,16.619a2.6,2.6,0,0,0-2.035-.016,2.46,2.46,0,0,0-1.289,3.443,2.619,2.619,0,0,0,2.277,1.386,2.293,2.293,0,0,0,.858-.164,2.549,2.549,0,0,0,1.479-3.231A2.444,2.444,0,0,0,63.4,16.619m-1.413,2.6a.543.543,0,0,1-.1-.438.413.413,0,0,1,.223-.3.441.441,0,0,1,.356-.025.512.512,0,0,1,.284.24.523.523,0,0,1-.174.592.425.425,0,0,1-.586-.073" transform="translate(-47.207 -12.951)" fill="#19538d"/>
        <path id="Trazado_1033067" data-name="Trazado 1033067" d="M93.622,16.622a2.639,2.639,0,0,0-2.058-.011,2.362,2.362,0,0,0-1.358,1.369,2.548,2.548,0,0,0,2.371,3.462,2.241,2.241,0,0,0,.846-.163,2.537,2.537,0,0,0,1.486-3.264,2.429,2.429,0,0,0-1.288-1.393m-.933,2.74a.472.472,0,0,1-.544-.217.57.57,0,0,1,.032-.485.455.455,0,0,1,.332-.222.412.412,0,0,1,.321.079A.445.445,0,0,1,93,18.8c.036.3-.07.49-.313.562" transform="translate(-71.087 -12.955)" fill="#19538d"/>
      </g>
    </g>
  </g>
</svg>
