<svg xmlns="http://www.w3.org/2000/svg" xmlns:xlink="http://www.w3.org/1999/xlink" width="128" height="128" viewBox="0 0 128 128">
  <defs>
    <clipPath id="clip-path">
      <rect id="Rectángulo_456267" data-name="Rectángulo 456267" width="128" height="128" fill="none"/>
    </clipPath>
    <clipPath id="clip-path-2">
      <rect id="Rectángulo_467120" data-name="Rectángulo 467120" width="78.813" height="70.44" fill="#19538d"/>
    </clipPath>
  </defs>
  <g id="Grupo_1180269" data-name="Grupo 1180269" transform="translate(511.746 8527) rotate(180)">
    <path id="Trazado_999622" data-name="Trazado 999622" d="M59.07,0A59.07,59.07,0,1,1,0,59.07,59.071,59.071,0,0,1,59.07,0" transform="translate(388.676 8403.93)" fill="#fff"/>
    <g id="Grupo_1179902" data-name="Grupo 1179902" transform="translate(383.746 8399)">
      <g id="Grupo_1179905" data-name="Grupo 1179905" clip-path="url(#clip-path)">
        <path id="Trazado_999618" data-name="Trazado 999618" d="M64,0A64,64,0,1,1,0,64,64,64,0,0,1,64,0" fill="none"/>
        <path id="Trazado_999619" data-name="Trazado 999619" d="M5,59a5,5,0,1,1-5,5,5,5,0,0,1,5-5" fill="#19538d"/>
        <path id="Trazado_999620" data-name="Trazado 999620" d="M21,19a5,5,0,1,1-5,5,5,5,0,0,1,5-5" fill="#19538d"/>
        <path id="Trazado_999621" data-name="Trazado 999621" d="M64,124A60.068,60.068,0,0,1,4,64H7A57,57,0,1,0,22.408,25.024L20.22,22.972A60,60,0,1,1,64,124" fill="#19538d"/>
        <rect id="Rectángulo_456268" data-name="Rectángulo 456268" width="128" height="128" fill="none"/>
        <rect id="Rectángulo_456269" data-name="Rectángulo 456269" width="128" height="128" fill="none"/>
      </g>
    </g>
    <g id="Grupo_1180961" data-name="Grupo 1180961" transform="translate(487.152 8498.22) rotate(180)">
      <g id="Grupo_1180960" data-name="Grupo 1180960" clip-path="url(#clip-path-2)">
        <path id="Trazado_1033068" data-name="Trazado 1033068" d="M44.531,44.374,31.756,22.15c-1.107-1.926-2.611-3.283-4.663-3.453a5.614,5.614,0,0,0-5.533,2.549L3.338,52.716a5.941,5.941,0,0,0-.324,6.1,5.811,5.811,0,0,0,5.11,3.018l6.067-.006a1.092,1.092,0,0,1,1.16,1,1.124,1.124,0,0,1-1.114,1.3H7.651a7.781,7.781,0,0,1-6.63-4.153,8.156,8.156,0,0,1,.267-8.339L19.6,20.033a7.775,7.775,0,0,1,7.081-3.683A8.066,8.066,0,0,1,33.4,20.38l.046-5.225A1.137,1.137,0,0,1,34.6,13.892a1.153,1.153,0,0,1,1.145,1.268l.009,9.325L46.226,42.63a2.775,2.775,0,0,1,3.583.309L51.3,44.425a.682.682,0,0,0,.757.064.81.81,0,0,0,.333-.76l-.014-1.975A2.5,2.5,0,0,1,54.9,39.2l2.742,0A2.394,2.394,0,0,1,60.1,41.507l.006,2.227a.929.929,0,0,0,.223.643.688.688,0,0,0,.908.045l1.632-1.616a2.486,2.486,0,0,1,3.412-.1l2.1,2.087a2.574,2.574,0,0,1-.149,3.628l-1.57,1.647c-.211.221-.028.541.078.679a.929.929,0,0,0,.744.324l2.453.037c1.286.019,2.035,1.311,2.082,2.611l4.477-.115,0-51.111-9.017-.114a1.012,1.012,0,0,1-.984-.916c-.08-.4.12-1.286.771-1.284l9.053.035c1.585.006,2.489,1.638,2.489,3.161L78.8,53.06a2.877,2.877,0,0,1-2.7,2.96l-4.108.049c-.253,4.242-5.053,1.832-5.359,3.272-.121.568.841,1.3,1.264,1.665a2.735,2.735,0,0,1,.344,4.19L66.522,66.9a2.688,2.688,0,0,1-3.908-.108c-.494-.481-1.09-1.409-1.786-1.549-1.68.359.611,4.725-2.727,5.287l-3.435.041a2.355,2.355,0,0,1-2.284-2.445l-.007-2.2a.755.755,0,0,0-.406-.656c-.282-.142-.584-.011-.863.252l-1.921,1.8a2.3,2.3,0,0,1-2.441.084,13.167,13.167,0,0,1-3.222-3.24l-24.011-.019a1.164,1.164,0,0,1,.051-2.322l24.25-.013,1.945-1.919a.693.693,0,0,0,.075-.753.828.828,0,0,0-.766-.392l-2.2-.009A2.36,2.36,0,0,1,40.548,56.3l-.008-2.734A2.344,2.344,0,0,1,42.6,51.109l2.456-.039a.831.831,0,0,0,.76-.348.815.815,0,0,0-.156-.921L44.09,48.182c-1.071-1.1-.77-2.676.441-3.808M57.8,68.254l.011-2.112a3.037,3.037,0,0,1,5.149-2.373l1.71,1.651,2.117-2.17-1.376-1.439a3.2,3.2,0,0,1-.938-3.457,2.961,2.961,0,0,1,2.753-1.885l2.37-.043.034-3.079-2.409-.009A3.022,3.022,0,0,1,64.5,51.479a2.9,2.9,0,0,1,.589-3.233l1.709-1.77-2.05-2.048c-1.634.917-2.449,3.08-4.834,2.32a3.122,3.122,0,0,1-2.107-2.993L57.8,41.536,54.8,41.5l-.07,2.241a3.132,3.132,0,0,1-1.616,2.773,2.669,2.669,0,0,1-3.051-.131l-2.212-2.018-2.121,2.1,1.82,1.931a2.823,2.823,0,0,1,.317,3.4,3.077,3.077,0,0,1-2.8,1.555l-2.2.011.06,3.092,2.385.029a2.9,2.9,0,0,1,2.662,1.753,2.742,2.742,0,0,1-.378,3.068l-1.863,1.938,2.127,2.193L49.72,63.65a2.969,2.969,0,0,1,3.292-.436,3.086,3.086,0,0,1,1.707,2.671l.057,2.379a9.79,9.79,0,0,0,3.024-.011" transform="translate(0 -0.136)" fill="#19538d"/>
        <path id="Trazado_1033069" data-name="Trazado 1033069" d="M96.792,128.561l-3.145.018a2.363,2.363,0,0,1-2.357-2.359l-.009-15.456a2.472,2.472,0,0,1,2.627-2.417l2.709,0a2.37,2.37,0,0,1,2.405,2.406l-.006,15.472a2.284,2.284,0,0,1-2.224,2.332m-.06-2.389-.008-15.448H93.647v15.488Z" transform="translate(-68.802 -81.665)" fill="#19538d"/>
        <path id="Trazado_1033070" data-name="Trazado 1033070" d="M138.1,2.9l0,6.478a1.155,1.155,0,1,1-2.3,0l.015-6.42a2.876,2.876,0,0,1,3-2.96l25.822.01a1.093,1.093,0,0,1,1.1,1.112,1.136,1.136,0,0,1-1.1,1.14l-25.784.008a.819.819,0,0,0-.756.628" transform="translate(-102.362 0)" fill="#19538d"/>
        <path id="Trazado_1033071" data-name="Trazado 1033071" d="M229.29,122.665l-17.442.013a1.342,1.342,0,0,1-1.418-.914c-.124-.45.163-1.4.9-1.4l18.124-.015a1.1,1.1,0,0,1,1.152,1.036,1.194,1.194,0,0,1-1.32,1.278" transform="translate(-158.587 -90.713)" fill="#19538d"/>
        <path id="Trazado_1033072" data-name="Trazado 1033072" d="M96.74,208.189l-3.052.005a2.388,2.388,0,0,1-2.4-2.383l-.006-2.952a2.284,2.284,0,0,1,1.936-2.331l3.88-.006a2.123,2.123,0,0,1,1.876,1.915l.041,3.38a2.319,2.319,0,0,1-2.276,2.372m-.035-2.37-.044-3.007-2.995,0-.005,3.023Z" transform="translate(-68.802 -151.14)" fill="#19538d"/>
        <path id="Trazado_1033073" data-name="Trazado 1033073" d="M229.263,84.391H211.789c-.753,0-1.291-.307-1.377-1a1.187,1.187,0,0,1,1.138-1.309H229.5a1.118,1.118,0,0,1,1.1,1.1c.021.8-.483,1.209-1.339,1.209" transform="translate(-158.59 -61.867)" fill="#19538d"/>
        <path id="Trazado_1033074" data-name="Trazado 1033074" d="M229.595,46.181l-18.041.025a1.141,1.141,0,0,1-1.147-1.153c.025-.757.562-1.15,1.38-1.149l17.718.02a1.119,1.119,0,0,1,1.079.9c.109.417-.185,1.352-.988,1.353" transform="translate(-158.591 -33.092)" fill="#19538d"/>
        <path id="Trazado_1033075" data-name="Trazado 1033075" d="M170.564,76.643a1.281,1.281,0,0,1,.323,1.414,1.122,1.122,0,0,1-1.678.423l-2.068-1.951-2.067,1.952a1.142,1.142,0,0,1-1.591-.265,1.271,1.271,0,0,1,.209-1.608l1.753-1.808-1.8-1.824a1.19,1.19,0,0,1-.218-1.449c.285-.489,1.08-.856,1.56-.389l2.1,2.035,1.777-1.731a1.2,1.2,0,0,1,1.628-.273,1.14,1.14,0,0,1,.259,1.663l-1.926,2.013Z" transform="translate(-123.061 -53.457)" fill="#19538d"/>
        <path id="Trazado_1033076" data-name="Trazado 1033076" d="M165.768,41.667l-2.142-2.045a1.115,1.115,0,0,1-.1-1.57,1.1,1.1,0,0,1,1.581-.163l1.494,1.3,2.228-2.854a1.2,1.2,0,0,1,1.679-.308,1.113,1.113,0,0,1,.28,1.535L167.9,41.323a1.691,1.691,0,0,1-.93.714,1.3,1.3,0,0,1-1.206-.37" transform="translate(-123.048 -26.995)" fill="#19538d"/>
        <path id="Trazado_1033077" data-name="Trazado 1033077" d="M210.262,199.384a5.677,5.677,0,1,1-4.76,6.487,5.66,5.66,0,0,1,4.76-6.487m-.273,2.455A3.317,3.317,0,0,0,208,206.3a3.358,3.358,0,0,0,4.182,1.889,3.4,3.4,0,0,0,2.114-4.271,3.344,3.344,0,0,0-4.308-2.076" transform="translate(-154.841 -150.23)" fill="#19538d"/>
      </g>
    </g>
  </g>
</svg>
