<svg xmlns="http://www.w3.org/2000/svg" xmlns:xlink="http://www.w3.org/1999/xlink" width="150" height="150" viewBox="0 0 150 150">
  <defs>
    <clipPath id="clip-path">
      <rect id="Rectángulo_456267" data-name="Rectángulo 456267" width="150" height="150" fill="none"/>
    </clipPath>
    <clipPath id="clip-path-2">
      <rect id="Rectángulo_467124" data-name="Rectángulo 467124" width="77.627" height="69.807" fill="#19538d"/>
    </clipPath>
  </defs>
  <g id="Grupo_1180281" data-name="Grupo 1180281" transform="translate(533.746 8549) rotate(180)">
    <path id="Trazado_999622" data-name="Trazado 999622" d="M70.07,0A70.07,70.07,0,1,1,0,70.07,70.071,70.071,0,0,1,70.07,0" transform="translate(388.676 8403.93)" fill="#e1f5ff"/>
    <g id="Grupo_1179902" data-name="Grupo 1179902" transform="translate(383.746 8399)">
      <g id="Grupo_1179905" data-name="Grupo 1179905" clip-path="url(#clip-path)">
        <path id="Trazado_999618" data-name="Trazado 999618" d="M75,0A75,75,0,1,1,0,75,75,75,0,0,1,75,0" fill="none"/>
        <path id="Trazado_999619" data-name="Trazado 999619" d="M5.859,59A5.859,5.859,0,1,1,0,64.859,5.86,5.86,0,0,1,5.859,59" transform="translate(0 10.141)" fill="#19538d"/>
        <path id="Trazado_999620" data-name="Trazado 999620" d="M21.859,19A5.859,5.859,0,1,1,16,24.859,5.86,5.86,0,0,1,21.859,19" transform="translate(2.75 3.266)" fill="#19538d"/>
        <path id="Trazado_999621" data-name="Trazado 999621" d="M74.313,144.625A70.392,70.392,0,0,1,4,74.313H7.516A66.8,66.8,0,1,0,25.572,28.638l-2.564-2.4a70.312,70.312,0,1,1,51.3,118.392" transform="translate(0.688 0.688)" fill="#19538d"/>
        <rect id="Rectángulo_456268" data-name="Rectángulo 456268" width="150" height="150" fill="none"/>
        <rect id="Rectángulo_456269" data-name="Rectángulo 456269" width="150" height="150" fill="none"/>
      </g>
    </g>
    <g id="Grupo_1180969" data-name="Grupo 1180969" transform="translate(497.56 8508.903) rotate(180)">
      <g id="Grupo_1180968" data-name="Grupo 1180968" clip-path="url(#clip-path-2)">
        <path id="Trazado_1033096" data-name="Trazado 1033096" d="M73.092,69.807,4.652,69.79A4.574,4.574,0,0,1,0,65.175l0-60.6A4.509,4.509,0,0,1,4.42,0H73.2a4.506,4.506,0,0,1,4.423,4.575l0,60.593a4.613,4.613,0,0,1-4.533,4.638m-48.83-62.2a1.518,1.518,0,0,1,1.5-1.552l48.693-.018c.368-.911.235-2.608-.793-2.931L4.894,3.076A1.481,1.481,0,0,0,3.047,4.54l0,7.576,16.842-.029a4.468,4.468,0,0,0,4.377-4.482M4.8,66.706l68.178,0a1.487,1.487,0,0,0,1.613-1.541l0-56.013-47.45-.007A7.777,7.777,0,0,1,19.4,15.2l-16.38.005L3.051,65.4c0,.863.8,1.309,1.749,1.309" transform="translate(0)" fill="#19538d"/>
        <path id="Trazado_1033097" data-name="Trazado 1033097" d="M78.637,81.019C75.153,78.984,71.262,79.5,71.824,77a1.488,1.488,0,0,1,1.845-1.018,29.849,29.849,0,0,1,22.755,29.659,5.976,5.976,0,0,1-6.259,5.524,6.138,6.138,0,0,1-5.846-6.4A17.858,17.858,0,0,0,67.992,87.293l-.025,4.236a13.675,13.675,0,1,1-3.015.012l.03-4.243a17.851,17.851,0,0,0-16.329,17.466,6.147,6.147,0,0,1-5.612,6.389,5.985,5.985,0,0,1-6.489-5.509A29.838,29.838,0,0,1,59.31,75.984a1.514,1.514,0,1,1,.738,2.936,28.4,28.4,0,0,0-5.7,2.11L57.377,86.3A21.19,21.19,0,0,1,64.9,84.286a3.56,3.56,0,0,0,.093-1.364,1.51,1.51,0,1,1,2.99,0,3.72,3.72,0,0,0,.093,1.377,20.242,20.242,0,0,1,7.5,2Zm-33.086,24.3a21.1,21.1,0,0,1,9.2-17.486L51.7,82.545a26.868,26.868,0,0,0-12.169,22.207,3.061,3.061,0,0,0,2.831,3.365,2.933,2.933,0,0,0,3.19-2.8m41.9.208c.023,1.856,2.02,2.768,3.351,2.579a3.094,3.094,0,0,0,2.646-3.348A26.934,26.934,0,0,0,81.276,82.541l-3.053,5.287a21.261,21.261,0,0,1,9.232,17.693m-22.465-5.512,0-5.394a10.611,10.611,0,1,0,2.989,0l.035,5.407a5.3,5.3,0,1,1-3.028-.014m.8,2.947a2.269,2.269,0,0,0,1.393,4.319,2.283,2.283,0,0,0,1.464-2.829,2.248,2.248,0,0,0-2.857-1.49" transform="translate(-27.674 -57.508)" fill="#19538d"/>
        <path id="Trazado_1033098" data-name="Trazado 1033098" d="M154.595,72.811a1.494,1.494,0,0,1,2.025.583,1.522,1.522,0,0,1-.6,2.046,1.5,1.5,0,1,1-1.429-2.628" transform="translate(-116.49 -55.007)" fill="#19538d"/>
        <path id="Trazado_1033099" data-name="Trazado 1033099" d="M26.024,25.054a1.516,1.516,0,1,1-.884,2.032,1.517,1.517,0,0,1,.884-2.032" transform="translate(-18.948 -18.901)" fill="#19538d"/>
        <path id="Trazado_1033100" data-name="Trazado 1033100" d="M51.024,25.054a1.516,1.516,0,1,1-.884,2.032,1.516,1.516,0,0,1,.884-2.032" transform="translate(-37.882 -18.901)" fill="#19538d"/>
        <path id="Trazado_1033101" data-name="Trazado 1033101" d="M76.02,25.055a1.516,1.516,0,1,1-.881,2.028,1.5,1.5,0,0,1,.881-2.028" transform="translate(-56.813 -18.901)" fill="#19538d"/>
      </g>
    </g>
  </g>
</svg>
