<svg xmlns="http://www.w3.org/2000/svg" xmlns:xlink="http://www.w3.org/1999/xlink" width="85" height="85" viewBox="0 0 85 85">
  <defs>
    <clipPath id="clip-path">
      <rect id="Rectángulo_467126" data-name="Rectángulo 467126" width="50.207" height="59.511" fill="#12263f"/>
    </clipPath>
  </defs>
  <g id="Grupo_1180284" data-name="Grupo 1180284" transform="translate(-705.629 -410)">
    <g id="Grupo_1180019" data-name="Grupo 1180019">
      <g id="Grupo_1180023" data-name="Grupo 1180023">
        <rect id="Rectángulo_456333" data-name="Rectángulo 456333" width="85" height="85" rx="10" transform="translate(705.629 410)" fill="#68eae0"/>
        <g id="Grupo_1180973" data-name="Grupo 1180973" transform="translate(723.026 422.745)">
          <g id="Grupo_1180972" data-name="Grupo 1180972" clip-path="url(#clip-path)">
            <path id="Trazado_1033111" data-name="Trazado 1033111" d="M39.807,1.725l-36.966,0a1.063,1.063,0,0,0-1.109,1.12l.009,50.228c0,1.025,1.808,1.163,1.955.9.176-.315-.288-1.567.679-1.772.66-.14,1.086.261,1.091.956l.024,3.664a1.125,1.125,0,0,0,1.234.97l36.733,0a1.176,1.176,0,0,0,1.276-1.312l0-31.735a.866.866,0,1,1,1.729.01V56.687a2.666,2.666,0,0,1-2.618,2.8l-37.124.028a2.962,2.962,0,0,1-2.354-.978,3.939,3.939,0,0,1-.646-2.824C2.1,56.067.035,55.189.034,53.316L0,2.813A2.7,2.7,0,0,1,2.805,0L40.127.011A2.623,2.623,0,0,1,42.72,2.593l.054,1.281a2.9,2.9,0,0,1,2.529.332,2.734,2.734,0,0,1,1.152,2.3l.012,2.6a.88.88,0,0,1-.833,1c-.578.015-.911-.364-.909-.99L44.73,6.53a.644.644,0,0,0-.159-.464.761.761,0,0,0-.729-.155L15.815,17.457a2.7,2.7,0,0,1-3.361-.742L9.234,12.334a2.213,2.213,0,0,0-2.188-.606c-.57.145-1.556.71-1.557,1.6L5.454,49.241a.828.828,0,0,1-.889.926.887.887,0,0,1-.843-.938l.042-36.007a3.538,3.538,0,0,1,2.952-3.187l34.22-5.884c.239-1.377.054-2.426-1.13-2.426M14.959,15.935,37.6,6.542,10.544,11.1l3.236,4.473a1.01,1.01,0,0,0,1.178.359" transform="translate(0 0)" fill="#12263f"/>
            <path id="Trazado_1033112" data-name="Trazado 1033112" d="M115.9,92.409l-4.395,2.21a.845.845,0,0,1-.985-.123.859.859,0,0,1-.245-.935l1.842-3.725a11.594,11.594,0,0,1,1.36-2.218l22.19-22.176a1.756,1.756,0,0,1,2.385.1l1.394,1.411a1.74,1.74,0,0,1-.126,2.516L117.976,90.812a7.72,7.72,0,0,1-2.073,1.6M136.8,69.541l1.345-1.379-1.375-1.369L135.4,68.162ZM117.75,88.583,135.519,70.81a7.885,7.885,0,0,0-1.4-1.4L116.3,87.234a7.16,7.16,0,0,0,1.451,1.349m-1.344,1.339-1.425-1.4a13.619,13.619,0,0,0-1.855,3.3,10.645,10.645,0,0,0,3.28-1.9" transform="translate(-89.723 -52.929)" fill="#12263f"/>
            <path id="Trazado_1033113" data-name="Trazado 1033113" d="M141.266,237.115l-15.229.02c-.506,0-.75-.646-.716-.955a.882.882,0,0,1,.94-.778l14.716,0a.961.961,0,0,1,.938.64c.11.292-.059,1.076-.649,1.077" transform="translate(-102.016 -191.628)" fill="#12263f"/>
            <path id="Trazado_1033114" data-name="Trazado 1033114" d="M141.04,257.235H126.2a.874.874,0,0,1-.858-.715c-.088-.337.119-1,.663-1l15.052-.021a.868.868,0,1,1-.016,1.734" transform="translate(-102.018 -207.993)" fill="#12263f"/>
            <path id="Trazado_1033115" data-name="Trazado 1033115" d="M58.274,181.527l-2.76-2.737a.889.889,0,0,1-.127-1.292.879.879,0,0,1,1.263-.033l2.192,2.164,4.044-4.026a.857.857,0,0,1,1.212,1.211l-4.749,4.736a.8.8,0,0,1-1.075-.023" transform="translate(-44.905 -142.747)" fill="#12263f"/>
            <path id="Trazado_1033116" data-name="Trazado 1033116" d="M58.164,126.458l-3-3.03c-.31-.313-.074-.872.195-1.068a.87.87,0,0,1,1.179.05l2.18,2.152,4.042-4.017a.859.859,0,1,1,1.216,1.213l-4.649,4.654a.815.815,0,0,1-1.161.046" transform="translate(-44.785 -97.923)" fill="#12263f"/>
            <path id="Trazado_1033117" data-name="Trazado 1033117" d="M58.071,236.4l-2.531-2.558a.92.92,0,0,1-.257-1.091.851.851,0,0,1,1.283-.3l2.3,2.217,4.154-4.1a.859.859,0,0,1,1.212.208.881.881,0,0,1-.107,1.078l-4.539,4.566a.964.964,0,0,1-1.519-.024" transform="translate(-44.934 -187.559)" fill="#12263f"/>
            <path id="Trazado_1033118" data-name="Trazado 1033118" d="M177.959,202.113l-6.7-.014a.873.873,0,0,1-.881-.814.857.857,0,0,1,.885-.922l6.438,0a.9.9,0,0,1,.9.63.95.95,0,0,1-.638,1.118" transform="translate(-138.694 -163.108)" fill="#12263f"/>
            <path id="Trazado_1033119" data-name="Trazado 1033119" d="M131.723,126.974h-5.512a.868.868,0,0,1-.894-.795.877.877,0,0,1,.89-.941h5.519a.883.883,0,0,1,.9.809.868.868,0,0,1-.9.927" transform="translate(-102.013 -101.951)" fill="#12263f"/>
            <path id="Trazado_1033120" data-name="Trazado 1033120" d="M194.286,182.052l-2.941.042a.863.863,0,1,1,0-1.725l2.869.016a.822.822,0,0,1,.776.763.8.8,0,0,1-.705.9" transform="translate(-155.059 -146.831)" fill="#12263f"/>
            <path id="Trazado_1033121" data-name="Trazado 1033121" d="M128.012,147.021l-1.8.007a.869.869,0,1,1,0-1.737h1.8a.866.866,0,1,1,0,1.731" transform="translate(-102.019 -118.275)" fill="#12263f"/>
          </g>
        </g>
      </g>
    </g>
  </g>
</svg>
