<svg xmlns="http://www.w3.org/2000/svg" xmlns:xlink="http://www.w3.org/1999/xlink" width="500" height="348" viewBox="0 0 500 348">
  <defs>
    <clipPath id="clip-path">
      <rect id="Rectángulo_467055" data-name="Rectángulo 467055" width="437.62" height="346.546" fill="none"/>
    </clipPath>
    <clipPath id="clip-path-3">
      <rect id="Rectángulo_467045" data-name="Rectángulo 467045" width="110.827" height="10.912" fill="none"/>
    </clipPath>
    <clipPath id="clip-path-4">
      <rect id="Rectángulo_467047" data-name="Rectángulo 467047" width="7.681" height="28.417" fill="none"/>
    </clipPath>
  </defs>
  <g id="Grupo_1180879" data-name="Grupo 1180879" transform="translate(-290 -1106)">
    <rect id="Rectángulo_466443" data-name="Rectángulo 466443" width="500" height="348" transform="translate(290 1106)" fill="none"/>
    <g id="Grupo_1180878" data-name="Grupo 1180878" transform="translate(321 1107)">
      <g id="Grupo_1180877" data-name="Grupo 1180877" clip-path="url(#clip-path)">
        <g id="Grupo_1180876" data-name="Grupo 1180876">
          <g id="Grupo_1180875" data-name="Grupo 1180875" clip-path="url(#clip-path)">
            <path id="Trazado_1032130" data-name="Trazado 1032130" d="M369.266,249.371H5.857A5.857,5.857,0,0,1,0,243.515V5.857A5.857,5.857,0,0,1,5.857,0h363.41a5.856,5.856,0,0,1,5.856,5.857V243.515a5.856,5.856,0,0,1-5.856,5.856" fill="#ccc"/>
            <path id="Trazado_1032131" data-name="Trazado 1032131" d="M375.122,215.269H0V5.1A5.1,5.1,0,0,1,5.094,0H370.027a5.1,5.1,0,0,1,5.1,5.1Z" fill="#9e9e9e"/>
            <path id="Trazado_1032132" data-name="Trazado 1032132" d="M186.428,222.614h-14.92a4.263,4.263,0,1,1,0-8.525h14.92a4.263,4.263,0,0,1,0,8.525" transform="translate(9.658 12.363)" fill="#9e9e9e"/>
            <path id="Trazado_1032133" data-name="Trazado 1032133" d="M205.75,275.352v-39.6H154.682v39.6a20.273,20.273,0,0,1-20.273,20.273v17H227.32v-17h-1.3a20.273,20.273,0,0,1-20.273-20.273" transform="translate(7.762 13.615)" fill="#ccc"/>
            <path id="Trazado_1032134" data-name="Trazado 1032134" d="M204.643,241.493l-51.068,5.737V235.756h51.068Z" transform="translate(8.869 13.615)" fill="#b3b3b3"/>
            <rect id="Rectángulo_467011" data-name="Rectángulo 467011" width="346.342" height="183.801" transform="translate(13.859 13.718)" fill="#fff"/>
            <rect id="Rectángulo_467012" data-name="Rectángulo 467012" width="349.949" height="186.83" transform="translate(13.652 11.904)" fill="#dedede"/>
            <rect id="Rectángulo_467013" data-name="Rectángulo 467013" width="349.949" height="24.262" transform="translate(13.652 11.903)" fill="#fff"/>
            <path id="Trazado_1032135" data-name="Trazado 1032135" d="M302.85,28.2H24.444a2.355,2.355,0,0,1-2.357-2.357V19.85a2.357,2.357,0,0,1,2.357-2.357H302.85a2.357,2.357,0,0,1,2.357,2.357v5.991A2.355,2.355,0,0,1,302.85,28.2" transform="translate(1.275 1.01)" fill="#dedede"/>
            <path id="Trazado_1032136" data-name="Trazado 1032136" d="M310.5,22.827a5.012,5.012,0,1,1-5.012-5.012,5.011,5.011,0,0,1,5.012,5.012" transform="translate(17.352 1.029)" fill="#31bf2c"/>
            <path id="Trazado_1032137" data-name="Trazado 1032137" d="M323.635,22.827a5.011,5.011,0,1,1-5.012-5.012,5.011,5.011,0,0,1,5.012,5.012" transform="translate(18.111 1.029)" fill="#ffe454"/>
            <path id="Trazado_1032138" data-name="Trazado 1032138" d="M336.772,22.827a5.012,5.012,0,1,1-5.012-5.012,5.011,5.011,0,0,1,5.012,5.012" transform="translate(18.869 1.029)" fill="#fa2363"/>
            <rect id="Rectángulo_467014" data-name="Rectángulo 467014" width="162.301" height="131.238" transform="translate(23.362 51.803)" fill="#fff"/>
            <rect id="Rectángulo_467015" data-name="Rectángulo 467015" width="75.394" height="6.315" transform="translate(196.123 51.803)" fill="#fff"/>
            <rect id="Rectángulo_467016" data-name="Rectángulo 467016" width="75.394" height="6.315" transform="translate(196.123 64.295)" fill="#fff"/>
            <rect id="Rectángulo_467017" data-name="Rectángulo 467017" width="75.394" height="6.315" transform="translate(196.123 76.787)" fill="#fff"/>
            <rect id="Rectángulo_467018" data-name="Rectángulo 467018" width="75.394" height="6.315" transform="translate(196.123 89.28)" fill="#fff"/>
            <rect id="Rectángulo_467019" data-name="Rectángulo 467019" width="75.394" height="6.315" transform="translate(196.123 101.772)" fill="#fff"/>
            <rect id="Rectángulo_467020" data-name="Rectángulo 467020" width="75.394" height="6.315" transform="translate(196.123 114.264)" fill="#fff"/>
            <rect id="Rectángulo_467021" data-name="Rectángulo 467021" width="75.394" height="6.315" transform="translate(196.123 126.757)" fill="#fff"/>
            <rect id="Rectángulo_467022" data-name="Rectángulo 467022" width="75.394" height="6.315" transform="translate(196.123 139.249)" fill="#fff"/>
            <rect id="Rectángulo_467023" data-name="Rectángulo 467023" width="75.394" height="6.315" transform="translate(196.123 151.741)" fill="#fff"/>
            <rect id="Rectángulo_467024" data-name="Rectángulo 467024" width="75.394" height="6.315" transform="translate(196.123 164.234)" fill="#fff"/>
            <rect id="Rectángulo_467025" data-name="Rectángulo 467025" width="75.394" height="6.315" transform="translate(196.123 176.727)" fill="#fff"/>
            <rect id="Rectángulo_467026" data-name="Rectángulo 467026" width="75.394" height="6.315" transform="translate(278.112 51.803)" fill="#fff"/>
            <rect id="Rectángulo_467027" data-name="Rectángulo 467027" width="75.394" height="6.315" transform="translate(278.112 64.295)" fill="#fff"/>
            <rect id="Rectángulo_467028" data-name="Rectángulo 467028" width="75.394" height="6.315" transform="translate(278.112 76.787)" fill="#fff"/>
            <rect id="Rectángulo_467029" data-name="Rectángulo 467029" width="75.394" height="6.315" transform="translate(278.112 89.28)" fill="#fff"/>
            <rect id="Rectángulo_467030" data-name="Rectángulo 467030" width="75.394" height="6.315" transform="translate(278.112 101.772)" fill="#fff"/>
            <rect id="Rectángulo_467031" data-name="Rectángulo 467031" width="75.394" height="6.315" transform="translate(278.112 114.264)" fill="#fff"/>
            <rect id="Rectángulo_467032" data-name="Rectángulo 467032" width="75.394" height="6.315" transform="translate(278.112 126.757)" fill="#fff"/>
            <rect id="Rectángulo_467033" data-name="Rectángulo 467033" width="75.394" height="6.315" transform="translate(278.112 139.249)" fill="#fff"/>
            <rect id="Rectángulo_467034" data-name="Rectángulo 467034" width="75.394" height="6.315" transform="translate(278.112 151.741)" fill="#fff"/>
            <rect id="Rectángulo_467035" data-name="Rectángulo 467035" width="75.394" height="6.315" transform="translate(278.112 164.234)" fill="#fff"/>
            <rect id="Rectángulo_467036" data-name="Rectángulo 467036" width="75.394" height="6.315" transform="translate(278.112 176.727)" fill="#fff"/>
            <path id="Trazado_1032139" data-name="Trazado 1032139" d="M61.4,60.061H94.235a2.205,2.205,0,0,1,2.2,2.291L94.895,101.9a2.205,2.205,0,0,1-2.2,2.119H37.87a2.2,2.2,0,0,1-2.2-2.119L34.123,62.352a2.2,2.2,0,0,1,2.2-2.291H61.4Z" transform="translate(1.97 3.468)" fill="#bababa"/>
            <path id="Trazado_1032140" data-name="Trazado 1032140" d="M92.107,61.783l-.838-3.1a2.2,2.2,0,0,0-2.128-1.629H74.255a2.205,2.205,0,0,0-2.128,1.629l-.837,3.1a2.205,2.205,0,0,1-2.129,1.629H36.325a2.205,2.205,0,0,0-2.2,2.291l1.544,39.548a2.2,2.2,0,0,0,2.2,2.119H92.692a2.2,2.2,0,0,0,2.2-2.119L96.438,65.7a2.205,2.205,0,0,0-2.2-2.291,2.2,2.2,0,0,1-2.128-1.629" transform="translate(1.97 3.295)" fill="#dedede"/>
            <path id="Trazado_1032141" data-name="Trazado 1032141" d="M86.06,100.674H66.875a1.794,1.794,0,0,1-1.794-1.794V97.138a1.793,1.793,0,0,1,1.794-1.794H86.06a1.793,1.793,0,0,1,1.794,1.794V98.88a1.794,1.794,0,0,1-1.794,1.794" transform="translate(3.758 5.506)" fill="#fff"/>
            <path id="Trazado_1032142" data-name="Trazado 1032142" d="M61.4,118.745H94.235a2.205,2.205,0,0,1,2.2,2.291l-1.543,39.548a2.205,2.205,0,0,1-2.2,2.119H37.87a2.2,2.2,0,0,1-2.2-2.119l-1.543-39.548a2.2,2.2,0,0,1,2.2-2.291H61.4Z" transform="translate(1.97 6.857)" fill="#bababa"/>
            <path id="Trazado_1032143" data-name="Trazado 1032143" d="M92.107,120.467l-.838-3.1a2.2,2.2,0,0,0-2.128-1.629H74.255a2.205,2.205,0,0,0-2.128,1.629l-.837,3.1a2.205,2.205,0,0,1-2.129,1.629H36.325a2.205,2.205,0,0,0-2.2,2.291l1.544,39.548a2.2,2.2,0,0,0,2.2,2.119H92.692a2.2,2.2,0,0,0,2.2-2.119l1.544-39.548a2.205,2.205,0,0,0-2.2-2.291,2.2,2.2,0,0,1-2.128-1.629" transform="translate(1.97 6.684)" fill="#dedede"/>
            <path id="Trazado_1032144" data-name="Trazado 1032144" d="M86.06,159.359H66.875a1.793,1.793,0,0,1-1.794-1.794v-1.742a1.793,1.793,0,0,1,1.794-1.794H86.06a1.793,1.793,0,0,1,1.794,1.794v1.742a1.793,1.793,0,0,1-1.794,1.794" transform="translate(3.758 8.895)" fill="#fff"/>
            <path id="Trazado_1032145" data-name="Trazado 1032145" d="M131.854,60.061H164.69a2.205,2.205,0,0,1,2.2,2.291L165.35,101.9a2.205,2.205,0,0,1-2.2,2.119H108.325a2.2,2.2,0,0,1-2.2-2.119l-1.543-39.548a2.2,2.2,0,0,1,2.2-2.291Z" transform="translate(6.039 3.468)" fill="#bababa"/>
            <path id="Trazado_1032146" data-name="Trazado 1032146" d="M162.563,61.783l-.838-3.1a2.2,2.2,0,0,0-2.128-1.629H144.711a2.205,2.205,0,0,0-2.128,1.629l-.837,3.1a2.205,2.205,0,0,1-2.129,1.629H106.781a2.205,2.205,0,0,0-2.2,2.291l1.544,39.548a2.2,2.2,0,0,0,2.2,2.119h54.821a2.2,2.2,0,0,0,2.2-2.119L166.894,65.7a2.205,2.205,0,0,0-2.2-2.291,2.2,2.2,0,0,1-2.128-1.629" transform="translate(6.039 3.295)" fill="#dedede"/>
            <path id="Trazado_1032147" data-name="Trazado 1032147" d="M156.516,100.674H137.331a1.794,1.794,0,0,1-1.794-1.794V97.138a1.793,1.793,0,0,1,1.794-1.794h19.185a1.793,1.793,0,0,1,1.794,1.794V98.88a1.794,1.794,0,0,1-1.794,1.794" transform="translate(7.827 5.506)" fill="#fff"/>
            <path id="Trazado_1032148" data-name="Trazado 1032148" d="M131.854,118.745H164.69a2.205,2.205,0,0,1,2.2,2.291l-1.543,39.548a2.205,2.205,0,0,1-2.2,2.119H108.325a2.2,2.2,0,0,1-2.2-2.119l-1.543-39.548a2.2,2.2,0,0,1,2.2-2.291Z" transform="translate(6.039 6.857)" fill="#bababa"/>
            <path id="Trazado_1032149" data-name="Trazado 1032149" d="M162.563,120.467l-.838-3.1a2.2,2.2,0,0,0-2.128-1.629H144.711a2.205,2.205,0,0,0-2.128,1.629l-.837,3.1a2.205,2.205,0,0,1-2.129,1.629H106.781a2.205,2.205,0,0,0-2.2,2.291l1.544,39.548a2.2,2.2,0,0,0,2.2,2.119h54.821a2.2,2.2,0,0,0,2.2-2.119l1.544-39.548a2.205,2.205,0,0,0-2.2-2.291,2.2,2.2,0,0,1-2.128-1.629" transform="translate(6.039 6.684)" fill="#dedede"/>
            <path id="Trazado_1032150" data-name="Trazado 1032150" d="M156.516,159.359H137.331a1.794,1.794,0,0,1-1.794-1.794v-1.742a1.794,1.794,0,0,1,1.794-1.794h19.185a1.794,1.794,0,0,1,1.794,1.794v1.742a1.794,1.794,0,0,1-1.794,1.794" transform="translate(7.827 8.895)" fill="#fff"/>
            <rect id="Rectángulo_467037" data-name="Rectángulo 467037" width="110.827" height="252.582" transform="translate(201.663 73.714)" fill="#275996"/>
            <rect id="Rectángulo_467038" data-name="Rectángulo 467038" width="93.311" height="232.11" transform="translate(210.253 83.106)" fill="#1c306b"/>
            <rect id="Rectángulo_467039" data-name="Rectángulo 467039" width="88.439" height="52.808" transform="translate(212.856 144.426)" fill="#275996"/>
            <rect id="Rectángulo_467040" data-name="Rectángulo 467040" width="88.439" height="52.808" transform="translate(212.856 202.208)" fill="#275996"/>
            <rect id="Rectángulo_467041" data-name="Rectángulo 467041" width="88.439" height="52.808" transform="translate(212.856 257.042)" fill="#275996"/>
            <rect id="Rectángulo_467042" data-name="Rectángulo 467042" width="22.734" height="4.972" transform="translate(245.709 209.786)" fill="#1c306b"/>
            <rect id="Rectángulo_467043" data-name="Rectángulo 467043" width="88.439" height="52.808" transform="translate(212.856 85.607)" fill="#275996"/>
            <rect id="Rectángulo_467044" data-name="Rectángulo 467044" width="22.734" height="1.631" transform="translate(245.709 93.658)" fill="#1c306b"/>
            <path id="Trazado_1032151" data-name="Trazado 1032151" d="M202.08,136.541l-12.468,12.077H302.641l-12.468-12.077Z" transform="translate(10.95 7.885)" fill="#123466"/>
            <g id="Grupo_1180871" data-name="Grupo 1180871" transform="translate(201.663 223.994)" opacity="0.6" style="mix-blend-mode: multiply;isolation: isolate">
              <g id="Grupo_1180870" data-name="Grupo 1180870">
                <g id="Grupo_1180869" data-name="Grupo 1180869" clip-path="url(#clip-path-3)">
                  <path id="Trazado_1032152" data-name="Trazado 1032152" d="M190.653,211.765H301.48L190.653,222.677Z" transform="translate(-190.653 -211.765)" fill="#1c306b"/>
                </g>
              </g>
            </g>
            <path id="Trazado_1032153" data-name="Trazado 1032153" d="M240.142,133.226h44.51a2.988,2.988,0,0,1,2.986,3.106l-2.092,53.609a2.989,2.989,0,0,1-2.986,2.872H208.246a2.989,2.989,0,0,1-2.986-2.872l-2.092-53.609a2.988,2.988,0,0,1,2.986-3.106Z" transform="translate(11.733 7.694)" fill="#f2660a"/>
            <path id="Trazado_1032154" data-name="Trazado 1032154" d="M281.766,135.56l-1.135-4.2a2.989,2.989,0,0,0-2.886-2.209H257.568a2.988,2.988,0,0,0-2.884,2.209l-1.135,4.2a2.99,2.99,0,0,1-2.886,2.209h-44.51a2.988,2.988,0,0,0-2.986,3.1l2.092,53.61a2.99,2.99,0,0,0,2.987,2.872h74.312a2.988,2.988,0,0,0,2.986-2.872l2.093-53.61a2.989,2.989,0,0,0-2.987-3.1,2.989,2.989,0,0,1-2.884-2.209" transform="translate(11.732 7.458)" fill="#ffb330"/>
            <path id="Trazado_1032155" data-name="Trazado 1032155" d="M274.208,188.278H246.926a1.794,1.794,0,0,1-1.794-1.794v-3.638a1.8,1.8,0,0,1,1.794-1.794h27.282A1.794,1.794,0,0,1,276,182.847v3.638a1.794,1.794,0,0,1-1.794,1.794" transform="translate(14.156 10.456)" fill="#fff"/>
            <line id="Línea_3305" data-name="Línea 3305" x2="16.743" transform="translate(270.946 141.588)" fill="none" stroke="#123466" stroke-miterlimit="10" stroke-width="1"/>
            <path id="Trazado_1032156" data-name="Trazado 1032156" d="M235.988,138.769h46.364A3.113,3.113,0,0,1,285.463,142l-2.18,55.843a3.112,3.112,0,0,1-3.111,2.991H202.764a3.113,3.113,0,0,1-3.111-2.991L197.473,142a3.113,3.113,0,0,1,3.111-3.235Z" transform="translate(11.404 8.014)" fill="#f2660a"/>
            <path id="Trazado_1032157" data-name="Trazado 1032157" d="M279.348,141.2l-1.183-4.373a3.112,3.112,0,0,0-3.005-2.3H254.142a3.112,3.112,0,0,0-3.005,2.3l-1.183,4.373a3.114,3.114,0,0,1-3.005,2.3H200.584a3.112,3.112,0,0,0-3.11,3.235l2.179,55.843a3.114,3.114,0,0,0,3.111,2.991h77.409a3.113,3.113,0,0,0,3.111-2.991l2.18-55.843a3.113,3.113,0,0,0-3.111-3.235,3.114,3.114,0,0,1-3.005-2.3" transform="translate(11.404 7.769)" fill="#ffb330"/>
            <path id="Trazado_1032158" data-name="Trazado 1032158" d="M271.55,196.115H242.981a1.794,1.794,0,0,1-1.794-1.794v-3.938a1.794,1.794,0,0,1,1.794-1.794H271.55a1.794,1.794,0,0,1,1.794,1.794v3.938a1.793,1.793,0,0,1-1.794,1.794" transform="translate(13.928 10.891)" fill="#fff"/>
            <rect id="Rectángulo_467046" data-name="Rectángulo 467046" width="113.028" height="67.491" transform="translate(200.562 156.503)" fill="#275996"/>
            <line id="Línea_3306" data-name="Línea 3306" x2="16.743" transform="translate(267.706 147.059)" fill="none" stroke="#123466" stroke-miterlimit="10" stroke-width="1"/>
            <g id="Grupo_1180874" data-name="Grupo 1180874" transform="translate(233.126 297.879)" style="mix-blend-mode: multiply;isolation: isolate">
              <g id="Grupo_1180873" data-name="Grupo 1180873">
                <g id="Grupo_1180872" data-name="Grupo 1180872" clip-path="url(#clip-path-4)">
                  <path id="Trazado_1032159" data-name="Trazado 1032159" d="M220.737,310.033l-.338-28.417,7.681,28.417Z" transform="translate(-220.398 -281.616)" fill="#1c306b"/>
                </g>
              </g>
            </g>
            <path id="Trazado_1032160" data-name="Trazado 1032160" d="M249.666,273.451l36.228-7.96a2.491,2.491,0,0,1,2.986,1.993l7.883,44.008a2.491,2.491,0,0,1-1.917,2.872l-60.484,13.29a2.492,2.492,0,0,1-2.945-1.8l-11.29-43.259A2.492,2.492,0,0,1,222,279.529l27.663-6.078" transform="translate(12.707 15.328)" fill="#f2660a"/>
            <path id="Trazado_1032161" data-name="Trazado 1032161" d="M283.879,267.84l-1.674-3.213a2.491,2.491,0,0,0-2.743-1.282l-16.424,3.609a2.488,2.488,0,0,0-1.953,2.313l-.173,3.62a2.491,2.491,0,0,1-1.954,2.313l-36.227,7.961a2.489,2.489,0,0,0-1.875,3.061l11.29,43.259a2.489,2.489,0,0,0,2.944,1.8l60.484-13.29a2.49,2.49,0,0,0,1.918-2.872l-7.884-44.008a2.49,2.49,0,0,0-2.986-1.993,2.491,2.491,0,0,1-2.743-1.282" transform="translate(12.749 15.204)" fill="#ffb330"/>
            <path id="Trazado_1032162" data-name="Trazado 1032162" d="M286.955,311.714l-21.621,4.75A1.793,1.793,0,0,1,263.2,315.1l-.522-2.377a1.794,1.794,0,0,1,1.367-2.137l21.621-4.75A1.794,1.794,0,0,1,287.8,307.2l.523,2.377a1.8,1.8,0,0,1-1.368,2.137" transform="translate(15.167 17.659)" fill="#fff"/>
            <line id="Línea_3307" data-name="Línea 3307" y1="3.669" x2="16.336" transform="translate(275.963 281.611)" fill="none" stroke="#123466" stroke-miterlimit="10" stroke-width="1"/>
            <rect id="Rectángulo_467048" data-name="Rectángulo 467048" width="22.734" height="1.631" transform="translate(245.709 167.315)" fill="#1c306b"/>
            <rect id="Rectángulo_467049" data-name="Rectángulo 467049" width="22.734" height="1.631" transform="translate(245.709 266.653)" fill="#1c306b"/>
            <path id="Trazado_1032163" data-name="Trazado 1032163" d="M377.837,72.96s4,13.515,12.283,16.081c9.771,3.029,5.316,16.786-1.219,16.936,0,0,11.158,13.407-6.194,17.014C368.237,126,360.285,86.3,360.285,86.3Z" transform="translate(20.806 4.213)" fill="#1c306b"/>
            <path id="Trazado_1032164" data-name="Trazado 1032164" d="M342.5,76s4.183,11.451-.1,16.475,1.643,11.877,5.956,9.39c0,0-3.216,10.667,7.594,7.527s3.254-31.648,3.254-31.648Z" transform="translate(19.688 4.389)" fill="#1c306b"/>
            <path id="Trazado_1032165" data-name="Trazado 1032165" d="M326.927,295.893,301.6,314.548l30.309.262,4.566-4.845,2.251,4.875,7.865.036-3.4-20.44Z" transform="translate(17.417 17.003)" fill="#fa2363"/>
            <path id="Trazado_1032166" data-name="Trazado 1032166" d="M313.342,305.275l1.1,5.89,20.229.09-2.762,2.931-30.308-.262Z" transform="translate(17.417 17.629)" fill="#9c1b41"/>
            <path id="Trazado_1032167" data-name="Trazado 1032167" d="M335.469,311.057l8.7.039.471,2.821-7.866-.035Z" transform="translate(19.373 17.963)" fill="#9c1b41"/>
            <path id="Trazado_1032168" data-name="Trazado 1032168" d="M338.457,295.973s-6.521,7.78-18.869,4.6l8.774-6.8Z" transform="translate(18.456 16.965)" fill="#ffba82"/>
            <path id="Trazado_1032169" data-name="Trazado 1032169" d="M332.673,167.791l-40.741,3.521-2.019-23.384,31.99-2.763,22.524-35.75,16.876,16.31Z" transform="translate(16.742 6.319)" fill="#fa2363"/>
            <path id="Trazado_1032170" data-name="Trazado 1032170" d="M373.617,170.362s9.46,29.819-4.186,36.445c-14.814,7.194-24.528,39.3-24.528,39.3s-2.631,27.341-2.37,35.945c.217,7.172-.257,16.962-.5,19.551-.191,2.049-16.176,2.361-16.264,1.455-.489-5.055-1.414-21.162-1.8-24.784-1.639-15.491-3.577-28.6-1.361-41.323,2.258-12.973,13.785-59.276,13.785-59.276Z" transform="translate(18.573 9.838)" fill="#123466"/>
            <path id="Trazado_1032171" data-name="Trazado 1032171" d="M388.922,288.078l-10.887,29.509,25.456-16.451,1.149-6.558,4.562,2.834,6.589-4.3-14.085-15.2Z" transform="translate(21.831 16.049)" fill="#fa2363"/>
            <path id="Trazado_1032172" data-name="Trazado 1032172" d="M383.081,302.858l4.16,4.311,16.944-11.05-.695,3.965-25.456,16.451Z" transform="translate(21.831 17.1)" fill="#9c1b41"/>
            <path id="Trazado_1032173" data-name="Trazado 1032173" d="M405,295.054l7.288-4.752,1.944,2.1-6.589,4.3Z" transform="translate(23.388 16.764)" fill="#9c1b41"/>
            <path id="Trazado_1032174" data-name="Trazado 1032174" d="M379.933,170.9s12.656,25.842,2.835,37.4c-6.077,7.153-3.791,26.646-3.791,26.646s21.744,45.812,27.3,51.829l-15.754,8.813c-3.545-3.83-15.173-20.389-17.447-23.236s-15.008-21.9-18.161-29.606c-6.868-16.795-13.028-64.809-13.028-64.809Z" transform="translate(19.743 9.869)" fill="#275996"/>
            <path id="Trazado_1032175" data-name="Trazado 1032175" d="M355.912,100.952l23.585,6.113c12.456,4.211,16.632,12.632,14.929,19.59l-11.337,39.195,2.29,23.241-50.25-5.52,3.941-32.808c-9.035-17.7,2.844-40.768,8.771-47.143,0,0,5.007-1.821,6.218-2.235,1.416-.482,1.259-.557,1.853-.432" transform="translate(19.353 5.827)" fill="#fff"/>
            <path id="Trazado_1032176" data-name="Trazado 1032176" d="M373.777,85.5l.455,19.51c-.207,2.1-5.627,7.149-11.28,8.07a4.911,4.911,0,0,1-5.589-5.708l2.58-14.854Z" transform="translate(20.633 4.938)" fill="#ffba82"/>
            <path id="Trazado_1032177" data-name="Trazado 1032177" d="M357.927,103.58l1.171-6.693,12.133-5.21-.5,2.684s-1.8,4.433-12.808,9.22" transform="translate(20.67 5.294)" fill="#ed944c"/>
            <path id="Trazado_1032178" data-name="Trazado 1032178" d="M374.852,105.732l-17.564,95.141,30.764-.809-3.673-40.916L394.405,113.8s-4.4-4.146-19.554-8.067" transform="translate(20.633 6.106)" fill="#fa2363"/>
            <path id="Trazado_1032179" data-name="Trazado 1032179" d="M355.8,100.9a20.255,20.255,0,0,0-17.366,14.466c-4.913,16.114.094,42.677.094,42.677l-9.115,37.188,3.029.37,3.019-12.03s11.151-32.409,6.077-44.693C336.854,127.543,355.8,100.9,355.8,100.9" transform="translate(19.023 5.827)" fill="#fa2363"/>
            <path id="Trazado_1032180" data-name="Trazado 1032180" d="M374.822,106.28l-.788-4.838L359.65,111.583l2.2,6.156Z" transform="translate(20.769 5.858)" fill="#fa2363"/>
            <path id="Trazado_1032181" data-name="Trazado 1032181" d="M358.665,99.877l-.378,2.049,1.62,9.747-4.743,3.75.15-14.258Z" transform="translate(20.51 5.768)" fill="#fa2363"/>
            <path id="Trazado_1032182" data-name="Trazado 1032182" d="M373.92,95.65l-12.74,5.881a7.837,7.837,0,0,1-7.552-.294,7.756,7.756,0,0,1-3.377-4.827l-5.33-15.767,22.32-9.027Z" transform="translate(19.919 4.136)" fill="#ffba82"/>
            <path id="Trazado_1032183" data-name="Trazado 1032183" d="M344.15,76.9c-.194,1.148,20.584,10.877,24.06,7.377,6.816-6.864,6.463,8.329,6.463,8.329s15.581-24.658-9.894-28.631c-9.818-1.532-19.011,3.347-20.628,12.926" transform="translate(19.874 3.678)" fill="#1c306b"/>
            <path id="Trazado_1032184" data-name="Trazado 1032184" d="M350.82,85.907a.736.736,0,1,1-.987-.329.736.736,0,0,1,.987.329" transform="translate(20.179 4.937)" fill="#123466"/>
            <path id="Trazado_1032185" data-name="Trazado 1032185" d="M353.833,93.035a6.377,6.377,0,0,0,1.706-2.723.171.171,0,0,0-.106-.216.168.168,0,0,0-.215.106c-1.421,4.091-4.608,3.715-4.743,3.7a.17.17,0,0,0-.045.336,4.6,4.6,0,0,0,3.4-1.2" transform="translate(20.228 5.202)" fill="#123466"/>
            <path id="Trazado_1032186" data-name="Trazado 1032186" d="M346.652,84.834,346,89.867a1.316,1.316,0,0,0,.957,1.44l2.078.57Z" transform="translate(19.98 4.899)" fill="#ffba82"/>
            <path id="Trazado_1032187" data-name="Trazado 1032187" d="M400.566,282.468s-3.715,13.248-15.41,14.438l2.864-7.763Z" transform="translate(22.242 16.312)" fill="#ffba82"/>
            <path id="Trazado_1032188" data-name="Trazado 1032188" d="M300.168,168.494l-2.152-23.374-.337.031,2.152,23.374Z" transform="translate(17.19 8.38)" fill="#123466"/>
            <path id="Trazado_1032189" data-name="Trazado 1032189" d="M300.948,131.285l36.007-7.912a2.476,2.476,0,0,1,2.968,1.981l7.835,43.74a2.473,2.473,0,0,1-1.9,2.854l-60.115,13.209a2.475,2.475,0,0,1-2.927-1.793l-11.222-43a2.476,2.476,0,0,1,1.863-3.043c1.093-.239,26.4-5.8,27.5-6.041" transform="translate(15.679 7.121)" fill="#f2660a"/>
            <path id="Trazado_1032190" data-name="Trazado 1032190" d="M286.107,132.6l4.439,3.207a2.45,2.45,0,0,0,1.157.535c1.307.231,4.016.574,3.742-.587-.36-1.526-5.448-5.683-5.448-5.683" transform="translate(16.522 7.512)" fill="#ffba82"/>
            <path id="Trazado_1032191" data-name="Trazado 1032191" d="M282.865,134.006l4.438,3.207a2.457,2.457,0,0,0,1.159.535c1.306.231,4.015.575,3.741-.587-.36-1.526-5.448-5.682-5.448-5.682" transform="translate(16.335 7.593)" fill="#ffba82"/>
            <path id="Trazado_1032192" data-name="Trazado 1032192" d="M279.623,135.41l4.439,3.207a2.45,2.45,0,0,0,1.157.535c1.307.231,4.016.574,3.742-.587-.36-1.526-5.448-5.682-5.448-5.682" transform="translate(16.148 7.674)" fill="#ffba82"/>
            <path id="Trazado_1032193" data-name="Trazado 1032193" d="M280.684,135.323s4.629,3.414,4.988,4.941c.274,1.162-2.434.818-3.741.588a2.45,2.45,0,0,1-1.158-.536l-2.484-1.794a2.548,2.548,0,0,1-.593-3.616c1.446-2.018,5.949-3.568,9.8-5.006,6.279-2.348,10,1.744,10,1.744l-4.364.964Z" transform="translate(16.007 7.459)" fill="#ffba82"/>
            <rect id="Rectángulo_467050" data-name="Rectángulo 467050" width="64.222" height="41.398" transform="translate(291.598 151.715) rotate(-12.392)" fill="#fff"/>
            <path id="Trazado_1032194" data-name="Trazado 1032194" d="M332.619,132.781l-1.665-3.194a2.475,2.475,0,0,0-2.726-1.274L311.905,131.9a2.474,2.474,0,0,0-1.941,2.3l-.172,3.6a2.477,2.477,0,0,1-1.941,2.3l-36.008,7.911a2.476,2.476,0,0,0-1.864,3.043l13.689,35.514a2.475,2.475,0,0,0,2.927,1.793l60.116-13.209a2.475,2.475,0,0,0,1.9-2.854l-10.3-36.259a2.475,2.475,0,0,0-2.968-1.981,2.475,2.475,0,0,1-2.726-1.274" transform="translate(15.586 7.407)" fill="#ffb330"/>
            <path id="Trazado_1032195" data-name="Trazado 1032195" d="M338,169.318l-21.468,4.718a1.8,1.8,0,0,1-2.138-1.368l-.514-2.341a1.794,1.794,0,0,1,1.368-2.137l21.468-4.718a1.794,1.794,0,0,1,2.137,1.368l.514,2.341A1.793,1.793,0,0,1,338,169.318" transform="translate(18.124 9.438)" fill="#fff"/>
            <path id="Trazado_1032196" data-name="Trazado 1032196" d="M334.759,170.31l-12.411.175a2.265,2.265,0,0,0-1.011.235c-.861.446-2.544,1.436-1.531,1.886,1.333.591,14.8.6,14.8.6" transform="translate(18.45 9.835)" fill="#ffba82"/>
            <path id="Trazado_1032197" data-name="Trazado 1032197" d="M338.107,160.6l-2.841,1.7a5.583,5.583,0,0,1-1.727.66l-10.594,1.668s-2.671,1.271-1.366,2.117,13.181.755,13.181.755l-14.337.2a1.875,1.875,0,0,0-.817.185c-.913.461-3.12,1.689-1.9,2.231,1.519.674,16.875.685,16.875.685" transform="translate(18.326 9.275)" fill="#ffba82"/>
            <path id="Trazado_1032198" data-name="Trazado 1032198" d="M322.835,174.473a5.407,5.407,0,0,1,2.212-.914l8.406.051.465-6.518,3.887-6.465,6.693-.456s7.915,5.405-.155,13.345a4.532,4.532,0,0,1-2.253,1.13l-7.762,1.643a2.973,2.973,0,0,1-.5,0c-1.679-.135-10.41-.3-11.018-.567-.347-.153-.307-.932.019-1.25" transform="translate(18.628 9.25)" fill="#ffba82"/>
            <path id="Trazado_1032199" data-name="Trazado 1032199" d="M334.985,163.2l.89-2.049c.347-.949-.808-1.54-1.776-2.373l-3.42-2.338c-.438-.3-.393-.8.093-.94a6.144,6.144,0,0,1,5.145.464l9.029,4.675Z" transform="translate(19.079 8.959)" fill="#ffba82"/>
            <path id="Trazado_1032200" data-name="Trazado 1032200" d="M386.09,183.322l-44.708-1.113,1.691-23.41,28.564,1.6,4.063-13.218,19.623-33.827,2.1,1.973A22.321,22.321,0,0,1,404.389,135a50.443,50.443,0,0,1-3.72,11.942Z" transform="translate(19.714 6.546)" fill="#fa2363"/>
            <path id="Trazado_1032201" data-name="Trazado 1032201" d="M366.735,84.634s-23.057,2.672-25.342-7.662,15.185-11.848,25.342,7.662" transform="translate(19.703 4.013)" fill="#1c306b"/>
            <line id="Línea_3308" data-name="Línea 3308" y1="3.834" x2="16.299" transform="translate(328.179 139.066)" fill="none" stroke="#123466" stroke-miterlimit="10" stroke-width="1"/>
            <path id="Trazado_1032202" data-name="Trazado 1032202" d="M374.2,81.976a4.677,4.677,0,1,1-6.275-2.093,4.676,4.676,0,0,1,6.275,2.093" transform="translate(21.098 4.585)" fill="#ffba82"/>
            <rect id="Rectángulo_467051" data-name="Rectángulo 467051" width="3.265" height="0.34" transform="matrix(0.317, -0.949, 0.949, 0.317, 390.436, 90.146)" fill="#123466"/>
            <rect id="Rectángulo_467052" data-name="Rectángulo 467052" width="0.34" height="3.265" transform="translate(389.512 88.293) rotate(-71.453)" fill="#123466"/>
            <path id="Trazado_1032203" data-name="Trazado 1032203" d="M369.351,87.722a2.036,2.036,0,1,0,2.036-2.036,2.036,2.036,0,0,0-2.036,2.036" transform="translate(21.329 4.948)" fill="#fff"/>
            <rect id="Rectángulo_467053" data-name="Rectángulo 467053" width="25.046" height="8.816" transform="translate(360.563 189.279) rotate(-86.168)" fill="#9c1b41"/>
            <path id="Trazado_1032204" data-name="Trazado 1032204" d="M347.891,159.233a1.525,1.525,0,1,1-1.51-1.541,1.526,1.526,0,0,1,1.51,1.541" transform="translate(19.914 9.106)" fill="#fff"/>
            <path id="Trazado_1032205" data-name="Trazado 1032205" d="M109.6,278.273s15.362-3.851,35.387,0c0,0-17.374,6.342-35.387,0" transform="translate(6.329 15.971)" fill="#fa2363"/>
            <path id="Trazado_1032206" data-name="Trazado 1032206" d="M112.822,279.236c11.735,3.162,22.735,1.372,28.263.019a93.846,93.846,0,0,0-28.263-.019" transform="translate(6.515 16.065)" fill="#7a141d"/>
            <path id="Trazado_1032207" data-name="Trazado 1032207" d="M126.7,291.739l-1.262-.267a33.514,33.514,0,0,1,29.514-26.552l.131,1.283A32.221,32.221,0,0,0,126.7,291.739" transform="translate(7.244 15.299)" fill="#31bf2c"/>
            <path id="Trazado_1032208" data-name="Trazado 1032208" d="M119.652,294.861l-1.065-.728a32.217,32.217,0,0,0-1.162-38.16l1.018-.793a33.51,33.51,0,0,1,1.21,39.681" transform="translate(6.781 14.736)" fill="#31bf2c"/>
            <path id="Trazado_1032209" data-name="Trazado 1032209" d="M123.387,301.769a118.95,118.95,0,0,1,7.87-46.635,116.132,116.132,0,0,1,7.4-15.529l1.12.638a114.981,114.981,0,0,0-7.313,15.357,117.651,117.651,0,0,0-7.783,46.133Z" transform="translate(7.122 13.837)" fill="#31bf2c"/>
            <path id="Trazado_1032210" data-name="Trazado 1032210" d="M114.34,307.022a118.947,118.947,0,0,1,22.5-41.6,116.159,116.159,0,0,1,12.011-12.312l.855.965a115.021,115.021,0,0,0-11.877,12.177,117.67,117.67,0,0,0-22.254,41.154Z" transform="translate(6.603 14.617)" fill="#31bf2c"/>
            <path id="Trazado_1032211" data-name="Trazado 1032211" d="M131.483,256.328s-6.367-14.115-2.241-15.237,3.156,6.845,4.187,3.715-1.047-14.07,1.97-14.114,2,6.454,3.188,5.547.845-10.526,6-12.78,2.245,6.852-2.269,14.119,3.981-5.214,6.879-4.134-3.083,9.993-8.669,13.366,6.34-2.379,5.752.684-7.435,9.321-14.793,8.833" transform="translate(7.383 12.884)" fill="#31bf2c"/>
            <path id="Trazado_1032212" data-name="Trazado 1032212" d="M121.733,260.8s-10.751-.514-10.143-3.424,5.235.207,3.622-1.418-9.044-3.8-8.117-5.677,4.628.8,4.44-.223-6.251-3.846-6.02-7.749,4.952.774,8.027,5.863-1.972-4.111-.388-5.565,5.215,5.066,5.539,9.59.529-4.677,2.24-3.346,3.424,7.547.8,11.949" transform="translate(6.093 13.91)" fill="#31bf2c"/>
            <path id="Trazado_1032213" data-name="Trazado 1032213" d="M137.374,264.079s10.652,1.55,10.61-1.422-5.178-.8-3.284-2.086,9.6-2,9.053-4.019-4.7-.1-4.317-1.068,6.871-2.581,7.39-6.456-5.009-.186-9,4.221,2.721-3.659,1.444-5.388-6.086,3.975-7.27,8.354.374-4.692-1.56-3.713-4.8,6.754-3.067,11.577" transform="translate(7.902 14.287)" fill="#31bf2c"/>
            <path id="Trazado_1032214" data-name="Trazado 1032214" d="M146.313,267.327s7.228,7.975,9.088,5.658-3.486-3.91-1.206-3.7,8.677,4.574,9.541,2.663-3.557-3.066-2.649-3.572,6.942,2.384,9.809-.274-3.743-3.333-9.628-2.473,4.428-1.09,4.544-3.237-7.224-.809-10.924,1.814,3.277-3.379,1.16-3.855-8,2.15-9.736,6.975" transform="translate(8.449 15.032)" fill="#31bf2c"/>
            <path id="Trazado_1032215" data-name="Trazado 1032215" d="M134.114,298.847l1.289-.02a33.513,33.513,0,0,0-23.9-31.7l-.373,1.233a32.224,32.224,0,0,1,22.98,30.49" transform="translate(6.418 15.426)" fill="#31bf2c"/>
            <path id="Trazado_1032216" data-name="Trazado 1032216" d="M119.351,270.961s-8.619,6.448-10,3.817,4.17-3.173,1.89-3.4-9.391,2.831-9.874.79,4.079-2.329,3.283-3-7.27,1.013-9.576-2.143,4.311-2.555,9.923-.588-4.138-1.917-3.842-4.045,7.246.586,10.377,3.868-2.57-3.943-.4-4.006,7.444,3.64,8.223,8.706" transform="translate(5.463 15.109)" fill="#31bf2c"/>
            <path id="Trazado_1032217" data-name="Trazado 1032217" d="M141.039,310.169h0a70.245,70.245,0,0,1-26.331.213l-1.156-.213L109.6,278.18l.725.219a59.514,59.514,0,0,0,33.938,0l.726-.219Z" transform="translate(6.329 16.064)" fill="#fa2363"/>
            <path id="Trazado_1032218" data-name="Trazado 1032218" d="M94.257,290.188l26.258,20.355L88.5,310.037l-4.7-5.235-2.5,5.09L73,309.726l4.124-21.495Z" transform="translate(4.215 16.645)" fill="#275996"/>
            <path id="Trazado_1032219" data-name="Trazado 1032219" d="M107.652,300.406l-1.317,6.19-21.363-.428,2.84,3.167,32.012.507Z" transform="translate(4.907 17.348)" fill="#123466"/>
            <path id="Trazado_1032220" data-name="Trazado 1032220" d="M82.754,305.932l-9.189-.184L73,308.714l8.308.166Z" transform="translate(4.215 17.656)" fill="#123466"/>
            <path id="Trazado_1032221" data-name="Trazado 1032221" d="M57.786,171.567s-5.866,33.648,6.881,40.948c7.887,4.517,11.659,38.467,11.659,38.467s-5.716,47.131-6.1,49.144,29.88,1,31.1-.245c0,0,2.907-46.014,3.256-54.279a522.642,522.642,0,0,0-4.258-88.273Z" transform="translate(3.259 9.085)" fill="#9c1b41"/>
            <path id="Trazado_1032222" data-name="Trazado 1032222" d="M52.7,286.762l17.118,27.59-29.149-11.37-2.519-6.4-4.027,3.81-7.553-2.982,11.1-18.284Z" transform="translate(1.534 16.119)" fill="#275996"/>
            <path id="Trazado_1032223" data-name="Trazado 1032223" d="M61.2,300.473l-3.315,5.221-19.423-7.67,1.523,3.868,29.149,11.37Z" transform="translate(2.221 17.21)" fill="#123466"/>
            <path id="Trazado_1032224" data-name="Trazado 1032224" d="M36.456,297.33l-8.354-3.3-1.532,2.524,7.552,2.983Z" transform="translate(1.534 16.98)" fill="#123466"/>
            <path id="Trazado_1032225" data-name="Trazado 1032225" d="M53.864,164.218s-15.133,30.62-4.967,41.224C55.186,212,48.608,246,48.608,246s-16.2,43.569-17.136,45.391,25.188,8.974,26.712,8.122c0,0,20.223-46.3,22.459-54.266,8.829-31.448,14.642-76.557,14.642-76.557Z" transform="translate(1.816 9.483)" fill="#fa2363"/>
            <path id="Trazado_1032226" data-name="Trazado 1032226" d="M69.677,82.641,85.988,86.9l.026,7.479L68.955,90.146Z" transform="translate(3.982 4.772)" fill="#123466"/>
            <path id="Trazado_1032227" data-name="Trazado 1032227" d="M133.413,81.563s-.9-1.29,1.8-3.36,5.642-4.8,7.115-3.451,2.032,2.008,3.478,2.442.957,2.269,2.02,3.761.945,1.043,1.347,2.764,2.611,1.033,1.9,2.873-1.8,7.82-9.155,10.262c0,0-3.658-.745-7.18-5s-1.332-10.294-1.332-10.294" transform="translate(7.665 4.296)" fill="#ffba82"/>
            <path id="Trazado_1032228" data-name="Trazado 1032228" d="M135.708,86.282s1.4,1.6,1.9,1.431a2.363,2.363,0,0,0,.4,1.827c.617.609,1.9,1.544,2.618,1.151,0,0,.189,1.512,1.016,1.722s2.162-.264,4.537-1.544A11.125,11.125,0,0,0,149.2,88.8s-1.955,1.887-4.036,3.659-3.283,2.459-4.658,1.1-1.047-1.7-3.276-3.236-3.611-1.368-4.4-3.747a2.856,2.856,0,0,0,2.882-.293" transform="translate(7.67 4.983)" fill="#ed944c"/>
            <path id="Trazado_1032229" data-name="Trazado 1032229" d="M123.709,78.215a12.937,12.937,0,1,1,16.115-8.664,12.952,12.952,0,0,1-16.115,8.664m6.244-20.765a8.746,8.746,0,1,0,5.858,10.894,8.754,8.754,0,0,0-5.858-10.894" transform="translate(6.612 3.054)" fill="#fc3063"/>
            <path id="Trazado_1032230" data-name="Trazado 1032230" d="M137.475,90.125a2.086,2.086,0,0,1-1.275-1.076L129.77,76.1a2.1,2.1,0,0,1,3.756-1.864l6.429,12.952a2.1,2.1,0,0,1-2.48,2.938" transform="translate(7.481 4.22)" fill="#fc3063"/>
            <path id="Trazado_1032231" data-name="Trazado 1032231" d="M135.234,82.814s-2.229-2.6-3.711-2.076a2.571,2.571,0,0,0-1.975,2.9,12.827,12.827,0,0,0,2,4.068,13.982,13.982,0,0,0,4.157,4.678s-2.633-3.025-2.684-5.489c0,0,1.946.989,2.882-.293s.7-2.51-.667-3.792" transform="translate(7.478 4.658)" fill="#ffba82"/>
            <path id="Trazado_1032232" data-name="Trazado 1032232" d="M149.176,83.719c-.4-1.721-.283-1.271-1.348-2.764s-.574-3.326-2.021-3.761-2-1.1-3.477-2.441-4.41,1.38-7.117,3.45-1.8,3.36-1.8,3.36a13.737,13.737,0,0,0-.576,5.7,2.847,2.847,0,0,0,2.876-.3s1.4,1.6,1.9,1.431a2.363,2.363,0,0,0,.4,1.827c.616.609,1.9,1.544,2.617,1.152,0,0,.189,1.51,1.017,1.721s2.163-.264,4.538-1.544a15.31,15.31,0,0,0,2.684-1.744c.219-.207.343-.327.343-.327a3.241,3.241,0,0,1-.343.327c-.649.616-2.136,2.005-3.693,3.332-2.082,1.772-3.284,2.459-4.659,1.1s-1.047-1.7-3.274-3.236-3.6-1.372-4.395-3.725a8.771,8.771,0,0,0,1.9,4.576c3.522,4.251,7.18,5,7.18,5,7.357-2.441,8.448-8.423,9.155-10.262s-1.5-1.152-1.9-2.873" transform="translate(7.666 4.296)" fill="#ffba82"/>
            <path id="Trazado_1032233" data-name="Trazado 1032233" d="M111.689,138.048l36.837-39.264-17.167-16.1-22.031,23.485L92.487,93.153,82.472,115.23Z" transform="translate(4.763 4.775)" fill="#123466"/>
            <path id="Trazado_1032234" data-name="Trazado 1032234" d="M83.338,90.61,57.155,94.8c-12.613,3.843-15.177,12.247-13.681,19.272l8.744,33.048L51.13,178.643l25.1,4.069c11.248,1.824,26.259,1.325,35.124-5.833l-.259-6.409-4.292-46.352c-.058-8.729-.911-20.284-6.657-26.854a33.729,33.729,0,0,0-5.388-4.569c-1.226-.867-8.8-1.889-11.423-2.085" transform="translate(2.488 5.233)" fill="#275996"/>
            <path id="Trazado_1032235" data-name="Trazado 1032235" d="M65.016,69.916l.639,21.956c.144,2.113,5.954,2.2,11.592,3.295,3.309.642,5.722,2.922,5.246-.415L80.358,79.784Z" transform="translate(3.755 4.038)" fill="#ffba82"/>
            <path id="Trazado_1032236" data-name="Trazado 1032236" d="M81.318,87.554l-.977-6.745-12-5.591.416,2.7s1.675,4.5,12.565,9.632" transform="translate(3.946 4.344)" fill="#ed944c"/>
            <path id="Trazado_1032237" data-name="Trazado 1032237" d="M66.514,80.908l16.743,5.383A7.865,7.865,0,0,0,90.709,84.9a7.777,7.777,0,0,0,2.652-5.278l.6-20.719L70,54.131Z" transform="translate(3.841 3.126)" fill="#ffba82"/>
            <path id="Trazado_1032238" data-name="Trazado 1032238" d="M91.518,64.945,94.789,72c.488,1.05-.448,2.021-1.745,1.81l-2.664-.435Z" transform="translate(5.219 3.75)" fill="#ffba82"/>
            <path id="Trazado_1032239" data-name="Trazado 1032239" d="M88.278,67.841a.738.738,0,1,0,.931-.47.738.738,0,0,0-.931.47" transform="translate(5.096 3.888)" fill="#123466"/>
            <path id="Trazado_1032240" data-name="Trazado 1032240" d="M86.46,66.412a.516.516,0,0,0,.3-.071l2.687-1.6a.51.51,0,0,0-.525-.876l-2.687,1.6a.51.51,0,0,0,.227.948" transform="translate(4.965 3.684)" fill="#f2660a"/>
            <path id="Trazado_1032241" data-name="Trazado 1032241" d="M56.361,188.536l5.013,11.583a1.9,1.9,0,0,1,.165,1.013c-.134.942-.525,2.823-1.449,2.026-1.213-1.047-6.872-13.55-6.872-13.55" transform="translate(3.073 10.888)" fill="#ffba82"/>
            <path id="Trazado_1032242" data-name="Trazado 1032242" d="M66.2,182.6l-.7,3.185a4.571,4.571,0,0,0-.006,1.815l2.6,10.375s-.288,2.887-1.772,1.946-6.367-12-6.367-12L65.75,201.3a1.571,1.571,0,0,1,.136.818c-.128,1-.563,3.44-1.674,2.479-1.384-1.2-7.839-15.455-7.839-15.455" transform="translate(3.255 10.545)" fill="#ffba82"/>
            <path id="Trazado_1032243" data-name="Trazado 1032243" d="M57.556,201.366a4.416,4.416,0,0,0,.085-2.347l-3.584-7.791,7.029-2.52,5.533-5.681-2.3-6.362s-9.31-5.621-14.723,4.417a3.719,3.719,0,0,0-.307,2.455l1.436,7.735a2.687,2.687,0,0,0,.205.461c.854,1.515,4.7,9.574,5.251,10.051.315.274,1.161-.013,1.377-.418" transform="translate(2.842 10.112)" fill="#ffba82"/>
            <path id="Trazado_1032244" data-name="Trazado 1032244" d="M64.289,185.917l1.9-1.483c.906-.625,2.046.258,3.375.891l4.025,2.428c.515.31,1.051.109,1-.387a5.813,5.813,0,0,0-2.674-4.631l-8.969-6.888Z" transform="translate(3.635 10.155)" fill="#ffba82"/>
            <path id="Trazado_1032245" data-name="Trazado 1032245" d="M30.772,156.45l18.257,36.721,21.077-10.48L55.768,153.859l11.377-43.686a9.917,9.917,0,0,0-7.1-12.093l-3.589-.935a9.914,9.914,0,0,0-12.093,7.1Z" transform="translate(1.777 5.591)" fill="#123466"/>
            <path id="Trazado_1032246" data-name="Trazado 1032246" d="M85.332,74.87a5.972,5.972,0,0,1-1.822-2.385.16.16,0,0,1,.079-.21.159.159,0,0,1,.21.079c1.674,3.684,4.606,3.059,4.731,3.033a.158.158,0,0,1,.072.308,4.288,4.288,0,0,1-3.271-.824" transform="translate(4.822 4.173)" fill="#123466"/>
            <path id="Trazado_1032247" data-name="Trazado 1032247" d="M63.971,86.826l16.312,4.257.026,7.479L63.251,94.33Z" transform="translate(3.653 5.014)" fill="#123466"/>
            <path id="Trazado_1032248" data-name="Trazado 1032248" d="M68.886,68.256l7.352-6.418s16.639,5.714,20.047-.5,3.007-9.422,3.007-9.422S68.4,40.978,66.268,58.931s2.618,9.325,2.618,9.325" transform="translate(3.795 2.807)" fill="#f2660a"/>
            <path id="Trazado_1032249" data-name="Trazado 1032249" d="M63.492,67.014a5.094,5.094,0,1,0,6.432-3.244,5.093,5.093,0,0,0-6.432,3.244" transform="translate(3.652 3.668)" fill="#ffba82"/>
            <path id="Trazado_1032250" data-name="Trazado 1032250" d="M68.751,70.085l.306-.153-1.6-3.174-.306.152Z" transform="translate(3.878 3.855)" fill="#123466"/>
            <path id="Trazado_1032251" data-name="Trazado 1032251" d="M66.632,69.335l3.175-1.6-.155-.3-3.174,1.6Z" transform="translate(3.839 3.894)" fill="#123466"/>
          </g>
        </g>
      </g>
    </g>
  </g>
</svg>
