<svg xmlns="http://www.w3.org/2000/svg" xmlns:xlink="http://www.w3.org/1999/xlink" width="85" height="85" viewBox="0 0 85 85">
  <defs>
    <clipPath id="clip-path">
      <rect id="Rectángulo_467127" data-name="Rectángulo 467127" width="57" height="57" fill="#12263f"/>
    </clipPath>
  </defs>
  <g id="Grupo_1180286" data-name="Grupo 1180286" transform="translate(-705.629 -410)">
    <g id="Grupo_1180019" data-name="Grupo 1180019">
      <g id="Grupo_1180023" data-name="Grupo 1180023">
        <rect id="Rectángulo_456333" data-name="Rectángulo 456333" width="85" height="85" rx="10" transform="translate(705.629 410)" fill="#68eae0"/>
        <g id="Grupo_1180975" data-name="Grupo 1180975" transform="translate(719.629 423)">
          <g id="Grupo_1180974" data-name="Grupo 1180974" clip-path="url(#clip-path)">
            <path id="Trazado_1033122" data-name="Trazado 1033122" d="M35.294,51.514l9.537.007a.925.925,0,0,1,.951.951v3.81a.954.954,0,0,1-.981.964H12.438a.954.954,0,0,1-.981-.964l0-3.812a.933.933,0,0,1,.954-.948l9.532,0,0-5.728L.977,45.8A.98.98,0,0,1,0,44.8V8.619A.929.929,0,0,1,.975,7.64l21.91,0,.008-3.825-8.742.01A2.871,2.871,0,0,1,11,5.683,2.817,2.817,0,0,1,8.583,2.945,2.819,2.819,0,0,1,10.838.06a2.872,2.872,0,0,1,3.322,1.85l9.683,0a.927.927,0,0,1,.952.952l.013,4.779h7.624l.012-4.78a.931.931,0,0,1,.954-.947l9.682,0A2.867,2.867,0,0,1,46.24.031a2.815,2.815,0,0,1,2.414,2.736A2.818,2.818,0,0,1,46.4,5.653a2.857,2.857,0,0,1-3.312-1.83l-8.743-.005.008,3.825,21.911,0a.928.928,0,0,1,.974.983V44.8a.981.981,0,0,1-.977,1.005L35.3,45.8ZM11.065,2a.943.943,0,1,0,.767,1.723.95.95,0,0,0,.478-1.252A.93.93,0,0,0,11.065,2m34.409-.026a.944.944,0,1,0,.7,1.75.952.952,0,0,0,.477-1.252.922.922,0,0,0-1.181-.5M31.46,35.384a.908.908,0,0,1-.938.863h-3.8a.949.949,0,0,1-.956-.953l-.052-1.547-1.17,1.1a.9.9,0,0,1-1.223.03l-2.863-2.866a.9.9,0,0,1,.027-1.221l1.1-1.2a5.781,5.781,0,0,1-2.011-.164c-.587-.28-.546-1.113-.466-1.75l-9.725,0A2.873,2.873,0,0,1,6.066,29.5a2.861,2.861,0,0,1,.162-5.622,2.867,2.867,0,0,1,3.163,1.886l9.74-.033c-.148-.774-.087-1.5.443-1.741a6.491,6.491,0,0,1,2.008-.169l-1.1-1.193a.959.959,0,0,1-.126-1.13L22.9,18.909l-.008-9.364H1.9l.009,30.532H55.327l.009-30.532H34.341l.016,9.445L36.7,21.306a.914.914,0,0,1,.058,1.326l-1.1,1.2a6.086,6.086,0,0,1,2.013.16c.584.272.544,1.119.465,1.774l9.716,0a2.868,2.868,0,0,1,3.322-1.851,2.861,2.861,0,0,1-.16,5.622,2.853,2.853,0,0,1-3.155-1.865l-9.747.03c.146.753.084,1.475-.444,1.728a5.567,5.567,0,0,1-2.01.162l1.1,1.2a.9.9,0,0,1,.027,1.221l-2.863,2.865a.9.9,0,0,1-1.221-.029l-1.18-1.1Zm-.937-18.208a.934.934,0,0,1,.952.948l.048,1.547.9-.855.01-9.274H24.8l.011,9.265a4.953,4.953,0,0,0,.908.85l.043-1.536a.933.933,0,0,1,.954-.942ZM29.579,34.3c-.063-.651-.188-1.356.154-1.722a4.482,4.482,0,0,1,2.274-.967L33.4,32.695l1.256-1.268-1.129-1.316a3.726,3.726,0,0,1,.973-2.278c.435-.351,1.21-.118,1.721-.143l0-1.952c-.554,0-1.4.2-1.816-.245a4.571,4.571,0,0,1-.816-1.858c-.186-.727.58-1.158,1.023-1.631a5.441,5.441,0,0,0-1.362-1.334L32.016,21.8a3.7,3.7,0,0,1-2.269-.97c-.355-.436-.135-1.207-.159-1.723l-1.944,0c-.01.557.217,1.393-.225,1.812a3.715,3.715,0,0,1-2.039.848c-.612.052-1.006-.587-1.393-1.038a4.04,4.04,0,0,0-1.4,1.344l1.127,1.236a3.685,3.685,0,0,1-.965,2.264c-.439.356-1.207.152-1.724.167a5.55,5.55,0,0,0,.073,2.021c.614-.084,1.475-.21,1.793.254a4.573,4.573,0,0,1,.77,1.92c.071.674-.647,1.044-1.039,1.489a3.857,3.857,0,0,0,1.362,1.24c.371-.37.682-.979,1.253-1.014a3.233,3.233,0,0,1,2.247.917c.382.448.141,1.22.169,1.743ZM6.294,25.848a.943.943,0,1,0,.767,1.723.948.948,0,0,0,.476-1.251.93.93,0,0,0-1.243-.471m43.951-.033a.946.946,0,1,0,1.179.5.922.922,0,0,0-1.179-.5m5.036,18.078.009-1.91H1.945l0,1.91Zm-21.889,7.62,0-5.719h-9.54v5.734Zm10.451,3.829.007-1.911H13.385l0,1.911Z" transform="translate(0 0.001)" fill="#12263f"/>
            <path id="Trazado_1033123" data-name="Trazado 1033123" d="M32.438,70.488l-5.709.012a.978.978,0,0,1-.955-.972l-.007-7.614L21,61.9a.936.936,0,0,1-.945-.871A.923.923,0,0,1,21,60.01L26.718,60a.939.939,0,0,1,.95.958l.009,7.632h4.766a.919.919,0,0,1,.94.866.94.94,0,0,1-.946,1.031" transform="translate(-16.229 -48.552)" fill="#12263f"/>
            <path id="Trazado_1033124" data-name="Trazado 1033124" d="M216.794,70.52,211,70.508a.944.944,0,0,1-.948-1.033.993.993,0,0,1,1.125-.875l4.583.011.008-7.636a.94.94,0,0,1,.952-.952h5.716a.921.921,0,0,1,.942.866.936.936,0,0,1-.944,1.031l-4.763.014-.007,7.614a.99.99,0,0,1-.87.974" transform="translate(-169.97 -48.57)" fill="#12263f"/>
            <path id="Trazado_1033125" data-name="Trazado 1033125" d="M133.061,120.1a3.809,3.809,0,1,1-2.923,4.651,3.777,3.777,0,0,1,2.923-4.651m.2,1.919a1.9,1.9,0,1,0,2.389,1.228,1.884,1.884,0,0,0-2.389-1.228" transform="translate(-105.218 -97.117)" fill="#12263f"/>
          </g>
        </g>
      </g>
    </g>
  </g>
</svg>
