<svg xmlns="http://www.w3.org/2000/svg" xmlns:xlink="http://www.w3.org/1999/xlink" width="85" height="85" viewBox="0 0 85 85">
  <defs>
    <clipPath id="clip-path">
      <rect id="Rectángulo_467113" data-name="Rectángulo 467113" width="56.741" height="56.76" fill="#12263f"/>
    </clipPath>
  </defs>
  <g id="Grupo_1180328" data-name="Grupo 1180328" transform="translate(-705.629 -410)">
    <g id="Grupo_1180019" data-name="Grupo 1180019">
      <g id="Grupo_1180023" data-name="Grupo 1180023">
        <rect id="Rectángulo_456333" data-name="Rectángulo 456333" width="85" height="85" rx="10" transform="translate(705.629 410)" fill="#68eae0"/>
        <g id="Grupo_1180947" data-name="Grupo 1180947" transform="translate(719.759 424.12)">
          <g id="Grupo_1180946" data-name="Grupo 1180946" clip-path="url(#clip-path)">
            <path id="Trazado_1032988" data-name="Trazado 1032988" d="M21.02,56.761a1.7,1.7,0,0,1-1.813-2.107l1.227-4.43c.3-1.084,1.523-1.136,2.436-1.132l.714-4.693-10.613,0L8.263,52.408a4.405,4.405,0,0,1-6.105,1.246A4.541,4.541,0,0,1,.58,47.578L2.56,44.1A4.22,4.22,0,0,1,0,40.238L.034,8.724a4.061,4.061,0,0,1,4.2-3.933l7.317.006.034-2.644A2.133,2.133,0,0,1,13.854.011L42.718,0a2.189,2.189,0,0,1,2.445,2.162L45.2,4.8l7.319-.008a4.063,4.063,0,0,1,4.2,3.933l.022,31.518a4.082,4.082,0,0,1-4.078,4.131L33.208,44.4l.672,4.7c.926-.021,2.138.039,2.438,1.122l1.229,4.432a1.685,1.685,0,0,1-1.731,2.1ZM43.489,6.646l-.043-4.973-30.142,0-.035,4.982ZM3.373,38.358,3.344,9.426A1.225,1.225,0,0,1,4.613,8.117l6.919,0a4.872,4.872,0,0,0,0-1.7l-7.277.01A2.533,2.533,0,0,0,1.663,8.906l.01,31.462a2.3,2.3,0,0,0,1.792,2.2L5.2,39.391c-.729.113-1.83-.1-1.831-1.033M16.38,35.266l-1.343,2.488,20.593.007a.784.784,0,0,1,.732.969.863.863,0,0,1-.909.69l-19.944,0a4.511,4.511,0,0,1-.388,1.246l-1.13,2.067,38.476,0a2.462,2.462,0,0,0,2.6-2.358l.018-31.466A2.479,2.479,0,0,0,52.66,6.442l-7.439-.034a5,5,0,0,0,0,1.715l6.919-.007A1.219,1.219,0,0,1,53.4,9.425V38.109a1.235,1.235,0,0,1-1.278,1.3l-12.741,0a.831.831,0,1,1,.155-1.653l3.966-.062,0-29.353H13.281l.006,3.937A12.71,12.71,0,1,1,16.38,35.266M7.586,20.314a.851.851,0,0,1,.986-.731.829.829,0,0,1,.67.981A11.065,11.065,0,1,0,10.726,17.1a.9.9,0,0,1-1.194.441c-1.427-.554.853-2.666,1.954-4.067.316-1.162,0-2.511.091-3.7H4.97l.007,27.937c.395.047,1,.14,1.273-.095,1.056-1.485,1.329-2.965,3.5-2.735l1.458-2.628A12.8,12.8,0,0,1,7.586,20.314m44.2,17.4,0-27.947L45.162,9.8l0,27.938Zm-38.2-.854,1.18-2.217a11.124,11.124,0,0,1-2.214-1.274l-1.265,2.165Zm.022,3.1a.9.9,0,0,0-.415-1.376L9.688,36.6a.734.734,0,0,0-.946.172L2.116,48.213A2.942,2.942,0,0,0,3.148,52.3a2.9,2.9,0,0,0,4.015-1.181Zm18.5,9.129-.642-4.7H25.283l-.645,4.72Zm3.819,5.988-1.182-4.337L22,50.75l-1.166,4.379Z" transform="translate(0 -0.001)" fill="#12263f"/>
            <path id="Trazado_1032989" data-name="Trazado 1032989" d="M183.483,183.006l-9.446.009a.9.9,0,0,1-.872-.789.874.874,0,0,1,.9-.907l9.468.016a.866.866,0,0,1,.766.744.853.853,0,0,1-.811.926" transform="translate(-142.457 -149.168)" fill="#12263f"/>
            <path id="Trazado_1032990" data-name="Trazado 1032990" d="M183.454,70.675l-9.4,0a.791.791,0,0,1-.844-.707c-.059-.344.153-.927.676-.927l9.742-.005a.77.77,0,0,1,.7.806.8.8,0,0,1-.876.83" transform="translate(-142.489 -56.797)" fill="#12263f"/>
            <path id="Trazado_1032991" data-name="Trazado 1032991" d="M197.116,154.914l-6.4.024a.846.846,0,0,1-.946-.76.834.834,0,0,1,.942-.932l6.51.023a.827.827,0,0,1,.734.75.839.839,0,0,1-.835.895" transform="translate(-156.113 -126.073)" fill="#12263f"/>
            <path id="Trazado_1032992" data-name="Trazado 1032992" d="M197.7,98.723l-6.651-.014a.721.721,0,0,1-.643-.8.845.845,0,0,1,.823-.809l6.37,0a.82.82,0,0,1,.862.656.77.77,0,0,1-.762.97" transform="translate(-156.639 -79.88)" fill="#12263f"/>
            <path id="Trazado_1032993" data-name="Trazado 1032993" d="M201.212,126.777l-5.51.007a.829.829,0,0,1-.924-.876.841.841,0,0,1,.942-.787l5.476.006a.85.85,0,0,1,.884.794.813.813,0,0,1-.867.857" transform="translate(-160.24 -102.935)" fill="#12263f"/>
            <path id="Trazado_1032994" data-name="Trazado 1032994" d="M73.663,84.2a8.17,8.17,0,1,1-6.854,9.484A8.171,8.171,0,0,1,73.663,84.2m-.353,1.775A6.5,6.5,0,1,0,81.186,90.8a6.5,6.5,0,0,0-7.876-4.829" transform="translate(-54.863 -69.19)" fill="#12263f"/>
            <path id="Trazado_1032995" data-name="Trazado 1032995" d="M103.308,18.951a.845.845,0,0,1,1.1.291.827.827,0,0,1-.274,1.139.87.87,0,0,1-1.142-.255.828.828,0,0,1,.319-1.175" transform="translate(-84.626 -15.515)" fill="#12263f"/>
            <path id="Trazado_1032996" data-name="Trazado 1032996" d="M84.433,18.99a.838.838,0,0,1,1.163.228.826.826,0,0,1-.276,1.162.874.874,0,0,1-1.05-.176.827.827,0,0,1,.163-1.214" transform="translate(-69.169 -15.507)" fill="#12263f"/>
            <path id="Trazado_1032997" data-name="Trazado 1032997" d="M122.093,18.972a.84.84,0,0,1,1.141.281.909.909,0,0,1-.272,1.13.889.889,0,0,1-1.068-.147.819.819,0,0,1,.2-1.263" transform="translate(-100.106 -15.514)" fill="#12263f"/>
          </g>
        </g>
      </g>
    </g>
  </g>
</svg>
