<svg xmlns="http://www.w3.org/2000/svg" xmlns:xlink="http://www.w3.org/1999/xlink" width="150" height="150" viewBox="0 0 150 150">
  <defs>
    <clipPath id="clip-path">
      <rect id="Rectángulo_456312" data-name="Rectángulo 456312" width="150" height="150" fill="none"/>
    </clipPath>
    <clipPath id="clip-path-3">
      <rect id="Rectángulo_467114" data-name="Rectángulo 467114" width="82" height="78.807" fill="#19538d"/>
    </clipPath>
  </defs>
  <g id="Grupo_1180259" data-name="Grupo 1180259" transform="translate(-307.059 -10093)">
    <g id="Grupo_1179968" data-name="Grupo 1179968" transform="translate(-115 658)">
      <g id="Grupo_1179959" data-name="Grupo 1179959" transform="translate(422.059 9435)" clip-path="url(#clip-path)">
        <path id="Trazado_999654" data-name="Trazado 999654" d="M1.5,5.146H123.437A18.479,18.479,0,0,1,141.96,23.58V144.937H20.022A18.479,18.479,0,0,1,1.5,126.5Z" transform="translate(0.815 2.76)" fill="#fff"/>
      </g>
      <g id="Grupo_1179960" data-name="Grupo 1179960" transform="translate(422.059 9435)">
        <g id="Grupo_1179956" data-name="Grupo 1179956" clip-path="url(#clip-path)">
          <path id="Trazado_999651" data-name="Trazado 999651" d="M94.9,30a7.681,7.681,0,1,1-7.718,7.681A7.7,7.7,0,0,1,94.9,30" transform="translate(47.384 16.085)" fill="#19538d"/>
          <path id="Trazado_999652" data-name="Trazado 999652" d="M65.9,0a7.681,7.681,0,1,1-7.718,7.681A7.7,7.7,0,0,1,65.9,0" transform="translate(31.622 0)" fill="#19538d"/>
          <path id="Trazado_999653" data-name="Trazado 999653" d="M141.96,51.007v93.93H20.022A18.479,18.479,0,0,1,1.5,126.5V5.146H97.75" transform="translate(0.815 2.76)" fill="none" stroke="#19538d" stroke-miterlimit="10" stroke-width="4"/>
        </g>
      </g>
    </g>
    <g id="Grupo_1179969" data-name="Grupo 1179969" transform="translate(331.059 10121)">
      <rect id="Rectángulo_456311" data-name="Rectángulo 456311" width="98.042" height="98.75" fill="#fff"/>
      <g id="Grupo_1180949" data-name="Grupo 1180949" transform="translate(8.021 9.972)">
        <g id="Grupo_1180948" data-name="Grupo 1180948" clip-path="url(#clip-path-3)">
          <path id="Trazado_1032998" data-name="Trazado 1032998" d="M37.671,52.224c1.881.453,3.64.094,5.651.224a3.864,3.864,0,0,1,4.106-2.59,3.786,3.786,0,0,1,.361,7.449A3.833,3.833,0,0,1,43.4,54.893l-4.055-.085c.458,1.583,1.79,2.543.576,3.742L36.06,62.368a1.159,1.159,0,0,1-1.382.328l-5.068-2.655-2.392.941-.936,3.873,63.174,0,0-42.237H44.3c-.88-.021-1.322-.445-1.358-1.15a1.225,1.225,0,0,1,1.181-1.289l45.338.02a2.447,2.447,0,0,1,2.39,2.477l-.007,42.2a2.375,2.375,0,0,1-2.3,2.366l-67.028,0a2.365,2.365,0,0,1-2.3-2.37l-.01-42.192a2.414,2.414,0,0,1,2.371-2.457L38.5,20.181a1.164,1.164,0,0,1,1.184,1.285,1.177,1.177,0,0,1-1.331,1.156l-12.1,0,1.006,3.908a10.61,10.61,0,0,1,2.208.936c2.507-.956,5.462-3.571,6.52-2.464l4.388,4.6c.291.9-.638,1.949-1.1,2.921a17.032,17.032,0,0,0,4.129.1,3.7,3.7,0,0,1,4.222-2.474,3.783,3.783,0,0,1-.064,7.458,3.91,3.91,0,0,1-4.227-2.553l-5.6.06a8.809,8.809,0,0,0,.96,2.855l5.739,1.956c.754.257.542,1.71.444,2.559l4.95.073a3.81,3.81,0,0,1,4.252-2.533,3.725,3.725,0,0,1,3.14,3.727,3.787,3.787,0,0,1-7.377,1.2l-4.9.012c-.045.768.237,2.08-.39,2.557l-5.789,1.947Zm-.753-4.7,5.593-1.79-.038-4.055L36.9,39.917l-1.851-4.405,2.734-5.348-2.808-2.772-5.386,2.7-4.327-1.8-1.589-5.609c-.067-.236-1.048-.12-1.048.152l0,8.575a12.378,12.378,0,0,1-.03,24.635l.043,8.8,1.047.015,1.547-5.68,4.372-1.8,5.239,2.7,2.928-2.938-2.724-5.177Zm9.864-15.036a1.33,1.33,0,0,0-1.141,1.695,1.369,1.369,0,1,0,1.141-1.695M22.618,50.761l.071,2.837a9.946,9.946,0,0,0-.017-19.73,9.617,9.617,0,0,0,.034,2.862,7.133,7.133,0,0,1-.088,14.032m.046-2.53a4.678,4.678,0,0,0-.036-9.024Zm30.372-5.812a1.344,1.344,0,0,0-.921,1.691,1.407,1.407,0,0,0,1.656.96,1.389,1.389,0,0,0,.968-1.782,1.356,1.356,0,0,0-1.7-.87m-6.25,9.831a1.394,1.394,0,0,0-1.158,1.7,1.41,1.41,0,0,0,1.545,1.019,1.369,1.369,0,0,0,1.141-1.651,1.331,1.331,0,0,0-1.528-1.07" transform="translate(-15.033 -15.006)" fill="#19538d"/>
          <path id="Trazado_1032999" data-name="Trazado 1032999" d="M66.246,62.263l-13.3.019,3.42,8.9,3.874.019a1.206,1.206,0,0,1,1.37,1.157l.022,5.147A1.243,1.243,0,0,1,60.4,78.8l-38.805,0a1.169,1.169,0,0,1-1.2-1.108l0-5.344A1.21,1.21,0,0,1,21.76,71.2l3.875-.017L29.062,62.3,4.617,62.287A4.419,4.419,0,0,1,0,57.818L.017,4.328A4.367,4.367,0,0,1,4.419,0H77.579a4.365,4.365,0,0,1,4.4,4.329L82,57.819a4.435,4.435,0,0,1-4.592,4.467l-5.414,0c-.77,0-1.3-.316-1.4-1.019a1.177,1.177,0,0,1,1.162-1.38l5.654-.008a2.113,2.113,0,0,0,2.208-2.118L79.6,4.388a2.019,2.019,0,0,0-2.26-1.958H4.655A2.018,2.018,0,0,0,2.4,4.388L2.386,57.765A2.092,2.092,0,0,0,4.653,59.88h61.4a1.156,1.156,0,0,1,1.258.981,1.127,1.127,0,0,1-1.07,1.4m-7.106,14.1a6.887,6.887,0,0,0-.087-2.734l-22.044,0a1.244,1.244,0,0,1-1.272-1.291,1.284,1.284,0,0,1,1.176-1.154h16.88l-3.461-8.9-18.659,0L28.211,71.17l3.043.025a1.239,1.239,0,0,1,1.286,1.16,1.2,1.2,0,0,1-1.126,1.251l-8.578.058.016,2.7Z" fill="#19538d"/>
          <path id="Trazado_1033000" data-name="Trazado 1033000" d="M231.4,63l-14.2.078a1.177,1.177,0,0,1-1.279-.976,1.1,1.1,0,0,1,1.035-1.363l13.828-.036a1.412,1.412,0,0,1,1.359.795c.19.4.02,1.5-.746,1.5" transform="translate(-160.577 -45.146)" fill="#19538d"/>
          <path id="Trazado_1033001" data-name="Trazado 1033001" d="M231.039,123.993l-13.808-.007a1.276,1.276,0,0,1-1.3-.942c-.1-.4.136-1.388.8-1.388l14.792,0c.527,0,.795.995.675,1.346a1.314,1.314,0,0,1-1.16.989" transform="translate(-160.577 -90.479)" fill="#19538d"/>
          <path id="Trazado_1033002" data-name="Trazado 1033002" d="M187.249,83.287,176.48,83.23c-.652,0-.889-.743-.863-1.211.022-.4.271-1.072.9-1.075l10.726-.05a1.259,1.259,0,0,1,1.414,1.132c.027.806-.566,1.265-1.412,1.26" transform="translate(-130.609 -60.163)" fill="#19538d"/>
          <path id="Trazado_1033003" data-name="Trazado 1033003" d="M187.582,144.037l-10.854.033a1.232,1.232,0,0,1-1.1-.969c-.134-.512.154-1.39.865-1.391l11.222-.012c.593,0,.946.754.935,1.159-.009.369-.369,1.177-1.066,1.179" transform="translate(-130.593 -105.384)" fill="#19538d"/>
          <path id="Trazado_1033004" data-name="Trazado 1033004" d="M185.766,103.564l-8.741.052a1.323,1.323,0,0,1-1.35-.893c-.163-.612.121-1.519.9-1.519l9.31-.009a1.133,1.133,0,0,1,1.007,1.079,1.185,1.185,0,0,1-1.121,1.291" transform="translate(-130.621 -75.261)" fill="#19538d"/>
          <path id="Trazado_1033005" data-name="Trazado 1033005" d="M185.814,42.934l-9.083.026a1.154,1.154,0,0,1-1.12-1.158c0-.759.539-1.194,1.37-1.193l8.718.017a1.148,1.148,0,0,1,1.17,1.007,1.169,1.169,0,0,1-1.055,1.3" transform="translate(-130.606 -30.202)" fill="#19538d"/>
          <path id="Trazado_1033006" data-name="Trazado 1033006" d="M181.867,63.077l-4.887.01a1.2,1.2,0,1,1,0-2.376l4.883.005a1.138,1.138,0,0,1,1.286,1.164,1.164,1.164,0,0,1-1.284,1.2" transform="translate(-130.609 -45.152)" fill="#19538d"/>
          <path id="Trazado_1033007" data-name="Trazado 1033007" d="M181.947,123.763l-4.979.031a1.316,1.316,0,0,1-1.277-.721c-.22-.467-.109-1.551.538-1.566l5.364-.121c.786-.018,1.408.276,1.524,1a1.178,1.178,0,0,1-1.17,1.377" transform="translate(-130.588 -90.276)" fill="#19538d"/>
          <path id="Trazado_1033008" data-name="Trazado 1033008" d="M242.179,82.175c.028,1.425-2.031,1.555-4.092,1.141a1.025,1.025,0,0,1-.7-1.11c.031-.45.354-1.1.958-1.1l2.949.015a.964.964,0,0,1,.883,1.055" transform="translate(-176.55 -60.32)" fill="#19538d"/>
          <path id="Trazado_1033009" data-name="Trazado 1033009" d="M240.993,143.917l-2.659-.052c-.69-.013-1.026-.855-.948-1.356a1.275,1.275,0,0,1,1.414-.983l2.073-.011a1.184,1.184,0,0,1,1.284.974,1.151,1.151,0,0,1-1.164,1.427" transform="translate(-176.541 -105.249)" fill="#19538d"/>
        </g>
      </g>
    </g>
  </g>
</svg>
