<svg xmlns="http://www.w3.org/2000/svg" xmlns:xlink="http://www.w3.org/1999/xlink" width="150" height="150" viewBox="0 0 150 150">
  <defs>
    <clipPath id="clip-path">
      <rect id="Rectángulo_456312" data-name="Rectángulo 456312" width="150" height="150" fill="none"/>
    </clipPath>
    <clipPath id="clip-path-3">
      <rect id="Rectángulo_467115" data-name="Rectángulo 467115" width="91.695" height="87.915" fill="#19538d"/>
    </clipPath>
  </defs>
  <g id="Grupo_1180260" data-name="Grupo 1180260" transform="translate(-307.059 -10093)">
    <g id="Grupo_1179968" data-name="Grupo 1179968" transform="translate(-115 658)">
      <g id="Grupo_1179959" data-name="Grupo 1179959" transform="translate(422.059 9435)" clip-path="url(#clip-path)">
        <path id="Trazado_999654" data-name="Trazado 999654" d="M1.5,5.146H123.437A18.479,18.479,0,0,1,141.96,23.58V144.937H20.022A18.479,18.479,0,0,1,1.5,126.5Z" transform="translate(0.815 2.76)" fill="#fff"/>
      </g>
      <g id="Grupo_1179960" data-name="Grupo 1179960" transform="translate(422.059 9435)">
        <g id="Grupo_1179956" data-name="Grupo 1179956" clip-path="url(#clip-path)">
          <path id="Trazado_999651" data-name="Trazado 999651" d="M94.9,30a7.681,7.681,0,1,1-7.718,7.681A7.7,7.7,0,0,1,94.9,30" transform="translate(47.384 16.085)" fill="#19538d"/>
          <path id="Trazado_999652" data-name="Trazado 999652" d="M65.9,0a7.681,7.681,0,1,1-7.718,7.681A7.7,7.7,0,0,1,65.9,0" transform="translate(31.622 0)" fill="#19538d"/>
          <path id="Trazado_999653" data-name="Trazado 999653" d="M141.96,51.007v93.93H20.022A18.479,18.479,0,0,1,1.5,126.5V5.146H97.75" transform="translate(0.815 2.76)" fill="none" stroke="#19538d" stroke-miterlimit="10" stroke-width="4"/>
        </g>
      </g>
    </g>
    <g id="Grupo_1180951" data-name="Grupo 1180951" transform="translate(336.211 10122.357)">
      <g id="Grupo_1180950" data-name="Grupo 1180950" clip-path="url(#clip-path-3)">
        <path id="Trazado_1033010" data-name="Trazado 1033010" d="M91.7,72.442l-.034-47.994a5.079,5.079,0,0,0-3.722-4.611L87.921,7.271C87.914,3.057,84.723,0,80.33,0h-.011L6.706.084A6.926,6.926,0,0,0,.019,7.043L0,80.67a7.371,7.371,0,0,0,1.982,5.082,6.828,6.828,0,0,0,5.025,2.16l73.9,0h0a6.815,6.815,0,0,0,5.131-2.271,7.4,7.4,0,0,0,1.833-5.686l3.8-7.485Zm-3.369,1.082-1.6,3.159-1.752-3.2ZM89.2,32.073l-4.929-.054a4.146,4.146,0,0,1-.019-2.127l4.935-.009Zm-4.958-7.807a2.471,2.471,0,0,1,2.439-2.076c.043,0,.087,0,.13,0a2.413,2.413,0,0,1,2.376,2.361l.021,2.775-4.972,0a10.99,10.99,0,0,1,.006-3.067m1.079-9.274.091,4.857c-1.8.624-3.687,2.112-3.689,4.468L81.68,72.465V72.5l3.554,6.886a4.289,4.289,0,0,1-.732,4.2,4.783,4.783,0,0,1-3.962,1.9H7.132c-2.245-.144-4.63-1.742-4.632-4.42L2.474,15ZM2.466,7.4A4.9,4.9,0,0,1,3.853,3.866,4.907,4.907,0,0,1,7.379,2.455h0l73.4.018A4.573,4.573,0,0,1,84.063,3.84,4.954,4.954,0,0,1,85.47,7.372l-.054,5.2-82.9,0Zm81.7,63.667V34.616l5.051-.012v36.42Z" transform="translate(0 -0.001)" fill="#19538d"/>
        <path id="Trazado_1033011" data-name="Trazado 1033011" d="M34.159,102.858h0l30.8-.013a1.248,1.248,0,0,0,1.234-1.291l.007-6.982C66.022,89.586,62.269,85.65,56.139,84A9.338,9.338,0,0,0,49.568,68.02h-.115A9.357,9.357,0,0,0,42.93,84c-4.657,1.251-9.972,4.675-9.974,10.351l0,7.374a1.087,1.087,0,0,0,.355.809,1.248,1.248,0,0,0,.85.319M53.3,85.96a15.034,15.034,0,0,1,8.191,3.568,6.947,6.947,0,0,1,2.166,4.577l-.012,6.278-28.229-.009-.034-5.808c-.028-4.8,5.4-8.011,10.529-8.611a9.019,9.019,0,0,0,7.389,0M44.2,73.006a6.868,6.868,0,0,1,4.739-2.5q.329-.031.655-.031a6.757,6.757,0,0,1,4.37,1.592,6.887,6.887,0,1,1-9.764.934" transform="translate(-23.393 -48.286)" fill="#19538d"/>
        <path id="Trazado_1033012" data-name="Trazado 1033012" d="M102.1,268.467l-64.169.008a.95.95,0,0,0-.731.331,1.331,1.331,0,0,0-.312.972,1.21,1.21,0,0,0,1.287,1.123l64.013,0a1.159,1.159,0,0,0,.914-.366,1.284,1.284,0,0,0,.281-.98,1.186,1.186,0,0,0-1.281-1.084" transform="translate(-26.182 -190.579)" fill="#19538d"/>
        <path id="Trazado_1033013" data-name="Trazado 1033013" d="M38.452,248.74l63.745,0,.019-.005c1.043-.294,1.172-.915,1.178-1.357a1.329,1.329,0,0,0-.354-.879.88.88,0,0,0-.639-.269l-64.228-.007h0a1.28,1.28,0,0,0-.994.428,1.2,1.2,0,0,0-.276.951,1.426,1.426,0,0,0,1.549,1.134" transform="translate(-26.187 -174.791)" fill="#19538d"/>
        <path id="Trazado_1033014" data-name="Trazado 1033014" d="M38.15,204.252h64a1.2,1.2,0,0,0,1.248-1.242,1.177,1.177,0,0,0-.334-.838,1.23,1.23,0,0,0-.916-.367l-64,0a1.236,1.236,0,0,0-.92.373,1.187,1.187,0,0,0-.333.835,1.228,1.228,0,0,0,1.254,1.236" transform="translate(-26.191 -143.258)" fill="#19538d"/>
        <path id="Trazado_1033015" data-name="Trazado 1033015" d="M102.151,224.014H38.145a1.224,1.224,0,0,0-.908,2.071,1.221,1.221,0,0,0,.911.379l64.1-.012a1.082,1.082,0,0,0,.917-.424,1.317,1.317,0,0,0,.206-1.062,1.2,1.2,0,0,0-1.217-.952" transform="translate(-26.192 -159.022)" fill="#19538d"/>
        <path id="Trazado_1033016" data-name="Trazado 1033016" d="M160.891,159.79l28.447,0,.019-.006a1.3,1.3,0,0,0,1.122-1.4,1.251,1.251,0,0,0-1.258-1.134l-28.338-.006h0a1.316,1.316,0,0,0-1.006.4,1.3,1.3,0,0,0,1.014,2.145" transform="translate(-113.269 -111.623)" fill="#19538d"/>
        <path id="Trazado_1033017" data-name="Trazado 1033017" d="M160.9,70.984l28.206.007h0a1.253,1.253,0,0,0,1.386-1.176,1.38,1.38,0,0,0-.348-.966.912.912,0,0,0-.688-.322l-28.517-.021h0a1.407,1.407,0,0,0-1.072.4,1.179,1.179,0,0,0-.283.927,1.241,1.241,0,0,0,1.317,1.15" transform="translate(-113.28 -48.632)" fill="#19538d"/>
        <path id="Trazado_1033018" data-name="Trazado 1033018" d="M189.266,135.113h0l-28.641.016a.935.935,0,0,0-.721.323,1.5,1.5,0,0,0-.322,1.1,1.326,1.326,0,0,0,1.42,1.081h28.016a1.524,1.524,0,0,0,1.134-.467,1.21,1.21,0,0,0-.885-2.052" transform="translate(-113.277 -95.914)" fill="#19538d"/>
        <path id="Trazado_1033019" data-name="Trazado 1033019" d="M189.384,179.575l-28.391-.024h0a1.5,1.5,0,0,0-1.13.4,1.169,1.169,0,0,0-.281.908,1.223,1.223,0,0,0,1.31,1.17h0l28.487-.02a1.025,1.025,0,0,0,.8-.351,1.422,1.422,0,0,0,.3-1.057,1.242,1.242,0,0,0-1.1-1.029" transform="translate(-113.279 -127.459)" fill="#19538d"/>
        <path id="Trazado_1033020" data-name="Trazado 1033020" d="M160.887,93.218l28.373,0a1.26,1.26,0,0,0,1.223-1.255,1.214,1.214,0,0,0-.348-.854,1.187,1.187,0,0,0-.878-.373h0l-28.676.006a.933.933,0,0,0-.778.379,1.374,1.374,0,0,0-.192,1.142,1.3,1.3,0,0,0,1.276.958" transform="translate(-113.27 -64.409)" fill="#19538d"/>
        <path id="Trazado_1033021" data-name="Trazado 1033021" d="M189.3,113.062l-28.382,0h0a1.171,1.171,0,0,0-1.3,1.169,1.222,1.222,0,0,0,.329.9,1.312,1.312,0,0,0,.959.349h0l28.388-.014a1.207,1.207,0,0,0,.89-.373,1.194,1.194,0,0,0-.884-2.027" transform="translate(-113.306 -80.259)" fill="#19538d"/>
        <path id="Trazado_1033022" data-name="Trazado 1033022" d="M166.688,14.116h0l-37.916.012a2.8,2.8,0,0,0-2.247,1.148,3.915,3.915,0,0,0-.782,2.31c0,1.4,1.171,3.36,3.074,3.362l37.7.023h0a3.421,3.421,0,0,0,3.256-3.387,3.747,3.747,0,0,0-1.048-2.591,2.826,2.826,0,0,0-2.044-.876m.594,3.467c-.025.623-.416.939-1.162.939h0l-36.776-.007a.97.97,0,0,1-1.106-.924.98.98,0,0,1,.251-.74,1.211,1.211,0,0,1,.9-.318h0l36.917.012a.926.926,0,0,1,.685.281,1.084,1.084,0,0,1,.292.757" transform="translate(-89.261 -10.021)" fill="#19538d"/>
        <path id="Trazado_1033023" data-name="Trazado 1033023" d="M27.872,14.189a3.316,3.316,0,0,0-2.072,1.8,3.4,3.4,0,0,0-.064,2.78,3.572,3.572,0,0,0,3.208,2.171,2.99,2.99,0,0,0,1-.169,3.537,3.537,0,0,0,2.311-4.276,3.447,3.447,0,0,0-4.38-2.306M29.2,18.407c-.679.079-1.078-.139-1.194-.646a1.072,1.072,0,0,1,.141-.834.972.972,0,0,1,.667-.417.851.851,0,0,1,.681.147,1,1,0,0,1,.377.656c.064.581-.218,1.042-.671,1.095" transform="translate(-18.08 -9.957)" fill="#19538d"/>
        <path id="Trazado_1033024" data-name="Trazado 1033024" d="M62.672,14.415a3.454,3.454,0,0,0-2.693-.229A3.367,3.367,0,0,0,57.9,15.97a3.45,3.45,0,0,0-.061,2.769,3.52,3.52,0,0,0,3.194,2.191,3.025,3.025,0,0,0,.99-.164,3.494,3.494,0,0,0,2.305-4.287,3.422,3.422,0,0,0-1.655-2.062m-1.393,3.966c-.379.048-1.039.031-1.2-.621a1.024,1.024,0,0,1,.147-.834,1.044,1.044,0,0,1,.758-.436.956.956,0,0,1,1,.8.877.877,0,0,1-.7,1.1" transform="translate(-40.874 -9.95)" fill="#19538d"/>
        <path id="Trazado_1033025" data-name="Trazado 1033025" d="M94.728,14.427a3.5,3.5,0,0,0-2.714-.229,3.315,3.315,0,0,0-2.049,1.735,3.5,3.5,0,0,0,3.123,5,2.972,2.972,0,0,0,.973-.161,3.455,3.455,0,0,0,2.309-4.289,3.374,3.374,0,0,0-1.643-2.054m-2.6,3.33a1.049,1.049,0,0,1,.124-.821.985.985,0,0,1,.676-.427.886.886,0,0,1,.7.157,1.021,1.021,0,0,1,.408.636,1.048,1.048,0,0,1-.189.792.781.781,0,0,1-.527.3c-.455.052-1.031-.016-1.187-.642" transform="translate(-63.628 -9.957)" fill="#19538d"/>
      </g>
    </g>
  </g>
</svg>
