<svg xmlns="http://www.w3.org/2000/svg" xmlns:xlink="http://www.w3.org/1999/xlink" width="150" height="150" viewBox="0 0 150 150">
  <defs>
    <clipPath id="clip-path">
      <rect id="Rectángulo_456312" data-name="Rectángulo 456312" width="150" height="150" fill="none"/>
    </clipPath>
    <clipPath id="clip-path-3">
      <rect id="Rectángulo_467116" data-name="Rectángulo 467116" width="85.873" height="85.476" fill="#19538d"/>
    </clipPath>
  </defs>
  <g id="Grupo_1180261" data-name="Grupo 1180261" transform="translate(-307.059 -10093)">
    <g id="Grupo_1179968" data-name="Grupo 1179968" transform="translate(-115 658)">
      <g id="Grupo_1179959" data-name="Grupo 1179959" transform="translate(422.059 9435)" clip-path="url(#clip-path)">
        <path id="Trazado_999654" data-name="Trazado 999654" d="M1.5,5.146H123.437A18.479,18.479,0,0,1,141.96,23.58V144.937H20.022A18.479,18.479,0,0,1,1.5,126.5Z" transform="translate(0.815 2.76)" fill="#fff"/>
      </g>
      <g id="Grupo_1179960" data-name="Grupo 1179960" transform="translate(422.059 9435)">
        <g id="Grupo_1179956" data-name="Grupo 1179956" clip-path="url(#clip-path)">
          <path id="Trazado_999651" data-name="Trazado 999651" d="M94.9,30a7.681,7.681,0,1,1-7.718,7.681A7.7,7.7,0,0,1,94.9,30" transform="translate(47.384 16.085)" fill="#19538d"/>
          <path id="Trazado_999652" data-name="Trazado 999652" d="M65.9,0a7.681,7.681,0,1,1-7.718,7.681A7.7,7.7,0,0,1,65.9,0" transform="translate(31.622 0)" fill="#19538d"/>
          <path id="Trazado_999653" data-name="Trazado 999653" d="M141.96,51.007v93.93H20.022A18.479,18.479,0,0,1,1.5,126.5V5.146H97.75" transform="translate(0.815 2.76)" fill="none" stroke="#19538d" stroke-miterlimit="10" stroke-width="4"/>
        </g>
      </g>
    </g>
    <g id="Grupo_1180953" data-name="Grupo 1180953" transform="translate(342.132 10125.262)">
      <g id="Grupo_1180952" data-name="Grupo 1180952" clip-path="url(#clip-path-3)">
        <path id="Trazado_1033026" data-name="Trazado 1033026" d="M85.873,69.774a1.409,1.409,0,0,1-1.352,1.495l-2.548.17-1.154,2.8,1.668,1.868A1.355,1.355,0,0,1,82.482,78l-4.146,4.125a1.389,1.389,0,0,1-2.005-.142l-1.676-1.612-2.894,1.183-.073,2.468a1.424,1.424,0,0,1-1.466,1.455H13.506L0,71.978V.992C.143.355.423,0,1.111,0L67.642.009c.75,0,.837.878.837,1.454l.009,47.189c1.025.012,2.291-.285,2.822.421.672.893.319,2.214.388,3.294l2.865,1.252,2.209-1.862a1.32,1.32,0,0,1,1.67.191l3.983,3.979a1.515,1.515,0,0,1,.045,2.107L80.8,59.79l1.164,2.861,2.27.1c.864.039,1.619.475,1.622,1.386Zm-36.936-.128V64.363a1.386,1.386,0,0,1,1.229-1.556l2.708-.143,1.16-2.987-1.758-1.8a1.518,1.518,0,0,1,.271-2.129l3.871-3.809c1.3-1.28,2.234.637,3.894,1.66L63.1,52.411l.048-2.3a1.58,1.58,0,0,1,.426-1.153,1.824,1.824,0,0,1,1.3-.342,1.837,1.837,0,0,0,1.5-.18L66.36,2.193,2.193,2.21,2.184,70.449l11.63.036a1.156,1.156,0,0,1,1.19.777l.021,12.057,48.032-.009a2.564,2.564,0,0,0-.032-1.713l-2.9-1.226-1.753,1.739a1.312,1.312,0,0,1-1.856.026l-4.024-3.956a1.383,1.383,0,0,1-.245-1.924l1.807-2.127a21.382,21.382,0,0,1-1.172-2.684l-2.534-.172a1.468,1.468,0,0,1-1.412-1.628M69.648,83.1c-.011-1.154-.387-2.725.371-3.055l3.373-1.47c.656-.286,1.467-.824,2.075-.3L77.5,80.032,80.408,77l-1.759-1.926c-.556-.609-.056-1.611.4-2.239.705-.975.623-2.519,1.48-3.259.8-.688,2.139-.3,3.118-.4l-.085-4.359c-1.1.1-2.4.354-3.1-.386-.778-.826-.743-2.179-1.368-3.186-.319-.514-.987-1.406-.556-1.959l1.814-2.328-2.91-2.922-1.691,1.582c-.674.631-1.5.246-2.3-.116l-3.488-1.585c-.647-.708-.272-2.117-.38-3.076l-4.344-.128a8.031,8.031,0,0,1-.366,3.426c-2.784.69-4.589,2.556-5.755,1.485l-1.715-1.577-2.948,2.947,1.862,2.288c.431.529-.329,1.415-.562,1.952l-1.382,3.188c-.729.8-2.162.431-3.168.43l-.035,4.309,2.034.04c1.968.039,1.508,2.015,2.9,4.209,1.051,1.662-.857,2.284-1.634,3.773l2.881,2.85,2.239-1.856c.546-.453,1.511.16,2.048.531.971.67,2.39.563,3.159,1.368.711.745.391,2.1.425,3.147a12.2,12.2,0,0,0,4.428-.112M12.8,72.6l-9.034.056,9,8.985Z" transform="translate(0 0)" fill="#19538d"/>
        <path id="Trazado_1033027" data-name="Trazado 1033027" d="M44.144,42.548l-14.35.015a1.125,1.125,0,0,1-1.156-1.139L28.632,27.2a1.126,1.126,0,0,1,1.17-1.109H43.988a1.166,1.166,0,0,1,1.1,1.144l0,14.151c0,.47-.274,1.162-.945,1.163m-1.232-2.212L42.9,28.3l-12.1.006.005,12.078Z" transform="translate(-20.474 -18.657)" fill="#19538d"/>
        <path id="Trazado_1033028" data-name="Trazado 1033028" d="M44.126,120.855l-14.337,0a1.222,1.222,0,0,1-1.166-1.229l0-14.227a1.1,1.1,0,0,1,.984-1.029l14.312.008a1.186,1.186,0,0,1,1.152,1.055l.014,14.427a1.236,1.236,0,0,1-.962.993m-1.215-2.165L42.9,106.541l-12.112.055.039,12.107Z" transform="translate(-20.467 -74.634)" fill="#19538d"/>
        <path id="Trazado_1033029" data-name="Trazado 1033029" d="M44.176,199.114H29.814a1.065,1.065,0,0,1-1.13-1l0-14.449a.968.968,0,0,1,.864-.926l14.244-.041c.806,0,1.347.393,1.346,1.228L45.118,198.1a1.166,1.166,0,0,1-.942,1.018m-1.233-2.141V184.81l-12.117.043.038,12.132Z" transform="translate(-20.509 -130.641)" fill="#19538d"/>
        <path id="Trazado_1033030" data-name="Trazado 1033030" d="M129.937,65.1l-29.865.007a1.1,1.1,0,0,1-1.129-.955,1.044,1.044,0,0,1,1.089-1.213l30.1,0a1.145,1.145,0,0,1,.925,1.016,1.038,1.038,0,0,1-1.119,1.148" transform="translate(-70.743 -45.007)" fill="#19538d"/>
        <path id="Trazado_1033031" data-name="Trazado 1033031" d="M129.9,143.365l-29.574.006c-.81,0-1.28-.342-1.36-1.034a1.088,1.088,0,0,1,1.117-1.175l30.068.009c.694,0,.971.757.915,1.188a1.119,1.119,0,0,1-1.167,1.006" transform="translate(-70.768 -100.942)" fill="#19538d"/>
        <path id="Trazado_1033032" data-name="Trazado 1033032" d="M129.981,41.717l-29.954.007a1.131,1.131,0,0,1-1.111-1.066,1.111,1.111,0,0,1,1.1-1.085l29.865-.021a1.039,1.039,0,0,1,1.155.846,1.12,1.12,0,0,1-1.058,1.319" transform="translate(-70.734 -28.284)" fill="#19538d"/>
        <path id="Trazado_1033033" data-name="Trazado 1033033" d="M130.276,119.941l-30.257.023a1.12,1.12,0,0,1-1.1-1.084,1.049,1.049,0,0,1,1.1-1.032l30.122,0c.554,0,.769.538.872.8.123.311.052,1.293-.734,1.293" transform="translate(-70.735 -84.272)" fill="#19538d"/>
        <path id="Trazado_1033034" data-name="Trazado 1033034" d="M120.019,198.126l-19.924.01a1.062,1.062,0,0,1-1.113-.954,1.08,1.08,0,0,1,1.064-1.232l20.16.019c.594,0,.893.657.929.988a1.047,1.047,0,0,1-1.116,1.169" transform="translate(-70.776 -140.121)" fill="#19538d"/>
        <path id="Trazado_1033035" data-name="Trazado 1033035" d="M117.187,221.532,100,221.545a1.072,1.072,0,0,1-1.09-1.019,1.086,1.086,0,0,1,.963-1.13l17.09-.022a1.126,1.126,0,0,1,1.234.9,1.091,1.091,0,0,1-1.013,1.256" transform="translate(-70.731 -156.872)" fill="#19538d"/>
        <path id="Trazado_1033036" data-name="Trazado 1033036" d="M211.9,201.538a9.621,9.621,0,1,1-9.025,10.44,9.544,9.544,0,0,1,9.025-10.44m-.852,2.242a7.487,7.487,0,1,0,8.79,6.026,7.489,7.489,0,0,0-8.79-6.026" transform="translate(-145.051 -144.106)" fill="#19538d"/>
        <path id="Trazado_1033037" data-name="Trazado 1033037" d="M43.718,49.563,40.9,46.8a1.074,1.074,0,0,1-.1-1.548.99.99,0,0,1,1.431-.075l2.079,2.04L48.32,43.2a1.08,1.08,0,0,1,1.538-.108,1.1,1.1,0,0,1-.01,1.642l-4.7,4.7a1.044,1.044,0,0,1-1.433.122" transform="translate(-28.976 -30.623)" fill="#19538d"/>
        <path id="Trazado_1033038" data-name="Trazado 1033038" d="M43.593,127.711l-2.926-2.934a1.007,1.007,0,0,1,.251-1.522,1.042,1.042,0,0,1,1.366.188l1.951,1.9,4.024-4.017a1.107,1.107,0,0,1,1.519-.094,1.076,1.076,0,0,1,.162,1.5l-4.983,4.981a1,1,0,0,1-1.364,0" transform="translate(-28.902 -86.507)" fill="#19538d"/>
        <path id="Trazado_1033039" data-name="Trazado 1033039" d="M43.526,205.958l-2.912-2.916a1.139,1.139,0,0,1,.021-1.3,1.068,1.068,0,0,1,1.463-.18l2.143,2.021,4.067-4a1.11,1.11,0,0,1,1.43-.107,1.044,1.044,0,0,1,.093,1.627l-4.848,4.85a1.037,1.037,0,0,1-1.456.009" transform="translate(-28.9 -142.488)" fill="#19538d"/>
        <path id="Trazado_1033040" data-name="Trazado 1033040" d="M220.2,228.727l-3.027-3.08a1.076,1.076,0,1,1,1.513-1.525l2.507,2.491,5.094-5.035a1.07,1.07,0,0,1,1.519,1.5l-5.523,5.588a1.372,1.372,0,0,1-2.084.057" transform="translate(-155.048 -158.234)" fill="#19538d"/>
      </g>
    </g>
  </g>
</svg>
