<svg xmlns="http://www.w3.org/2000/svg" xmlns:xlink="http://www.w3.org/1999/xlink" width="85" height="85" viewBox="0 0 85 85">
  <defs>
    <clipPath id="clip-path">
      <rect id="Rectángulo_466875" data-name="Rectángulo 466875" width="55.544" height="55.55" fill="#12263f"/>
    </clipPath>
  </defs>
  <g id="Grupo_1180049" data-name="Grupo 1180049" transform="translate(-705.629 -410)">
    <g id="Grupo_1180019" data-name="Grupo 1180019">
      <g id="Grupo_1180023" data-name="Grupo 1180023">
        <rect id="Rectángulo_456333" data-name="Rectángulo 456333" width="85" height="85" rx="10" transform="translate(705.629 410)" fill="#68eae0"/>
        <g id="Grupo_1180609" data-name="Grupo 1180609" transform="translate(720.357 421.775)">
          <g id="Grupo_1180608" data-name="Grupo 1180608" clip-path="url(#clip-path)">
            <path id="Trazado_1031697" data-name="Trazado 1031697" d="M14.846,47.046c-.489,0-.658-.515-.648-.789.009-.24.143-.772.6-.772l37.074-.01a2.021,2.021,0,0,0,2.054-2.093l-.006-3.291H1.618L1.61,43.381a2.032,2.032,0,0,0,2.03,2.092l7.46.005a.8.8,0,1,1,.013,1.591l-7.656-.015A3.452,3.452,0,0,1,0,43.544V11.29A3.537,3.537,0,0,1,3.655,7.742l23.763,0a3.616,3.616,0,0,0-.871-.964,1.458,1.458,0,0,1-.077-2.2l1.825-1.81a1.324,1.324,0,0,1,1.873.023L31.355,3.96A9.312,9.312,0,0,1,33.6,3.012a4.558,4.558,0,0,0,.062-1.465A1.377,1.377,0,0,1,35.063,0l2.594,0c1.575,0,1.3,1.571,1.467,3.019a15.618,15.618,0,0,1,2.194.891l1.113-1.076a1.342,1.342,0,0,1,1.874-.117l2,1.989a1.32,1.32,0,0,1-.07,1.934,4.718,4.718,0,0,0-1,1.083l6.669.014a3.545,3.545,0,0,1,3.633,3.547l0,32.258a3.407,3.407,0,0,1-3.294,3.485l-18.374.035a40.969,40.969,0,0,0,.666,6.853l2.792,0a.777.777,0,0,1,.822.838.827.827,0,0,1-.855.793H18.245a.836.836,0,0,1-.841-.66.719.719,0,0,1,.643-.939l2.98-.07a44.735,44.735,0,0,0,.642-6.811ZM37.431,23.822V22.134c0-1.191,1.54-1.118,3.262-2.1a1.313,1.313,0,0,1,1.6.165l1.178,1.148,1.487-1.487L43.79,18.69a1.421,1.421,0,0,1-.094-1.738c.963-1.683.775-3.1,2.128-3.133l1.633-.035-.038-2.1-1.6,0c-1.323,0-1.179-1.5-2.126-3.144a1.422,1.422,0,0,1,.1-1.738l1.158-1.167L43.469,4.145,42.288,5.3c-.992.971-1.95-.285-3.785-.758a1.35,1.35,0,0,1-1.1-1.327l-.013-1.577-2.081-.013-.026,1.318c-.036,1.852-1.4,1.389-3.278,2.509a1.271,1.271,0,0,1-1.591-.135l-1.187-1.17L27.761,5.617l1.08,1.111A1.465,1.465,0,0,1,29,8.508c-1.014,1.75-.706,3.207-2.436,3.2l-1.323,0v2.086l1.326.015c1.791.02,1.4,1.445,2.431,3.182a1.512,1.512,0,0,1-.23,1.874l-1.006,1.016,1.494,1.463,1.167-1.164A1.288,1.288,0,0,1,32,20.047c1.644.965,3.229.845,3.261,2.148l.042,1.661a6.529,6.529,0,0,0,2.123-.035M5.309,11.495l18.253-.033c.356-2.146,2.291-1.047,3.092-1.561.089-.057.131-.531.024-.531L3.483,9.376a1.929,1.929,0,0,0-1.864,1.948l-.007,27.1a4.764,4.764,0,0,0,1.777,0l0-24.875a1.945,1.945,0,0,1,1.917-2.049M52.156,13.63l0,24.792a4.572,4.572,0,0,0,1.779,0l-.008-27.1a1.883,1.883,0,0,0-1.681-1.915L46.02,9.366c-.153.168-.019.664.136.667l1.561.027c1.486.026.921,1.5,2.082,1.416a2.055,2.055,0,0,1,2.358,2.154M38.994,24.337a1.242,1.242,0,0,1-1.325,1.172l-2.607.006a1.391,1.391,0,0,1-1.4-1.566,4.638,4.638,0,0,0-.063-1.471,8.255,8.255,0,0,1-2.236-.935l-1.39,1.308a1.335,1.335,0,0,1-1.764-.192l-1.746-1.732a1.423,1.423,0,0,1-.081-2.025l1.12-1.211a10.577,10.577,0,0,1-.86-2.165c-1.055-.251-2.192.22-2.769-.627a2.272,2.272,0,0,1-.225-1.749L5.029,13.135l0,25.361H50.511V13.267a1.535,1.535,0,0,0-1.484.043c.218.908-.064,2.051-.966,2.086l-1.993.078a10.4,10.4,0,0,1-.922,2.245l1.17,1.226a1.3,1.3,0,0,1,0,1.843L44.405,22.7a1.391,1.391,0,0,1-1.977-.041l-1.112-1.064a13.664,13.664,0,0,1-2.3.91Zm-6.15,29.588a46.743,46.743,0,0,1-.587-6.862l-8.97,0a48.06,48.06,0,0,1-.585,6.864Z" transform="translate(0 0)" fill="#12263f"/>
            <path id="Trazado_1031698" data-name="Trazado 1031698" d="M149.149,243.4l-3.57.011a.808.808,0,1,1,0-1.6l3.652.013a.765.765,0,0,1,.747.787.781.781,0,0,1-.83.791" transform="translate(-119.551 -199.829)" fill="#12263f"/>
            <path id="Trazado_1031699" data-name="Trazado 1031699" d="M175.407,40.78a4.736,4.736,0,0,0,.526,5.966,4.681,4.681,0,1,0,2.128-7.8.877.877,0,0,1-1.034-.45.794.794,0,0,1,.54-1.106,6.3,6.3,0,1,1-3.537,2.547.78.78,0,0,1,1.115-.237.8.8,0,0,1,.262,1.083" transform="translate(-142.929 -30.703)" fill="#12263f"/>
            <path id="Trazado_1031700" data-name="Trazado 1031700" d="M197.007,57.84a3.279,3.279,0,1,1-3.279-3.279,3.279,3.279,0,0,1,3.279,3.279m-1.628,0a1.652,1.652,0,1,0-1.652,1.652,1.652,1.652,0,0,0,1.652-1.652" transform="translate(-157.386 -45.089)" fill="#12263f"/>
            <path id="Trazado_1031701" data-name="Trazado 1031701" d="M49.321,115.666H47.436a1.346,1.346,0,0,1-1.322-1.658,1.242,1.242,0,0,0-.064-.669,5.421,5.421,0,0,0-1.378-.553c-.352,0-1.512,1.752-2.539.742l-1.489-1.466a1.3,1.3,0,0,1,.173-2,1.413,1.413,0,0,0,.464-.514,4.187,4.187,0,0,0-.539-1.514,1.315,1.315,0,0,0-.827-.094,1.254,1.254,0,0,1-1.5-1.284V104.71a1.246,1.246,0,0,1,1.5-1.252,1.314,1.314,0,0,0,.82-.117,6.161,6.161,0,0,0,.564-1.39c0-.225-.268-.457-.5-.639a1.3,1.3,0,0,1-.161-2l1.5-1.449a1.075,1.075,0,0,1,1.457-.054l1.021.9a6.973,6.973,0,0,1,1.442-.6l.069-1.276a1.151,1.151,0,0,1,1.227-1.078l2.263.031c1.275.017.855,2.06,1.195,2.345a8.8,8.8,0,0,0,1.32.535c.311-.019.706-1,1.6-1.088a1.483,1.483,0,0,1,1.24.675c.455.545,1.207.963,1.452,1.679.251.734-.4,1.44-1.043,1.879l.659,1.686c.764-.147,1.885-.13,2.135.7a7.213,7.213,0,0,1,.057,2.829c-.125,1.007-1.249.872-2.27.993a15.459,15.459,0,0,1-.627,1.483c.977.786,1.548,1.723.861,2.42l-1.457,1.482a1.3,1.3,0,0,1-2.044-.215.9.9,0,0,0-.57-.414,5.917,5.917,0,0,0-1.307.463c-.386.258.224,2.422-1.505,2.423m.147-3.618,1.664-.678c.487-.2.923-.5,1.409-.373a2.443,2.443,0,0,1,1.15.975,2.087,2.087,0,0,0,.97-.876c-.5-.4-1.25-1.041-1-1.72a25.838,25.838,0,0,1,1.084-2.586c.281-.562,1.257-.475,1.855-.38a1.616,1.616,0,0,0,0-1.358c-.71.074-1.637.178-1.9-.456L54,102.873a1.5,1.5,0,0,1,.318-2.249c.091-.072.306-.292.312-.406,0-.041-.57-.7-.772-.743-.355-.073-.7.84-1.418.956a2.192,2.192,0,0,1-1.2-.348l-1.818-.774c-.535-.409-.483-1.149-.4-1.821a1.639,1.639,0,0,0-1.311,0c.147.7.115,1.637-.538,1.913l-2.315.979c-.752.318-1.421-.338-1.849-.951a2.429,2.429,0,0,0-.938.913c.538.439,1.275,1.048,1,1.761-.313.822-.676,1.642-1.023,2.429-.3.677-1.195.516-1.816.6-.346.048-.328,1.168-.007,1.206.668.039,1.569-.107,1.872.632l.99,2.415c.272.663-.514,1.147-.874,1.608-.261.334.539,1.11.836.848.5-.444,1.06-1.119,1.778-.816L47.14,112c.722.3.69,1.281.588,1.964a1.743,1.743,0,0,0,1.29-.072c-.081-.658-.186-1.584.449-1.843" transform="translate(-31.748 -79.136)" fill="#12263f"/>
            <path id="Trazado_1031702" data-name="Trazado 1031702" d="M79.535,132.534a4.309,4.309,0,1,1-4.309-4.309,4.309,4.309,0,0,1,4.309,4.309m-1.628,0a2.676,2.676,0,1,0-2.676,2.676,2.676,2.676,0,0,0,2.676-2.676" transform="translate(-58.605 -105.964)" fill="#12263f"/>
          </g>
        </g>
      </g>
    </g>
  </g>
</svg>
