<svg xmlns="http://www.w3.org/2000/svg" xmlns:xlink="http://www.w3.org/1999/xlink" width="85" height="85" viewBox="0 0 85 85">
  <defs>
    <clipPath id="clip-path">
      <rect id="Rectángulo_466881" data-name="Rectángulo 466881" width="58.205" height="58.24" fill="#12263f"/>
    </clipPath>
  </defs>
  <g id="Grupo_1180054" data-name="Grupo 1180054" transform="translate(-705.629 -410)">
    <g id="Grupo_1180019" data-name="Grupo 1180019">
      <g id="Grupo_1180023" data-name="Grupo 1180023">
        <rect id="Rectángulo_456333" data-name="Rectángulo 456333" width="85" height="85" rx="10" transform="translate(705.629 410)" fill="#68eae0"/>
        <g id="Grupo_1180619" data-name="Grupo 1180619" transform="translate(719.026 421.38)">
          <g id="Grupo_1180618" data-name="Grupo 1180618" clip-path="url(#clip-path)">
            <path id="Trazado_1031754" data-name="Trazado 1031754" d="M1.716,50.708l-.03,2.956a2.864,2.864,0,0,0,3.229,2.883,2.2,2.2,0,0,0,.6-.017c.324-.125-.265-1.386.672-1.822a.808.808,0,0,1,1.073.446,4.366,4.366,0,0,1,.085,1.358l2.07.014.068-1.367c.022-.439.612-.555.924-.5.806.142.655.883.724,1.878l1.93-.027c.234-.862-.091-1.736.873-1.848a.88.88,0,0,1,.957.845,3.705,3.705,0,0,0,.066,1.061l32.857-.006c.629,0,1.037.11,1.126.681.083.532-.229,1-.95,1l-43.429,0A4.405,4.405,0,0,1,0,53.868l.011-3.28A1.767,1.767,0,0,1,1.79,48.963l1.969-.031V17.668A4.6,4.6,0,0,1,8.4,13.2l6.638-.031.042-10.616a2.571,2.571,0,0,1,2.4-2.5L36.362,0a2.945,2.945,0,0,1,2.22.822c1.385,1.427.243,3.087,1.253,3a2.732,2.732,0,0,1,3.317,2.722l0,6.619L49.8,13.2a4.622,4.622,0,0,1,4.639,4.845V48.933l1.958.029a1.792,1.792,0,0,1,1.81,1.8l-.007,3.1a4.361,4.361,0,0,1-4.346,4.358l-2.2.013a.854.854,0,1,1,0-1.7l2.154-.006a2.776,2.776,0,0,0,2.707-2.87l0-2.953H35.661l-.05,2.043a1.732,1.732,0,0,1-1.779,1.7H24.363a1.8,1.8,0,0,1-1.8-1.867l-.035-1.874ZM18.828,6.653a2.644,2.644,0,0,1,2.638-2.866l16.166-.034c.173-.621.057-1.991-.646-1.993L17.711,1.7a1.076,1.076,0,0,0-.937.9l.052,24.953c0,.8,1.534.888,2.005.611Zm22.59-1.181H20.533V32.025H41.419ZM21.367,33.709c-2.911-.007-2.5-3.581-2.571-3.687-.1-.154-3.332.565-3.754-2.718l0-8.586L9.254,18.7v5.861a.9.9,0,0,1-.951.862.886.886,0,0,1-.8-.89l.032-5.926a1.726,1.726,0,0,1,1.73-1.638l5.77-.019,0-2.031-6.69.005a2.848,2.848,0,0,0-2.885,2.936l0,31.07,2.04,0V28.236c0-.584.282-1.042.784-1.1a.918.918,0,0,1,.963.911l0,20.912,39.691,0,0-30.25-5.8.008.007,12.211a2.783,2.783,0,0,1-2.972,2.824ZM50.7,48.926l2.036.007,0-31.073a2.8,2.8,0,0,0-2.706-2.915l-6.867-.031v2.034l5.931.046a1.709,1.709,0,0,1,1.584,1.662ZM33.88,50.71H24.316v2.057H33.88Z" transform="translate(0 0)" fill="#12263f"/>
            <path id="Trazado_1031755" data-name="Trazado 1031755" d="M140.962,209.3a1.853,1.853,0,0,1-1.4.782,1.787,1.787,0,0,1-1.517-.73l-2.791-3.376a1.685,1.685,0,0,1-.078-1.868,1.914,1.914,0,0,1,1.551-.9l0-1.843a1.853,1.853,0,0,1,1.876-1.914h1.75a1.8,1.8,0,0,1,1.859,1.732l.013,2.027a1.846,1.846,0,0,1,1.616,1.011,1.809,1.809,0,0,1-.284,1.967Zm1.312-4.3c-1.152-.209-1.751-.827-1.751-1.794v-2l-2.079,0,0,2c0,1.012-.7,1.617-1.777,1.794l2.819,3.418Z" transform="translate(-110.383 -163.163)" fill="#12263f"/>
            <path id="Trazado_1031756" data-name="Trazado 1031756" d="M152.5,46.823h-5.949a1.7,1.7,0,0,1-1.621-1.684l.019-2.2a1.746,1.746,0,0,1,1.809-1.575l5.617.008a1.769,1.769,0,0,1,1.8,1.754l-.025,2.15a1.63,1.63,0,0,1-1.648,1.548m-.059-3.744h-5.821v2.09h5.821Z" transform="translate(-118.558 -33.837)" fill="#12263f"/>
            <path id="Trazado_1031757" data-name="Trazado 1031757" d="M139.961,105.328l-14.892-.017a.891.891,0,0,1-.881-.8c0-.639.415-.884,1.048-.884l14.729-.007c.639,0,.989.3.971.887a.856.856,0,0,1-.975.824" transform="translate(-101.592 -84.764)" fill="#12263f"/>
            <path id="Trazado_1031758" data-name="Trazado 1031758" d="M140.2,84.612,125.057,84.6a.871.871,0,0,1-.88-.865.828.828,0,0,1,.875-.84l14.9-.007a.862.862,0,0,1,.954.675.9.9,0,0,1-.71,1.047" transform="translate(-101.584 -67.808)" fill="#12263f"/>
            <path id="Trazado_1031759" data-name="Trazado 1031759" d="M146.84,125.848l-11.437.024a.839.839,0,0,1-.833-.768.852.852,0,0,1,.828-.965l11.222-.013a.928.928,0,0,1,.914.664c.1.316-.1,1.057-.694,1.058" transform="translate(-110.081 -101.541)" fill="#12263f"/>
          </g>
        </g>
      </g>
    </g>
  </g>
</svg>
