<svg xmlns="http://www.w3.org/2000/svg" xmlns:xlink="http://www.w3.org/1999/xlink" width="128" height="128" viewBox="0 0 128 128">
  <defs>
    <clipPath id="clip-path">
      <rect id="Rectángulo_456267" data-name="Rectángulo 456267" width="128" height="128" fill="none"/>
    </clipPath>
    <clipPath id="clip-path-2">
      <rect id="Rectángulo_466884" data-name="Rectángulo 466884" width="59.609" height="73.108" fill="#19538d"/>
    </clipPath>
  </defs>
  <g id="Grupo_1180062" data-name="Grupo 1180062" transform="translate(511.746 8527) rotate(180)">
    <path id="Trazado_999622" data-name="Trazado 999622" d="M59.07,0A59.07,59.07,0,1,1,0,59.07,59.071,59.071,0,0,1,59.07,0" transform="translate(388.676 8403.93)" fill="#fff"/>
    <g id="Grupo_1179902" data-name="Grupo 1179902" transform="translate(383.746 8399)">
      <g id="Grupo_1179905" data-name="Grupo 1179905" clip-path="url(#clip-path)">
        <path id="Trazado_999618" data-name="Trazado 999618" d="M64,0A64,64,0,1,1,0,64,64,64,0,0,1,64,0" fill="none"/>
        <path id="Trazado_999619" data-name="Trazado 999619" d="M5,59a5,5,0,1,1-5,5,5,5,0,0,1,5-5" fill="#19538d"/>
        <path id="Trazado_999620" data-name="Trazado 999620" d="M21,19a5,5,0,1,1-5,5,5,5,0,0,1,5-5" fill="#19538d"/>
        <path id="Trazado_999621" data-name="Trazado 999621" d="M64,124A60.068,60.068,0,0,1,4,64H7A57,57,0,1,0,22.408,25.024L20.22,22.972A60,60,0,1,1,64,124" fill="#19538d"/>
        <rect id="Rectángulo_456268" data-name="Rectángulo 456268" width="128" height="128" fill="none"/>
        <rect id="Rectángulo_456269" data-name="Rectángulo 456269" width="128" height="128" fill="none"/>
      </g>
    </g>
    <g id="Grupo_1180626" data-name="Grupo 1180626" transform="translate(477.551 8501.628) rotate(180)">
      <g id="Grupo_1180625" data-name="Grupo 1180625" clip-path="url(#clip-path-2)">
        <path id="Trazado_1031769" data-name="Trazado 1031769" d="M55.477,62.206a2.019,2.019,0,0,0,1.955-1.938l.017-45.433L49,14.813A4.147,4.147,0,0,1,44.8,10.749l-.009-8.615-30.675.021a2.081,2.081,0,0,0-1.971,2.172l.014,8.458c0,.73-.348,1.185-.973,1.238-.745.063-1.179-.433-1.181-1.239L9.994,7.221c-1.043-.349-2.8.278-2.8,1.73L7.188,65.516A1.947,1.947,0,0,0,8.81,67.149l27.589.033a1.1,1.1,0,1,1-.034,2.191l-27.27-.038a4.139,4.139,0,0,1-4.088-4.29L4.992,11a2.106,2.106,0,0,0-2.807,1.828L2.162,48.849a1.107,1.107,0,0,1-1.044,1.173A1.075,1.075,0,0,1,0,48.955L.008,13A4.226,4.226,0,0,1,5,8.805a4.266,4.266,0,0,1,5.006-3.723,4.77,4.77,0,0,1,1.153-3.73,4.279,4.279,0,0,1,3.6-1.334l31.6.012L59.608,13.272V60.5a4.335,4.335,0,0,1-4.99,3.839,4.946,4.946,0,0,1-1.186,3.725,4.715,4.715,0,0,1-3.843,1.294,4.294,4.294,0,0,1-4.276,3.75L4.247,73.1A4.12,4.12,0,0,1,.033,69.077L0,53.6a1.081,1.081,0,1,1,2.159.1L2.2,69.21A2.039,2.039,0,0,0,4.275,71l40.794.006a2.271,2.271,0,0,0,2.324-1.6l-6.31-.068a1.067,1.067,0,0,1-1.019-1.133,1.094,1.094,0,0,1,1.176-1.021l9.569-.077c1.239-.01,1.917-1.586,1.557-2.706l-38.033-.038a4.154,4.154,0,0,1-4.3-4.14l-.02-42.556a.986.986,0,0,1,.959-1.055c.443-.048,1.162.171,1.162.857l.016,42.577a2.071,2.071,0,0,0,2.152,2.17ZM48.984,12.7l6.846-.073-8.855-8.89-.046,6.99A2.126,2.126,0,0,0,48.984,12.7" transform="translate(0 0)" fill="#19538d"/>
        <path id="Trazado_1031770" data-name="Trazado 1031770" d="M114.8,103.554l-28.336,0a1.108,1.108,0,0,1-1.242-1.008,1.035,1.035,0,0,1,1.04-1.172H114.9a1.089,1.089,0,0,1,1,.966,1.055,1.055,0,0,1-1.1,1.211" transform="translate(-65.751 -78.22)" fill="#19538d"/>
        <path id="Trazado_1031771" data-name="Trazado 1031771" d="M114.939,138.209l-28.636.016a1.126,1.126,0,0,1-1.069-.944,1.047,1.047,0,0,1,1.019-1.22l28.458-.013a1.118,1.118,0,0,1,1.182.828c.1.416-.142,1.333-.954,1.333" transform="translate(-65.755 -104.972)" fill="#19538d"/>
        <path id="Trazado_1031772" data-name="Trazado 1031772" d="M114.739,173.076l-28.5-.011a1.072,1.072,0,1,1,.217-2.131l28.507.01a.977.977,0,0,1,.96,1.039,1.072,1.072,0,0,1-1.182,1.093" transform="translate(-65.766 -131.89)" fill="#19538d"/>
      </g>
    </g>
  </g>
</svg>
