<svg xmlns="http://www.w3.org/2000/svg" xmlns:xlink="http://www.w3.org/1999/xlink" width="128" height="128" viewBox="0 0 128 128">
  <defs>
    <clipPath id="clip-path">
      <rect id="Rectángulo_456267" data-name="Rectángulo 456267" width="128" height="128" fill="none"/>
    </clipPath>
    <clipPath id="clip-path-2">
      <rect id="Rectángulo_466886" data-name="Rectángulo 466886" width="66.737" height="66.755" fill="#19538d"/>
    </clipPath>
  </defs>
  <g id="Grupo_1180063" data-name="Grupo 1180063" transform="translate(511.746 8527) rotate(180)">
    <path id="Trazado_999622" data-name="Trazado 999622" d="M59.07,0A59.07,59.07,0,1,1,0,59.07,59.071,59.071,0,0,1,59.07,0" transform="translate(388.676 8403.93)" fill="#fff"/>
    <g id="Grupo_1179902" data-name="Grupo 1179902" transform="translate(383.746 8399)">
      <g id="Grupo_1179905" data-name="Grupo 1179905" clip-path="url(#clip-path)">
        <path id="Trazado_999618" data-name="Trazado 999618" d="M64,0A64,64,0,1,1,0,64,64,64,0,0,1,64,0" fill="none"/>
        <path id="Trazado_999619" data-name="Trazado 999619" d="M5,59a5,5,0,1,1-5,5,5,5,0,0,1,5-5" fill="#19538d"/>
        <path id="Trazado_999620" data-name="Trazado 999620" d="M21,19a5,5,0,1,1-5,5,5,5,0,0,1,5-5" fill="#19538d"/>
        <path id="Trazado_999621" data-name="Trazado 999621" d="M64,124A60.068,60.068,0,0,1,4,64H7A57,57,0,1,0,22.408,25.024L20.22,22.972A60,60,0,1,1,64,124" fill="#19538d"/>
        <rect id="Rectángulo_456268" data-name="Rectángulo 456268" width="128" height="128" fill="none"/>
        <rect id="Rectángulo_456269" data-name="Rectángulo 456269" width="128" height="128" fill="none"/>
      </g>
    </g>
    <g id="Grupo_1180630" data-name="Grupo 1180630" transform="translate(478.203 8498.271) rotate(180)">
      <g id="Grupo_1180629" data-name="Grupo 1180629" clip-path="url(#clip-path-2)">
        <path id="Trazado_1031782" data-name="Trazado 1031782" d="M38.617,57.2,34.4,57.16l-.044,3.692a1.493,1.493,0,0,1-1.447,1.476l-31.413,0A1.576,1.576,0,0,1,0,60.631L0,12.117a1.692,1.692,0,0,1,1.75-1.809l3.364-.01.03-3.449c.019-2.182,2.528-1.676,5.1-1.691l.039-3.5A1.628,1.628,0,0,1,11.926,0L48.341,0a1.577,1.577,0,0,1,1.553,1.673V36.215a12.844,12.844,0,0,1,10.46,8.3.987.987,0,1,1-1.81.786,10.834,10.834,0,1,0,.612,4.081.941.941,0,0,1,.818-.991c2.03-.31.912,4.066-.418,6.672L65.531,60.4a3.657,3.657,0,0,1,.4,5,3.531,3.531,0,0,1-4.955.579l-6.588-5.8A12.778,12.778,0,0,1,38.617,57.2m-16.445-7.18,13.509.051a12.435,12.435,0,0,1,.989-6.3l-2.884-.025a1,1,0,0,1-.964-1.083.958.958,0,0,1,1.037-.862l3.909-.033a12.838,12.838,0,0,1,10.175-5.65l0-34.184-35.667.007v48.1l5.244-.018a4.856,4.856,0,0,0,4.751-4.8l.033-2.5a.947.947,0,0,1,.928-.929l6.3,0a.936.936,0,0,1,.973,1.04c-.024.567-.452.9-1.112.907l-5.238.022a7.528,7.528,0,0,1-1.985,6.25M5.142,55.363,5.152,41.9a.951.951,0,0,1,.989-1.026c.33.015.943.3.944.848l.016,13.5L37.189,55.2A25.336,25.336,0,0,1,35.946,52l-24.668,0A.936.936,0,0,1,10.286,51L10.281,7.117,7.1,7.11,7.083,37.878c0,.614-.752.91-1.1.829a1,1,0,0,1-.836-.994v-25.4a23.843,23.843,0,0,0-3.2,0V60.376l30.476,0,0-3.212L6.49,57.12c-.836,0-1.349-.936-1.348-1.757m57.05,9.09a1.588,1.588,0,0,0,2.152-.212,1.789,1.789,0,0,0,.113-2.174l-6.009-5.36a11.138,11.138,0,0,1-2.378,2.376Z" transform="translate(0 0)" fill="#19538d"/>
        <path id="Trazado_1031783" data-name="Trazado 1031783" d="M208.585,202.9a8.339,8.339,0,1,1-8.339-8.339,8.339,8.339,0,0,1,8.339,8.339m-1.956-.007a6.381,6.381,0,1,0-6.381,6.381,6.38,6.38,0,0,0,6.381-6.381" transform="translate(-151.888 -153.986)" fill="#19538d"/>
        <path id="Trazado_1031784" data-name="Trazado 1031784" d="M155.862,37.371l.018,2.789,9.656.024.014-9.7-9.682,0a21.827,21.827,0,0,1-.05,2.49.919.919,0,0,1-.93.592c-.293,0-.877-.154-.88-.612l-.023-3.079c-.006-.81.859-1.327,1.627-1.328l10.03-.011a1.662,1.662,0,0,1,1.851,1.561l.014,10.4a1.621,1.621,0,0,1-1.668,1.655l-10.407-.011a1.576,1.576,0,0,1-1.488-1.62l0-3.156a.964.964,0,1,1,1.922,0" transform="translate(-121.839 -22.585)" fill="#19538d"/>
        <path id="Trazado_1031785" data-name="Trazado 1031785" d="M90.611,170.359l-19.748,0a1.007,1.007,0,0,1-1.129-.917.922.922,0,0,1,.98-1.047H90.762a.955.955,0,0,1,.955,1.046.978.978,0,0,1-1.106.912" transform="translate(-55.191 -133.285)" fill="#19538d"/>
        <path id="Trazado_1031786" data-name="Trazado 1031786" d="M86.5,144.267l-15.6.01a1.129,1.129,0,0,1-1.109-.725c-.156-.452.065-1.23.706-1.23H86.82c.519,0,.762.712.713,1.05a1.082,1.082,0,0,1-1.029.9" transform="translate(-55.204 -112.644)" fill="#19538d"/>
        <path id="Trazado_1031787" data-name="Trazado 1031787" d="M122.005,118.385l-13.618.028a1.014,1.014,0,0,1-.963-.963.982.982,0,0,1,1.043-1.016l13.377,0a.978.978,0,0,1,.94.85c.054.378-.113,1.1-.778,1.1" transform="translate(-85.022 -92.154)" fill="#19538d"/>
        <path id="Trazado_1031788" data-name="Trazado 1031788" d="M84.092,37.945l-13.379.009a1.034,1.034,0,0,1-.965-.856.951.951,0,0,1,.919-1.109l13.29-.015a.99.99,0,0,1,1.024.947.951.951,0,0,1-.888,1.024" transform="translate(-55.194 -28.472)" fill="#19538d"/>
        <path id="Trazado_1031789" data-name="Trazado 1031789" d="M83.958,58.414l-13.117.011a.984.984,0,0,1-1.1-.945,1.011,1.011,0,0,1,.978-1.035l13.335.007a.945.945,0,0,1,.93,1.014.977.977,0,0,1-1.023.948" transform="translate(-55.195 -44.675)" fill="#19538d"/>
        <path id="Trazado_1031790" data-name="Trazado 1031790" d="M84.272,78.807l-13.626.026a.937.937,0,0,1-.894-.963.961.961,0,0,1,1.1-.95l13.119.011a.93.93,0,0,1,1.007.776c.058.319-.033,1.1-.705,1.1" transform="translate(-55.207 -60.88)" fill="#19538d"/>
        <path id="Trazado_1031791" data-name="Trazado 1031791" d="M176.079,144.151l-8.95,0a1.094,1.094,0,0,1-1.082-.89,1.006,1.006,0,0,1,1.039-1.083l9.307.036c.574,0,.77.626.718,1.042a.98.98,0,0,1-1.031.891" transform="translate(-131.418 -112.533)" fill="#19538d"/>
      </g>
    </g>
  </g>
</svg>
