<svg xmlns="http://www.w3.org/2000/svg" xmlns:xlink="http://www.w3.org/1999/xlink" width="128" height="128" viewBox="0 0 128 128">
  <defs>
    <clipPath id="clip-path">
      <rect id="Rectángulo_456267" data-name="Rectángulo 456267" width="128" height="128" fill="none"/>
    </clipPath>
    <clipPath id="clip-path-2">
      <rect id="Rectángulo_466887" data-name="Rectángulo 466887" width="56.399" height="66.879" fill="#19538d"/>
    </clipPath>
  </defs>
  <g id="Grupo_1180071" data-name="Grupo 1180071" transform="translate(511.746 8527) rotate(180)">
    <path id="Trazado_999622" data-name="Trazado 999622" d="M59.07,0A59.07,59.07,0,1,1,0,59.07,59.071,59.071,0,0,1,59.07,0" transform="translate(388.676 8403.93)" fill="#fff"/>
    <g id="Grupo_1179902" data-name="Grupo 1179902" transform="translate(383.746 8399)">
      <g id="Grupo_1179905" data-name="Grupo 1179905" clip-path="url(#clip-path)">
        <path id="Trazado_999618" data-name="Trazado 999618" d="M64,0A64,64,0,1,1,0,64,64,64,0,0,1,64,0" fill="none"/>
        <path id="Trazado_999619" data-name="Trazado 999619" d="M5,59a5,5,0,1,1-5,5,5,5,0,0,1,5-5" fill="#19538d"/>
        <path id="Trazado_999620" data-name="Trazado 999620" d="M21,19a5,5,0,1,1-5,5,5,5,0,0,1,5-5" fill="#19538d"/>
        <path id="Trazado_999621" data-name="Trazado 999621" d="M64,124A60.068,60.068,0,0,1,4,64H7A57,57,0,1,0,22.408,25.024L20.22,22.972A60,60,0,1,1,64,124" fill="#19538d"/>
        <rect id="Rectángulo_456268" data-name="Rectángulo 456268" width="128" height="128" fill="none"/>
        <rect id="Rectángulo_456269" data-name="Rectángulo 456269" width="128" height="128" fill="none"/>
      </g>
    </g>
    <g id="Grupo_1180632" data-name="Grupo 1180632" transform="translate(475.945 8496.439) rotate(180)">
      <g id="Grupo_1180631" data-name="Grupo 1180631" clip-path="url(#clip-path-2)">
        <path id="Trazado_1031792" data-name="Trazado 1031792" d="M53.355,66.86l-41.835.019A3.111,3.111,0,0,1,9,65.658a4.217,4.217,0,0,1-.592-3.019,3.9,3.9,0,0,1-3.278-.795,4.08,4.08,0,0,1-.941-3.422c-1.833.409-4.146-.57-4.147-2.677L0,3.163A3.043,3.043,0,0,1,3.153,0L45.3.046c2.111,0,3.053,2.3,2.659,4.145a4.175,4.175,0,0,1,3.327.833A3.825,3.825,0,0,1,52.155,8.5a3.719,3.719,0,0,1,2.944.413,3.055,3.055,0,0,1,1.3,2.61l0,52.174a3,3,0,0,1-3.042,3.16M8.372,60.612l.015-41.146c0-2.472,1.751-3.8,3.99-4.18L50.219,8.874l.046-1.53A1.253,1.253,0,0,0,48.883,6.12l-3.766.022c-.783.005-1.241-.487-1.09-1.222.226-1.1,1.794-.576,2.017-.762.205-.171.116-2.2-1.011-2.2L3.192,1.945A1.207,1.207,0,0,0,1.942,3.2l.036,52.436c0,.908,1.522,1.109,2.205.854L4.194,7.34A2.958,2.958,0,0,1,7.126,4.214l33.58-.022a.944.944,0,0,1,1.023.931.934.934,0,0,1-1.01,1.011L7.555,6.128A1.29,1.29,0,0,0,6.126,7.572l.041,52.246c0,.891,1.536,1.193,2.2.794m1.955,3.08a1.277,1.277,0,0,0,1.41,1.265l41.282,0a1.325,1.325,0,0,0,1.441-1.484l0-51.907a.652.652,0,0,0-.306-.649.868.868,0,0,0-.7-.08L21.818,23.871a2.978,2.978,0,0,1-3.637-.9L14.94,18.482a2.943,2.943,0,0,0-2-1.175,2.185,2.185,0,0,0-2.6,2.067ZM21.151,22.04,46.1,11.653l-30.063,5.02,3.628,5.017a1.2,1.2,0,0,0,1.485.35" transform="translate(0 0)" fill="#19538d"/>
        <path id="Trazado_1031793" data-name="Trazado 1031793" d="M79.838,133.608l5.556,5.473a7.369,7.369,0,0,0-.5-9.536,7.459,7.459,0,0,0-9.607-1.056.962.962,0,0,1-.988-1.647,9.339,9.339,0,1,1-3,3.287.96.96,0,0,1,1.442-.375c1.106.786-.414,1.891-.514,3.854Zm-2.8,2.046-4.834-.068a7.131,7.131,0,0,0,1.443,3.512ZM84,140.443l-4.479-4.471-4.49,4.494A7.31,7.31,0,0,0,84,140.443" transform="translate(-55.503 -99.07)" fill="#19538d"/>
        <path id="Trazado_1031794" data-name="Trazado 1031794" d="M107.523,272.538l-31.275,0a.973.973,0,0,1-1.022-.941c0-.716.447-1.02,1.221-1.02h31.094a.94.94,0,0,1,1.019,1.015.96.96,0,0,1-1.038.941" transform="translate(-59.507 -214.037)" fill="#19538d"/>
        <path id="Trazado_1031795" data-name="Trazado 1031795" d="M184.6,131.4l-6.153-.009a3.068,3.068,0,0,1,0-6.136l6.254-.006a3.08,3.08,0,0,1,3.1,2.987A3.117,3.117,0,0,1,184.6,131.4m.1-1.969a1.109,1.109,0,1,0,0-2.218l-6.07-.014c-.827,0-1.343.483-1.272,1.215a1.135,1.135,0,0,0,1.271,1.036Z" transform="translate(-138.735 -99.074)" fill="#19538d"/>
        <path id="Trazado_1031796" data-name="Trazado 1031796" d="M139.237,232.406l-23.114-.014c-.581,0-.849-.721-.812-1.072a.994.994,0,0,1,1.069-.871l22.958.007a.948.948,0,0,1,.937,1.021.967.967,0,0,1-1.038.929" transform="translate(-91.212 -182.292)" fill="#19538d"/>
        <path id="Trazado_1031797" data-name="Trazado 1031797" d="M139.238,252.476H116.305a.982.982,0,0,1-.974-.8c-.1-.375.128-1.125.755-1.125l23.168-.018a.944.944,0,0,1,1.021,1.01.969.969,0,0,1-1.036.938" transform="translate(-91.212 -198.175)" fill="#19538d"/>
        <path id="Trazado_1031798" data-name="Trazado 1031798" d="M77.044,230.769a3.06,3.06,0,1,1-1.594,4.038,3.056,3.056,0,0,1,1.594-4.038m.785,1.8a1.065,1.065,0,0,0-.505,1.591,1.1,1.1,0,1,0,.505-1.591" transform="translate(-59.475 -182.347)" fill="#19538d"/>
        <path id="Trazado_1031799" data-name="Trazado 1031799" d="M187.023,187.308l-10.651-.006a.982.982,0,0,1-.994-.911.969.969,0,0,1,1-1.039l10.36,0a.994.994,0,0,1,.285,1.96" transform="translate(-138.726 -146.616)" fill="#19538d"/>
        <path id="Trazado_1031800" data-name="Trazado 1031800" d="M187.028,207.344l-10.653-.006a.982.982,0,0,1-.992-.916.963.963,0,0,1,1-1.036h10.362a1.026,1.026,0,0,1,1.021.707,1.044,1.044,0,0,1-.734,1.252" transform="translate(-138.731 -162.465)" fill="#19538d"/>
        <path id="Trazado_1031801" data-name="Trazado 1031801" d="M186.987,167.282l-10.611,0a.986.986,0,0,1-1-.909.97.97,0,0,1,1-1.046l10.536.016a.966.966,0,0,1,.881.863,1.033,1.033,0,0,1-.8,1.071" transform="translate(-138.729 -130.782)" fill="#19538d"/>
      </g>
    </g>
  </g>
</svg>
