<svg xmlns="http://www.w3.org/2000/svg" width="1020" height="600" viewBox="0 0 1020 600">
  <g id="Grupo_1180433" data-name="Grupo 1180433" transform="translate(-290 -6898.07)">
    <rect id="Rectángulo_466699" data-name="Rectángulo 466699" width="1020" height="600" rx="16" transform="translate(290 6898.07)" fill="#c0f6f2"/>
    <g id="Unión_5" data-name="Unión 5" transform="translate(1034.772 6932.694)" fill="#68c6ea">
      <path d="M 185.7768402099609 83.51660919189453 L 184.9775390625 83.51660919189453 L -0.0009611672721803188 83.51660919189453 L -2.000961065292358 83.51660919189453 L -2.000961065292358 81.51660919189453 L -2.000961065292358 -0.000981617602519691 L -2.000961065292358 -2.000981569290161 L -0.0009611672721803188 -2.000981569290161 L 184.9775390625 -2.000981569290161 L 185.77685546875 -2.000981569290161 L 186.3559875488281 -1.450069904327393 L 229.2046203613281 39.30969619750977 L 230.7280426025391 40.75881195068359 L 229.2046051025391 42.20790100097656 L 186.35595703125 82.96572113037109 L 185.7768402099609 83.51660919189453 Z" stroke="none"/>
      <path d="M -0.0009765625 -0.00098419189453125 L -0.0009765625 81.51660919189453 L 184.9775390625 81.51660919189453 L 184.9775390625 -0.00098419189453125 L -0.0009765625 -0.00098419189453125 M 184.9775390625 -0.00098419189453125 L 184.9775390625 81.51660919189453 L 227.826171875 40.7587776184082 L 184.9775390625 -0.00098419189453125 M 180.9775390625 -9.326690673828125 L 186.576171875 -4.000984191894531 L 188.9775390625 -4.000984191894531 L 188.9775390625 -1.716690063476562 L 233.6298675537109 40.75884628295898 L 188.9775390625 83.23237609863281 L 188.9775390625 85.51660919189453 L 186.5761108398438 85.51660919189453 L 180.9775390625 90.84201049804688 L 180.9775390625 85.51660919189453 L -4.0009765625 85.51660919189453 L -4.0009765625 -4.000984191894531 L 180.9775390625 -4.000984191894531 L 180.9775390625 -9.326690673828125 Z" stroke="none" fill="#12263f"/>
    </g>
    <text id="Mantenimiento_y_soporte" data-name="Mantenimiento y soporte" transform="translate(1102.178 6947.847)" fill="#12263f" font-size="17" font-family="SegoeUI, Segoe UI"><tspan x="0.896" y="18">Mantenimiento y </tspan><tspan x="35.95" y="42">soporte</tspan></text>
    <g id="Unión_4" data-name="Unión 4" transform="translate(868.603 6932.694)" fill="#7dd3ff">
      <path d="M 183.6889495849609 83.51660919189453 L 182.8896484375 83.51660919189453 L -0.0009653033339418471 83.51660919189453 L -2.000965356826782 83.51660919189453 L -2.000965356826782 81.51660919189453 L -2.000965356826782 -0.000981617602519691 L -2.000965356826782 -2.000981569290161 L -0.0009653033339418471 -2.000981569290161 L 182.8896484375 -2.000981569290161 L 183.6889801025391 -2.000981569290161 L 184.2680969238281 -1.450069904327393 L 227.1167449951172 39.30969619750977 L 228.6401519775391 40.75881195068359 L 227.1167144775391 42.20790100097656 L 184.26806640625 82.96572113037109 L 183.6889495849609 83.51660919189453 Z" stroke="none"/>
      <path d="M -0.0009765625 -0.00096893310546875 L -0.0009765625 81.51659393310547 L 182.8896484375 81.51659393310547 L 182.8896484375 -0.00096893310546875 L -0.0009765625 -0.00096893310546875 M 182.8896484375 -0.00096893310546875 L 182.8896484375 81.51659393310547 L 225.73828125 40.75878143310547 L 182.8896484375 -0.00096893310546875 M 178.8896484375 -9.326652526855469 L 184.48828125 -4.000968933105469 L 186.8896484375 -4.000968933105469 L 186.8896484375 -1.716667175292969 L 231.5419616699219 40.75884246826172 L 186.8896484375 83.23234558105469 L 186.8896484375 85.51659393310547 L 184.4882202148438 85.51659393310547 L 178.8896484375 90.84196472167969 L 178.8896484375 85.51659393310547 L -4.0009765625 85.51659393310547 L -4.0009765625 -4.000968933105469 L 178.8896484375 -4.000968933105469 L 178.8896484375 -9.326652526855469 Z" stroke="none" fill="#12263f"/>
    </g>
    <text id="Pruebas" transform="translate(927.127 6958.298)" fill="#12263f" font-size="17" font-family="SegoeUI, Segoe UI"><tspan x="34.896" y="18">Pruebas</tspan></text>
    <g id="Unión_3" data-name="Unión 3" transform="translate(680.49 6932.694)" fill="#ffe2bc">
      <path d="M 193.0922546386719 83.51659393310547 L 192.29296875 83.51659393310547 L -0.0009687499841675162 83.51659393310547 L -2.00096869468689 83.51659393310547 L -2.00096869468689 81.51659393310547 L -2.00096869468689 -0.0009687499841675162 L -2.00096869468689 -2.00096869468689 L -0.0009687499841675162 -2.00096869468689 L 192.29296875 -2.00096869468689 L 193.09228515625 -2.00096869468689 L 193.6714019775391 -1.45006251335144 L 236.5200347900391 39.30968856811523 L 238.0434417724609 40.75881195068359 L 236.5200042724609 42.20790481567383 L 193.6713714599609 82.96572113037109 L 193.0922546386719 83.51659393310547 Z" stroke="none"/>
      <path d="M -0.0009918212890625 -0.00098419189453125 L -0.0009918212890625 81.51660919189453 L 192.2929840087891 81.51660919189453 L 192.2929840087891 -0.00098419189453125 L -0.0009918212890625 -0.00098419189453125 M 192.2929840087891 -0.00098419189453125 L 192.2929840087891 81.51660919189453 L 235.1416168212891 40.7587776184082 L 192.2929840087891 -0.00098419189453125 M 188.2929840087891 -9.326690673828125 L 193.8916168212891 -4.000984191894531 L 196.2929840087891 -4.000984191894531 L 196.2929840087891 -1.716690063476562 L 240.9453125 40.75884628295898 L 196.2929840087891 83.23237609863281 L 196.2929840087891 85.51660919189453 L 193.8915710449219 85.51660919189453 L 188.2929840087891 90.84201049804688 L 188.2929840087891 85.51660919189453 L -4.000991821289062 85.51660919189453 L -4.000991821289062 -4.000984191894531 L 188.2929840087891 -4.000984191894531 L 188.2929840087891 -9.326690673828125 Z" stroke="none" fill="#12263f"/>
    </g>
    <text id="Implementación" transform="translate(756.479 6958.298)" fill="#12263f" font-size="17" font-family="SegoeUI, Segoe UI"><tspan x="4.154" y="18">Implementación</tspan></text>
    <g id="Unión_2" data-name="Unión 2" transform="translate(511.931 6932.694)" fill="#ffcc74">
      <path d="M 182.64208984375 83.51660919189453 L 181.8427886962891 83.51660919189453 L -2.75735283139511e-06 83.51660919189453 L -2.000002861022949 83.51660919189453 L -2.000002861022949 81.51660919189453 L -2.000002861022949 -0.000981617602519691 L -2.000002861022949 -2.000981569290161 L -2.75735283139511e-06 -2.000981569290161 L 181.8427886962891 -2.000981569290161 L 182.6421203613281 -2.000981569290161 L 183.2212371826172 -1.450069904327393 L 226.0698547363281 39.30969619750977 L 227.59326171875 40.75881195068359 L 226.06982421875 42.20790100097656 L 183.2212066650391 82.96572113037109 L 182.64208984375 83.51660919189453 Z" stroke="none"/>
      <path d="M -1.52587890625e-05 -0.00096893310546875 L -1.52587890625e-05 81.51659393310547 L 181.8427734375 81.51659393310547 L 181.8427734375 -0.00096893310546875 L -1.52587890625e-05 -0.00096893310546875 M 181.8427734375 -0.00096893310546875 L 181.8427734375 81.51659393310547 L 224.6913909912109 40.75878143310547 L 181.8427734375 -0.00096893310546875 M 177.8427734375 -9.326652526855469 L 183.4413909912109 -4.000968933105469 L 185.8427734375 -4.000968933105469 L 185.8427734375 -1.716667175292969 L 230.4950714111328 40.75884246826172 L 185.8427734375 83.23234558105469 L 185.8427734375 85.51659393310547 L 183.4413452148438 85.51659393310547 L 177.8427734375 90.84196472167969 L 177.8427734375 85.51659393310547 L -4.000015258789062 85.51659393310547 L -4.000015258789062 -4.000968933105469 L 177.8427734375 -4.000968933105469 L 177.8427734375 -9.326652526855469 Z" stroke="none" fill="#12263f"/>
    </g>
    <text id="Diseño" transform="translate(572.173 6958.298)" fill="#12263f" font-size="17" font-family="SegoeUI, Segoe UI"><tspan x="36.844" y="18">Diseño</tspan></text>
    <g id="Unión_1" data-name="Unión 1" transform="translate(337.402 6932.694)" fill="#ffb758">
      <path d="M 179.50634765625 83.51660919189453 L 178.7070465087891 83.51660919189453 L -0.0009797794045880437 83.51660919189453 L -2.000979661941528 83.51660919189453 L -2.000979661941528 81.51660919189453 L -2.000979661941528 -0.000981617602519691 L -2.000979661941528 -2.000981569290161 L -0.0009797794045880437 -2.000981569290161 L 178.7070465087891 -2.000981569290161 L 179.5063781738281 -2.000981569290161 L 180.0854949951172 -1.450069904327393 L 222.9341125488281 39.30969619750977 L 224.45751953125 40.75881195068359 L 222.93408203125 42.20790100097656 L 180.0854644775391 82.96572113037109 L 179.50634765625 83.51660919189453 Z" stroke="none"/>
      <path d="M -0.0009613037109375 -0.00096893310546875 L -0.0009613037109375 81.51659393310547 L 178.70703125 81.51659393310547 L 178.70703125 -0.00096893310546875 L -0.0009613037109375 -0.00096893310546875 M 178.70703125 -0.00096893310546875 L 178.70703125 81.51659393310547 L 221.5556488037109 40.75878143310547 L 178.70703125 -0.00096893310546875 M 174.70703125 -9.326652526855469 L 180.3056640625 -4.000968933105469 L 182.70703125 -4.000968933105469 L 182.70703125 -1.716667175292969 L 227.3593444824219 40.75884246826172 L 182.70703125 83.23234558105469 L 182.70703125 85.51659393310547 L 180.3056030273438 85.51659393310547 L 174.70703125 90.84196472167969 L 174.70703125 85.51659393310547 L -4.000961303710938 85.51659393310547 L -4.000961303710938 -4.000968933105469 L 174.70703125 -4.000968933105469 L 174.70703125 -9.326652526855469 Z" stroke="none" fill="#12263f"/>
    </g>
    <text id="Requisitos" transform="translate(375.697 6958.298)" fill="#12263f" font-size="17" font-family="SegoeUI, Segoe UI"><tspan x="24.417" y="18">Requisitos</tspan></text>
    <g id="Rectángulo_466711" data-name="Rectángulo 466711" transform="translate(337.711 7147.21)" fill="#fff" stroke="#12263f" stroke-width="3">
      <rect width="158" height="273" rx="14" stroke="none"/>
      <rect x="-1.5" y="-1.5" width="161" height="276" rx="15.5" fill="none"/>
    </g>
    <g id="Rectángulo_466712" data-name="Rectángulo 466712" transform="translate(529.711 7147.21)" fill="#fff" stroke="#12263f" stroke-width="3">
      <rect width="158" height="273" rx="14" stroke="none"/>
      <rect x="-1.5" y="-1.5" width="161" height="276" rx="15.5" fill="none"/>
    </g>
    <g id="Rectángulo_466713" data-name="Rectángulo 466713" transform="translate(721.711 7147.21)" fill="#fff" stroke="#12263f" stroke-width="3">
      <rect width="158" height="273" rx="14" stroke="none"/>
      <rect x="-1.5" y="-1.5" width="161" height="276" rx="15.5" fill="none"/>
    </g>
    <g id="Rectángulo_466714" data-name="Rectángulo 466714" transform="translate(912.711 7147.21)" fill="#fff" stroke="#12263f" stroke-width="3">
      <rect width="158" height="273" rx="14" stroke="none"/>
      <rect x="-1.5" y="-1.5" width="161" height="276" rx="15.5" fill="none"/>
    </g>
    <g id="Rectángulo_466715" data-name="Rectángulo 466715" transform="translate(1104.711 7147.21)" fill="#fff" stroke="#12263f" stroke-width="3">
      <rect width="158" height="273" rx="14" stroke="none"/>
      <rect x="-1.5" y="-1.5" width="161" height="276" rx="15.5" fill="none"/>
    </g>
    <g id="Rectángulo_466706" data-name="Rectángulo 466706" transform="translate(529.711 7100.21)" fill="#ffcc74" stroke="#12263f" stroke-width="3">
      <rect width="158" height="71" rx="14" stroke="none"/>
      <rect x="-1.5" y="-1.5" width="161" height="74" rx="15.5" fill="none"/>
    </g>
    <g id="Rectángulo_466708" data-name="Rectángulo 466708" transform="translate(1104.711 7100.21)" fill="#68c6ea" stroke="#12263f" stroke-width="3">
      <rect width="158" height="71" rx="14" stroke="none"/>
      <rect x="-1.5" y="-1.5" width="161" height="74" rx="15.5" fill="none"/>
    </g>
    <g id="Rectángulo_466709" data-name="Rectángulo 466709" transform="translate(912.711 7100.21)" fill="#7dd3ff" stroke="#12263f" stroke-width="3">
      <rect width="158" height="71" rx="14" stroke="none"/>
      <rect x="-1.5" y="-1.5" width="161" height="74" rx="15.5" fill="none"/>
    </g>
    <g id="Rectángulo_466710" data-name="Rectángulo 466710" transform="translate(721.711 7100.21)" fill="#ffe2bc" stroke="#12263f" stroke-width="3">
      <rect width="158" height="71" rx="14" stroke="none"/>
      <rect x="-1.5" y="-1.5" width="161" height="74" rx="15.5" fill="none"/>
    </g>
    <text id="Verificación_y_validación" data-name="Verificación y validación" transform="translate(933.158 7112.416)" fill="#12263f" font-size="17" font-family="SegoeUI, Segoe UI"><tspan x="9.168" y="18">Verificación y </tspan><tspan x="20.934" y="42">validación</tspan></text>
    <text id="Gestión_de_cambios" data-name="Gestión de cambios" transform="translate(1125.157 7112.416)" fill="#12263f" font-size="17" font-family="SegoeUI, Segoe UI"><tspan x="18.162" y="18">Gestión de </tspan><tspan x="27.338" y="42">cambios</tspan></text>
    <text id="Análisis" transform="translate(550.158 7124.063)" fill="#12263f" font-size="17" font-family="SegoeUI, Segoe UI"><tspan x="30.546" y="18">Análisis</tspan></text>
    <text id="Documentación" transform="translate(740.447 7124.063)" fill="#12263f" font-size="17" font-family="SegoeUI, Segoe UI"><tspan x="0.819" y="18">Documentación</tspan></text>
    <g id="Rectángulo_466705" data-name="Rectángulo 466705" transform="translate(337.711 7100.21)" fill="#ffb758" stroke="#12263f" stroke-width="3">
      <rect width="158" height="71" rx="14" stroke="none"/>
      <rect x="-1.5" y="-1.5" width="161" height="74" rx="15.5" fill="none"/>
    </g>
    <text id="Recopilación_y_obtención" data-name="Recopilación y obtención" transform="translate(357.902 7112.416)" fill="#12263f" font-size="17" font-family="SegoeUI, Segoe UI"><tspan x="4.71" y="18">Recopilación y </tspan><tspan x="20.664" y="42">obtención</tspan></text>
    <text id="_Buscar_recopilar_e_investigar_Identificar_y_derivar" data-name="• Buscar, recopilar e investigar
• Identificar y derivar" transform="translate(351.402 7187.416)" fill="#12263f" font-size="16" font-family="SegoeUI, Segoe UI"><tspan x="0" y="17">• Buscar, recopilar </tspan><tspan x="0" y="41">e investigar</tspan><tspan x="0" y="65">• Identificar y </tspan><tspan x="0" y="89">derivar</tspan></text>
    <text id="_Aclarar_detallar_y_perfeccionar_Elaborar_modelos_formales_de_requisitos" data-name="• Aclarar, detallar y perfeccionar
• Elaborar modelos formales de requisitos" transform="translate(543.158 7187.416)" fill="#12263f" font-size="16" font-family="SegoeUI, Segoe UI"><tspan x="0" y="17">• Aclarar, detallar </tspan><tspan x="0" y="41">y perfeccionar</tspan><tspan x="0" y="65">• Elaborar </tspan><tspan x="0" y="89">modelos formales </tspan><tspan x="0" y="113">de requisitos</tspan></text>
    <text id="_Eliminar_ambigüedades_Documentar" data-name="• Eliminar ambigüedades
•Documentar" transform="translate(735.158 7187.416)" fill="#12263f" font-size="16" font-family="SegoeUI, Segoe UI"><tspan x="0" y="17">• Eliminar </tspan><tspan x="0" y="41">ambigüedades</tspan><tspan x="0" y="65">•Documentar</tspan></text>
    <text id="_Verificar_la_integridad_y_la_precisión_Validar_la_corrección_con_las_partes_interesadas" data-name="• Verificar la integridad y la precisión
• Validar la corrección con las partes interesadas" transform="translate(926.158 7187.416)" fill="#12263f" font-size="16" font-family="SegoeUI, Segoe UI"><tspan x="0" y="17">• Verificar la </tspan><tspan x="0" y="41">integridad y la </tspan><tspan x="0" y="65">precisión</tspan><tspan x="0" y="89">• Validar la </tspan><tspan x="0" y="113">corrección con las </tspan><tspan x="0" y="137">partes interesadas</tspan></text>
    <text id="_Realizar_un_seguimiento_de_los_cambios_Actualizar_los_cambios_Eliminar_inconsistencias_Modificar_documentos" data-name="• Realizar un seguimiento de los cambios
• Actualizar los cambios
• Eliminar inconsistencias
• Modificar documentos" transform="translate(1118.414 7187.416)" fill="#12263f" font-size="16" font-family="SegoeUI, Segoe UI"><tspan x="0" y="17">• Realizar un </tspan><tspan x="0" y="41">seguimiento de </tspan><tspan x="0" y="65">los cambios</tspan><tspan x="0" y="89">• Actualizar los </tspan><tspan x="0" y="113">cambios</tspan><tspan x="0" y="137">• Eliminar </tspan><tspan x="0" y="161">inconsistencias</tspan><tspan x="0" y="185">• Modificar </tspan><tspan x="0" y="209">documentos</tspan></text>
    <g id="Unión_6" data-name="Unión 6" transform="translate(-11196.789 17343.422) rotate(-90)" fill="#ffb758">
      <path d="M 10214.5439453125 11721.232421875 L 10213.2685546875 11719.1748046875 L 10206.4345703125 11708.1435546875 L 10205.0166015625 11705.853515625 L 10207.7099609375 11705.853515625 L 10210.7265625 11705.853515625 L 10210.7265625 11699.998046875 L 10210.7265625 11698.498046875 L 10212.2265625 11698.498046875 L 10217.255859375 11698.498046875 L 10218.755859375 11698.498046875 L 10218.755859375 11699.998046875 L 10218.755859375 11705.853515625 L 10221.37890625 11705.853515625 L 10224.0732421875 11705.853515625 L 10222.654296875 11708.1435546875 L 10215.8193359375 11719.1748046875 L 10214.5439453125 11721.232421875 Z" stroke="none"/>
      <path d="M 10212.2265625 11699.998046875 L 10212.2265625 11707.353515625 L 10207.7099609375 11707.353515625 L 10214.5439453125 11718.384765625 L 10221.37890625 11707.353515625 L 10217.255859375 11707.353515625 L 10217.255859375 11699.998046875 L 10212.2265625 11699.998046875 M 10209.2265625 11696.998046875 L 10220.255859375 11696.998046875 L 10220.255859375 11704.353515625 L 10226.7666015625 11704.353515625 L 10214.5439453125 11724.0810546875 L 10202.322265625 11704.353515625 L 10209.2265625 11704.353515625 L 10209.2265625 11696.998046875 Z" stroke="none" fill="#12263f"/>
    </g>
    <g id="Unión_7" data-name="Unión 7" transform="translate(-11005.416 17343.422) rotate(-90)" fill="#ffcc74">
      <path d="M 10214.5439453125 11721.232421875 L 10213.2685546875 11719.1748046875 L 10206.4345703125 11708.1435546875 L 10205.0166015625 11705.853515625 L 10207.7099609375 11705.853515625 L 10210.7265625 11705.853515625 L 10210.7265625 11699.998046875 L 10210.7265625 11698.498046875 L 10212.2265625 11698.498046875 L 10217.255859375 11698.498046875 L 10218.755859375 11698.498046875 L 10218.755859375 11699.998046875 L 10218.755859375 11705.853515625 L 10221.37890625 11705.853515625 L 10224.0732421875 11705.853515625 L 10222.654296875 11708.1435546875 L 10215.8193359375 11719.1748046875 L 10214.5439453125 11721.232421875 Z" stroke="none"/>
      <path d="M 10212.2265625 11699.998046875 L 10212.2265625 11707.353515625 L 10207.7099609375 11707.353515625 L 10214.5439453125 11718.384765625 L 10221.37890625 11707.353515625 L 10217.255859375 11707.353515625 L 10217.255859375 11699.998046875 L 10212.2265625 11699.998046875 M 10209.2265625 11696.998046875 L 10220.255859375 11696.998046875 L 10220.255859375 11704.353515625 L 10226.7666015625 11704.353515625 L 10214.5439453125 11724.0810546875 L 10202.322265625 11704.353515625 L 10209.2265625 11704.353515625 L 10209.2265625 11696.998046875 Z" stroke="none" fill="#12263f"/>
    </g>
    <g id="Unión_8" data-name="Unión 8" transform="translate(-10813.127 17343.422) rotate(-90)" fill="#ffe2bc">
      <path d="M 10214.5439453125 11721.232421875 L 10213.2685546875 11719.1748046875 L 10206.4345703125 11708.1435546875 L 10205.0166015625 11705.853515625 L 10207.7099609375 11705.853515625 L 10210.7265625 11705.853515625 L 10210.7265625 11699.998046875 L 10210.7265625 11698.498046875 L 10212.2265625 11698.498046875 L 10217.255859375 11698.498046875 L 10218.755859375 11698.498046875 L 10218.755859375 11699.998046875 L 10218.755859375 11705.853515625 L 10221.37890625 11705.853515625 L 10224.0732421875 11705.853515625 L 10222.654296875 11708.1435546875 L 10215.8193359375 11719.1748046875 L 10214.5439453125 11721.232421875 Z" stroke="none"/>
      <path d="M 10212.2265625 11699.998046875 L 10212.2265625 11707.353515625 L 10207.7099609375 11707.353515625 L 10214.5439453125 11718.384765625 L 10221.37890625 11707.353515625 L 10217.255859375 11707.353515625 L 10217.255859375 11699.998046875 L 10212.2265625 11699.998046875 M 10209.2265625 11696.998046875 L 10220.255859375 11696.998046875 L 10220.255859375 11704.353515625 L 10226.7666015625 11704.353515625 L 10214.5439453125 11724.0810546875 L 10202.322265625 11704.353515625 L 10209.2265625 11704.353515625 L 10209.2265625 11696.998046875 Z" stroke="none" fill="#12263f"/>
    </g>
    <g id="Unión_9" data-name="Unión 9" transform="translate(-10622.127 17343.422) rotate(-90)" fill="#7dd3ff">
      <path d="M 10214.5439453125 11721.232421875 L 10213.2685546875 11719.1748046875 L 10206.4345703125 11708.1435546875 L 10205.0166015625 11705.853515625 L 10207.7099609375 11705.853515625 L 10210.7265625 11705.853515625 L 10210.7265625 11699.998046875 L 10210.7265625 11698.498046875 L 10212.2265625 11698.498046875 L 10217.255859375 11698.498046875 L 10218.755859375 11698.498046875 L 10218.755859375 11699.998046875 L 10218.755859375 11705.853515625 L 10221.37890625 11705.853515625 L 10224.0732421875 11705.853515625 L 10222.654296875 11708.1435546875 L 10215.8193359375 11719.1748046875 L 10214.5439453125 11721.232421875 Z" stroke="none"/>
      <path d="M 10212.2265625 11699.998046875 L 10212.2265625 11707.353515625 L 10207.7099609375 11707.353515625 L 10214.5439453125 11718.384765625 L 10221.37890625 11707.353515625 L 10217.255859375 11707.353515625 L 10217.255859375 11699.998046875 L 10212.2265625 11699.998046875 M 10209.2265625 11696.998046875 L 10220.255859375 11696.998046875 L 10220.255859375 11704.353515625 L 10226.7666015625 11704.353515625 L 10214.5439453125 11724.0810546875 L 10202.322265625 11704.353515625 L 10209.2265625 11704.353515625 L 10209.2265625 11696.998046875 Z" stroke="none" fill="#12263f"/>
    </g>
    <g id="Unión_10" data-name="Unión 10" transform="translate(-9030.578 -4627.314)" fill="#19538d">
      <path d="M 10214.5439453125 11721.232421875 L 10213.2685546875 11719.1748046875 L 10206.4345703125 11708.1435546875 L 10205.0166015625 11705.853515625 L 10207.7099609375 11705.853515625 L 10210.7265625 11705.853515625 L 10210.7265625 11651.9990234375 L 10210.7265625 11650.4990234375 L 10212.2265625 11650.4990234375 L 10217.255859375 11650.4990234375 L 10218.755859375 11650.4990234375 L 10218.755859375 11651.9990234375 L 10218.755859375 11705.853515625 L 10221.37890625 11705.853515625 L 10224.0732421875 11705.853515625 L 10222.654296875 11708.1435546875 L 10215.8193359375 11719.1748046875 L 10214.5439453125 11721.232421875 Z" stroke="none"/>
      <path d="M 10214.5439453125 11718.384765625 L 10221.37890625 11707.353515625 L 10217.255859375 11707.353515625 L 10217.255859375 11651.9990234375 L 10212.2265625 11651.9990234375 L 10212.2265625 11707.353515625 L 10207.7099609375 11707.353515625 L 10214.5439453125 11718.384765625 M 10214.5439453125 11724.0810546875 L 10202.322265625 11704.353515625 L 10209.2265625 11704.353515625 L 10209.2265625 11648.9990234375 L 10220.255859375 11648.9990234375 L 10220.255859375 11704.353515625 L 10226.7666015625 11704.353515625 L 10214.5439453125 11724.0810546875 Z" stroke="none" fill="#12263f"/>
    </g>
    <g id="Unión_11" data-name="Unión 11" transform="translate(-9797.834 -4627.314)" fill="#19538d">
      <path d="M 10214.5439453125 11721.232421875 L 10213.2685546875 11719.1748046875 L 10206.4345703125 11708.1435546875 L 10205.0166015625 11705.853515625 L 10207.7099609375 11705.853515625 L 10210.7265625 11705.853515625 L 10210.7265625 11651.9990234375 L 10210.7265625 11650.4990234375 L 10212.2265625 11650.4990234375 L 10217.255859375 11650.4990234375 L 10218.755859375 11650.4990234375 L 10218.755859375 11651.9990234375 L 10218.755859375 11705.853515625 L 10221.37890625 11705.853515625 L 10224.0732421875 11705.853515625 L 10222.654296875 11708.1435546875 L 10215.8193359375 11719.1748046875 L 10214.5439453125 11721.232421875 Z" stroke="none"/>
      <path d="M 10214.5439453125 11718.384765625 L 10221.37890625 11707.353515625 L 10217.255859375 11707.353515625 L 10217.255859375 11651.9990234375 L 10212.2265625 11651.9990234375 L 10212.2265625 11707.353515625 L 10207.7099609375 11707.353515625 L 10214.5439453125 11718.384765625 M 10214.5439453125 11724.0810546875 L 10202.322265625 11704.353515625 L 10209.2265625 11704.353515625 L 10209.2265625 11648.9990234375 L 10220.255859375 11648.9990234375 L 10220.255859375 11704.353515625 L 10226.7666015625 11704.353515625 L 10214.5439453125 11724.0810546875 Z" stroke="none" fill="#12263f"/>
    </g>
    <g id="Unión_12" data-name="Unión 12" transform="translate(-9797.836 -4272.435)" fill="#19538d">
      <path d="M 10988.3330078125 11737.5322265625 L 10986.8330078125 11737.5322265625 L 10211.8359375 11737.5322265625 L 10210.3359375 11737.5322265625 L 10210.3359375 11736.0322265625 L 10210.3359375 11714.177734375 L 10207.7099609375 11714.177734375 L 10205.015625 11714.177734375 L 10206.4345703125 11711.8876953125 L 10213.2705078125 11700.8544921875 L 10214.5458984375 11698.796875 L 10215.8212890625 11700.8544921875 L 10222.6572265625 11711.8876953125 L 10224.076171875 11714.177734375 L 10221.3818359375 11714.177734375 L 10218.3642578125 11714.177734375 L 10218.3642578125 11729.5009765625 L 10980.302734375 11729.5009765625 L 10980.302734375 11700.0009765625 L 10980.302734375 11698.5009765625 L 10981.802734375 11698.5009765625 L 10986.8330078125 11698.5009765625 L 10988.3330078125 11698.5009765625 L 10988.3330078125 11700.0009765625 L 10988.3330078125 11731.0009765625 L 10988.3330078125 11736.0322265625 L 10988.3330078125 11737.5322265625 Z" stroke="none"/>
      <path d="M 10986.8330078125 11736.0322265625 L 10986.8330078125 11700.0009765625 L 10981.802734375 11700.0009765625 L 10981.802734375 11731.0009765625 L 10216.8642578125 11731.0009765625 L 10216.8642578125 11712.677734375 L 10221.3818359375 11712.677734375 L 10214.5458984375 11701.64453125 L 10207.7099609375 11712.677734375 L 10211.8359375 11712.677734375 L 10211.8359375 11736.0322265625 L 10986.8330078125 11736.0322265625 M 10989.8330078125 11739.0322265625 L 10208.8359375 11739.0322265625 L 10208.8359375 11715.677734375 L 10202.322265625 11715.677734375 L 10214.5458984375 11695.9482421875 L 10226.76953125 11715.677734375 L 10219.8642578125 11715.677734375 L 10219.8642578125 11728.0009765625 L 10978.802734375 11728.0009765625 L 10978.802734375 11697.0009765625 L 10989.8330078125 11697.0009765625 L 10989.8330078125 11739.0322265625 Z" stroke="none" fill="#12263f"/>
    </g>
  </g>
</svg>
