<svg xmlns="http://www.w3.org/2000/svg" xmlns:xlink="http://www.w3.org/1999/xlink" width="85" height="85" viewBox="0 0 85 85">
  <defs>
    <clipPath id="clip-path">
      <rect id="Rectángulo_467003" data-name="Rectángulo 467003" width="59.181" height="59.789" fill="#12263f"/>
    </clipPath>
  </defs>
  <g id="Grupo_1180241" data-name="Grupo 1180241" transform="translate(-705.629 -410)">
    <g id="Grupo_1180019" data-name="Grupo 1180019">
      <g id="Grupo_1180023" data-name="Grupo 1180023">
        <rect id="Rectángulo_456333" data-name="Rectángulo 456333" width="85" height="85" rx="10" transform="translate(705.629 410)" fill="#68eae0"/>
        <g id="Grupo_1180852" data-name="Grupo 1180852" transform="translate(720.629 420.767)">
          <g id="Grupo_1180851" data-name="Grupo 1180851" clip-path="url(#clip-path)">
            <path id="Trazado_1032084" data-name="Trazado 1032084" d="M1.763,10.694,1.755,56.568a1.41,1.41,0,0,0,1.552,1.5l34.832,0a1.491,1.491,0,0,0,1.507-1.653l-.019-13-4.26-.009a5.573,5.573,0,0,1-11,.025l-7.342-.017A5.578,5.578,0,1,1,13.8,37.436L24.95,28.77a10.009,10.009,0,0,1-.607-1.864l-7.318.027a5.57,5.57,0,1,1,0-1.773l7.333.009a5.562,5.562,0,1,1,1.712,4.962L15.347,38.465a5.864,5.864,0,0,1,1.671,3.157l7.332.028a5.58,5.58,0,0,1,11.013-.04l8.29.031a7.781,7.781,0,1,1,0,1.8l-2.3-.038,0,13.187a3.078,3.078,0,0,1-3.2,3.193l-34.879,0A3.118,3.118,0,0,1,0,56.568v-45.7A3.034,3.034,0,0,1,2.908,7.682l34.536-.028a4.782,4.782,0,0,0-.874-.986,1.761,1.761,0,0,1,0-2.492l2.057-2.057a1.663,1.663,0,0,1,2.115-.2l1.34,1.161.059-1.74C42.169.468,43.1,0,43.964,0L46.6,0a1.605,1.605,0,0,1,1.778,1.389l.085,1.649.9-.846a1.722,1.722,0,0,1,2.308-.18L54.1,4.457A1.589,1.589,0,0,1,54.036,6.5c-.364.411-.768.617-.979,1.135l1.381.033a1.647,1.647,0,0,1,1.63,1.7l0,2.959A1.662,1.662,0,0,1,54.429,14l-1.49.059,1.181,1.234a1.52,1.52,0,0,1-.014,1.933L51.78,19.573a1.629,1.629,0,0,1-2.309-.025l-.993-.919L48.4,20.146a1.7,1.7,0,0,1-1.8,1.533l-2.638,0a1.705,1.705,0,0,1-1.853-1.506l-.056-1.633c-.174.117-.685.409-.685.742l-.011,19a.873.873,0,0,1-.676.98.848.848,0,0,1-1.039-.794l-.01-18.4a2.928,2.928,0,0,1-1.005-.516L36.574,17.5a1.756,1.756,0,0,1-.013-2.494l.919-.95a4.159,4.159,0,0,0-1.167-.049,1.769,1.769,0,0,1-1.9-1.848l-.038-2.75-31.244,0a1.292,1.292,0,0,0-1.372,1.283m44.911,9.137c.024-.927-.241-1.651.148-2.292a2.5,2.5,0,0,1,2.1-.833l1.789,1.48,1.9-1.91c-.389-.707-1.254-.991-1.5-1.767a2.486,2.486,0,0,1,.778-2.044c.66-.425,1.586-.126,2.372-.163l0-2.9c-.777-.045-1.729.236-2.365-.177a2.515,2.515,0,0,1-.789-2.051c.246-.78,1.1-1.058,1.5-1.772L50.6,3.486C50,4,49.638,4.754,48.893,4.971a2.51,2.51,0,0,1-2.066-.832c-.411-.675-.112-1.528-.167-2.354H43.786c-.035.838.258,1.744-.169,2.385a2.541,2.541,0,0,1-1.994.816c-.789-.228-1.121-1.051-1.784-1.537L37.862,5.435c.508.612,1.322.969,1.518,1.781A2.485,2.485,0,0,1,38.5,9.261L36.183,9.5l.078,2.8c.791.026,1.579-.238,2.261.141a2.408,2.408,0,0,1,.855,2.018c-.227.808-1.021,1.167-1.506,1.767l1.984,1.984c.655-.454.97-1.294,1.753-1.5a2.349,2.349,0,0,1,2.069.887,6.357,6.357,0,0,1,.126,2.256ZM10.549,22.358a3.794,3.794,0,0,0-2.676,4.85,3.818,3.818,0,0,0,7.342-2.082,3.8,3.8,0,0,0-4.666-2.768m18.483-.03a3.813,3.813,0,1,0,4.553,2.909,3.8,3.8,0,0,0-4.553-2.909M50.7,36.532a6.028,6.028,0,1,0,6.69,5.256,6,6,0,0,0-6.69-5.256M10.9,38.771a3.773,3.773,0,0,0-3.117,4.578,3.819,3.819,0,0,0,7.494-1.459A3.774,3.774,0,0,0,10.9,38.771m18.3,0a3.811,3.811,0,1,0,1.351,7.5,3.848,3.848,0,0,0,3.06-4.423,3.781,3.781,0,0,0-4.411-3.079" transform="translate(0 -0.001)" fill="#12263f"/>
            <path id="Trazado_1032085" data-name="Trazado 1032085" d="M76.283,64.622l-7.643,0a.886.886,0,1,1,.176-1.76l7.852.049a2.558,2.558,0,0,1,2.4,2.529,2.594,2.594,0,0,1-2.4,2.73l-14.007.01a2.574,2.574,0,0,1-2.48-2.754,2.668,2.668,0,0,1,2.846-2.55l1.843.054c.411.012.553.5.551.807-.007,1.777-3.278.031-3.5,1.706a.963.963,0,0,0,.938,1.041l13.6-.007a.931.931,0,1,0-.18-1.852" transform="translate(-48.94 -51.12)" fill="#12263f"/>
            <path id="Trazado_1032086" data-name="Trazado 1032086" d="M42.8,271.436,32.56,271.4c-.508,0-.748-.674-.695-.994a.949.949,0,0,1,1.037-.734l9.9.015a.864.864,0,0,1,.93.881.879.879,0,0,1-.928.869" transform="translate(-25.908 -219.304)" fill="#12263f"/>
            <path id="Trazado_1032087" data-name="Trazado 1032087" d="M134.221,271.476l-10.654-.022c-.43,0-.692-.579-.7-.853a.875.875,0,0,1,.864-.861l10.078-.012a.872.872,0,0,1,.882.574.972.972,0,0,1-.471,1.174" transform="translate(-99.92 -219.351)" fill="#12263f"/>
            <path id="Trazado_1032088" data-name="Trazado 1032088" d="M42.885,288.709l-10.165,0a.864.864,0,0,1-.865-.885.831.831,0,0,1,.867-.827l10.414.022c.425,0,.608.57.592.821a.857.857,0,0,1-.843.872" transform="translate(-25.905 -233.393)" fill="#12263f"/>
            <path id="Trazado_1032089" data-name="Trazado 1032089" d="M133.905,288.7l-10.166,0a.9.9,0,0,1-.858-.864.876.876,0,0,1,.858-.85l10.422.024c.447,0,.585.569.584.822a.8.8,0,0,1-.84.865" transform="translate(-99.931 -233.388)" fill="#12263f"/>
            <path id="Trazado_1032090" data-name="Trazado 1032090" d="M225.487,38.935a3.6,3.6,0,1,1-2.387,4.452,3.571,3.571,0,0,1,2.387-4.452m.562,1.653a1.844,1.844,0,1,0,1.067,3.529,1.844,1.844,0,0,0-1.067-3.529" transform="translate(-181.313 -31.527)" fill="#12263f"/>
            <path id="Trazado_1032091" data-name="Trazado 1032091" d="M260.537,221.467l-1.726-1.714a.877.877,0,0,1-.024-1.227.865.865,0,0,1,1.273-.024l1.126,1.086,2.571-2.172a.933.933,0,0,1,1.032.016c.307.192.524.905.184,1.2l-3.182,2.783a.909.909,0,0,1-1.255.049" transform="translate(-210.26 -176.687)" fill="#12263f"/>
            <path id="Trazado_1032092" data-name="Trazado 1032092" d="M57.148,134.715a.85.85,0,0,1,.4,1.089c-.258.74-2.033.739-2.479.171a.785.785,0,0,1,.132-1.15,2.286,2.286,0,0,1,1.943-.11" transform="translate(-44.631 -109.422)" fill="#12263f"/>
            <path id="Trazado_1032093" data-name="Trazado 1032093" d="M57.1,222.916a.824.824,0,0,1,.479,1.1c-.293.812-2.138.835-2.574.087a.835.835,0,0,1,.47-1.172,2.893,2.893,0,0,1,1.626-.012" transform="translate(-44.659 -181.192)" fill="#12263f"/>
            <path id="Trazado_1032094" data-name="Trazado 1032094" d="M155.073,222.892a.822.822,0,0,1,.487,1.1c-.3.812-2.1.85-2.577.075a.8.8,0,0,1,.356-1.1,2.591,2.591,0,0,1,1.735-.069" transform="translate(-124.329 -181.169)" fill="#12263f"/>
            <path id="Trazado_1032095" data-name="Trazado 1032095" d="M155.079,134.7a.834.834,0,0,1,.48,1.112c-.261.745-2.08.8-2.566.06a.8.8,0,0,1,.316-1.109,2.457,2.457,0,0,1,1.77-.062" transform="translate(-124.331 -109.437)" fill="#12263f"/>
          </g>
        </g>
      </g>
    </g>
  </g>
</svg>
