<svg xmlns="http://www.w3.org/2000/svg" xmlns:xlink="http://www.w3.org/1999/xlink" width="69.323" height="69.323" viewBox="0 0 69.323 69.323">
  <defs>
    <clipPath id="clip-path">
      <rect id="Rectángulo_467008" data-name="Rectángulo 467008" width="40.472" height="42.044" fill="#fff"/>
    </clipPath>
  </defs>
  <g id="Grupo_1181051" data-name="Grupo 1181051" transform="translate(-1225.838 -7056.464)">
    <rect id="Rectángulo_466435" data-name="Rectángulo 466435" width="69.323" height="69.323" transform="translate(1225.838 7056.464)" fill="#19538d"/>
    <g id="Grupo_1180862" data-name="Grupo 1180862" transform="translate(1242.846 7070.104)">
      <g id="Grupo_1180861" data-name="Grupo 1180861" clip-path="url(#clip-path)">
        <path id="Trazado_1032116" data-name="Trazado 1032116" d="M24.558,33.592l3.523-.679a10.931,10.931,0,0,0,6.2-3.923l0,7.766a5.4,5.4,0,0,1-5.539,5.276l-23.064.012A5.506,5.506,0,0,1,.021,36.6L0,5.574A5.4,5.4,0,0,1,5.182.029L29.146,0A5.446,5.446,0,0,1,34.5,5.4L34.5,9.277A10.059,10.059,0,0,0,32.019,10.9l-9.437,9.481a8.258,8.258,0,0,0-2.131,4.078l-.922,4.022a4.245,4.245,0,0,0,1.109,3.955,4.184,4.184,0,0,0,3.92,1.153m.951-23.92a1.707,1.707,0,0,0,1.771-1.7,1.663,1.663,0,0,0-1.567-1.808L8.987,6.129a1.969,1.969,0,0,0-1.67.685A1.706,1.706,0,0,0,8.594,9.676Zm-5.272,5.438a1.621,1.621,0,0,0-1.651-1.737L8.7,13.362a1.772,1.772,0,0,0-1.825,1.627A1.6,1.6,0,0,0,8.3,16.823l10.149.051a1.665,1.665,0,0,0,1.79-1.764" transform="translate(0 0)" fill="#fff"/>
        <path id="Trazado_1032117" data-name="Trazado 1032117" d="M167.239,109.62a.793.793,0,0,1-.666-.12.671.671,0,0,1-.253-.737l.85-3.663a5.689,5.689,0,0,1,1.5-2.929l9.137-9.1a3.779,3.779,0,0,1,5.787,1.254,3.474,3.474,0,0,1-.633,3.89l-8.922,8.923a5.444,5.444,0,0,1-2.5,1.466Z" transform="translate(-143.446 -79.547)" fill="#fff"/>
      </g>
    </g>
  </g>
</svg>
