<svg xmlns="http://www.w3.org/2000/svg" xmlns:xlink="http://www.w3.org/1999/xlink" width="85" height="85" viewBox="0 0 85 85">
  <defs>
    <clipPath id="clip-path">
      <rect id="Rectángulo_467004" data-name="Rectángulo 467004" width="57.354" height="57.409" fill="#12263f"/>
    </clipPath>
  </defs>
  <g id="Grupo_1180249" data-name="Grupo 1180249" transform="translate(-705.629 -410)">
    <g id="Grupo_1180019" data-name="Grupo 1180019">
      <g id="Grupo_1180023" data-name="Grupo 1180023">
        <rect id="Rectángulo_456333" data-name="Rectángulo 456333" width="85" height="85" rx="10" transform="translate(705.629 410)" fill="#68eae0"/>
        <g id="Grupo_1180854" data-name="Grupo 1180854" transform="translate(719.452 423.795)">
          <g id="Grupo_1180853" data-name="Grupo 1180853" clip-path="url(#clip-path)">
            <path id="Trazado_1032096" data-name="Trazado 1032096" d="M102.79,29.434H83.7a1.412,1.412,0,0,1-1.366-.592,1.311,1.311,0,0,1-.085-1.383l1.794-3.17a9.923,9.923,0,0,1-2.511-3.018L83.1,19.14a10.442,10.442,0,0,1-.744-1.783,13.252,13.252,0,0,1-2.679-.485,12.816,12.816,0,0,1,0-5.96l2.577-.431.83-1.867a12.633,12.633,0,0,1-1.551-2.155,12.359,12.359,0,0,1,3.885-4.029c.345-.229.772-.006,1.031.185l1.53,1.125,1.829-.794A13.343,13.343,0,0,1,90.188.415a11.207,11.207,0,0,1,6.034,0A13.736,13.736,0,0,1,96.6,2.946l1.827.794,1.416-1.034a1.074,1.074,0,0,1,1.4-.131,12.686,12.686,0,0,1,3.628,3.89,12.445,12.445,0,0,1-1.547,2.152l.752,1.805,2.657.485a12.9,12.9,0,0,1,0,5.962l-2.684.5a7.487,7.487,0,0,1-.74,1.72l1.565,2.186a9.98,9.98,0,0,1-2.511,3.021l1.728,3.035a1.366,1.366,0,0,1,.052,1.389,1.332,1.332,0,0,1-1.354.719M98.778,18.272l2.865,4.847a11.755,11.755,0,0,0,1.6-1.808,11.094,11.094,0,0,1-1.523-2.122,16.529,16.529,0,0,0,1.276-3.037,11.521,11.521,0,0,1,2.507-.379,8.658,8.658,0,0,0,.009-3.654l-2.444-.415-1.35-3.26,1.487-2a16.093,16.093,0,0,0-2.532-2.572,12.193,12.193,0,0,1-2.185,1.483,24.06,24.06,0,0,0-3.062-1.273l-.433-2.544a15.992,15.992,0,0,0-3.573,0l-.434,2.552a29.813,29.813,0,0,0-3.138,1.274L85.676,3.9a17.453,17.453,0,0,0-2.463,2.552L84.7,8.55a23.08,23.08,0,0,0-1.288,3.077l-2.5.471a8.677,8.677,0,0,0,0,3.688,7.453,7.453,0,0,1,2.562.429,13.315,13.315,0,0,0,1.218,2.973,10.764,10.764,0,0,1-1.52,2.122,13.649,13.649,0,0,0,1.579,1.807l2.878-4.87a7.068,7.068,0,1,1,11.153.024m-4.429-7.582L98,16.862a5.59,5.59,0,0,0-1.182-7.325,5.682,5.682,0,0,0-7.229,0A5.6,5.6,0,0,0,88.4,16.872l3.619-6.132a1.338,1.338,0,0,1,1.1-.687,1.291,1.291,0,0,1,1.228.638m8.484,17.285L93.2,11.5l-9.655,16.5Z" transform="translate(-64.527 0)" fill="#12263f"/>
            <path id="Trazado_1032097" data-name="Trazado 1032097" d="M26.435,116.985A2.485,2.485,0,0,1,24,119.628l-14.316-.01A2.46,2.46,0,0,1,7.3,117.041l.052-3.635c.023-1.586,1.8-2.3,3.378-1.985l.069-4.142L1.876,98.337A6.008,6.008,0,0,1,0,94.084L0,79.939a3.507,3.507,0,0,1,3.4-3.442,3.416,3.416,0,0,1,3.671,3.231l.042,8.562A3.59,3.59,0,0,0,8.2,91.051a3.549,3.549,0,0,1,1.939-2.411,2.927,2.927,0,0,1,3.306.375l8.035,7.977a4.611,4.611,0,0,1,1.426,3.257l.025,11.183c1.665-.379,3.441.4,3.462,2.07ZM20.627,98.111l-7.962-7.95a1.81,1.81,0,0,0-2.542.18c-.479.486-.976,1.589-.295,2.282l5.631,5.731a.671.671,0,0,1-.011,1.087.7.7,0,0,1-1-.074L7.035,91.892A4.581,4.581,0,0,1,5.753,88.7l-.035-8.78a2.131,2.131,0,0,0-2.144-2.036,2.048,2.048,0,0,0-2.123,1.865L1.414,93.906a4.2,4.2,0,0,0,1.113,3.041l9.659,9.707.048,4.718,9.294-.007L21.512,100.3a3.089,3.089,0,0,0-.884-2.191M24.011,118.2a.948.948,0,0,0,1.009-.967l-.013-3.538A.93.93,0,0,0,24,112.786l-14.5.026c-.5,0-.806.624-.8,1.037l.016,3.384a.961.961,0,0,0,.949.954Z" transform="translate(0 -62.226)" fill="#12263f"/>
            <path id="Trazado_1032098" data-name="Trazado 1032098" d="M168.452,119.634a2.367,2.367,0,0,1-2.466-2.223l.039-4.065c.015-1.6,1.862-2.253,3.415-1.919l.067-11.545A4.437,4.437,0,0,1,170.99,96.9l8.046-7.962a2.874,2.874,0,0,1,3.2-.3,3.6,3.6,0,0,1,1.947,2.411,3.46,3.46,0,0,0,1.063-2.6l.05-8.725A3.418,3.418,0,0,1,188.97,76.5a3.522,3.522,0,0,1,3.4,3.441l0,14.149a5.747,5.747,0,0,1-1.7,4.053l-9.091,9.144.067,4.139c1.582-.315,3.353.39,3.376,1.986l.052,3.633a2.462,2.462,0,0,1-2.38,2.574Zm3.212-21.427a2.98,2.98,0,0,0-.8,2.092l-.018,11.068,9.315-.005.026-4.708,9.66-9.711a3.865,3.865,0,0,0,1.095-2.661l-.019-14.536a2.066,2.066,0,0,0-2.283-1.857,2.183,2.183,0,0,0-2.007,2.211l-.012,8.6a4.585,4.585,0,0,1-1.281,3.191l-7.416,7.472a.733.733,0,0,1-1.1-.015.676.676,0,0,1,.1-.995l5.627-5.733c.72-.734.148-1.9-.39-2.371a1.794,1.794,0,0,0-2.447-.09Zm10.953,19.985a1,1,0,0,0,1.056-.968l.02-3.376c0-.41-.322-1.039-.815-1.04l-14.5-.023a.926.926,0,0,0-1.008.906l-.014,3.54a.951.951,0,0,0,1.012.962Z" transform="translate(-135.022 -62.225)" fill="#12263f"/>
            <path id="Trazado_1032099" data-name="Trazado 1032099" d="M146.007,87.315a3.623,3.623,0,0,1-2.814.029l-.688-6.068a2.106,2.106,0,1,1,4.163,0ZM144.59,86.3l.725-5.375a.743.743,0,0,0-.821-.67.715.715,0,0,0-.619.819Z" transform="translate(-115.91 -64.138)" fill="#12263f"/>
            <path id="Trazado_1032100" data-name="Trazado 1032100" d="M145.227,127.942a1.817,1.817,0,1,1,1.044,3.48,1.836,1.836,0,0,1-2.179-1.053,1.817,1.817,0,0,1,1.135-2.427" transform="translate(-117.102 -103.995)" fill="#12263f"/>
            <path id="Trazado_1032101" data-name="Trazado 1032101" d="M111.187,283.121l-1.588.035a.669.669,0,0,1-.708-.718.688.688,0,0,1,.714-.664l1.493-.011a.682.682,0,0,1,.675.536.652.652,0,0,1-.587.823" transform="translate(-88.579 -229.203)" fill="#12263f"/>
            <path id="Trazado_1032102" data-name="Trazado 1032102" d="M185.317,283.155l-1.6,0a.691.691,0,0,1-.689-.7.671.671,0,0,1,.692-.665l1.493-.006a.694.694,0,0,1,.693.527.645.645,0,0,1-.59.844" transform="translate(-148.887 -229.22)" fill="#12263f"/>
          </g>
        </g>
      </g>
    </g>
  </g>
</svg>
