<svg xmlns="http://www.w3.org/2000/svg" xmlns:xlink="http://www.w3.org/1999/xlink" width="85" height="85" viewBox="0 0 85 85">
  <defs>
    <clipPath id="clip-path">
      <rect id="Rectángulo_467000" data-name="Rectángulo 467000" width="56.731" height="61.838" fill="#12263f"/>
    </clipPath>
  </defs>
  <g id="Grupo_1180083" data-name="Grupo 1180083" transform="translate(-705.629 -410)">
    <g id="Grupo_1180019" data-name="Grupo 1180019">
      <g id="Grupo_1180023" data-name="Grupo 1180023">
        <rect id="Rectángulo_456333" data-name="Rectángulo 456333" width="85" height="85" rx="10" transform="translate(705.629 410)" fill="#68eae0"/>
        <g id="Grupo_1180846" data-name="Grupo 1180846" transform="translate(719.764 421.581)">
          <g id="Grupo_1180845" data-name="Grupo 1180845" clip-path="url(#clip-path)">
            <path id="Trazado_1032064" data-name="Trazado 1032064" d="M12.11,75.467c-1.821-.008-1.412-2.826-2.411-3.88a9.027,9.027,0,0,0-2.444-1.433c-.832-.411-3.825,1.064-4.33.219L.184,65.783c-.836-1.4,1.389-2.436,2.237-3.962A9.914,9.914,0,0,0,2.337,58.8C1.789,57.408-.72,56.376.232,54.755L2.672,50.6c.793-1.351,2.692.085,4.558-.038A14.026,14.026,0,0,0,9.676,49.1c1.11-1.515.683-3.909,2.454-3.914l4.566-.013a2.321,2.321,0,0,1,1.377.482,15.858,15.858,0,1,1,26.34,17l2.3,2.311a2.24,2.24,0,0,1,3.211.071l5.7,5.732a2,2,0,0,1,.148,2.689l-1.7,1.735a2,2,0,0,1-2.869,0l-5.838-5.828a2.036,2.036,0,0,1,.023-2.992l-2.328-2.349a16.006,16.006,0,0,1-15.079,3.311L26.1,70.364c-.534.863-3.456-.613-4.312-.214A11.63,11.63,0,0,0,19.3,71.565c-1.048,1.7-.627,3.931-2.608,3.922ZM31.8,38.192A13.971,13.971,0,1,0,46.5,51.449,13.97,13.97,0,0,0,31.8,38.192M12.467,73.562l4.068.011,1.135-3.457a21.139,21.139,0,0,0,3.654-1.991c1.123-.283,2.432.485,3.557.551a7.287,7.287,0,0,0,1.235-2.013,17.6,17.6,0,0,1-5.029-3.524,7.137,7.137,0,1,1-4.371-9.614,20.891,20.891,0,0,1,.333-4.891l-.507-1.548H12.481L11.3,50.548a14.753,14.753,0,0,0-3.635,2.124l-3.692-.679L2.066,55.559c.682.92,1.97,1.585,2.218,2.688.289,1.291-.229,2.721.2,4.124l-2.441,2.88L4.1,68.711l3.639-.706a14.419,14.419,0,0,0,3.593,2.139Zm4.564-17.7c-2.579-1.885-6.29-.187-7.329,2.354a5.232,5.232,0,0,0,3.229,7.1c2.758.9,6.281-.783,6.59-3.97a37.885,37.885,0,0,1-2.49-5.488m35.588,18.1a7.925,7.925,0,0,0,1.726-1.806l-6.03-6.009a7.479,7.479,0,0,0-1.743,1.812Z" transform="translate(0.001 -27.976)" fill="#12263f"/>
            <path id="Trazado_1032065" data-name="Trazado 1032065" d="M110.494,205.1l-2.88,0c-1.624,0-.863-2.019-2.316-2.9-1.551-.937-3.038.759-3.8-.637l-1.6-2.947c-.39-.718.623-1.346,1.036-1.83a2.219,2.219,0,0,0-.564-3.209,1.247,1.247,0,0,1-.435-1.454,14.829,14.829,0,0,1,1.926-3.092c.808-.761,2.87,1.116,4.14-.939.341-.552.273-1.855,1.09-2.068a8.384,8.384,0,0,1,3.994.014c1.027.3.251,2.374,2.7,3.179.689-.147,1.915-.744,2.53-.173a14.785,14.785,0,0,1,1.852,2.97c.8,1.223-1.374,1.856-1.387,3.332-.015,1.748,1.91,2.433,1.5,3.226l-1.408,2.693c-1,1.907-2.33-.057-3.972.924-1.493.892-.742,2.916-2.405,2.915m-.488-2.038c.486-.509.359-1.515.85-1.827,1.884-1.193,2.45-1.787,4.4-1l1.016-1.754c-1.642-1.3-1.473-2.332-1.238-4.523l1.208-1.547a5.915,5.915,0,0,0-1.085-1.648c-.659.13-1.562.585-2.151.235L110.83,189.7l-.816-1.825a2.723,2.723,0,0,0-1.974-.024c-.236.63-.244,1.566-.822,1.917-1.79,1.085-2.251,1.762-4.182.993a4.435,4.435,0,0,0-1.084,1.665c.193.593,1.038.953,1.18,1.524a7.805,7.805,0,0,1,.026,3l-1.215,1.623,1.007,1.637c1.949-.759,2.554-.129,4.389,1.043.468.3.364,1.336.758,1.778a1.857,1.857,0,0,0,1.909.025" transform="translate(-76.965 -143.258)" fill="#12263f"/>
            <path id="Trazado_1032066" data-name="Trazado 1032066" d="M231.387,103.283l-2.765.025a.945.945,0,1,1,0-1.88l2.661,0a.943.943,0,0,1,.917.757.884.884,0,0,1-.816,1.1" transform="translate(-175.491 -78.211)" fill="#12263f"/>
            <path id="Trazado_1032067" data-name="Trazado 1032067" d="M69.87,31.976a1.008,1.008,0,0,1,.082,1.235.962.962,0,0,1-1.345.127L66.537,31.3a.939.939,0,0,1,1.328-1.326Z" transform="translate(-51.117 -22.927)" fill="#12263f"/>
            <path id="Trazado_1032068" data-name="Trazado 1032068" d="M139.906,3.793a.84.84,0,0,1-1.074.824.945.945,0,0,1-.8-.959l0-2.728a.9.9,0,0,1,.8-.923.917.917,0,0,1,1.08.9Z" transform="translate(-106.437 0)" fill="#12263f"/>
            <path id="Trazado_1032069" data-name="Trazado 1032069" d="M202.829,33.286a1,1,0,0,1-1.306-.035.84.84,0,0,1-.1-1.142l2.172-2.189a.965.965,0,0,1,1.2.008.939.939,0,0,1,.084,1.285Z" transform="translate(-155.174 -22.912)" fill="#12263f"/>
            <path id="Trazado_1032070" data-name="Trazado 1032070" d="M100.006,53.144a12.034,12.034,0,1,1-10.2,13.861,11.992,11.992,0,0,1,10.2-13.861M100.24,55a10.165,10.165,0,1,0,11.513,8.616A10.143,10.143,0,0,0,100.24,55" transform="translate(-69.133 -40.886)" fill="#12263f"/>
            <path id="Trazado_1032071" data-name="Trazado 1032071" d="M124.115,207.619a4.665,4.665,0,0,1,5.054,4.354,4.713,4.713,0,0,1-9.385.857,4.662,4.662,0,0,1,4.331-5.211m-.65,2.047a2.826,2.826,0,0,0-1.586,3.837A2.872,2.872,0,0,0,125.366,215a2.831,2.831,0,1,0-1.9-5.331" transform="translate(-92.344 -160.084)" fill="#12263f"/>
            <path id="Trazado_1032072" data-name="Trazado 1032072" d="M126.445,84a3.06,3.06,0,0,1,1.96-3.426A2.877,2.877,0,0,0,129.78,76.3a2.846,2.846,0,0,0-4.452-.395.97.97,0,1,1-1.366-1.353,4.8,4.8,0,0,1,7.261.535,4.7,4.7,0,0,1-1.885,7.106c-1.9.8-.335,2.834-1.868,2.882-.568.018-.962-.326-1.025-1.076" transform="translate(-95.312 -56.403)" fill="#12263f"/>
            <path id="Trazado_1032073" data-name="Trazado 1032073" d="M136.586,131.812a.949.949,0,0,1,1.269.335.977.977,0,0,1-.418,1.286.912.912,0,0,1-1.2-.332.928.928,0,0,1,.353-1.289" transform="translate(-104.953 -101.553)" fill="#12263f"/>
          </g>
        </g>
      </g>
    </g>
  </g>
</svg>
