<svg id="Grupo_1180395" data-name="Grupo 1180395" xmlns="http://www.w3.org/2000/svg" xmlns:xlink="http://www.w3.org/1999/xlink" width="85" height="85" viewBox="0 0 85 85">
  <defs>
    <clipPath id="clip-path">
      <rect id="Rectángulo_467159" data-name="Rectángulo 467159" width="57.646" height="57.666" fill="#12263f"/>
    </clipPath>
  </defs>
  <g id="Grupo_1180019" data-name="Grupo 1180019">
    <g id="Grupo_1180023" data-name="Grupo 1180023">
      <rect id="Rectángulo_456333" data-name="Rectángulo 456333" width="85" height="85" rx="10" fill="#68c6ea"/>
      <g id="Grupo_1181037" data-name="Grupo 1181037" transform="translate(13.677 13.667)">
        <g id="Grupo_1181036" data-name="Grupo 1181036" clip-path="url(#clip-path)">
          <path id="Trazado_1033375" data-name="Trazado 1033375" d="M1.7,25l-.043,7.623,3.705.045a1.744,1.744,0,0,1,1.651,1.382,22.334,22.334,0,0,0,2.692,6.489,1.74,1.74,0,0,1-.189,2.133L6.923,45.3l5.429,5.428,2.429-2.434a1.858,1.858,0,0,1,2.329-.356,21.452,21.452,0,0,0,6.344,2.646,1.8,1.8,0,0,1,1.53,1.7l.045,3.7,7.587-.012.026-3.535a1.875,1.875,0,0,1,1.55-1.86,22.486,22.486,0,0,0,6.462-2.7,1.811,1.811,0,0,1,2.209.406l2.466,2.431,1.252-1.26a.845.845,0,0,1,1.216-.066.82.82,0,0,1,.059,1.165l-1.348,1.35a1.715,1.715,0,0,1-2.4,0l-2.623-2.564a23.675,23.675,0,0,1-7.1,2.933l-.039,3.564a1.856,1.856,0,0,1-1.919,1.825H25.211a1.854,1.854,0,0,1-1.918-1.827l-.039-3.561a23.594,23.594,0,0,1-7.1-2.936l-2.629,2.57a1.745,1.745,0,0,1-2.4-.006L5.743,46.512a1.784,1.784,0,0,1,.065-2.5l2.5-2.532A23.456,23.456,0,0,1,5.372,34.4L1.8,34.349A1.805,1.805,0,0,1,0,32.61V25.028A1.756,1.756,0,0,1,1.637,23.31l3.732-.056a23.387,23.387,0,0,1,2.935-7.1L5.728,13.526a1.744,1.744,0,0,1,.012-2.4l5.391-5.388a1.784,1.784,0,0,1,2.5.065l2.533,2.5a23.777,23.777,0,0,1,7.093-2.938l.038-3.571A1.8,1.8,0,0,1,25.032,0l7.585,0a1.8,1.8,0,0,1,1.73,1.793l.042,3.573a23.429,23.429,0,0,1,7.094,2.94l2.634-2.581a1.742,1.742,0,0,1,2.4.016L51.9,11.129a1.887,1.887,0,0,1-.23,2.688l-2.331,2.34a23.462,23.462,0,0,1,2.936,7.1l3.574.039a1.8,1.8,0,0,1,1.793,1.74v7.582a1.763,1.763,0,0,1-1.634,1.72l-3.734.055a23.7,23.7,0,0,1-2.934,7.095l2.567,2.626a1.726,1.726,0,0,1,0,2.4l-1.35,1.351a.863.863,0,0,1-1.188-.034c-.8-.875.55-1.439,1.309-2.566l-2.473-2.494a1.749,1.749,0,0,1-.325-2.11,22.454,22.454,0,0,0,2.7-6.464,1.865,1.865,0,0,1,1.864-1.54l3.535-.034L55.965,25l-3.682-.012a1.737,1.737,0,0,1-1.652-1.389,22.324,22.324,0,0,0-2.69-6.487,1.8,1.8,0,0,1,.27-2.235l2.5-2.574-5.36-5.362-2.581,2.5a1.749,1.749,0,0,1-2.115.321,22.572,22.572,0,0,0-6.462-2.7,1.865,1.865,0,0,1-1.548-1.865l-.027-3.531H25.03L24.983,5.36A1.75,1.75,0,0,1,23.6,7.013,23.154,23.154,0,0,0,16.993,9.76a1.814,1.814,0,0,1-2.2-.411l-2.44-2.426L6.935,12.3l2.5,2.575A1.8,1.8,0,0,1,9.7,17.108a22.219,22.219,0,0,0-2.689,6.485,1.847,1.847,0,0,1-1.648,1.4c-1.171.059-2.153.037-3.667,0" transform="translate(0 0)" fill="#12263f"/>
          <path id="Trazado_1033376" data-name="Trazado 1033376" d="M61.5,75.286a16.441,16.441,0,1,0,.989-3.63.865.865,0,0,1-1.141.527.848.848,0,0,1-.431-1.164,18.129,18.129,0,1,1-1.08,4.11.836.836,0,0,1,.863-.82.824.824,0,0,1,.8.977" transform="translate(-48.903 -48.875)" fill="#12263f"/>
          <path id="Trazado_1033377" data-name="Trazado 1033377" d="M101.731,123.305a3.623,3.623,0,0,1,.089-5.169,3.719,3.719,0,0,1,5.143.115l1.9,1.816,6.568-7.182a3.752,3.752,0,0,1,5.177-.728,3.572,3.572,0,0,1,.574,5.221l-9.48,10.3a3.654,3.654,0,0,1-5.319.162Zm1.085-1.343,4.483,4.425a2.3,2.3,0,0,0,1.638.838,2.194,2.194,0,0,0,1.669-.819l9.3-10.112a1.919,1.919,0,0,0-.233-2.724,1.964,1.964,0,0,0-2.78.235l-7.253,7.858a1.19,1.19,0,0,1-.716.46.964.964,0,0,1-.767-.371l-2.708-2.526a1.875,1.875,0,0,0-2.575.264,1.839,1.839,0,0,0-.058,2.473" transform="translate(-82.547 -91.342)" fill="#12263f"/>
        </g>
      </g>
    </g>
  </g>
</svg>
