<svg xmlns="http://www.w3.org/2000/svg" xmlns:xlink="http://www.w3.org/1999/xlink" width="85" height="85" viewBox="0 0 85 85">
  <defs>
    <clipPath id="clip-path">
      <rect id="Rectángulo_467160" data-name="Rectángulo 467160" width="57.809" height="57.822" fill="#12263f"/>
    </clipPath>
  </defs>
  <g id="Grupo_1180398" data-name="Grupo 1180398" transform="translate(-705.629 -410)">
    <g id="Grupo_1180019" data-name="Grupo 1180019">
      <g id="Grupo_1180023" data-name="Grupo 1180023">
        <rect id="Rectángulo_456333" data-name="Rectángulo 456333" width="85" height="85" rx="10" transform="translate(705.629 410)" fill="#68eae0"/>
        <g id="Grupo_1181039" data-name="Grupo 1181039" transform="translate(719.225 423.589)">
          <g id="Grupo_1181038" data-name="Grupo 1181038" clip-path="url(#clip-path)">
            <path id="Trazado_1033378" data-name="Trazado 1033378" d="M49.611,37.129,43.892,40.8a11.549,11.549,0,1,1-21.147,9.068L18.284,50.9A4.829,4.829,0,0,1,14.3,55.806a4.8,4.8,0,1,1,3.533-6.765l4.447-1.08a11.555,11.555,0,0,1,2.972-9.56l-3.776-4.195A11.31,11.31,0,0,1,9.741,35.59l-1.8,3.2a4.733,4.733,0,0,1,.723,6.46,4.8,4.8,0,1,1-2.4-7.432L8,34.631A11.514,11.514,0,0,1,8.621,15.1L5.966,9.487a4.81,4.81,0,1,1,2.9-7.243A4.737,4.737,0,0,1,7.7,8.616l2.653,5.64a11.53,11.53,0,0,1,14.3,5.423l10.608-4.528a11.489,11.489,0,0,1-.154-6.642L32.056,7.33A4.814,4.814,0,1,1,29.014.138a4.765,4.765,0,0,1,3.659,5.415L35.78,6.682A11.553,11.553,0,1,1,43.257,22.72L38.531,35.783a11.583,11.583,0,0,1,4.293,3.389l5.669-3.655A4.881,4.881,0,0,1,50.711,29.5a4.8,4.8,0,1,1-1.1,7.624M3.941,2.083A2.847,2.847,0,0,0,2.127,5.877,2.88,2.88,0,0,0,7.58,4.047,2.839,2.839,0,0,0,3.941,2.083m23.13,0a2.846,2.846,0,0,0-1.814,3.794,2.88,2.88,0,0,0,5.454-1.831,2.838,2.838,0,0,0-3.64-1.963M49.736,13.969a7.542,7.542,0,0,1,3.829,3.83,9.621,9.621,0,1,0-14.607,0,7.419,7.419,0,0,1,3.82-3.845,4.812,4.812,0,1,1,6.958.016M45.361,7.876A2.871,2.871,0,1,0,49,9.769a2.859,2.859,0,0,0-3.641-1.893m-27.5,19.575a6.922,6.922,0,0,1,3.843,3.9,9.62,9.62,0,1,0-14.546-.02,6.747,6.747,0,0,1,3.831-3.866,4.807,4.807,0,1,1,6.872-.011m34.072-8.129c-.688-2.908-3.066-3.97-5.69-3.98-2.67-.01-5.107,1.188-5.67,4.017a9.6,9.6,0,0,0,11.359-.037M26.706,37.088A11.416,11.416,0,0,1,36.721,35.12l4.7-13.056a11.642,11.642,0,0,1-5.389-5.109l-10.609,4.49A11.452,11.452,0,0,1,22.9,32.9ZM14.067,21.244a2.845,2.845,0,0,0-2.474,3.384,2.884,2.884,0,1,0,2.474-3.384M20.1,32.808a4.957,4.957,0,0,0-5.658-3.847,4.885,4.885,0,0,0-5.667,3.871A9.475,9.475,0,0,0,20.1,32.808m31.933-1.783a2.854,2.854,0,0,0-1.743,3.7,2.877,2.877,0,0,0,5.437-1.883,2.837,2.837,0,0,0-3.693-1.817M37.178,48.678a6.86,6.86,0,0,1,3.806,3.886,9.623,9.623,0,1,0-14.562-.043,6.849,6.849,0,0,1,3.836-3.857,4.81,4.81,0,0,1,6.864-6.74,4.916,4.916,0,0,1,.055,6.754M3.945,39.67a2.846,2.846,0,0,0-1.819,3.795,2.88,2.88,0,0,0,5.453-1.83A2.83,2.83,0,0,0,3.945,39.67m28.921,2.878a2.851,2.851,0,0,0-1.885,3.694,2.882,2.882,0,0,0,5.505-1.694,2.85,2.85,0,0,0-3.62-2m-20.256,5.8a2.869,2.869,0,0,0,1.7,5.48,2.9,2.9,0,0,0,1.946-3.523,2.846,2.846,0,0,0-3.645-1.957M39.374,54a4.7,4.7,0,0,0-4.554-3.858l-2.236.007a4.67,4.67,0,0,0-4.546,3.874A9.469,9.469,0,0,0,39.374,54" transform="translate(0 0)" fill="#12263f"/>
          </g>
        </g>
      </g>
    </g>
  </g>
</svg>
