<svg xmlns="http://www.w3.org/2000/svg" xmlns:xlink="http://www.w3.org/1999/xlink" width="128" height="128" viewBox="0 0 128 128">
  <defs>
    <clipPath id="clip-path">
      <rect id="Rectángulo_456267" data-name="Rectángulo 456267" width="128" height="128" fill="none"/>
    </clipPath>
    <clipPath id="clip-path-2">
      <rect id="Rectángulo_47325" data-name="Rectángulo 47325" width="63.14" height="67.654" fill="#19538d"/>
    </clipPath>
  </defs>
  <g id="Grupo_1180415" data-name="Grupo 1180415" transform="translate(511.746 8527) rotate(180)">
    <path id="Trazado_999622" data-name="Trazado 999622" d="M59.07,0A59.07,59.07,0,1,1,0,59.07,59.071,59.071,0,0,1,59.07,0" transform="translate(388.676 8403.93)" fill="#fff"/>
    <g id="Grupo_1179902" data-name="Grupo 1179902" transform="translate(383.746 8399)">
      <g id="Grupo_1179905" data-name="Grupo 1179905" clip-path="url(#clip-path)">
        <path id="Trazado_999618" data-name="Trazado 999618" d="M64,0A64,64,0,1,1,0,64,64,64,0,0,1,64,0" fill="none"/>
        <path id="Trazado_999619" data-name="Trazado 999619" d="M5,59a5,5,0,1,1-5,5,5,5,0,0,1,5-5" fill="#19538d"/>
        <path id="Trazado_999620" data-name="Trazado 999620" d="M21,19a5,5,0,1,1-5,5,5,5,0,0,1,5-5" fill="#19538d"/>
        <path id="Trazado_999621" data-name="Trazado 999621" d="M64,124A60.068,60.068,0,0,1,4,64H7A57,57,0,1,0,22.408,25.024L20.22,22.972A60,60,0,1,1,64,124" fill="#19538d"/>
        <rect id="Rectángulo_456268" data-name="Rectángulo 456268" width="128" height="128" fill="none"/>
        <rect id="Rectángulo_456269" data-name="Rectángulo 456269" width="128" height="128" fill="none"/>
      </g>
    </g>
    <g id="Grupo_1179903" data-name="Grupo 1179903" transform="translate(481.67 8497.729) rotate(180)">
      <g id="Grupo_1099618" data-name="Grupo 1099618" transform="translate(0 0)">
        <rect id="Rectángulo_401104" data-name="Rectángulo 401104" width="68.18" height="69.001" transform="translate(0)" fill="none"/>
      </g>
      <g id="Grupo_156261" data-name="Grupo 156261" transform="translate(1.366 0.404)">
        <rect id="Rectángulo_47312" data-name="Rectángulo 47312" width="9.017" height="4.508" transform="translate(5.659 21.441)" fill="#19538d"/>
        <path id="Trazado_198297" data-name="Trazado 198297" d="M10.008,59.838h9.011l-4.508,5.635Z" transform="translate(-4.347 -25.992)" fill="#19538d"/>
        <g id="Grupo_156260" data-name="Grupo 156260" transform="translate(0 0)">
          <g id="Grupo_156259" data-name="Grupo 156259" clip-path="url(#clip-path-2)">
            <path id="Trazado_198298" data-name="Trazado 198298" d="M25.947,72.837a9.011,9.011,0,1,0,9.011-9.011,9.011,9.011,0,0,0-9.011,9.011M34.961,79.6a6.722,6.722,0,0,1-3.282-.854L35.5,73.966h6.119A6.766,6.766,0,0,1,34.961,79.6Zm6.666-7.89H36.09V66.177a6.772,6.772,0,0,1,5.535,5.534Zm-7.788-5.534v6.264l-3.912,4.89a6.746,6.746,0,0,1,3.912-11.156" transform="translate(-11.271 -27.724)" fill="#19538d"/>
            <rect id="Rectángulo_47313" data-name="Rectángulo 47313" width="2.254" height="2.254" transform="translate(14.676 56.38)" fill="#19538d"/>
            <rect id="Rectángulo_47314" data-name="Rectángulo 47314" width="13.525" height="2.254" transform="translate(19.185 56.38)" fill="#19538d"/>
            <rect id="Rectángulo_47315" data-name="Rectángulo 47315" width="18.033" height="2.254" transform="translate(14.676 60.89)" fill="#19538d"/>
            <rect id="Rectángulo_47316" data-name="Rectángulo 47316" width="2.254" height="2.254" transform="translate(39.472 56.38)" fill="#19538d"/>
            <rect id="Rectángulo_47317" data-name="Rectángulo 47317" width="13.525" height="2.254" transform="translate(43.981 56.38)" fill="#19538d"/>
            <rect id="Rectángulo_47318" data-name="Rectángulo 47318" width="18.033" height="2.254" transform="translate(39.472 60.89)" fill="#19538d"/>
            <rect id="Rectángulo_47319" data-name="Rectángulo 47319" width="2.254" height="2.254" transform="translate(41.726 11.295)" fill="#19538d"/>
            <rect id="Rectángulo_47320" data-name="Rectángulo 47320" width="11.271" height="2.254" transform="translate(46.235 11.295)" fill="#19538d"/>
            <rect id="Rectángulo_47321" data-name="Rectángulo 47321" width="15.779" height="2.254" transform="translate(41.726 15.804)" fill="#19538d"/>
            <rect id="Rectángulo_47322" data-name="Rectángulo 47322" width="2.254" height="2.254" transform="translate(41.726 23.694)" fill="#19538d"/>
            <rect id="Rectángulo_47323" data-name="Rectángulo 47323" width="11.271" height="2.254" transform="translate(46.235 23.694)" fill="#19538d"/>
            <rect id="Rectángulo_47324" data-name="Rectángulo 47324" width="15.779" height="2.254" transform="translate(41.726 28.202)" fill="#19538d"/>
            <path id="Trazado_198299" data-name="Trazado 198299" d="M72.908,81.853H86.435a1.127,1.127,0,0,0,1.127-1.128V71.714a1.127,1.127,0,0,0-1.127-1.128H83.052V64.953a1.127,1.127,0,0,0-1.127-1.128H77.417a1.127,1.127,0,0,0-1.128,1.128v3.378H72.909a1.127,1.127,0,0,0-1.127,1.128V80.734a1.127,1.127,0,0,0,1.126,1.121m12.4-2.248H83.052V72.841h2.254ZM78.546,66.079H80.8V79.606H78.546Zm-4.508,4.508H76.29V79.6H74.036Z" transform="translate(-31.181 -27.724)" fill="#19538d"/>
            <path id="Trazado_198300" data-name="Trazado 198300" d="M43.018,27H56.543a1.127,1.127,0,0,0,1.127-1.127V19.109a1.127,1.127,0,0,0-1.127-1.127H43.018a1.127,1.127,0,0,0-1.128,1.127v6.763A1.127,1.127,0,0,0,43.016,27Zm1.127-6.764H55.42v4.51H44.144Z" transform="translate(-18.197 -7.811)" fill="#19538d"/>
            <path id="Trazado_198301" data-name="Trazado 198301" d="M43.018,48.923H56.543A1.127,1.127,0,0,0,57.669,47.8V41.035a1.127,1.127,0,0,0-1.127-1.128H43.018a1.127,1.127,0,0,0-1.128,1.128V47.8a1.127,1.127,0,0,0,1.128,1.127m1.127-6.762H55.42V46.67H44.144Z" transform="translate(-18.197 -17.334)" fill="#19538d"/>
            <path id="Trazado_198302" data-name="Trazado 198302" d="M4.53,18.6v15.24a1.129,1.129,0,0,0,.247.7l4.261,5.328V66.528a1.128,1.128,0,0,0,1.128,1.127H62.014a1.127,1.127,0,0,0,1.127-1.127V5.664a1.127,1.127,0,0,0-1.127-1.128H18.6A10.144,10.144,0,1,0,4.53,18.6m9.012,6.228H6.789V22.571h6.757ZM10.169,37.678,8.005,34.969h4.331Zm-3.381-10.6H9.042v5.636H6.788Zm6.764,5.636H11.3V27.082h2.254ZM60.889,6.792V65.4H11.3V39.875l4.261-5.327a1.129,1.129,0,0,0,.247-.7V18.6A10.085,10.085,0,0,0,19.721,6.792ZM10.17,2.282A7.89,7.89,0,0,1,14.121,17a1.127,1.127,0,0,0-.565.975v2.346H11.3v-6.3l3.051-3.054L12.756,9.375,10.17,11.96,7.584,9.375,5.991,10.968l3.051,3.051v6.3H6.788V17.971A1.125,1.125,0,0,0,6.224,17,7.89,7.89,0,0,1,10.176,2.28Z" transform="translate(-0.001 -0.001)" fill="#19538d"/>
          </g>
        </g>
      </g>
    </g>
  </g>
</svg>
