<svg xmlns="http://www.w3.org/2000/svg" xmlns:xlink="http://www.w3.org/1999/xlink" width="150" height="150" viewBox="0 0 150 150">
  <defs>
    <clipPath id="clip-path">
      <rect id="Rectángulo_456312" data-name="Rectángulo 456312" width="150" height="150" fill="none"/>
    </clipPath>
    <clipPath id="clip-path-3">
      <rect id="Rectángulo_467162" data-name="Rectángulo 467162" width="89" height="88.986" fill="#19538d"/>
    </clipPath>
  </defs>
  <g id="Grupo_1180422" data-name="Grupo 1180422" transform="translate(-307.059 -10093)">
    <g id="Grupo_1179968" data-name="Grupo 1179968" transform="translate(-115 658)">
      <g id="Grupo_1179959" data-name="Grupo 1179959" transform="translate(422.059 9435)" clip-path="url(#clip-path)">
        <path id="Trazado_999654" data-name="Trazado 999654" d="M1.5,5.146H123.437A18.479,18.479,0,0,1,141.96,23.58V144.937H20.022A18.479,18.479,0,0,1,1.5,126.5Z" transform="translate(0.815 2.76)" fill="#fff"/>
      </g>
      <g id="Grupo_1179960" data-name="Grupo 1179960" transform="translate(422.059 9435)">
        <g id="Grupo_1179956" data-name="Grupo 1179956" clip-path="url(#clip-path)">
          <path id="Trazado_999651" data-name="Trazado 999651" d="M94.9,30a7.681,7.681,0,1,1-7.718,7.681A7.7,7.7,0,0,1,94.9,30" transform="translate(47.384 16.085)" fill="#19538d"/>
          <path id="Trazado_999652" data-name="Trazado 999652" d="M65.9,0a7.681,7.681,0,1,1-7.718,7.681A7.7,7.7,0,0,1,65.9,0" transform="translate(31.622 0)" fill="#19538d"/>
          <path id="Trazado_999653" data-name="Trazado 999653" d="M141.96,51.007v93.93H20.022A18.479,18.479,0,0,1,1.5,126.5V5.146H97.75" transform="translate(0.815 2.76)" fill="none" stroke="#19538d" stroke-miterlimit="10" stroke-width="4"/>
        </g>
      </g>
    </g>
    <g id="Grupo_1181043" data-name="Grupo 1181043" transform="translate(335.059 10125.717)">
      <g id="Grupo_1181042" data-name="Grupo 1181042" clip-path="url(#clip-path-3)">
        <path id="Trazado_1033386" data-name="Trazado 1033386" d="M2.871,27.906V95.367l48.8.01.009-17.232a1.428,1.428,0,1,1,2.856,0V96.769a1.451,1.451,0,0,1-1.486,1.469H1.493A1.442,1.442,0,0,1,0,96.722L0,26.516a1.412,1.412,0,0,1,1.479-1.483l37.983.016L54.476,40.066l.076,7.91a1.444,1.444,0,0,1-1.321,1.418,1.4,1.4,0,0,1-1.543-1.418l-.022-5.722-12.894,0a1.5,1.5,0,0,1-1.45-1.465L37.317,27.9ZM49.443,39.295l-9.21-9.231L40.188,39.4Z" transform="translate(0.001 -17.846)" fill="#19538d"/>
        <path id="Trazado_1033387" data-name="Trazado 1033387" d="M144.382,37.33,131.5,37.314a1.425,1.425,0,0,1-1.427-1.559,1.445,1.445,0,0,1,1.7-1.292l13.436-.029,11.042-11.006a14.346,14.346,0,1,1,2.042,2.043L147.31,36.487l-.041,3.689a1.422,1.422,0,0,1-1.311,1.419,1.392,1.392,0,0,1-1.547-1.416ZM165.64,3.017a11.47,11.47,0,1,0,13.072,9.594A11.449,11.449,0,0,0,165.64,3.017" transform="translate(-92.723 0)" fill="#19538d"/>
        <path id="Trazado_1033388" data-name="Trazado 1033388" d="M156.212,193.91l-10.978-11.038-13.735-.008a1.46,1.46,0,0,1-1.426-1.327,1.421,1.421,0,0,1,1.422-1.554l15.02.063,11.777,11.772a14.362,14.362,0,1,1-2.08,2.091m9.43-2.292a11.47,11.47,0,1,0,13.073,9.594,11.451,11.451,0,0,0-13.073-9.594" transform="translate(-92.727 -128.311)" fill="#19538d"/>
        <path id="Trazado_1033389" data-name="Trazado 1033389" d="M144.418,123.629l-.029-2.849-12.884-.013a1.421,1.421,0,0,1-1.427-1.315,1.388,1.388,0,0,1,1.431-1.538l21.579-.01a14.368,14.368,0,1,1,.006,2.879l-5.8-.015-.021,2.859a1.425,1.425,0,0,1-2.851,0M165.646,108a11.47,11.47,0,1,0,13.073,9.594A11.449,11.449,0,0,0,165.646,108" transform="translate(-92.73 -74.839)" fill="#19538d"/>
        <path id="Trazado_1033390" data-name="Trazado 1033390" d="M47.352,66.506H21.467A1.5,1.5,0,0,1,20,65.042l.014-8.594a1.4,1.4,0,0,1,1.451-1.425l25.785-.005a1.4,1.4,0,0,1,1.45,1.433v8.591a1.466,1.466,0,0,1-1.344,1.465M45.826,63.63V57.888H22.878l0,5.752Z" transform="translate(-14.255 -39.222)" fill="#19538d"/>
        <path id="Trazado_1033391" data-name="Trazado 1033391" d="M119.37,210.188a1.454,1.454,0,0,1,1.319-1.557,1.391,1.391,0,0,1,1.539,1.427l0,5.731a1.439,1.439,0,0,1-1.442,1.445h-14.32a1.45,1.45,0,0,1-1.447-1.455V201.45a1.409,1.409,0,0,1,1.437-1.431l10.034-.006a1.387,1.387,0,0,1,1.418,1.3,1.446,1.446,0,0,1-1.42,1.569l-8.6,0v11.491h11.469Z" transform="translate(-74.872 -142.591)" fill="#19538d"/>
        <path id="Trazado_1033392" data-name="Trazado 1033392" d="M41.558,182.9l-20.044-.013a1.428,1.428,0,0,1-1.437-1.319,1.394,1.394,0,0,1,1.43-1.542l20.314.021c.837,0,1.23.95,1.175,1.509a1.469,1.469,0,0,1-1.438,1.344" transform="translate(-14.31 -128.343)" fill="#19538d"/>
        <path id="Trazado_1033393" data-name="Trazado 1033393" d="M41.558,112.9l-20.044-.013a1.428,1.428,0,0,1-1.437-1.319,1.394,1.394,0,0,1,1.43-1.542l20.314.021c.837,0,1.23.95,1.175,1.509a1.469,1.469,0,0,1-1.438,1.344" transform="translate(-14.31 -78.44)" fill="#19538d"/>
        <path id="Trazado_1033394" data-name="Trazado 1033394" d="M124.84,211.113l-4.384-4.36a1.476,1.476,0,0,1-.063-1.957,1.452,1.452,0,0,1,2.1-.081l3.294,3.246,7.571-7.556a1.469,1.469,0,0,1,1.965-.07,1.485,1.485,0,0,1,.08,2.118l-8.445,8.472a1.526,1.526,0,0,1-2.124.189" transform="translate(-85.586 -142.576)" fill="#19538d"/>
        <path id="Trazado_1033395" data-name="Trazado 1033395" d="M49.388,157.875l-12.884,0a1.427,1.427,0,0,1-1.43-1.317,1.391,1.391,0,0,1,1.422-1.539l12.9-.008a1.386,1.386,0,0,1,1.422,1.3,1.423,1.423,0,0,1-1.428,1.556" transform="translate(-25.001 -110.511)" fill="#19538d"/>
        <path id="Trazado_1033396" data-name="Trazado 1033396" d="M49.388,227.875l-12.884,0a1.427,1.427,0,0,1-1.43-1.317,1.391,1.391,0,0,1,1.422-1.539l12.9-.008a1.386,1.386,0,0,1,1.422,1.3,1.423,1.423,0,0,1-1.428,1.556" transform="translate(-25.001 -160.414)" fill="#19538d"/>
        <path id="Trazado_1033397" data-name="Trazado 1033397" d="M45.086,137.872l-8.586,0a1.418,1.418,0,0,1-1.426-1.313,1.391,1.391,0,0,1,1.419-1.537l8.6-.008a1.386,1.386,0,0,1,1.418,1.3,1.415,1.415,0,0,1-1.423,1.553" transform="translate(-25.001 -96.253)" fill="#19538d"/>
        <path id="Trazado_1033398" data-name="Trazado 1033398" d="M45.086,207.872l-8.586,0a1.419,1.419,0,0,1-1.426-1.313,1.391,1.391,0,0,1,1.419-1.537l8.6-.008a1.386,1.386,0,0,1,1.418,1.3,1.415,1.415,0,0,1-1.423,1.553" transform="translate(-25.001 -146.157)" fill="#19538d"/>
        <path id="Trazado_1033399" data-name="Trazado 1033399" d="M20.9,205.142a1.375,1.375,0,0,1,1.876.705,1.423,1.423,0,1,1-1.876-.705" transform="translate(-14.303 -146.15)" fill="#19538d"/>
        <path id="Trazado_1033400" data-name="Trazado 1033400" d="M20.9,225.142a1.375,1.375,0,0,1,1.876.705,1.423,1.423,0,1,1-1.876-.705" transform="translate(-14.303 -160.408)" fill="#19538d"/>
        <path id="Trazado_1033401" data-name="Trazado 1033401" d="M20.9,135.142a1.375,1.375,0,0,1,1.876.705,1.423,1.423,0,1,1-1.876-.705" transform="translate(-14.303 -96.246)" fill="#19538d"/>
        <path id="Trazado_1033402" data-name="Trazado 1033402" d="M20.9,155.142a1.375,1.375,0,0,1,1.876.705,1.423,1.423,0,1,1-1.876-.705" transform="translate(-14.303 -110.505)" fill="#19538d"/>
        <path id="Trazado_1033403" data-name="Trazado 1033403" d="M248.061,35.749l-11.576.018a1.443,1.443,0,0,1-1.439-1.439l.013-3.163a4.186,4.186,0,0,1,3.853-4.028,4.433,4.433,0,0,1,.32-5.982,4.345,4.345,0,0,1,5.8-.139,4.417,4.417,0,0,1,.469,6.119,4.28,4.28,0,0,1,3.877,4.309l-.012,2.894a1.39,1.39,0,0,1-1.309,1.412m-6.325-12.808a1.42,1.42,0,1,0,1.771.755,1.413,1.413,0,0,0-1.771-.755m4.62,9.96c.394-.636.311-2.613-.784-2.733a31.457,31.457,0,0,0-6.721,0c-1.094.116-1.181,2.1-.784,2.732Z" transform="translate(-167.565 -14.238)" fill="#19538d"/>
        <path id="Trazado_1033404" data-name="Trazado 1033404" d="M248.061,245.749l-11.576.018a1.443,1.443,0,0,1-1.439-1.439l.013-3.163a4.186,4.186,0,0,1,3.853-4.028,4.433,4.433,0,0,1,.32-5.982,4.345,4.345,0,0,1,5.8-.139,4.417,4.417,0,0,1,.469,6.119,4.28,4.28,0,0,1,3.877,4.309l-.012,2.894a1.389,1.389,0,0,1-1.309,1.412m-6.325-12.808a1.42,1.42,0,1,0,1.771.755,1.413,1.413,0,0,0-1.771-.755m4.62,9.96c.394-.636.311-2.613-.784-2.733a31.456,31.456,0,0,0-6.721,0c-1.094.116-1.181,2.1-.784,2.732Z" transform="translate(-167.565 -163.949)" fill="#19538d"/>
        <path id="Trazado_1033405" data-name="Trazado 1033405" d="M248.061,140.749l-11.576.018a1.443,1.443,0,0,1-1.439-1.439l.013-3.163a4.186,4.186,0,0,1,3.853-4.028,4.433,4.433,0,0,1,.32-5.982,4.345,4.345,0,0,1,5.8-.139,4.417,4.417,0,0,1,.469,6.119,4.28,4.28,0,0,1,3.877,4.309l-.012,2.894a1.389,1.389,0,0,1-1.309,1.412m-6.325-12.808a1.42,1.42,0,1,0,1.771.755,1.413,1.413,0,0,0-1.771-.755m4.62,9.96c.394-.636.311-2.613-.784-2.733a31.456,31.456,0,0,0-6.721,0c-1.094.116-1.181,2.1-.784,2.732Z" transform="translate(-167.565 -89.093)" fill="#19538d"/>
      </g>
    </g>
  </g>
</svg>
