<svg xmlns="http://www.w3.org/2000/svg" xmlns:xlink="http://www.w3.org/1999/xlink" width="150" height="150" viewBox="0 0 150 150">
  <defs>
    <clipPath id="clip-path">
      <rect id="Rectángulo_456312" data-name="Rectángulo 456312" width="150" height="150" fill="none"/>
    </clipPath>
    <clipPath id="clip-path-3">
      <rect id="Rectángulo_467164" data-name="Rectángulo 467164" width="96.208" height="97.237" fill="#19538d"/>
    </clipPath>
  </defs>
  <g id="Grupo_1180424" data-name="Grupo 1180424" transform="translate(-307.059 -10093)">
    <g id="Grupo_1179968" data-name="Grupo 1179968" transform="translate(-115 658)">
      <g id="Grupo_1179959" data-name="Grupo 1179959" transform="translate(422.059 9435)" clip-path="url(#clip-path)">
        <path id="Trazado_999654" data-name="Trazado 999654" d="M1.5,5.146H123.437A18.479,18.479,0,0,1,141.96,23.58V144.937H20.022A18.479,18.479,0,0,1,1.5,126.5Z" transform="translate(0.815 2.76)" fill="#fff"/>
      </g>
      <g id="Grupo_1179960" data-name="Grupo 1179960" transform="translate(422.059 9435)">
        <g id="Grupo_1179956" data-name="Grupo 1179956" clip-path="url(#clip-path)">
          <path id="Trazado_999651" data-name="Trazado 999651" d="M94.9,30a7.681,7.681,0,1,1-7.718,7.681A7.7,7.7,0,0,1,94.9,30" transform="translate(47.384 16.085)" fill="#19538d"/>
          <path id="Trazado_999652" data-name="Trazado 999652" d="M65.9,0a7.681,7.681,0,1,1-7.718,7.681A7.7,7.7,0,0,1,65.9,0" transform="translate(31.622 0)" fill="#19538d"/>
          <path id="Trazado_999653" data-name="Trazado 999653" d="M141.96,51.007v93.93H20.022A18.479,18.479,0,0,1,1.5,126.5V5.146H97.75" transform="translate(0.815 2.76)" fill="none" stroke="#19538d" stroke-miterlimit="10" stroke-width="4"/>
        </g>
      </g>
    </g>
    <g id="Grupo_1181047" data-name="Grupo 1181047" transform="translate(333.955 10119.382)">
      <g id="Grupo_1181046" data-name="Grupo 1181046" clip-path="url(#clip-path-3)">
        <path id="Trazado_1033413" data-name="Trazado 1033413" d="M125.436,193.356l-38.716-.008A1.618,1.618,0,0,1,85.1,191.8l-.006-50.45a1.747,1.747,0,0,1,1.9-1.588l32.879.036,7.263,7.283,0,44.717a1.573,1.573,0,0,1-1.7,1.558m-6.182-44.137a1.553,1.553,0,0,1-1.545-1.469l-.029-4.788-29.445-.018v47.284l35.778,0,0-40.958Z" transform="translate(-58.52 -96.119)" fill="#19538d"/>
        <path id="Trazado_1033414" data-name="Trazado 1033414" d="M26.611,31.353a2.162,2.162,0,0,1-2.256,2.356L2.216,33.7A2.208,2.208,0,0,1,.036,31.806L0,2.193A2.167,2.167,0,0,1,2.011.114l16.227,0,7.728,6.085A2.028,2.028,0,0,1,26.6,7.8ZM23.441,8.131,17.129,3.21l-13.995,0,0,27.371,20.349,0Z" transform="translate(0 -0.076)" fill="#19538d"/>
        <path id="Trazado_1033415" data-name="Trazado 1033415" d="M249.458,31.592a2.179,2.179,0,0,1-2.2,2.026l-22.135.019a2.164,2.164,0,0,1-2.252-2.2L222.916,1.8c0-1.084,1.293-1.8,2.209-1.8l15.988.052,7.373,5.827a2.293,2.293,0,0,1,1,1.839ZM246.343,8.163l-6.358-5.027-13.976.017.005,27.364,20.343,0Z" transform="translate(-153.278 0)" fill="#19538d"/>
        <path id="Trazado_1033416" data-name="Trazado 1033416" d="M49.817,160.753l-2.68,3.732a1.573,1.573,0,1,1-2.5-1.892c.3-.362.619-.579.61-1.1l-5.893.037a1.59,1.59,0,0,1-1.652-1.7l.037-38.666c0-.95,1.155-1.276,1.7-1.179a1.675,1.675,0,0,1,1.419,1.822l-.006,36.523,4.482-.006-.91-1.382a1.558,1.558,0,0,1,.428-2.011c.4-.286,1.436-.55,1.895.057L49.7,158.9a1.666,1.666,0,0,1,.113,1.853" transform="translate(-25.932 -82.504)" fill="#19538d"/>
        <path id="Trazado_1033417" data-name="Trazado 1033417" d="M228.526,160.9a1.591,1.591,0,0,1,.007-1.915l2.8-3.754a1.491,1.491,0,0,1,1.956-.349,1.55,1.55,0,0,1,.5,2.2c-.22.383-.638.623-.658,1.295l4.093-.073.022-36.773a1.624,1.624,0,0,1,1.445-1.552,1.547,1.547,0,0,1,1.686,1.508l.017,38.34a1.56,1.56,0,0,1-1.6,1.7l-5.672,0c.317,1.125,1.464,1.89.613,3.159-.4.59-1.715.867-2.207.21Z" transform="translate(-156.947 -82.506)" fill="#19538d"/>
        <path id="Trazado_1033418" data-name="Trazado 1033418" d="M135.318,279.8l-23.489-.022c-.748,0-1.036-.964-1.084-1.4-.055-.5.256-1.66,1.1-1.661l23.324-.047a1.544,1.544,0,0,1,1.651,1.421,1.478,1.478,0,0,1-1.5,1.708" transform="translate(-76.159 -190.274)" fill="#19538d"/>
        <path id="Trazado_1033419" data-name="Trazado 1033419" d="M135.831,192.794l-23.761.077a1.493,1.493,0,0,1-1.364-1.729,1.576,1.576,0,0,1,1.7-1.4l22.729-.008a1.688,1.688,0,0,1,1.6,1.141c.185.462.015,1.916-.9,1.919" transform="translate(-76.13 -130.486)" fill="#19538d"/>
        <path id="Trazado_1033420" data-name="Trazado 1033420" d="M135.14,214.776l-22.746,0a1.564,1.564,0,0,1-1.69-1.41,1.485,1.485,0,0,1,1.366-1.718l23.65.04c.834,0,1.133,1.169,1.06,1.659a1.591,1.591,0,0,1-1.64,1.431" transform="translate(-76.13 -145.556)" fill="#19538d"/>
        <path id="Trazado_1033421" data-name="Trazado 1033421" d="M135.588,258.008l-23.214.06a1.58,1.58,0,0,1-1.676-1.494,1.538,1.538,0,0,1,1.7-1.657l22.731,0a1.676,1.676,0,0,1,1.582,1.119c.237.571-.047,1.967-1.124,1.97" transform="translate(-76.128 -175.314)" fill="#19538d"/>
        <path id="Trazado_1033422" data-name="Trazado 1033422" d="M135.2,236.655l-22.8.038a1.565,1.565,0,0,1-1.642-1.1c-.211-.625.071-1.984,1.025-1.985l23.943-.013c.8,0,1.163,1.209,1.042,1.707a1.687,1.687,0,0,1-1.573,1.35" transform="translate(-76.128 -160.653)" fill="#19538d"/>
        <path id="Trazado_1033423" data-name="Trazado 1033423" d="M128.873,171.331l-16.7.041a1.7,1.7,0,0,1-1.5-1.61,1.565,1.565,0,0,1,1.485-1.566l16.615,0a1.518,1.518,0,0,1,1.478,1.271c.11.59-.34,1.863-1.383,1.866" transform="translate(-76.117 -115.672)" fill="#19538d"/>
        <path id="Trazado_1033424" data-name="Trazado 1033424" d="M33.4,32.445l-10.307.024a1.553,1.553,0,0,1-1.431-1.613,1.537,1.537,0,0,1,1.671-1.5l9.7-.005a1.558,1.558,0,0,1,1.741,1.28A1.513,1.513,0,0,1,33.4,32.445" transform="translate(-14.896 -20.184)" fill="#19538d"/>
        <path id="Trazado_1033425" data-name="Trazado 1033425" d="M33.114,71.6l-9.78.021a1.579,1.579,0,0,1-1.7-1.363A1.557,1.557,0,0,1,23.3,68.493l10.012.015a1.451,1.451,0,0,1,1.455,1.448A1.565,1.565,0,0,1,33.114,71.6" transform="translate(-14.87 -47.105)" fill="#19538d"/>
        <path id="Trazado_1033426" data-name="Trazado 1033426" d="M33.154,51.9,23.3,51.9a1.578,1.578,0,1,1,.024-3.146l9.648-.007a1.654,1.654,0,0,1,1.767,1.437A1.567,1.567,0,0,1,33.154,51.9" transform="translate(-14.858 -33.528)" fill="#19538d"/>
        <path id="Trazado_1033427" data-name="Trazado 1033427" d="M256.193,32.471l-10.3.041a1.563,1.563,0,0,1-1.526-1.621,1.543,1.543,0,0,1,1.761-1.5l9.7,0a1.551,1.551,0,0,1,1.645,1.21c.142.608-.231,1.865-1.281,1.869" transform="translate(-168.058 -20.212)" fill="#19538d"/>
        <path id="Trazado_1033428" data-name="Trazado 1033428" d="M255.8,71.613l-9.633.012a1.648,1.648,0,0,1-1.787-1.43,1.471,1.471,0,0,1,1.447-1.684l10.01-.017a1.566,1.566,0,1,1-.037,3.12" transform="translate(-168.059 -47.105)" fill="#19538d"/>
        <path id="Trazado_1033429" data-name="Trazado 1033429" d="M255.857,51.9l-9.7.013a1.593,1.593,0,1,1,.027-3.168l9.645.007a1.6,1.6,0,0,1,1.708,1.39,1.57,1.57,0,0,1-1.68,1.758" transform="translate(-168.086 -33.524)" fill="#19538d"/>
      </g>
    </g>
  </g>
</svg>
