<svg xmlns="http://www.w3.org/2000/svg" xmlns:xlink="http://www.w3.org/1999/xlink" width="85" height="85" viewBox="0 0 85 85">
  <defs>
    <clipPath id="clip-path">
      <rect id="Rectángulo_467161" data-name="Rectángulo 467161" width="55.786" height="55.792" fill="#12263f"/>
    </clipPath>
  </defs>
  <g id="Grupo_1180426" data-name="Grupo 1180426" transform="translate(-705.629 -410)">
    <g id="Grupo_1180019" data-name="Grupo 1180019">
      <g id="Grupo_1180023" data-name="Grupo 1180023">
        <rect id="Rectángulo_456333" data-name="Rectángulo 456333" width="85" height="85" rx="10" transform="translate(705.629 410)" fill="#68eae0"/>
        <g id="Grupo_1181041" data-name="Grupo 1181041" transform="translate(720.236 421.92)">
          <g id="Grupo_1181040" data-name="Grupo 1181040" clip-path="url(#clip-path)">
            <path id="Trazado_1033379" data-name="Trazado 1033379" d="M5.19,53.473A.9.9,0,0,1,6,52.491c.3-.042.922.256.923.739l.026,16.715H58.332l0-25.283a2.729,2.729,0,0,0-2.979-2.8H27.181a.878.878,0,0,1-.9-.805c-.038-.3.246-.918.742-.918l28.336-.034a4.467,4.467,0,0,1,4.7,4.381l.011,32.368a4.419,4.419,0,0,1-4.551,4.455l-46.3-.038a4.227,4.227,0,0,1-4-4.225ZM55.962,79.538a2.6,2.6,0,0,0,2.447-2.562L58.4,71.863l-51.451,0v5.007a2.659,2.659,0,0,0,2.811,2.7Z" transform="translate(-4.286 -33.12)" fill="#12263f"/>
            <path id="Trazado_1033380" data-name="Trazado 1033380" d="M106.793,86.653a2.262,2.262,0,0,1-2.63-1.828l-.28-1.658-1.071-.511-1.756,1.251c-1.046.745-2.177-.017-2.919-.9-.648-.772-1.2-1.67-.56-2.594l1.186-1.7c-.086-1.957-2.135-.789-3.2-1.943a3.8,3.8,0,0,1,0-3.988c.991-1.106,2.77-.352,3.209-1.336.535-1.2-1.237-1.592-1.344-3.194-.054-.807.453-1.222.936-1.825a2.139,2.139,0,0,1,3.059-.62l1.478,1.081c.32-.111.8-.2,1.015-.5A3.025,3.025,0,0,0,104.2,65a2.222,2.222,0,0,1,2.522-2.121c1.221-.007,2.456.34,2.686,1.705l.3,1.8a4.5,4.5,0,0,0,1.135.506l1.275-.965a2.289,2.289,0,0,1,3.353.617c.641.8,1.185,1.732.483,2.693l-1.168,1.6c.242,2.017,2.12.742,3.374,1.989a3.688,3.688,0,0,1,.078,3.967c-1.115,1.255-2.843.372-3.263,1.482-.447,1.18,1.264,1.61,1.292,3.2.019,1.1-2.125,3.607-3.776,2.49l-1.838-1.244c-.253-.172-.7.169-.889.314-.5.385-.089,2.074-.955,2.983a2.72,2.72,0,0,1-2.017.64M107.7,83.2a2.806,2.806,0,0,1,3.873-1.957l1.629,1.183a3.657,3.657,0,0,0,.976-1.084l-.978-1.557a2.9,2.9,0,0,1,1.363-3.792l2.06-.4c.134-.352.228-1.152-.036-1.414l-2.22-.485a3.074,3.074,0,0,1-1.493-3.186c.2-.843.933-1.315,1.353-2.051-.074-.349-.652-1.04-1.013-.962-.785.279-1.224,1.1-2.066,1.311a3.046,3.046,0,0,1-3.04-1.324,7.482,7.482,0,0,1-.546-2.455c-.331-.143-1.063-.25-1.345.026-.582.57.305,2.66-1.943,3.486-.673.247-1.443.586-2.1.122L100.411,67.4l-1,1,1.179,1.676c.858,1.219-.353,3.536-1.44,3.751l-2.043.4c-.09.369-.235,1.1.059,1.372.686.643,2.583-.328,3.486,1.949.264.666.6,1.437.129,2.1l-1.255,1.761a3.125,3.125,0,0,0,.954.989l1.952-1.335a2.959,2.959,0,0,1,2.955,1.079c.58.818.453,1.774.639,2.684a2.866,2.866,0,0,0,1.451-.039Z" transform="translate(-78.447 -51.924)" fill="#12263f"/>
            <path id="Trazado_1033381" data-name="Trazado 1033381" d="M13.617,17.52c-1.156.187-.041,3.53-3.127,3.334a2.546,2.546,0,0,1-1.883-.543c-.968-.983-.343-2.476-1.261-2.77-.739-.237-1.307,1.071-2.679,1.129a2.959,2.959,0,0,1-2.447-2.535c.032-1.308,1.45-1.843,1.1-2.746-.261-.669-1.747-.168-2.73-1.113a3.057,3.057,0,0,1,0-3.6c.972-.952,2.377-.388,2.712-1.139C3.67,6.7,2.244,5.971,2.216,4.65a2.388,2.388,0,0,1,.857-1.6A2.243,2.243,0,0,1,6.488,3a1.043,1.043,0,0,0,1.091.3c.688-.274.162-1.731,1.11-2.733a2.415,2.415,0,0,1,1.8-.565c2.881-.159,2.015,3,2.918,3.306a1.081,1.081,0,0,0,1.066-.325A2.3,2.3,0,0,1,18,3.146a2.484,2.484,0,0,1,.768,1.5c.02,1.27-1.374,1.918-1.118,2.749.248.8,1.684.231,2.7,1.149a2.53,2.53,0,0,1,.618,1.931c.183,2.881-2.98,2.006-3.312,2.914-.346.947,2.417,2.495.295,4.38a2.472,2.472,0,0,1-1.646.9c-1.393-.016-1.936-1.278-2.694-1.155m-.888-1.5c2.179-.889,2.939,1.126,3.543.907.208-.075.633-.436.609-.689-.223-.662-.936-1.088-1.091-1.829a2.9,2.9,0,0,1,1.3-2.873c.581-.348,1.3-.2,1.883-.474.247-.192.2-.92.015-1.216a6.312,6.312,0,0,1-2.347-.514,2.929,2.929,0,0,1-1.027-2.77c.171-.768.806-1.189,1.131-1.828-.091-.285-.526-.787-.8-.7l-1.506.978a2.616,2.616,0,0,1-2.53-.529c-1.462-1.054-.33-3-1.859-2.718-.731.135.185,2.339-1.958,3.192-2.161.86-2.943-1.272-3.53-.886C3,5.095,6,5.736,4.96,8.076c-.948,2.135-2.211,1.341-3.046,1.856-.257.159-.226,1.066.065,1.16.729.235,1.514.1,2.144.568a2.949,2.949,0,0,1,1.071,2.731c-.18.755-.787,1.215-1.141,1.828a1.376,1.376,0,0,0,.707.717,6.179,6.179,0,0,1,1.815-1.151,2.782,2.782,0,0,1,2.843,1.3,6.146,6.146,0,0,1,.436,1.9c2.276.954.238-1.9,2.876-2.977" transform="translate(0 0)" fill="#12263f"/>
            <path id="Trazado_1033382" data-name="Trazado 1033382" d="M113.383,291.223l3.21.032a.859.859,0,0,1,.867.793.93.93,0,0,1-.891.941L94.311,293a.931.931,0,0,1-1.036-.672.851.851,0,0,1,.7-1.038l3.267-.061.012-3.118a.831.831,0,0,1,.8-.854c.338-.024.9.232.9.709l.049,3.289,12.617,0,.051-3.318a.754.754,0,0,1,.954-.662.875.875,0,0,1,.744.9Z" transform="translate(-77.005 -237.212)" fill="#12263f"/>
            <path id="Trazado_1033383" data-name="Trazado 1033383" d="M150.053,229.681a2.607,2.607,0,1,1-2.341,2.853,2.617,2.617,0,0,1,2.341-2.853m-.157,1.743a.881.881,0,0,0-.293,1.277.893.893,0,0,0,1.132.257.866.866,0,0,0,.346-1.158.894.894,0,0,0-1.186-.375" transform="translate(-121.963 -189.653)" fill="#12263f"/>
            <path id="Trazado_1033384" data-name="Trazado 1033384" d="M139.078,102.745a4.943,4.943,0,0,1,5.082,4.716,4.966,4.966,0,1,1-5.082-4.716m-.848,1.907a3.176,3.176,0,0,0-2.094,4.019,3.216,3.216,0,1,0,2.094-4.019" transform="translate(-110.846 -84.843)" fill="#12263f"/>
            <path id="Trazado_1033385" data-name="Trazado 1033385" d="M36.913,43.087a4.266,4.266,0,0,1-2.683-4.258,4.462,4.462,0,0,1,8.022-2.418,4.418,4.418,0,0,1-5.339,6.676m4.428-3.93a2.756,2.756,0,0,0-2.721-2.769,2.7,2.7,0,1,0,2.721,2.769" transform="translate(-28.262 -28.598)" fill="#12263f"/>
          </g>
        </g>
      </g>
    </g>
  </g>
</svg>
