<svg xmlns="http://www.w3.org/2000/svg" xmlns:xlink="http://www.w3.org/1999/xlink" width="150" height="150" viewBox="0 0 150 150">
  <defs>
    <clipPath id="clip-path">
      <rect id="Rectángulo_456312" data-name="Rectángulo 456312" width="150" height="150" fill="none"/>
    </clipPath>
    <clipPath id="clip-path-3">
      <rect id="Rectángulo_467137" data-name="Rectángulo 467137" width="108.194" height="83.003" fill="#19538d"/>
    </clipPath>
  </defs>
  <g id="Grupo_1180300" data-name="Grupo 1180300" transform="translate(-307.059 -10093)">
    <g id="Grupo_1179968" data-name="Grupo 1179968" transform="translate(-115 658)">
      <g id="Grupo_1179959" data-name="Grupo 1179959" transform="translate(422.059 9435)" clip-path="url(#clip-path)">
        <path id="Trazado_999654" data-name="Trazado 999654" d="M1.5,5.146H123.437A18.479,18.479,0,0,1,141.96,23.58V144.937H20.022A18.479,18.479,0,0,1,1.5,126.5Z" transform="translate(0.815 2.76)" fill="#fff"/>
      </g>
      <g id="Grupo_1179960" data-name="Grupo 1179960" transform="translate(422.059 9435)">
        <g id="Grupo_1179956" data-name="Grupo 1179956" clip-path="url(#clip-path)">
          <path id="Trazado_999651" data-name="Trazado 999651" d="M94.9,30a7.681,7.681,0,1,1-7.718,7.681A7.7,7.7,0,0,1,94.9,30" transform="translate(47.384 16.085)" fill="#19538d"/>
          <path id="Trazado_999652" data-name="Trazado 999652" d="M65.9,0a7.681,7.681,0,1,1-7.718,7.681A7.7,7.7,0,0,1,65.9,0" transform="translate(31.622 0)" fill="#19538d"/>
          <path id="Trazado_999653" data-name="Trazado 999653" d="M141.96,51.007v93.93H20.022A18.479,18.479,0,0,1,1.5,126.5V5.146H97.75" transform="translate(0.815 2.76)" fill="none" stroke="#19538d" stroke-miterlimit="10" stroke-width="4"/>
        </g>
      </g>
    </g>
    <g id="Grupo_1180993" data-name="Grupo 1180993" transform="translate(322.059 10126.498)">
      <g id="Grupo_1180991" data-name="Grupo 1180991" clip-path="url(#clip-path-3)">
        <path id="Trazado_1033162" data-name="Trazado 1033162" d="M18.633,53.327l-3.755-1.766-2.469,2.317a1.643,1.643,0,0,1-1.985.185,24.165,24.165,0,0,1-6.072-6.094,1.878,1.878,0,0,1,.5-2.33l1.977-2.078a16.314,16.314,0,0,1-1.521-3.752L1.772,39.7C-.482,39.624-.265,32.733.664,28.961A12.046,12.046,0,0,1,5.2,28.7a29.326,29.326,0,0,1,1.67-4.057L4.46,22.178C3.023,20.71,7.043,16.857,9.6,14.859c.762-.6,1.831-1.32,2.67-.483l2.4,2.392,3.978-1.643c.273-2.308-.543-3.935,1.188-4.916l.146-5.249A5.209,5.209,0,0,1,25.435,0l77.3,0a5.208,5.208,0,0,1,5.4,5.038l.056,57.018a5.41,5.41,0,0,1-5.421,5.486l-29.3.043a8.649,8.649,0,0,0,.071,3.146l7.307.166a5.576,5.576,0,0,1,5.01,5.343l.053,5.129A1.559,1.559,0,0,1,84.134,83l-40.4-.009a1.5,1.5,0,0,1-1.5-1.609l.021-4.82a5.867,5.867,0,0,1,4.773-5.611l7.715-.239-.008-3.129-29.338-.029A5.277,5.277,0,0,1,20,62.768l-.176-4.632c-.147-.336-1.076-.6-1.093-1.243Zm7.476,8.544a5.681,5.681,0,0,1-.453-3.482l-2.747.013.047,4.03a2.325,2.325,0,0,0,2.486,2.152l77.274-.009a2.375,2.375,0,0,0,2.481-2.527L105.19,5.333a2.372,2.372,0,0,0-2.137-2.385H25.109c-1.414,0-2.229,1.561-2.215,2.62l.057,4.421,2.676-.015.02-2.99a1.346,1.346,0,0,1,1.486-1.341l73.9,0a1.4,1.4,0,0,1,1.49,1.4l.009,53.3a1.51,1.51,0,0,1-1.5,1.54Zm20.37-22.162-3.2.053a30.617,30.617,0,0,1-1.646,3.878l2.392,2.487c.747.776.224,1.782-.326,2.5-1.939,2.518-5.957,6.691-7.281,5.44l-2.653-2.505a27.573,27.573,0,0,1-4.053,1.636,16.259,16.259,0,0,1-.141,4.316c-.678.231-1.265.645-.958,1.488l70.948-.013,0-50.357H28.606c-.459,1.209.208,1.793.923,2.354l.374,4.224a20.5,20.5,0,0,1,3.828,1.569L36.154,14.4a1.738,1.738,0,0,1,2.29.139c2.69,1.992,7.077,6.124,5.563,7.713l-2.384,2.5a20.72,20.72,0,0,1,1.661,3.852l3.068.019A1.591,1.591,0,0,1,48.1,29.951a26.257,26.257,0,0,1-.018,8.5,1.514,1.514,0,0,1-1.608,1.258M27.445,50.941c1.741-1.013,3.689-1.06,5.179-2.225.619-.484,1.676-.791,2.272-.218L37.4,50.9a38.073,38.073,0,0,0,3.575-3.639l-2.058-2.1a1.582,1.582,0,0,1-.406-2.039c2.323-3.767,1.669-6.389,3.753-6.4l3.05-.017a18.532,18.532,0,0,0,0-5.042l-3.348-.076a1.474,1.474,0,0,1-1.282-1.047c-.382-2.2-1.6-3.99-2.4-6.051.006-1.36,1.736-2.39,2.636-3.354a12.345,12.345,0,0,0-3.587-3.669l-2.1,2.122c-.3.307-1.124.783-1.624.488a29.526,29.526,0,0,0-6.45-2.65c-.581-1.427-.35-2.812-.372-4.348a20.6,20.6,0,0,0-5.1.009l-.028,3.367c-.014,1.627-2.865,1.193-6.318,3.474a1.494,1.494,0,0,1-1.743-.123L11.031,17.46a48.56,48.56,0,0,0-3.544,3.588l2.121,2.084a1.689,1.689,0,0,1,.44,1.985A24.278,24.278,0,0,0,7.5,31.3a13.556,13.556,0,0,1-4.382.334,34.34,34.34,0,0,0,0,5.124c1.525.023,2.941-.25,4.383.305a26.675,26.675,0,0,0,2.567,6.23,1.629,1.629,0,0,1-.336,1.772L7.486,47.345c1.147,1.262,2.3,2.423,3.571,3.569l2.088-2.069a1.886,1.886,0,0,1,2.445-.288c3.519,2.232,6.1,1.477,6.1,3.716l0,3.023c1.787.055,3.48.329,5.192-.189-.039-1.264-.583-3.5.558-4.166m42.9,19.819-.006-3.183H57.823a9.686,9.686,0,0,0,.01,3.236Zm12.491,9.26.066-3.418a3.01,3.01,0,0,0-3.2-2.9l-31.253-.017a3.087,3.087,0,0,0-3.089,2.3,12.118,12.118,0,0,0-.036,4.028Z" transform="translate(0 -0.001)" fill="#19538d"/>
        <path id="Trazado_1033163" data-name="Trazado 1033163" d="M188.791,125.5l-16.548-.01a1.53,1.53,0,0,1-1.574-1.587l.014-16.917a1.408,1.408,0,0,1,1.488-1.362l16.882,0A1.4,1.4,0,0,1,190.439,107l-.009,17.228c0,.711-.8,1.273-1.639,1.272m-1.263-3.034-.006-13.839-13.9-.044,0,13.938Z" transform="translate(-112.98 -69.921)" fill="#19538d"/>
        <path id="Trazado_1033164" data-name="Trazado 1033164" d="M189.206,55.322l-17.051,0a1.372,1.372,0,0,1-1.477-1.481l-.008-16.9a1.444,1.444,0,0,1,1.2-1.4l17.191.01a1.382,1.382,0,0,1,1.386,1.392l0,17.19a1.417,1.417,0,0,1-1.233,1.183M187.524,52.4l.008-13.953-13.936.037.025,13.9Z" transform="translate(-112.98 -23.532)" fill="#19538d"/>
        <path id="Trazado_1033165" data-name="Trazado 1033165" d="M255.13,57.907l-16.148.009a10.739,10.739,0,0,1-.011-2.949h16.168Z" transform="translate(-158.131 -36.387)" fill="#19538d"/>
        <path id="Trazado_1033166" data-name="Trazado 1033166" d="M255.121,108.58l-16.145.038a10.561,10.561,0,0,1,.005-3.03h16.142Z" transform="translate(-158.127 -69.896)" fill="#19538d"/>
        <path id="Trazado_1033167" data-name="Trazado 1033167" d="M255.209,127.986l-16.16,0-.056-2.917,16.221-.02Z" transform="translate(-158.209 -82.783)" fill="#19538d"/>
        <path id="Trazado_1033168" data-name="Trazado 1033168" d="M255.113,38.4l-16.133.023a8.253,8.253,0,0,1,0-2.907H255.1Z" transform="translate(-158.116 -23.51)" fill="#19538d"/>
        <path id="Trazado_1033169" data-name="Trazado 1033169" d="M41.635,59.858A14.028,14.028,0,1,1,30.461,76.4,13.967,13.967,0,0,1,41.635,59.858m.01,3.028A11.062,11.062,0,1,0,55,71.082a10.991,10.991,0,0,0-13.353-8.2" transform="translate(-19.983 -39.462)" fill="#19538d"/>
        <path id="Trazado_1033170" data-name="Trazado 1033170" d="M193.26,130.274l-2.87-2.812-2.882,2.811-2.015-2.071,2.647-2.8c-.634-1.16-1.727-1.827-2.677-2.923a10.157,10.157,0,0,1,2.05-2.022l2.787,2.748,2.847-2.808,2.106,2.121-2.787,2.83,2.785,2.876Z" transform="translate(-122.773 -79.703)" fill="#19538d"/>
        <path id="Trazado_1033171" data-name="Trazado 1033171" d="M185.154,58.608l-3.321-4.243,2.319-1.726,2.024,2.5,5.69-6.472,2.263,1.96-6.693,7.62c-.523.6-1.715,1.085-2.282.36" transform="translate(-120.37 -32.217)" fill="#19538d"/>
        <path id="Trazado_1033172" data-name="Trazado 1033172" d="M65.022,94.173a6.948,6.948,0,0,1-2.882-.729l3.641-13.585a11.749,11.749,0,0,1,2.829.73Z" transform="translate(-41.136 -52.865)" fill="#19538d"/>
        <path id="Trazado_1033173" data-name="Trazado 1033173" d="M48.3,93.537a5.7,5.7,0,0,1-2.107,2.169l-4.5-4.487a1.515,1.515,0,0,1-.023-2.088l4.562-4.559a11.084,11.084,0,0,1,2.154,2.091l-3.478,3.5Z" transform="translate(-27.315 -55.985)" fill="#19538d"/>
        <path id="Trazado_1033174" data-name="Trazado 1033174" d="M83.33,95.822l-2.188-2.155,3.445-3.4-3.271-3.527a8.629,8.629,0,0,1,1.975-2.061l4.36,4.293a1.614,1.614,0,0,1,.114,2.354Z" transform="translate(-53.715 -56.058)" fill="#19538d"/>
      </g>
    </g>
  </g>
</svg>
