<svg xmlns="http://www.w3.org/2000/svg" xmlns:xlink="http://www.w3.org/1999/xlink" width="128" height="128" viewBox="0 0 128 128">
  <defs>
    <clipPath id="clip-path">
      <rect id="Rectángulo_456267" data-name="Rectángulo 456267" width="128" height="128" fill="none"/>
    </clipPath>
    <clipPath id="clip-path-2">
      <rect id="Rectángulo_467141" data-name="Rectángulo 467141" width="78.5" height="78.672" fill="#19538d"/>
    </clipPath>
  </defs>
  <g id="Grupo_1180319" data-name="Grupo 1180319" transform="translate(511.746 8527) rotate(180)">
    <path id="Trazado_999622" data-name="Trazado 999622" d="M59.07,0A59.07,59.07,0,1,1,0,59.07,59.071,59.071,0,0,1,59.07,0" transform="translate(388.676 8403.93)" fill="#fff"/>
    <g id="Grupo_1179902" data-name="Grupo 1179902" transform="translate(383.746 8399)">
      <g id="Grupo_1179905" data-name="Grupo 1179905" clip-path="url(#clip-path)">
        <path id="Trazado_999618" data-name="Trazado 999618" d="M64,0A64,64,0,1,1,0,64,64,64,0,0,1,64,0" fill="none"/>
        <path id="Trazado_999619" data-name="Trazado 999619" d="M5,59a5,5,0,1,1-5,5,5,5,0,0,1,5-5" fill="#19538d"/>
        <path id="Trazado_999620" data-name="Trazado 999620" d="M21,19a5,5,0,1,1-5,5,5,5,0,0,1,5-5" fill="#19538d"/>
        <path id="Trazado_999621" data-name="Trazado 999621" d="M64,124A60.068,60.068,0,0,1,4,64H7A57,57,0,1,0,22.408,25.024L20.22,22.972A60,60,0,1,1,64,124" fill="#19538d"/>
        <rect id="Rectángulo_456268" data-name="Rectángulo 456268" width="128" height="128" fill="none"/>
        <rect id="Rectángulo_456269" data-name="Rectángulo 456269" width="128" height="128" fill="none"/>
      </g>
    </g>
    <g id="Grupo_1181001" data-name="Grupo 1181001" transform="translate(486.996 8505.041) rotate(180)">
      <g id="Grupo_1181000" data-name="Grupo 1181000" clip-path="url(#clip-path-2)">
        <path id="Trazado_1033198" data-name="Trazado 1033198" d="M63.687,148.431l11.824-.074a2.8,2.8,0,0,1,2.985,2.719l0,12.011a2.583,2.583,0,0,1-2.262,2.582l-5.354.085-.07,10.128a5.473,5.473,0,0,1-5.65,5.147l-12.517.008-.007,3.28a2.252,2.252,0,0,1-2.486,2.287H28.371c-1.286,0-2.443-.678-2.457-2.027l-.038-3.549-12.515,0a5.477,5.477,0,0,1-5.649-5.146l-.068-10.128L2.5,165.72a2.6,2.6,0,0,1-2.434-2.38l-.062-12a2.8,2.8,0,0,1,2.751-2.956l11.971.011a2.617,2.617,0,0,1,2.584,2.57l.026,12a2.753,2.753,0,0,1-2.863,2.8L9.69,165.76l.046,9.894a3.392,3.392,0,0,0,3.632,3.286l12.5-.037.077-4.115c.02-1.054,1.212-1.775,2.255-1.775l22.117,0c1.046,0,2.237.72,2.256,1.772l.078,4.121,12.5.029a3.472,3.472,0,0,0,3.662-3.5l.011-9.689-4.774.03a2.764,2.764,0,0,1-2.86-2.807V151.179a2.629,2.629,0,0,1,2.493-2.748M15.234,163.662l.035-13.117-13.176.034.042,13.079Zm61.194-.049-.034-13.1-13.124.04-.055,12.494a.831.831,0,0,0,.84.648Zm-25.8,20.949-.066-9.472-22.654.019v9.478Z" transform="translate(0 -107.933)" fill="#19538d"/>
        <path id="Trazado_1033199" data-name="Trazado 1033199" d="M104.62,57.8l-12.351.049a2.442,2.442,0,0,1-2.677-2.461l-.043-3.311L84.8,52.09l1.91,2.062a1.091,1.091,0,0,1,.092,1.382,1.013,1.013,0,0,1-1.559.087l-3.818-3.815a1.081,1.081,0,0,1-.027-1.537l3.815-3.817a1.013,1.013,0,0,1,1.487-.071.932.932,0,0,1,.068,1.346l-2.151,2.209,4.939.026.028-3.28a2.394,2.394,0,0,1,2.394-2.47l5.213-.039V38.225l-6.018-.019a5.129,5.129,0,0,1-5.143-5.4l-.006-7.657A9.567,9.567,0,0,1,93.1,15.769a8.727,8.727,0,1,1,10.3-.011,9.45,9.45,0,0,1,7.072,9.122l.018,8.2a5.035,5.035,0,0,1-4.9,5.095l-6.266.032,0,5.995,5.214.01a2.387,2.387,0,0,1,2.393,2.469l.029,3.29,5.767-.031-2.018-2.087a1,1,0,0,1,1.286-1.543l3.965,3.925a1.1,1.1,0,0,1-.038,1.582l-3.98,3.922a.943.943,0,0,1-1.387-.21c-.805-1.235,1.059-1.807,2.011-3.447l-5.607-.013-.066,3.568A2.2,2.2,0,0,1,104.62,57.8M97.167,2.153a6.675,6.675,0,1,0,7.667,5.464,6.649,6.649,0,0,0-7.667-5.464m8.32,33.95a2.966,2.966,0,0,0,2.957-3.018l.011-7.927a7.51,7.51,0,0,0-7.47-7.688H95.53a7.514,7.514,0,0,0-7.474,7.686l.011,7.923a3.027,3.027,0,0,0,3.1,3.045Zm-.653,19.611-.06-9.463H91.729l-.041,9.5Z" transform="translate(-58.993 0)" fill="#19538d"/>
        <path id="Trazado_1033200" data-name="Trazado 1033200" d="M137.173,262.1l-5.054.015c-.771,0-1.106-.408-1.107-1.008,0-.617.339-1.027,1.1-1.027h4.924c.649,0,1,.283,1.081.774.094.544-.071,1.242-.947,1.245" transform="translate(-95.313 -189.216)" fill="#19538d"/>
        <path id="Trazado_1033201" data-name="Trazado 1033201" d="M24.927,178.608l-5.2,0a1,1,0,0,1-.942-1.113,1.066,1.066,0,0,1,1.177-.9l4.888,0a.992.992,0,0,1,1.08.909.966.966,0,0,1-1,1.1" transform="translate(-13.66 -128.475)" fill="#19538d"/>
        <path id="Trazado_1033202" data-name="Trazado 1033202" d="M249.352,178.609l-5.088.015a1.025,1.025,0,0,1-1.116-.886,1,1,0,0,1,1.078-1.139l4.891-.006a1.065,1.065,0,0,1,1.176.9.994.994,0,0,1-.94,1.113" transform="translate(-176.891 -128.475)" fill="#19538d"/>
        <path id="Trazado_1033203" data-name="Trazado 1033203" d="M137.119,185.448l-4.906.027a1.073,1.073,0,0,1-1.148-.894,1.035,1.035,0,0,1,1.09-1.2h4.9a1.02,1.02,0,0,1,1.1.961.984.984,0,0,1-1.039,1.109" transform="translate(-95.347 -133.411)" fill="#19538d"/>
      </g>
    </g>
  </g>
</svg>
