<svg xmlns="http://www.w3.org/2000/svg" xmlns:xlink="http://www.w3.org/1999/xlink" width="128" height="128" viewBox="0 0 128 128">
  <defs>
    <clipPath id="clip-path">
      <rect id="Rectángulo_456267" data-name="Rectángulo 456267" width="128" height="128" fill="none"/>
    </clipPath>
    <clipPath id="clip-path-2">
      <rect id="Rectángulo_467144" data-name="Rectángulo 467144" width="67.622" height="67.602" fill="#19538d"/>
    </clipPath>
  </defs>
  <g id="Grupo_1180324" data-name="Grupo 1180324" transform="translate(511.746 8527) rotate(180)">
    <path id="Trazado_999622" data-name="Trazado 999622" d="M59.07,0A59.07,59.07,0,1,1,0,59.07,59.071,59.071,0,0,1,59.07,0" transform="translate(388.676 8403.93)" fill="#fff"/>
    <g id="Grupo_1179902" data-name="Grupo 1179902" transform="translate(383.746 8399)">
      <g id="Grupo_1179905" data-name="Grupo 1179905" clip-path="url(#clip-path)">
        <path id="Trazado_999618" data-name="Trazado 999618" d="M64,0A64,64,0,1,1,0,64,64,64,0,0,1,64,0" fill="none"/>
        <path id="Trazado_999619" data-name="Trazado 999619" d="M5,59a5,5,0,1,1-5,5,5,5,0,0,1,5-5" fill="#19538d"/>
        <path id="Trazado_999620" data-name="Trazado 999620" d="M21,19a5,5,0,1,1-5,5,5,5,0,0,1,5-5" fill="#19538d"/>
        <path id="Trazado_999621" data-name="Trazado 999621" d="M64,124A60.068,60.068,0,0,1,4,64H7A57,57,0,1,0,22.408,25.024L20.22,22.972A60,60,0,1,1,64,124" fill="#19538d"/>
        <rect id="Rectángulo_456268" data-name="Rectángulo 456268" width="128" height="128" fill="none"/>
        <rect id="Rectángulo_456269" data-name="Rectángulo 456269" width="128" height="128" fill="none"/>
      </g>
    </g>
    <g id="Grupo_1181007" data-name="Grupo 1181007" transform="translate(481.557 8496.801) rotate(180)">
      <g id="Grupo_1181006" data-name="Grupo 1181006" clip-path="url(#clip-path-2)">
        <path id="Trazado_1033225" data-name="Trazado 1033225" d="M101.415,64.8c.755,0,.908,1.126.845,1.914l5.038-4.232-5.064-4.308c.114.791-.043,2-.923,2l-8.787.039a10,10,0,0,0-9.136,5.307l-5.92,11.664a6.468,6.468,0,0,1-5.915,3.344l-16.671.009,0-2.264H71.557A4.245,4.245,0,0,0,75.4,76.233l6.183-12.075A11.39,11.39,0,0,1,91.606,58.01l8.356-.049.021-2.249a1.094,1.094,0,0,1,.528-.958c.233-.138.845-.305,1.153-.041l8.12,6.963a1.105,1.105,0,0,1,0,1.592l-7.991,6.875a1.163,1.163,0,0,1-1.288.046,1.289,1.289,0,0,1-.538-1.166l0-2.036-6.782.019a4.084,4.084,0,0,0-3.6,2.009L83.4,81.089a11.69,11.69,0,0,1-10.475,6.2l-7.9.027v-2.27l7.895-.019a9.68,9.68,0,0,0,8.672-5.29l5.925-11.675a6.178,6.178,0,0,1,5.443-3.284Z" transform="translate(-42.5 -42.263)" fill="#19538d"/>
        <path id="Trazado_1033226" data-name="Trazado 1033226" d="M14.917,24.641l-4.593.1a1.373,1.373,0,0,1-1.074-.415c-.655-.873.181-2.276-.706-2.665-.979-.429-2.113,2.167-3.082,1.195L1.823,19.205c-.936-.938,1.454-2.062,1.244-2.888-.293-1.151-3-.105-3.014-1.365L0,9.86c-.016-1.5,2.579-.4,3.008-1.356C3.447,7.52.845,6.389,1.82,5.419L5.461,1.8c.946-.941,2.1,1.437,2.9,1.228,1.153-.3.106-3.007,1.362-3.01L14.99,0c1.213,0,.292,2.568,1.179,2.968.979.442,2.094-2.169,3.1-1.168l3.626,3.617c.94.938-1.464,2.078-1.248,2.9.31,1.186,3.072-.014,3.071,1.537v4.915c0,1.491-2.6.459-3.008,1.354-.443.977,2.163,2.113,1.188,3.085l-3.642,3.629c-.963.96-2.058-1.453-2.893-1.24-1.176.3-.048,3.008-1.442,3.039m-1.381-2.2c-.268-1.636.68-2.356,1.805-2.858a2.493,2.493,0,0,1,3.344.722l1.661-1.656c-1.319-.923-1.225-2.245-.661-3.5a2.432,2.432,0,0,1,2.826-1.657l0-2.332a2.488,2.488,0,0,1-2.829-1.677c-.566-1.259-.658-2.57.666-3.495L18.689,4.327a2.511,2.511,0,0,1-3.347.727,2.529,2.529,0,0,1-1.824-2.893H11.2A2.533,2.533,0,0,1,9.373,5.055a2.526,2.526,0,0,1-3.344-.729L4.367,5.984A2.511,2.511,0,0,1,5.1,9.331a2.531,2.531,0,0,1-2.9,1.828V13.49A2.489,2.489,0,0,1,5.1,15.3a2.509,2.509,0,0,1-.728,3.346L6.026,20.3c.92-1.314,2.248-1.221,3.5-.66A2.485,2.485,0,0,1,11.2,22.48Z" transform="translate(0 -0.001)" fill="#19538d"/>
        <path id="Trazado_1033227" data-name="Trazado 1033227" d="M14.918,214.641l-4.593.1a1.373,1.373,0,0,1-1.074-.415c-.655-.873.181-2.276-.706-2.665-.979-.429-2.113,2.167-3.082,1.195l-3.639-3.649c-.936-.938,1.454-2.062,1.244-2.888-.293-1.151-3-.105-3.014-1.365L0,199.86c-.016-1.5,2.579-.4,3.008-1.355.441-.983-2.164-2.115-1.188-3.086l3.64-3.621c.946-.941,2.1,1.437,2.9,1.228,1.153-.3.106-3.007,1.362-3.01L14.991,190c1.213,0,.292,2.566,1.179,2.967.979.443,2.094-2.168,3.1-1.167l3.626,3.617c.94.938-1.464,2.078-1.248,2.9.31,1.186,3.072-.014,3.071,1.537v4.915c0,1.491-2.6.459-3.008,1.354-.443.977,2.163,2.113,1.188,3.084l-3.642,3.629c-.963.96-2.058-1.453-2.893-1.24-1.176.3-.048,3.008-1.442,3.039m-1.381-2.2c-.268-1.636.68-2.356,1.805-2.858a2.493,2.493,0,0,1,3.344.722l1.661-1.656c-1.319-.923-1.225-2.245-.661-3.5a2.432,2.432,0,0,1,2.826-1.657l0-2.332a2.488,2.488,0,0,1-2.829-1.677c-.566-1.259-.658-2.57.666-3.495l-1.661-1.662a2.511,2.511,0,0,1-3.347.727,2.529,2.529,0,0,1-1.824-2.893H11.2a2.533,2.533,0,0,1-1.824,2.894,2.525,2.525,0,0,1-3.344-.729l-1.661,1.658a2.511,2.511,0,0,1,.729,3.347,2.532,2.532,0,0,1-2.9,1.828v2.331A2.489,2.489,0,0,1,5.1,205.3a2.509,2.509,0,0,1-.728,3.346L6.026,210.3c.92-1.314,2.248-1.222,3.5-.66A2.485,2.485,0,0,1,11.2,212.48Z" transform="translate(-0.001 -147.139)" fill="#19538d"/>
        <path id="Trazado_1033228" data-name="Trazado 1033228" d="M168.052,174.04l1.945-.923,1.107,2.091a9.681,9.681,0,0,0,8.612,5.132l9.414.038c.685.36.8.987.779,1.969l5.028-4.244-5.06-4.306c.111.795-.043,1.993-.924,2l-8.115.035a6.307,6.307,0,0,1-5.686-3.309l-2.049-4.046,1.976-1.012,2.053,3.976a4.176,4.176,0,0,0,3.7,2.139l6.768.028.022-2.275a1.1,1.1,0,0,1,.528-.955c.232-.137.846-.306,1.154-.042l8.119,6.963a1.105,1.105,0,0,1,0,1.592l-7.991,6.874a1.171,1.171,0,0,1-1.287.046,1.285,1.285,0,0,1-.538-1.165l-.007-2.038-7.433.012a12.728,12.728,0,0,1-12.116-8.578" transform="translate(-130.141 -129.683)" fill="#19538d"/>
        <path id="Trazado_1033229" data-name="Trazado 1033229" d="M73.592,137.3a4.643,4.643,0,0,0-1.814-.418l-16.884.008,0-2.266,16.885.014a5.137,5.137,0,0,1,2.716.66Z" transform="translate(-42.508 -104.251)" fill="#19538d"/>
        <path id="Trazado_1033230" data-name="Trazado 1033230" d="M111.97,107.836a12.257,12.257,0,0,0-5.14-.989l-6.972.021,0-2.269,6.749-.007a14.218,14.218,0,0,1,6.285,1.2Z" transform="translate(-77.329 -80.998)" fill="#19538d"/>
        <path id="Trazado_1033231" data-name="Trazado 1033231" d="M17.065,136.84l-2.253.018,0-2.252,2.24,0Z" transform="translate(-11.469 -104.238)" fill="#19538d"/>
        <path id="Trazado_1033232" data-name="Trazado 1033232" d="M37.065,136.84l-2.253.018,0-2.252,2.24,0Z" transform="translate(-26.957 -104.238)" fill="#19538d"/>
        <path id="Trazado_1033233" data-name="Trazado 1033233" d="M17.065,161.84l-2.253.018,0-2.252,2.24,0Z" transform="translate(-11.469 -123.599)" fill="#19538d"/>
        <path id="Trazado_1033234" data-name="Trazado 1033234" d="M37.065,161.84l-2.253.018,0-2.252,2.24,0Z" transform="translate(-26.957 -123.599)" fill="#19538d"/>
        <path id="Trazado_1033235" data-name="Trazado 1033235" d="M34.306,29.762a5.631,5.631,0,1,1-4.344,6.821,5.588,5.588,0,0,1,4.344-6.821m.227,2.263A3.378,3.378,0,1,0,38.7,34.36a3.346,3.346,0,0,0-4.169-2.334" transform="translate(-23.087 -22.956)" fill="#19538d"/>
        <path id="Trazado_1033236" data-name="Trazado 1033236" d="M34.306,219.762a5.631,5.631,0,1,1-4.344,6.821,5.588,5.588,0,0,1,4.344-6.821m.227,2.263A3.378,3.378,0,1,0,38.7,224.36a3.346,3.346,0,0,0-4.169-2.334" transform="translate(-23.087 -170.094)" fill="#19538d"/>
      </g>
    </g>
  </g>
</svg>
