<svg xmlns="http://www.w3.org/2000/svg" xmlns:xlink="http://www.w3.org/1999/xlink" width="128" height="128" viewBox="0 0 128 128">
  <defs>
    <clipPath id="clip-path">
      <rect id="Rectángulo_456267" data-name="Rectángulo 456267" width="128" height="128" fill="none"/>
    </clipPath>
    <clipPath id="clip-path-2">
      <rect id="Rectángulo_467128" data-name="Rectángulo 467128" width="70.318" height="70.03" fill="#19538d"/>
    </clipPath>
  </defs>
  <g id="Grupo_1180291" data-name="Grupo 1180291" transform="translate(511.746 8527) rotate(180)">
    <path id="Trazado_999622" data-name="Trazado 999622" d="M59.07,0A59.07,59.07,0,1,1,0,59.07,59.071,59.071,0,0,1,59.07,0" transform="translate(388.676 8403.93)" fill="#fff"/>
    <g id="Grupo_1179902" data-name="Grupo 1179902" transform="translate(383.746 8399)">
      <g id="Grupo_1179905" data-name="Grupo 1179905" clip-path="url(#clip-path)">
        <path id="Trazado_999618" data-name="Trazado 999618" d="M64,0A64,64,0,1,1,0,64,64,64,0,0,1,64,0" fill="none"/>
        <path id="Trazado_999619" data-name="Trazado 999619" d="M5,59a5,5,0,1,1-5,5,5,5,0,0,1,5-5" fill="#19538d"/>
        <path id="Trazado_999620" data-name="Trazado 999620" d="M21,19a5,5,0,1,1-5,5,5,5,0,0,1,5-5" fill="#19538d"/>
        <path id="Trazado_999621" data-name="Trazado 999621" d="M64,124A60.068,60.068,0,0,1,4,64H7A57,57,0,1,0,22.408,25.024L20.22,22.972A60,60,0,1,1,64,124" fill="#19538d"/>
        <rect id="Rectángulo_456268" data-name="Rectángulo 456268" width="128" height="128" fill="none"/>
        <rect id="Rectángulo_456269" data-name="Rectángulo 456269" width="128" height="128" fill="none"/>
      </g>
    </g>
    <g id="Grupo_1180977" data-name="Grupo 1180977" transform="translate(482.905 8501.2) rotate(180)">
      <g id="Grupo_1180976" data-name="Grupo 1180976" clip-path="url(#clip-path-2)">
        <path id="Trazado_1033126" data-name="Trazado 1033126" d="M52.371,158.963l3.844.041,0-25.43a1.119,1.119,0,0,1,1.207-1.143l6.019.014a1.123,1.123,0,0,1,1.132,1.155l0,20.228a1.115,1.115,0,0,1-1,1.156,1.137,1.137,0,0,1-1.233-1.152l0-19.117-3.926-.03,0,24.469,6.944.028a2.656,2.656,0,0,0,2.823-2.1l-.014-33.554a2.445,2.445,0,0,0-2.588-2.278l-3.711-.088c-.483-.011-.576-.7-.572-1.027,0-.289.167-.982.637-.984l4.384-.022a4.415,4.415,0,0,1,4.064,4.416l.017,33.089a4.584,4.584,0,0,1-4.371,4.684H7.959A7.931,7.931,0,0,1,.1,153.4l0-11.364c0-.574.588-.837.956-.869.455-.039,1.217.19,1.219.822l.043,11.423a5.891,5.891,0,0,0,5.565,5.726c2.913.175,6.063-2.069,6.074-5.294l.105-30.315a4.393,4.393,0,0,1,4.161-4.4l33.308-.048c.614,0,.8.721.816,1.054.02.382-.132,1.109-.8,1.11l-32.807.025a2.415,2.415,0,0,0-2.481,2.492l0,29.8a8.473,8.473,0,0,1-2.495,5.588h5.753l.013-9.277a1.034,1.034,0,0,1,1.093-1.054l6.173-.01a1.051,1.051,0,0,1,1.074.977l.057,9.387,3.795-.022.006-19.517a.969.969,0,0,1,.94-.98l6.32-.026a1.011,1.011,0,0,1,1.087,1.035l0,15.307a1.108,1.108,0,1,1-2.215,0l-.018-14.136H33.91l.007,18.327,10.1-.014.006-15.1A1.033,1.033,0,0,1,45.134,143l6.3.021a.984.984,0,0,1,.933,1.028Zm-2.186.173,0-13.913-3.933,0v13.955Zm-24.5.009-.006-8.1h-3.93l0,8.131Z" transform="translate(-0.077 -91.291)" fill="#19538d"/>
        <path id="Trazado_1033127" data-name="Trazado 1033127" d="M2.236,64.266c0,.926-.408,1.317-1.022,1.339A1.081,1.081,0,0,1,0,64.4L.007,36.207a4.324,4.324,0,0,1,4.112-4.469l14.472-.058a4.4,4.4,0,0,1,4.349,2.967L24.007,37.8a2.068,2.068,0,0,0,1.818,1.419l5.6-.026-3.654-3.535a1.289,1.289,0,0,1,.09-1.868l3.775-3.7a17.136,17.136,0,0,1,22.49-.022l3.767,3.7a1.2,1.2,0,0,1-.011,1.8l-3.894,3.8a17.047,17.047,0,0,1-19.273,2.138H26.075a4.252,4.252,0,0,1-4.1-2.608l-1.153-3.337c-.239-.692-.931-1.638-1.8-1.64L4.388,33.9a2.158,2.158,0,0,0-2.165,2.312ZM52.4,37.7l3.19-3.129L53.2,32.16a14.772,14.772,0,0,0-20.741-.075l-2.527,2.5a36.31,36.31,0,0,0,3.606,3.5A14.906,14.906,0,0,0,52.4,37.7" transform="translate(0 -19.837)" fill="#19538d"/>
        <path id="Trazado_1033128" data-name="Trazado 1033128" d="M91.691,106.051c.753,1.82.787,3.936-.834,5.3a4.178,4.178,0,0,1-6.359-5.28c1.159-1.969,3.432-2.3,5.43-1.671l5.8-7.3a4.117,4.117,0,1,1,7.939-1.684l6.573,1.986c.818-2.1,3-2.5,5.026-2.171l7.5-12.047c-1.023-1.729-1.509-3.862.011-5.53a4.167,4.167,0,1,1,1.959,6.681l-7.575,12.243c.914,1.586,1.34,3.456.107,5.079a4.169,4.169,0,0,1-4.538,1.608,4.226,4.226,0,0,1-2.959-3.716l-6.527-1.936a4.141,4.141,0,0,1-6.192,1.312Zm33.268-27.4a1.972,1.972,0,1,0,2.008,3.395,2,2,0,0,0,.765-2.558,1.966,1.966,0,0,0-2.773-.836M98.572,93.79a1.961,1.961,0,0,0,1.834,3.467,1.977,1.977,0,0,0,.812-2.662,1.918,1.918,0,0,0-2.646-.8m14.7,3.478a1.959,1.959,0,0,0,1.174,3.737,1.971,1.971,0,0,0,1.3-2.485,1.927,1.927,0,0,0-2.471-1.252M87.1,106.375a1.967,1.967,0,1,0,2.7,1.035,1.969,1.969,0,0,0-2.7-1.035" transform="translate(-64.323 -58.398)" fill="#19538d"/>
        <path id="Trazado_1033129" data-name="Trazado 1033129" d="M145.011,5.636a1.122,1.122,0,1,1-1.569,1.572l-1.266-1.527c-.388-.468-.7-.974-.414-1.558a1.052,1.052,0,0,1,1.475-.461,17.042,17.042,0,0,1,1.774,1.974" transform="translate(-108.595 -2.682)" fill="#19538d"/>
        <path id="Trazado_1033130" data-name="Trazado 1033130" d="M210.506,7.13a1.214,1.214,0,0,1-1.663.254,1.118,1.118,0,0,1-.052-1.624l1.595-1.888a.993.993,0,0,1,1.425-.147,1.059,1.059,0,0,1,.2,1.546Z" transform="translate(-159.817 -2.675)" fill="#19538d"/>
        <path id="Trazado_1033131" data-name="Trazado 1033131" d="M180.6,3.176c.007.883-.51,1.3-1.122,1.3a1.1,1.1,0,0,1-1.124-1.189V1.175a1.117,1.117,0,1,1,2.231.006Z" transform="translate(-136.734 0)" fill="#19538d"/>
        <path id="Trazado_1033132" data-name="Trazado 1033132" d="M164.107,51.387a4.665,4.665,0,0,1-.893-4.681,4.491,4.491,0,0,1,3.392-2.844,4.609,4.609,0,0,1,3.527,8.322,4.5,4.5,0,0,1-6.026-.8M166.6,46.3a2.387,2.387,0,0,0-1.193,3.316A2.41,2.41,0,1,0,166.6,46.3" transform="translate(-124.908 -33.567)" fill="#19538d"/>
      </g>
    </g>
  </g>
</svg>
