<svg xmlns="http://www.w3.org/2000/svg" xmlns:xlink="http://www.w3.org/1999/xlink" width="128" height="128" viewBox="0 0 128 128">
  <defs>
    <clipPath id="clip-path">
      <rect id="Rectángulo_456267" data-name="Rectángulo 456267" width="128" height="128" fill="none"/>
    </clipPath>
    <clipPath id="clip-path-2">
      <rect id="Rectángulo_467129" data-name="Rectángulo 467129" width="68.16" height="68.161" fill="#19538d"/>
    </clipPath>
  </defs>
  <g id="Grupo_1180292" data-name="Grupo 1180292" transform="translate(511.746 8527) rotate(180)">
    <path id="Trazado_999622" data-name="Trazado 999622" d="M59.07,0A59.07,59.07,0,1,1,0,59.07,59.071,59.071,0,0,1,59.07,0" transform="translate(388.676 8403.93)" fill="#fff"/>
    <g id="Grupo_1179902" data-name="Grupo 1179902" transform="translate(383.746 8399)">
      <g id="Grupo_1179905" data-name="Grupo 1179905" clip-path="url(#clip-path)">
        <path id="Trazado_999618" data-name="Trazado 999618" d="M64,0A64,64,0,1,1,0,64,64,64,0,0,1,64,0" fill="none"/>
        <path id="Trazado_999619" data-name="Trazado 999619" d="M5,59a5,5,0,1,1-5,5,5,5,0,0,1,5-5" fill="#19538d"/>
        <path id="Trazado_999620" data-name="Trazado 999620" d="M21,19a5,5,0,1,1-5,5,5,5,0,0,1,5-5" fill="#19538d"/>
        <path id="Trazado_999621" data-name="Trazado 999621" d="M64,124A60.068,60.068,0,0,1,4,64H7A57,57,0,1,0,22.408,25.024L20.22,22.972A60,60,0,1,1,64,124" fill="#19538d"/>
        <rect id="Rectángulo_456268" data-name="Rectángulo 456268" width="128" height="128" fill="none"/>
        <rect id="Rectángulo_456269" data-name="Rectángulo 456269" width="128" height="128" fill="none"/>
      </g>
    </g>
    <g id="Grupo_1180979" data-name="Grupo 1180979" transform="translate(481.826 8498.2) rotate(180)">
      <g id="Grupo_1180978" data-name="Grupo 1180978" clip-path="url(#clip-path-2)">
        <path id="Trazado_1033133" data-name="Trazado 1033133" d="M95.045,131.867l-11.252-.086a2.147,2.147,0,0,1-1.91-2.076l-.043-4.64a.974.974,0,0,0-1.083.338l-6.163,6.174a1.082,1.082,0,0,1-1.216.126,1.251,1.251,0,0,1-.605-1.167l-.043-5.568c-1.48.337-3.308-.36-3.314-1.948l-.046-13.969a2.167,2.167,0,0,1,1.864-2.132l21.061-.03A2.1,2.1,0,0,1,94.32,108.9l.075,4.777,10.267,0a2.161,2.161,0,0,1,2.181,2.179l-.026,13.84c0,1.633-1.738,2.477-3.334,2.043l-.047,5.631a1.146,1.146,0,0,1-.553,1.106,1.211,1.211,0,0,1-1.357-.136Zm-13.229-9.218.035-6.79a2.233,2.233,0,0,1,2.344-2.207l7.884.019,0-4.55-20.435,0,0,13.566,2.3.045a1.173,1.173,0,0,1,1.117,1.2l.03,3.911,4.848-4.778c.471-.464,1.281-.3,1.884-.421m19.429,7.8c.017-.582.651-.867,1.09-.886l2.233-.023.009-13.619-20.409,0-.009,13.619,11.767.051,5.2,5.11Z" transform="translate(-54.597 -84.126)" fill="#19538d"/>
        <path id="Trazado_1033134" data-name="Trazado 1033134" d="M213.949,241.326a1.245,1.245,0,0,1-1.4-1.285l0-1.526-1.564.589a1.131,1.131,0,0,1-1.452-.616,1.165,1.165,0,0,1,.507-1.415l2.517-1.113a5.772,5.772,0,0,1,3.891-5.723,6.835,6.835,0,0,1,2.16-7.916,6.674,6.674,0,0,1,8.284-.045l.927-1.7a1.1,1.1,0,0,1,1.5-.424,1.12,1.12,0,0,1,.532,1.377l-1.32,2.558a6.689,6.689,0,0,1,.576,6.157,5.605,5.605,0,0,1,3.877,5.307L233,240.04a1.218,1.218,0,0,1-1.29,1.281Zm7.741-18.029a4.483,4.483,0,0,0-3.253,5.652,4.516,4.516,0,0,0,8.717-2.35,4.5,4.5,0,0,0-5.464-3.3m9.034,12.51c.032-1.683-1.347-3.539-2.908-3.445a6.869,6.869,0,0,1-10.052-.056,3.157,3.157,0,0,0-2.9,3.042v3.67l15.8,0Z" transform="translate(-164.838 -173.164)" fill="#19538d"/>
        <path id="Trazado_1033135" data-name="Trazado 1033135" d="M20.514,239.956a1.25,1.25,0,0,1-1.3,1.375H1.343a1.164,1.164,0,0,1-1.264-1.081l-.016-4.472a5.719,5.719,0,0,1,3.885-5.53,6.682,6.682,0,0,1,.578-6.149,26.215,26.215,0,0,1-1.32-2.558,1.115,1.115,0,0,1,.529-1.376,1.155,1.155,0,0,1,1.588.557l.839,1.562a6.686,6.686,0,0,1,8.289.049,6.833,6.833,0,0,1,2.159,7.916,5.77,5.77,0,0,1,3.892,5.73l2.516,1.1a1.166,1.166,0,0,1,.509,1.416,1.132,1.132,0,0,1-1.452.616l-1.564-.591ZM9.2,223.309a4.508,4.508,0,1,0,5.47,3.272,4.51,4.51,0,0,0-5.47-3.272m8.973,11.934a3.1,3.1,0,0,0-2.869-2.926,6.882,6.882,0,0,1-10.062.058c-1.565-.089-2.931,1.76-2.905,3.368l.052,3.288h15.8Z" transform="translate(-0.049 -173.175)" fill="#19538d"/>
        <path id="Trazado_1033136" data-name="Trazado 1033136" d="M239.144,20.448,225.1,20.434a1.183,1.183,0,0,1-1.075-1.254l.016-4.5a5.677,5.677,0,0,1,3.831-5.308c-.249-.719-.159-1.633-.6-2.155-.791-.929-3.249-1.323-2.659-2.72a1.166,1.166,0,0,1,1.686-.577l1.5.763a6.809,6.809,0,1,1,12.783,4.676,5.639,5.639,0,0,1,3.874,5.325l.019,4.481a1.209,1.209,0,0,1-1.271,1.275l-1.526,0,.582,1.567a1.135,1.135,0,0,1-.611,1.458,1.08,1.08,0,0,1-1.414-.479Zm-6.178-17.96a4.476,4.476,0,0,0-3,5.753,4.515,4.515,0,0,0,8.619-2.687,4.471,4.471,0,0,0-5.615-3.066m9.171,11.8c0-1.378-1.584-2.963-2.848-2.773a6.957,6.957,0,0,1-10.124-.117,3.343,3.343,0,0,0-2.852,3.287l.014,3.487,15.818-.011Z" transform="translate(-176.311 0)" fill="#19538d"/>
        <path id="Trazado_1033137" data-name="Trazado 1033137" d="M19.268,20.436l-13.9.011L4.247,22.991a1.047,1.047,0,0,1-1.261.536,1.085,1.085,0,0,1-.8-1.345l.61-1.751A10.942,10.942,0,0,1,.885,20.4a1.238,1.238,0,0,1-.874-1.429V14.9A5.744,5.744,0,0,1,3.9,9.363,6.809,6.809,0,1,1,16.685,4.7l1.669-.831a1.085,1.085,0,0,1,1.45.5,1.063,1.063,0,0,1-.376,1.453L17.208,7.206c-.438.548-.349,1.448-.6,2.172A5.781,5.781,0,0,1,20.451,14.9l0,4.279a1.179,1.179,0,0,1-1.187,1.256M8.95,2.488a4.5,4.5,0,1,0,5.617,3.043A4.481,4.481,0,0,0,8.95,2.488m9.172,11.875a3.03,3.03,0,0,0-2.9-2.9,6.8,6.8,0,0,1-9.991,0A3.262,3.262,0,0,0,2.291,14.9l.048,3.266,15.813.009Z" transform="translate(0.001 -0.001)" fill="#19538d"/>
        <path id="Trazado_1033138" data-name="Trazado 1033138" d="M309.52,149.7c-.126.924-.6,1.344-1.391,1.254-.674-.077-1.019-.713-.888-1.514a34.709,34.709,0,0,0,.313-7.926c-.052-.807.25-1.428,1.013-1.474.724-.043,1.18.432,1.248,1.237a37.708,37.708,0,0,1-.295,8.422" transform="translate(-241.787 -110.215)" fill="#19538d"/>
        <path id="Trazado_1033139" data-name="Trazado 1033139" d="M2.8,149.481a1.169,1.169,0,0,1-.72,1.374,1.123,1.123,0,0,1-1.448-.75,33.188,33.188,0,0,1-.391-9.064,1.111,1.111,0,0,1,1.216-1.061c.8.059,1.072.672,1.02,1.486a34.9,34.9,0,0,0,.323,8.015" transform="translate(-0.074 -110.166)" fill="#19538d"/>
        <path id="Trazado_1033140" data-name="Trazado 1033140" d="M145.469,310.47a29.873,29.873,0,0,1-8.447.037,1.109,1.109,0,0,1,.178-2.2,43.676,43.676,0,0,0,7.843-.007,1.107,1.107,0,0,1,1.189.782,1.088,1.088,0,0,1-.763,1.388" transform="translate(-107.124 -242.637)" fill="#19538d"/>
        <path id="Trazado_1033141" data-name="Trazado 1033141" d="M119.232,1.751c.159,1.744-2.933,1.179-6.939,2.4a1.13,1.13,0,0,1-1.448-.715,1.146,1.146,0,0,1,.782-1.449A34.044,34.044,0,0,1,117.872.755a1.135,1.135,0,0,1,1.36,1" transform="translate(-87.202 -0.586)" fill="#19538d"/>
        <path id="Trazado_1033142" data-name="Trazado 1033142" d="M176.907,4.19a44.024,44.024,0,0,0-6.113-1.178,1.141,1.141,0,0,1-1.077-1.254,1.12,1.12,0,0,1,1.347-1A34.107,34.107,0,0,1,177.3,2a1.163,1.163,0,0,1,.844,1.264,1.061,1.061,0,0,1-1.241.93" transform="translate(-133.569 -0.591)" fill="#19538d"/>
        <path id="Trazado_1033143" data-name="Trazado 1033143" d="M157.521,167.571l-6.9.048a1.149,1.149,0,0,1-1.19-1.148,1.125,1.125,0,0,1,1.239-1.123l6.687.015a1.1,1.1,0,0,1,1.117.922,1.082,1.082,0,0,1-.95,1.286" transform="translate(-117.605 -130.135)" fill="#19538d"/>
        <path id="Trazado_1033144" data-name="Trazado 1033144" d="M189.527,189.079l-7.114-.03c-.562,0-.945-.624-.981-1.04a1.053,1.053,0,0,1,.976-1.153l6.82-.024a1.14,1.14,0,0,1,1.234.829,1.2,1.2,0,0,1-.935,1.418" transform="translate(-142.79 -147.043)" fill="#19538d"/>
        <path id="Trazado_1033145" data-name="Trazado 1033145" d="M206.314,167.594l-2.427.036a1.125,1.125,0,1,1,.037-2.25l2.226.012a1.1,1.1,0,0,1,.164,2.2" transform="translate(-159.581 -130.16)" fill="#19538d"/>
        <path id="Trazado_1033146" data-name="Trazado 1033146" d="M153.042,188.966c-1.968.326-3.738.12-3.623-1.144a1.133,1.133,0,0,1,1.182-1.027l2.148-.008a1.145,1.145,0,0,1,1.164.883,1.1,1.1,0,0,1-.87,1.3" transform="translate(-117.593 -147.008)" fill="#19538d"/>
      </g>
    </g>
  </g>
</svg>
