<svg xmlns="http://www.w3.org/2000/svg" xmlns:xlink="http://www.w3.org/1999/xlink" width="128" height="128" viewBox="0 0 128 128">
  <defs>
    <clipPath id="clip-path">
      <rect id="Rectángulo_456267" data-name="Rectángulo 456267" width="128" height="128" fill="none"/>
    </clipPath>
    <clipPath id="clip-path-2">
      <rect id="Rectángulo_467130" data-name="Rectángulo 467130" width="67.053" height="67.037" fill="#19538d"/>
    </clipPath>
  </defs>
  <g id="Grupo_1180293" data-name="Grupo 1180293" transform="translate(511.746 8527) rotate(180)">
    <path id="Trazado_999622" data-name="Trazado 999622" d="M59.07,0A59.07,59.07,0,1,1,0,59.07,59.071,59.071,0,0,1,59.07,0" transform="translate(388.676 8403.93)" fill="#fff"/>
    <g id="Grupo_1179902" data-name="Grupo 1179902" transform="translate(383.746 8399)">
      <g id="Grupo_1179905" data-name="Grupo 1179905" clip-path="url(#clip-path)">
        <path id="Trazado_999618" data-name="Trazado 999618" d="M64,0A64,64,0,1,1,0,64,64,64,0,0,1,64,0" fill="none"/>
        <path id="Trazado_999619" data-name="Trazado 999619" d="M5,59a5,5,0,1,1-5,5,5,5,0,0,1,5-5" fill="#19538d"/>
        <path id="Trazado_999620" data-name="Trazado 999620" d="M21,19a5,5,0,1,1-5,5,5,5,0,0,1,5-5" fill="#19538d"/>
        <path id="Trazado_999621" data-name="Trazado 999621" d="M64,124A60.068,60.068,0,0,1,4,64H7A57,57,0,1,0,22.408,25.024L20.22,22.972A60,60,0,1,1,64,124" fill="#19538d"/>
        <rect id="Rectángulo_456268" data-name="Rectángulo 456268" width="128" height="128" fill="none"/>
        <rect id="Rectángulo_456269" data-name="Rectángulo 456269" width="128" height="128" fill="none"/>
      </g>
    </g>
    <g id="Grupo_1180981" data-name="Grupo 1180981" transform="translate(474.23 8498.2) rotate(180)">
      <g id="Grupo_1180980" data-name="Grupo 1180980" clip-path="url(#clip-path-2)">
        <path id="Trazado_1033147" data-name="Trazado 1033147" d="M32.9,51.686a31.067,31.067,0,0,1-3.764-2.76l-9.771-.01a.995.995,0,0,1-.077-1.988l8.077-.021A17.42,17.42,0,0,1,24.121,39.6l-4.851-.011a1.01,1.01,0,0,1-.945-.958,1.037,1.037,0,0,1,.95-.964l4.589-.018c-.031-.984-.026-1.88.024-2.838L19.271,34.8a1,1,0,0,1-.945-.978.992.992,0,0,1,.951-.931l4.875-.016a18.064,18.064,0,0,1,3.2-7.009l-8.068-.05a1.041,1.041,0,0,1-.954-1,1.009,1.009,0,0,1,.956-.941l9.862.007a27.2,27.2,0,0,1,3.681-2.788L19.36,21.04a.94.94,0,0,1-1.008-.848.983.983,0,0,1,.951-1.133l21.325-.011a19.092,19.092,0,0,1,6.636,1.123l.038-5.99h-9.16a2.971,2.971,0,0,1-3.024-2.79L35.087,1.94H3A1.006,1.006,0,0,0,1.97,2.952l-.008,8.139a.99.99,0,0,1-.819,1.057.922.922,0,0,1-1.127-.855l.027-8.6A2.813,2.813,0,0,1,2.75.01L36.548,0,49.2,12.663l.084,8.427a17.282,17.282,0,0,1,8.889,12.225.985.985,0,1,1-1.947.3,15.287,15.287,0,1,0,.244,3.562c.028-.5.711-.768,1.03-.745.352.026.934.349.91.881a17.47,17.47,0,0,1-2.725,8.465l2.371,2.311a1.462,1.462,0,0,1,1.691.262l5.94,5.979a4.687,4.687,0,0,1,.187,6.42,4.517,4.517,0,0,1-6.41.438l-6.736-6.679c-.317-.315.072-.981.1-1.3l-2.17-2.266a3.209,3.209,0,0,0-1.392.838l.009,12.094a3.055,3.055,0,0,1-3.2,3.163l-42.9,0A2.943,2.943,0,0,1,.03,64.262L0,15.314c0-.685.3-1.007.77-1.113a.959.959,0,0,1,1.188.9l.008,48.91A1.057,1.057,0,0,0,3.015,65.1l43.032.007A1.147,1.147,0,0,0,47.3,63.865v-11.3a16.618,16.618,0,0,1-5.836,1.1L19.5,53.667c-.656,0-1.055-.237-1.168-.862a.981.981,0,0,1,.957-1.06Zm5.337-39.5,7.553-.059L37.112,3.451l-.027,7.839a.991.991,0,0,0,1.149.893M54.361,51.889l2.294-2.277-2.182-2.177L52.168,49.72Zm5.962,7.5a2.758,2.758,0,0,0,3.857.265,2.614,2.614,0,0,0,.289-3.675l-5.7-5.731-3.763,3.785Z" transform="translate(0)" fill="#19538d"/>
        <path id="Trazado_1033148" data-name="Trazado 1033148" d="M139.267,131.822a10.842,10.842,0,1,0-1.564-3.031,1.036,1.036,0,0,1-.649,1.152.955.955,0,0,1-1.218-.59,12.814,12.814,0,1,1,1.941,3.722.911.911,0,0,1,.1-1.28.944.944,0,0,1,1.385.027" transform="translate(-106.871 -89.006)" fill="#19538d"/>
        <path id="Trazado_1033149" data-name="Trazado 1033149" d="M167.433,157.73l-3.01-2.976a2.945,2.945,0,0,1,.451-4.34,3.165,3.165,0,0,1,4.494.731l3.446-3.4a2.913,2.913,0,0,1,3.932.265,3.017,3.017,0,0,1,.108,4.209l-5.4,5.493a2.912,2.912,0,0,1-4.017.013m-1.389-4.066,2.586,2.526a1.175,1.175,0,0,0,1.782-.156l4.854-4.975a1.167,1.167,0,0,0,.25-1.454c-.185-.335-1.033-.748-1.44-.345l-3.873,3.847a.989.989,0,0,1-1.513.09l-1.165-1.129a1.075,1.075,0,0,0-1.591.032,1.1,1.1,0,0,0,.109,1.563" transform="translate(-129.374 -116.283)" fill="#19538d"/>
        <path id="Trazado_1033150" data-name="Trazado 1033150" d="M38.954,161l-4.673-.029a2.145,2.145,0,0,1-2.081-2.257l0-4.206a2.126,2.126,0,0,1,2.1-2.216l4.348-.005a2.122,2.122,0,0,1,2.24,2.067l.005,4.516A2.226,2.226,0,0,1,38.954,161m-.028-2.066-.025-4.646-4.755.038.041,4.635Z" transform="translate(-25.455 -120.382)" fill="#19538d"/>
        <path id="Trazado_1033151" data-name="Trazado 1033151" d="M38.657,95.038l-4.207.008a2.217,2.217,0,0,1-2.263-2.3l.007-4.205a2.066,2.066,0,0,1,1.936-2.169l4.51-.038a2.239,2.239,0,0,1,2.255,2.228l-.01,4.367a2.144,2.144,0,0,1-2.227,2.109m.259-2.008-.039-4.7-4.742.046L34.2,93.1Z" transform="translate(-25.444 -68.249)" fill="#19538d"/>
        <path id="Trazado_1033152" data-name="Trazado 1033152" d="M39.2,228l-5.123.037a2.02,2.02,0,0,1-1.808-1.863l-.028-4.606a2.065,2.065,0,0,1,1.966-2.168l4.446-.033a2.239,2.239,0,0,1,2.286,2.222l.009,4.2c0,.933-.639,2.2-1.748,2.211m-.262-1.848-.006-4.786-4.713,0-.025,4.712Z" transform="translate(-25.488 -173.412)" fill="#19538d"/>
      </g>
    </g>
  </g>
</svg>
