<svg xmlns="http://www.w3.org/2000/svg" xmlns:xlink="http://www.w3.org/1999/xlink" width="150" height="150" viewBox="0 0 150 150">
  <defs>
    <clipPath id="clip-path">
      <rect id="Rectángulo_456312" data-name="Rectángulo 456312" width="150" height="150" fill="none"/>
    </clipPath>
    <clipPath id="clip-path-3">
      <rect id="Rectángulo_467136" data-name="Rectángulo 467136" width="89.85" height="86.506" transform="translate(0 0)" fill="#19538d"/>
    </clipPath>
  </defs>
  <g id="Grupo_1180298" data-name="Grupo 1180298" transform="translate(-307.059 -10093)">
    <g id="Grupo_1179968" data-name="Grupo 1179968" transform="translate(-115 658)">
      <g id="Grupo_1179959" data-name="Grupo 1179959" transform="translate(422.059 9435)" clip-path="url(#clip-path)">
        <path id="Trazado_999654" data-name="Trazado 999654" d="M1.5,5.146H123.437A18.479,18.479,0,0,1,141.96,23.58V144.937H20.022A18.479,18.479,0,0,1,1.5,126.5Z" transform="translate(0.815 2.76)" fill="#fff"/>
      </g>
      <g id="Grupo_1179960" data-name="Grupo 1179960" transform="translate(422.059 9435)">
        <g id="Grupo_1179956" data-name="Grupo 1179956" clip-path="url(#clip-path)">
          <path id="Trazado_999651" data-name="Trazado 999651" d="M94.9,30a7.681,7.681,0,1,1-7.718,7.681A7.7,7.7,0,0,1,94.9,30" transform="translate(47.384 16.085)" fill="#19538d"/>
          <path id="Trazado_999652" data-name="Trazado 999652" d="M65.9,0a7.681,7.681,0,1,1-7.718,7.681A7.7,7.7,0,0,1,65.9,0" transform="translate(31.622 0)" fill="#19538d"/>
          <path id="Trazado_999653" data-name="Trazado 999653" d="M141.96,51.007v93.93H20.022A18.479,18.479,0,0,1,1.5,126.5V5.146H97.75" transform="translate(0.815 2.76)" fill="none" stroke="#19538d" stroke-miterlimit="10" stroke-width="4"/>
        </g>
      </g>
    </g>
    <g id="Grupo_1180990" data-name="Grupo 1180990" transform="translate(337.133 10124.748)">
      <g id="Grupo_1180989" data-name="Grupo 1180989" transform="translate(0 -0.001)" clip-path="url(#clip-path-3)">
        <path id="Trazado_1033160" data-name="Trazado 1033160" d="M87.758,47.228a2.912,2.912,0,0,1,2.092,2.8v4.787a2.71,2.71,0,0,1-1.567,2.6l-3.394,1.2a1.739,1.739,0,0,0-.764,1.688l1.537,3.212a2.716,2.716,0,0,1-.642,3.02l-3.376,3.381a2.823,2.823,0,0,1-3.107.713L76.118,69.4a1.935,1.935,0,0,0-1.9-.072c-1.229.581-.98,3.366-2.275,4.618-1.115,1.078-2.707.994-4.343.841l.555,3.45c.631,3.922-2.034,8.265-6.409,8.265L6.469,86.5c-4.441,0-7.126-4.433-6.33-8.444L4.193,57.613a6.618,6.618,0,0,1,4.664-5.172l12.554-3.434c1.364-.373,1.895-1.855,2.992-2.681.766-.576,1.7-2.3.631-3.054a16.951,16.951,0,0,1-7.048-11.71c-1.822-.717-3.5-2.073-3.955-3.693A6.018,6.018,0,0,1,15.1,21.91l.023-10.089a7.074,7.074,0,0,1,6.055-5.9A6.945,6.945,0,0,1,28.058,0L37.9.053C46.1.1,52.514,6.791,53.185,14.905c.2,2.358-.46,4.932.253,7.028.706,2,1.75,3.566.812,6.029a7.431,7.431,0,0,1-3.959,3.649,16.527,16.527,0,0,1-7.282,11.734,2.36,2.36,0,0,0,.035,2.059l2.662,2.758a6.647,6.647,0,0,1,3.206-1.452c1.18-.229,2.4-1.215,1.773-2.466l-1.3-2.608a2.951,2.951,0,0,1,.754-3.529l3.73-3.566c2.121-2.028,5.7,2.786,7.327.55.854-1.173.817-5,3.661-5.008l5.062-.007A3,3,0,0,1,72.756,32.3l.935,2.759c.131.387,1.139.919,1.492.747l2.781-1.347a3.149,3.149,0,0,1,3.678.48l3.482,3.515a2.951,2.951,0,0,1,.312,3.47l-1.307,2.62a1.673,1.673,0,0,0,.756,1.693ZM27.408,11.8a56.472,56.472,0,0,0,14.969,1.529,5.972,5.972,0,0,1,6.265,6.6,4.85,4.85,0,0,0,1.743.117,50.29,50.29,0,0,0-.148-5.989A13.119,13.119,0,0,0,38.2,2.9L28.057,2.844a4.086,4.086,0,0,0-4.146,4.215A1.475,1.475,0,0,1,22.417,8.7a4.109,4.109,0,0,0-4.5,3.96l0,7.573a8.775,8.775,0,0,1,2.23-.283,16.12,16.12,0,0,1,2.055-6.327,4.415,4.415,0,0,1,5.2-1.826M47.5,30.309a1.32,1.32,0,0,1,1.29-1.417,3.1,3.1,0,0,0,2.943-3.714c-.675-3.417-4.407-1.876-5.24-2.4a1.4,1.4,0,0,1-.6-1.212l-.01-2.152a3.215,3.215,0,0,0-3.5-3.286A66,66,0,0,1,25.8,14.4c-.849-.192-1.562,1.191-1.791,1.767-1.542,3.882-.8,7.753-3.418,6.808a3.052,3.052,0,1,0-1.179,5.909,1.374,1.374,0,0,1,1.371,1.493A13.365,13.365,0,0,0,47.5,30.309M79.585,68.021l3.49-3.522-1.752-3.69c-.358-1.581.548-4.027,2.029-4.584l3.693-1.39L86.976,49.9c-1.332-.509-2.653-.583-3.83-1.391a4.961,4.961,0,0,1-1.861-4.281l1.764-3.953-3.518-3.439c-1.392.55-2.42,1.562-3.928,1.772A4.987,4.987,0,0,1,71.413,36.8l-1.524-3.937-4.93.041c-.57,1.371-.589,2.82-1.5,3.98A5.038,5.038,0,0,1,59.186,38.6l-3.807-1.722L51.91,40.393l1.662,3.552a5.067,5.067,0,0,1-1.551,4.422c-.884.8-2.029.763-2.958,1.261l9.119,2.432a9.279,9.279,0,1,1,6.64,9.283L66.89,71.924a6.17,6.17,0,0,0,3.13-.1l1.3-3.621a4.916,4.916,0,0,1,4.288-1.954c1.485.2,2.506,1.238,3.974,1.768M39.97,44.98A16.4,16.4,0,0,1,28.391,45a5.984,5.984,0,0,0,2.361,6.386,5.781,5.781,0,0,0,6.705.049A6.273,6.273,0,0,0,39.97,44.98M64.21,58.055a6.5,6.5,0,1,0-3.138-4.838,7.157,7.157,0,0,1,3.138,4.838M54.018,56.8a2.969,2.969,0,0,1,2.876,3.332L54.082,83.742l7.138.024a4.226,4.226,0,0,0,3.26-1.441,4.142,4.142,0,0,0,.887-3.64L61.477,58.778c-.318-1.625-1.15-3.195-2.835-3.641L47.334,52.145a8.3,8.3,0,0,1-4.771-3.164,8.79,8.79,0,0,1-16.83.121,8.6,8.6,0,0,1-3.952,2.8L9.992,55.007a4.03,4.03,0,0,0-3.039,3.14L2.882,78.769A4.03,4.03,0,0,0,6.719,83.73l7.483.023-2.8-23.3a3.133,3.133,0,0,1,3.214-3.7ZM51.262,83.723l2.849-24.144-39.96-.007,2.883,24.2Z" transform="translate(0 0.001)" fill="#19538d"/>
        <path id="Trazado_1033161" data-name="Trazado 1033161" d="M108.7,239.269a4.46,4.46,0,0,1,5.619,3.038,4.516,4.516,0,0,1-8.548,2.9,4.477,4.477,0,0,1,2.929-5.935m.582,2.794a1.659,1.659,0,0,0-.654,2.518,1.707,1.707,0,0,0,2.217.495,1.729,1.729,0,0,0,.674-2.2,1.622,1.622,0,0,0-2.237-.815" transform="translate(-75.845 -171.916)" fill="#19538d"/>
      </g>
    </g>
  </g>
</svg>
