<svg xmlns="http://www.w3.org/2000/svg" xmlns:xlink="http://www.w3.org/1999/xlink" width="85" height="85" viewBox="0 0 85 85">
  <defs>
    <clipPath id="clip-path">
      <rect id="Rectángulo_467158" data-name="Rectángulo 467158" width="62.008" height="61.967" fill="#12263f"/>
    </clipPath>
  </defs>
  <g id="Grupo_1180392" data-name="Grupo 1180392" transform="translate(-705.629 -410)">
    <g id="Grupo_1180019" data-name="Grupo 1180019">
      <g id="Grupo_1180023" data-name="Grupo 1180023">
        <rect id="Rectángulo_456333" data-name="Rectángulo 456333" width="85" height="85" rx="10" transform="translate(705.629 410)" fill="#68eae0"/>
        <g id="Grupo_1181035" data-name="Grupo 1181035" transform="translate(717.125 421.517)">
          <g id="Grupo_1181034" data-name="Grupo 1181034" clip-path="url(#clip-path)">
            <path id="Trazado_1033369" data-name="Trazado 1033369" d="M55.062,53.752a3.978,3.978,0,0,1,3.806,4.18,4.09,4.09,0,0,1-4.139,4.035l-24.964-.018a5.9,5.9,0,0,1-3.355-1.407l-6.674-4.881c-.871-.637-2.265-1.288-3.211-.772,0,.628.111,1.816-.685,1.85l-3.388.144a1.358,1.358,0,0,1-1.3.992L1.043,57.842A1.025,1.025,0,0,1,0,56.776V35.134a1.008,1.008,0,0,1,1.04-1.057l10.112-.029a1.383,1.383,0,0,1,1.31.969l3.516.232c.69.045.6,1.276.515,1.931,2.921.015,5.608-.066,8.584.158-.247-1.036-.788-2.466-1.872-2.884A3.59,3.59,0,0,1,20.7,30.379l-1.365,1.943c-1.108.893-2.684.739-3.965.668-1.6-.089-2.214-.871-2.868-2.246a3.616,3.616,0,0,0-3.365-1.429c-1.431.436-2.426.593-3.575-.432a9.071,9.071,0,0,1-2.092-2.376c-.491-.94-.111-1.713.13-2.677a3.494,3.494,0,0,0-1.51-3.557C1.038,19.733.269,19.289.1,18.028A12.129,12.129,0,0,1,.1,15c.165-1.261.939-1.7,1.985-2.243A3.517,3.517,0,0,0,3.6,9.2C3.4,8.3,3,7.567,3.407,6.668A8.153,8.153,0,0,1,5.562,4.15c1.151-1.016,2.153-.877,3.571-.437a3.615,3.615,0,0,0,3.374-1.43c.622-1.21,1.074-2.041,2.516-2.2A13.565,13.565,0,0,1,17.866.068c1.262.144,1.771.861,2.307,1.927A3.587,3.587,0,0,0,23.8,3.579c.915-.213,1.666-.619,2.57-.182a8.381,8.381,0,0,1,2.7,2.386c.836,1.041.652,1.925.255,3.159A3.621,3.621,0,0,0,30.7,12.4a7.4,7.4,0,0,1,2.087,1.61c1.171-.038,3.172-.825,3.711-2.02.754-1.674,1.68-2.649,3.643-2.66,1.4-.007,2.938-.212,4.26.567l2-2.187c.294-.322.018-1.425.795-1.44L50.6,6.2l.022-2.073a1.009,1.009,0,0,1,.616-.945,1.062,1.062,0,0,1,1.152.212l5.059,5.04a1.117,1.117,0,0,1,.1,1.589l-3.629,3.686a10.93,10.93,0,0,1,3.167,2.936,3.492,3.492,0,0,1,.163,3.648c-.4,1.006.182,2.132.562,3.044a3.512,3.512,0,0,0,2.093,2.1c2.283.878,2.349,4.151,1.866,6.77-.468,2.537-2.9,1.794-3.96,4.352-.37.9-.975,2.055-.561,3.035,1.161,2.746-.252,4.177-2.579,6.126-1.35,1.131-2.542.834-4.076.358-1.513-.469-3.5.484-4.557,1.553l-1.118,1.95a4.215,4.215,0,0,1,.008,4.118ZM18.035,30.758c.829-2.783,4.845-4.27,7.376-2.943a7.1,7.1,0,0,0,2.269-2.2c-1.388-2.6.328-6.511,3.118-7.376a6.977,6.977,0,0,0-.063-3.5c-2.764-.8-4.424-4.823-3.054-7.318a6.778,6.778,0,0,0-2.27-2.191,5.617,5.617,0,0,1-7.417-2.983,5.488,5.488,0,0,0-3.219.084C13.976,5.1,9.932,6.7,7.434,5.34a8.464,8.464,0,0,0-2.2,2.272c1.411,2.582-.248,6.617-3.018,7.374a8.389,8.389,0,0,0,0,3.047c2.784.791,4.421,4.778,3.021,7.383A8.26,8.26,0,0,0,7.435,27.69a5.584,5.584,0,0,1,7.4,3.083,5.9,5.9,0,0,0,3.2-.015M51.55,10.3a1.054,1.054,0,0,1,.987.476,4.317,4.317,0,0,1,.2,1.049l2.592-2.546L52.708,6.728c.027.747-.205,1.481-.871,1.49l-3.277.044V10.3ZM50.6,14.42l0-2.032L47.71,12.4a1.228,1.228,0,0,1-.99-.357,2.585,2.585,0,0,1-.3-1.178l-2.575,2.529,2.6,2.578c-.028-.739.2-1.478.879-1.49Zm2.033,30.143A8.586,8.586,0,0,0,55.718,41.5a5.952,5.952,0,0,1-.061-5.269,6.14,6.14,0,0,1,3.936-3.883,9.235,9.235,0,0,0,0-4.8,6.025,6.025,0,0,1-3.808-3.593,6.048,6.048,0,0,1-.059-5.561,8.118,8.118,0,0,0-3-2.979,1.187,1.187,0,0,1-1.282,1.106l-2.888-.009-.017,2.067a1.007,1.007,0,0,1-.619.938,1.022,1.022,0,0,1-1.141-.208l-5.151-5.158c-.9-.9.279-1.657,1.01-2.712-1.113-.042-2.588-.313-3.63.317-1.179,2.747-3.112,3.814-6,4.429.3,3.965-1.7,3.839-2.439,4.515-.758.69-1.581,2.238-1.262,3.279.4,1.31.637,2.275-.319,3.388-1.413,1.644-2.865,3.12-4.83,2.164a2.059,2.059,0,0,0-1.407-.089c.012.721-.182,1.954.35,2.59,2.635,1.153,3.591,2.842,4.269,5.681a16.545,16.545,0,0,1,5.945,2.931l10.13,7.416a6.885,6.885,0,0,1,9.195-3.492M10.332,55.755l0-19.605H2.063V55.787Zm4.133-1.085,0-17.47H12.392V54.715a7.034,7.034,0,0,0,2.072-.045m24.554.387-6.15-4.669a1.1,1.1,0,0,1-.309-1.431,1,1,0,0,1,1.412-.3l6.111,4.619a2.061,2.061,0,0,0,2.85-.357,2.036,2.036,0,0,0-.175-2.749L31.71,42.037a12.955,12.955,0,0,0-7.839-2.7l-7.347-.08,0,13.447a6.084,6.084,0,0,1,4.211,1.137c1.935,1.256,3.612,2.63,5.47,4.058,1.112.582,2.184,1.947,3.586,1.95l24.939.067A2.143,2.143,0,0,0,56.8,57.927,2.046,2.046,0,0,0,54.941,55.8L41.322,55.76a3.766,3.766,0,0,1-2.3-.7" transform="translate(0 0)" fill="#12263f"/>
            <path id="Trazado_1033370" data-name="Trazado 1033370" d="M168.191,103.126a7.236,7.236,0,1,0,3.368,6.146,1,1,0,0,1,1.116-1.02c.635.051.967.5.945,1.221a9.291,9.291,0,1,1-4.719-8.307,1.073,1.073,0,0,1,.6,1.316c-.132.381-.76.982-1.308.644" transform="translate(-123.008 -79.311)" fill="#12263f"/>
            <path id="Trazado_1033371" data-name="Trazado 1033371" d="M183.41,127.861l-3.159-3.109a1.051,1.051,0,0,1,.05-1.532,1.1,1.1,0,0,1,1.544.141l2.3,2.305,6.66-5.66a1.039,1.039,0,0,1,1.29.207,1.026,1.026,0,0,1-.07,1.418l-6.971,6.024c-.437.378-1.1.746-1.648.205" transform="translate(-142.768 -95.092)" fill="#12263f"/>
            <path id="Trazado_1033372" data-name="Trazado 1033372" d="M47.048,40.1a8.255,8.255,0,1,1-6.883,9.564A8.219,8.219,0,0,1,47.048,40.1m.209,2.062A6.185,6.185,0,1,0,54.4,47.211a6.139,6.139,0,0,0-7.143-5.045" transform="translate(-31.772 -31.741)" fill="#12263f"/>
            <path id="Trazado_1033373" data-name="Trazado 1033373" d="M25.654,250.072a.99.99,0,0,1,1.35.507,1.024,1.024,0,1,1-1.35-.507" transform="translate(-19.875 -198.331)" fill="#12263f"/>
            <path id="Trazado_1033374" data-name="Trazado 1033374" d="M70.747,69.158a1.118,1.118,0,0,1,.184,1.593,1.046,1.046,0,0,1-1.516.059l-1.327-1.3-1.327,1.3a1.035,1.035,0,0,1-1.516-.065,1.077,1.077,0,0,1,.137-1.526L66.587,68l-1.292-1.329a1.062,1.062,0,0,1-.051-1.412c.743-.907,1.773.036,2.845,1.271,1.017-1.122,1.9-2.113,2.741-1.375a1.015,1.015,0,0,1,.14,1.4L69.592,68Z" transform="translate(-51.562 -51.487)" fill="#12263f"/>
          </g>
        </g>
      </g>
    </g>
  </g>
</svg>
