<svg xmlns="http://www.w3.org/2000/svg" xmlns:xlink="http://www.w3.org/1999/xlink" width="128" height="128" viewBox="0 0 128 128">
  <defs>
    <clipPath id="clip-path">
      <rect id="Rectángulo_456267" data-name="Rectángulo 456267" width="128" height="128" fill="none"/>
    </clipPath>
    <clipPath id="clip-path-2">
      <rect id="Rectángulo_467147" data-name="Rectángulo 467147" width="66" height="56" transform="translate(0)" fill="#19538d"/>
    </clipPath>
  </defs>
  <g id="Grupo_1180350" data-name="Grupo 1180350" transform="translate(511.746 8527) rotate(180)">
    <path id="Trazado_999622" data-name="Trazado 999622" d="M59.07,0A59.07,59.07,0,1,1,0,59.07,59.071,59.071,0,0,1,59.07,0" transform="translate(388.676 8403.93)" fill="#fff"/>
    <g id="Grupo_1179902" data-name="Grupo 1179902" transform="translate(383.746 8399)">
      <g id="Grupo_1179905" data-name="Grupo 1179905" clip-path="url(#clip-path)">
        <path id="Trazado_999618" data-name="Trazado 999618" d="M64,0A64,64,0,1,1,0,64,64,64,0,0,1,64,0" fill="none"/>
        <path id="Trazado_999619" data-name="Trazado 999619" d="M5,59a5,5,0,1,1-5,5,5,5,0,0,1,5-5" fill="#19538d"/>
        <path id="Trazado_999620" data-name="Trazado 999620" d="M21,19a5,5,0,1,1-5,5,5,5,0,0,1,5-5" fill="#19538d"/>
        <path id="Trazado_999621" data-name="Trazado 999621" d="M64,124A60.068,60.068,0,0,1,4,64H7A57,57,0,1,0,22.408,25.024L20.22,22.972A60,60,0,1,1,64,124" fill="#19538d"/>
        <rect id="Rectángulo_456268" data-name="Rectángulo 456268" width="128" height="128" fill="none"/>
        <rect id="Rectángulo_456269" data-name="Rectángulo 456269" width="128" height="128" fill="none"/>
      </g>
    </g>
    <g id="Grupo_1181013" data-name="Grupo 1181013" transform="translate(480.492 8491) rotate(180)">
      <g id="Grupo_1181012" data-name="Grupo 1181012" transform="translate(0)" clip-path="url(#clip-path-2)">
        <path id="Trazado_1033252" data-name="Trazado 1033252" d="M64.892,56.626H1.238C.49,56.54,0,56.156,0,55.376V1.218A1.142,1.142,0,0,1,1.233,0L64.824,0a1.138,1.138,0,0,1,1.231,1.22l.006,54.155a1.217,1.217,0,0,1-1.169,1.251M18.873,9.428l0-7.073H2.358V9.444Zm44.818.006,0-7.077H21.237V9.442ZM28.252,33.581a6.81,6.81,0,0,1-2.244,4.676A8.255,8.255,0,0,0,26,40.54l7.022,3.089c2.491,1.1,3.809,3.107,4.094,6.077l2.9-8.531c.168-.5.4-1.062,1.083-1.062l19.248,0a1.134,1.134,0,0,1,1.031,1.4L57.083,54.258l6.62,0L63.694,11.8H2.362L2.355,54.224l2.508,0,.939-6.5A5.347,5.347,0,0,1,8.968,43.9l7.525-3.374c.064-.626.33-1.7-.067-2.223-1.124-1.451-2.146-2.886-2.209-4.831a9.068,9.068,0,0,1-3.648-7.762,7.679,7.679,0,0,1,3.159-6.36c1.031-.764,2.16-1.428,3.57-.663.941-1.681,2.6-2.121,4.389-2.2a9.551,9.551,0,0,1,10.187,9.453,9.1,9.1,0,0,1-3.622,7.644m-10.592-8.61c.07-.6.273-1.11.748-1.282a1.486,1.486,0,0,1,1.331.193c4.744,3.667,8.523.628,8.579,3.459l.053,2.647A6.3,6.3,0,0,0,29.5,26.437a7.223,7.223,0,0,0-7.812-7.61c-1.513.067-2.743.678-2.822,2.426A1.179,1.179,0,0,1,17.6,22.383c-1.257-.123-.87-1.633-1.664-1.688-.239-.017-.376.268-.514.351-3.058,1.86-3.113,6.1-1.318,8.934l.046-2.639c.042-2.4,3.312-.657,3.513-2.369m8.272,8.188.018-4.852a10.746,10.746,0,0,1-6.319-1.648A4.086,4.086,0,0,1,16.516,28.3l0,4.732a4.677,4.677,0,0,0,4.6,4.7,4.623,4.623,0,0,0,4.812-4.567M23.565,41.5l-.017-1.831a6.6,6.6,0,0,1-4.632,0l-.041,1.609a2.3,2.3,0,0,0,2.247,2.342,2.241,2.241,0,0,0,2.442-2.12m31.07,12.729,3.847-11.78-16.373.029L38.2,54.271ZM14.144,53.2l.062,1.076,11.939-.012a7.705,7.705,0,0,1-.194-2.379A2.331,2.331,0,0,1,28.3,49.544l6.295,0a3.6,3.6,0,0,0-2.1-3.509l-6.844-3.081a4.743,4.743,0,0,1-4.539,3A4.809,4.809,0,0,1,16.8,42.976L9.631,46.152a3.735,3.735,0,0,0-1.735,2.8l-.644,5.29,4.51.026.045-1.191a1.164,1.164,0,0,1,1.27-1.172,1.2,1.2,0,0,1,1.068,1.29m21.008,1.07a7.054,7.054,0,0,0-.273-2.379l-6.541.069c-.172.887-.037,2.165.748,2.181Z" transform="translate(0)" fill="#19538d"/>
        <path id="Trazado_1033253" data-name="Trazado 1033253" d="M154.626,71.739a2.5,2.5,0,0,1-2.228-3.054c.288-2.165-2.228-1.194-2.346-2.734-.137-1.776,2.64-.715,2.347-2.926a2.512,2.512,0,0,1,2.124-3.057,1.213,1.213,0,0,1,1.4,1.043c.149.705-.589,1.072-1.089,1.416.1,1.059-.592,2.464-.647,3.43s.934,2.316.567,3.441c.616.269,1.167.6,1.169,1.185a1.187,1.187,0,0,1-1.3,1.255" transform="translate(-114.646 -45.812)" fill="#19538d"/>
        <path id="Trazado_1033254" data-name="Trazado 1033254" d="M238.493,118.592c.221,1.71-.691,3.14-2.346,3.165a1.187,1.187,0,0,1-1.181-1.051c-.146-.711.57-1.079,1.107-1.4a6.764,6.764,0,0,1,.834-3.4,6.76,6.76,0,0,1-.8-3.487c-.609-.309-1.279-.694-1.146-1.392a1.214,1.214,0,0,1,1.4-1.04,2.509,2.509,0,0,1,2.123,3.052c-.285,2.162,2.229,1.167,2.345,2.727.131,1.759-2.609.762-2.342,2.823" transform="translate(-179.515 -84.034)" fill="#19538d"/>
        <path id="Trazado_1033255" data-name="Trazado 1033255" d="M220.645,87.331l-9.411,0a1.171,1.171,0,0,1-1.174-1.082,1.143,1.143,0,0,1,1.168-1.264l9.422-.007a1.14,1.14,0,0,1,1.167,1.072,1.169,1.169,0,0,1-1.172,1.278" transform="translate(-160.497 -64.931)" fill="#19538d"/>
        <path id="Trazado_1033256" data-name="Trazado 1033256" d="M160.645,127.331l-9.411,0a1.171,1.171,0,0,1-1.174-1.082,1.143,1.143,0,0,1,1.168-1.264l9.422-.007a1.14,1.14,0,0,1,1.167,1.072,1.169,1.169,0,0,1-1.172,1.278" transform="translate(-114.653 -95.494)" fill="#19538d"/>
        <path id="Trazado_1033257" data-name="Trazado 1033257" d="M193.287,107.33l-7.056,0a1.165,1.165,0,0,1-1.172-1.079,1.143,1.143,0,0,1,1.166-1.263l7.066-.007a1.139,1.139,0,0,1,1.165,1.071,1.164,1.164,0,0,1-1.17,1.276" transform="translate(-141.395 -80.213)" fill="#19538d"/>
        <path id="Trazado_1033258" data-name="Trazado 1033258" d="M193.287,147.33l-7.056,0a1.165,1.165,0,0,1-1.172-1.079,1.143,1.143,0,0,1,1.166-1.263l7.066-.007a1.139,1.139,0,0,1,1.165,1.071,1.164,1.164,0,0,1-1.17,1.276" transform="translate(-141.395 -110.776)" fill="#19538d"/>
        <path id="Trazado_1033259" data-name="Trazado 1033259" d="M192.109,67.329l-5.878,0a1.161,1.161,0,0,1-1.171-1.078,1.142,1.142,0,0,1,1.166-1.263l5.887-.007a1.138,1.138,0,0,1,1.165,1.071,1.16,1.16,0,0,1-1.169,1.275" transform="translate(-141.395 -49.651)" fill="#19538d"/>
        <path id="Trazado_1033260" data-name="Trazado 1033260" d="M154.752,147.331h-3.521a1.169,1.169,0,1,1,0-2.337l3.528-.007a1.134,1.134,0,0,1,1.165,1.069,1.152,1.152,0,0,1-1.167,1.274" transform="translate(-114.654 -110.781)" fill="#19538d"/>
        <path id="Trazado_1033261" data-name="Trazado 1033261" d="M213.575,127.332H211.23a1.169,1.169,0,1,1,0-2.338l2.349-.007a1.127,1.127,0,0,1,1.164,1.068,1.146,1.146,0,0,1-1.165,1.275" transform="translate(-160.499 -95.499)" fill="#19538d"/>
        <path id="Trazado_1033262" data-name="Trazado 1033262" d="M188,85.023a1.136,1.136,0,0,1,.383,1.61c-.551.83-2.8.843-3.234-.16a1.122,1.122,0,0,1,.53-1.487,3.159,3.159,0,0,1,2.321.036" transform="translate(-141.395 -64.78)" fill="#19538d"/>
        <path id="Trazado_1033263" data-name="Trazado 1033263" d="M136.582,22.358l-35.307-.006a1.17,1.17,0,0,1-1.2-1.088A1.133,1.133,0,0,1,101.269,20L136.8,20a1.147,1.147,0,0,1,.978,1.267,1.191,1.191,0,0,1-1.2,1.1" transform="translate(-76.462 -15.278)" fill="#19538d"/>
        <path id="Trazado_1033264" data-name="Trazado 1033264" d="M20.739,20.085a1.13,1.13,0,0,1,1.542.579,1.169,1.169,0,1,1-1.542-.579" transform="translate(-15.319 -15.26)" fill="#19538d"/>
        <path id="Trazado_1033265" data-name="Trazado 1033265" d="M40.739,20.085a1.13,1.13,0,0,1,1.542.579,1.169,1.169,0,1,1-1.542-.579" transform="translate(-30.6 -15.26)" fill="#19538d"/>
        <path id="Trazado_1033266" data-name="Trazado 1033266" d="M60.739,20.085a1.13,1.13,0,0,1,1.542.579,1.169,1.169,0,1,1-1.542-.579" transform="translate(-45.882 -15.26)" fill="#19538d"/>
        <path id="Trazado_1033267" data-name="Trazado 1033267" d="M78.933,136.173c1.374,1.638,2.258-.953,3.531-.117a1.186,1.186,0,0,1,.345,1.64,3.529,3.529,0,0,1-5.73-.142,1.244,1.244,0,0,1,.189-1.522,1.194,1.194,0,0,1,1.665.142" transform="translate(-58.761 -103.729)" fill="#19538d"/>
      </g>
    </g>
  </g>
</svg>
