<svg xmlns="http://www.w3.org/2000/svg" xmlns:xlink="http://www.w3.org/1999/xlink" width="98" height="98" viewBox="0 0 98 98">
  <defs>
    <clipPath id="clip-path">
      <rect id="Rectángulo_456312" data-name="Rectángulo 456312" width="98" height="98" transform="translate(0.059 0.059)" fill="none"/>
    </clipPath>
    <clipPath id="clip-path-3">
      <rect id="Rectángulo_466876" data-name="Rectángulo 466876" width="58.044" height="60.262" fill="#19538d"/>
    </clipPath>
  </defs>
  <g id="Grupo_1180050" data-name="Grupo 1180050" transform="translate(-307.117 -10093.059)">
    <g id="Grupo_1179968" data-name="Grupo 1179968" transform="translate(307.059 10093)">
      <g id="Grupo_1179959" data-name="Grupo 1179959" clip-path="url(#clip-path)">
        <path id="Trazado_999654" data-name="Trazado 999654" d="M1.5,5.146H81.261A12.087,12.087,0,0,1,93.377,17.2V96.585H13.616A12.087,12.087,0,0,1,1.5,84.527Z" transform="translate(0.014 0.025)" fill="#fff"/>
      </g>
      <g id="Grupo_1179960" data-name="Grupo 1179960">
        <g id="Grupo_1179956" data-name="Grupo 1179956" clip-path="url(#clip-path)">
          <path id="Trazado_999651" data-name="Trazado 999651" d="M92.229,30a5.024,5.024,0,1,1-5.048,5.024A5.037,5.037,0,0,1,92.229,30" transform="translate(0.84 0.145)" fill="#19538d"/>
          <path id="Trazado_999652" data-name="Trazado 999652" d="M63.229,0a5.024,5.024,0,1,1-5.048,5.024A5.037,5.037,0,0,1,63.229,0" transform="translate(0.56 0)" fill="#19538d"/>
          <path id="Trazado_999653" data-name="Trazado 999653" d="M93.377,35.144V96.585H13.616A12.087,12.087,0,0,1,1.5,84.527V5.146H64.459" transform="translate(0.014 0.025)" fill="none" stroke="#19538d" stroke-miterlimit="10" stroke-width="3"/>
        </g>
      </g>
    </g>
    <g id="Grupo_1180611" data-name="Grupo 1180611" transform="translate(321.007 10113.605)">
      <g id="Grupo_1180610" data-name="Grupo 1180610" clip-path="url(#clip-path-3)">
        <path id="Trazado_1031703" data-name="Trazado 1031703" d="M116.94,2.4,77.9,2.389l-.027,9.239A1.2,1.2,0,0,1,76.7,12.746a1.215,1.215,0,0,1-1.177-1.114l-.01-10.5A1.124,1.124,0,0,1,76.654,0H118.19a1.141,1.141,0,0,1,1.137,1.133l0,11.079a1.159,1.159,0,0,1-1.191,1.146,1.253,1.253,0,0,1-1.193-1.167Z" transform="translate(-61.292)" fill="#19538d"/>
        <path id="Trazado_1031704" data-name="Trazado 1031704" d="M148.334,53.364l-23.906,0a1.157,1.157,0,0,1-1.211-1.174,1.144,1.144,0,0,1,1.185-1.206l23.858,0a1.231,1.231,0,0,1,1.242,1.092,1.163,1.163,0,0,1-1.168,1.289" transform="translate(-100.012 -41.382)" fill="#19538d"/>
        <path id="Trazado_1031705" data-name="Trazado 1031705" d="M193.8,100.353l-13.462,0a1.2,1.2,0,0,1,.308-2.385l13.156.009a1.222,1.222,0,0,1,1.239,1.2,1.192,1.192,0,0,1-1.241,1.173" transform="translate(-145.539 -79.518)" fill="#19538d"/>
        <path id="Trazado_1031706" data-name="Trazado 1031706" d="M193.683,147.41h-13.2a1.22,1.22,0,0,1-1.182-1.176,1.192,1.192,0,0,1,1.335-1.215l13.158.005a1.213,1.213,0,0,1,1.238,1.2,1.227,1.227,0,0,1-1.353,1.184" transform="translate(-145.539 -117.709)" fill="#19538d"/>
        <path id="Trazado_1031707" data-name="Trazado 1031707" d="M193.855,194.468l-13.359,0a1.169,1.169,0,0,1-1.171-.994c-.073-.44.188-1.3.822-1.3l13.66-.044a1.183,1.183,0,0,1,1.23,1.067,1.154,1.154,0,0,1-1.182,1.266" transform="translate(-145.546 -155.952)" fill="#19538d"/>
        <path id="Trazado_1031708" data-name="Trazado 1031708" d="M193.681,241.389l-13.179-.012a1.2,1.2,0,0,1-1.2-1.172,1.153,1.153,0,0,1,1.156-1.21l13.336,0a1.2,1.2,0,1,1-.119,2.4" transform="translate(-145.54 -193.984)" fill="#19538d"/>
        <path id="Trazado_1031709" data-name="Trazado 1031709" d="M298,87.535a1.173,1.173,0,1,1-1.173-1.173A1.173,1.173,0,0,1,298,87.535" transform="translate(-239.978 -70.098)" fill="#19538d"/>
        <path id="Trazado_1031710" data-name="Trazado 1031710" d="M11.76,115.828l7.9.02a1.091,1.091,0,0,1,1.1.954l.337,2.7a1.322,1.322,0,0,0,1.781,1.1l2.545-1.035a1.214,1.214,0,0,1,1.576.616l3.844,6.693a1.11,1.11,0,0,1-.237,1.459l-2.152,1.6a1.4,1.4,0,0,0-.607,1.01,1.335,1.335,0,0,0,.513,1.245l2.158,1.6a1.2,1.2,0,0,1,.255,1.68l-3.935,6.787a1.12,1.12,0,0,1-1.382.383l-2.429-.978a1.435,1.435,0,0,0-1.394.178,1.657,1.657,0,0,0-.595,1.235l-.284,2.341c-.158,1.3-2.029,1.017-3.87.967l.019,4.694H48.656l.018-6.883a1.23,1.23,0,0,1,1.188-1.164l6.063,0,.006-27.038a1.194,1.194,0,0,1,2.389,0L58.3,144.62,50.867,152.9a1.523,1.523,0,0,1-1.215.534l-33.837,0a1.227,1.227,0,0,1-1.331-1.325l0-5.711-2.781-.01a1.1,1.1,0,0,1-1.091-.974l-.345-2.692a1.4,1.4,0,0,0-1.939-1.072l-2.4.974a1.182,1.182,0,0,1-1.556-.58l-3.9-6.815a1.1,1.1,0,0,1,.367-1.445l2.277-1.705a1.332,1.332,0,0,0,.007-1.949L.767,128.332a1.127,1.127,0,0,1-.25-1.476l3.928-6.8a1.11,1.11,0,0,1,1.331-.529l2.73,1.068a1.33,1.33,0,0,0,1.766-1.1l.376-2.865a1.089,1.089,0,0,1,1.112-.8m6.758,28.2.329-2.067a3.729,3.729,0,0,1,4.905-2.563l1.635.644,2.869-4.995-1.58-1.194a3.692,3.692,0,0,1,.081-5.6l1.508-1.155-2.877-4.947-1.648.647a3.64,3.64,0,0,1-4.933-2.71l-.265-1.892-5.724,0-.266,1.866a3.467,3.467,0,0,1-2.056,2.61,3.9,3.9,0,0,1-3.553-.161c-.22-.112-.818-.43-1.007-.258L3.1,127.093l1.7,1.342a3.7,3.7,0,0,1-.215,5.5l-1.468,1.184,2.871,4.939,2.205-.813a3.659,3.659,0,0,1,4.325,2.724l.308,2.048Zm35.871,1.4-3.333-.031.018,3.732Z" transform="translate(-0.275 -93.173)" fill="#19538d"/>
        <path id="Trazado_1031711" data-name="Trazado 1031711" d="M28.911,95.41l-4.358.646a1.165,1.165,0,0,1-1.291-.885,1.124,1.124,0,0,1,.876-1.418l1.409-.25A20.292,20.292,0,0,0,1.958,95.869a1.215,1.215,0,0,1-1.618-.03,1.211,1.211,0,0,1,.042-1.725,22.673,22.673,0,0,1,26.8-2.386c.023-1.349-.5-2.573.763-2.925a1.174,1.174,0,0,1,1.442.892l.49,4.294a1.175,1.175,0,0,1-.965,1.421" transform="translate(0 -71.775)" fill="#19538d"/>
        <path id="Trazado_1031712" data-name="Trazado 1031712" d="M60.033,173.02a6.575,6.575,0,1,1-6.575-6.575,6.575,6.575,0,0,1,6.575,6.575m-2.355,0a4.219,4.219,0,1,0-4.219,4.219,4.219,4.219,0,0,0,4.219-4.219" transform="translate(-38.055 -135.1)" fill="#19538d"/>
      </g>
    </g>
  </g>
</svg>
