<svg xmlns="http://www.w3.org/2000/svg" xmlns:xlink="http://www.w3.org/1999/xlink" width="128" height="128" viewBox="0 0 128 128">
  <defs>
    <clipPath id="clip-path">
      <rect id="Rectángulo_456267" data-name="Rectángulo 456267" width="128" height="128" fill="none"/>
    </clipPath>
    <clipPath id="clip-path-2">
      <rect id="Rectángulo_467150" data-name="Rectángulo 467150" width="65.522" height="65.115" fill="#19538d"/>
    </clipPath>
  </defs>
  <g id="Grupo_1180353" data-name="Grupo 1180353" transform="translate(511.746 8527) rotate(180)">
    <path id="Trazado_999622" data-name="Trazado 999622" d="M59.07,0A59.07,59.07,0,1,1,0,59.07,59.071,59.071,0,0,1,59.07,0" transform="translate(388.676 8403.93)" fill="#fff"/>
    <g id="Grupo_1179902" data-name="Grupo 1179902" transform="translate(383.746 8399)">
      <g id="Grupo_1179905" data-name="Grupo 1179905" clip-path="url(#clip-path)">
        <path id="Trazado_999618" data-name="Trazado 999618" d="M64,0A64,64,0,1,1,0,64,64,64,0,0,1,64,0" fill="none"/>
        <path id="Trazado_999619" data-name="Trazado 999619" d="M5,59a5,5,0,1,1-5,5,5,5,0,0,1,5-5" fill="#19538d"/>
        <path id="Trazado_999620" data-name="Trazado 999620" d="M21,19a5,5,0,1,1-5,5,5,5,0,0,1,5-5" fill="#19538d"/>
        <path id="Trazado_999621" data-name="Trazado 999621" d="M64,124A60.068,60.068,0,0,1,4,64H7A57,57,0,1,0,22.408,25.024L20.22,22.972A60,60,0,1,1,64,124" fill="#19538d"/>
        <rect id="Rectángulo_456268" data-name="Rectángulo 456268" width="128" height="128" fill="none"/>
        <rect id="Rectángulo_456269" data-name="Rectángulo 456269" width="128" height="128" fill="none"/>
      </g>
    </g>
    <g id="Grupo_1181019" data-name="Grupo 1181019" transform="translate(480.507 8490.342) rotate(180)">
      <g id="Grupo_1181018" data-name="Grupo 1181018" clip-path="url(#clip-path-2)">
        <path id="Trazado_1033291" data-name="Trazado 1033291" d="M62.769,14.064H2.757l.017,35.792A2.635,2.635,0,0,0,5.418,52.3l30.348.017a1.366,1.366,0,0,1,1.286,1.344,1.389,1.389,0,0,1-1.28,1.36H5.485A5.417,5.417,0,0,1,0,49.457L.028,5.172C.029,2.748,2.134,0,4.755,0L60.769,0c2.6,0,4.719,2.756,4.721,5.171l.032,44.284a5.421,5.421,0,0,1-5.464,5.57l-5.546.005a1.365,1.365,0,1,1-.2-2.723l5.834-.007a2.674,2.674,0,0,0,2.6-2.447ZM23.883,11.3l0-8.645L5.194,2.672A2.6,2.6,0,0,0,2.8,4.982l-.027,6.347Zm38.8-6.407A2.529,2.529,0,0,0,60.306,2.67l-33.7,0L26.6,11.323l36.17-.006Z" transform="translate(0)" fill="#19538d"/>
        <path id="Trazado_1033292" data-name="Trazado 1033292" d="M153.244,116.579a5.465,5.465,0,1,1-10.9.34l.475-13.435a15.023,15.023,0,1,1,9.948,0Zm-7.8-39.306a12.27,12.27,0,1,0,14.444,9.917,12.232,12.232,0,0,0-14.444-9.917m5.036,40.107-.416-13.2a19.105,19.105,0,0,1-4.582,0l-.392,12.719a2.716,2.716,0,0,0,2.528,2.969,2.676,2.676,0,0,0,2.862-2.491" transform="translate(-102.751 -57.49)" fill="#19538d"/>
        <path id="Trazado_1033293" data-name="Trazado 1033293" d="M31.107,83.789l-4.434,0A2.829,2.829,0,0,1,23.992,80.8l.029-3.845a2.673,2.673,0,0,1,2.748-2.622l4.133.017a2.525,2.525,0,0,1,2.543,2.363l.017,4.525a2.67,2.67,0,0,1-2.355,2.552m-.334-2.781-.085-3.939a30.469,30.469,0,0,1-3.915-.02l0,4.01Z" transform="translate(-18.568 -57.528)" fill="#19538d"/>
        <path id="Trazado_1033294" data-name="Trazado 1033294" d="M31.144,135.324H26.933a2.843,2.843,0,0,1-2.9-2.93l.009-3.842a2.764,2.764,0,0,1,2.886-2.712l3.657-.008a2.687,2.687,0,0,1,2.9,2.485l-.026,4.751c-.006,1.136-1.2,2-2.312,2.256m-.34-2.752-.012-4.009H26.765v4.024Z" transform="translate(-18.598 -97.386)" fill="#19538d"/>
        <path id="Trazado_1033295" data-name="Trazado 1033295" d="M30.939,186.91l-3.99.02a2.782,2.782,0,0,1-2.9-2.815V180.28a2.776,2.776,0,0,1,2.9-2.8l3.869.005a2.6,2.6,0,0,1,2.694,2.566l.017,4.083a2.642,2.642,0,0,1-2.585,2.779m-.12-2.78-.02-3.9-4.023.02.045,3.938Z" transform="translate(-18.61 -137.355)" fill="#19538d"/>
        <path id="Trazado_1033296" data-name="Trazado 1033296" d="M96.088,209.914l-14.344.04a1.37,1.37,0,1,1-.177-2.732l14.363,0a1.355,1.355,0,0,1,1.4,1.2,1.33,1.33,0,0,1-1.238,1.492" transform="translate(-62.096 -160.375)" fill="#19538d"/>
        <path id="Trazado_1033297" data-name="Trazado 1033297" d="M90.9,83.9l-9.6-.031c-.749,0-1.123-.89-1.053-1.434a1.369,1.369,0,0,1,1.31-1.223l9.6.035c.732,0,1.066.833,1.042,1.349a1.276,1.276,0,0,1-1.3,1.3" transform="translate(-62.104 -62.852)" fill="#19538d"/>
        <path id="Trazado_1033298" data-name="Trazado 1033298" d="M90.906,186.946l-9.172.022a1.392,1.392,0,0,1-1.5-1.353,1.375,1.375,0,0,1,1.332-1.383l9.169-.012a1.323,1.323,0,0,1,1.451,1.178,1.3,1.3,0,0,1-1.277,1.547" transform="translate(-62.093 -142.575)" fill="#19538d"/>
        <path id="Trazado_1033299" data-name="Trazado 1033299" d="M89.315,106.849l-7.585.025a1.371,1.371,0,1,1-.181-2.735h7.837a1.369,1.369,0,0,1,1.287,1.256,1.336,1.336,0,0,1-1.358,1.454" transform="translate(-62.089 -80.597)" fill="#19538d"/>
        <path id="Trazado_1033300" data-name="Trazado 1033300" d="M88.647,158.64H81.535a1.407,1.407,0,0,1-1.257-1.107c-.127-.446.135-1.516.838-1.519l7.843-.03c.72,0,1.067.889,1.005,1.424a1.328,1.328,0,0,1-1.316,1.233" transform="translate(-62.105 -120.721)" fill="#19538d"/>
        <path id="Trazado_1033301" data-name="Trazado 1033301" d="M87.964,135.588l-6.217.01a1.384,1.384,0,0,1-1.481-1.125c-.128-.588.212-1.557,1.056-1.559l6.981-.018c.746,0,1.144.877,1.1,1.431a1.361,1.361,0,0,1-1.437,1.261" transform="translate(-62.101 -102.852)" fill="#19538d"/>
        <path id="Trazado_1033302" data-name="Trazado 1033302" d="M164.74,27.557l-23.25-.007a1.282,1.282,0,0,1-1.319-1.267,1.32,1.32,0,0,1,1.322-1.442l23.247-.013a1.366,1.366,0,1,1,0,2.728" transform="translate(-108.481 -19.216)" fill="#19538d"/>
        <path id="Trazado_1033303" data-name="Trazado 1033303" d="M77.542,24.839a1.307,1.307,0,0,1,.987,1.572,1.359,1.359,0,0,1-1.5,1.1,1.561,1.561,0,0,1-1.533-.632,1.482,1.482,0,0,1,.125-1.615,1.893,1.893,0,0,1,1.921-.424" transform="translate(-58.29 -19.16)" fill="#19538d"/>
        <path id="Trazado_1033304" data-name="Trazado 1033304" d="M30.441,24.905a1.349,1.349,0,0,1,.776,1.625,1.5,1.5,0,0,1-1.649.983,1.381,1.381,0,0,1-1.53-1.105,1.318,1.318,0,0,1,.931-1.558,2.164,2.164,0,0,1,1.472.054" transform="translate(-21.678 -19.154)" fill="#19538d"/>
        <path id="Trazado_1033305" data-name="Trazado 1033305" d="M54.343,25.061a1.315,1.315,0,0,1,.519,1.6,1.464,1.464,0,0,1-1.521.9,1.443,1.443,0,0,1-1.625-1.287,1.368,1.368,0,0,1,1.4-1.475,2.148,2.148,0,0,1,1.227.259" transform="translate(-40.022 -19.194)" fill="#19538d"/>
        <path id="Trazado_1033306" data-name="Trazado 1033306" d="M169.686,130.241l-3.356-3.318c-.507-.5-.157-1.334.166-1.645a1.419,1.419,0,0,1,1.947-.015l2.724,2.672,7.4-7.387a1.4,1.4,0,0,1,1.965-.217,1.373,1.373,0,0,1,.094,2.045l-7.571,7.557c-.826.824-2.455,1.21-3.367.308" transform="translate(-128.53 -92.889)" fill="#19538d"/>
      </g>
    </g>
  </g>
</svg>
