<svg xmlns="http://www.w3.org/2000/svg" xmlns:xlink="http://www.w3.org/1999/xlink" width="98" height="98" viewBox="0 0 98 98">
  <defs>
    <clipPath id="clip-path">
      <rect id="Rectángulo_456312" data-name="Rectángulo 456312" width="98" height="98" transform="translate(0.059 0.059)" fill="none"/>
    </clipPath>
    <clipPath id="clip-path-3">
      <rect id="Rectángulo_466879" data-name="Rectángulo 466879" width="54.984" height="55.644" fill="#19538d"/>
    </clipPath>
  </defs>
  <g id="Grupo_1180051" data-name="Grupo 1180051" transform="translate(-307.117 -10093.059)">
    <g id="Grupo_1179968" data-name="Grupo 1179968" transform="translate(307.059 10093)">
      <g id="Grupo_1179959" data-name="Grupo 1179959" clip-path="url(#clip-path)">
        <path id="Trazado_999654" data-name="Trazado 999654" d="M1.5,5.146H81.261A12.087,12.087,0,0,1,93.377,17.2V96.585H13.616A12.087,12.087,0,0,1,1.5,84.527Z" transform="translate(0.014 0.025)" fill="#fff"/>
      </g>
      <g id="Grupo_1179960" data-name="Grupo 1179960">
        <g id="Grupo_1179956" data-name="Grupo 1179956" clip-path="url(#clip-path)">
          <path id="Trazado_999651" data-name="Trazado 999651" d="M92.229,30a5.024,5.024,0,1,1-5.048,5.024A5.037,5.037,0,0,1,92.229,30" transform="translate(0.84 0.145)" fill="#19538d"/>
          <path id="Trazado_999652" data-name="Trazado 999652" d="M63.229,0a5.024,5.024,0,1,1-5.048,5.024A5.037,5.037,0,0,1,63.229,0" transform="translate(0.56 0)" fill="#19538d"/>
          <path id="Trazado_999653" data-name="Trazado 999653" d="M93.377,35.144V96.585H13.616A12.087,12.087,0,0,1,1.5,84.527V5.146H64.459" transform="translate(0.014 0.025)" fill="none" stroke="#19538d" stroke-miterlimit="10" stroke-width="3"/>
        </g>
      </g>
    </g>
    <g id="Grupo_1180615" data-name="Grupo 1180615" transform="translate(324.001 10114.236)">
      <g id="Grupo_1180614" data-name="Grupo 1180614" clip-path="url(#clip-path-3)">
        <path id="Trazado_1031734" data-name="Trazado 1031734" d="M113.648,33.892l-20.3-.007a.95.95,0,0,1-1.027-.944.921.921,0,0,1,1-.924h20.291a.911.911,0,0,1,.929.784c.073.491-.219.926-.9,1.093" transform="translate(-76.272 -26.45)" fill="#19538d"/>
        <path id="Trazado_1031735" data-name="Trazado 1031735" d="M208.561,97.841l-13.871-.021a.963.963,0,0,1-.957-.912.919.919,0,0,1,.919-.958h13.88a.9.9,0,0,1,.9.793c.068.5-.209.92-.875,1.1" transform="translate(-160.051 -79.268)" fill="#19538d"/>
        <path id="Trazado_1031736" data-name="Trazado 1031736" d="M217.314,193.863l-12.115-.026a.985.985,0,0,1-.88-.922.921.921,0,0,1,.993-.928l11.8-.009a.945.945,0,0,1,1.071.792.985.985,0,0,1-.869,1.094" transform="translate(-168.797 -158.601)" fill="#19538d"/>
        <path id="Trazado_1031737" data-name="Trazado 1031737" d="M221.822,129.813l-11.112.013a.932.932,0,0,1-.939-.911.893.893,0,0,1,.912-.954h11.1a.926.926,0,0,1,.04,1.851" transform="translate(-173.3 -105.715)" fill="#19538d"/>
        <path id="Trazado_1031738" data-name="Trazado 1031738" d="M221.972,161.837l-11.248-.007a.927.927,0,0,1-.933-.9c0-.616.416-.955,1.073-.955l10.935.007a.892.892,0,0,1,.9.781.98.98,0,0,1-.731,1.071" transform="translate(-173.317 -132.163)" fill="#19538d"/>
        <path id="Trazado_1031739" data-name="Trazado 1031739" d="M253.4,263.4a.97.97,0,0,1-1.085-.936.939.939,0,0,1,.983-.932l3.639-.018a.856.856,0,0,0,.9-.856l.037-3.784a.906.906,0,0,1,.9-.9.933.933,0,0,1,.939.874l-.021,3.972a2.613,2.613,0,0,1-2.612,2.56Z" transform="translate(-208.448 -211.469)" fill="#19538d"/>
        <path id="Trazado_1031740" data-name="Trazado 1031740" d="M234.882,225.839h-8.27a.947.947,0,0,1-.956-.892.929.929,0,0,1,.926-.948h8.329a.9.9,0,0,1,.905.948.912.912,0,0,1-.935.892" transform="translate(-186.423 -185.054)" fill="#19538d"/>
        <path id="Trazado_1031741" data-name="Trazado 1031741" d="M175.325,65.825l-7.441.009a.9.9,0,0,1-.935-.888.931.931,0,0,1,.875-.941l7.46-.007a.934.934,0,0,1,.916.792.9.9,0,0,1-.875,1.035" transform="translate(-137.923 -52.871)" fill="#19538d"/>
        <path id="Trazado_1031742" data-name="Trazado 1031742" d="M50.477,55.6l-35.165.046a4.7,4.7,0,0,1-4.832-4.727l-.019-7.3a17.578,17.578,0,0,1,0-32.148l.02-6.768A4.649,4.649,0,0,1,14.96,0L43.347.012l11.08,11.062a1.539,1.539,0,0,1,.557,1.119l-.01,38.719a4.545,4.545,0,0,1-4.5,4.687m-35.44-1.852,35.175.019a2.739,2.739,0,0,0,2.9-2.727l.015-38.063-8.407-.018a2.75,2.75,0,0,1-2.712-2.874l.013-8.229-26.891.01a2.781,2.781,0,0,0-2.8,2.813l0,6.076A17.609,17.609,0,0,1,32.913,36.3L41.4,44.811a4.516,4.516,0,0,1-.107,6.318,4.45,4.45,0,0,1-6.2.328l-8.712-8.623a17.731,17.731,0,0,1-14.047,1.521l.026,6.759a2.682,2.682,0,0,0,2.682,2.632m29.9-42.609,6.848-.05L43.9,3.184l-.049,7.167a1.082,1.082,0,0,0,1.082.785m-11.555,16.4A15.754,15.754,0,1,0,17.624,43.3,15.754,15.754,0,0,0,33.378,27.542m2.8,22.374a2.738,2.738,0,0,0,3.733-3.973l-8.018-8.068a18.836,18.836,0,0,1-3.937,3.938Z" transform="translate(0 -0.001)" fill="#19538d"/>
        <path id="Trazado_1031743" data-name="Trazado 1031743" d="M49.171,92.418a13.9,13.9,0,1,1-13.9-13.9,13.9,13.9,0,0,1,13.9,13.9m-1.851,0a12.035,12.035,0,1,0-12.035,12.035A12.035,12.035,0,0,0,47.32,92.419" transform="translate(-17.658 -64.868)" fill="#19538d"/>
        <path id="Trazado_1031744" data-name="Trazado 1031744" d="M69.9,156.472l-13.8.015a.933.933,0,1,1,0-1.856l13.721,0a.945.945,0,0,1,.975.862.92.92,0,0,1-.895.974" transform="translate(-45.497 -127.747)" fill="#19538d"/>
        <path id="Trazado_1031745" data-name="Trazado 1031745" d="M83.68,124.52l-6.347-.005a.931.931,0,0,1-.965-.862.875.875,0,0,1,.789-.944l6.44-.035c.627,0,1.025.279,1.066.836a.9.9,0,0,1-.983,1.01" transform="translate(-63.089 -101.347)" fill="#19538d"/>
        <path id="Trazado_1031746" data-name="Trazado 1031746" d="M83.672,188.7l-6.351.007a.993.993,0,0,1-.944-.752c-.092-.311.115-1.04.628-1.042l6.926-.026c.554,0,.753.572.724.96a.892.892,0,0,1-.983.852" transform="translate(-63.081 -154.4)" fill="#19538d"/>
      </g>
    </g>
  </g>
</svg>
