<svg xmlns="http://www.w3.org/2000/svg" xmlns:xlink="http://www.w3.org/1999/xlink" width="98" height="98" viewBox="0 0 98 98">
  <defs>
    <clipPath id="clip-path">
      <rect id="Rectángulo_456312" data-name="Rectángulo 456312" width="98" height="98" transform="translate(0.059 0.059)" fill="none"/>
    </clipPath>
    <clipPath id="clip-path-3">
      <rect id="Rectángulo_466878" data-name="Rectángulo 466878" width="64.611" height="64.288" fill="#19538d"/>
    </clipPath>
  </defs>
  <g id="Grupo_1180052" data-name="Grupo 1180052" transform="translate(-307.117 -10093.059)">
    <g id="Grupo_1179968" data-name="Grupo 1179968" transform="translate(307.059 10093)">
      <g id="Grupo_1179959" data-name="Grupo 1179959" clip-path="url(#clip-path)">
        <path id="Trazado_999654" data-name="Trazado 999654" d="M1.5,5.146H81.261A12.087,12.087,0,0,1,93.377,17.2V96.585H13.616A12.087,12.087,0,0,1,1.5,84.527Z" transform="translate(0.014 0.025)" fill="#fff"/>
      </g>
      <g id="Grupo_1179960" data-name="Grupo 1179960">
        <g id="Grupo_1179956" data-name="Grupo 1179956" clip-path="url(#clip-path)">
          <path id="Trazado_999651" data-name="Trazado 999651" d="M92.229,30a5.024,5.024,0,1,1-5.048,5.024A5.037,5.037,0,0,1,92.229,30" transform="translate(0.84 0.145)" fill="#19538d"/>
          <path id="Trazado_999652" data-name="Trazado 999652" d="M63.229,0a5.024,5.024,0,1,1-5.048,5.024A5.037,5.037,0,0,1,63.229,0" transform="translate(0.56 0)" fill="#19538d"/>
          <path id="Trazado_999653" data-name="Trazado 999653" d="M93.377,35.144V96.585H13.616A12.087,12.087,0,0,1,1.5,84.527V5.146H64.459" transform="translate(0.014 0.025)" fill="none" stroke="#19538d" stroke-miterlimit="10" stroke-width="3"/>
        </g>
      </g>
    </g>
    <g id="Grupo_1180613" data-name="Grupo 1180613" transform="translate(321.296 10109.914)">
      <g id="Grupo_1180612" data-name="Grupo 1180612" clip-path="url(#clip-path-3)">
        <path id="Trazado_1031713" data-name="Trazado 1031713" d="M82.927,285.824c-1.184.629-2.719-1.147-2.473-2.106a.886.886,0,0,1,.993-.644c.491.015.685.386.981.814.208.3.638.468.78.725a.929.929,0,0,1-.281,1.211" transform="translate(-64.192 -225.929)" fill="#19538d"/>
        <path id="Trazado_1031714" data-name="Trazado 1031714" d="M103.377,290.583l-1.775-.042c-.478-.011-.647-.523-.652-.864-.014-1.045,1.434-1.229,2.809-.889a.877.877,0,0,1,.562,1.047.9.9,0,0,1-.944.748" transform="translate(-80.572 -230.366)" fill="#19538d"/>
        <path id="Trazado_1031715" data-name="Trazado 1031715" d="M126.451,290.736l-1.587-.025a.87.87,0,0,1-.8-.728.856.856,0,0,1,.6-1.055,5.171,5.171,0,0,1,2.16.007.846.846,0,0,1,.6,1.047.936.936,0,0,1-.98.753" transform="translate(-99.002 -230.514)" fill="#19538d"/>
        <path id="Trazado_1031716" data-name="Trazado 1031716" d="M149.8,290.963l-1.585.017a.91.91,0,0,1-.944-.75c-.082-.477.144-1.1.736-1.1l1.817,0a.86.86,0,0,1,.821.943.851.851,0,0,1-.846.888" transform="translate(-117.528 -230.762)" fill="#19538d"/>
        <path id="Trazado_1031717" data-name="Trazado 1031717" d="M173.156,290.522l-1.657.081a1,1,0,0,1-1.071-.659.854.854,0,0,1,.5-1.147c1.171-.315,2.672-.19,2.818.7.058.353-.062.994-.586,1.02" transform="translate(-135.973 -230.373)" fill="#19538d"/>
        <path id="Trazado_1031718" data-name="Trazado 1031718" d="M81.632,262.61a.847.847,0,0,1-.888.8.9.9,0,0,1-.948-.886v-1.615a.875.875,0,0,1,.758-.849c.433-.081,1.058.129,1.062.675Z" transform="translate(-63.688 -207.548)" fill="#19538d"/>
        <path id="Trazado_1031719" data-name="Trazado 1031719" d="M217.288,162.257a1.578,1.578,0,0,1,1.61,1.553l.018,6.856a1.569,1.569,0,0,1-1.63,1.64l-21.764-.018A1.4,1.4,0,0,1,194.2,171l-.146-2.7c-.205-.308-.721-.571-.7-.97a1.4,1.4,0,0,1,.714-1.013l.123-2.655a1.475,1.475,0,0,1,1.39-1.38l9.985-.043.011-1.855-9.857-.024a1.585,1.585,0,0,1-1.555-1.641l.005-6.789a1.632,1.632,0,0,1,1.733-1.624l9.667.012v-1.877H195.9a1.65,1.65,0,0,1-1.734-1.635l0-6.79a1.586,1.586,0,0,1,1.53-1.649l9.915-.015-.018-2a.943.943,0,0,1,.753-.985.849.849,0,0,1,1.053.606,6.873,6.873,0,0,1,0,2.38l10.088.029a1.528,1.528,0,0,1,1.425,1.592l.016,6.683a1.648,1.648,0,0,1-1.651,1.775l-9.789.021v1.859l9.969.03a1.492,1.492,0,0,1,1.453,1.547l0,6.868a1.56,1.56,0,0,1-1.611,1.617l-2.833.007a.944.944,0,0,1-1.042-.926.966.966,0,0,1,1.035-.958l2.564-.037.012-6.241-20.952,0-.018,6.287,13.766.012a.934.934,0,0,1,1.056.946.948.948,0,0,1-1.052.922l-2.353,0,0,1.868Zm-.254-22.01H196.065v6.261h20.969Zm0,23.932H196.065v6.269h20.969Z" transform="translate(-154.317 -108.018)" fill="#19538d"/>
        <rect id="Rectángulo_466877" data-name="Rectángulo 466877" width="15.743" height="1.892" transform="translate(44.345 46.376)" fill="#19538d"/>
        <path id="Trazado_1031720" data-name="Trazado 1031720" d="M254.177,69.187a.879.879,0,0,1-1.028.615c-.939-.22-.642-1.114-1.061-1.847a1.035,1.035,0,0,1,.071-1.156,1,1,0,0,1,1.233-.116,2.544,2.544,0,0,1,.785,2.5" transform="translate(-201.086 -53.09)" fill="#19538d"/>
        <path id="Trazado_1031721" data-name="Trazado 1031721" d="M255.959,115.165a.981.981,0,0,1-1.048.469.876.876,0,0,1-.721-.759l.013-1.958c0-.476.517-.65.859-.654,1.093-.013,1.124,1.223.9,2.9" transform="translate(-202.877 -89.6)" fill="#19538d"/>
        <path id="Trazado_1031722" data-name="Trazado 1031722" d="M255.607,92.038a.823.823,0,0,1-.957.459.916.916,0,0,1-.754-.73c-.182-1.524-.113-2.631.869-2.635,1.1,0,1.252,1.725.842,2.906" transform="translate(-202.578 -71.139)" fill="#19538d"/>
        <path id="Trazado_1031723" data-name="Trazado 1031723" d="M234.729,290.8l-13.952.058a.963.963,0,0,1-1.071-.93.99.99,0,0,1,1.07-.977H234.5a.951.951,0,0,1,.95.8c.056.3-.125,1.049-.716,1.052" transform="translate(-175.353 -230.618)" fill="#19538d"/>
        <path id="Trazado_1031724" data-name="Trazado 1031724" d="M234.515,172.386l-13.736.019a.965.965,0,0,1-1.091-.856.923.923,0,0,1,.9-1.059l13.877-.009a.964.964,0,0,1,.963.883.942.942,0,0,1-.915,1.022" transform="translate(-175.335 -136.066)" fill="#19538d"/>
        <path id="Trazado_1031725" data-name="Trazado 1031725" d="M23.339,22.35A1.712,1.712,0,0,1,23.369,20l1.689-1.73a7.253,7.253,0,0,0-.568-1.35L22.2,16.9a1.785,1.785,0,0,1-1.789-2.248L6.938,14.634,1.877,19.711,1.887,47.43l18.367-.007a8.33,8.33,0,0,1,7.416-8.678l.042-4.534a.832.832,0,0,1,.863-.669c.4-.029.93.1.936.635l.056,4.55a8.357,8.357,0,1,1-8.985,10.617L18,49.313,17.936,50.5c-.026.491-.526.681-.88.682a.886.886,0,0,1-.944-.855l-.036-1.018-13.849,0A2.177,2.177,0,0,1,0,47.081L0,19.874a1.965,1.965,0,0,1,.459-1.385l5.129-5.154a1.95,1.95,0,0,1,1.479-.563l13.317,0a1.819,1.819,0,0,1,1.833-2.148l2.236-.009A5.809,5.809,0,0,0,25.045,9.3L23.487,7.669c-1.515-1.581.122-2.991,1.919-4.6a1.646,1.646,0,0,1,2.09-.208l2,1.8c.415.122,1.119-.3,1.4-.516l.008-2.281A1.706,1.706,0,0,1,32.342.137c2.58-.286,4.822-.3,4.836,1.729l.016,2.362,1.388.523,1.739-1.69a1.836,1.836,0,0,1,2.66.24c1.429,1.39,3.141,2.8,1.773,4.19L43.031,9.249l.609,1.329,2.541.07c1.607.044,1.449,1.924,1.656,2.048.372.223,1.244-.214,1.744.465a.853.853,0,0,1,.082.932c-.483.852-1.445.367-1.826.6-.186.113.011,2.19-1.8,2.194l-2.394,0-.616,1.429,1.755,1.77a1.6,1.6,0,0,1,.05,2.211l-2.212,2.215a1.726,1.726,0,0,1-2.382-.1,10.6,10.6,0,0,0-1.692-1.563c-.407-.075-.989.309-1.345.5l-.075,2.761c-.039,1.427-2.718,1.629-4.845,1.246a1.545,1.545,0,0,1-1.351-1.5l-.06-2.518a3.539,3.539,0,0,0-1.308-.512l-.008,7.114a.957.957,0,0,1-.8,1,.892.892,0,0,1-1.044-.83l-.031-5.465c-1.659.865-3-.671-4.342-2.306M35.324,25.5a14.676,14.676,0,0,1,.047-2.777c.167-.943,1.022-1.146,1.792-1.45.787-.31,1.709-.843,2.405-.192l1.984,1.855a10.609,10.609,0,0,0,1.7-1.7l-1.7-1.743c-.78-.8-.394-1.771.031-2.684.337-.722.5-1.719,1.473-1.746l2.773-.077a7.5,7.5,0,0,0-.01-2.446,10.609,10.609,0,0,1-3-.161c-1-.354-2.154-3.34-1.451-4.077l1.9-1.988L41.539,4.59,39.4,6.532c-.7.633-4.011-.635-4.053-1.859l-.093-2.682a8.546,8.546,0,0,0-2.433.019L32.76,4.74c-.024,1.123-3.366,2.444-4.115,1.774l-2.123-1.9L24.851,6.225l1.8,1.887c.783.82.22,1.672-.084,2.537-.41,1.166-.949,1.927-2.377,1.919l-1.921-.011a13.082,13.082,0,0,0,0,2.429l2.717.068c1.008.025,1.252,1.051,1.58,1.855.309.759.85,1.588.208,2.282l-1.863,2.016a6.034,6.034,0,0,0,1.727,1.716l2.1-1.941c.842-.5,1.672.108,2.421.377.817.295,1.621.644,1.639,1.6l.047,2.564a7.1,7.1,0,0,0,2.478-.031m-.264,21.54A6.455,6.455,0,1,0,28.6,53.491a6.455,6.455,0,0,0,6.455-6.455" transform="translate(0 0)" fill="#19538d"/>
        <path id="Trazado_1031726" data-name="Trazado 1031726" d="M50.092,131.558,36.7,131.516c-.459,0-.747-.716-.7-1.015a1,1,0,0,1,.884-.831l13.016-.021c.651,0,1.057.307,1.108.854a.933.933,0,0,1-.921,1.055" transform="translate(-28.732 -103.477)" fill="#19538d"/>
        <path id="Trazado_1031727" data-name="Trazado 1031727" d="M50.245,177.071l-13.188.033a.971.971,0,0,1-.981-.794c-.075-.3.078-1.051.613-1.053l13.479-.037a.929.929,0,0,1,.077,1.85" transform="translate(-28.779 -139.849)" fill="#19538d"/>
        <path id="Trazado_1031728" data-name="Trazado 1031728" d="M50.219,109.056l-13.353,0c-.528,0-.819-.59-.838-.918a.846.846,0,0,1,.808-.922l13.49.005c.481,0,.718.617.7.922-.012.287-.226.918-.813.918" transform="translate(-28.754 -85.569)" fill="#19538d"/>
        <path id="Trazado_1031729" data-name="Trazado 1031729" d="M50.228,154.16l-13.192.031a.952.952,0,0,1-1-.973.973.973,0,0,1,1.013-.935l13.1.005a.929.929,0,0,1,.875.736c.1.357-.13,1.134-.787,1.136" transform="translate(-28.757 -121.542)" fill="#19538d"/>
        <path id="Trazado_1031730" data-name="Trazado 1031730" d="M42.97,199.67l-5.93.033a.972.972,0,0,1-1-.918.923.923,0,0,1,.992-.969l5.667-.026a1.039,1.039,0,0,1,1.111.852.914.914,0,0,1-.836,1.029" transform="translate(-28.759 -157.862)" fill="#19538d"/>
        <path id="Trazado_1031731" data-name="Trazado 1031731" d="M143.884,37.262a4.775,4.775,0,1,0,1,8.526,4.782,4.782,0,0,0,1.826-5.915.951.951,0,0,1,.447-1.288c2.018-.77,3.22,5.772-1.06,8.683a6.678,6.678,0,1,1-1.212-11.64.89.89,0,0,1,.292,1.218,1.021,1.021,0,0,1-1.29.415" transform="translate(-108.249 -28)" fill="#19538d"/>
        <path id="Trazado_1031732" data-name="Trazado 1031732" d="M160.042,56.571a2.934,2.934,0,1,1-2.934-2.934,2.934,2.934,0,0,1,2.934,2.934m-1.9.01a1.036,1.036,0,1,0-1.036,1.036,1.036,1.036,0,0,0,1.036-1.036" transform="translate(-123.051 -42.809)" fill="#19538d"/>
        <path id="Trazado_1031733" data-name="Trazado 1031733" d="M120.777,222.4a.966.966,0,0,1-.134-1.32.943.943,0,0,1,1.428-.084l2.192,2.148,3.123-3.079a.943.943,0,0,1,1.428,1.228L125,225.131a.985.985,0,0,1-1.465.031Z" transform="translate(-96.128 -175.4)" fill="#19538d"/>
      </g>
    </g>
  </g>
</svg>
