<svg xmlns="http://www.w3.org/2000/svg" xmlns:xlink="http://www.w3.org/1999/xlink" width="98" height="98" viewBox="0 0 98 98">
  <defs>
    <clipPath id="clip-path">
      <rect id="Rectángulo_456312" data-name="Rectángulo 456312" width="98" height="98" transform="translate(0.059 0.059)" fill="none"/>
    </clipPath>
    <clipPath id="clip-path-3">
      <rect id="Rectángulo_466880" data-name="Rectángulo 466880" width="59.249" height="59.256" fill="#19538d"/>
    </clipPath>
  </defs>
  <g id="Grupo_1180053" data-name="Grupo 1180053" transform="translate(-307.117 -10093.059)">
    <g id="Grupo_1179968" data-name="Grupo 1179968" transform="translate(307.059 10093)">
      <g id="Grupo_1179959" data-name="Grupo 1179959" clip-path="url(#clip-path)">
        <path id="Trazado_999654" data-name="Trazado 999654" d="M1.5,5.146H81.261A12.087,12.087,0,0,1,93.377,17.2V96.585H13.616A12.087,12.087,0,0,1,1.5,84.527Z" transform="translate(0.014 0.025)" fill="#fff"/>
      </g>
      <g id="Grupo_1179960" data-name="Grupo 1179960">
        <g id="Grupo_1179956" data-name="Grupo 1179956" clip-path="url(#clip-path)">
          <path id="Trazado_999651" data-name="Trazado 999651" d="M92.229,30a5.024,5.024,0,1,1-5.048,5.024A5.037,5.037,0,0,1,92.229,30" transform="translate(0.84 0.145)" fill="#19538d"/>
          <path id="Trazado_999652" data-name="Trazado 999652" d="M63.229,0a5.024,5.024,0,1,1-5.048,5.024A5.037,5.037,0,0,1,63.229,0" transform="translate(0.56 0)" fill="#19538d"/>
          <path id="Trazado_999653" data-name="Trazado 999653" d="M93.377,35.144V96.585H13.616A12.087,12.087,0,0,1,1.5,84.527V5.146H64.459" transform="translate(0.014 0.025)" fill="none" stroke="#19538d" stroke-miterlimit="10" stroke-width="3"/>
        </g>
      </g>
    </g>
    <g id="Grupo_1180617" data-name="Grupo 1180617" transform="translate(325.492 10112.431)">
      <g id="Grupo_1180616" data-name="Grupo 1180616" clip-path="url(#clip-path-3)">
        <path id="Trazado_1031747" data-name="Trazado 1031747" d="M54.352,59.256l-49.542,0a4.843,4.843,0,0,1-4.8-4.744L0,51.172c0-1.174,1.147-.94,2.386-1.111l0-29.213a3.932,3.932,0,0,1,3.843-4.116l5.706-.056L11.949,3.1a2.976,2.976,0,0,1,2.89-3.1L37.171,0l10.1,10.108.064,6.572,5.687.049a3.96,3.96,0,0,1,3.847,4.119l-.006,29.225c1.268.133,2.389-.05,2.386,1.1L59.24,54.5a4.837,4.837,0,0,1-4.887,4.757M45.4,41.383l0-29.939-8.455-.012a.976.976,0,0,1-1.1-1.048L35.822,1.9,15.043,1.9a1.147,1.147,0,0,0-1.189,1.186V41.5a1.12,1.12,0,0,0,1.154,1.171h29.23A1.14,1.14,0,0,0,45.4,41.383M43.881,9.443,37.808,3.359l-.037,6.2ZM6.43,21.819c0-1.75,2.791-.714,5.5-1.089v-2.1H6.441a2.05,2.05,0,0,0-2.1,1.81L4.317,50.076a5.026,5.026,0,0,0,2.116-.005ZM52.817,50.08a5.064,5.064,0,0,0,2.115-.009l-.027-29.631a2.051,2.051,0,0,0-2.1-1.81H47.331a8.01,8.01,0,0,0,.047,2.145l4.421.009a.931.931,0,0,1,1.015.917ZM50.9,22.743l-3.6.044,0,18.688a3.061,3.061,0,0,1-3.1,3.138l-29.159,0a3.065,3.065,0,0,1-3.1-3.139l-.005-18.752-3.586.01V50.152l15.226.038a13.635,13.635,0,0,1,1.386,2.345l9.239.026,1.45-2.369,15.236-.032Zm6.39,29.327-20.61.008a13.936,13.936,0,0,1-1.37,2.366H23.941a14.087,14.087,0,0,1-1.371-2.365L1.93,52.072l-.01,2.378a3,3,0,0,0,2.943,2.909H54.386a2.983,2.983,0,0,0,2.939-2.909Z" transform="translate(0)" fill="#19538d"/>
        <path id="Trazado_1031748" data-name="Trazado 1031748" d="M145.8,119.834l-11.2-.016a.948.948,0,0,1-.921-1.03.975.975,0,0,1,1.066-.908l10.979.03a1.01,1.01,0,0,1,.894.87,1.027,1.027,0,0,1-.823,1.053" transform="translate(-105.732 -93.237)" fill="#19538d"/>
        <path id="Trazado_1031749" data-name="Trazado 1031749" d="M145.677,85.645,134.7,85.66a.948.948,0,0,1-1.055-.98c0-.558.394-.92,1.073-.92h10.841a.942.942,0,0,1,1.006.761.909.909,0,0,1-.889,1.124" transform="translate(-105.705 -66.249)" fill="#19538d"/>
        <path id="Trazado_1031750" data-name="Trazado 1031750" d="M145.967,154.235l-11.227,0c-.677,0-1.066-.359-1.071-.907a.955.955,0,0,1,1.05-1l10.875,0a.96.96,0,0,1,.981.639,1.117,1.117,0,0,1-.608,1.255" transform="translate(-105.724 -120.489)" fill="#19538d"/>
        <path id="Trazado_1031751" data-name="Trazado 1031751" d="M89.8,80.929,88.157,79.32a1,1,0,0,1-.194-1.257.918.918,0,0,1,1.338-.287l1.091,1.051,2.7-2.654c.384-.378.9-.085,1.128.141a.946.946,0,0,1,.061,1.279l-3.225,3.253a.947.947,0,0,1-1.252.084" transform="translate(-69.461 -60.104)" fill="#19538d"/>
        <path id="Trazado_1031752" data-name="Trazado 1031752" d="M89.378,115.058l-1.534-1.593a.832.832,0,0,1,.227-1.2.944.944,0,0,1,1.315.08l.887.882,2.579-2.562a.973.973,0,0,1,1.216.02c.236.192.509.863.183,1.2l-3.065,3.166a1.28,1.28,0,0,1-.9.462,1.208,1.208,0,0,1-.906-.452" transform="translate(-69.338 -87.365)" fill="#19538d"/>
        <path id="Trazado_1031753" data-name="Trazado 1031753" d="M89.72,149.527l-1.638-1.612a.963.963,0,0,1-.108-1.271,1,1,0,0,1,1.444-.076l.919.856,2.515-2.474a.972.972,0,0,1,1.286-.058.935.935,0,0,1,.147,1.288l-3.327,3.362a.912.912,0,0,1-1.237-.016" transform="translate(-69.431 -114.431)" fill="#19538d"/>
      </g>
    </g>
  </g>
</svg>
