<svg xmlns="http://www.w3.org/2000/svg" xmlns:xlink="http://www.w3.org/1999/xlink" width="128" height="128" viewBox="0 0 128 128">
  <defs>
    <clipPath id="clip-path">
      <rect id="Rectángulo_456267" data-name="Rectángulo 456267" width="128" height="128" fill="none"/>
    </clipPath>
    <clipPath id="clip-path-2">
      <rect id="Rectángulo_467122" data-name="Rectángulo 467122" width="65.568" height="65.611" fill="#19538d"/>
    </clipPath>
  </defs>
  <g id="Grupo_1180275" data-name="Grupo 1180275" transform="translate(511.746 8527) rotate(180)">
    <path id="Trazado_999622" data-name="Trazado 999622" d="M59.07,0A59.07,59.07,0,1,1,0,59.07,59.071,59.071,0,0,1,59.07,0" transform="translate(388.676 8403.93)" fill="#fff"/>
    <g id="Grupo_1179902" data-name="Grupo 1179902" transform="translate(383.746 8399)">
      <g id="Grupo_1179905" data-name="Grupo 1179905" clip-path="url(#clip-path)">
        <path id="Trazado_999618" data-name="Trazado 999618" d="M64,0A64,64,0,1,1,0,64,64,64,0,0,1,64,0" fill="none"/>
        <path id="Trazado_999619" data-name="Trazado 999619" d="M5,59a5,5,0,1,1-5,5,5,5,0,0,1,5-5" fill="#19538d"/>
        <path id="Trazado_999620" data-name="Trazado 999620" d="M21,19a5,5,0,1,1-5,5,5,5,0,0,1,5-5" fill="#19538d"/>
        <path id="Trazado_999621" data-name="Trazado 999621" d="M64,124A60.068,60.068,0,0,1,4,64H7A57,57,0,1,0,22.408,25.024L20.22,22.972A60,60,0,1,1,64,124" fill="#19538d"/>
        <rect id="Rectángulo_456268" data-name="Rectángulo 456268" width="128" height="128" fill="none"/>
        <rect id="Rectángulo_456269" data-name="Rectángulo 456269" width="128" height="128" fill="none"/>
      </g>
    </g>
    <g id="Grupo_1180965" data-name="Grupo 1180965" transform="translate(480.53 8495.806) rotate(180)">
      <g id="Grupo_1180964" data-name="Grupo 1180964" clip-path="url(#clip-path-2)">
        <path id="Trazado_1033084" data-name="Trazado 1033084" d="M64.292,44.988,61.5,44.323a1.716,1.716,0,0,1-.549-1.4l1.411-2.277a1.726,1.726,0,0,0-.173-2.228L59.042,35.3a1.581,1.581,0,0,0-1.991-.192l-2.512,1.534a2.344,2.344,0,0,1-1.285-.561l-.621-2.623a1.783,1.783,0,0,0-1.8-1.509l-2.6-.04,0-23.2a1.03,1.03,0,0,0-.754-1.068L24.1,0,24.1,0,.019,7.9,0,7.906v27.2a15.2,15.2,0,0,0,3.1,7.631c5.258,6.8,13.24,11.536,20.965,15.8l.013.007.013-.007a106.236,106.236,0,0,0,9.593-5.689,6.892,6.892,0,0,1,2.383.412c.033.058.073.124.116.195.233.383.552.908.369,1.2l-1.408,2.286a1.653,1.653,0,0,0,.116,2.134l3.121,3.152a1.68,1.68,0,0,0,2.084.244l2.414-1.486a1.7,1.7,0,0,1,1.4.548l.664,2.79a1.579,1.579,0,0,0,1.583,1.28h0L51,65.6c1.358,0,1.577-1.18,1.809-2.427a6.574,6.574,0,0,1,.448-1.638,1.6,1.6,0,0,1,.875-.554.671.671,0,0,1,.5,0l2.134,1.358a1.815,1.815,0,0,0,2.436-.187L62.07,59.3a1.8,1.8,0,0,0,.3-2.346l-1.426-2.284a.922.922,0,0,1,.071-.747,1.159,1.159,0,0,1,.586-.691l2.518-.561a1.672,1.672,0,0,0,1.44-1.625l.006-4.469a1.577,1.577,0,0,0-1.277-1.586m-5.085,9.863a5,5,0,0,0,1.032,1.938,8.091,8.091,0,0,1,.754,1.144l-3.056,3.11-2.289-1.487a2.085,2.085,0,0,0-2.4.042,3.549,3.549,0,0,1-.449.185c-.471.17-1,.363-1.135.952l-.7,3.161-4.4-.019a8.746,8.746,0,0,1-.258-1.289,4.79,4.79,0,0,0-.7-2.191,3.987,3.987,0,0,0-2.732-1.163,4.668,4.668,0,0,0-2.146,1.061,9.091,9.091,0,0,1-1.093.722l-3.1-3.041,1.484-2.3a2.16,2.16,0,0,0-.047-2.384,4.212,4.212,0,0,1-.184-.456c-.173-.478-.352-.972-.886-1.1l-3.26-.792.045-4.35a8.682,8.682,0,0,1,1.289-.258,4.709,4.709,0,0,0,2.2-.714,3.922,3.922,0,0,0,1.138-2.865A4.8,4.8,0,0,0,37.3,40.83a6.681,6.681,0,0,1-.758-1.182l3.109-3.084c.331.209.644.426.948.637a11.259,11.259,0,0,0,1.9,1.144,3.569,3.569,0,0,0,2.2-.476A2.151,2.151,0,0,0,45.939,36.6l.608-2.876,4.427,0,.729,3.218c.122.535.622.713,1.106.885a4.317,4.317,0,0,1,.452.179,2.045,2.045,0,0,0,2.236.13l2.435-1.562,3.059,3.063-1.774,2.881c-.288.468-.039.98.18,1.431a3.891,3.891,0,0,1,.211.486,2.018,2.018,0,0,0,1.54,1.6l2.733.631L63.834,51a8.791,8.791,0,0,1-1.275.251,5.117,5.117,0,0,0-2.111.633,3.778,3.778,0,0,0-1.241,2.966M31.382,48.159l-.662.423C28.5,50,26.409,51.335,24.079,52.618c-6.124-3.626-13.066-7.737-17.152-13.492A9.56,9.56,0,0,1,5.2,34.761L5.185,11.686l18.928-6.2,18.893,6.177L43,34.109a4.888,4.888,0,0,1-.438,2.385l-2.086-1.379a1.574,1.574,0,0,0-1.977.172l-3.243,3.245a1.581,1.581,0,0,0-.17,1.992l1.489,2.38c.005,1.451-1.074,1.643-2.216,1.846-1.209.215-2.46.437-2.43,2.216a1.078,1.078,0,0,1-.543,1.191m13.358-14.5-.1-23.2v-.02L24.16,3.708l-.008,0L3.568,10.438l-.019.006L3.6,35.205c0,2,1.113,3.628,2.185,5.2.18.264.365.537.54.8l0,0c4.731,5.606,11.325,9.7,17.746,13.295l.013.007.013-.007c2.914-1.545,5.461-3.158,7.779-4.673a11.424,11.424,0,0,0,.213,2.064c-2.8,1.786-5.35,3.292-8.007,4.739A89.045,89.045,0,0,1,9.5,47.006a27.646,27.646,0,0,1-6.28-7.214l-.052-.107a10.658,10.658,0,0,1-1.429-4.7L1.7,9.107l22.42-7.325L46.508,9.109v22.8c-1.018.2-1.357.8-1.769,1.753" fill="#19538d"/>
        <path id="Trazado_1033085" data-name="Trazado 1033085" d="M87.828,75.607a2.355,2.355,0,0,0-2.1-2.3l-.083-3.136a6.669,6.669,0,0,0-13.328.08L72.233,73.3a2.324,2.324,0,0,0-2.1,2.346l.011,9.395a2.259,2.259,0,0,0,.671,1.612,2.287,2.287,0,0,0,1.624.666h0L85.6,87.3a2.222,2.222,0,0,0,2.216-2.216Zm-1.714-.022L86.1,85.543l-13.648.1h0a.551.551,0,0,1-.4-.164.819.819,0,0,1-.223-.566l.018-9.32a.668.668,0,0,1,.628-.639H85.467a.654.654,0,0,1,.453.2.626.626,0,0,1,.194.43M78.969,65.478a4.936,4.936,0,0,1,4.937,4.432l.025,3.39-9.862-.007,0-3.383c0-2.593,2.48-4.385,4.8-4.431h.1" transform="translate(-54.883 -49.913)" fill="#19538d"/>
        <path id="Trazado_1033086" data-name="Trazado 1033086" d="M197.123,184.4a9.227,9.227,0,0,0-12.983,1.126,9.273,9.273,0,0,0-2.083,6.83,9.178,9.178,0,0,0,9.1,8.228q.379,0,.762-.032a9.187,9.187,0,0,0,5.2-16.152m-4.557,14.364a7.289,7.289,0,0,1-1.407.137,7.488,7.488,0,0,1,.079-14.975,7.3,7.3,0,0,1,4.109,1.262,7.6,7.6,0,0,1,3.183,4.847,7.517,7.517,0,0,1-5.964,8.73" transform="translate(-142.428 -142.611)" fill="#19538d"/>
        <path id="Trazado_1033087" data-name="Trazado 1033087" d="M103.589,124.137a2.45,2.45,0,0,0-1.949-.543,2.477,2.477,0,0,0-1.7,1.137,2.369,2.369,0,0,0-.247,1.969,2.514,2.514,0,0,0,1.4,1.555,4.314,4.314,0,0,1,.077,1.05c0,.128,0,.261,0,.4a.909.909,0,0,0,.28.658.929.929,0,0,0,.633.245h.037c.676-.027.692-.492.71-1.03a1.968,1.968,0,0,1,.751-1.752,2.119,2.119,0,0,0,.888-1.685,2.53,2.53,0,0,0-.883-2m-2.249,1.538a.768.768,0,0,1,1.423.142.75.75,0,0,1-.472.859.732.732,0,0,1-.983-.47.637.637,0,0,1,.033-.531" transform="translate(-77.926 -96.693)" fill="#19538d"/>
        <path id="Trazado_1033088" data-name="Trazado 1033088" d="M221.156,195.2h0a.891.891,0,0,0-.555.22.782.782,0,0,0-.287.595l-.018,6.963a.916.916,0,0,0,.274.669.8.8,0,0,0,.535.234h.02a.884.884,0,0,0,.855-.817l.014-7.047a.875.875,0,0,0-.837-.815" transform="translate(-172.386 -152.748)" fill="#19538d"/>
        <path id="Trazado_1033089" data-name="Trazado 1033089" d="M221.31,245.539a.863.863,0,0,0-.669.182.837.837,0,0,0-.312.658.829.829,0,0,0,.859.884.843.843,0,0,0,.551-.2.989.989,0,0,0,.106-1.232.8.8,0,0,0-.535-.293" transform="translate(-172.414 -192.134)" fill="#19538d"/>
      </g>
    </g>
  </g>
</svg>
