<svg xmlns="http://www.w3.org/2000/svg" xmlns:xlink="http://www.w3.org/1999/xlink" width="396" height="311.675" viewBox="0 0 396 311.675">
  <defs>
    <clipPath id="clip-path">
      <rect id="Rectángulo_466999" data-name="Rectángulo 466999" width="312" height="311.675" fill="none"/>
    </clipPath>
    <clipPath id="clip-path-2">
      <path id="Trazado_1031937" data-name="Trazado 1031937" d="M284.264,0a85.768,85.768,0,0,0-14.418,1.409c-49.218,8.568-50.259,61.568-50.259,61.568-1.217,22.393,13.928,48.541,73.36,45.64s55.567-76.491,34.632-79.553C309.05,26.355,316.655.067,284.524,0Z" transform="translate(-219.52)" fill="#68eae0"/>
    </clipPath>
    <clipPath id="clip-path-3">
      <path id="Trazado_1031938" data-name="Trazado 1031938" d="M26.725,86.928c-45.368,17.375-22.9,70.349-5.842,77.583s1.03,55.2,77.746,64.219-2.948-121.208-2.948-121.208S80.059,82.378,49.792,82.377a64.23,64.23,0,0,0-23.066,4.551" transform="translate(0 -82.377)" fill="#68eae0"/>
    </clipPath>
    <clipPath id="clip-path-4">
      <path id="Trazado_1031939" data-name="Trazado 1031939" d="M292.505,178.234c-92.16,3.223-113.819,95.094-113.91,118.417,0,0-2.347,48.437,40.477,48.555h.325a64.706,64.706,0,0,0,7.045-.421c45.8-5.17,38.544-44,70.63-55.533,39.416-14.167,86.086-111.092-.286-111.093q-2.088,0-4.281.076" transform="translate(-178.572 -178.158)" fill="#68eae0"/>
    </clipPath>
    <clipPath id="clip-path-6">
      <rect id="Rectángulo_466993" data-name="Rectángulo 466993" width="14.245" height="26.445" fill="none"/>
    </clipPath>
    <clipPath id="clip-path-7">
      <rect id="Rectángulo_466994" data-name="Rectángulo 466994" width="8.078" height="4.656" fill="none"/>
    </clipPath>
    <clipPath id="clip-path-8">
      <rect id="Rectángulo_466995" data-name="Rectángulo 466995" width="38.04" height="28.561" fill="none"/>
    </clipPath>
    <clipPath id="clip-path-9">
      <rect id="Rectángulo_466996" data-name="Rectángulo 466996" width="8.155" height="18.456" fill="none"/>
    </clipPath>
    <clipPath id="clip-path-10">
      <rect id="Rectángulo_466997" data-name="Rectángulo 466997" width="18.336" height="23.588" fill="none"/>
    </clipPath>
  </defs>
  <g id="Grupo_1180844" data-name="Grupo 1180844" transform="translate(-186 -6548)">
    <g id="Grupo_1180843" data-name="Grupo 1180843">
      <rect id="Rectángulo_466428" data-name="Rectángulo 466428" width="396" height="311" transform="translate(186 6548)" fill="none"/>
      <g id="Grupo_1180842" data-name="Grupo 1180842" transform="translate(228 6548)">
        <g id="Grupo_1180841" data-name="Grupo 1180841" clip-path="url(#clip-path)">
          <g id="Grupo_1180819" data-name="Grupo 1180819" transform="translate(178.206)">
            <g id="Grupo_1180818" data-name="Grupo 1180818" clip-path="url(#clip-path-2)">
              <rect id="Rectángulo_466982" data-name="Rectángulo 466982" width="134.009" height="111.519" transform="translate(-1.15 0)" fill="#68eae0"/>
            </g>
          </g>
          <g id="Grupo_1180821" data-name="Grupo 1180821" transform="translate(0 66.873)">
            <g id="Grupo_1180820" data-name="Grupo 1180820" clip-path="url(#clip-path-3)">
              <rect id="Rectángulo_466983" data-name="Rectángulo 466983" width="193.987" height="155.376" transform="translate(-18.643 -0.001)" fill="#68eae0"/>
            </g>
          </g>
          <g id="Grupo_1180823" data-name="Grupo 1180823" transform="translate(144.964 144.628)">
            <g id="Grupo_1180822" data-name="Grupo 1180822" clip-path="url(#clip-path-4)">
              <rect id="Rectángulo_466984" data-name="Rectángulo 466984" width="206.91" height="167.047" transform="translate(-2.324 0)" fill="#68eae0"/>
            </g>
          </g>
          <g id="Grupo_1180840" data-name="Grupo 1180840">
            <g id="Grupo_1180839" data-name="Grupo 1180839" clip-path="url(#clip-path)">
              <path id="Trazado_1031940" data-name="Trazado 1031940" d="M248.517,298.8,78.759,309.437c-7.259.455-17.816-5.694-11.887-18.892l38.317-75.409,161.091-10.1a7.027,7.027,0,0,1,7.369,8.189l-12.6,74.334A13.586,13.586,0,0,1,248.517,298.8" transform="translate(-12.258 -38.587)" fill="#1a3247"/>
              <path id="Trazado_1031941" data-name="Trazado 1031941" d="M274.852,176.748,110.62,187.042l-7-111.756a10,10,0,0,1,9.351-10.6l151.8-9.513c5.51-.346,10.245,3.669,10.751,11.731L281.9,168.76a7.531,7.531,0,0,1-7.046,7.988" transform="translate(-19.497 -10.38)" fill="#1a3247"/>
              <path id="Trazado_1031942" data-name="Trazado 1031942" d="M274.559,176.752l-171.75,10.764L95.74,74.726a8.959,8.959,0,0,1,8.382-9.5l153.866-9.644a8.959,8.959,0,0,1,9.5,8.381Z" transform="translate(-18.015 -10.457)" fill="#22425e"/>
              <rect id="Rectángulo_466985" data-name="Rectángulo 466985" width="154.425" height="100.381" transform="translate(86.075 67.174) rotate(-3.586)" fill="#c6e9e9"/>
              <path id="Trazado_1031943" data-name="Trazado 1031943" d="M186.921,69.272a1.585,1.585,0,1,1-1.681-1.483,1.586,1.586,0,0,1,1.681,1.483" transform="translate(-34.583 -12.758)" fill="#fff"/>
              <path id="Trazado_1031944" data-name="Trazado 1031944" d="M211.535,68.468l-17.853,1.119a1.05,1.05,0,1,1-.132-2.1L211.4,66.371a1.051,1.051,0,0,1,.132,2.1" transform="translate(-36.242 -12.491)" fill="#fff"/>
              <rect id="Rectángulo_466986" data-name="Rectángulo 466986" width="90.119" height="13.359" transform="translate(99.458 85.239) rotate(-3.586)" fill="#a0dbdb"/>
              <rect id="Rectángulo_466987" data-name="Rectángulo 466987" width="90.119" height="18.731" transform="translate(100.705 105.127) rotate(-3.586)" fill="#a0dbdb"/>
              <rect id="Rectángulo_466988" data-name="Rectángulo 466988" width="36.681" height="18.731" transform="translate(102.518 134.055) rotate(-3.587)" fill="#a0dbdb"/>
              <rect id="Rectángulo_466989" data-name="Rectángulo 466989" width="47.547" height="18.731" transform="matrix(0.998, -0.063, 0.063, 0.998, 145.006, 131.392)" fill="#a0dbdb"/>
              <rect id="Rectángulo_466990" data-name="Rectángulo 466990" width="23.624" height="23.624" transform="matrix(0.998, -0.063, 0.063, 0.998, 201.152, 78.865)" fill="#a0dbdb"/>
              <rect id="Rectángulo_466991" data-name="Rectángulo 466991" width="23.624" height="37.752" transform="matrix(0.998, -0.063, 0.063, 0.998, 203.022, 108.697)" fill="#a0dbdb"/>
              <path id="Trazado_1031945" data-name="Trazado 1031945" d="M243.667,290.007,73.909,300.646a7.066,7.066,0,0,1-6.8-10.135l30.181-74.9,171.749-10.764L256.2,278.772a13.586,13.586,0,0,1-12.536,11.235" transform="translate(-12.495 -38.553)" fill="#22425e"/>
              <path id="Trazado_1031946" data-name="Trazado 1031946" d="M248.552,268.4,91.265,278.257l20.169-54.679,148.248-9.291Z" transform="translate(-17.176 -40.33)" fill="#4e687e"/>
              <rect id="Rectángulo_466992" data-name="Rectángulo 466992" width="35.323" height="1.811" transform="translate(135.395 260.402) rotate(-3.587)" fill="none" stroke="#333" stroke-linecap="round" stroke-linejoin="round" stroke-width="0.5"/>
              <path id="Trazado_1031947" data-name="Trazado 1031947" d="M129.063,238.328l-10.944.686c-1.865.117-1.365-1.765-1.164-2.177l2.615-5.446,10.886-1.59.25,3.98-.58,3.594a1.151,1.151,0,0,1-1.063.952" transform="translate(-21.971 -43.25)" fill="#a0dbdb"/>
              <path id="Trazado_1031948" data-name="Trazado 1031948" d="M145.282,237.351l-8.232.516c-1.864.116-1.364-1.766-1.163-2.178l.807-5.332,9.982-1.533.249,3.98-.58,3.594a1.151,1.151,0,0,1-1.063.952" transform="translate(-25.534 -43.066)" fill="#a0dbdb"/>
              <path id="Trazado_1031949" data-name="Trazado 1031949" d="M160.872,236.374l-8.232.516c-1.864.117-1.364-1.765-1.163-2.178l.807-5.332,9.982-1.533.25,3.98-.58,3.594a1.151,1.151,0,0,1-1.063.952" transform="translate(-28.468 -42.882)" fill="#a0dbdb"/>
              <path id="Trazado_1031950" data-name="Trazado 1031950" d="M176.462,235.4l-8.232.516c-1.864.116-1.364-1.766-1.164-2.178l.808-5.332,9.982-1.533.249,3.98-.58,3.594a1.151,1.151,0,0,1-1.063.952" transform="translate(-31.402 -42.698)" fill="#a0dbdb"/>
              <path id="Trazado_1031951" data-name="Trazado 1031951" d="M192.052,234.42l-8.232.516c-1.864.117-1.364-1.765-1.163-2.177l.807-5.332,9.982-1.533.25,3.979-.58,3.595a1.151,1.151,0,0,1-1.063.952" transform="translate(-34.336 -42.514)" fill="#a0dbdb"/>
              <path id="Trazado_1031952" data-name="Trazado 1031952" d="M207.643,233.442l-8.232.515c-1.864.117-1.364-1.765-1.164-2.177l.808-5.332,9.982-1.533.249,3.979-.58,3.595a1.151,1.151,0,0,1-1.063.952" transform="translate(-37.271 -42.33)" fill="#a0dbdb"/>
              <path id="Trazado_1031953" data-name="Trazado 1031953" d="M223.233,232.465l-8.232.516c-1.864.116-1.364-1.765-1.163-2.178l.807-5.332,9.982-1.533.249,3.98-.58,3.594a1.151,1.151,0,0,1-1.063.952" transform="translate(-40.205 -42.146)" fill="#a0dbdb"/>
              <path id="Trazado_1031954" data-name="Trazado 1031954" d="M238.823,231.488l-8.232.516c-1.864.116-1.364-1.766-1.164-2.178l.808-5.332,9.982-1.533.25,3.98-.58,3.594a1.151,1.151,0,0,1-1.063.952" transform="translate(-43.139 -41.962)" fill="#a0dbdb"/>
              <path id="Trazado_1031955" data-name="Trazado 1031955" d="M254.413,230.511l-8.232.516c-1.864.117-1.364-1.766-1.163-2.178l.807-5.332,9.982-1.533.249,3.98-.58,3.594a1.151,1.151,0,0,1-1.063.952" transform="translate(-46.073 -41.778)" fill="#a0dbdb"/>
              <path id="Trazado_1031956" data-name="Trazado 1031956" d="M281.755,228.627l-19.984,1.253c-1.865.117-1.365-1.765-1.164-2.178l.807-5.331,21.734-2.27.249,3.98-.58,3.594a1.151,1.151,0,0,1-1.063.952" transform="translate(-49.007 -41.424)" fill="#a0dbdb"/>
              <path id="Trazado_1031957" data-name="Trazado 1031957" d="M131.284,267.072l-23.6,1.479c-1.865.117-1.365-1.765-1.164-2.177l2.615-5.446,23.542-2.383.25,3.98-.58,3.594a1.151,1.151,0,0,1-1.063.952" transform="translate(-20.007 -48.659)" fill="#a0dbdb"/>
              <path id="Trazado_1031958" data-name="Trazado 1031958" d="M150.437,266.1l-8.232.516c-1.864.116-1.364-1.765-1.163-2.178l.807-5.332,9.982-1.533.249,3.98-.58,3.594a1.151,1.151,0,0,1-1.063.952" transform="translate(-26.504 -48.476)" fill="#a0dbdb"/>
              <path id="Trazado_1031959" data-name="Trazado 1031959" d="M166.028,265.118l-8.232.516c-1.864.116-1.364-1.765-1.164-2.178l.808-5.332,9.982-1.533.249,3.98-.58,3.594a1.151,1.151,0,0,1-1.063.952" transform="translate(-29.438 -48.292)" fill="#a0dbdb"/>
              <path id="Trazado_1031960" data-name="Trazado 1031960" d="M181.618,264.14l-8.232.516c-1.864.117-1.364-1.766-1.163-2.178l.807-5.332,9.982-1.533.249,3.98-.58,3.594a1.151,1.151,0,0,1-1.063.952" transform="translate(-32.373 -48.108)" fill="#a0dbdb"/>
              <path id="Trazado_1031961" data-name="Trazado 1031961" d="M197.208,263.163l-8.232.515c-1.864.118-1.364-1.765-1.164-2.177l.808-5.332,9.982-1.533.249,3.98-.58,3.594a1.151,1.151,0,0,1-1.063.952" transform="translate(-35.307 -47.924)" fill="#a0dbdb"/>
              <path id="Trazado_1031962" data-name="Trazado 1031962" d="M212.8,262.186l-8.232.515c-1.864.117-1.364-1.765-1.163-2.177l.807-5.332,9.982-1.533.249,3.98-.58,3.594a1.151,1.151,0,0,1-1.063.952" transform="translate(-38.241 -47.74)" fill="#a0dbdb"/>
              <path id="Trazado_1031963" data-name="Trazado 1031963" d="M228.388,261.209l-8.232.516c-1.864.117-1.364-1.765-1.163-2.178l.807-5.332,9.982-1.533.249,3.98-.58,3.594a1.151,1.151,0,0,1-1.063.952" transform="translate(-41.175 -47.556)" fill="#a0dbdb"/>
              <path id="Trazado_1031964" data-name="Trazado 1031964" d="M243.978,260.232l-8.232.516c-1.864.116-1.364-1.765-1.163-2.178l.807-5.332,9.982-1.533.25,3.98-.58,3.594a1.151,1.151,0,0,1-1.063.952" transform="translate(-44.109 -47.372)" fill="#a0dbdb"/>
              <path id="Trazado_1031965" data-name="Trazado 1031965" d="M271.32,258.348,251.336,259.6c-1.865.117-1.365-1.765-1.164-2.178l.807-5.331,21.734-2.27.25,3.98-.58,3.594a1.151,1.151,0,0,1-1.063.952" transform="translate(-47.043 -47.017)" fill="#a0dbdb"/>
              <path id="Trazado_1031966" data-name="Trazado 1031966" d="M124.4,253.154l-10.944.686c-1.865.117-1.365-1.765-1.164-2.177l2.615-5.446,10.886-1.589.25,3.98-.58,3.594a1.151,1.151,0,0,1-1.063.952" transform="translate(-21.094 -46.04)" fill="#a0dbdb"/>
              <path id="Trazado_1031967" data-name="Trazado 1031967" d="M140.621,252.176l-8.232.516c-1.864.116-1.364-1.766-1.163-2.178l.807-5.332,9.982-1.533.249,3.98-.58,3.594a1.151,1.151,0,0,1-1.063.952" transform="translate(-24.657 -45.856)" fill="#a0dbdb"/>
              <path id="Trazado_1031968" data-name="Trazado 1031968" d="M156.211,251.2l-8.232.515c-1.864.117-1.364-1.765-1.163-2.177l.807-5.332,9.982-1.533.249,3.979-.58,3.595a1.151,1.151,0,0,1-1.063.952" transform="translate(-27.591 -45.672)" fill="#a0dbdb"/>
              <path id="Trazado_1031969" data-name="Trazado 1031969" d="M171.8,250.222l-8.232.516c-1.864.117-1.364-1.765-1.164-2.177l.808-5.332L173.2,241.7l.249,3.979-.58,3.595a1.151,1.151,0,0,1-1.063.952" transform="translate(-30.525 -45.488)" fill="#a0dbdb"/>
              <path id="Trazado_1031970" data-name="Trazado 1031970" d="M187.392,249.245l-8.232.516c-1.864.116-1.364-1.765-1.163-2.178l.807-5.332,9.982-1.533.249,3.98-.58,3.594a1.151,1.151,0,0,1-1.063.952" transform="translate(-33.459 -45.304)" fill="#a0dbdb"/>
              <path id="Trazado_1031971" data-name="Trazado 1031971" d="M202.982,248.268l-8.232.516c-1.864.116-1.364-1.766-1.164-2.178l.808-5.332,9.982-1.533.249,3.98-.58,3.594a1.151,1.151,0,0,1-1.063.952" transform="translate(-36.393 -45.12)" fill="#a0dbdb"/>
              <path id="Trazado_1031972" data-name="Trazado 1031972" d="M218.572,247.291l-8.232.516c-1.864.117-1.364-1.766-1.163-2.178l.807-5.332,9.982-1.533.249,3.98-.58,3.594a1.151,1.151,0,0,1-1.063.952" transform="translate(-39.328 -44.937)" fill="#a0dbdb"/>
              <path id="Trazado_1031973" data-name="Trazado 1031973" d="M234.162,246.314l-8.232.515c-1.864.117-1.364-1.765-1.164-2.177l.808-5.332,9.982-1.533.25,3.98-.58,3.594a1.151,1.151,0,0,1-1.063.952" transform="translate(-42.262 -44.753)" fill="#a0dbdb"/>
              <path id="Trazado_1031974" data-name="Trazado 1031974" d="M249.752,245.337l-8.232.516c-1.864.117-1.364-1.765-1.163-2.177l.807-5.332,9.982-1.533.249,3.98-.58,3.594a1.151,1.151,0,0,1-1.063.952" transform="translate(-45.196 -44.569)" fill="#a0dbdb"/>
              <path id="Trazado_1031975" data-name="Trazado 1031975" d="M265.343,244.359l-8.232.516c-1.864.116-1.364-1.765-1.163-2.178l.807-5.332,9.982-1.533.249,3.98-.58,3.594a1.151,1.151,0,0,1-1.063.952" transform="translate(-48.13 -44.385)" fill="#a0dbdb"/>
              <path id="Trazado_1031976" data-name="Trazado 1031976" d="M280.933,243.382l-8.232.516c-1.864.116-1.364-1.765-1.163-2.178l.807-5.332,9.982-1.533.249,3.98L282,242.43a1.151,1.151,0,0,1-1.063.952" transform="translate(-51.064 -44.201)" fill="#a0dbdb"/>
              <path id="Trazado_1031977" data-name="Trazado 1031977" d="M112.854,282.944l-10.944.686c-1.865.117-1.365-1.765-1.164-2.177l2.615-5.446,10.886-1.59.249,3.98-.58,3.594a1.151,1.151,0,0,1-1.063.952" transform="translate(-18.921 -51.647)" fill="#a0dbdb"/>
              <path id="Trazado_1031978" data-name="Trazado 1031978" d="M129.073,281.967l-8.232.516c-1.864.116-1.364-1.766-1.164-2.178l.808-5.332,9.982-1.533.249,3.98-.58,3.594a1.151,1.151,0,0,1-1.063.952" transform="translate(-22.483 -51.463)" fill="#a0dbdb"/>
              <path id="Trazado_1031979" data-name="Trazado 1031979" d="M144.663,280.99l-8.232.515c-1.864.117-1.364-1.765-1.163-2.177l.807-5.332,9.982-1.533.25,3.98-.58,3.594a1.151,1.151,0,0,1-1.063.952" transform="translate(-25.418 -51.279)" fill="#a0dbdb"/>
              <path id="Trazado_1031980" data-name="Trazado 1031980" d="M160.253,280.013l-8.232.516c-1.864.117-1.364-1.765-1.164-2.177l.808-5.332,9.982-1.533.249,3.979-.58,3.595a1.151,1.151,0,0,1-1.063.952" transform="translate(-28.352 -51.095)" fill="#a0dbdb"/>
              <path id="Trazado_1031981" data-name="Trazado 1031981" d="M175.844,279.036l-8.233.516c-1.864.116-1.364-1.765-1.163-2.178l.808-5.332,9.981-1.533.249,3.98-.58,3.594a1.15,1.15,0,0,1-1.062.952" transform="translate(-31.286 -50.911)" fill="#a0dbdb"/>
              <path id="Trazado_1031982" data-name="Trazado 1031982" d="M191.434,278.059l-8.232.516c-1.864.116-1.364-1.765-1.163-2.178l.807-5.332,9.982-1.533.249,3.98-.58,3.594a1.151,1.151,0,0,1-1.063.952" transform="translate(-34.22 -50.727)" fill="#a0dbdb"/>
              <path id="Trazado_1031983" data-name="Trazado 1031983" d="M207.024,277.082l-8.232.516c-1.864.117-1.364-1.766-1.163-2.178l.807-5.332,9.982-1.533.249,3.98-.58,3.594a1.151,1.151,0,0,1-1.063.952" transform="translate(-37.154 -50.543)" fill="#a0dbdb"/>
              <path id="Trazado_1031984" data-name="Trazado 1031984" d="M222.614,276.1l-8.232.516c-1.864.118-1.364-1.765-1.163-2.177l.807-5.332,9.982-1.533.25,3.98-.58,3.594a1.151,1.151,0,0,1-1.063.952" transform="translate(-40.088 -50.359)" fill="#a0dbdb"/>
              <path id="Trazado_1031985" data-name="Trazado 1031985" d="M238.2,275.127l-8.232.516c-1.864.117-1.364-1.765-1.164-2.177l.808-5.332L239.6,266.6l.249,3.98-.58,3.594a1.151,1.151,0,0,1-1.063.952" transform="translate(-43.022 -50.175)" fill="#a0dbdb"/>
              <path id="Trazado_1031986" data-name="Trazado 1031986" d="M253.794,274.15l-8.232.516c-1.864.117-1.364-1.765-1.163-2.178l.807-5.332,9.982-1.533.249,3.98-.58,3.594a1.151,1.151,0,0,1-1.063.952" transform="translate(-45.956 -49.991)" fill="#a0dbdb"/>
              <path id="Trazado_1031987" data-name="Trazado 1031987" d="M269.384,273.173l-8.232.516c-1.864.116-1.364-1.765-1.163-2.178l.807-5.332,9.982-1.533.249,3.98-.58,3.594a1.151,1.151,0,0,1-1.063.952" transform="translate(-48.891 -49.808)" fill="#a0dbdb"/>
              <path id="Trazado_1031988" data-name="Trazado 1031988" d="M128.341,237.021l-10.774.675a.6.6,0,0,1-.576-.86l2.558-6.349,10.943-.685-1.088,6.266a1.151,1.151,0,0,1-1.063.952" transform="translate(-22.007 -43.25)" fill="#e8f6f6"/>
              <path id="Trazado_1031989" data-name="Trazado 1031989" d="M144.56,236.043l-8.062.5a.6.6,0,0,1-.576-.859l.75-6.235,10.039-.629-1.088,6.266a1.151,1.151,0,0,1-1.063.952" transform="translate(-25.57 -43.066)" fill="#e8f6f6"/>
              <path id="Trazado_1031990" data-name="Trazado 1031990" d="M160.15,235.066l-8.062.5a.6.6,0,0,1-.576-.859l.75-6.235,10.039-.629-1.088,6.266a1.151,1.151,0,0,1-1.063.952" transform="translate(-28.504 -42.882)" fill="#e8f6f6"/>
              <path id="Trazado_1031991" data-name="Trazado 1031991" d="M175.74,234.089l-8.062.5a.6.6,0,0,1-.576-.859l.75-6.235,10.039-.629-1.088,6.266a1.151,1.151,0,0,1-1.063.952" transform="translate(-31.438 -42.698)" fill="#e8f6f6"/>
              <path id="Trazado_1031992" data-name="Trazado 1031992" d="M191.33,233.112l-8.062.5a.6.6,0,0,1-.576-.859l.75-6.235,10.039-.63-1.088,6.267a1.151,1.151,0,0,1-1.063.952" transform="translate(-34.372 -42.514)" fill="#e8f6f6"/>
              <path id="Trazado_1031993" data-name="Trazado 1031993" d="M206.921,232.134l-8.062.5a.6.6,0,0,1-.577-.859l.75-6.235,10.039-.629-1.088,6.266a1.151,1.151,0,0,1-1.062.952" transform="translate(-37.306 -42.33)" fill="#e8f6f6"/>
              <path id="Trazado_1031994" data-name="Trazado 1031994" d="M222.511,231.157l-8.062.5a.6.6,0,0,1-.576-.859l.75-6.235,10.039-.629-1.088,6.266a1.151,1.151,0,0,1-1.063.952" transform="translate(-40.24 -42.146)" fill="#e8f6f6"/>
              <path id="Trazado_1031995" data-name="Trazado 1031995" d="M238.1,230.18l-8.062.5a.6.6,0,0,1-.576-.859l.75-6.235,10.039-.629-1.088,6.266a1.151,1.151,0,0,1-1.063.952" transform="translate(-43.174 -41.962)" fill="#e8f6f6"/>
              <path id="Trazado_1031996" data-name="Trazado 1031996" d="M253.691,229.2l-8.062.5a.6.6,0,0,1-.576-.859l.75-6.235,10.039-.629-1.088,6.266a1.151,1.151,0,0,1-1.063.952" transform="translate(-46.108 -41.778)" fill="#e8f6f6"/>
              <path id="Trazado_1031997" data-name="Trazado 1031997" d="M281.034,227.319l-19.814,1.242a.6.6,0,0,1-.576-.86l.75-6.235,21.791-1.365-1.088,6.266a1.151,1.151,0,0,1-1.063.952" transform="translate(-49.043 -41.424)" fill="#e8f6f6"/>
              <path id="Trazado_1031998" data-name="Trazado 1031998" d="M130.562,265.764l-23.43,1.469a.6.6,0,0,1-.576-.859l2.558-6.349,23.6-1.479-1.088,6.266a1.151,1.151,0,0,1-1.063.952" transform="translate(-20.043 -48.659)" fill="#e8f6f6"/>
              <path id="Trazado_1031999" data-name="Trazado 1031999" d="M149.715,264.788l-8.062.5a.6.6,0,0,1-.576-.859l.75-6.235,10.039-.629-1.088,6.266a1.151,1.151,0,0,1-1.063.952" transform="translate(-26.54 -48.476)" fill="#e8f6f6"/>
              <path id="Trazado_1032000" data-name="Trazado 1032000" d="M165.305,263.81l-8.062.5a.6.6,0,0,1-.576-.859l.75-6.235,10.039-.629-1.088,6.266a1.151,1.151,0,0,1-1.063.952" transform="translate(-29.474 -48.292)" fill="#e8f6f6"/>
              <path id="Trazado_1032001" data-name="Trazado 1032001" d="M180.9,262.833l-8.062.5a.6.6,0,0,1-.576-.859l.75-6.235,10.039-.63-1.088,6.267a1.151,1.151,0,0,1-1.063.952" transform="translate(-32.408 -48.108)" fill="#e8f6f6"/>
              <path id="Trazado_1032002" data-name="Trazado 1032002" d="M196.486,261.855l-8.062.5a.6.6,0,0,1-.576-.859l.75-6.235,10.039-.629-1.088,6.266a1.151,1.151,0,0,1-1.063.952" transform="translate(-35.342 -47.924)" fill="#e8f6f6"/>
              <path id="Trazado_1032003" data-name="Trazado 1032003" d="M212.076,260.879l-8.062.5a.6.6,0,0,1-.576-.859l.75-6.235,10.039-.629-1.088,6.266a1.151,1.151,0,0,1-1.063.952" transform="translate(-38.276 -47.74)" fill="#e8f6f6"/>
              <path id="Trazado_1032004" data-name="Trazado 1032004" d="M227.666,259.9l-8.062.5a.6.6,0,0,1-.576-.859l.75-6.235,10.039-.629-1.088,6.266a1.151,1.151,0,0,1-1.063.952" transform="translate(-41.21 -47.556)" fill="#e8f6f6"/>
              <path id="Trazado_1032005" data-name="Trazado 1032005" d="M243.256,258.924l-8.062.5a.6.6,0,0,1-.576-.859l.75-6.235,10.039-.629-1.088,6.266a1.151,1.151,0,0,1-1.063.952" transform="translate(-44.145 -47.372)" fill="#e8f6f6"/>
              <path id="Trazado_1032006" data-name="Trazado 1032006" d="M270.6,257.04l-19.814,1.242a.6.6,0,0,1-.576-.86l.751-6.235,21.79-1.365-1.088,6.266a1.151,1.151,0,0,1-1.063.952" transform="translate(-47.079 -47.017)" fill="#e8f6f6"/>
              <path id="Trazado_1032007" data-name="Trazado 1032007" d="M123.68,251.846l-10.774.675a.6.6,0,0,1-.576-.86l2.558-6.349,10.943-.685-1.088,6.266a1.151,1.151,0,0,1-1.063.952" transform="translate(-21.129 -46.04)" fill="#e8f6f6"/>
              <path id="Trazado_1032008" data-name="Trazado 1032008" d="M139.9,250.869l-8.062.5a.6.6,0,0,1-.576-.859l.75-6.235,10.039-.629-1.088,6.266a1.151,1.151,0,0,1-1.063.952" transform="translate(-24.692 -45.856)" fill="#e8f6f6"/>
              <path id="Trazado_1032009" data-name="Trazado 1032009" d="M155.489,249.891l-8.062.5a.6.6,0,0,1-.576-.859l.75-6.235,10.039-.63-1.088,6.267a1.151,1.151,0,0,1-1.063.952" transform="translate(-27.626 -45.672)" fill="#e8f6f6"/>
              <path id="Trazado_1032010" data-name="Trazado 1032010" d="M171.079,248.914l-8.062.5a.6.6,0,0,1-.576-.859l.75-6.235,10.039-.629-1.088,6.266a1.151,1.151,0,0,1-1.063.952" transform="translate(-30.561 -45.488)" fill="#e8f6f6"/>
              <path id="Trazado_1032011" data-name="Trazado 1032011" d="M186.67,247.937l-8.062.5a.6.6,0,0,1-.576-.859l.75-6.235,10.039-.629-1.088,6.266a1.151,1.151,0,0,1-1.063.952" transform="translate(-33.495 -45.304)" fill="#e8f6f6"/>
              <path id="Trazado_1032012" data-name="Trazado 1032012" d="M202.26,246.96l-8.062.5a.6.6,0,0,1-.576-.859l.75-6.235,10.039-.629-1.088,6.266a1.151,1.151,0,0,1-1.063.952" transform="translate(-36.429 -45.12)" fill="#e8f6f6"/>
              <path id="Trazado_1032013" data-name="Trazado 1032013" d="M217.85,245.983l-8.062.5a.6.6,0,0,1-.576-.859l.75-6.235L220,238.765l-1.088,6.266a1.151,1.151,0,0,1-1.063.952" transform="translate(-39.363 -44.937)" fill="#e8f6f6"/>
              <path id="Trazado_1032014" data-name="Trazado 1032014" d="M233.44,245.006l-8.062.5a.6.6,0,0,1-.576-.859l.75-6.235,10.039-.63-1.088,6.267a1.151,1.151,0,0,1-1.063.952" transform="translate(-42.297 -44.752)" fill="#e8f6f6"/>
              <path id="Trazado_1032015" data-name="Trazado 1032015" d="M249.03,244.03l-8.062.506a.6.6,0,0,1-.576-.86l.75-6.235,10.039-.629-1.088,6.266a1.151,1.151,0,0,1-1.063.952" transform="translate(-45.231 -44.569)" fill="#e8f6f6"/>
              <path id="Trazado_1032016" data-name="Trazado 1032016" d="M264.621,243.052l-8.062.5a.6.6,0,0,1-.576-.859l.75-6.235,10.038-.629-1.087,6.266a1.151,1.151,0,0,1-1.063.952" transform="translate(-48.165 -44.385)" fill="#e8f6f6"/>
              <path id="Trazado_1032017" data-name="Trazado 1032017" d="M280.211,242.074l-8.062.5a.6.6,0,0,1-.576-.859l.75-6.235,10.039-.629-1.088,6.266a1.151,1.151,0,0,1-1.063.952" transform="translate(-51.1 -44.201)" fill="#e8f6f6"/>
              <path id="Trazado_1032018" data-name="Trazado 1032018" d="M112.132,281.637l-10.774.675a.6.6,0,0,1-.576-.86l2.558-6.349,10.943-.685-1.088,6.266a1.151,1.151,0,0,1-1.063.952" transform="translate(-18.956 -51.647)" fill="#e8f6f6"/>
              <path id="Trazado_1032019" data-name="Trazado 1032019" d="M128.351,280.659l-8.062.5a.6.6,0,0,1-.576-.859l.75-6.235,10.039-.629-1.088,6.266a1.151,1.151,0,0,1-1.063.952" transform="translate(-22.519 -51.463)" fill="#e8f6f6"/>
              <path id="Trazado_1032020" data-name="Trazado 1032020" d="M143.941,279.682l-8.062.5a.6.6,0,0,1-.576-.859l.75-6.235,10.039-.63L145,278.73a1.151,1.151,0,0,1-1.063.952" transform="translate(-25.453 -51.279)" fill="#e8f6f6"/>
              <path id="Trazado_1032021" data-name="Trazado 1032021" d="M159.531,278.705l-8.062.5a.6.6,0,0,1-.576-.859l.75-6.235,10.039-.629-1.088,6.266a1.151,1.151,0,0,1-1.063.952" transform="translate(-28.387 -51.095)" fill="#e8f6f6"/>
              <path id="Trazado_1032022" data-name="Trazado 1032022" d="M175.121,277.728l-8.062.5a.6.6,0,0,1-.576-.859l.75-6.235,10.039-.629-1.088,6.266a1.151,1.151,0,0,1-1.063.952" transform="translate(-31.321 -50.911)" fill="#e8f6f6"/>
              <path id="Trazado_1032023" data-name="Trazado 1032023" d="M190.712,276.751l-8.062.5a.6.6,0,0,1-.577-.859l.75-6.235,10.039-.629-1.088,6.266a1.151,1.151,0,0,1-1.062.952" transform="translate(-34.255 -50.727)" fill="#e8f6f6"/>
              <path id="Trazado_1032024" data-name="Trazado 1032024" d="M206.3,275.774l-8.062.5a.6.6,0,0,1-.576-.859l.75-6.235,10.039-.629-1.088,6.266a1.151,1.151,0,0,1-1.063.952" transform="translate(-37.19 -50.543)" fill="#e8f6f6"/>
              <path id="Trazado_1032025" data-name="Trazado 1032025" d="M221.892,274.8l-8.062.5a.6.6,0,0,1-.576-.859l.75-6.235,10.039-.63-1.088,6.267a1.151,1.151,0,0,1-1.063.952" transform="translate(-40.124 -50.359)" fill="#e8f6f6"/>
              <path id="Trazado_1032026" data-name="Trazado 1032026" d="M237.482,273.82l-8.062.506a.6.6,0,0,1-.576-.86l.75-6.235,10.039-.629-1.088,6.266a1.151,1.151,0,0,1-1.063.952" transform="translate(-43.058 -50.175)" fill="#e8f6f6"/>
              <path id="Trazado_1032027" data-name="Trazado 1032027" d="M253.072,272.842l-8.062.5a.6.6,0,0,1-.576-.859l.75-6.235,10.039-.629-1.088,6.266a1.151,1.151,0,0,1-1.063.952" transform="translate(-45.992 -49.991)" fill="#e8f6f6"/>
              <path id="Trazado_1032028" data-name="Trazado 1032028" d="M268.662,271.866l-8.062.5a.6.6,0,0,1-.576-.859l.75-6.235,10.039-.629-1.088,6.266a1.151,1.151,0,0,1-1.063.952" transform="translate(-48.926 -49.808)" fill="#e8f6f6"/>
              <path id="Trazado_1032029" data-name="Trazado 1032029" d="M205.526,303.7l-42.145,2.642,5.4-14.651,39.723-2.49Z" transform="translate(-30.749 -54.43)" fill="#c6e9e9"/>
              <path id="Trazado_1032030" data-name="Trazado 1032030" d="M42.205,234.1s-3.019,1.869-4.83,1.719-3.623.15-3.472,2.717,2.113,8.151,2.415,10.113,1.962,7.548,3.321,8.152,2.113.15,2.264-1.208-1.207-7.4-.151-10.265,5.133-8.151,5.133-8.151-3.623-3.436-4.68-3.077" transform="translate(-6.379 -44.054)" fill="#1a3247"/>
              <path id="Trazado_1032031" data-name="Trazado 1032031" d="M64.242,257.608a7.133,7.133,0,0,1-2.264,2.264c-1.359.755-6.189,4.529-5.585,6.793s6.34,5.283,9.358,8,8.454,6.491,9.359,5.887,1.208-.6.151-2.415-8.151-12.076-8.151-14.793a10.3,10.3,0,0,1,1.661-5.132Z" transform="translate(-10.604 -48.483)" fill="#1a3247"/>
              <path id="Trazado_1032032" data-name="Trazado 1032032" d="M61.688,203.5s-11.321,10.114-17.51,23.851l-.6,1.51s3.774,3.622,4.831,3.773c0,0,19.473-12.981,22.492-18.114l-1.057-6.189Z" transform="translate(-8.201 -38.299)" fill="#315e5e"/>
              <path id="Trazado_1032033" data-name="Trazado 1032033" d="M49.181,157.6s-3.623,14.34.453,22.19,17.51,19.171,18.114,20.53.453,3.17-1.208,6.943-4.981,28.984-4.83,30.342c0,0,.905,2.566,7.094,1.963,0,0,12.174-27.153,13.435-32.757,1.358-6.038,0-8.3,0-8.3s7.1-5.887,4.83-12.83S69.408,158.051,67.9,156.843s-2.415-1.962-2.415-3.17-3.321-.6-3.321-.6Z" transform="translate(-8.977 -28.78)" fill="#417d7d"/>
              <g id="Grupo_1180826" data-name="Grupo 1180826" transform="translate(59.621 143.281)" opacity="0.23">
                <g id="Grupo_1180825" data-name="Grupo 1180825">
                  <g id="Grupo_1180824" data-name="Grupo 1180824" clip-path="url(#clip-path-6)">
                    <path id="Trazado_1032034" data-name="Trazado 1032034" d="M87.085,202.944s-12.68-23.7-13.434-24.908.754-1.66,1.358-1.509,12.68,25.511,12.68,25.511Z" transform="translate(-73.444 -176.499)" fill="#1a1a1a"/>
                  </g>
                </g>
              </g>
              <path id="Trazado_1032035" data-name="Trazado 1032035" d="M65.83,240.238l-2.415-.317c1.231-9.384,6.977-31.756,8.561-35.083,1.19-2.5.5-3.851.206-4.428l-.016-.033c-.745-1.054-10.318-12.045-16.3-18.653-6.024-6.658-4.6-23.747-4.536-24.472l2.426.212c-.015.167-1.4,16.754,3.917,22.626,4.328,4.785,16.183,18.228,16.64,19.141.414.814,1.564,3.073-.141,6.653-1.346,2.827-7.1,24.833-8.345,34.354" transform="translate(-9.625 -29.595)" fill="#fff"/>
              <path id="Trazado_1032036" data-name="Trazado 1032036" d="M43.585,112.235a7.664,7.664,0,0,0,.3-3.472c-.3-1.811-1.057-4.377-1.057-4.377h7.1s.409,1.29.983,2.763c.683,1.755,1.6,3.77,2.338,4.18a1.922,1.922,0,0,1,1.207,1.812l-2.113,2.717-4.981.3Z" transform="translate(-8.061 -19.646)" fill="#ffb07b"/>
              <g id="Grupo_1180829" data-name="Grupo 1180829" transform="translate(34.77 84.739)" opacity="0.18">
                <g id="Grupo_1180828" data-name="Grupo 1180828">
                  <g id="Grupo_1180827" data-name="Grupo 1180827" clip-path="url(#clip-path-7)">
                    <path id="Trazado_1032037" data-name="Trazado 1032037" d="M50.908,107.149c-.574-1.474-.983-2.764-.983-2.764H42.831s.754,2.566,1.056,4.378a8.142,8.142,0,0,0,6.556-1.041Z" transform="translate(-42.831 -104.385)" fill="#1a1a1a"/>
                  </g>
                </g>
              </g>
              <path id="Trazado_1032038" data-name="Trazado 1032038" d="M45.817,151.579s-4.528-.453-7.548-5.887-3.773-11.774-4.377-13.435-1.66-5.283-1.66-5.283l9.358-13.585.3-.755s3.17,3.623,6.189,2.566,3.019-1.962,2.114-3.925c0,0,1.207-1.358,7.547-.452s15.1,3.32,15.4,3.773-2.868,10.416-2.868,10.416l-6.491,3.321s1.962,8.453,1.208,12.83-2.416,4.529-2.416,4.529a55.976,55.976,0,0,1-9.057,3.925c-3.773,1.056-7.7,1.962-7.7,1.962" transform="translate(-6.066 -20.798)" fill="#fff"/>
              <g id="Grupo_1180832" data-name="Grupo 1180832" transform="translate(26.165 91.834)" opacity="0.05">
                <g id="Grupo_1180831" data-name="Grupo 1180831">
                  <g id="Grupo_1180830" data-name="Grupo 1180830" clip-path="url(#clip-path-8)">
                    <path id="Trazado_1032039" data-name="Trazado 1032039" d="M70.272,125.5l-6.491,3.321s1.963,8.453,1.208,12.831c0,0-17.859.894-28.209-7.021l-2.888-1.885c-.6-1.661-1.66-5.284-1.66-5.284l9.359-13.585.3-.755s3.17,3.623,6.189,2.566c0,0,10.414,5.549,17.72,3.519Z" transform="translate(-32.232 -113.125)" fill="#1a1a1a"/>
                  </g>
                </g>
              </g>
              <path id="Trazado_1032040" data-name="Trazado 1032040" d="M92.665,130.232s5.736,1.057,7.849,3.472-.453,7.849-.453,7.849l-4.981-1.962-2.415-4.831Z" transform="translate(-17.44 -24.51)" fill="#fff"/>
              <path id="Trazado_1032041" data-name="Trazado 1032041" d="M34.379,97.136S30,100,20.491,95.928,3.584,80.078,8.113,72.228s8.453-.453,12.981-1.358,3.623-6.491,10.416-5.736,9.51,6.641,9.963,7.547-7.1,24.455-7.1,24.455" transform="translate(-1.27 -12.245)" fill="#c6674e"/>
              <path id="Trazado_1032042" data-name="Trazado 1032042" d="M32.177,91.949s-1.585-2.539,0-4.648c0,0-4.836-4.184-6.213,1.326-.947,3.789,1.719,13.832,13.665,11.636Z" transform="translate(-4.853 -16.144)" fill="#954d3b"/>
              <path id="Trazado_1032043" data-name="Trazado 1032043" d="M34.063,92.631s-.679.83-2.642.377S28.478,91.5,28.78,90.14s1.434-1.585,2.34-1.661A8.527,8.527,0,0,0,35.5,86.517l-1.359-6.491,8.453.755,8.6,5.132s1.057,8.906,0,11.623-2.739,3.2-4.679,3.623c-1.736.377-6.34,1.208-9.812-2.717s-2.642-5.812-2.642-5.812" transform="translate(-5.406 -15.061)" fill="#ffb07b"/>
              <path id="Trazado_1032044" data-name="Trazado 1032044" d="M48.449,94.5l.453,2.83a1.631,1.631,0,0,0,1.982-.226l-.51-3.453s-.17-.736-.849-.679-1.245.114-1.076,1.529" transform="translate(-9.113 -17.497)" fill="#bf845c"/>
              <path id="Trazado_1032045" data-name="Trazado 1032045" d="M31.551,86.756s.264.641,2.415,1.434,3.623.452,3.736-.793,0-4.981-.339-5.547c0,0,5.774,4.528,12.454,3.509s7.585-3.736,7.132-5.321a4.458,4.458,0,0,0-4.755-3.056c-2.718.113-5.737-1.661-6.152-3.208s-5.17-2.905-5.17-2.905L31.023,78Z" transform="translate(-5.839 -13.338)" fill="#c6674e"/>
              <path id="Trazado_1032046" data-name="Trazado 1032046" d="M67.934,100.131l1.509-19.85,3.4-.906,10.869,16.3.226,3.622-6.34,3.623-7.02-.226Z" transform="translate(-12.785 -14.939)" fill="#ffc194"/>
              <path id="Trazado_1032047" data-name="Trazado 1032047" d="M116.143,221.19l-4.566,4.065-2.762.735-2.333.62-6.1-1.229L68.027,103.716l6.05.623,2.174-.578,2.8-.744,4.738-3.493,3.075,11.562,2.013,7.569.986,3.708,2.733,10.273,1.191,4.477,2.528,9.505Z" transform="translate(-12.803 -18.731)" fill="#ffc533"/>
              <path id="Trazado_1032048" data-name="Trazado 1032048" d="M80.449,103.827l-2.8.744-2.175.578L107.884,227.42l2.334-.62,2.762-.735Z" transform="translate(-14.205 -19.541)" fill="#1a3247"/>
              <g id="Grupo_1180835" data-name="Grupo 1180835" transform="translate(75.352 113.907)" opacity="0.23">
                <g id="Grupo_1180834" data-name="Grupo 1180834">
                  <g id="Grupo_1180833" data-name="Grupo 1180833" clip-path="url(#clip-path-9)">
                    <path id="Trazado_1032049" data-name="Trazado 1032049" d="M97.258,140.315l1.191,4.477,2.528,9.505s-3.477,5.953-6.521,4.126-1.015-8.727-.406-10.35,3.208-7.758,3.208-7.758" transform="translate(-92.821 -140.315)" fill="#1a1a1a"/>
                  </g>
                </g>
              </g>
              <g id="Grupo_1180838" data-name="Grupo 1180838" transform="translate(58.72 85.54)" opacity="0.23">
                <g id="Grupo_1180837" data-name="Grupo 1180837">
                  <g id="Grupo_1180836" data-name="Grupo 1180836" clip-path="url(#clip-path-10)">
                    <path id="Trazado_1032050" data-name="Trazado 1032050" d="M87.669,112.187l2.013,7.569.986,3.708s-9.812,6.869-15.495,5.246h0l-2.841-11.568s8.93-2.841,10.553-6.088l2.841-5.683Z" transform="translate(-72.333 -105.371)" fill="#1a1a1a"/>
                  </g>
                </g>
              </g>
              <path id="Trazado_1032051" data-name="Trazado 1032051" d="M108.006,254.45s.821,10.529,11.152,7.529,4.51-12.581,4.51-12.581l-4.566,4.065-5.095,1.355Z" transform="translate(-20.327 -46.938)" fill="#c6674e"/>
              <path id="Trazado_1032052" data-name="Trazado 1032052" d="M69.544,79.559s-.566-5.887.339-6.4,3.51,5.264,3.51,5.264a3.705,3.705,0,0,1-3.85,1.132" transform="translate(-13.055 -13.763)" fill="#1a3247"/>
              <path id="Trazado_1032053" data-name="Trazado 1032053" d="M85.134,116.531s3.17-3.282,2.944-4.754-1.472-3.17-.453-3.4,2.038,2.6,2.038,2.6l-.34-1.585s2.378.566,3.283,1.925,2.491,4.189,1.359,5.773-4.528,2.491-5.434,2.6a12.646,12.646,0,0,0-1.7.339Z" transform="translate(-16.023 -20.395)" fill="#ffb07b"/>
              <path id="Trazado_1032054" data-name="Trazado 1032054" d="M40.89,115.7a5.693,5.693,0,0,0-5.434-1.358c-3.51.792-8.152,6.566-6.34,11.434s10.3,7.812,14.265,8.6S55.5,136.3,58.665,135.85s16.529-10.642,19.246-15.057c0,0-1.7-3.736-4.189-4.3a2.493,2.493,0,0,0-2.038.34c-.906.679-7.02,4.528-9.85,4.981s-4.076.566-4.076.566S42.815,116.151,40.89,115.7" transform="translate(-5.403 -21.486)" fill="#fff"/>
              <path id="Trazado_1032055" data-name="Trazado 1032055" d="M57.238,132.319c-10.04,0-25.141-7.943-25.808-8.3a.812.812,0,0,1,.761-1.434c.167.088,16.771,8.819,26.274,8.06,9.352-.752,16.878-11.107,16.954-11.212a.812.812,0,0,1,1.32.946c-.323.452-8.034,11.071-18.144,11.885-.44.035-.893.052-1.357.052" transform="translate(-5.834 -22.415)" fill="#417d7d"/>
              <path id="Trazado_1032056" data-name="Trazado 1032056" d="M95.277,138.712a3.136,3.136,0,0,0-3.283.339c-1.585,1.245-2.151,4.415-3.17,5.661s-2.151,2.151-1.132,2.6,1.472-.453,2.151-1.245,1.925-2.038,2.377-2.038-1.019,5.208-.792,6.679-.453,3.4.453,3.85,2.378,1.019,3.17.453,2.038-3.963,2.6-5.435,1.811-6.566,1.132-7.925a7.158,7.158,0,0,0-3.509-2.944" transform="translate(-16.429 -26.046)" fill="#ffb07b"/>
              <path id="Trazado_1032057" data-name="Trazado 1032057" d="M114.15,256.03l-6-1.217-.735-2.859,6.114,1.161,5.095-1.274,4.642-3.821.764,2.745-4.444,3.821Z" transform="translate(-20.216 -46.678)" fill="#1a3247"/>
              <path id="Trazado_1032058" data-name="Trazado 1032058" d="M93.125,54.141l-.9-2.621-2.56.878-.819-2.388,2.559-.878-.9-2.637,2.265-.776.9,2.637,2.56-.878.819,2.389-2.56.878.9,2.621Z" transform="translate(-16.722 -8.604)" fill="#c6e9e9"/>
              <path id="Trazado_1032059" data-name="Trazado 1032059" d="M360.052,171.421l1.1-2.543L358.67,167.8l1-2.318,2.483,1.076L363.264,164l2.2.951-1.107,2.559,2.482,1.075-1,2.318-2.482-1.076-1.1,2.543Z" transform="translate(-67.503 -30.866)" fill="#c6e9e9"/>
              <path id="Trazado_1032060" data-name="Trazado 1032060" d="M52.013,301.034l1.1-2.543-2.482-1.076,1-2.318,2.483,1.076,1.107-2.558,2.2.951-1.107,2.559L58.8,298.2l-1,2.318-2.482-1.076-1.1,2.543Z" transform="translate(-9.529 -55.26)" fill="#c6e9e9"/>
              <path id="Trazado_1032061" data-name="Trazado 1032061" d="M231.886,349.722l2.547-5.89-5.752-2.487L231,335.976l5.751,2.488,2.563-5.926,5.089,2.2-2.563,5.925,5.752,2.487-2.321,5.368-5.752-2.487-2.547,5.891Z" transform="translate(-43.039 -62.585)" fill="#fff"/>
              <path id="Trazado_1032062" data-name="Trazado 1032062" d="M167.077,141.051l-3.091-3.746-3.659,3.017-2.816-3.415,3.659-3.017-3.109-3.769,3.237-2.67,3.109,3.769,3.659-3.017,2.816,3.414-3.659,3.018,3.091,3.746Z" transform="translate(-29.644 -23.987)" fill="#fff"/>
              <path id="Trazado_1032063" data-name="Trazado 1032063" d="M296.524,261.737l-.59-3.563-3.479.576-.537-3.247,3.479-.576-.593-3.584,3.078-.509.593,3.584,3.479-.576.537,3.246-3.479.576.59,3.563Z" transform="translate(-54.94 -47.208)" fill="#fff"/>
            </g>
          </g>
        </g>
      </g>
    </g>
  </g>
</svg>
