<svg xmlns="http://www.w3.org/2000/svg" xmlns:xlink="http://www.w3.org/1999/xlink" width="69.323" height="69.323" viewBox="0 0 69.323 69.323">
  <defs>
    <clipPath id="clip-path">
      <rect id="Rectángulo_467005" data-name="Rectángulo 467005" width="48.324" height="48.32" fill="#fff"/>
    </clipPath>
  </defs>
  <g id="Grupo_1181048" data-name="Grupo 1181048" transform="translate(-304.838 -7056.464)">
    <path id="Trazado_1031430" data-name="Trazado 1031430" d="M0,0H69.323V69.323H0Z" transform="translate(304.838 7056.464)" fill="#0f654d"/>
    <g id="Grupo_1180856" data-name="Grupo 1180856" transform="translate(315.337 7066.965)">
      <g id="Grupo_1180855" data-name="Grupo 1180855" clip-path="url(#clip-path)">
        <path id="Trazado_1032103" data-name="Trazado 1032103" d="M128.062,101.109l0-28.5a.8.8,0,0,1,.839-.869h4.21a2.658,2.658,0,0,0,2.7-2.73l0-4.2a.832.832,0,0,1,.874-.853l18.1,0a.826.826,0,0,1,.868.888v36.2a.817.817,0,0,1-.875.882H128.925a.783.783,0,0,1-.864-.818m2.616-20.76a.877.877,0,0,0-.911.893.838.838,0,0,0,.813.831c1.757.2,3.516-.01,4.142-1.532a2.7,2.7,0,0,0-.416-2.774,2.7,2.7,0,0,0,.366-2.885,2.55,2.55,0,0,0-2.244-1.419l-1.713-.01a.857.857,0,0,0-.948.836.876.876,0,0,0,.912.895l1.632-.01a.871.871,0,0,1,.912.89c.006,1.127-1.645.542-1.717,1.635-.083,1.253,1.724.617,1.718,1.771a.875.875,0,0,1-.913.891Zm2.034,3.561a2.6,2.6,0,0,0-1.541,0,.828.828,0,0,0-.441,1.159A1.645,1.645,0,0,0,133.154,85a.8.8,0,0,0-.442-1.1m19.395,1.62a.857.857,0,0,0,.193-1.7l-16.392-.015a.86.86,0,0,0-.962.838.878.878,0,0,0,.94.879Zm-17.663,1.839a2.7,2.7,0,0,0-1.582.007.809.809,0,0,0-.437,1.048c.37.835,2.179.743,2.436.063.123-.325.118-.957-.417-1.118m7.5,1.59a.81.81,0,0,0,.74-1.06c-.1-.433-.463-.628-.984-.627l-4.053,0a.858.858,0,1,0,0,1.706Zm10.113.025c.581,0,.96-.253,1-.786.028-.351-.165-.9-.684-.9l-6.958-.023a.858.858,0,1,0,0,1.7Zm-17.546,1.871a2.269,2.269,0,0,0-1.716,0,.822.822,0,0,0-.345,1.088c.326.769,2.022.688,2.379.056a.828.828,0,0,0-.319-1.143m7.386,1.6a.877.877,0,1,0-.2-1.742l-4.054,0a.869.869,0,0,0-.945.878.837.837,0,0,0,.818.849Zm10.354-.022a.845.845,0,0,0,.8-.972.814.814,0,0,0-.842-.737l-6.793-.007a.881.881,0,0,0-.957.88.865.865,0,0,0,.829.851Zm-19.521,1.828a2.443,2.443,0,0,0-1.45-.043.85.85,0,0,0-.542,1.211,1.613,1.613,0,0,0,2.418-.063.824.824,0,0,0-.426-1.106m19.533,1.631a.832.832,0,0,0,.777-1.028.869.869,0,0,0-.866-.707l-16.281,0a.888.888,0,0,0-.944.859.9.9,0,0,0,.938.894Zm-17.822,1.83a2.731,2.731,0,0,0-1.575.017.807.807,0,0,0-.44,1.04c.364.841,2.171.773,2.437.068a.836.836,0,0,0-.422-1.125m7.5,1.6a.813.813,0,0,0,.743-1.065.879.879,0,0,0-.982-.633l-4.36.056c-.546.007-.707.616-.622,1.007a.866.866,0,0,0,.93.66Zm10.115.029c.581,0,.965-.273,1-.793.026-.352-.169-.9-.681-.9l-7.121-.007a.808.808,0,0,0-.8.9.873.873,0,0,0,.958.8Z" transform="translate(-107.333 -53.607)" fill="#fff"/>
        <path id="Trazado_1032104" data-name="Trazado 1032104" d="M8.632,37.935l-7.775.033A.836.836,0,0,1,0,37.085V8.645a.8.8,0,0,1,.85-.861l4.216-.006A2.684,2.684,0,0,0,7.779,5.063l0-4.216A.805.805,0,0,1,8.638,0h18.1a.8.8,0,0,1,.855.846l-.017,2.6-8.6.023a4.426,4.426,0,0,0-3.1,1.079L9.728,10.688a4.928,4.928,0,0,0-1.1,2.648ZM6.007,18.12a.88.88,0,0,0,.853-.7c.074-.4-.088-.937-.555-.973L5.18,16.366l-.011-5.933a.888.888,0,0,0-.48-.872.851.851,0,0,0-.958.156L2.026,11.411a.851.851,0,0,0,.113,1.363c.417.29.893.146,1.292-.313l.025,3.913-.813.032a.881.881,0,0,0-.926.874c.01,1.166,2.063.921,4.29.841" fill="#fff"/>
        <path id="Trazado_1032105" data-name="Trazado 1032105" d="M72.575,69.984l-7.768.041a.861.861,0,0,1-.864-.9l0-28.439a.822.822,0,0,1,.856-.869l4.225-.006A2.572,2.572,0,0,0,71.69,37.4l.032-4.5a.8.8,0,0,1,.867-.835l17.944-.009c.584,0,1.033.213,1.028.85l-.02,2.577-8.938.034a4.268,4.268,0,0,0-2.86,1.147l-5.915,5.9A4.86,4.86,0,0,0,72.57,45.7ZM66.551,50.155l3.536-.022a.824.824,0,0,0,.751-.954.845.845,0,0,0-.855-.738l-2.448-.011a2.218,2.218,0,0,1,1.273-1.348,3.222,3.222,0,0,0,1.951-3.631,2.573,2.573,0,0,0-2.336-1.909,2.842,2.842,0,0,0-2.594,1.445.891.891,0,0,0,.227,1.217c.927.633,1.293-.774,1.962-.9a.866.866,0,0,1,.88.228,1.058,1.058,0,0,1,.126,1.1,1.538,1.538,0,0,1-.786.761,4.032,4.032,0,0,0-2.551,3.954.825.825,0,0,0,.862.806" transform="translate(-53.595 -26.865)" fill="#fff"/>
        <path id="Trazado_1032106" data-name="Trazado 1032106" d="M11.841,12.683l-3.862-.041,4.713-4.711.028,3.787a.9.9,0,0,1-.878.966" transform="translate(-6.688 -6.647)" fill="#fff"/>
        <path id="Trazado_1032107" data-name="Trazado 1032107" d="M75.8,44.654l-3.87-.043,4.728-4.725.037,3.795a.941.941,0,0,1-.895.974" transform="translate(-60.288 -33.43)" fill="#fff"/>
        <path id="Trazado_1032108" data-name="Trazado 1032108" d="M139.729,76.692l-3.889-.053,4.737-4.725.031,3.79a.951.951,0,0,1-.879.988" transform="translate(-113.855 -60.275)" fill="#fff"/>
      </g>
    </g>
  </g>
</svg>
