<svg xmlns="http://www.w3.org/2000/svg" xmlns:xlink="http://www.w3.org/1999/xlink" width="188" height="123" viewBox="0 0 188 123">
  <defs>
    <clipPath id="clip-path">
      <rect id="Rectángulo_466882" data-name="Rectángulo 466882" width="89.289" height="88.346" fill="#12263f"/>
    </clipPath>
  </defs>
  <g id="Grupo_1180622" data-name="Grupo 1180622" transform="translate(-185.711 -5277)">
    <rect id="Rectángulo_466314" data-name="Rectángulo 466314" width="188" height="123" rx="19" transform="translate(185.711 5277)" fill="#ffb758"/>
    <g id="Grupo_1180621" data-name="Grupo 1180621" transform="translate(234.711 5294)">
      <g id="Grupo_1180620" data-name="Grupo 1180620" clip-path="url(#clip-path)">
        <path id="Trazado_1031760" data-name="Trazado 1031760" d="M79.967,187.451a6.964,6.964,0,0,1,5.806,12.6,103.813,103.813,0,0,1-28.026,11.518,50.386,50.386,0,0,1-11.941,1.882,45.966,45.966,0,0,1-17.442-3.3,45.064,45.064,0,0,0-15.649-3.328c.416,1.986-.395,4.277-2.458,4.3L3.02,211.2a2.9,2.9,0,0,1-2.989-2.8L0,178.955c0-1.432.946-2.992,2.475-3l7.793-.016c1.474,0,2.456,1.54,2.512,2.871l.1,2.291c8.387-4.739,17.291-4.488,24.9,1.41a10.667,10.667,0,0,0,6.618,2.579l10.652.034a6.7,6.7,0,0,1,5.33,2.738,7.073,7.073,0,0,1,1.04,6.241Zm-69.662-9.2H2.47v30.477h7.835Zm45.256,20.63-15.256-.031a1.142,1.142,0,0,1-1.246-1.1c-.048-.593.161-1.3.968-1.3l15.165-.153a4.358,4.358,0,0,0-.172-8.706l-11.536-.1c-2.935-.026-5.359-1.611-7.617-3.323a18.576,18.576,0,0,0-16.515-3.188A23.7,23.7,0,0,0,12.763,184l0,20.34a48.953,48.953,0,0,1,16.455,3.519,41.392,41.392,0,0,0,26.249,1.727,101.481,101.481,0,0,0,28.867-11.526,4.495,4.495,0,0,0-3.574-8.237Z" transform="translate(0 -125.11)" fill="#12263f"/>
        <path id="Trazado_1031761" data-name="Trazado 1031761" d="M127.3,52.976a4.209,4.209,0,0,1-5.577,1.662l-3.863-1.919a3.786,3.786,0,0,0-3.494-.05l-4.257,2.084a4.046,4.046,0,0,1-5.139-1.58c-2.393-3.434-1.908-6.083-6-6.46-1.9-.175-4.01-.406-5.518-1.637-3.173-2.589.268-7.868-1.046-10.245-.891-1.612-2.586-2.677-3.712-4.039-1.71-2.068-1.889-4.489.018-6.455l3.378-3.483a3.068,3.068,0,0,0,.585-2.684l-.632-4.3a4.214,4.214,0,0,1,3.3-4.828,46.453,46.453,0,0,1,4.65-.814c2.856-.438,2.925-3.384,4.968-6.271A4.042,4.042,0,0,1,110.12.4l4.247,2.07a3.552,3.552,0,0,0,3.285.024L121.712.5a4.2,4.2,0,0,1,5.769,1.908l2.044,3.951a3.075,3.075,0,0,0,2.306,1.794l4.843.867a4.035,4.035,0,0,1,3.4,4.541l-.664,4.618a3.365,3.365,0,0,0,.82,2.945l3.263,3.341a4.318,4.318,0,0,1,0,6.2l-3.261,3.343a3.365,3.365,0,0,0-.809,2.945l.647,4.612a4.012,4.012,0,0,1-3.387,4.552l-4.409.741c-3.056.514-3,3.2-4.969,6.112m-1.736-1.715,1.993-3.891a5.158,5.158,0,0,1,3.843-2.808l4.463-.737a2.1,2.1,0,0,0,1.805-2.534L137,36.978a5.152,5.152,0,0,1,1.38-4.532l3.277-3.338a2.11,2.11,0,0,0,0-3.074l-3.137-3.19A5.317,5.317,0,0,1,137,18.158l.676-4.582a2.006,2.006,0,0,0-1.809-2.263l-4.665-.8a4.786,4.786,0,0,1-3.537-2.565L125.5,3.781a2.013,2.013,0,0,0-2.752-1.056L118.53,4.807a5.286,5.286,0,0,1-4.816.037l-4.229-2.077c-3.8-1.865-3.333,6.87-8.631,7.777l-4.658.8a1.874,1.874,0,0,0-1.7,2.232l.68,4.6c.83,5.613-7.57,7.419-4.726,10.853,2.3,2.779,5.272,4.174,4.721,7.95l-.671,4.6a1.906,1.906,0,0,0,1.7,2.217l4.656.816a5.6,5.6,0,0,1,4.022,3.22l1.849,3.594a1.962,1.962,0,0,0,2.764.964l4.227-2.084a5.281,5.281,0,0,1,4.812.043l4.039,2a2.108,2.108,0,0,0,3-1.077" transform="translate(-62.108 0)" fill="#12263f"/>
        <path id="Trazado_1031762" data-name="Trazado 1031762" d="M161.754,53.222A17.127,17.127,0,1,1,144.627,36.1a17.127,17.127,0,0,1,17.127,17.127m-2.454,0A14.673,14.673,0,1,0,144.628,67.9,14.673,14.673,0,0,0,159.3,53.226" transform="translate(-90.663 -25.667)" fill="#12263f"/>
        <path id="Trazado_1031763" data-name="Trazado 1031763" d="M154.967,81.6l-4.389-4.369c-1.689-1.681-1.011-4.557.756-5.789a4.248,4.248,0,0,1,6.056,1.39l7.029-6.942a3.92,3.92,0,0,1,5.32.133c1.392,1.289,1.908,3.821.425,5.321L160.4,81.218c-1.429,1.445-3.839,1.972-5.436.382M152.4,75.566l3.906,3.994a1.751,1.751,0,0,0,2.526-.2l9.229-9.238a1.567,1.567,0,0,0,.2-2.13c-.4-.5-1.543-.914-2.106-.353l-7.515,7.473a1.369,1.369,0,0,1-2.1.166l-1.906-1.814a1.577,1.577,0,0,0-2.021.1,1.538,1.538,0,0,0-.2,2.007" transform="translate(-106.382 -46.156)" fill="#12263f"/>
      </g>
    </g>
  </g>
</svg>
