<svg xmlns="http://www.w3.org/2000/svg" xmlns:xlink="http://www.w3.org/1999/xlink" width="85" height="85" viewBox="0 0 85 85">
  <defs>
    <clipPath id="clip-path">
      <rect id="Rectángulo_466874" data-name="Rectángulo 466874" width="53.37" height="51.575" fill="#12263f"/>
    </clipPath>
  </defs>
  <g id="Grupo_1180043" data-name="Grupo 1180043" transform="translate(-705.629 -410)">
    <g id="Grupo_1180019" data-name="Grupo 1180019">
      <g id="Grupo_1180023" data-name="Grupo 1180023">
        <rect id="Rectángulo_456333" data-name="Rectángulo 456333" width="85" height="85" rx="10" transform="translate(705.629 410)" fill="#68eae0"/>
        <g id="Grupo_1180607" data-name="Grupo 1180607" transform="translate(721.444 426.713)">
          <g id="Grupo_1180606" data-name="Grupo 1180606" clip-path="url(#clip-path)">
            <path id="Trazado_1031693" data-name="Trazado 1031693" d="M38.376,51.56l-23.31.015a2.66,2.66,0,1,1,.269-5.311c2.264.1,4.161-.072,5.2-2.1a8,8,0,0,0,.769-3.228L3.527,40.9A3.543,3.543,0,0,1,0,37.28L0,3.62A3.532,3.532,0,0,1,3.566,0H49.8a3.53,3.53,0,0,1,3.565,3.62l0,33.66A3.546,3.546,0,0,1,49.844,40.9l-17.776.033a7.937,7.937,0,0,0,.768,3.231c1.034,2.029,2.936,2.2,5.2,2.1A2.643,2.643,0,0,1,40.9,48.732a2.6,2.6,0,0,1-2.52,2.829M48.84,3.58a.885.885,0,0,1,.987.911l.007,27.457a4.233,4.233,0,0,0,1.76-.021L51.554,3.3c0-1.1-1.126-1.542-2.043-1.542L3.693,1.767A1.789,1.789,0,0,0,1.787,3.623l0,28.3a4.088,4.088,0,0,0,1.751.016L3.552,4.357c0-.526.509-.777.98-.777ZM48.03,5.333H5.34V32H48.03Zm1.721,33.809A1.789,1.789,0,0,0,51.578,37.3L51.55,33.8H1.823l-.045,3.337A1.858,1.858,0,0,0,3.7,39.142Zm-17.671,7.1A8.821,8.821,0,0,1,30.3,40.949H23.073a8.822,8.822,0,0,1-1.783,5.293Zm6.089,3.568a.894.894,0,0,0,.954-.923.911.911,0,0,0-.841-.843l-23.193,0A.884.884,0,1,0,15.2,49.81Z" fill="#12263f"/>
            <path id="Trazado_1031694" data-name="Trazado 1031694" d="M144.839,215.086h-5.011c-.61,0-.992-.289-1.025-.806-.04-.611.351-.962,1.024-.962l5.011,0c.612,0,.991.277,1.025.8.04.606-.353.968-1.025.968" transform="translate(-115.649 -177.736)" fill="#12263f"/>
            <path id="Trazado_1031695" data-name="Trazado 1031695" d="M97.67,65.41a.769.769,0,0,1-1.041.1l-2.33-2.23-1.451,1.373c-.2.186-.555.124-.806.051a.89.89,0,0,1-.5-.616l-.865-2.851-20.427-.006a.921.921,0,0,1-.973-.883L69.27,43.42a.892.892,0,0,1,.97-.885l24.81,0a.854.854,0,0,1,.908.844V55.909l3.005.934a.829.829,0,0,1,.527.552.859.859,0,0,1-.2.869l-1.2,1.23,2.035,2.021a1.023,1.023,0,0,1-.056,1.533ZM94.191,44.355H71.057v2.671H94.191Zm-4.121,9.8,4.146,1.221-.024-6.6H71.055V59.434l19.057,0-1.2-4.056a1.007,1.007,0,0,1,.207-1.013.909.909,0,0,1,.952-.207M98.277,62.2l-2.192-2.342c-.485-.518.279-1.266.881-1.73l-5.834-1.717,1.725,5.818c.64-.864,1.373-1.244,2.147-.768l2.065,2.013A6.289,6.289,0,0,0,98.277,62.2" transform="translate(-57.716 -35.44)" fill="#12263f"/>
            <path id="Trazado_1031696" data-name="Trazado 1031696" d="M98.777,106.764l-7.166-.013a.934.934,0,0,1-.916-.935l.009-3.522a.815.815,0,0,1,.87-.856l7.169.013a.829.829,0,0,1,.836.852l.009,3.5a.955.955,0,0,1-.812.958m-6.329-1.8H97.8v-1.774H92.449Z" transform="translate(-75.568 -84.517)" fill="#12263f"/>
          </g>
        </g>
      </g>
    </g>
  </g>
</svg>
