<svg xmlns="http://www.w3.org/2000/svg" width="396" height="508" viewBox="0 0 396 508">
  <g id="Grupo_1180570" data-name="Grupo 1180570" transform="translate(-10214 5657)">
    <rect id="Rectángulo_466835" data-name="Rectángulo 466835" width="396" height="508" transform="translate(10214 -5657)" fill="#c0f6f2"/>
    <g id="Grupo_1180569" data-name="Grupo 1180569" transform="translate(9923 -15634)">
      <g id="Rectángulo_466826" data-name="Rectángulo 466826" transform="translate(397 10388)" fill="#68c6ea" stroke="#12263f" stroke-width="3">
        <rect width="185" height="71" rx="14" stroke="none"/>
        <rect x="-1.5" y="-1.5" width="188" height="74" rx="15.5" fill="none"/>
      </g>
      <text id="Criterios_de_aceptación" data-name="Criterios de aceptación" transform="translate(406 10400)" fill="#12263f" font-size="17" font-family="SegoeUI, Segoe UI"><tspan x="40.519" y="18">Criterios de </tspan><tspan x="42.826" y="42">aceptación</tspan></text>
      <g id="Rectángulo_466827" data-name="Rectángulo 466827" transform="translate(397 10260)" fill="#c9e8f7" stroke="#12263f" stroke-width="3">
        <rect width="185" height="71" rx="14" stroke="none"/>
        <rect x="-1.5" y="-1.5" width="188" height="74" rx="15.5" fill="none"/>
      </g>
      <text id="Beneficio" transform="translate(406 10284)" fill="#12263f" font-size="17" font-family="SegoeUI, Segoe UI"><tspan x="49.243" y="18">Beneficio</tspan></text>
      <g id="Rectángulo_466828" data-name="Rectángulo 466828" transform="translate(397 10132)" fill="#ffe2bc" stroke="#12263f" stroke-width="3">
        <rect width="185" height="71" rx="14" stroke="none"/>
        <rect x="-1.5" y="-1.5" width="188" height="74" rx="15.5" fill="none"/>
      </g>
      <text id="Necesidad" transform="translate(406 10156)" fill="#12263f" font-size="17" font-family="SegoeUI, Segoe UI"><tspan x="44.324" y="18">Necesidad</tspan></text>
      <g id="Rectángulo_466829" data-name="Rectángulo 466829" transform="translate(397 10004)" fill="#ffb758" stroke="#12263f" stroke-width="3">
        <rect width="185" height="71" rx="14" stroke="none"/>
        <rect x="-1.5" y="-1.5" width="188" height="74" rx="15.5" fill="none"/>
      </g>
      <text id="Usuario" transform="translate(406 10028)" fill="#12263f" font-size="17" font-family="SegoeUI, Segoe UI"><tspan x="54.925" y="18">Usuario</tspan></text>
      <g id="Unión_28" data-name="Unión 28" transform="translate(-9731.709 -1615.026)" fill="#ffb758">
        <path d="M 10220.54296875 11737.224609375 L 10219.26953125 11735.1767578125 L 10206.435546875 11714.5478515625 L 10205.0087890625 11712.255859375 L 10207.708984375 11712.255859375 L 10214.69140625 11712.255859375 L 10214.69140625 11699.998046875 L 10214.69140625 11698.498046875 L 10216.19140625 11698.498046875 L 10225.63671875 11698.498046875 L 10227.13671875 11698.498046875 L 10227.13671875 11699.998046875 L 10227.13671875 11712.255859375 L 10233.37890625 11712.255859375 L 10236.0791015625 11712.255859375 L 10234.65234375 11714.5478515625 L 10221.81640625 11735.1767578125 L 10220.54296875 11737.224609375 Z" stroke="none"/>
        <path d="M 10216.19140625 11699.998046875 L 10216.19140625 11713.755859375 L 10207.708984375 11713.755859375 L 10220.54296875 11734.384765625 L 10233.37890625 11713.755859375 L 10225.63671875 11713.755859375 L 10225.63671875 11699.998046875 L 10216.19140625 11699.998046875 M 10213.19140625 11696.998046875 L 10228.63671875 11696.998046875 L 10228.63671875 11710.755859375 L 10238.779296875 11710.755859375 L 10220.54296875 11740.0634765625 L 10202.3095703125 11710.755859375 L 10213.19140625 11710.755859375 L 10213.19140625 11696.998046875 Z" stroke="none" fill="#12263f"/>
      </g>
      <g id="Unión_26" data-name="Unión 26" transform="translate(-9731.709 -1485.998)" fill="#ffe2bc">
        <path d="M 10220.54296875 11737.224609375 L 10219.26953125 11735.1767578125 L 10206.435546875 11714.5478515625 L 10205.0087890625 11712.255859375 L 10207.708984375 11712.255859375 L 10214.69140625 11712.255859375 L 10214.69140625 11699.998046875 L 10214.69140625 11698.498046875 L 10216.19140625 11698.498046875 L 10225.63671875 11698.498046875 L 10227.13671875 11698.498046875 L 10227.13671875 11699.998046875 L 10227.13671875 11712.255859375 L 10233.37890625 11712.255859375 L 10236.0791015625 11712.255859375 L 10234.65234375 11714.5478515625 L 10221.81640625 11735.1767578125 L 10220.54296875 11737.224609375 Z" stroke="none"/>
        <path d="M 10216.19140625 11699.998046875 L 10216.19140625 11713.755859375 L 10207.708984375 11713.755859375 L 10220.54296875 11734.384765625 L 10233.37890625 11713.755859375 L 10225.63671875 11713.755859375 L 10225.63671875 11699.998046875 L 10216.19140625 11699.998046875 M 10213.19140625 11696.998046875 L 10228.63671875 11696.998046875 L 10228.63671875 11710.755859375 L 10238.779296875 11710.755859375 L 10220.54296875 11740.0634765625 L 10202.3095703125 11710.755859375 L 10213.19140625 11710.755859375 L 10213.19140625 11696.998046875 Z" stroke="none" fill="#12263f"/>
      </g>
      <g id="Unión_29" data-name="Unión 29" transform="translate(-9731.709 -1357.691)" fill="#c9e8f7">
        <path d="M 10220.54296875 11737.224609375 L 10219.26953125 11735.1767578125 L 10206.435546875 11714.5478515625 L 10205.0087890625 11712.255859375 L 10207.708984375 11712.255859375 L 10214.69140625 11712.255859375 L 10214.69140625 11699.998046875 L 10214.69140625 11698.498046875 L 10216.19140625 11698.498046875 L 10225.63671875 11698.498046875 L 10227.13671875 11698.498046875 L 10227.13671875 11699.998046875 L 10227.13671875 11712.255859375 L 10233.37890625 11712.255859375 L 10236.0791015625 11712.255859375 L 10234.65234375 11714.5478515625 L 10221.81640625 11735.1767578125 L 10220.54296875 11737.224609375 Z" stroke="none"/>
        <path d="M 10216.19140625 11699.998046875 L 10216.19140625 11713.755859375 L 10207.708984375 11713.755859375 L 10220.54296875 11734.384765625 L 10233.37890625 11713.755859375 L 10225.63671875 11713.755859375 L 10225.63671875 11699.998046875 L 10216.19140625 11699.998046875 M 10213.19140625 11696.998046875 L 10228.63671875 11696.998046875 L 10228.63671875 11710.755859375 L 10238.779296875 11710.755859375 L 10220.54296875 11740.0634765625 L 10202.3095703125 11710.755859375 L 10213.19140625 11710.755859375 L 10213.19140625 11696.998046875 Z" stroke="none" fill="#12263f"/>
      </g>
    </g>
  </g>
</svg>
