<svg xmlns="http://www.w3.org/2000/svg" xmlns:xlink="http://www.w3.org/1999/xlink" width="128" height="128" viewBox="0 0 128 128">
  <defs>
    <clipPath id="clip-path">
      <rect id="Rectángulo_456267" data-name="Rectángulo 456267" width="128" height="128" fill="none"/>
    </clipPath>
    <clipPath id="clip-path-2">
      <rect id="Rectángulo_467140" data-name="Rectángulo 467140" width="69.551" height="69.561" fill="#19538d"/>
    </clipPath>
  </defs>
  <g id="Grupo_1180316" data-name="Grupo 1180316" transform="translate(511.746 8527) rotate(180)">
    <path id="Trazado_999622" data-name="Trazado 999622" d="M59.07,0A59.07,59.07,0,1,1,0,59.07,59.071,59.071,0,0,1,59.07,0" transform="translate(388.676 8403.93)" fill="#fff"/>
    <g id="Grupo_1179902" data-name="Grupo 1179902" transform="translate(383.746 8399)">
      <g id="Grupo_1179905" data-name="Grupo 1179905" clip-path="url(#clip-path)">
        <path id="Trazado_999618" data-name="Trazado 999618" d="M64,0A64,64,0,1,1,0,64,64,64,0,0,1,64,0" fill="none"/>
        <path id="Trazado_999619" data-name="Trazado 999619" d="M5,59a5,5,0,1,1-5,5,5,5,0,0,1,5-5" fill="#19538d"/>
        <path id="Trazado_999620" data-name="Trazado 999620" d="M21,19a5,5,0,1,1-5,5,5,5,0,0,1,5-5" fill="#19538d"/>
        <path id="Trazado_999621" data-name="Trazado 999621" d="M64,124A60.068,60.068,0,0,1,4,64H7A57,57,0,1,0,22.408,25.024L20.22,22.972A60,60,0,1,1,64,124" fill="#19538d"/>
        <rect id="Rectángulo_456268" data-name="Rectángulo 456268" width="128" height="128" fill="none"/>
        <rect id="Rectángulo_456269" data-name="Rectángulo 456269" width="128" height="128" fill="none"/>
      </g>
    </g>
    <g id="Grupo_1180999" data-name="Grupo 1180999" transform="translate(482.521 8500.041) rotate(180)">
      <g id="Grupo_1180998" data-name="Grupo 1180998" clip-path="url(#clip-path-2)">
        <path id="Trazado_1033196" data-name="Trazado 1033196" d="M12.21,43.008l-8.2-.053A4.068,4.068,0,0,1,0,38.7L.015,30.65a3.974,3.974,0,0,1,3.987-4l3.349-.022A1.369,1.369,0,1,1,7.4,29.359H4.143a1.4,1.4,0,0,0-1.428,1.5v7.85a1.433,1.433,0,0,0,1.442,1.514l18.858,0a1.429,1.429,0,0,0,1.444-1.51l0-7.85a1.4,1.4,0,0,0-1.435-1.492l-3.252-.007a1.371,1.371,0,1,1,.048-2.737l3.349.024a3.908,3.908,0,0,1,3.977,3.788l.033,3.041,9.9-.028a6.959,6.959,0,0,1,5.3-5.349l0-11.78-8.048,0a4.18,4.18,0,0,1-4.165-3.485l.082-9.364A3.752,3.752,0,0,1,33.9.053L53.035,0a4.074,4.074,0,0,1,4.282,3.946l.033,8.433a4.123,4.123,0,0,1-4.1,3.927l-8.146.013-.005,11.8A6.794,6.794,0,0,1,50.382,33.4l5.489.046a1.364,1.364,0,0,1,1.474,1.364l.007,18.445,8.493.05a3.963,3.963,0,0,1,3.706,4.055l0,8.076a4.087,4.087,0,0,1-4.133,4.121h-18.9a4.1,4.1,0,0,1-4.137-4.119L42.365,62.8H27.189l-.017,2.641a4.094,4.094,0,0,1-4.137,4.118H4.138A4.088,4.088,0,0,1,.006,65.437l0-8.056A4.157,4.157,0,0,1,4.34,53.246l7.864.016ZM53.338,13.6a1.369,1.369,0,0,0,1.249-1.409l0-8.064a1.238,1.238,0,0,0-1.139-1.333L33.916,2.8c-.653,0-1.06.784-1.06,1.34l0,8.033a1.369,1.369,0,0,0,1.269,1.411ZM43.043,30.773a4.063,4.063,0,1,0,4.7,3.323,4.038,4.038,0,0,0-4.7-3.323m-.678,29.252.019-2.646a4.153,4.153,0,0,1,4.336-4.133l7.865.013,0-17.132-4.186-.01a6.79,6.79,0,0,1-13.3,0l-9.918.007-.022,3.018a4.034,4.034,0,0,1-3.992,3.811l-8.191.022,0,10.284,8.495.05a3.962,3.962,0,0,1,3.7,4.046l.024,2.681ZM23.127,66.842a1.384,1.384,0,0,0,1.318-1.414l-.022-8.253c0-.812-.662-1.158-1.387-1.157l-19.115.018A1.133,1.133,0,0,0,2.749,57.17L2.724,65.43a1.356,1.356,0,0,0,1.219,1.4Zm42.38,0a1.384,1.384,0,0,0,1.318-1.414L66.8,57.174c0-.812-.662-1.158-1.387-1.157L46.3,56.035a1.133,1.133,0,0,0-1.172,1.135L45.1,65.43a1.356,1.356,0,0,0,1.219,1.4Z" transform="translate(0 -0.001)" fill="#19538d"/>
        <path id="Trazado_1033197" data-name="Trazado 1033197" d="M56.872,122.871a1.341,1.341,0,1,1,1.431,2.265,1.357,1.357,0,0,1-1.816-.4,1.293,1.293,0,0,1,.385-1.863" transform="translate(-44.023 -95.989)" fill="#19538d"/>
      </g>
    </g>
  </g>
</svg>
