<svg xmlns="http://www.w3.org/2000/svg" xmlns:xlink="http://www.w3.org/1999/xlink" width="69.323" height="69.323" viewBox="0 0 69.323 69.323">
  <defs>
    <clipPath id="clip-path">
      <rect id="Rectángulo_467006" data-name="Rectángulo 467006" width="50.667" height="50.667" fill="#fff"/>
    </clipPath>
  </defs>
  <g id="Grupo_1181049" data-name="Grupo 1181049" transform="translate(-611.838 -7056.464)">
    <rect id="Rectángulo_466433" data-name="Rectángulo 466433" width="69.323" height="69.323" transform="translate(611.838 7056.464)" fill="#19538d"/>
    <g id="Grupo_1180858" data-name="Grupo 1180858" transform="translate(622.749 7065.792)">
      <g id="Grupo_1180857" data-name="Grupo 1180857" clip-path="url(#clip-path)">
        <path id="Trazado_1032109" data-name="Trazado 1032109" d="M27.683,105.43l0,2.871a2.029,2.029,0,0,0,1.967,2l1.815.058A13.839,13.839,0,0,0,26.6,127.606l-20.939.011A5.772,5.772,0,0,1,0,122.135L0,99.97H42.607l0,8.528a13.508,13.508,0,0,0-8.132.355,27.107,27.107,0,0,0,.037-3.423,2.105,2.105,0,0,0-2-1.966l-2.657-.019a2.089,2.089,0,0,0-2.178,1.983m-16.059,4.888a2.288,2.288,0,0,0,2.2-2.448L13.8,105.6a2.091,2.091,0,0,0-2.015-2.138l-2.653-.019a2.126,2.126,0,0,0-2.193,2.059l.008,2.8a2.082,2.082,0,0,0,2.143,2.012Zm10.365,0a2.288,2.288,0,0,0,2.2-2.448l-.02-2.268a2.091,2.091,0,0,0-2.015-2.138l-2.653-.019a2.126,2.126,0,0,0-2.193,2.059l.008,2.8a2.082,2.082,0,0,0,2.143,2.012Zm-10.23,11.5a2.125,2.125,0,0,0,2.044-2.2v-2.433a2.224,2.224,0,0,0-2.286-2.229l-2.257,0a2.3,2.3,0,0,0-2.344,2.268v2.362a2.235,2.235,0,0,0,2.177,2.259Zm10.365,0a2.125,2.125,0,0,0,2.044-2.2v-2.433a2.224,2.224,0,0,0-2.286-2.229l-2.257,0a2.3,2.3,0,0,0-2.344,2.268v2.362a2.235,2.235,0,0,0,2.177,2.259Z" transform="translate(0 -82.701)" fill="#fff"/>
        <path id="Trazado_1032110" data-name="Trazado 1032110" d="M170.862,160.063a11.509,11.509,0,1,1-10.793,12.313,11.479,11.479,0,0,1,10.793-12.313m3.477,15.858a1.128,1.128,0,0,0,1.521-.146,1.148,1.148,0,0,0,.03-1.494l-3.181-3.239-.012-6.371a1.149,1.149,0,1,0-2.3,0v6.838a1.468,1.468,0,0,0,.5,1.035Z" transform="translate(-132.394 -132.395)" fill="#fff"/>
        <path id="Trazado_1032111" data-name="Trazado 1032111" d="M26.54,22.7a5.241,5.241,0,0,0,5.143,5.339A5.186,5.186,0,0,0,36.9,22.853L36.914,20a5.671,5.671,0,0,1,5.736,5.622l.008,5.891-42.589,0,0-5.873A5.694,5.694,0,0,1,5.791,20L5.81,22.7a5.245,5.245,0,0,0,5.144,5.339,5.184,5.184,0,0,0,5.219-5.189l.008-2.859,10.345-.005Z" transform="translate(-0.053 -16.536)" fill="#fff"/>
        <path id="Trazado_1032112" data-name="Trazado 1032112" d="M52.451,6.085A2.915,2.915,0,0,1,49.69,9.2a2.868,2.868,0,0,1-3-2.864V2.867a2.882,2.882,0,1,1,5.758.181Z" transform="translate(-38.624 0)" fill="#fff"/>
        <path id="Trazado_1032113" data-name="Trazado 1032113" d="M172.451,6.085A2.915,2.915,0,0,1,169.69,9.2a2.868,2.868,0,0,1-3-2.864V2.867a2.882,2.882,0,1,1,5.758.181Z" transform="translate(-137.895 0)" fill="#fff"/>
      </g>
    </g>
  </g>
</svg>
