<svg xmlns="http://www.w3.org/2000/svg" xmlns:xlink="http://www.w3.org/1999/xlink" width="128" height="128" viewBox="0 0 128 128">
  <defs>
    <clipPath id="clip-path">
      <rect id="Rectángulo_456267" data-name="Rectángulo 456267" width="128" height="128" fill="none"/>
    </clipPath>
    <clipPath id="clip-path-2">
      <rect id="Rectángulo_466883" data-name="Rectángulo 466883" width="67.715" height="67.729" fill="#19538d"/>
    </clipPath>
  </defs>
  <g id="Grupo_1180061" data-name="Grupo 1180061" transform="translate(511.746 8527) rotate(180)">
    <path id="Trazado_999622" data-name="Trazado 999622" d="M59.07,0A59.07,59.07,0,1,1,0,59.07,59.071,59.071,0,0,1,59.07,0" transform="translate(388.676 8403.93)" fill="#fff"/>
    <g id="Grupo_1179902" data-name="Grupo 1179902" transform="translate(383.746 8399)">
      <g id="Grupo_1179905" data-name="Grupo 1179905" clip-path="url(#clip-path)">
        <path id="Trazado_999618" data-name="Trazado 999618" d="M64,0A64,64,0,1,1,0,64,64,64,0,0,1,64,0" fill="none"/>
        <path id="Trazado_999619" data-name="Trazado 999619" d="M5,59a5,5,0,1,1-5,5,5,5,0,0,1,5-5" fill="#19538d"/>
        <path id="Trazado_999620" data-name="Trazado 999620" d="M21,19a5,5,0,1,1-5,5,5,5,0,0,1,5-5" fill="#19538d"/>
        <path id="Trazado_999621" data-name="Trazado 999621" d="M64,124A60.068,60.068,0,0,1,4,64H7A57,57,0,1,0,22.408,25.024L20.22,22.972A60,60,0,1,1,64,124" fill="#19538d"/>
        <rect id="Rectángulo_456268" data-name="Rectángulo 456268" width="128" height="128" fill="none"/>
        <rect id="Rectángulo_456269" data-name="Rectángulo 456269" width="128" height="128" fill="none"/>
      </g>
    </g>
    <g id="Grupo_1180624" data-name="Grupo 1180624" transform="translate(481.604 8496.864) rotate(180)">
      <g id="Grupo_1180623" data-name="Grupo 1180623" clip-path="url(#clip-path-2)">
        <path id="Trazado_1031764" data-name="Trazado 1031764" d="M40.622,26.623l-3.858,5.689a1.148,1.148,0,0,1-1.03.494L1.96,32.8,1.976,62.59a3.186,3.186,0,0,0,3.159,3.192L58.5,65.768a6.142,6.142,0,0,1-.971-3.154V39.788a.983.983,0,1,1,1.964,0l.015,21.79a2.82,2.82,0,0,0,2.1-.276l.009-49.033-4.244-.026a1.917,1.917,0,0,1-1.9-2.1L55.44,6.115l-49.333,0,0,11.847a1,1,0,1,1-2,.146l0-12.149A1.931,1.931,0,0,1,5.942,4.091l2.268-.047V2.059A1.943,1.943,0,0,1,9.985,0L61.747,0a1.868,1.868,0,0,1,1.87,1.954l.016,26.767,2.221.036A1.905,1.905,0,0,1,67.715,30.5l-.029,32.333a5.071,5.071,0,0,1-5.28,4.9H5.308a5.069,5.069,0,0,1-5.281-4.9L0,32.617a1.937,1.937,0,0,1,2.071-1.788l2-.016.021-8.355a1.064,1.064,0,0,1,.9-1.079,1.033,1.033,0,0,1,1.083.872L6.1,30.842l29.218.011,3.731-5.564a1.3,1.3,0,0,1,1.035-.671l17.581.032A1.882,1.882,0,0,1,59.5,26.638l-.009,8.7a.978.978,0,0,1-.977,1.084,1,1,0,0,1-.989-1.085l0-8.686ZM61.557,8.686l.037-6.73-51.374,0,0,2.118,46.592.011Zm-1.352,1.535L57.486,7.5l-.043,2.764ZM65.756,62.3l-.01-31.506-2.1-.032-.084,30.506c-.005,1.9-2.262,2.638-3.862,2.347a3.092,3.092,0,0,0,3.529,2.062A3.21,3.21,0,0,0,65.756,62.3" transform="translate(0 0.001)" fill="#19538d"/>
        <path id="Trazado_1031765" data-name="Trazado 1031765" d="M45.536,244.8l-14.42-.01-.018,6.191,6.566.021a1,1,0,1,1,.069,2l-6.753-.011A1.877,1.877,0,0,1,29.09,251.1l.01-6.555a1.852,1.852,0,0,1,1.657-1.706l15.227.015a1.751,1.751,0,0,1,1.492,1.671l.01,6.6a1.9,1.9,0,0,1-1.9,1.875L42.2,253a.973.973,0,0,1-1.1-.933A1.036,1.036,0,0,1,42.055,251l3.447-.01Z" transform="translate(-22.933 -191.443)" fill="#19538d"/>
        <path id="Trazado_1031766" data-name="Trazado 1031766" d="M84.476,60.2l-34.665,0c-.736,0-1.113-.375-1.164-.917-.066-.7.351-1.11,1.161-1.109l34.63,0a.979.979,0,0,1,1.058.915c.03.508-.24.96-1.02,1.112" transform="translate(-38.345 -45.862)" fill="#19538d"/>
        <path id="Trazado_1031767" data-name="Trazado 1031767" d="M72.128,112.2l-22.348.012c-.708,0-1.109-.316-1.16-.894-.06-.693.374-1.1,1.159-1.1l22.35.007a.988.988,0,1,1,0,1.973" transform="translate(-38.325 -86.895)" fill="#19538d"/>
        <path id="Trazado_1031768" data-name="Trazado 1031768" d="M72.188,92.815l-22.6.007a1.012,1.012,0,0,1-.935-1.01c.008-.6.43-.975,1.137-.975l22.4.006a.961.961,0,0,1,1,.971.977.977,0,0,1-1.007,1" transform="translate(-38.354 -71.611)" fill="#19538d"/>
      </g>
    </g>
  </g>
</svg>
