<svg xmlns="http://www.w3.org/2000/svg" xmlns:xlink="http://www.w3.org/1999/xlink" width="128" height="128" viewBox="0 0 128 128">
  <defs>
    <clipPath id="clip-path">
      <rect id="Rectángulo_456267" data-name="Rectángulo 456267" width="128" height="128" fill="none"/>
    </clipPath>
    <clipPath id="clip-path-2">
      <rect id="Rectángulo_467142" data-name="Rectángulo 467142" width="62.67" height="62.657" fill="#19538d"/>
    </clipPath>
  </defs>
  <g id="Grupo_1180320" data-name="Grupo 1180320" transform="translate(511.746 8527) rotate(180)">
    <path id="Trazado_999622" data-name="Trazado 999622" d="M59.07,0A59.07,59.07,0,1,1,0,59.07,59.071,59.071,0,0,1,59.07,0" transform="translate(388.676 8403.93)" fill="#fff"/>
    <g id="Grupo_1179902" data-name="Grupo 1179902" transform="translate(383.746 8399)">
      <g id="Grupo_1179905" data-name="Grupo 1179905" clip-path="url(#clip-path)">
        <path id="Trazado_999618" data-name="Trazado 999618" d="M64,0A64,64,0,1,1,0,64,64,64,0,0,1,64,0" fill="none"/>
        <path id="Trazado_999619" data-name="Trazado 999619" d="M5,59a5,5,0,1,1-5,5,5,5,0,0,1,5-5" fill="#19538d"/>
        <path id="Trazado_999620" data-name="Trazado 999620" d="M21,19a5,5,0,1,1-5,5,5,5,0,0,1,5-5" fill="#19538d"/>
        <path id="Trazado_999621" data-name="Trazado 999621" d="M64,124A60.068,60.068,0,0,1,4,64H7A57,57,0,1,0,22.408,25.024L20.22,22.972A60,60,0,1,1,64,124" fill="#19538d"/>
        <rect id="Rectángulo_456268" data-name="Rectángulo 456268" width="128" height="128" fill="none"/>
        <rect id="Rectángulo_456269" data-name="Rectángulo 456269" width="128" height="128" fill="none"/>
      </g>
    </g>
    <g id="Grupo_1181003" data-name="Grupo 1181003" transform="translate(488.264 8497.682) rotate(180)">
      <g id="Grupo_1181002" data-name="Grupo 1181002" transform="translate(7.771 2.257)" clip-path="url(#clip-path-2)">
        <path id="Trazado_1033204" data-name="Trazado 1033204" d="M4,20.112,7.027,23.18c.518-.492.929-1.253,1.608-1.4A6.164,6.164,0,0,1,11.2,22.851c.512.393.306,1.4.252,2.14l4.251.053c.03-.668-.28-1.734.292-2.2a5.82,5.82,0,0,1,2.555-1.061c.687.126,1.09.908,1.607,1.381l3.032-3.008c-.37-.515-1.262-.909-1.36-1.637a5.747,5.747,0,0,1,1.044-2.56c.4-.523,1.411-.293,2.134-.239l.055-4.265c-.672,0-1.714.264-2.184-.283A8.965,8.965,0,0,1,21.738,8.6a6.534,6.534,0,0,1,1.471-1.609L20.171,3.955a8.084,8.084,0,0,1-1.609,1.5,11.162,11.162,0,0,1-2.576-1.176c-.534-.478-.26-1.517-.279-2.176H11.488c-.021.657.256,1.7-.28,2.175A9.887,9.887,0,0,1,8.641,5.434,8.343,8.343,0,0,1,6.993,3.959L3.987,7A6.492,6.492,0,0,1,5.455,8.6a10.258,10.258,0,0,1-1.132,2.576c-.427.522-1.437.258-2,.308-.462.041.23,1.945-1.159,2.062A1.017,1.017,0,0,1,.034,12.516C-.009,10.755-.19,9.436,1.071,9.4a5.629,5.629,0,0,0,2.048-.148c-.312-.761-.954-1.084-1.347-1.583A1.194,1.194,0,0,1,2.015,5.95l4.074-4.07C7.3.667,7.947,2.326,9.285,3.088,9.606,1.594,9.045.006,10.47.005L16.725,0c1.428,0,.851,1.611,1.192,3.092,1.318-.776,1.986-2.417,3.19-1.221l2.324,2.308,24.787.013c.628,0,.9.7.862,1.105a1.038,1.038,0,0,1-1.052.967l-22.5.008c.615,1.448-.822,1.71-1.447,2.977,1.471.359,3.081-.261,3.085,1.191l.018,6.055a1.127,1.127,0,0,1-1.069,1.256,6.926,6.926,0,0,0-2.038.128c.63,1.277,2.069,1.526,1.447,3.006l14.17,0a1,1,0,0,1,1.037.949,1.039,1.039,0,0,1-1.045,1.134l-16.264.005L21,25.356c-1.072,1.054-1.843-.613-3.086-1.317-.315,1.476.223,3.1-1.19,3.1H10.474c-1.31,0-.962-1.423-1.144-2.888-.813-.25-1.953,2.169-2.881,1.262L1.91,21.078c-1.218-1.19.453-1.883,1.208-3.2a6.47,6.47,0,0,0-2.039-.131A1.049,1.049,0,0,1,.04,16.608a1.092,1.092,0,0,1,1.23-.953l2.31.005c.336,0,.828.139.944.515.235.758.862,1.556.817,2.361-.034.619-.781,1-1.342,1.577" transform="translate(0 0)" fill="#19538d"/>
        <path id="Trazado_1033205" data-name="Trazado 1033205" d="M142.71,212.108,107.2,212.1v14.622l9.393-.007a1.014,1.014,0,0,1,1.033.953,1.036,1.036,0,0,1-1.039,1.13l-10.417.013a1.08,1.08,0,0,1-1.054-1.078l0-16.668a1.015,1.015,0,0,1,1.077-1.049l37.516,0a1.012,1.012,0,0,1,1.076,1.054l0,16.665a1.073,1.073,0,0,1-1.068,1.077H120.808a1.059,1.059,0,0,1-1.053-.968,1.026,1.026,0,0,1,.862-1.12l22.094,0Z" transform="translate(-83.166 -166.156)" fill="#19538d"/>
        <path id="Trazado_1033206" data-name="Trazado 1033206" d="M42.218,142.1l-.02,14.62h8.354a1.006,1.006,0,0,1,1.032.948,1.034,1.034,0,0,1-1.038,1.131l-9.375.013a1.08,1.08,0,0,1-1.052-1.078l0-16.668a1.014,1.014,0,0,1,1.077-1.049l37.515,0a1.01,1.01,0,0,1,1.073,1.046l0,10.416a1.038,1.038,0,1,1-2.076,0L77.7,142.1Z" transform="translate(-31.741 -110.774)" fill="#19538d"/>
        <path id="Trazado_1033207" data-name="Trazado 1033207" d="M206.337,38.8a1.061,1.061,0,0,1-1.155-.968,1.008,1.008,0,0,1,1.041-1.119l16.693,0V22.092h-8.344a1.063,1.063,0,0,1-1.038-.968,1.012,1.012,0,0,1,1.034-1.116L223.952,20A1.026,1.026,0,0,1,225,21.058V37.723a1.075,1.075,0,0,1-1.062,1.077Z" transform="translate(-162.329 -15.824)" fill="#19538d"/>
        <path id="Trazado_1033208" data-name="Trazado 1033208" d="M14.284,191.829a1.19,1.19,0,0,1,.055,1.778l-1.875,1.882a1.125,1.125,0,0,1-1.661.037,1.279,1.279,0,0,1,.242-1.718l-9.876-.015a1.049,1.049,0,0,1-1.05-1.064v-16.67a1.024,1.024,0,0,1,1.044-1.048l4.171-.005a1.006,1.006,0,0,1,1.03.946,1.022,1.022,0,0,1-1.032,1.131L2.2,177.1l0,14.618,8.845-.031A1.242,1.242,0,0,1,10.837,190a1.08,1.08,0,0,1,1.627.013Z" transform="translate(-0.094 -138.458)" fill="#19538d"/>
        <path id="Trazado_1033209" data-name="Trazado 1033209" d="M45.031,42.384a4.208,4.208,0,1,0-2.5,2.5,1.1,1.1,0,0,1,1.358.336,1.024,1.024,0,0,1-.343,1.5,6.316,6.316,0,1,1,3.251-3.2c-.245.512-1.034.47-1.4.2a1.082,1.082,0,0,1-.363-1.336" transform="translate(-27.518 -27.405)" fill="#19538d"/>
        <path id="Trazado_1033210" data-name="Trazado 1033210" d="M240.533,131.339a1.119,1.119,0,0,1-.22-1.532l2.17-2.2a1.049,1.049,0,0,1,1.526.052,1.232,1.232,0,0,1-.227,1.687l2.577.041.006-8.344a1.03,1.03,0,0,1,.951-1.039,1.019,1.019,0,0,1,1.123,1.043l0,9.376a1.038,1.038,0,0,1-1.04,1.054l-3.623.028a1.22,1.22,0,0,1,.211,1.673,1.068,1.068,0,0,1-1.626-.009Z" transform="translate(-189.95 -94.936)" fill="#19538d"/>
        <path id="Trazado_1033211" data-name="Trazado 1033211" d="M139.273,237.379c.119-1.5-1.953-.76-2.054-2.089-.113-1.484,1.965-.771,2.055-2.09a1.025,1.025,0,0,0-.937-1.124c-1.51-.118-.759,2.2-2.27,2.064a1.065,1.065,0,0,1-.947-1.231,3.1,3.1,0,0,1,2.163-2.781,3.167,3.167,0,0,1,3.536,1.184,3.215,3.215,0,0,1-.215,3.889,3.224,3.224,0,0,1,.22,3.9,3.165,3.165,0,0,1-3.544,1.176,3.072,3.072,0,0,1-2.154-2.975,1.025,1.025,0,0,1,.944-1.04c1.469-.137.775,1.971,2.089,2.063a1.021,1.021,0,0,0,1.114-.941" transform="translate(-106.899 -181.956)" fill="#19538d"/>
        <path id="Trazado_1033212" data-name="Trazado 1033212" d="M66.263,170.422a1.123,1.123,0,0,1-.982-.5,1.014,1.014,0,0,1-.027-1.051l3.931-6.048c.194-.382-.7-.868-1.046-.77-1.395.4-.624,2.206-2.073,2.075a1.067,1.067,0,0,1-.947-1.237,3.1,3.1,0,0,1,3.426-2.906,3.069,3.069,0,0,1,2.794,3.473l-3.193,4.808,2.183.062a1.04,1.04,0,0,1,0,2.079Z" transform="translate(-51.515 -126.564)" fill="#19538d"/>
        <path id="Trazado_1033213" data-name="Trazado 1033213" d="M198.935,62.108,181.23,62.1a1.039,1.039,0,0,1-1.049-.961,1.012,1.012,0,0,1,1.044-1.122l17.9.014c.615,0,.9.7.857,1.1a1.068,1.068,0,0,1-1.049.978" transform="translate(-142.55 -47.483)" fill="#19538d"/>
        <path id="Trazado_1033214" data-name="Trazado 1033214" d="M128.935,187.108,111.23,187.1a1.039,1.039,0,0,1-1.049-.961,1.012,1.012,0,0,1,1.044-1.122l17.9.014c.615,0,.9.7.857,1.1a1.068,1.068,0,0,1-1.049.978" transform="translate(-87.168 -146.378)" fill="#19538d"/>
        <path id="Trazado_1033215" data-name="Trazado 1033215" d="M197.892,252.108l-16.664-.009a1.039,1.039,0,0,1-1.048-.961,1.013,1.013,0,0,1,1.043-1.122l16.861.014c.613,0,.9.694.857,1.1a1.069,1.069,0,0,1-1.048.978" transform="translate(-142.549 -197.804)" fill="#19538d"/>
        <path id="Trazado_1033216" data-name="Trazado 1033216" d="M197.892,272.108l-16.664-.009a1.039,1.039,0,0,1-1.048-.961,1.013,1.013,0,0,1,1.043-1.122l16.861.014c.613,0,.9.694.857,1.1a1.069,1.069,0,0,1-1.048.978" transform="translate(-142.549 -213.627)" fill="#19538d"/>
        <path id="Trazado_1033217" data-name="Trazado 1033217" d="M206.848,82.108,191.226,82.1a1.039,1.039,0,0,1-1.047-.96,1.014,1.014,0,0,1,1.041-1.121l15.819.015c.61,0,.9.693.856,1.1a1.069,1.069,0,0,1-1.047.978" transform="translate(-150.46 -63.306)" fill="#19538d"/>
        <path id="Trazado_1033218" data-name="Trazado 1033218" d="M146.31,50.438a1.053,1.053,0,0,1-1.132-.963,1.013,1.013,0,0,1,1.033-1.117l1.041-.031-.029-4.655a1.2,1.2,0,0,1-1.674.213,1.079,1.079,0,0,1,.014-1.624l1.984-1.97a1.085,1.085,0,0,1,1.165-.214,1.042,1.042,0,0,1,.619.962l0,7.271a2.4,2.4,0,0,0,.833.039,1.051,1.051,0,0,1,1.239.947,1.025,1.025,0,0,1-1.034,1.131Z" transform="translate(-114.857 -31.643)" fill="#19538d"/>
        <path id="Trazado_1033219" data-name="Trazado 1033219" d="M218.717,42.108l-12.5-.01a1.038,1.038,0,0,1-1.044-.959,1.015,1.015,0,0,1,1.038-1.121l12.693.017c.6,0,.893.687.853,1.1a1.071,1.071,0,0,1-1.044.977" transform="translate(-162.325 -31.66)" fill="#19538d"/>
        <path id="Trazado_1033220" data-name="Trazado 1033220" d="M148.717,167.108l-12.5-.01a1.038,1.038,0,0,1-1.044-.959,1.015,1.015,0,0,1,1.038-1.121l12.693.017c.6,0,.893.687.853,1.1a1.071,1.071,0,0,1-1.044.977" transform="translate(-106.943 -130.555)" fill="#19538d"/>
        <path id="Trazado_1033221" data-name="Trazado 1033221" d="M213.717,232.108l-12.5-.01a1.039,1.039,0,0,1-1.044-.959,1.015,1.015,0,0,1,1.038-1.121l12.693.017c.6,0,.893.687.853,1.1a1.071,1.071,0,0,1-1.044.977" transform="translate(-158.369 -181.981)" fill="#19538d"/>
      </g>
    </g>
  </g>
</svg>
