<svg xmlns="http://www.w3.org/2000/svg" xmlns:xlink="http://www.w3.org/1999/xlink" width="128" height="128" viewBox="0 0 128 128">
  <defs>
    <clipPath id="clip-path">
      <rect id="Rectángulo_456267" data-name="Rectángulo 456267" width="128" height="128" fill="none"/>
    </clipPath>
    <clipPath id="clip-path-2">
      <rect id="Rectángulo_467143" data-name="Rectángulo 467143" width="61.565" height="61.482" fill="#19538d"/>
    </clipPath>
  </defs>
  <g id="Grupo_1180323" data-name="Grupo 1180323" transform="translate(511.746 8527) rotate(180)">
    <path id="Trazado_999622" data-name="Trazado 999622" d="M59.07,0A59.07,59.07,0,1,1,0,59.07,59.071,59.071,0,0,1,59.07,0" transform="translate(388.676 8403.93)" fill="#fff"/>
    <g id="Grupo_1179902" data-name="Grupo 1179902" transform="translate(383.746 8399)">
      <g id="Grupo_1179905" data-name="Grupo 1179905" clip-path="url(#clip-path)">
        <path id="Trazado_999618" data-name="Trazado 999618" d="M64,0A64,64,0,1,1,0,64,64,64,0,0,1,64,0" fill="none"/>
        <path id="Trazado_999619" data-name="Trazado 999619" d="M5,59a5,5,0,1,1-5,5,5,5,0,0,1,5-5" fill="#19538d"/>
        <path id="Trazado_999620" data-name="Trazado 999620" d="M21,19a5,5,0,1,1-5,5,5,5,0,0,1,5-5" fill="#19538d"/>
        <path id="Trazado_999621" data-name="Trazado 999621" d="M64,124A60.068,60.068,0,0,1,4,64H7A57,57,0,1,0,22.408,25.024L20.22,22.972A60,60,0,1,1,64,124" fill="#19538d"/>
        <rect id="Rectángulo_456268" data-name="Rectángulo 456268" width="128" height="128" fill="none"/>
        <rect id="Rectángulo_456269" data-name="Rectángulo 456269" width="128" height="128" fill="none"/>
      </g>
    </g>
    <g id="Grupo_1181005" data-name="Grupo 1181005" transform="translate(478.529 8493.741) rotate(180)">
      <g id="Grupo_1181004" data-name="Grupo 1181004" clip-path="url(#clip-path-2)">
        <path id="Trazado_1033222" data-name="Trazado 1033222" d="M61.566,75.2c.022,3.232-1.922,5.838-5.208,5.844l-7.752.014a6.328,6.328,0,0,1-2.448-.423l-.042,4.911a3.729,3.729,0,0,1-1.354,2.873,4.031,4.031,0,0,1-3.308.752L30.78,86.4,20.112,89.17a3.968,3.968,0,0,1-3.31-.754,3.742,3.742,0,0,1-1.352-2.874l-.042-4.91a5.9,5.9,0,0,1-2.242.419L5.209,81.04c-3.3,0-5.2-2.634-5.208-5.74-.008-3.74,1.509-7.1,4.924-8.98a5.122,5.122,0,1,1,8.732-.006,10.234,10.234,0,0,1,3.25,2.973,15.5,15.5,0,0,1,7.674-7.44,8.406,8.406,0,0,1-1.989-5.381l-.029-9.426a5.924,5.924,0,0,0-5.9-5.908L9.287,41.1a1.021,1.021,0,0,1-1.025-1.024L8.2,38.265l-5.55,4.889,5.532,4.868.077-1.794a1.01,1.01,0,0,1,1.023-1.013H14.41A4.042,4.042,0,0,1,18.486,49.3l.006,14.318a1.01,1.01,0,0,1-.934,1.025.991.991,0,0,1-1.106-1.023l-.012-14.312a2,2,0,0,0-2.033-2.046l-4.09,0-.009,3.06a1.018,1.018,0,0,1-.48.879c-.213.119-.78.277-1.06.032L.376,43.876a1,1,0,0,1,0-1.446L8.65,35.171a1.069,1.069,0,0,1,1.035-.125,1,1,0,0,1,.621.94l.015,3.084,5.927-.011a8.246,8.246,0,0,1,8.391,8.178l.043,3.748a8.22,8.22,0,0,1,12.2,0l.042-3.757a8.049,8.049,0,0,1,7.771-8.138l6.556-.036.014-3.067a.984.984,0,0,1,.479-.874c.211-.121.77-.282,1.053-.034l8.388,7.347a1.027,1.027,0,0,1-.1,1.549L52.8,51.228c-.284.249-.837.092-1.052-.036a1,1,0,0,1-.479-.874l-.008-3.058h-4.1A1.992,1.992,0,0,0,45.121,49.3l-.01,13.288a.988.988,0,0,1-.931,1.024,1.009,1.009,0,0,1-1.1-1.02l0-13.294a4.035,4.035,0,0,1,4.076-4.082l5.126-.007A1,1,0,0,1,53.3,46.229l.056,1.814,5.56-4.885-5.556-4.9L53.3,40.073A1,1,0,0,1,52.277,41.1l-7.567.053A5.85,5.85,0,0,0,39,47.036l-.015,9.016a8.7,8.7,0,0,1-2.009,5.791,15.536,15.536,0,0,1,7.679,7.444,10.245,10.245,0,0,1,3.247-2.973,5.128,5.128,0,1,1,8.737,0A9.691,9.691,0,0,1,61.566,75.2M29.751,50.428a6.134,6.134,0,1,0,7.079,5,6.1,6.1,0,0,0-7.079-5M8.656,60.656a3.019,3.019,0,0,0-2.325,3.763,3.07,3.07,0,0,0,3.605,2.212,3.111,3.111,0,0,0,2.347-3.657,3.03,3.03,0,0,0-3.627-2.318m43.017,0a3.018,3.018,0,0,0-2.35,3.8,3.07,3.07,0,1,0,2.35-3.8M38.008,75.805a.946.946,0,0,1,1.222-.863c1,.184.388,1.29,1.34,2.056A3.987,3.987,0,0,1,41.9,81.159,4.08,4.08,0,0,1,39.16,84.1l-4.208,1.215,6.9,1.857a2.153,2.153,0,0,0,1.581-.321,1.774,1.774,0,0,0,.64-1.324l.017-9.62a13.244,13.244,0,0,0-8.9-12.536,8.141,8.141,0,0,1-8.81-.014A13.164,13.164,0,0,0,17.495,75.7l0,9.831a1.777,1.777,0,0,0,.636,1.328,2.25,2.25,0,0,0,1.612.344L38.6,82.124a2.106,2.106,0,0,0,1.281-2.694,2.131,2.131,0,0,0-2.651-1.346L21.772,82.042a1.032,1.032,0,0,1-1.22-.887c-.148-.644.533-.924.914-1.225l.106-3.988a1,1,0,0,1,1.108-1.028.981.981,0,0,1,.926,1.011l.027,3.526ZM15.344,78.084c.188-2.222-.029-4.234.646-6.2a7.47,7.47,0,0,0-3.838-3.993,5.2,5.2,0,0,1-5.74,0A7.4,7.4,0,0,0,2.1,75.312a3.978,3.978,0,0,0,.844,2.742,3.323,3.323,0,0,0,2.436.953L13.4,78.99c.537,0,1.862-.225,1.944-.906m41.125.893c2.095,0,2.958-1.689,3.026-3.454.126-3.279-1.247-6.274-4.35-7.633a5.175,5.175,0,0,1-5.729,0A7.393,7.393,0,0,0,45.6,71.843a25.946,25.946,0,0,1,.59,6.3c.191.513,1.236.837,1.791.837Z" transform="translate(-0.001 -27.793)" fill="#19538d"/>
        <path id="Trazado_1033223" data-name="Trazado 1033223" d="M123.377,8.107l-4.86-5.52-4.869,5.53,1.795.08a1.019,1.019,0,0,1,1.02,1.027l.08,6.138a1.011,1.011,0,0,1-2.016.121l-.1-5.218-3.076-.019a1.01,1.01,0,0,1-.872-.486,1.07,1.07,0,0,1,.05-1.174L117.792.315a.993.993,0,0,1,1.449,0L126.5,8.587a1.073,1.073,0,0,1,.05,1.179,1.135,1.135,0,0,1-1.062.5l-2.873-.006.009,5.1a.992.992,0,0,1-.945,1.026,1.007,1.007,0,0,1-1.088-1.029l-.018-6.126A1.018,1.018,0,0,1,121.588,8.2Z" transform="translate(-87.734 0)" fill="#19538d"/>
        <path id="Trazado_1033224" data-name="Trazado 1033224" d="M169.331,207.04l-2.962-.01a.987.987,0,0,1-1.02-1.112c.047-.612.516-.94,1.214-.94h2.668c.7,0,1.169.329,1.212.94a1,1,0,0,1-1.113,1.123" transform="translate(-131.484 -163)" fill="#19538d"/>
      </g>
    </g>
  </g>
</svg>
