<svg xmlns="http://www.w3.org/2000/svg" xmlns:xlink="http://www.w3.org/1999/xlink" width="150" height="150" viewBox="0 0 150 150">
  <defs>
    <clipPath id="clip-path">
      <rect id="Rectángulo_456267" data-name="Rectángulo 456267" width="150" height="150" fill="none"/>
    </clipPath>
    <clipPath id="clip-path-2">
      <rect id="Rectángulo_467123" data-name="Rectángulo 467123" width="79.274" height="79.359" fill="#19538d"/>
    </clipPath>
  </defs>
  <g id="Grupo_1180280" data-name="Grupo 1180280" transform="translate(533.746 8549) rotate(180)">
    <path id="Trazado_999622" data-name="Trazado 999622" d="M70.07,0A70.07,70.07,0,1,1,0,70.07,70.071,70.071,0,0,1,70.07,0" transform="translate(388.676 8403.93)" fill="#e1f5ff"/>
    <g id="Grupo_1179902" data-name="Grupo 1179902" transform="translate(383.746 8399)">
      <g id="Grupo_1179905" data-name="Grupo 1179905" clip-path="url(#clip-path)">
        <path id="Trazado_999618" data-name="Trazado 999618" d="M75,0A75,75,0,1,1,0,75,75,75,0,0,1,75,0" fill="none"/>
        <path id="Trazado_999619" data-name="Trazado 999619" d="M5.859,59A5.859,5.859,0,1,1,0,64.859,5.86,5.86,0,0,1,5.859,59" transform="translate(0 10.141)" fill="#19538d"/>
        <path id="Trazado_999620" data-name="Trazado 999620" d="M21.859,19A5.859,5.859,0,1,1,16,24.859,5.86,5.86,0,0,1,21.859,19" transform="translate(2.75 3.266)" fill="#19538d"/>
        <path id="Trazado_999621" data-name="Trazado 999621" d="M74.313,144.625A70.392,70.392,0,0,1,4,74.313H7.516A66.8,66.8,0,1,0,25.572,28.638l-2.564-2.4a70.312,70.312,0,1,1,51.3,118.392" transform="translate(0.688 0.688)" fill="#19538d"/>
        <rect id="Rectángulo_456268" data-name="Rectángulo 456268" width="150" height="150" fill="none"/>
        <rect id="Rectángulo_456269" data-name="Rectángulo 456269" width="150" height="150" fill="none"/>
      </g>
    </g>
    <g id="Grupo_1180967" data-name="Grupo 1180967" transform="translate(491.775 8516.692) rotate(180)">
      <g id="Grupo_1180966" data-name="Grupo 1180966" clip-path="url(#clip-path-2)">
        <path id="Trazado_1033090" data-name="Trazado 1033090" d="M72.676,39.95a23.244,23.244,0,0,0-18.1-6.926l-.024-20.851A6.72,6.72,0,0,0,48.4,5.489L33.812,5.453a6.647,6.647,0,0,0-13.077-.006l-14.1.046A6.56,6.56,0,0,0,0,11.932L0,72.854a6.515,6.515,0,0,0,6.419,6.419l41.01.085h.013A8.024,8.024,0,0,0,50.2,78.79c.154-.054.306-.106.456-.155A23.153,23.153,0,0,0,72.676,39.95M38.438,12.179a1.51,1.51,0,0,1-1.552,1.537H17.658a1.511,1.511,0,0,1-1.552-1.538V9.4a1.5,1.5,0,0,1,1.533-1.526l4.106-.021a1.227,1.227,0,0,0,1.206-1.23,4.325,4.325,0,0,1,4.189-4.268l.119,0a4.328,4.328,0,0,1,4.33,4.265A1.206,1.206,0,0,0,32.8,7.853l4.1.015A1.5,1.5,0,0,1,38.438,9.4ZM71.658,42.3a20.966,20.966,0,0,1,5.233,12.6l-5.856.048a15.487,15.487,0,0,0-3.555-8.469ZM13.708,10.96l-7.018.02a1.222,1.222,0,0,0-1.227,1.267V72.533a1.271,1.271,0,0,0,.379.932,1.457,1.457,0,0,0,1.034.374l34.345-.006A29.328,29.328,0,0,0,45.51,76.7l.338.2-39.7.035c-1.864-.349-3.751-1.765-3.751-3.8l-.007-61.5A3.944,3.944,0,0,1,5.812,7.979l8.216-.129a8.493,8.493,0,0,0-.32,3.11M35.364,54.91A20.942,20.942,0,0,1,40.6,42.3l4.172,4.181a15.035,15.035,0,0,0-3.493,8.389ZM46.683,13.377l0,21.607a24.143,24.143,0,0,0-8.24,6.205l-8.393.007h-.011a1.227,1.227,0,0,0-1.19,1.08,1.2,1.2,0,0,0,1.2,1.3l6.6.045a23.557,23.557,0,0,0-3.711,12.657l-2.892.038a1.189,1.189,0,0,0-1.2,1.071,1.144,1.144,0,0,0,.272.859,1.3,1.3,0,0,0,.927.442l3.065-.008A23.378,23.378,0,0,0,38.752,71.41l-30.9.031.008-58.048,6.1,0a3.944,3.944,0,0,0,3.714,2.709l18.935.025h.007a4.037,4.037,0,0,0,3.974-2.743ZM42.1,57.346h0a1.388,1.388,0,0,0,1.481-1.5A12.566,12.566,0,0,1,56.126,43.568h.134A12.471,12.471,0,0,1,68.688,56.094,1.212,1.212,0,0,0,69.9,57.32l6.977.019a20.79,20.79,0,0,1-41.513,0ZM69.958,40.6,65.8,44.785a15,15,0,0,0-8.407-3.472l-.048-5.945A21,21,0,0,1,69.958,40.6M46.494,44.792,42.3,40.6a21.042,21.042,0,0,1,12.612-5.234l.038,5.872a15.373,15.373,0,0,0-8.452,3.555m3.994-11.08c-.421.1-.855.2-1.4.3l-.018-21.8a1.232,1.232,0,0,0-1.223-1.236l-7.018,0a8.486,8.486,0,0,0-.318-3.12l8.2.124A3.869,3.869,0,0,1,52.128,11.6l.06,21.777a15.223,15.223,0,0,0-1.7.334" transform="translate(0 0)" fill="#19538d"/>
        <path id="Trazado_1033091" data-name="Trazado 1033091" d="M61.66,83.708a.966.966,0,0,0-.766.269l-6.035,5.99-3-2.951a.949.949,0,0,0-.764-.26,1.2,1.2,0,0,0-.75,2.047l2.829,2.8a2.276,2.276,0,0,0,1.625.657,2.643,2.643,0,0,0,1.835-.744L62.4,85.763a1.239,1.239,0,0,0,.14-1.6,1.256,1.256,0,0,0-.883-.458" transform="translate(-36.256 -60.702)" fill="#19538d"/>
        <path id="Trazado_1033092" data-name="Trazado 1033092" d="M61.66,138.708a.962.962,0,0,0-.766.269l-6.035,5.989-3-2.951a.949.949,0,0,0-.764-.26,1.2,1.2,0,0,0-.75,2.048l2.828,2.8a2.274,2.274,0,0,0,1.625.656,2.644,2.644,0,0,0,1.836-.744l5.772-5.752a1.239,1.239,0,0,0,.141-1.6,1.254,1.254,0,0,0-.883-.459" transform="translate(-36.256 -100.588)" fill="#19538d"/>
        <path id="Trazado_1033093" data-name="Trazado 1033093" d="M61.66,193.708a.962.962,0,0,0-.766.269l-6.035,5.989-3-2.95a.952.952,0,0,0-.764-.26,1.2,1.2,0,0,0-.75,2.048l2.828,2.8a2.274,2.274,0,0,0,1.625.656,2.645,2.645,0,0,0,1.835-.744l5.772-5.752a1.239,1.239,0,0,0,.141-1.6,1.255,1.255,0,0,0-.883-.458" transform="translate(-36.256 -140.473)" fill="#19538d"/>
        <path id="Trazado_1033094" data-name="Trazado 1033094" d="M105.292,95.317a1.2,1.2,0,0,0-.306.906,1.24,1.24,0,0,0,1.206,1.086h0l9.64-.026a1.007,1.007,0,0,0,.771-.36,1.316,1.316,0,0,0,.329-.933,1.227,1.227,0,0,0-1.2-1.074h0l-9.54.005a1.194,1.194,0,0,0-.9.394" transform="translate(-76.131 -68.833)" fill="#19538d"/>
        <path id="Trazado_1033095" data-name="Trazado 1033095" d="M189.189,204.767a5.311,5.311,0,0,0,6.074-3.444,5.394,5.394,0,0,0-2.735-6.584l1.99-8.623a1.368,1.368,0,0,0-.194-1.186,1.069,1.069,0,0,0-.869-.382h-.015c-.671.007-1.065.372-1.242,1.149l-1.951,8.583a5.3,5.3,0,0,0-1.057,10.488m2.128-2.442a2.932,2.932,0,1,1-2.092-5.477,2.932,2.932,0,1,1,2.092,5.477" transform="translate(-134.14 -133.833)" fill="#19538d"/>
      </g>
    </g>
  </g>
</svg>
