<svg xmlns="http://www.w3.org/2000/svg" xmlns:xlink="http://www.w3.org/1999/xlink" width="128" height="128" viewBox="0 0 128 128">
  <defs>
    <clipPath id="clip-path">
      <rect id="Rectángulo_456267" data-name="Rectángulo 456267" width="128" height="128" fill="none"/>
    </clipPath>
    <clipPath id="clip-path-2">
      <rect id="Rectángulo_466885" data-name="Rectángulo 466885" width="68.11" height="68.133" fill="#19538d"/>
    </clipPath>
  </defs>
  <g id="Grupo_1180069" data-name="Grupo 1180069" transform="translate(511.746 8527) rotate(180)">
    <path id="Trazado_999622" data-name="Trazado 999622" d="M59.07,0A59.07,59.07,0,1,1,0,59.07,59.071,59.071,0,0,1,59.07,0" transform="translate(388.676 8403.93)" fill="#fff"/>
    <g id="Grupo_1179902" data-name="Grupo 1179902" transform="translate(383.746 8399)">
      <g id="Grupo_1179905" data-name="Grupo 1179905" clip-path="url(#clip-path)">
        <path id="Trazado_999618" data-name="Trazado 999618" d="M64,0A64,64,0,1,1,0,64,64,64,0,0,1,64,0" fill="none"/>
        <path id="Trazado_999619" data-name="Trazado 999619" d="M5,59a5,5,0,1,1-5,5,5,5,0,0,1,5-5" fill="#19538d"/>
        <path id="Trazado_999620" data-name="Trazado 999620" d="M21,19a5,5,0,1,1-5,5,5,5,0,0,1,5-5" fill="#19538d"/>
        <path id="Trazado_999621" data-name="Trazado 999621" d="M64,124A60.068,60.068,0,0,1,4,64H7A57,57,0,1,0,22.408,25.024L20.22,22.972A60,60,0,1,1,64,124" fill="#19538d"/>
        <rect id="Rectángulo_456268" data-name="Rectángulo 456268" width="128" height="128" fill="none"/>
        <rect id="Rectángulo_456269" data-name="Rectángulo 456269" width="128" height="128" fill="none"/>
      </g>
    </g>
    <g id="Grupo_1180628" data-name="Grupo 1180628" transform="translate(480.15 8497.066) rotate(180)">
      <g id="Grupo_1180627" data-name="Grupo 1180627" clip-path="url(#clip-path-2)">
        <path id="Trazado_1031773" data-name="Trazado 1031773" d="M2.168,8.082l-.005,51.87a1.783,1.783,0,0,0,1.875,1.71l2.411.023L6.464,18.2a1.067,1.067,0,0,1,1.09-.984A1.048,1.048,0,0,1,8.6,18.336l.01,45.839a1.711,1.711,0,0,0,1.679,1.781l46.081.01a1.7,1.7,0,0,0,1.663-1.5l.043-11.676a1.045,1.045,0,0,1,1-1.125,1.034,1.034,0,0,1,1.154,1.138l.027,11.061a4.05,4.05,0,0,1-4.082,4.266L10.257,68.1a3.946,3.946,0,0,1-3.8-4.209l-2.419-.073A4.01,4.01,0,0,1,0,59.789V8.323A3.918,3.918,0,0,1,3.843,4.3l2.61-.05a3.975,3.975,0,0,1,4-4.255L56.6.035c2.3,0,3.658,2.144,3.657,4.218l-.016,29.825a5.947,5.947,0,0,0,.7-.823,3.951,3.951,0,1,1,6.268,4.8L52.345,57.831a3.909,3.909,0,0,1-2.983,1.653,3.83,3.83,0,0,1-3.207-1.337l-6.732-8.99a3.857,3.857,0,0,1,1-5.409,3.94,3.94,0,0,1,5.509,1.011l3.183,4.232,8.955-11.9-.014-33.42c0-.95-1-1.53-1.879-1.538l-45.689.006A1.752,1.752,0,0,0,8.62,3.905L8.584,14.031a1.056,1.056,0,1,1-2.111-.067L6.455,6.489,3.84,6.466A1.676,1.676,0,0,0,2.168,8.082m39.1,39.967,6.215,8.363c.657.885,2.137,1.442,2.945.366L65.654,36.506a1.787,1.787,0,0,0-2.917-2.065L49.98,51.436a1.069,1.069,0,0,1-1.738-.058l-4.112-5.453a1.79,1.79,0,0,0-2.525-.376,1.756,1.756,0,0,0-.338,2.5" transform="translate(0 0)" fill="#19538d"/>
        <path id="Trazado_1031774" data-name="Trazado 1031774" d="M110.254,62.893l-31.475.017a1.108,1.108,0,0,1-1.192-.938,1.041,1.041,0,0,1,1.164-1.2l31.257-.008a1.108,1.108,0,0,1,1.227.829,1.093,1.093,0,0,1-.98,1.3" transform="translate(-61.063 -47.827)" fill="#19538d"/>
        <path id="Trazado_1031775" data-name="Trazado 1031775" d="M101.757,130.056l-23.044.02a1.057,1.057,0,0,1-1.175-.976,1.037,1.037,0,0,1,1-1.15l22.911-.015a1.076,1.076,0,0,1,1.119.782c.111.414-.033,1.338-.808,1.338" transform="translate(-61.026 -100.697)" fill="#19538d"/>
        <path id="Trazado_1031776" data-name="Trazado 1031776" d="M101.543,157.02l-22.82.013a1.058,1.058,0,0,1-1.171-.97,1.07,1.07,0,0,1,1.17-1.183l22.734.007a1.056,1.056,0,0,1,1.151.973,1.017,1.017,0,0,1-1.065,1.16" transform="translate(-61.037 -121.905)" fill="#19538d"/>
        <path id="Trazado_1031777" data-name="Trazado 1031777" d="M94.256,231.128H78.718a1.053,1.053,0,0,1-1.156-.979,1.065,1.065,0,0,1,1.16-1.164l15.735.008a1.047,1.047,0,0,1,.984,1.123,1.091,1.091,0,0,1-1.185,1.013" transform="translate(-61.046 -180.231)" fill="#19538d"/>
        <path id="Trazado_1031778" data-name="Trazado 1031778" d="M131.57,89.935l-15.733-.011a1.153,1.153,0,0,1-1.176-.937,1,1,0,0,1,.918-1.182l16.144.007c.527,0,.826.642.82.974a1.168,1.168,0,0,1-.974,1.149" transform="translate(-90.239 -69.111)" fill="#19538d"/>
        <path id="Trazado_1031779" data-name="Trazado 1031779" d="M84.55,258.026l-6.051.026a1.01,1.01,0,0,1-.937-1.16,1.069,1.069,0,0,1,1.147-.975l5.747.022a.965.965,0,0,1,.926.953c.042.416-.159,1.132-.831,1.134" transform="translate(-61.044 -201.429)" fill="#19538d"/>
        <path id="Trazado_1031780" data-name="Trazado 1031780" d="M221.75,130.07a5.592,5.592,0,0,1-2.025-.017.978.978,0,0,1-.7-1.08,1.028,1.028,0,0,1,1.062-.967l1.656.036c.5.011.8.539.835.933a1.017,1.017,0,0,1-.832,1.095" transform="translate(-172.392 -100.753)" fill="#19538d"/>
        <path id="Trazado_1031781" data-name="Trazado 1031781" d="M221.825,156.878c-1.561.174-2.71.127-2.808-.933a1,1,0,0,1,.876-1.114c1.438-.218,2.6-.045,2.681.936a1.105,1.105,0,0,1-.749,1.11" transform="translate(-172.383 -121.801)" fill="#19538d"/>
      </g>
    </g>
  </g>
</svg>
