<svg xmlns="http://www.w3.org/2000/svg" xmlns:xlink="http://www.w3.org/1999/xlink" width="128" height="128" viewBox="0 0 128 128">
  <defs>
    <clipPath id="clip-path">
      <rect id="Rectángulo_456267" data-name="Rectángulo 456267" width="128" height="128" fill="none"/>
    </clipPath>
    <clipPath id="clip-path-2">
      <rect id="Rectángulo_466889" data-name="Rectángulo 466889" width="59.758" height="64.047" fill="#19538d"/>
    </clipPath>
  </defs>
  <g id="Grupo_1180066" data-name="Grupo 1180066" transform="translate(511.746 8527) rotate(180)">
    <path id="Trazado_999622" data-name="Trazado 999622" d="M59.07,0A59.07,59.07,0,1,1,0,59.07,59.071,59.071,0,0,1,59.07,0" transform="translate(388.676 8403.93)" fill="#fff"/>
    <g id="Grupo_1179902" data-name="Grupo 1179902" transform="translate(383.746 8399)">
      <g id="Grupo_1179905" data-name="Grupo 1179905" clip-path="url(#clip-path)">
        <path id="Trazado_999618" data-name="Trazado 999618" d="M64,0A64,64,0,1,1,0,64,64,64,0,0,1,64,0" fill="none"/>
        <path id="Trazado_999619" data-name="Trazado 999619" d="M5,59a5,5,0,1,1-5,5,5,5,0,0,1,5-5" fill="#19538d"/>
        <path id="Trazado_999620" data-name="Trazado 999620" d="M21,19a5,5,0,1,1-5,5,5,5,0,0,1,5-5" fill="#19538d"/>
        <path id="Trazado_999621" data-name="Trazado 999621" d="M64,124A60.068,60.068,0,0,1,4,64H7A57,57,0,1,0,22.408,25.024L20.22,22.972A60,60,0,1,1,64,124" fill="#19538d"/>
        <rect id="Rectángulo_456268" data-name="Rectángulo 456268" width="128" height="128" fill="none"/>
        <rect id="Rectángulo_456269" data-name="Rectángulo 456269" width="128" height="128" fill="none"/>
      </g>
    </g>
    <g id="Grupo_1180636" data-name="Grupo 1180636" transform="translate(477.625 8497.271) rotate(180)">
      <g id="Grupo_1180635" data-name="Grupo 1180635" clip-path="url(#clip-path-2)">
        <path id="Trazado_1031814" data-name="Trazado 1031814" d="M34.326,57.246A1,1,0,0,1,35.2,58.36a1.106,1.106,0,0,1-1.278,1c-7.434-.367-18.853-.947-25.466-2.923a7.8,7.8,0,0,1-2.9-1.359l-2.17-5.244A47.879,47.879,0,0,0,5.864,61.84l4.994.1a.973.973,0,0,1,.852,1.118,1.1,1.1,0,0,1-1.046.964l-5.525-.024c-1.319-.006-2.546-5.264-3.021-7.657C-.3,42.631.019,28.514.01,14.556A62.075,62.075,0,0,1,15.625.04l6.58-.034a1.1,1.1,0,0,1,1.267.961c.057.736-.481,1.188-1.269,1.191l-5.434.021a28.265,28.265,0,0,0-.783,11.47,1.169,1.169,0,0,1-.336,1.043,1.23,1.23,0,0,1-1.085.189c-3.921-.795-8.893-1.043-12.426.708L2.172,26.9c.023,8.135,1.781,19.221,5.059,26.7a3.622,3.622,0,0,0,1.6.746c6.611,2,18.041,2.51,25.5,2.906M13.7,12.49a34.562,34.562,0,0,1,.416-8.819,57.172,57.172,0,0,0-9.5,8.743,34.844,34.844,0,0,1,9.088.077" transform="translate(0 0)" fill="#19538d"/>
        <path id="Trazado_1031815" data-name="Trazado 1031815" d="M165.843,91.671a12.806,12.806,0,1,0-2.493,2.936,1.1,1.1,0,0,1,1.421.075,1.05,1.05,0,0,1-.033,1.531,14.965,14.965,0,1,1,2.836-3.332,1.063,1.063,0,0,1-1.731-1.209" transform="translate(-110.123 -55.065)" fill="#19538d"/>
        <path id="Trazado_1031816" data-name="Trazado 1031816" d="M66.28,235.342a1.077,1.077,0,0,1-1.2-.991,1.023,1.023,0,0,1,1.077-1.143l32.683,0a8.627,8.627,0,0,0-.512-2.172l-8.892-.231c-.509-.013-.841-.62-.878-.948-.048-.43.223-1.154.839-1.144l12.416.2a55.09,55.09,0,0,1-2.764-9.634,1.138,1.138,0,0,1,.736-1.447c.7-.189,1.234.292,1.386,1.057a45.4,45.4,0,0,0,3.1,10.3,1.461,1.461,0,0,1,.177,1.235,1.191,1.191,0,0,1-1.174.65l-2.669-.013.707,3.015a1.046,1.046,0,0,1-1.074,1.263Z" transform="translate(-51.181 -171.295)" fill="#19538d"/>
        <path id="Trazado_1031817" data-name="Trazado 1031817" d="M192.575,120.864a1.119,1.119,0,0,1,.087,1.536,1.05,1.05,0,0,1-1.535.029l-4.551-4.568-4.514,4.507a1.123,1.123,0,0,1-1.555.118,1.1,1.1,0,0,1,.014-1.653l4.5-4.52-4.477-4.439a1.069,1.069,0,1,1,1.4-1.607l4.584,4.545,4.552-4.532a1.1,1.1,0,0,1,1.572.048,1.159,1.159,0,0,1-.139,1.6l-4.422,4.436Z" transform="translate(-141.684 -86.494)" fill="#19538d"/>
        <path id="Trazado_1031818" data-name="Trazado 1031818" d="M141.283,11.615a1.087,1.087,0,0,1-.957,1.2,1.048,1.048,0,0,1-1.176-1.086l0-9.6-18.1.006a1.061,1.061,0,0,1-1.091-.983A1.035,1.035,0,0,1,121.046.019L140.014,0a1.166,1.166,0,0,1,1.272,1.274Z" transform="translate(-94.344 -0.002)" fill="#19538d"/>
        <path id="Trazado_1031819" data-name="Trazado 1031819" d="M80.3,207.154l-19.163-.008a1.064,1.064,0,0,1-1.073-.982,1.032,1.032,0,0,1,1.068-1.144l19.364,0a1.053,1.053,0,0,1,.875,1.148,1.086,1.086,0,0,1-1.071.991" transform="translate(-47.239 -161.251)" fill="#19538d"/>
        <path id="Trazado_1031820" data-name="Trazado 1031820" d="M66.031,102.159l-14.9-.01a1.063,1.063,0,0,1-1.069-.981,1.038,1.038,0,0,1,1.063-1.146l15.1.015c.621,0,.914.707.874,1.122a1.093,1.093,0,0,1-1.069,1" transform="translate(-39.37 -78.671)" fill="#19538d"/>
        <path id="Trazado_1031821" data-name="Trazado 1031821" d="M61.031,137.159l-14.9-.01a1.063,1.063,0,0,1-1.069-.981,1.038,1.038,0,0,1,1.063-1.146l15.1.015c.621,0,.914.707.874,1.122a1.093,1.093,0,0,1-1.069,1" transform="translate(-35.437 -106.199)" fill="#19538d"/>
        <path id="Trazado_1031822" data-name="Trazado 1031822" d="M66.031,172.159l-14.9-.01a1.063,1.063,0,0,1-1.069-.981,1.038,1.038,0,0,1,1.063-1.146l15.1.015c.621,0,.914.707.874,1.122a1.093,1.093,0,0,1-1.069,1" transform="translate(-39.37 -133.728)" fill="#19538d"/>
      </g>
    </g>
  </g>
</svg>
