<svg xmlns="http://www.w3.org/2000/svg" xmlns:xlink="http://www.w3.org/1999/xlink" width="128" height="128" viewBox="0 0 128 128">
  <defs>
    <clipPath id="clip-path">
      <rect id="Rectángulo_456267" data-name="Rectángulo 456267" width="128" height="128" fill="none"/>
    </clipPath>
    <clipPath id="clip-path-2">
      <rect id="Rectángulo_466888" data-name="Rectángulo 466888" width="70.677" height="64.117" fill="#19538d"/>
    </clipPath>
  </defs>
  <g id="Grupo_1180067" data-name="Grupo 1180067" transform="translate(511.746 8527) rotate(180)">
    <path id="Trazado_999622" data-name="Trazado 999622" d="M59.07,0A59.07,59.07,0,1,1,0,59.07,59.071,59.071,0,0,1,59.07,0" transform="translate(388.676 8403.93)" fill="#fff"/>
    <g id="Grupo_1179902" data-name="Grupo 1179902" transform="translate(383.746 8399)">
      <g id="Grupo_1179905" data-name="Grupo 1179905" clip-path="url(#clip-path)">
        <path id="Trazado_999618" data-name="Trazado 999618" d="M64,0A64,64,0,1,1,0,64,64,64,0,0,1,64,0" fill="none"/>
        <path id="Trazado_999619" data-name="Trazado 999619" d="M5,59a5,5,0,1,1-5,5,5,5,0,0,1,5-5" fill="#19538d"/>
        <path id="Trazado_999620" data-name="Trazado 999620" d="M21,19a5,5,0,1,1-5,5,5,5,0,0,1,5-5" fill="#19538d"/>
        <path id="Trazado_999621" data-name="Trazado 999621" d="M64,124A60.068,60.068,0,0,1,4,64H7A57,57,0,1,0,22.408,25.024L20.22,22.972A60,60,0,1,1,64,124" fill="#19538d"/>
        <rect id="Rectángulo_456268" data-name="Rectángulo 456268" width="128" height="128" fill="none"/>
        <rect id="Rectángulo_456269" data-name="Rectángulo 456269" width="128" height="128" fill="none"/>
      </g>
    </g>
    <g id="Grupo_1180634" data-name="Grupo 1180634" transform="translate(484.084 8495.271) rotate(180)">
      <g id="Grupo_1180633" data-name="Grupo 1180633" clip-path="url(#clip-path-2)">
        <path id="Trazado_1031802" data-name="Trazado 1031802" d="M173.632,36.939c-1.3.154-2.3.6-3.5.664l.013,1.348a1.679,1.679,0,0,1-1.65,1.714,16.433,16.433,0,0,1-8.546-2.245c-1.036-.65-.472-2.2.278-3.02a33.022,33.022,0,0,1-2.873-2.256c-.519.823-1.94,1.773-2.791.93a16.288,16.288,0,0,1-4-7.944,1.65,1.65,0,0,1,.57-1.606,2.863,2.863,0,0,1,1.881-.506,20.429,20.429,0,0,1,.091-3.494L151.88,20.2a1.606,1.606,0,0,1-1.27-1.849,16.751,16.751,0,0,1,4-7.915c.868-.909,2.323-.1,2.888.876.924-.859,1.841-1.473,2.86-2.309-.563-.619-1.264-2.261-.276-2.861A14.379,14.379,0,0,1,169.45,4.16c1.14.183,1.036,1.992.867,2.761,1.255.306,2.314.5,3.476.868.2-1.092.851-2.265,1.988-2.138,1.333.148,2.332,1.133,3.528,1.755l.033-3.626a1.564,1.564,0,0,0-1.581-1.7H150.2a1,1,0,0,1-1.076-1.057,1.04,1.04,0,0,1,1.09-1.01L177.557,0a3.692,3.692,0,0,1,3.867,3.789l-.011,5.47c1.249,1.28,2.6,2.593,1.652,3.752a5.978,5.978,0,0,1-1.506,1.21,17.42,17.42,0,0,1,1.408,3.024c1.6-.2,2.917-1.072,3.292.42a18.353,18.353,0,0,1,.063,9.005,1.592,1.592,0,0,1-1.894,1.222l-1.549-.321c-.653,2.17-2.018,2.894-.779,3.506.924.457,1.539,1.622.883,2.436l-1.568,1.946.013,24.874a3.634,3.634,0,0,1-3.625,3.775l-9.055.007a1.042,1.042,0,0,1-1.086-1.011,1.025,1.025,0,0,1,1.07-1.056l8.855.027a1.594,1.594,0,0,0,1.746-1.537l.005-23.383a13.51,13.51,0,0,1-3.582,1.906c-1.156.289-2-.816-2.121-2.124m2.264-.125a16.636,16.636,0,0,0,5.009-3.989l-.8-.629c-1.981-1.549-.191-2.5.96-5.693a1.665,1.665,0,0,1,2.229-1.052,2.1,2.1,0,0,0,1.132.192,14.948,14.948,0,0,0,0-6.584l-2.028.564a.98.98,0,0,1-1.1-.766,17.549,17.549,0,0,0-1.813-4.146c-.539-1.077.383-2.1,1.631-2.6a13.272,13.272,0,0,0-5.251-4.262c-.264,1.264-1.04,2.379-2.193,2.08A23.549,23.549,0,0,0,169.7,9a1.607,1.607,0,0,1-1.427-1.659v-1.3A15.83,15.83,0,0,0,161.8,7.5c.614.781,1.191,2.117.379,2.756l-3.843,3.023c-.841.661-2.023-.171-2.628-1.023a15,15,0,0,0-2.931,6.061c.991-.01,2.34.452,2.339,1.47,0,1.582-.106,3.1,0,4.7.069,1.094-1.258,1.6-2.392,1.577a13.973,13.973,0,0,0,2.883,6.072c.646-1,2.009-1.643,2.857-.842a33.426,33.426,0,0,0,3.436,2.775c.887.645.4,2.083-.329,2.913a13.778,13.778,0,0,0,6.554,1.539c-.3-1.157-.083-2.606,1.091-2.823a26.314,26.314,0,0,0,3.98-.917,1.608,1.608,0,0,1,1.972.81c.209.411.24.931.729,1.223" transform="translate(-116.173 0.001)" fill="#19538d"/>
        <path id="Trazado_1031803" data-name="Trazado 1031803" d="M7.487,54.563,5.55,53.006a2.073,2.073,0,0,1-1.268.821,1.578,1.578,0,0,1-1.5-.645A13.378,13.378,0,0,1,.011,46.928c-.126-.986.961-1.605,1.852-1.614a6.247,6.247,0,0,0-.019-2.307c-.3-.281-1.153-.316-1.4-.616C-.732,40.93,1.39,36.9,3.015,34.95a1.526,1.526,0,0,1,1.427-.532,2.445,2.445,0,0,1,1.265.851l1.851-1.585c-.5-.585-.762-1.9.018-2.361a12.131,12.131,0,0,1,7.381-1.57c.917.1,1.175,1.388.954,2.114a3.277,3.277,0,0,0,1.641.456L17.57,3.651A3.551,3.551,0,0,1,21.184.092l7.958,0a1.019,1.019,0,0,1,1.02,1.034c0,.668-.5,1.042-1.228,1.041L21.2,2.157a1.508,1.508,0,0,0-1.554,1.526l.017,57.108c0,1.1,1.157,1.35,1.98,1.349l26.048-.024a1.022,1.022,0,0,1,1.019.871c.069.361-.24,1.183-.838,1.183l-26.879-.01a3.588,3.588,0,0,1-3.441-3.711l.008-4.395-1.881.4c.312,1-.13,2.224-1.21,2.282-2.589.139-7.158-.965-7.523-2.52a1.736,1.736,0,0,1,.539-1.652m1.671-1.43c.819.614.659,1.663.009,2.476a12.317,12.317,0,0,0,4.572,1.065c-.246-1.091.133-2.132,1.2-2.289a9.644,9.644,0,0,0,2.57-.582l.007-3.24A7.195,7.195,0,0,1,8.681,39.608a7.253,7.253,0,0,1,8.856-1.9l.018-3.046c-1.083-.764-2.681-.331-3.36-1.187a2.249,2.249,0,0,1-.328-1.787A12.229,12.229,0,0,0,9.4,32.724a2.329,2.329,0,0,1,.41,1.615c-.184.86-1.49,1.359-3.052,2.811a1.753,1.753,0,0,1-2.488-.4,8.978,8.978,0,0,0-1.916,4.039c.78.3,1.954.726,1.716,1.891A13.732,13.732,0,0,0,4.048,45.8c.026.943-.941,1.493-1.85,1.557a11.435,11.435,0,0,0,1.953,4.163,2.425,2.425,0,0,1,1.465-.8,1.645,1.645,0,0,1,1.266.587,13.507,13.507,0,0,0,2.275,1.827M17.575,40.2a5.142,5.142,0,0,0-7.055,7.452c1.724,1.877,5.266,2.337,6.913.292Z" transform="translate(0 -0.069)" fill="#19538d"/>
        <path id="Trazado_1031804" data-name="Trazado 1031804" d="M108.877,223.647a2.024,2.024,0,0,1-2-2.18l0-6.645a2.092,2.092,0,0,1,2.217-2.214l7.436.074c.181,0,.488.34.634.314.211-.038,1.121-1.307,1.988-.592,1.086.9-.3,1.773-1.16,2.929l-.076,6.326a2.043,2.043,0,0,1-2.185,2.015Zm4.061-3.774c-.72.222-2.586-1.637-2.241-2.661a.976.976,0,0,1,.95-.576,1.29,1.29,0,0,1,1.127.725l2.653-2.621-6.474-.04.011,6.861,6.839-.019-.033-4.122c-.98.773-1.6,2.073-2.832,2.454" transform="translate(-83.263 -165.307)" fill="#19538d"/>
        <path id="Trazado_1031805" data-name="Trazado 1031805" d="M190.917,220.219l-17.96.036a1.058,1.058,0,0,1-1.134-1.1,1.027,1.027,0,0,1,1.149-1l17.825.012a1.052,1.052,0,0,1,.982.787c.1.371-.131,1.263-.863,1.265" transform="translate(-133.862 -169.958)" fill="#19538d"/>
        <path id="Trazado_1031806" data-name="Trazado 1031806" d="M121.561,169.054l-14.348-.009a1.031,1.031,0,0,1-1.046-.842c-.093-.438.184-1.16.818-1.161l14.577-.024a1.023,1.023,0,1,1,0,2.035" transform="translate(-82.697 -130.119)" fill="#19538d"/>
        <path id="Trazado_1031807" data-name="Trazado 1031807" d="M118.411,187.468l-9-.006a1.037,1.037,0,1,1,0-2.073l9-.013a1.038,1.038,0,0,1,1.177.945,1.052,1.052,0,0,1-1.176,1.147" transform="translate(-84.422 -144.42)" fill="#19538d"/>
        <path id="Trazado_1031808" data-name="Trazado 1031808" d="M116.78,34.152l-10.246-.02a1,1,0,0,1-.966-1.019.985.985,0,0,1,.967-1l10.34.035c.459,0,.656.683.64.97a1.1,1.1,0,0,1-.735,1.036" transform="translate(-82.244 -25.017)" fill="#19538d"/>
        <path id="Trazado_1031809" data-name="Trazado 1031809" d="M114.52,52.623l-6.4.01a1.043,1.043,0,0,1-1.088-.953,1,1,0,0,1,.941-1.088l6.459-.008a1.008,1.008,0,0,1,.919.912,1.087,1.087,0,0,1-.834,1.127" transform="translate(-83.384 -39.408)" fill="#19538d"/>
        <path id="Trazado_1031810" data-name="Trazado 1031810" d="M179.894,240.108l-6.944-.006a1.053,1.053,0,0,1-1.106-.858c-.074-.376.11-1.166.7-1.169l7.26-.045a1.006,1.006,0,0,1,1.017.847,1.125,1.125,0,0,1-.922,1.232" transform="translate(-133.866 -185.441)" fill="#19538d"/>
        <path id="Trazado_1031811" data-name="Trazado 1031811" d="M114.277,98.031l-6.188.01a.965.965,0,0,1-1.062-.844A.946.946,0,0,1,107.874,96l6.416-.03a1,1,0,0,1,1.044,1.032,1.012,1.012,0,0,1-1.058,1.025" transform="translate(-83.369 -74.77)" fill="#19538d"/>
        <path id="Trazado_1031812" data-name="Trazado 1031812" d="M114.309,120.059l-6.171,0a1.029,1.029,0,0,1-1.066-.863c-.067-.351.06-1.135.649-1.14l6.816-.051c.58,0,.841.623.829,1.021a1.046,1.046,0,0,1-1.057,1.03" transform="translate(-83.404 -91.936)" fill="#19538d"/>
        <path id="Trazado_1031813" data-name="Trazado 1031813" d="M201.035,57.193a9.591,9.591,0,0,1,11.274,7.914,9.65,9.65,0,1,1-11.274-7.914m.672,1.98a7.57,7.57,0,1,0,8.575,6.432,7.582,7.582,0,0,0-8.575-6.432" transform="translate(-150.47 -44.433)" fill="#19538d"/>
      </g>
    </g>
  </g>
</svg>
