<svg xmlns="http://www.w3.org/2000/svg" xmlns:xlink="http://www.w3.org/1999/xlink" width="150" height="150" viewBox="0 0 150 150">
  <defs>
    <clipPath id="clip-path">
      <rect id="Rectángulo_456312" data-name="Rectángulo 456312" width="150" height="150" fill="none"/>
    </clipPath>
    <clipPath id="clip-path-3">
      <rect id="Rectángulo_467163" data-name="Rectángulo 467163" width="75.45" height="83.773" fill="#19538d"/>
    </clipPath>
  </defs>
  <g id="Grupo_1180423" data-name="Grupo 1180423" transform="translate(-307.059 -10093)">
    <g id="Grupo_1179968" data-name="Grupo 1179968" transform="translate(-115 658)">
      <g id="Grupo_1179959" data-name="Grupo 1179959" transform="translate(422.059 9435)" clip-path="url(#clip-path)">
        <path id="Trazado_999654" data-name="Trazado 999654" d="M1.5,5.146H123.437A18.479,18.479,0,0,1,141.96,23.58V144.937H20.022A18.479,18.479,0,0,1,1.5,126.5Z" transform="translate(0.815 2.76)" fill="#fff"/>
      </g>
      <g id="Grupo_1179960" data-name="Grupo 1179960" transform="translate(422.059 9435)">
        <g id="Grupo_1179956" data-name="Grupo 1179956" clip-path="url(#clip-path)">
          <path id="Trazado_999651" data-name="Trazado 999651" d="M94.9,30a7.681,7.681,0,1,1-7.718,7.681A7.7,7.7,0,0,1,94.9,30" transform="translate(47.384 16.085)" fill="#19538d"/>
          <path id="Trazado_999652" data-name="Trazado 999652" d="M65.9,0a7.681,7.681,0,1,1-7.718,7.681A7.7,7.7,0,0,1,65.9,0" transform="translate(31.622 0)" fill="#19538d"/>
          <path id="Trazado_999653" data-name="Trazado 999653" d="M141.96,51.007v93.93H20.022A18.479,18.479,0,0,1,1.5,126.5V5.146H97.75" transform="translate(0.815 2.76)" fill="none" stroke="#19538d" stroke-miterlimit="10" stroke-width="4"/>
        </g>
      </g>
    </g>
    <g id="Grupo_1181045" data-name="Grupo 1181045" transform="translate(344.334 10126.113)">
      <g id="Grupo_1181044" data-name="Grupo 1181044" clip-path="url(#clip-path-3)">
        <path id="Trazado_1033406" data-name="Trazado 1033406" d="M60.84,77.056l-.043,5.6a1.138,1.138,0,0,1-1.127,1.11l-58.113.01A1.407,1.407,0,0,1,0,82.282L0,8.17A1.333,1.333,0,0,1,1.234,6.723l5.434-.039.051-5.25C6.729.3,7.464,0,8.534,0L66.382.015a1.125,1.125,0,0,1,1.15,1.121l.011,34.278a19.8,19.8,0,0,1,.117,20.614l6.649,6.666a4.633,4.633,0,0,1-.23,6.333,4.777,4.777,0,0,1-6.519.206l-.017,6.449a1.282,1.282,0,0,1-1.365,1.379Zm0-48.119c1.668.777,2.471,1.747,3.959,2.906l.049-29.152L9.411,2.7l.026,4,50.475.024c.544,0,.891.674.892,1.089ZM58.131,64.094a19.7,19.7,0,1,1-.007-36.581L58.132,9.4,2.7,9.421V81.076l55.424.009Zm-8.6-35.212A16.989,16.989,0,1,0,67.755,44.463,16.9,16.9,0,0,0,49.529,28.882m20.185,38.5c.878.85,2.407.1,2.812-.7a2.073,2.073,0,0,0-.508-2.5l-5.983-5.933a11.637,11.637,0,0,1-2.829,2.837ZM64.851,74.3l-.038-7.915-3.981-3.766-.008,11.72Z" transform="translate(0 0)" fill="#19538d"/>
        <path id="Trazado_1033407" data-name="Trazado 1033407" d="M73.246,265.346l-41.74-.014a1.5,1.5,0,0,1-1.642-1.2,1.353,1.353,0,0,1,1.408-1.559l42.117.005a1.314,1.314,0,0,1,1.275,1.333c-.015.7-.394,1.224-1.418,1.439" transform="translate(-21.842 -192.131)" fill="#19538d"/>
        <path id="Trazado_1033408" data-name="Trazado 1033408" d="M95.214,71.609l-33.566,0a1.4,1.4,0,0,1-1.521-1.227,1.359,1.359,0,0,1,1.5-1.464l33.495-.012c1,0,1.643.311,1.7,1.255.045.793-.39,1.445-1.6,1.445" transform="translate(-43.993 -50.422)" fill="#19538d"/>
        <path id="Trazado_1033409" data-name="Trazado 1033409" d="M55.322,119.878l-23.951.054a1.461,1.461,0,0,1-1.563-1.059c-.138-.508.226-1.611,1.085-1.613l24.042-.036a1.365,1.365,0,0,1,1.312.991c.157.47.011,1.66-.924,1.662" transform="translate(-21.79 -85.778)" fill="#19538d"/>
        <path id="Trazado_1033410" data-name="Trazado 1033410" d="M55.291,216.758l-24.182.041a1.349,1.349,0,0,1-1.324-1.246,1.385,1.385,0,0,1,1.334-1.435l23.814-.009a1.338,1.338,0,0,1,1.323,1.013c.131.461-.041,1.634-.965,1.636" transform="translate(-21.792 -156.672)" fill="#19538d"/>
        <path id="Trazado_1033411" data-name="Trazado 1033411" d="M50.937,168.374l-19.767.049a1.34,1.34,0,0,1-1.362-1.374c.058-.877.628-1.322,1.572-1.322l19.3,0a1.367,1.367,0,0,1,1.386,1.067c.128.471-.214,1.576-1.13,1.578" transform="translate(-21.81 -121.268)" fill="#19538d"/>
        <path id="Trazado_1033412" data-name="Trazado 1033412" d="M175.663,155.1a1.34,1.34,0,0,1-.2,1.828,1.247,1.247,0,0,1-1.738-.013l-5.6-5.513-5.483,5.457a1.328,1.328,0,0,1-2.011-1.73l5.589-5.631-5.511-5.575a1.339,1.339,0,0,1,.1-1.9,1.464,1.464,0,0,1,1.958.119l5.415,5.391,5.746-5.647a1.344,1.344,0,0,1,1.754.3,1.423,1.423,0,0,1-.043,1.658l-5.555,5.586Z" transform="translate(-117.332 -103.664)" fill="#19538d"/>
      </g>
    </g>
  </g>
</svg>
