<svg xmlns="http://www.w3.org/2000/svg" width="396" height="1406.141" viewBox="0 0 396 1406.141">
  <g id="Grupo_1180432" data-name="Grupo 1180432" transform="translate(-290 -9505.859)">
    <rect id="Rectángulo_466725" data-name="Rectángulo 466725" width="396" height="1406.141" rx="16" transform="translate(290 9505.859)" fill="#c0f6f2"/>
    <g id="Unión_16" data-name="Unión 16" transform="translate(449.322 10596.039) rotate(90)" fill="#68c6ea">
      <path d="M 225.9495544433594 140.3218994140625 L 224.9522857666016 140.3218994140625 L -128.1464996337891 140.3218994140625 L -130.1464996337891 140.3218994140625 L -130.1464996337891 138.3218994140625 L -130.1464996337891 0.001797343953512609 L -130.1464996337891 -1.998202681541443 L -128.1464996337891 -1.998202681541443 L 224.9522857666016 -1.998202681541443 L 225.9495544433594 -1.998202681541443 L 226.5496520996094 -1.201728940010071 L 278.6578674316406 67.95784759521484 L 279.5646667480469 69.161376953125 L 278.6578674316406 70.36490631103516 L 226.5496520996094 139.5254364013672 L 225.9495544433594 140.3218994140625 Z" stroke="none"/>
      <path d="M -128.1464996337891 0.001800537109375 L -128.1464996337891 138.3218994140625 L 224.9522705078125 138.3218994140625 L 224.9522705078125 0.001800537109375 L -128.1464996337891 0.001800537109375 M 224.9522705078125 0.001800537109375 L 224.9522705078125 138.3218994140625 L 277.0604858398438 69.16140747070312 L 224.9522705078125 0.001800537109375 M 220.9522705078125 -11.95425415039062 L 226.94677734375 -3.998199462890625 L 228.9522705078125 -3.998199462890625 L 228.9522705078125 -1.336471557617188 L 282.0687866210938 69.16140747070312 L 228.9522705078125 139.6600952148438 L 228.9522705078125 142.3218994140625 L 226.94677734375 142.3218994140625 L 220.9522705078125 150.2781219482422 L 220.9522705078125 142.3218994140625 L -132.1464996337891 142.3218994140625 L -132.1464996337891 -3.998199462890625 L 220.9522705078125 -3.998199462890625 L 220.9522705078125 -11.95425415039062 Z" stroke="none" fill="#12263f"/>
    </g>
    <text id="Mantenimiento_y_soporte" data-name="Mantenimiento y soporte" transform="translate(321.081 10644.892)" fill="#12263f" font-size="17" font-family="SegoeUI, Segoe UI"><tspan x="1.837" y="18">Mantenimiento </tspan><tspan x="24.008" y="42">y soporte</tspan></text>
    <g id="Unión_17" data-name="Unión 17" transform="translate(449.322 10238.086) rotate(90)" fill="#7dd3ff">
      <path d="M 241.344970703125 140.3222808837891 L 240.3943939208984 140.3222808837891 L 1.216947111970512e-05 140.3222808837891 L -1.999987840652466 140.3222808837891 L -1.999987840652466 138.3222808837891 L -1.999987840652466 1.742788481351454e-05 L -1.999987840652466 -1.999982595443726 L 1.216947111970512e-05 -1.999982595443726 L 240.3943939208984 -1.999982595443726 L 241.344970703125 -1.999982595443726 L 241.9452362060547 -1.262867212295532 L 298.2661743164062 67.89990234375 L 299.2945861816406 69.16282653808594 L 298.26611328125 70.42571258544922 L 241.9452056884766 139.585205078125 L 241.344970703125 140.3222808837891 Z" stroke="none"/>
      <path d="M 0 1.52587890625e-05 L 0 138.3222503662109 L 240.3943786621094 138.3222503662109 L 240.3943786621094 1.52587890625e-05 L 0 1.52587890625e-05 M 240.3943786621094 1.52587890625e-05 L 240.3943786621094 138.3222503662109 L 296.71533203125 69.16279602050781 L 240.3943786621094 1.52587890625e-05 M 236.3943786621094 -11.2467041015625 L 242.2955627441406 -3.999984741210938 L 244.3943786621094 -3.999984741210938 L 244.3943786621094 -1.422622680664062 L 301.8738708496094 69.162841796875 L 244.3943786621094 139.7449340820312 L 244.3943786621094 142.3222503662109 L 242.2954864501953 142.3222503662109 L 236.3943786621094 149.5685424804688 L 236.3943786621094 142.3222503662109 L -4 142.3222503662109 L -4 -3.999984741210938 L 236.3943786621094 -3.999984741210938 L 236.3943786621094 -11.2467041015625 Z" stroke="none" fill="#12263f"/>
    </g>
    <text id="Pruebas" transform="translate(315.365 10374.425)" fill="#12263f" font-size="17" font-family="SegoeUI, Segoe UI"><tspan x="34.896" y="18">Pruebas</tspan></text>
    <g id="Unión_14" data-name="Unión 14" transform="translate(449.322 10010.254) rotate(90)" fill="#ffe2bc">
      <path d="M 238.2795715332031 140.3222808837891 L 237.2911071777344 140.3222808837891 L -1.38972359309264e-06 140.3222808837891 L -2.000001430511475 140.3222808837891 L -2.000001430511475 138.3222808837891 L -2.000001430511475 1.742788481351454e-05 L -2.000001430511475 -1.999982595443726 L -1.38972359309264e-06 -1.999982595443726 L 237.2911071777344 -1.999982595443726 L 238.2796173095703 -1.999982595443726 L 238.8800048828125 -1.214674830436707 L 291.7552795410156 67.94809722900391 L 292.6839294433594 69.16282653808594 L 291.7552185058594 70.37751770019531 L 238.8799591064453 139.5370178222656 L 238.2795715332031 140.3222808837891 Z" stroke="none"/>
      <path d="M -3.0517578125e-05 1.52587890625e-05 L -3.0517578125e-05 138.3222503662109 L 237.2910614013672 138.3222503662109 L 237.2910614013672 1.52587890625e-05 L -3.0517578125e-05 1.52587890625e-05 M 237.2910614013672 1.52587890625e-05 L 237.2910614013672 138.3222503662109 L 290.1663513183594 69.16279602050781 L 237.2910614013672 1.52587890625e-05 M 233.2910614013672 -11.818115234375 L 239.2680969238281 -3.999984741210938 L 241.2910614013672 -3.999984741210938 L 241.2910614013672 -1.3538818359375 L 295.2014465332031 69.162841796875 L 241.2910614013672 139.6761322021484 L 241.2910614013672 142.3222503662109 L 239.2679901123047 142.3222503662109 L 233.2910614013672 150.1399230957031 L 233.2910614013672 142.3222503662109 L -4.000030517578125 142.3222503662109 L -4.000030517578125 -3.999984741210938 L 233.2910614013672 -3.999984741210938 L 233.2910614013672 -11.818115234375 Z" stroke="none" fill="#12263f"/>
    </g>
    <text id="Implementación" transform="translate(314.58 10149.963)" fill="#12263f" font-size="17" font-family="SegoeUI, Segoe UI"><tspan x="4.154" y="18">Implementación</tspan></text>
    <g id="Unión_15" data-name="Unión 15" transform="translate(449.322 9783.69) rotate(90)" fill="#ffcc74">
      <path d="M 231.6734771728516 140.3222808837891 L 230.7016296386719 140.3222808837891 L 1.67142425198108e-05 140.3222808837891 L -1.999983310699463 140.3222808837891 L -1.999983310699463 138.3222808837891 L -1.999983310699463 1.742788481351454e-05 L -1.999983310699463 -1.999982595443726 L 1.67142425198108e-05 -1.999982595443726 L 230.7016296386719 -1.999982595443726 L 231.6734771728516 -1.999982595443726 L 232.2740478515625 -1.235905647277832 L 286.6355590820312 67.92686462402344 L 287.6070251464844 69.16282653808594 L 286.6355285644531 70.39875030517578 L 232.2740173339844 139.5582427978516 L 231.6734771728516 140.3222808837891 Z" stroke="none"/>
      <path d="M -3.0517578125e-05 -1.52587890625e-05 L -3.0517578125e-05 138.3222503662109 L 230.7015991210938 138.3222503662109 L 230.7015991210938 -1.52587890625e-05 L -3.0517578125e-05 -1.52587890625e-05 M 230.7015991210938 -1.52587890625e-05 L 230.7015991210938 138.3222503662109 L 285.0630798339844 69.16278839111328 L 230.7015991210938 -1.52587890625e-05 M 226.7015991210938 -11.56205749511719 L 232.6453247070312 -4.000015258789062 L 234.7015991210938 -4.000015258789062 L 234.7015991210938 -1.383880615234375 L 290.1508178710938 69.16286468505859 L 234.7015991210938 139.7061462402344 L 234.7015991210938 142.3222503662109 L 232.645263671875 142.3222503662109 L 226.7015991210938 149.8838653564453 L 226.7015991210938 142.3222503662109 L -4.000030517578125 142.3222503662109 L -4.000030517578125 -4.000015258789062 L 226.7015991210938 -4.000015258789062 L 226.7015991210938 -11.56205749511719 Z" stroke="none" fill="#12263f"/>
    </g>
    <text id="Diseño" transform="translate(317.365 9913.786)" fill="#12263f" font-size="17" font-family="SegoeUI, Segoe UI"><tspan x="36.844" y="18">Diseño</tspan></text>
    <g id="Unión_13" data-name="Unión 13" transform="translate(449.322 9541.484) rotate(90)" fill="#ffb758">
      <path d="M 240.2701110839844 140.3222808837891 L 239.3307647705078 140.3222808837891 L -1.201923055305087e-06 140.3222808837891 L -2.000001192092896 140.3222808837891 L -2.000001192092896 138.3222808837891 L -2.000001192092896 1.742788481351454e-05 L -2.000001192092896 -1.999982595443726 L -1.201923055305087e-06 -1.999982595443726 L 239.3307647705078 -1.999982595443726 L 240.2701568603516 -1.999982595443726 L 240.8699645996094 -1.277059435844421 L 298.2540283203125 67.88571166992188 L 299.3136596679688 69.16282653808594 L 298.2539978027344 70.43990325927734 L 240.8699188232422 139.5993957519531 L 240.2701110839844 140.3222808837891 Z" stroke="none"/>
      <path d="M 0 1.52587890625e-05 L 0 138.3222503662109 L 239.3307495117188 138.3222503662109 L 239.3307495117188 1.52587890625e-05 L 0 1.52587890625e-05 M 239.3307495117188 1.52587890625e-05 L 239.3307495117188 138.3222503662109 L 296.71484375 69.16279602050781 L 239.3307495117188 1.52587890625e-05 M 235.3307495117188 -11.08540344238281 L 241.2095031738281 -3.999984741210938 L 243.3307495117188 -3.999984741210938 L 243.3307495117188 -1.443313598632812 L 301.9124145507812 69.162841796875 L 243.3307495117188 139.7656707763672 L 243.3307495117188 142.3222503662109 L 241.2094573974609 142.3222503662109 L 235.3307495117188 149.4072570800781 L 235.3307495117188 142.3222503662109 L -4 142.3222503662109 L -4 -3.999984741210938 L 235.3307495117188 -3.999984741210938 L 235.3307495117188 -11.08540344238281 Z" stroke="none" fill="#12263f"/>
    </g>
    <text id="Requisitos" transform="translate(317.457 9676.981)" fill="#12263f" font-size="17" font-family="SegoeUI, Segoe UI"><tspan x="24.417" y="18">Requisitos</tspan></text>
    <g id="Rectángulo_466733" data-name="Rectángulo 466733" transform="translate(497.711 9822)" fill="#fff" stroke="#12263f" stroke-width="3">
      <rect width="142" height="219" rx="14" stroke="none"/>
      <rect x="-1.5" y="-1.5" width="145" height="222" rx="15.5" fill="none"/>
    </g>
    <g id="Rectángulo_466735" data-name="Rectángulo 466735" transform="translate(497.711 10088)" fill="#fff" stroke="#12263f" stroke-width="3">
      <rect width="142" height="135" rx="14" stroke="none"/>
      <rect x="-1.5" y="-1.5" width="145" height="138" rx="15.5" fill="none"/>
    </g>
    <g id="Rectángulo_466737" data-name="Rectángulo 466737" transform="translate(497.711 10303)" fill="#fff" stroke="#12263f" stroke-width="3">
      <rect width="142" height="218" rx="14" stroke="none"/>
      <rect x="-1.5" y="-1.5" width="145" height="221" rx="15.5" fill="none"/>
    </g>
    <g id="Rectángulo_466734" data-name="Rectángulo 466734" transform="translate(497.711 9799)" fill="#ffcc74" stroke="#12263f" stroke-width="3">
      <rect width="142" height="47" rx="14" stroke="none"/>
      <rect x="-1.5" y="-1.5" width="145" height="50" rx="15.5" fill="none"/>
    </g>
    <g id="Rectángulo_466738" data-name="Rectángulo 466738" transform="translate(497.711 10256)" fill="#7dd3ff" stroke="#12263f" stroke-width="3">
      <rect width="142" height="71" rx="14" stroke="none"/>
      <rect x="-1.5" y="-1.5" width="145" height="74" rx="15.5" fill="none"/>
    </g>
    <g id="Rectángulo_466736" data-name="Rectángulo 466736" transform="translate(497.711 10074)" fill="#ffe2bc" stroke="#12263f" stroke-width="3">
      <rect width="142" height="47" rx="14" stroke="none"/>
      <rect x="-1.5" y="-1.5" width="145" height="50" rx="15.5" fill="none"/>
    </g>
    <text id="Verificación_y_validación" data-name="Verificación y validación" transform="translate(518.158 10268.205)" fill="#12263f" font-size="17" font-family="SegoeUI, Segoe UI"><tspan x="1.168" y="18">Verificación y </tspan><tspan x="12.934" y="42">validación</tspan></text>
    <g id="Grupo_1180430" data-name="Grupo 1180430">
      <g id="Rectángulo_466743" data-name="Rectángulo 466743" transform="translate(498 10600.1)" fill="#fff" stroke="#12263f" stroke-width="3">
        <rect width="141.711" height="273" rx="14" stroke="none"/>
        <rect x="-1.5" y="-1.5" width="144.711" height="276" rx="15.5" fill="none"/>
      </g>
      <g id="Rectángulo_466744" data-name="Rectángulo 466744" transform="translate(498 10553.1)" fill="#68c6ea" stroke="#12263f" stroke-width="3">
        <rect width="141.711" height="71" rx="14" stroke="none"/>
        <rect x="-1.5" y="-1.5" width="144.711" height="74" rx="15.5" fill="none"/>
      </g>
      <text id="Gestión_de_cambios" data-name="Gestión de cambios" transform="translate(518 10565.305)" fill="#12263f" font-size="17" font-family="SegoeUI, Segoe UI"><tspan x="10.017" y="18">Gestión de </tspan><tspan x="19.194" y="42">cambios</tspan></text>
    </g>
    <text id="Análisis" transform="translate(518.158 9811)" fill="#12263f" font-size="17" font-family="SegoeUI, Segoe UI"><tspan x="22.546" y="18">Análisis</tspan></text>
    <text id="Documentación" transform="translate(507.447 10085.353)" fill="#12263f" font-size="17" font-family="SegoeUI, Segoe UI"><tspan x="2.397" y="18">Documentación</tspan></text>
    <g id="Grupo_1180431" data-name="Grupo 1180431">
      <g id="Rectángulo_466731" data-name="Rectángulo 466731" transform="translate(497.711 9588)" fill="#fff" stroke="#12263f" stroke-width="3">
        <rect width="142" height="179" rx="14" stroke="none"/>
        <rect x="-1.5" y="-1.5" width="145" height="182" rx="15.5" fill="none"/>
      </g>
      <g id="Rectángulo_466732" data-name="Rectángulo 466732" transform="translate(497.711 9541)" fill="#ffb758" stroke="#12263f" stroke-width="3">
        <rect width="142" height="71" rx="14" stroke="none"/>
        <rect x="-1.5" y="-1.5" width="145" height="74" rx="15.5" fill="none"/>
      </g>
      <text id="Recopilación_y_obtención" data-name="Recopilación y obtención" transform="translate(517.902 9553.205)" fill="#12263f" font-size="17" font-family="SegoeUI, Segoe UI"><tspan x="3.236" y="18">Recopilación </tspan><tspan x="6.307" y="42">y obtención</tspan></text>
      <text id="_Buscar_recopilar_e_investigar_Identificar_y_derivar" data-name="• Buscar, recopilar e investigar
• Identificar y derivar" transform="translate(511.402 9628.205)" fill="#12263f" font-size="16" font-family="SegoeUI, Segoe UI"><tspan x="0" y="17">• Buscar, </tspan><tspan x="0" y="41">recopilar e </tspan><tspan x="0" y="65">investigar</tspan><tspan x="0" y="89">• Identificar y </tspan><tspan x="0" y="113">derivar</tspan></text>
    </g>
    <text id="_Aclarar_detallar_y_perfeccionar_Elaborar_modelos_formales_de_requisitos" data-name="• Aclarar, detallar y perfeccionar
• Elaborar modelos formales de requisitos" transform="translate(511.158 9862.205)" fill="#12263f" font-size="16" font-family="SegoeUI, Segoe UI"><tspan x="0" y="17">• Aclarar, </tspan><tspan x="0" y="41">detallar y </tspan><tspan x="0" y="65">perfeccionar</tspan><tspan x="0" y="89">• Elaborar </tspan><tspan x="0" y="113">modelos </tspan><tspan x="0" y="137">formales de </tspan><tspan x="0" y="161">requisitos</tspan></text>
    <text id="_Eliminar_ambigüedades_Documentar" data-name="• Eliminar ambigüedades
•Documentar" transform="translate(511.158 10137.205)" fill="#12263f" font-size="16" font-family="SegoeUI, Segoe UI"><tspan x="0" y="17">• Eliminar </tspan><tspan x="0" y="41">ambigüedades</tspan><tspan x="0" y="65">•Documentar</tspan></text>
    <text id="_Verificar_la_integridad_y_la_precisión_Validar_la_corrección_con_las_partes_interesadas" data-name="• Verificar la integridad y la precisión
• Validar la corrección con las partes interesadas" transform="translate(511.158 10343.205)" fill="#12263f" font-size="16" font-family="SegoeUI, Segoe UI"><tspan x="0" y="17">• Verificar la </tspan><tspan x="0" y="41">integridad y la </tspan><tspan x="0" y="65">precisión</tspan><tspan x="0" y="89">• Validar la </tspan><tspan x="0" y="113">corrección con </tspan><tspan x="0" y="137">las partes </tspan><tspan x="0" y="161">interesadas</tspan></text>
    <text id="_Realizar_un_seguimiento_de_los_cambios_Actualizar_los_cambios_Eliminar_inconsistencias_Modificar_documentos" data-name="• Realizar un seguimiento de los cambios
• Actualizar los cambios
• Eliminar inconsistencias
• Modificar documentos" transform="translate(511 10640.305)" fill="#12263f" font-size="16" font-family="SegoeUI, Segoe UI"><tspan x="0" y="17">• Realizar un </tspan><tspan x="0" y="41">seguimiento de </tspan><tspan x="0" y="65">los cambios</tspan><tspan x="0" y="89">• Actualizar los </tspan><tspan x="0" y="113">cambios</tspan><tspan x="0" y="137">• Eliminar </tspan><tspan x="0" y="161">inconsistencias</tspan><tspan x="0" y="185">• Modificar </tspan><tspan x="0" y="209">documentos</tspan></text>
    <g id="Unión_18" data-name="Unión 18" transform="translate(-9646.004 -1926.385)" fill="#ffb758">
      <path d="M 10214.5439453125 11721.232421875 L 10213.2685546875 11719.1748046875 L 10206.4345703125 11708.1435546875 L 10205.0166015625 11705.853515625 L 10207.7099609375 11705.853515625 L 10210.7265625 11705.853515625 L 10210.7265625 11699.998046875 L 10210.7265625 11698.498046875 L 10212.2265625 11698.498046875 L 10217.255859375 11698.498046875 L 10218.755859375 11698.498046875 L 10218.755859375 11699.998046875 L 10218.755859375 11705.853515625 L 10221.37890625 11705.853515625 L 10224.0732421875 11705.853515625 L 10222.654296875 11708.1435546875 L 10215.8193359375 11719.1748046875 L 10214.5439453125 11721.232421875 Z" stroke="none"/>
      <path d="M 10212.2265625 11699.998046875 L 10212.2265625 11707.353515625 L 10207.7099609375 11707.353515625 L 10214.5439453125 11718.384765625 L 10221.37890625 11707.353515625 L 10217.255859375 11707.353515625 L 10217.255859375 11699.998046875 L 10212.2265625 11699.998046875 M 10209.2265625 11696.998046875 L 10220.255859375 11696.998046875 L 10220.255859375 11704.353515625 L 10226.7666015625 11704.353515625 L 10214.5439453125 11724.0810546875 L 10202.322265625 11704.353515625 L 10209.2265625 11704.353515625 L 10209.2265625 11696.998046875 Z" stroke="none" fill="#12263f"/>
    </g>
    <g id="Unión_19" data-name="Unión 19" transform="translate(-9646.332 -1652.244)" fill="#ffcc74">
      <path d="M 10214.5439453125 11721.232421875 L 10213.2685546875 11719.1748046875 L 10206.4345703125 11708.1435546875 L 10205.0166015625 11705.853515625 L 10207.7099609375 11705.853515625 L 10210.7265625 11705.853515625 L 10210.7265625 11699.998046875 L 10210.7265625 11698.498046875 L 10212.2265625 11698.498046875 L 10217.255859375 11698.498046875 L 10218.755859375 11698.498046875 L 10218.755859375 11699.998046875 L 10218.755859375 11705.853515625 L 10221.37890625 11705.853515625 L 10224.0732421875 11705.853515625 L 10222.654296875 11708.1435546875 L 10215.8193359375 11719.1748046875 L 10214.5439453125 11721.232421875 Z" stroke="none"/>
      <path d="M 10212.2265625 11699.998046875 L 10212.2265625 11707.353515625 L 10207.7099609375 11707.353515625 L 10214.5439453125 11718.384765625 L 10221.37890625 11707.353515625 L 10217.255859375 11707.353515625 L 10217.255859375 11699.998046875 L 10212.2265625 11699.998046875 M 10209.2265625 11696.998046875 L 10220.255859375 11696.998046875 L 10220.255859375 11704.353515625 L 10226.7666015625 11704.353515625 L 10214.5439453125 11724.0810546875 L 10202.322265625 11704.353515625 L 10209.2265625 11704.353515625 L 10209.2265625 11696.998046875 Z" stroke="none" fill="#12263f"/>
    </g>
    <g id="Unión_20" data-name="Unión 20" transform="translate(-9646.332 -1470.244)" fill="#ffe2bc">
      <path d="M 10214.5439453125 11721.232421875 L 10213.2685546875 11719.1748046875 L 10206.4345703125 11708.1435546875 L 10205.0166015625 11705.853515625 L 10207.7099609375 11705.853515625 L 10210.7265625 11705.853515625 L 10210.7265625 11699.998046875 L 10210.7265625 11698.498046875 L 10212.2265625 11698.498046875 L 10217.255859375 11698.498046875 L 10218.755859375 11698.498046875 L 10218.755859375 11699.998046875 L 10218.755859375 11705.853515625 L 10221.37890625 11705.853515625 L 10224.0732421875 11705.853515625 L 10222.654296875 11708.1435546875 L 10215.8193359375 11719.1748046875 L 10214.5439453125 11721.232421875 Z" stroke="none"/>
      <path d="M 10212.2265625 11699.998046875 L 10212.2265625 11707.353515625 L 10207.7099609375 11707.353515625 L 10214.5439453125 11718.384765625 L 10221.37890625 11707.353515625 L 10217.255859375 11707.353515625 L 10217.255859375 11699.998046875 L 10212.2265625 11699.998046875 M 10209.2265625 11696.998046875 L 10220.255859375 11696.998046875 L 10220.255859375 11704.353515625 L 10226.7666015625 11704.353515625 L 10214.5439453125 11724.0810546875 L 10202.322265625 11704.353515625 L 10209.2265625 11704.353515625 L 10209.2265625 11696.998046875 Z" stroke="none" fill="#12263f"/>
    </g>
    <g id="Unión_21" data-name="Unión 21" transform="translate(-9646.332 -1172.244)" fill="#ffe2bc">
      <path d="M 10214.5439453125 11721.232421875 L 10213.2685546875 11719.1748046875 L 10206.4345703125 11708.1435546875 L 10205.0166015625 11705.853515625 L 10207.7099609375 11705.853515625 L 10210.7265625 11705.853515625 L 10210.7265625 11699.998046875 L 10210.7265625 11698.498046875 L 10212.2265625 11698.498046875 L 10217.255859375 11698.498046875 L 10218.755859375 11698.498046875 L 10218.755859375 11699.998046875 L 10218.755859375 11705.853515625 L 10221.37890625 11705.853515625 L 10224.0732421875 11705.853515625 L 10222.654296875 11708.1435546875 L 10215.8193359375 11719.1748046875 L 10214.5439453125 11721.232421875 Z" stroke="none"/>
      <path d="M 10212.2265625 11699.998046875 L 10212.2265625 11707.353515625 L 10207.7099609375 11707.353515625 L 10214.5439453125 11718.384765625 L 10221.37890625 11707.353515625 L 10217.255859375 11707.353515625 L 10217.255859375 11699.998046875 L 10212.2265625 11699.998046875 M 10209.2265625 11696.998046875 L 10220.255859375 11696.998046875 L 10220.255859375 11704.353515625 L 10226.7666015625 11704.353515625 L 10214.5439453125 11724.0810546875 L 10202.322265625 11704.353515625 L 10209.2265625 11704.353515625 L 10209.2265625 11696.998046875 Z" stroke="none" fill="#12263f"/>
    </g>
    <g id="Unión_24" data-name="Unión 24" transform="translate(682 9647.166) rotate(90)" fill="#19538d">
      <path d="M 6.835367679595947 37.23401641845703 L 5.560434341430664 35.17628479003906 L -1.274099111557007 24.14588356018066 L -2.693032503128052 21.85588455200195 L 0.0009675781475380063 21.85588455200195 L 2.624701023101807 21.85588455200195 L 2.624701023101807 6.001216888427734 L 2.624701023101807 4.501216888427734 L 4.124701023101807 4.501216888427734 L 9.155767440795898 4.501216888427734 L 1063.091674804688 4.501216888427734 L 1068.121948242188 4.501216888427734 L 1069.621948242188 4.501216888427734 L 1069.622680664062 6.001216888427734 L 1069.622680664062 11.03135013580322 L 1069.622680664062 12.53135013580322 L 1069.621948242188 12.53135013580322 L 1069.621948242188 34.0317497253418 L 1069.621948242188 35.5317497253418 L 1068.121948242188 35.5317497253418 L 1063.091674804688 35.5317497253418 L 1061.591674804688 35.5317497253418 L 1061.591674804688 34.0317497253418 L 1061.591674804688 12.53135013580322 L 10.6557674407959 12.53135013580322 L 10.6557674407959 21.85588455200195 L 13.67110061645508 21.85588455200195 L 16.3653678894043 21.85588455200195 L 14.94616794586182 24.14601707458496 L 8.110568046569824 35.17641830444336 L 6.835367679595947 37.23401641845703 Z" stroke="none"/>
      <path d="M 6.835500717163086 34.38628387451172 L 13.67110061645508 23.35588455200195 L 9.155767440795898 23.35588455200195 L 9.155767440795898 11.03135013580322 L 1063.091674804688 11.03135013580322 L 1063.091674804688 34.0317497253418 L 1068.121948242188 34.0317497253418 L 1068.121948242188 6.001216888427734 L 4.124701023101807 6.001216888427734 L 4.124701023101807 23.35588455200195 L 0.0009675781475380063 23.35588455200195 L 6.835500717163086 34.38628387451172 M 6.835367679595947 40.08174896240234 L -5.387032508850098 20.35588455200195 L 1.124700903892517 20.35588455200195 L 1.124700903892517 3.001217126846313 L 1071.121948242188 3.001217126846313 L 1071.122680664062 14.03135013580322 L 1071.121948242188 14.03135013580322 L 1071.121948242188 37.0317497253418 L 1060.091674804688 37.0317497253418 L 1060.091674804688 14.03135013580322 L 12.1557674407959 14.03135013580322 L 12.1557674407959 20.35588455200195 L 19.05963516235352 20.35588455200195 L 6.835367679595947 40.08174896240234 Z" stroke="none" fill="#12263f"/>
    </g>
    <g id="Unión_22" data-name="Unión 22" transform="translate(-11230.383 19868.545) rotate(-90)" fill="#19538d">
      <path d="M 10214.5439453125 11721.232421875 L 10213.2685546875 11719.1748046875 L 10206.4345703125 11708.1435546875 L 10205.0166015625 11705.853515625 L 10207.7099609375 11705.853515625 L 10210.7265625 11705.853515625 L 10210.7265625 11689.7255859375 L 10210.7265625 11688.2255859375 L 10212.2265625 11688.2255859375 L 10217.255859375 11688.2255859375 L 10218.755859375 11688.2255859375 L 10218.755859375 11689.7255859375 L 10218.755859375 11705.853515625 L 10221.37890625 11705.853515625 L 10224.0732421875 11705.853515625 L 10222.654296875 11708.1435546875 L 10215.8193359375 11719.1748046875 L 10214.5439453125 11721.232421875 Z" stroke="none"/>
      <path d="M 10214.5439453125 11718.384765625 L 10221.37890625 11707.353515625 L 10217.255859375 11707.353515625 L 10217.255859375 11689.7255859375 L 10212.2265625 11689.7255859375 L 10212.2265625 11707.353515625 L 10207.7099609375 11707.353515625 L 10214.5439453125 11718.384765625 M 10214.5439453125 11724.0810546875 L 10202.322265625 11704.353515625 L 10209.2265625 11704.353515625 L 10209.2265625 11686.7255859375 L 10220.255859375 11686.7255859375 L 10220.255859375 11704.353515625 L 10226.7666015625 11704.353515625 L 10214.5439453125 11724.0810546875 Z" stroke="none" fill="#12263f"/>
    </g>
    <g id="Unión_23" data-name="Unión 23" transform="translate(-11230.383 20927.645) rotate(-90)" fill="#19538d">
      <path d="M 10214.5439453125 11721.232421875 L 10213.2685546875 11719.1748046875 L 10206.4345703125 11708.1435546875 L 10205.0166015625 11705.853515625 L 10207.7099609375 11705.853515625 L 10210.7265625 11705.853515625 L 10210.7265625 11689.7255859375 L 10210.7265625 11688.2255859375 L 10212.2265625 11688.2255859375 L 10217.255859375 11688.2255859375 L 10218.755859375 11688.2255859375 L 10218.755859375 11689.7255859375 L 10218.755859375 11705.853515625 L 10221.37890625 11705.853515625 L 10224.0732421875 11705.853515625 L 10222.654296875 11708.1435546875 L 10215.8193359375 11719.1748046875 L 10214.5439453125 11721.232421875 Z" stroke="none"/>
      <path d="M 10214.5439453125 11718.384765625 L 10221.37890625 11707.353515625 L 10217.255859375 11707.353515625 L 10217.255859375 11689.7255859375 L 10212.2265625 11689.7255859375 L 10212.2265625 11707.353515625 L 10207.7099609375 11707.353515625 L 10214.5439453125 11718.384765625 M 10214.5439453125 11724.0810546875 L 10202.322265625 11704.353515625 L 10209.2265625 11704.353515625 L 10209.2265625 11686.7255859375 L 10220.255859375 11686.7255859375 L 10220.255859375 11704.353515625 L 10226.7666015625 11704.353515625 L 10214.5439453125 11724.0810546875 Z" stroke="none" fill="#12263f"/>
    </g>
  </g>
</svg>
