<svg xmlns="http://www.w3.org/2000/svg" xmlns:xlink="http://www.w3.org/1999/xlink" width="1020" height="458.76" viewBox="0 0 1020 458.76">
  <defs>
    <clipPath id="clip-path">
      <rect id="Rectángulo_466750" data-name="Rectángulo 466750" width="328.894" height="328.908" fill="none"/>
    </clipPath>
    <clipPath id="clip-path-2">
      <rect id="Rectángulo_466757" data-name="Rectángulo 466757" width="49.593" height="49.613" fill="#12263f"/>
    </clipPath>
    <clipPath id="clip-path-3">
      <rect id="Rectángulo_466758" data-name="Rectángulo 466758" width="48.484" height="56.925" transform="translate(0 0)" fill="#12263f"/>
    </clipPath>
    <clipPath id="clip-path-4">
      <rect id="Rectángulo_466759" data-name="Rectángulo 466759" width="51.418" height="51.43" fill="#12263f"/>
    </clipPath>
    <clipPath id="clip-path-5">
      <rect id="Rectángulo_466760" data-name="Rectángulo 466760" width="47.774" height="49.613" fill="#12263f"/>
    </clipPath>
  </defs>
  <g id="Grupo_1180449" data-name="Grupo 1180449" transform="translate(-290 -1475.24)">
    <rect id="Rectángulo_466297" data-name="Rectángulo 466297" width="1020" height="458.76" rx="16" transform="translate(290 1475.24)" fill="#c0f6f2"/>
    <g id="Grupo_1180435" data-name="Grupo 1180435" transform="translate(635.553 1540.307)">
      <g id="Grupo_1180434" data-name="Grupo 1180434" clip-path="url(#clip-path)">
        <path id="Trazado_1031540" data-name="Trazado 1031540" d="M264.893,169.3a7.761,7.761,0,0,1-4.223-1.243L225.9,145.508a82.785,82.785,0,0,1-79.534,75.283l-26.233,40.449a.71.71,0,0,0-.009.754l25.536,41.672A164.473,164.473,0,0,0,307.846,144.323l-38.9,23.836a7.739,7.739,0,0,1-4.055,1.14" transform="translate(20.991 25.241)" fill="#68c6ea"/>
        <path id="Trazado_1031541" data-name="Trazado 1031541" d="M208.884,142.994a69.551,69.551,0,0,1-66.268,64.783v6.806a76.354,76.354,0,0,0,73.092-71.59Z" transform="translate(24.942 25.008)" fill="#68c6ea"/>
        <path id="Trazado_1031542" data-name="Trazado 1031542" d="M208.939,148h6.806a76.35,76.35,0,0,0-72.783-73.93v6.806A69.553,69.553,0,0,1,208.939,148" transform="translate(25.003 12.954)" fill="#ffb758"/>
        <path id="Trazado_1031543" data-name="Trazado 1031543" d="M221.908,162.55l38.272,24.822a.71.71,0,0,0,.755.008l42.3-25.919.342.559A164.472,164.472,0,0,0,144.768.062l23.275,37.891a7.788,7.788,0,0,1-.1,8.281L145.55,80.759a82.783,82.783,0,0,1,76.357,81.791" transform="translate(25.318 0.011)" fill="#ffb758"/>
        <path id="Trazado_1031544" data-name="Trazado 1031544" d="M147.8,80.875V74.069A76.349,76.349,0,0,0,75,148.528h6.806A69.55,69.55,0,0,1,147.8,80.875" transform="translate(13.117 12.954)" fill="#68c6ea"/>
        <path id="Trazado_1031545" data-name="Trazado 1031545" d="M162.608,80.543l24.733-38.135a.713.713,0,0,0,.009-.754L161.762,0A164.477,164.477,0,0,0,.026,159.636l37.331-23.53a7.81,7.81,0,0,1,8.315.08l36.053,23.383a82.783,82.783,0,0,1,80.884-79.025" transform="translate(0.005)" fill="#68c6ea"/>
        <path id="Trazado_1031546" data-name="Trazado 1031546" d="M81.954,143.444H75.13a76.363,76.363,0,0,0,72.237,71.04v-6.825a69.552,69.552,0,0,1-65.413-64.215" transform="translate(13.139 25.087)" fill="#ffb758"/>
        <path id="Trazado_1031547" data-name="Trazado 1031547" d="M81.777,146.865l-39.937-25.9a.708.708,0,0,0-.753-.011L0,146.852A164.476,164.476,0,0,0,158.326,307.676l-23.217-37.89a7.792,7.792,0,0,1,.1-8.277l23.822-36.733a82.791,82.791,0,0,1-77.257-77.91" transform="translate(0 21.136)" fill="#ffb758"/>
        <path id="Trazado_1031548" data-name="Trazado 1031548" d="M265.934,64.764a4.189,4.189,0,0,0,2.209-2.31l8.505-37.38a4.241,4.241,0,0,0-5.354-5.557l-37.533,6.077a4.184,4.184,0,0,0-2.185,1.754,173.571,173.571,0,0,1,34.358,37.417" transform="translate(40.5 3.37)" fill="#ffb758"/>
        <path id="Trazado_1031549" data-name="Trazado 1031549" d="M266.854,223.855a4.225,4.225,0,0,0-1.17-1.49,173.455,173.455,0,0,1-34.606,37.4,4.189,4.189,0,0,0,2.515,1.963l38.039,4.749a4.241,4.241,0,0,0,5-5.88Z" transform="translate(40.413 38.889)" fill="#68c6ea"/>
        <path id="Trazado_1031550" data-name="Trazado 1031550" d="M53.791,27.669a4.189,4.189,0,0,0-2.371-2.075L13.888,19.517a4.241,4.241,0,0,0-5.354,5.557l8.505,37.38a4.2,4.2,0,0,0,2.672,2.486A173.516,173.516,0,0,1,53.791,27.669" transform="translate(1.439 3.37)" fill="#68c6ea"/>
        <path id="Trazado_1031551" data-name="Trazado 1031551" d="M19.974,222.126a4.206,4.206,0,0,0-1.559,1.772L8.638,260.641a4.242,4.242,0,0,0,5,5.88l38.041-4.749a4.2,4.2,0,0,0,2.687-2.295,173.6,173.6,0,0,1-34.39-37.352" transform="translate(1.439 38.848)" fill="#ffb758"/>
      </g>
    </g>
    <g id="Rectángulo_466751" data-name="Rectángulo 466751" transform="translate(1018 1515)" fill="#ffcc74" stroke="#ffb758" stroke-width="3">
      <rect width="253" height="99" rx="14" stroke="none"/>
      <rect x="-1.5" y="-1.5" width="256" height="102" rx="15.5" fill="none"/>
    </g>
    <g id="Rectángulo_466754" data-name="Rectángulo 466754" transform="translate(329 1515)" fill="#7dd3ff" stroke="#68c6ea" stroke-width="3">
      <rect width="253" height="99" rx="14" stroke="none"/>
      <rect x="-1.5" y="-1.5" width="256" height="102" rx="15.5" fill="none"/>
    </g>
    <g id="Rectángulo_466755" data-name="Rectángulo 466755" transform="translate(329 1795)" fill="#ffcc74" stroke="#ffb758" stroke-width="3">
      <rect width="253" height="99" rx="14" stroke="none"/>
      <rect x="-1.5" y="-1.5" width="256" height="102" rx="15.5" fill="none"/>
    </g>
    <g id="Rectángulo_466752" data-name="Rectángulo 466752" transform="translate(1018 1795)" fill="#7dd3ff" stroke="#68c6ea" stroke-width="3">
      <rect width="253" height="99" rx="14" stroke="none"/>
      <rect x="-1.5" y="-1.5" width="256" height="102" rx="15.5" fill="none"/>
    </g>
    <text id="Fase_de_planificación_Definir_las_reglas_y_elaborar_el_plan_de_gestión_de_riesgos_RMP_" data-name="Fase de planificación (Definir las reglas y elaborar el plan de gestión de riesgos RMP)" transform="translate(1033.949 1529)" fill="#12263f" font-size="16" font-family="SegoeUI, Segoe UI"><tspan x="9.625" y="17">Fase de planificación (Definir </tspan><tspan x="3.531" y="41">las reglas y elaborar el plan de </tspan><tspan x="24.926" y="65">gestión de riesgos RMP)</tspan></text>
    <text id="Validación_del_sistema_Garantizar_que_el_producto_satisfaga_las_necesidades_" data-name="Validación del sistema (Garantizar que el producto satisfaga las necesidades)" transform="translate(349.949 1529)" fill="#12263f" font-size="16" font-family="SegoeUI, Segoe UI"><tspan x="32.746" y="17">Validación del sistema </tspan><tspan x="13.41" y="41">(Garantizar que el producto </tspan><tspan x="20.445" y="65">satisfaga las necesidades)</tspan></text>
    <text id="Verificación_del_sistema_Comprobar_el_cumplimiento_de_las_especificaciones_" data-name="Verificación del sistema (Comprobar el cumplimiento de las especificaciones)" transform="translate(349.949 1809)" fill="#12263f" font-size="16" font-family="SegoeUI, Segoe UI"><tspan x="28.285" y="17">Verificación del sistema </tspan><tspan x="8.695" y="41">(Comprobar el cumplimiento </tspan><tspan x="28.676" y="65">de las especificaciones)</tspan></text>
    <text id="Fase_de_desarrollo_Identificar_definir_y_analizar_las_necesidades_" data-name="Fase de desarrollo (Identificar, definir y analizar las necesidades)" transform="translate(1033.949 1810)" fill="#12263f" font-size="16" font-family="SegoeUI, Segoe UI"><tspan x="5.242" y="17">Fase de desarrollo (Identificar, </tspan><tspan x="41.059" y="41">definir y analizar las </tspan><tspan x="65.094" y="65">necesidades)</tspan></text>
    <path id="Trazado_1031329" data-name="Trazado 1031329" d="M-9687-8883.5h45.411" transform="translate(10643.681 10448.41)" fill="none" stroke="#ffb758" stroke-width="3"/>
    <path id="Trazado_1031553" data-name="Trazado 1031553" d="M-9687-8883.5h45.411" transform="translate(-9045.681 -7318.59) rotate(180)" fill="none" stroke="#68c6ea" stroke-width="3"/>
    <path id="Trazado_1031554" data-name="Trazado 1031554" d="M-9687-8883.5h45.411" transform="translate(-9045.681 -7039) rotate(180)" fill="none" stroke="#ffb758" stroke-width="3"/>
    <path id="Trazado_1031552" data-name="Trazado 1031552" d="M-9687-8883.5h45.411" transform="translate(10643.681 10728.41)" fill="none" stroke="#68c6ea" stroke-width="3"/>
    <path id="Polígono_12" data-name="Polígono 12" d="M7.5,0,15,13H0Z" transform="translate(1011.318 1557.41) rotate(90)" fill="#ffb758"/>
    <path id="Polígono_83" data-name="Polígono 83" d="M7.5,0,15,13H0Z" transform="translate(586.682 1572.41) rotate(-90)" fill="#68c6ea"/>
    <path id="Polígono_84" data-name="Polígono 84" d="M7.5,0,15,13H0Z" transform="translate(586.682 1852) rotate(-90)" fill="#ffb758"/>
    <path id="Polígono_82" data-name="Polígono 82" d="M7.5,0,15,13H0Z" transform="translate(1011.318 1837.41) rotate(90)" fill="#68c6ea"/>
    <g id="Grupo_1180437" data-name="Grupo 1180437" transform="translate(693.468 1770.193)">
      <g id="Grupo_1180436" data-name="Grupo 1180436" clip-path="url(#clip-path-2)">
        <path id="Trazado_1031555" data-name="Trazado 1031555" d="M49.593,45.034c0,.5-.264.839-.7.843l-3.17.03L45.7,48.918a.716.716,0,0,1-.8.695L3.709,49.587A3.732,3.732,0,0,1,0,45.882V3.727A3.724,3.724,0,0,1,3.7.026L30.362,0l9.289,9.25.006,9.592a6.334,6.334,0,0,1,4.827,4.616,6.528,6.528,0,0,1-2.238,6.761l-.039,7.208,2.886.014a4.645,4.645,0,0,1,4.5,4.774Zm-18.2-7.586,3.007-.021-.008-7.175A6.426,6.426,0,0,1,38.1,18.7l.021-8.372-5.515-.039a3.508,3.508,0,0,1-3.4-3.535l-.023-5.2L3.866,1.56A2.264,2.264,0,0,0,1.537,3.892V45.716A2.263,2.263,0,0,0,3.866,48.05l26.983,0,.026-2.152-3.059.008a.77.77,0,0,1-.846-.8l.023-3.376a4.414,4.414,0,0,1,4.4-4.286M32.737,8.77l4.15-.064L30.811,2.631,30.753,6.71a2.112,2.112,0,0,0,1.984,2.06m7.925,28.644v-7.6a1.59,1.59,0,0,1,.614-.822,4.892,4.892,0,1,0-5.822.151c.2.14.478.388.478.644l.019,7.653Zm7.329,6.936.037-2.3a2.977,2.977,0,0,0-2.944-3.023l-13.1-.046c-1.891-.007-3.508,1.143-3.476,3.117l.037,2.262Zm-3.845,1.556H32.451v2.153H44.146Z" fill="#12263f"/>
        <path id="Trazado_1031556" data-name="Trazado 1031556" d="M42.913,34.151l-11.553,0a.8.8,0,0,1-.9-.827l.007-6.906a.686.686,0,0,1,.734-.632l11.66,0a.706.706,0,0,1,.759.73l.006,6.838a.753.753,0,0,1-.712.8m-.847-6.822H32.011V32.6H42.067Z" transform="translate(-25.591 -21.664)" fill="#12263f"/>
        <path id="Trazado_1031557" data-name="Trazado 1031557" d="M84.572,98.712l-23.685.006a.775.775,0,0,1-.8-.62c-.049-.267.047-.88.506-.88l24.215,0c.415,0,.511.506.509.725a.7.7,0,0,1-.741.772" transform="translate(-50.47 -81.676)" fill="#12263f"/>
        <path id="Trazado_1031558" data-name="Trazado 1031558" d="M79.931,167.856l-19.044.006a.754.754,0,0,1-.819-.722.723.723,0,0,1,.67-.834l18.972-.014c.512,0,.833.153.946.587a.763.763,0,0,1-.725.977" transform="translate(-50.465 -139.712)" fill="#12263f"/>
        <rect id="Rectángulo_466756" data-name="Rectángulo 466756" width="1.528" height="20.208" transform="translate(9.6 22.621) rotate(-89.941)" fill="#12263f"/>
        <path id="Trazado_1031559" data-name="Trazado 1031559" d="M134.209,34.192l-5.791-.012c-.366,0-.523-.487-.536-.708-.016-.268.164-.8.566-.8l5.913.018c.385,0,.507.531.48.779s-.168.722-.633.721" transform="translate(-107.44 -27.451)" fill="#12263f"/>
        <path id="Trazado_1031560" data-name="Trazado 1031560" d="M133.959,63.859l-5.206-.008a.827.827,0,0,1-.83-.554c-.105-.323.029-.961.5-.963l5.872-.015c.448,0,.582.551.559.851-.034.436-.375.69-.891.689" transform="translate(-107.448 -52.358)" fill="#12263f"/>
        <path id="Trazado_1031561" data-name="Trazado 1031561" d="M32.643,167.893a3.531,3.531,0,0,1-1.683.012.728.728,0,0,1-.48-.768c.024-.3.222-.7.593-.7l1.393-.005a.669.669,0,0,1,.622.565.725.725,0,0,1-.445.894" transform="translate(-25.607 -139.831)" fill="#12263f"/>
        <path id="Trazado_1031562" data-name="Trazado 1031562" d="M32.8,98.323a3.257,3.257,0,0,1-1.869.066.624.624,0,0,1-.436-.689c.025-.812.892-.875,2.146-.709.32.042.429.365.465.571a.666.666,0,0,1-.306.761" transform="translate(-25.62 -81.426)" fill="#12263f"/>
        <path id="Trazado_1031563" data-name="Trazado 1031563" d="M32.8,133.3a3.724,3.724,0,0,1-2,.055.911.911,0,0,1,0-1.366c1.29-.1,2.165-.271,2.306.561.034.2.035.613-.3.751" transform="translate(-25.615 -110.818)" fill="#12263f"/>
        <path id="Trazado_1031564" data-name="Trazado 1031564" d="M42.846,202.174l.028-1.666a.791.791,0,0,1,.892-.78c.459.056.664.459.7.948a7.346,7.346,0,0,1-3.74,7.1,7.5,7.5,0,0,1-10.7-9.111,7.6,7.6,0,0,1,6.825-4.935c2.912-.11,5.694,1.542,4.818,2.567-.349.408-.824.308-1.264-.011a5.96,5.96,0,1,0-4.9,10.666,5.992,5.992,0,0,0,7.348-4.776" transform="translate(-24.84 -162.759)" fill="#12263f"/>
        <path id="Trazado_1031565" data-name="Trazado 1031565" d="M58.23,206.5l-3.367-3.256a.763.763,0,0,1,.114-1.12.812.812,0,0,1,1.061.107l2.646,2.6,7.672-7.722a.777.777,0,0,1,1.1.146.8.8,0,0,1-.157,1.118l-8.037,8.073a.7.7,0,0,1-1.028.052" transform="translate(-45.929 -165.462)" fill="#12263f"/>
      </g>
    </g>
    <g id="Grupo_1180439" data-name="Grupo 1180439" transform="translate(686 1586.505)">
      <g id="Grupo_1180438" data-name="Grupo 1180438" transform="translate(0 0.001)" clip-path="url(#clip-path-3)">
        <path id="Trazado_1031566" data-name="Trazado 1031566" d="M27.742,45.384a24.539,24.539,0,0,1-6.986,0L14.42,56.329a1.461,1.461,0,0,1-1.505.578,1.554,1.554,0,0,1-1.186-1.112L9.217,48.826,1.931,50.139a1.627,1.627,0,0,1-1.609-.534A1.562,1.562,0,0,1,.3,47.739L6.454,37.093a22.813,22.813,0,1,1,35.572,0l6.222,10.764a1.513,1.513,0,0,1-.085,1.746,1.626,1.626,0,0,1-1.612.539l-7.282-1.322-2.568,7.1a1.478,1.478,0,0,1-1.125.984,1.5,1.5,0,0,1-1.591-.676ZM45.158,22.81A20.918,20.918,0,1,0,24.24,43.728,20.918,20.918,0,0,0,45.158,22.81M10.712,47.35,13.3,54.462,18.79,45a22.874,22.874,0,0,1-11-6.412L2.279,48.117,9.584,46.84a.981.981,0,0,1,1.127.51m27.033.068a.979.979,0,0,1,1.15-.579L46.2,48.117l-5.508-9.536a22.781,22.781,0,0,1-11,6.414l5.494,9.465Z" transform="translate(0 0)" fill="#12263f"/>
        <path id="Trazado_1031567" data-name="Trazado 1031567" d="M76.283,51.764a16.51,16.51,0,1,1-16.51-16.51,16.51,16.51,0,0,1,16.51,16.51m-1.9,0A14.608,14.608,0,1,0,59.773,66.373,14.608,14.608,0,0,0,74.38,51.765" transform="translate(-35.532 -28.955)" fill="#12263f"/>
        <path id="Trazado_1031568" data-name="Trazado 1031568" d="M79.058,92.173a2.874,2.874,0,0,1,.3-4.1,2.781,2.781,0,0,1,3.964.279l2.439,3.022L94,83.178a2.867,2.867,0,0,1,3.966,4.14L87.535,97.743a2.846,2.846,0,0,1-4.233-.25Zm1.444-1.26,4.4,5.509c.323.4,1.038.255,1.388-.1l10.33-10.351a.971.971,0,1,0-1.37-1.377l-8.926,8.906a.846.846,0,0,1-1.248.043L81.791,89.53a.92.92,0,0,0-1.348.138,1,1,0,0,0,.059,1.246" transform="translate(-64.341 -67.669)" fill="#12263f"/>
      </g>
    </g>
    <g id="Grupo_1180441" data-name="Grupo 1180441" transform="translate(868.583 1592)">
      <g id="Grupo_1180440" data-name="Grupo 1180440" clip-path="url(#clip-path-4)">
        <path id="Trazado_1031569" data-name="Trazado 1031569" d="M155.892,29.116l-5.078.017a.855.855,0,0,1-.954-.858V25.188l-1.625-.673-2.216,2.18a.854.854,0,0,1-1.175.023l-3.629-3.613a.887.887,0,0,1-.058-1.278l2.191-2.215a11.05,11.05,0,0,1-.62-1.59l-3.15-.02a.8.8,0,0,1-.838-.8l-.011-5.155a.87.87,0,0,1,.87-.9l3.066,0,.675-1.662-2.2-2.211a.851.851,0,0,1,.015-1.184L144.6,2.616c.326-.328.89-.618,1.281-.238l2.343,2.276a14.852,14.852,0,0,1,1.611-.665L149.846.96a.923.923,0,0,1,.97-.96h4.994a.844.844,0,0,1,.9.835l.039,3.151a8.129,8.129,0,0,1,1.547.665l2.221-2.191a.885.885,0,0,1,1.12-.1L165.5,6.22a.891.891,0,0,1-.1,1.119l-2.187,2.186a11.568,11.568,0,0,1,.654,1.583l3.02.019a.912.912,0,0,1,.97.934l-.04,5.262c0,.518-.654.7-1.063.7l-2.882,0a16.081,16.081,0,0,1-.666,1.611l2.283,2.34c.332.34.129.907-.169,1.2L161.768,26.7a.855.855,0,0,1-1.173.023l-2.216-2.2-1.662.675,0,3.07a.842.842,0,0,1-.823.854M155,27.431l0-2.85c0-1.069,1.276-.85,3.087-1.906a.816.816,0,0,1,.968.108l2.156,2.074,2.372-2.384-1.946-1.944a1.025,1.025,0,0,1-.154-1.356c.976-1.574.684-2.9,1.879-2.908l2.772-.008-.011-3.392-2.774.006a.949.949,0,0,1-.937-.673c-.56-1.976-1.528-2.746-.881-3.416l2.038-2.113-2.424-2.388-1.969,1.983a.886.886,0,0,1-1.134.184c-1.749-1.037-3.045-.805-3.044-1.936l0-2.763-3.4-.019-.024,2.907c-.008.981-1.371.816-2.893,1.743a.988.988,0,0,1-1.266-.079l-2.035-2.025L142.993,6.7l2.087,2.1a.815.815,0,0,1,.1.968c-1.045,1.8-.844,3.093-1.907,3.09l-2.851-.008,0,3.4,2.841.012c1.089,0,.867,1.268,1.9,3.074a.832.832,0,0,1-.137,1.055L143,22.462l2.4,2.4,1.981-1.949a.888.888,0,0,1,1.143-.213c1.793,1.019,3.063.818,3.07,1.9l.018,2.853Z" transform="translate(-116.438)" fill="#12263f"/>
        <path id="Trazado_1031570" data-name="Trazado 1031570" d="M196.749,50.411a7.713,7.713,0,1,1-7.713-7.713,7.713,7.713,0,0,1,7.713,7.713m-1.719,0a5.994,5.994,0,1,0-5.994,5.994,5.994,5.994,0,0,0,5.994-5.994" transform="translate(-152.189 -35.837)" fill="#12263f"/>
        <path id="Trazado_1031571" data-name="Trazado 1031571" d="M214.844,72.78a3.428,3.428,0,1,1-3.428-3.428,3.428,3.428,0,0,1,3.428,3.428m-1.721,0a1.708,1.708,0,1,0-1.709,1.709,1.709,1.709,0,0,0,1.709-1.709" transform="translate(-174.568 -58.208)" fill="#12263f"/>
        <path id="Trazado_1031572" data-name="Trazado 1031572" d="M4.418,93.838a2.563,2.563,0,0,0-2.691,2.444A2.5,2.5,0,0,0,4.2,98.951l37.776.016V77.572h1.738V99.708a.919.919,0,0,1-1,.989L4.36,100.689A4.276,4.276,0,0,1,0,96.331L.018,62.781a4.2,4.2,0,0,1,3.65-4.026,21.842,21.842,0,0,1,2.289-.047.86.86,0,0,1,.891.872l.009,5.951,13.676,0,0,1.744-13.683,0V92.927a.875.875,0,0,1-.9.908Zm.731-1.715V60.448a2.758,2.758,0,0,0-3.425,2.174l0,30.266a5.94,5.94,0,0,1,3.427-.766" transform="translate(0 -49.266)" fill="#12263f"/>
        <path id="Trazado_1031573" data-name="Trazado 1031573" d="M64.59,205.836l-10.343.025a.907.907,0,0,1-.905-.9v-6.85a.814.814,0,0,1,.753-.824l10.277-.014a.857.857,0,0,1,.944.811l.025,2.611,6.828.016.046-2.644a.738.738,0,0,1,.7-.77l4.4-.014.03-5.127,1.686.005.014,5.115,4.285,0a.86.86,0,0,1,.859.806l0,6.907a.847.847,0,0,1-.857.859l-10.281,0A.829.829,0,0,1,72.2,205l-.006-2.582h-6.86L65.324,205a.821.821,0,0,1-.734.835m-.962-6.845H55.056v5.177h8.572Zm18.846,0H73.891v5.178h8.583Z" transform="translate(-44.771 -161.283)" fill="#12263f"/>
        <path id="Trazado_1031574" data-name="Trazado 1031574" d="M65.346,133.106l-.022,2.569a.783.783,0,0,1-.795.838l-10.281.01a.86.86,0,0,1-.907-.879l0-6.841a.856.856,0,0,1,.907-.847l10.272.013a.877.877,0,0,1,.814.947l0,2.451,3.411.043-.026,1.692ZM63.627,129.7H55.055v5.133h8.572Z" transform="translate(-44.77 -107.396)" fill="#12263f"/>
      </g>
    </g>
    <g id="Grupo_1180443" data-name="Grupo 1180443" transform="translate(859.258 1770.193)">
      <g id="Grupo_1180442" data-name="Grupo 1180442" clip-path="url(#clip-path-5)">
        <path id="Trazado_1031575" data-name="Trazado 1031575" d="M47.645,15.631,38.1,38.564l-.074,7.63A3.608,3.608,0,0,1,34.4,49.613L3.587,49.589A3.635,3.635,0,0,1,.023,46.043L0,3.584A3.824,3.824,0,0,1,4.08,0L27.848.029,38.027,10.215l.088,6.183,1.739-4.042a1.944,1.944,0,0,1,2.508-.938l4.2,1.759a1.969,1.969,0,0,1,1.086,2.453m-18,30.016-.377-8.06,7.214-17.273.016-8.962-6.887-.008a2.721,2.721,0,0,1-2.873-2.664l-.019-7.132-23.19.036a2.1,2.1,0,0,0-2,2.174v42.1a2.137,2.137,0,0,0,2.128,2.191l30.666.017a2.123,2.123,0,0,0,2.152-2l0-4.536-5.649,4.942A.778.778,0,0,1,30,46.426a.977.977,0,0,1-.346-.779M29.532,9.8l5.88-.033L28.329,2.683,28.3,8.826a1.2,1.2,0,0,0,1.237.976m16.616,5.423a.532.532,0,0,0-.322-.706l-3.959-1.647a.518.518,0,0,0-.67.179l-.941,2.238,5,2.058Zm-6.492,1.433L30.982,37.422l1.839.768L41.5,17.425ZM42.868,18l-8.66,20.74,1.831.764,8.66-20.74ZM34.949,40.727l-4.072-1.716.29,5.129Z" transform="translate(0 0)" fill="#12263f"/>
        <path id="Trazado_1031576" data-name="Trazado 1031576" d="M53.649,35.473l-16.966-.005a.761.761,0,0,1-.791-.779l-.007-5.754a.812.812,0,0,1,.89-.754H53.534a.768.768,0,0,1,.845.818l.006,5.6a.856.856,0,0,1-.736.878M37.41,33.949H52.835V29.713H37.41Z" transform="translate(-30.152 -23.679)" fill="#12263f"/>
        <path id="Trazado_1031577" data-name="Trazado 1031577" d="M34.741,169.84l-7.578,0a.769.769,0,0,1-.8-.843l0-6.4a.811.811,0,0,1,.717-.886l7.568,0a.8.8,0,0,1,.831.734v6.7a.754.754,0,0,1-.729.7m-.814-6.6H27.868v5.083h6.058Z" transform="translate(-22.144 -135.873)" fill="#12263f"/>
        <path id="Trazado_1031578" data-name="Trazado 1031578" d="M34.784,234.773H27.2a.727.727,0,0,1-.787-.689l-.009-6.7a.787.787,0,0,1,.7-.748h7.579a.807.807,0,0,1,.829.744l.008,6.7a.779.779,0,0,1-.739.687m-.812-6.591H27.914v5.083h6.058Z" transform="translate(-22.189 -190.43)" fill="#12263f"/>
        <path id="Trazado_1031579" data-name="Trazado 1031579" d="M34.8,105.178l-7.587.008a.744.744,0,0,1-.789-.7l-.006-6.7a.658.658,0,0,1,.643-.664l7.82-.01a.687.687,0,0,1,.645.672l0,6.7a.728.728,0,0,1-.725.695m-.819-6.586H27.919v5.078h6.058Z" transform="translate(-22.195 -81.593)" fill="#12263f"/>
        <path id="Trazado_1031580" data-name="Trazado 1031580" d="M113.3,107.72H95.5a.774.774,0,0,1-.828-.8c.026-.494.374-.742.926-.742l17.709.014a.7.7,0,0,1,.644.729.79.79,0,0,1-.658.8" transform="translate(-79.548 -89.21)" fill="#12263f"/>
        <path id="Trazado_1031581" data-name="Trazado 1031581" d="M108.585,130.289l-13.141.019a.738.738,0,0,1-.766-.725.76.76,0,0,1,.823-.8l12.931.007a.748.748,0,0,1,.752.649c.038.273-.071.85-.6.851" transform="translate(-79.551 -108.207)" fill="#12263f"/>
        <path id="Trazado_1031582" data-name="Trazado 1031582" d="M109.548,172.562l-14.117.007a.735.735,0,0,1-.763-.775c.006-.5.354-.766.923-.765l13.885.007a.765.765,0,1,1,.072,1.527" transform="translate(-79.543 -143.705)" fill="#12263f"/>
        <path id="Trazado_1031583" data-name="Trazado 1031583" d="M105.651,237.5l-10.063.007c-.568,0-.914-.285-.917-.776s.347-.774.917-.773l10.063.011a.75.75,0,0,1,.823.764.76.76,0,0,1-.824.767" transform="translate(-79.546 -198.262)" fill="#12263f"/>
        <path id="Trazado_1031584" data-name="Trazado 1031584" d="M104.278,195.238l-8.839.016a.769.769,0,0,1-.763-.715.757.757,0,0,1,.788-.81h8.719a.751.751,0,0,1,.782.69.736.736,0,0,1-.688.818" transform="translate(-79.55 -162.778)" fill="#12263f"/>
        <path id="Trazado_1031585" data-name="Trazado 1031585" d="M101.563,260.146l-6.129.011a.783.783,0,0,1-.757-.71.765.765,0,0,1,.783-.82l6.012-.005a.755.755,0,0,1,.832.683.7.7,0,0,1-.74.841" transform="translate(-79.549 -217.304)" fill="#12263f"/>
        <path id="Trazado_1031586" data-name="Trazado 1031586" d="M44.654,180.427c-.526.506-2.1-.86-1.643-1.649a.791.791,0,0,1,1.32-.086l1.106-1.076a.694.694,0,0,1,1.011.115.736.736,0,0,1-.046,1.015Z" transform="translate(-36.071 -149.095)" fill="#12263f"/>
        <path id="Trazado_1031587" data-name="Trazado 1031587" d="M44.725,113.9c-.58.555-2.191-.9-1.7-1.682a.811.811,0,0,1,1.276-.066l1.073-1.021a.768.768,0,0,1,1.12.123.821.821,0,0,1-.11,1.055Z" transform="translate(-36.075 -93.218)" fill="#12263f"/>
      </g>
    </g>
  </g>
</svg>
