<svg xmlns="http://www.w3.org/2000/svg" xmlns:xlink="http://www.w3.org/1999/xlink" width="128" height="128" viewBox="0 0 128 128">
  <defs>
    <clipPath id="clip-path">
      <rect id="Rectángulo_456267" data-name="Rectángulo 456267" width="128" height="128" fill="none"/>
    </clipPath>
    <clipPath id="clip-path-2">
      <rect id="Rectángulo_467157" data-name="Rectángulo 467157" width="69.415" height="59.142" fill="#19538d"/>
    </clipPath>
  </defs>
  <g id="Grupo_1180379" data-name="Grupo 1180379" transform="translate(511.746 8527) rotate(180)">
    <path id="Trazado_999622" data-name="Trazado 999622" d="M59.07,0A59.07,59.07,0,1,1,0,59.07,59.071,59.071,0,0,1,59.07,0" transform="translate(388.676 8403.93)" fill="#fff"/>
    <g id="Grupo_1179902" data-name="Grupo 1179902" transform="translate(383.746 8399)">
      <g id="Grupo_1179905" data-name="Grupo 1179905" clip-path="url(#clip-path)">
        <path id="Trazado_999618" data-name="Trazado 999618" d="M64,0A64,64,0,1,1,0,64,64,64,0,0,1,64,0" fill="none"/>
        <path id="Trazado_999619" data-name="Trazado 999619" d="M5,59a5,5,0,1,1-5,5,5,5,0,0,1,5-5" fill="#19538d"/>
        <path id="Trazado_999620" data-name="Trazado 999620" d="M21,19a5,5,0,1,1-5,5,5,5,0,0,1,5-5" fill="#19538d"/>
        <path id="Trazado_999621" data-name="Trazado 999621" d="M64,124A60.068,60.068,0,0,1,4,64H7A57,57,0,1,0,22.408,25.024L20.22,22.972A60,60,0,1,1,64,124" fill="#19538d"/>
        <rect id="Rectángulo_456268" data-name="Rectángulo 456268" width="128" height="128" fill="none"/>
        <rect id="Rectángulo_456269" data-name="Rectángulo 456269" width="128" height="128" fill="none"/>
      </g>
    </g>
    <g id="Grupo_1181033" data-name="Grupo 1181033" transform="translate(370.284 8512.571) rotate(180)">
      <g id="Grupo_1181032" data-name="Grupo 1181032" transform="translate(-110 20)" clip-path="url(#clip-path-2)">
        <path id="Trazado_1033343" data-name="Trazado 1033343" d="M66.955,53.057,56,53.144c.378,2.672-1.355,5.893-4.386,5.9l-35.532.1a.928.928,0,0,1-.877-1.008.984.984,0,0,1,1.1-.989l34.432,0a3.2,3.2,0,0,0,2.556-1.1A3.748,3.748,0,0,0,54,53.1L19.77,53.094a2.613,2.613,0,0,1-2.707-2.679l.019-11.09A2.569,2.569,0,0,1,19.6,36.836L54,36.808l0-3.682-34.229,0a2.6,2.6,0,0,1-2.706-2.682l.024-11.08a2.615,2.615,0,0,1,2.7-2.508L54,16.846l0-4.01-51.966,0,0,4.6c0,.737-.374,1.179-1.054,1.16a1.03,1.03,0,0,1-.978-1.162L0,5.235C0,2.858,1.664.121,4.362.114L50.744,0a5.038,5.038,0,0,1,5.285,5.066l.01,11.738,3.155.054a1,1,0,0,1,1,1.114,1.087,1.087,0,0,1-1.229.952l-39.847.014-.047,11.5a.633.633,0,0,0,.71.679H66.575c.369,0,.827-.186.827-.537l-.017-11.523-3.549-.182a1.007,1.007,0,0,1-.879-1.106,1.067,1.067,0,0,1,1.093-.916l2.928.027a2.506,2.506,0,0,1,2.437,2.506l-.006,11.253a2.519,2.519,0,0,1-2.564,2.483l-10.777.012L56.042,36.8l10.746.023a2.568,2.568,0,0,1,2.628,2.523l-.008,11.257a2.466,2.466,0,0,1-2.452,2.452M54.01,10.759l.022-5.7a3.072,3.072,0,0,0-3.078-3.031l-46.121,0a2.937,2.937,0,0,0-2.773,2.9c-.074,1.962-.067,3.9,0,5.837ZM67.429,50.266l-.049-11.373-48.267-.005.007,12.177,47.82,0c.291,0,.491-.536.49-.794" transform="translate(0 0.001)" fill="#19538d"/>
        <path id="Trazado_1033344" data-name="Trazado 1033344" d="M11.419,134.277a.988.988,0,0,1,1.059.978,1,1,0,0,1-.952,1.008l-7.169-.074c-2.5-.026-4.309-2.453-4.31-4.971L.035,99.585a1,1,0,0,1,.989-1.073.947.947,0,0,1,1.028,1.062l.027,31.764a2.917,2.917,0,0,0,2.929,2.916Z" transform="translate(-0.027 -77.133)" fill="#19538d"/>
        <path id="Trazado_1033345" data-name="Trazado 1033345" d="M217.337,123.886l-13.479.015a1.012,1.012,0,0,1,.176-2.017l13.235-.008a1.006,1.006,0,0,1,.067,2.01" transform="translate(-158.9 -95.429)" fill="#19538d"/>
        <path id="Trazado_1033346" data-name="Trazado 1033346" d="M154.957,101.307l-12.885.037a1.026,1.026,0,0,1-1.085-1.051,1.045,1.045,0,0,1,1.1-1l12.774,0a.988.988,0,0,1,.942.784.96.96,0,0,1-.846,1.228" transform="translate(-110.393 -77.746)" fill="#19538d"/>
        <path id="Trazado_1033347" data-name="Trazado 1033347" d="M263.4,101.343l-6.191.008a1.026,1.026,0,0,1-1.036-1.054,1.038,1.038,0,0,1,1.052-.983l6.279,0a1.014,1.014,0,0,1-.1,2.026" transform="translate(-200.585 -77.763)" fill="#19538d"/>
        <path id="Trazado_1033348" data-name="Trazado 1033348" d="M172.627,123.89l-3.955.009a.952.952,0,0,1-.968-.936,1.015,1.015,0,0,1,1.136-1.061h3.71a.964.964,0,0,1,1.017.891.982.982,0,0,1-.941,1.1" transform="translate(-131.313 -95.45)" fill="#19538d"/>
        <path id="Trazado_1033349" data-name="Trazado 1033349" d="M225.3,101.346l-3.692.03a1.027,1.027,0,1,1-.206-2.038h3.9a1,1,0,0,1,.971.976.96.96,0,0,1-.97,1.032" transform="translate(-172.574 -77.782)" fill="#19538d"/>
        <path id="Trazado_1033350" data-name="Trazado 1033350" d="M30.48,134.174l-2.081.038a1.012,1.012,0,0,1-.256-2.005c1.7-.231,3.112-.15,3.194.933a.926.926,0,0,1-.857,1.034" transform="translate(-21.376 -103.436)" fill="#19538d"/>
        <path id="Trazado_1033351" data-name="Trazado 1033351" d="M30.447,89.169l-2.048.038a1.012,1.012,0,0,1-.258-2.005c1.692-.232,3.124-.143,3.2.936a.925.925,0,0,1-.89,1.032" transform="translate(-21.377 -68.197)" fill="#19538d"/>
        <path id="Trazado_1033352" data-name="Trazado 1033352" d="M30.526,224.507l-2.311-.007a.943.943,0,0,1-.865-1.054,1.02,1.02,0,0,1,1.007-.97l2.129.029a.993.993,0,0,1,.889.925,1.055,1.055,0,0,1-.848,1.077" transform="translate(-21.412 -174.2)" fill="#19538d"/>
        <path id="Trazado_1033353" data-name="Trazado 1033353" d="M30.515,179.551l-2.088.04a1,1,0,0,1-1.084-.909c-.04-.421.251-1.1.827-1.1h2.309a1,1,0,0,1,.89.933.929.929,0,0,1-.854,1.038" transform="translate(-21.407 -139.046)" fill="#19538d"/>
        <path id="Trazado_1033354" data-name="Trazado 1033354" d="M30.263,111.922l-1.939,0a1,1,0,0,1-1-.806.9.9,0,0,1,.592-1.1A8.265,8.265,0,0,1,30.673,110a.9.9,0,0,1,.643,1.118.991.991,0,0,1-1.054.8" transform="translate(-21.377 -86.047)" fill="#19538d"/>
        <path id="Trazado_1033355" data-name="Trazado 1033355" d="M143.413,123.862l-2.193.058a.985.985,0,0,1-1.061-.965.953.953,0,0,1,1.039-1.035l1.971,0a.978.978,0,0,1,1.025.886c.056.342-.169,1.043-.78,1.059" transform="translate(-109.743 -95.461)" fill="#19538d"/>
        <path id="Trazado_1033356" data-name="Trazado 1033356" d="M30.263,156.965h-1.94a1,1,0,0,1-1-.808c-.084-.372.066-1.006.592-1.094a8.826,8.826,0,0,1,2.758-.016.894.894,0,0,1,.644,1.115.987.987,0,0,1-1.054.8" transform="translate(-21.378 -121.323)" fill="#19538d"/>
        <path id="Trazado_1033357" data-name="Trazado 1033357" d="M30.264,201.991l-1.941-.006a1,1,0,0,1-1-.809c-.084-.375.065-1,.59-1.089a8.549,8.549,0,0,1,2.757-.01.878.878,0,0,1,.645,1.106.992.992,0,0,1-1.053.808" transform="translate(-21.378 -156.577)" fill="#19538d"/>
        <path id="Trazado_1033358" data-name="Trazado 1033358" d="M110.466,101.319l-2.071,0a.987.987,0,0,1-.994-1.037,1.056,1.056,0,0,1,.994-.975l1.946-.007a1.007,1.007,0,0,1,1.083.788.983.983,0,0,1-.958,1.234" transform="translate(-84.095 -77.749)" fill="#19538d"/>
        <path id="Trazado_1033359" data-name="Trazado 1033359" d="M110.607,123.632l-2.216.025a1.017,1.017,0,0,1-.983-.81.914.914,0,0,1,.568-1.089c1.717-.366,3.539-.209,3.448.942-.028.35-.238.925-.817.932" transform="translate(-84.082 -95.2)" fill="#19538d"/>
        <path id="Trazado_1033360" data-name="Trazado 1033360" d="M285.6,122.118a1.023,1.023,0,0,1,1.464.224,1.155,1.155,0,0,1-.352,1.452,1.065,1.065,0,0,1-1.264-.206,1,1,0,0,1,.152-1.47" transform="translate(-223.309 -95.454)" fill="#19538d"/>
        <path id="Trazado_1033361" data-name="Trazado 1033361" d="M133.987,193.677a1.057,1.057,0,0,1-1.243.764.986.986,0,0,1-.711-1.307l2.823-7.759a1.071,1.071,0,0,1,1.261-.606,1.03,1.03,0,0,1,.606,1.362Z" transform="translate(-103.333 -144.645)" fill="#19538d"/>
        <path id="Trazado_1033362" data-name="Trazado 1033362" d="M112.15,195.216a1.022,1.022,0,1,1-1.442,1.439l-2.576-2.636c-.374-.383-.1-1.033.238-1.364l2.4-2.369a1.077,1.077,0,0,1,1.425-.024,1.024,1.024,0,0,1,.012,1.468l-1.736,1.8Z" transform="translate(-84.527 -148.775)" fill="#19538d"/>
        <path id="Trazado_1033363" data-name="Trazado 1033363" d="M160.193,196.538a1.022,1.022,0,0,1-1.5.1,1.05,1.05,0,0,1-.011-1.5l1.764-1.815-1.7-1.639a1.1,1.1,0,0,1-.289-1.247,1,1,0,0,1,1.48-.354l2.53,2.434a1.154,1.154,0,0,1,.048,1.686Z" transform="translate(-124.009 -148.675)" fill="#19538d"/>
        <path id="Trazado_1033364" data-name="Trazado 1033364" d="M103.589,24.848c.84,0,1.272.232,1.359.891a1.045,1.045,0,0,1-1.033,1.14l-24.038.013c-.756,0-1.145-.409-1.163-.975-.022-.677.38-1.056,1.159-1.057Z" transform="translate(-61.633 -19.456)" fill="#19538d"/>
        <path id="Trazado_1033365" data-name="Trazado 1033365" d="M212.082,26.887l-3.98.02a1.011,1.011,0,0,1-1.088-.98.973.973,0,0,1,1.071-1.044l3.92-.007a1,1,0,0,1,1.133.861.977.977,0,0,1-1.057,1.15" transform="translate(-162.092 -19.479)" fill="#19538d"/>
        <path id="Trazado_1033366" data-name="Trazado 1033366" d="M27.67,25.144a1.043,1.043,0,0,1,1.529.33,1.088,1.088,0,0,1-.338,1.287,1,1,0,0,1-1.191-1.617" transform="translate(-21.358 -19.53)" fill="#19538d"/>
        <path id="Trazado_1033367" data-name="Trazado 1033367" d="M59.549,25.12a1.039,1.039,0,0,1,1.386.294,1.128,1.128,0,0,1-.366,1.449,1.012,1.012,0,0,1-1.346-.348.964.964,0,0,1,.325-1.4" transform="translate(-46.242 -19.562)" fill="#19538d"/>
        <path id="Trazado_1033368" data-name="Trazado 1033368" d="M43.607,25.15a1.038,1.038,0,0,1,1.445.238,1.11,1.11,0,0,1-.345,1.429,1.012,1.012,0,0,1-1.264-.215.968.968,0,0,1,.163-1.452" transform="translate(-33.817 -19.542)" fill="#19538d"/>
      </g>
    </g>
  </g>
</svg>
