<svg xmlns="http://www.w3.org/2000/svg" width="69.323" height="69.323" viewBox="0 0 69.323 69.323">
  <g id="Grupo_1181049" data-name="Grupo 1181049" transform="translate(-611.838 -1406.05)">
    <rect id="Rectángulo_466578" data-name="Rectángulo 466578" width="69.323" height="69.323" transform="translate(611.838 1406.05)" fill="#19538d"/>
    <g id="Grupo_1180865" data-name="Grupo 1180865" transform="translate(620.211 1414.401)">
      <path id="Trazado_1032119" data-name="Trazado 1032119" d="M12.727,0l.01,12.938,12.02.011v3.322L12.73,16.3l0,6.812L8,23.131V33.415l4.72.024-.013,2.3h-7.9l-.023,6.479L0,42.232V52.569l12.731-.005V42.244l-4.842-.007,0-3.432H20.647l-.022,3.34-4.925.021.013,10.405,12.559-.005-.005-10.416-4.555-.021-.015-6.39-7.9-.015,0-2.3,4.76-.017,0-10.273-4.746-.013L15.8,19.368l21.071,0,.01,3.69-4.721.031.011,10.331,12.568,0,0-10.332-4.746-.016-.031-6.8-12.145,0v-3.33L39.98,12.94,39.987,0Z" fill="#fff"/>
      <path id="Trazado_1032120" data-name="Trazado 1032120" d="M205.2,29.933l.008,3.078,7.162.021V70.89l-11.4-.007,1.35-1.427-2.2-2.2-5.172,5.2,5.175,5.168,2.2-2.2-1.357-1.439,14.5-.013,0-44.043Z" transform="translate(-162.89 -25.004)" fill="#fff"/>
    </g>
  </g>
</svg>
