<svg xmlns="http://www.w3.org/2000/svg" xmlns:xlink="http://www.w3.org/1999/xlink" width="128" height="128" viewBox="0 0 128 128">
  <defs>
    <clipPath id="clip-path">
      <rect id="Rectángulo_456267" data-name="Rectángulo 456267" width="128" height="128" fill="none"/>
    </clipPath>
    <clipPath id="clip-path-2">
      <rect id="Rectángulo_467131" data-name="Rectángulo 467131" width="68.93" height="67.333" fill="#19538d"/>
    </clipPath>
  </defs>
  <g id="Grupo_1180297" data-name="Grupo 1180297" transform="translate(511.746 8527) rotate(180)">
    <path id="Trazado_999622" data-name="Trazado 999622" d="M59.07,0A59.07,59.07,0,1,1,0,59.07,59.071,59.071,0,0,1,59.07,0" transform="translate(388.676 8403.93)" fill="#fff"/>
    <g id="Grupo_1179902" data-name="Grupo 1179902" transform="translate(383.746 8399)">
      <g id="Grupo_1179905" data-name="Grupo 1179905" clip-path="url(#clip-path)">
        <path id="Trazado_999618" data-name="Trazado 999618" d="M64,0A64,64,0,1,1,0,64,64,64,0,0,1,64,0" fill="none"/>
        <path id="Trazado_999619" data-name="Trazado 999619" d="M5,59a5,5,0,1,1-5,5,5,5,0,0,1,5-5" fill="#19538d"/>
        <path id="Trazado_999620" data-name="Trazado 999620" d="M21,19a5,5,0,1,1-5,5,5,5,0,0,1,5-5" fill="#19538d"/>
        <path id="Trazado_999621" data-name="Trazado 999621" d="M64,124A60.068,60.068,0,0,1,4,64H7A57,57,0,1,0,22.408,25.024L20.22,22.972A60,60,0,1,1,64,124" fill="#19538d"/>
        <rect id="Rectángulo_456268" data-name="Rectángulo 456268" width="128" height="128" fill="none"/>
        <rect id="Rectángulo_456269" data-name="Rectángulo 456269" width="128" height="128" fill="none"/>
      </g>
    </g>
    <g id="Grupo_1180983" data-name="Grupo 1180983" transform="translate(484.348 8498.754) rotate(180)">
      <g id="Grupo_1180982" data-name="Grupo 1180982" clip-path="url(#clip-path-2)">
        <path id="Trazado_1033153" data-name="Trazado 1033153" d="M20.381,62.988c.032-1.942,1.856-3.3,3.766-3.562l6.291-.13,0-4.464L16.849,54.8a5.3,5.3,0,0,1-5.326-5.207l-.11-17.252c-.005-.86-1.552-.741-2.062-.375s-1.519.851-2.06.585L3.651,29.07a1.091,1.091,0,0,1-.219-1.186l.992-2.221A21.028,21.028,0,0,1,3,22.2L.621,21.25a.982.982,0,0,1-.6-.908L0,15.963A1.267,1.267,0,0,1,.685,14.7l2.326-.975A18.343,18.343,0,0,1,4.4,10.392l-.87-2.035A1.263,1.263,0,0,1,3.7,6.87L6.9,3.661a1.157,1.157,0,0,1,1.318-.2l2.142.991A16.091,16.091,0,0,1,13.763,3L14.738.663A1.13,1.13,0,0,1,15.87,0h4.222A1.327,1.327,0,0,1,21.4.921L22.209,3a16.183,16.183,0,0,1,3.406,1.4c1.607-.51,2.649-1.61,3.591-.666l3.093,3.1a1.14,1.14,0,0,1,.269,1.231l-.974,2.313a15.074,15.074,0,0,1,1.375,3.377l2.859,1.113,27.639.03a5.318,5.318,0,0,1,5.446,5.3l.018,29.158a5.306,5.306,0,0,1-5.143,5.406l-13.78.087v4.433l6.13.108a4.121,4.121,0,0,1,3.875,3.366l.062,3.417a1.114,1.114,0,0,1-1.059,1.141l-37.357.009a1.231,1.231,0,0,1-1.327-1.342Zm-.752-29.377c.334-.882.462-1.937,1.058-2.424a21.046,21.046,0,0,0,4.677-2.048,14.776,14.776,0,0,1,2.682,1.047l2.186-2.174a9.481,9.481,0,0,1-1.068-2.68,16.334,16.334,0,0,0,1.968-4.7,18,18,0,0,1,2.608-1.155l-.064-3.093a7.875,7.875,0,0,1-2.555-1.1A15.844,15.844,0,0,0,29.14,10.6l1.034-2.635A15.335,15.335,0,0,0,28.018,5.8l-2.57,1.064a20.448,20.448,0,0,0-4.665-2.017c-.73-.533-.876-1.734-1.215-2.56L16.435,2.3a11.186,11.186,0,0,1-1.092,2.56,17.842,17.842,0,0,0-4.787,1.992,19.36,19.36,0,0,1-2.59-1.059L5.836,7.972l.994,2.636a17.677,17.677,0,0,0-1.967,4.722l-2.6,1.176L2.234,19.44c1.086.642,2.6.724,2.775,1.625a20.934,20.934,0,0,0,1.713,4.247c.223.833-.619,1.8-.913,2.636A9.931,9.931,0,0,0,8.023,30.2,9.776,9.776,0,0,1,10.6,29.146a17.977,17.977,0,0,0,4.706,1.963,8.473,8.473,0,0,1,1.1,2.559,9.737,9.737,0,0,0,3.222-.056m-4.691,2.32c-.014-1.031-.912-2.026-1.207-2.962l-.014,16.4a3.176,3.176,0,0,0,3.295,3.208l46.657-.023a3.066,3.066,0,0,0,3.023-3.013L66.7,20.226a3.1,3.1,0,0,0-3.037-3.085L36.07,17.117a1.978,1.978,0,0,0-.011,1.315l27.395-.009a1.787,1.787,0,0,1,1.918,1.8l0,26.217A1.156,1.156,0,0,1,64.1,47.65l-47.954-.007a1.074,1.074,0,0,1-1.07-1.147Zm35.3,1.444a1.223,1.223,0,0,1-1.233-1.334L34.568,36l-4.683-4.575c-.478.666-1.007,1.3-1.809,1.166-1.38-.229-1.863-1.814-4.516.034l7.429,7.454,6.422-.06c-.22-.769.029-1.975.746-1.98l9.734-.071A1.161,1.161,0,0,1,49.034,39.2v3.981a1.149,1.149,0,0,1-1.147,1.22l-9.7-.065c-.745,0-1-1.166-.766-1.971l-7.382-.093-8.287-8.2c-.243.6-.349,1.726-1.028,1.755l-3.434.147.009,9.427,45.831,0,.015-24.746-27.063-.04-.714.654-2.389.932c-.384,1.9-1.826,3.391-1.05,3.944a21.3,21.3,0,0,1,2.579-2.806l14.569-.2c-.219-.812-.034-2.019.741-2.026l9.653-.079a1.113,1.113,0,0,1,1.174,1.094l0,4.236a1.108,1.108,0,0,1-1.17,1.115l-9.706-.073c-.753-.006-.892-1.265-.7-1.976l-13.7.1-3.831,4.4,3.917,3.861L48.973,33.8l.049-1.7a1.037,1.037,0,0,1,.953-1.106l9.521-.034a1.083,1.083,0,0,1,1.151,1.154l.006,4a1.262,1.262,0,0,1-1.406,1.28Zm8.15-12.116-.009-1.982H51.3l0,1.991Zm-.01,9.884a6.02,6.02,0,0,0-.016-1.961H51.308l0,1.993Zm-11.576,7-.041-1.965-7.1,0a5.925,5.925,0,0,0-.04,1.978Zm.965,17.182-.006-4.52-15.069.015-.006,4.511ZM57.78,65.11a4.384,4.384,0,0,0-.094-2.419A2.363,2.363,0,0,0,55.7,61.55l-30.939.014A2.251,2.251,0,0,0,22.7,62.8a5.478,5.478,0,0,0-.109,2.314Z" transform="translate(-0.001 0)" fill="#19538d"/>
        <path id="Trazado_1033154" data-name="Trazado 1033154" d="M48.392,40.394a9.063,9.063,0,1,1-7.932,10.34,9.025,9.025,0,0,1,7.932-10.34m.23,2.22a6.833,6.833,0,1,0,7.595,5.979,6.822,6.822,0,0,0-7.595-5.979" transform="translate(-31.428 -31.405)" fill="#19538d"/>
      </g>
    </g>
  </g>
</svg>
