<svg xmlns="http://www.w3.org/2000/svg" xmlns:xlink="http://www.w3.org/1999/xlink" width="128" height="128" viewBox="0 0 128 128">
  <defs>
    <clipPath id="clip-path">
      <rect id="Rectángulo_456267" data-name="Rectángulo 456267" width="128" height="128" fill="none"/>
    </clipPath>
    <clipPath id="clip-path-2">
      <rect id="Rectángulo_467132" data-name="Rectángulo 467132" width="70.164" height="70.208" fill="#19538d"/>
    </clipPath>
  </defs>
  <g id="Grupo_1180296" data-name="Grupo 1180296" transform="translate(511.746 8527) rotate(180)">
    <path id="Trazado_999622" data-name="Trazado 999622" d="M59.07,0A59.07,59.07,0,1,1,0,59.07,59.071,59.071,0,0,1,59.07,0" transform="translate(388.676 8403.93)" fill="#fff"/>
    <g id="Grupo_1179902" data-name="Grupo 1179902" transform="translate(383.746 8399)">
      <g id="Grupo_1179905" data-name="Grupo 1179905" clip-path="url(#clip-path)">
        <path id="Trazado_999618" data-name="Trazado 999618" d="M64,0A64,64,0,1,1,0,64,64,64,0,0,1,64,0" fill="none"/>
        <path id="Trazado_999619" data-name="Trazado 999619" d="M5,59a5,5,0,1,1-5,5,5,5,0,0,1,5-5" fill="#19538d"/>
        <path id="Trazado_999620" data-name="Trazado 999620" d="M21,19a5,5,0,1,1-5,5,5,5,0,0,1,5-5" fill="#19538d"/>
        <path id="Trazado_999621" data-name="Trazado 999621" d="M64,124A60.068,60.068,0,0,1,4,64H7A57,57,0,1,0,22.408,25.024L20.22,22.972A60,60,0,1,1,64,124" fill="#19538d"/>
        <rect id="Rectángulo_456268" data-name="Rectángulo 456268" width="128" height="128" fill="none"/>
        <rect id="Rectángulo_456269" data-name="Rectángulo 456269" width="128" height="128" fill="none"/>
      </g>
    </g>
    <g id="Grupo_1180985" data-name="Grupo 1180985" transform="translate(482.828 8500.09) rotate(180)">
      <g id="Grupo_1180984" data-name="Grupo 1180984" clip-path="url(#clip-path-2)">
        <path id="Trazado_1033155" data-name="Trazado 1033155" d="M36.3,69.94a2.791,2.791,0,0,1-2.17.086L1.735,58.445a2.348,2.348,0,0,1-.025-4.524l10-3.578L1.6,46.693a2.327,2.327,0,0,1,.06-4.439L13.4,38.066l-12-4.33A2.309,2.309,0,0,1,1.4,29.5l18.633-6.71c-1.321-1.076-3.46-.569-3.609-2.572-.169-2.27-.27-4.105,1.355-4.585l2.051-.606a15.373,15.373,0,0,1,1.832-4.389l-1.079-2.03c-.732-1.378.892-2.96,2.452-4.156a1.719,1.719,0,0,1,1.877-.183l2.064,1.052a17.712,17.712,0,0,1,4.334-1.812l.759-2.3C32.523-.157,34.727-.114,36.753.138a1.662,1.662,0,0,1,1.41,1.21l.7,2.148a17.942,17.942,0,0,1,4.32,1.833l2.071-1.06a1.663,1.663,0,0,1,1.734.092c1.489,1.071,3.3,2.856,2.654,4.089l-1.147,2.2a13.721,13.721,0,0,1,1.791,4.3l2.264.741c1.462.478,1.491,3.015,1.113,4.926-.308,1.554-2.4,1.206-3.518,2.185l18.144,6.5a2.452,2.452,0,0,1,1.862,2.04,2.309,2.309,0,0,1-1.529,2.471L56.774,38.064,68.349,42.19a2.45,2.45,0,0,1,1.806,2.08,2.345,2.345,0,0,1-1.589,2.425l-10.094,3.65L68.3,53.859a2.458,2.458,0,0,1,1.863,2.221,2.431,2.431,0,0,1-1.888,2.431Zm-.2-34.963a15.845,15.845,0,0,1,.982-2.95,16.305,16.305,0,0,0,5.88-2.45,11.393,11.393,0,0,1,2.907,1.4l1.444-1.391a9.853,9.853,0,0,1-1.4-3.012,15.563,15.563,0,0,0,2.412-5.783l2.983-1.055c.171-.455.326-1.49-.039-1.865-1.19-.751-2.848-.486-3.108-1.743a12.82,12.82,0,0,0-1.925-4.659c-.828-1.226.793-2.372.9-3.559.04-.454-.815-1.258-1.278-1.267L43,7.946A16.291,16.291,0,0,0,37.154,5.5a13.089,13.089,0,0,1-1.069-2.985c-.522-.182-1.712-.311-2.017.128-.437,1.023-.424,2.092-1.168,2.908a15.267,15.267,0,0,0-5.725,2.411L24.165,6.585c-.409.3-1.188.818-1.15,1.335.077,1.045,1.666,2.372.985,3.4a13.217,13.217,0,0,0-2,4.81c-.249,1.254-1.947.988-3.088,1.749a1.746,1.746,0,0,0,0,1.806c1.287.665,2.859.529,3.069,1.594a14.491,14.491,0,0,0,2.268,5.3,9.873,9.873,0,0,1-1.4,3.009l1.448,1.385A11.718,11.718,0,0,1,27.2,29.577a16.34,16.34,0,0,0,5.895,2.456l1.086,3.04a3.693,3.693,0,0,0,1.929-.095m1.92,1.461c-.4,1.192-2.708,1.165-4.529.951a1.7,1.7,0,0,1-1.47-1.18l-.692-2.216a20.875,20.875,0,0,1-4.223-1.672c-.721-.335-2.475,1.851-3.883.842a17.033,17.033,0,0,1-2.352-2.252,1.673,1.673,0,0,1-.3-1.966l1.088-2.095a18.846,18.846,0,0,1-.924-1.8L2.432,31.624,35.045,43.311,67.723,31.626,49.5,25.06l-.992,1.8,1.088,2.081c.725,1.386-.75,2.49-2.146,3.854-1.457,1.423-2.491.149-4.286-.582a17.049,17.049,0,0,1-4.328,1.8ZM53.259,39.3,36.016,45.478a2.926,2.926,0,0,1-2.185-.118L16.894,39.291,2.474,44.5,35.046,56.175,67.7,44.491Zm1.593,12.286-18.9,6.777a2.711,2.711,0,0,1-1.728,0L15.272,51.576,2.444,56.2l32.61,11.675L67.732,56.191Z" transform="translate(0 0)" fill="#19538d"/>
        <path id="Trazado_1033156" data-name="Trazado 1033156" d="M93.069,215.1l-12.915-4.6a1.2,1.2,0,0,1-.9-1.323,1.169,1.169,0,0,1,1.433-.968l13.221,4.728a1.2,1.2,0,0,1,.645,1.447,1.132,1.132,0,0,1-1.484.718" transform="translate(-61.865 -162.502)" fill="#19538d"/>
        <path id="Trazado_1033157" data-name="Trazado 1033157" d="M93.03,268.525l-13.073-4.684a1.173,1.173,0,0,1-.594-1.585,1.214,1.214,0,0,1,1.62-.534l12.893,4.624a1.161,1.161,0,0,1,.691,1.416,1.145,1.145,0,0,1-1.537.763" transform="translate(-61.872 -204.241)" fill="#19538d"/>
        <path id="Trazado_1033158" data-name="Trazado 1033158" d="M121.648,37.647a10.517,10.517,0,1,1-9.576,11.563,10.465,10.465,0,0,1,9.576-11.563m-.431,2.409a8.182,8.182,0,1,0,9.406,6.815,8.151,8.151,0,0,0-9.406-6.815" transform="translate(-87.452 -29.36)" fill="#19538d"/>
        <path id="Trazado_1033159" data-name="Trazado 1033159" d="M137.654,59.124a5.788,5.788,0,0,1,7.226,4.3,5.839,5.839,0,0,1-11.322,2.857,5.787,5.787,0,0,1,4.1-7.16m1.088,2.157a3.492,3.492,0,1,0,3.91,2.909,3.47,3.47,0,0,0-3.91-2.909" transform="translate(-104.107 -45.997)" fill="#19538d"/>
      </g>
    </g>
  </g>
</svg>
