<svg xmlns="http://www.w3.org/2000/svg" width="1020" height="534" viewBox="0 0 1020 534">
  <g id="Grupo_1180429" data-name="Grupo 1180429" transform="translate(-289.711 -2757)">
    <rect id="Rectángulo_466297" data-name="Rectángulo 466297" width="1020" height="534" rx="16" transform="translate(289.711 2757)" fill="#c0f6f2"/>
    <g id="Rectángulo_466298" data-name="Rectángulo 466298" transform="translate(312.711 2781)" fill="#fff" stroke="#0f654d" stroke-width="3">
      <rect width="208" height="71" rx="35.5" stroke="none"/>
      <rect x="-1.5" y="-1.5" width="211" height="74" rx="37" fill="none"/>
    </g>
    <g id="Rectángulo_466302" data-name="Rectángulo 466302" transform="translate(312.711 2911)" fill="#68eae0" stroke="#0f654d" stroke-width="3">
      <rect width="208" height="71" rx="14" stroke="none"/>
      <rect x="-1.5" y="-1.5" width="211" height="74" rx="15.5" fill="none"/>
    </g>
    <g id="Rectángulo_466303" data-name="Rectángulo 466303" transform="translate(569.711 3006)" fill="#68eae0" stroke="#0f654d" stroke-width="3">
      <rect width="208" height="71" rx="14" stroke="none"/>
      <rect x="-1.5" y="-1.5" width="211" height="74" rx="15.5" fill="none"/>
    </g>
    <g id="Rectángulo_466304" data-name="Rectángulo 466304" transform="translate(826.711 3101)" fill="#68eae0" stroke="#0f654d" stroke-width="3">
      <rect width="208" height="71" rx="14" stroke="none"/>
      <rect x="-1.5" y="-1.5" width="211" height="74" rx="15.5" fill="none"/>
    </g>
    <g id="Rectángulo_466305" data-name="Rectángulo 466305" transform="translate(1084.711 3196)" fill="#68eae0" stroke="#0f654d" stroke-width="3">
      <rect width="208" height="71" rx="14" stroke="none"/>
      <rect x="-1.5" y="-1.5" width="211" height="74" rx="15.5" fill="none"/>
    </g>
    <g id="Rectángulo_466299" data-name="Rectángulo 466299" transform="translate(569.711 2781)" fill="#fff" stroke="#0f654d" stroke-width="3">
      <rect width="208" height="71" rx="35.5" stroke="none"/>
      <rect x="-1.5" y="-1.5" width="211" height="74" rx="37" fill="none"/>
    </g>
    <g id="Rectángulo_466300" data-name="Rectángulo 466300" transform="translate(827.711 2840)" fill="#fff" stroke="#0f654d" stroke-width="3">
      <rect width="208" height="71" rx="35.5" stroke="none"/>
      <rect x="-1.5" y="-1.5" width="211" height="74" rx="37" fill="none"/>
    </g>
    <g id="Rectángulo_466301" data-name="Rectángulo 466301" transform="translate(1084.711 2899)" fill="#fff" stroke="#0f654d" stroke-width="3">
      <rect width="208" height="71" rx="35.5" stroke="none"/>
      <rect x="-1.5" y="-1.5" width="211" height="74" rx="37" fill="none"/>
    </g>
    <text id="Estudio_de_viabilidad" data-name="Estudio de viabilidad" transform="translate(333.66 2805.41)" fill="#12263f" font-size="17" font-family="SegoeUI, Segoe UI"><tspan x="5.788" y="18">Estudio de viabilidad</tspan></text>
    <text id="Informe_de_viabilidad" data-name="Informe de viabilidad" transform="translate(333.66 2935.41)" fill="#12263f" font-size="17" font-family="SegoeUI, Segoe UI"><tspan x="3.995" y="18">Informe de viabilidad</tspan></text>
    <text id="Modelos_del_sistema" data-name="Modelos del sistema" transform="translate(590.66 3030.41)" fill="#12263f" font-size="17" font-family="SegoeUI, Segoe UI"><tspan x="6.382" y="18">Modelos del sistema</tspan></text>
    <text id="Requisitos_de_usuario_y_del_sistema" data-name="Requisitos de usuario y del sistema" transform="translate(847.66 3112.615)" fill="#12263f" font-size="17" font-family="SegoeUI, Segoe UI"><tspan x="3.559" y="18">Requisitos de usuario </tspan><tspan x="34.978" y="42">y del sistema</tspan></text>
    <text id="Documentos_de_requisitos" data-name="Documentos de requisitos" transform="translate(1105.66 3207.615)" fill="#12263f" font-size="17" font-family="SegoeUI, Segoe UI"><tspan x="24" y="18">Documentos de </tspan><tspan x="47.093" y="42">requisitos</tspan></text>
    <text id="Identificación_y_análisis_de_requisitos" data-name="Identificación y análisis de requisitos" transform="translate(590.711 2793)" fill="#12263f" font-size="17" font-family="SegoeUI, Segoe UI"><tspan x="26.851" y="18">Identificación y </tspan><tspan x="6.137" y="42">análisis de requisitos</tspan></text>
    <text id="Especificación_de_requisitos" data-name="Especificación de requisitos" transform="translate(848 2851.5)" fill="#12263f" font-size="17" font-family="SegoeUI, Segoe UI"><tspan x="19.642" y="18">Especificación de </tspan><tspan x="47.093" y="42">requisitos</tspan></text>
    <text id="Validación_de_requisitos" data-name="Validación de requisitos" transform="translate(1105.63 2910.41)" fill="#12263f" font-size="17" font-family="SegoeUI, Segoe UI"><tspan x="33.517" y="18">Validación de </tspan><tspan x="47.093" y="42">requisitos</tspan></text>
    <path id="Trazado_1031328" data-name="Trazado 1031328" d="M-9687-8883.5h139v21.862" transform="translate(10478.714 11700)" fill="none" stroke="#0f654d" stroke-width="3"/>
    <path id="Trazado_1031336" data-name="Trazado 1031336" d="M-9687-8883.5h139v21.862" transform="translate(10737.133 11758.75)" fill="none" stroke="#0f654d" stroke-width="3"/>
    <path id="Trazado_1031338" data-name="Trazado 1031338" d="M-9687-8883.5h140.285v35.862" transform="translate(-8616.004 -5674.637) rotate(180)" fill="none" stroke="#0f654d" stroke-width="3"/>
    <path id="Trazado_1031333" data-name="Trazado 1031333" d="M-9687-8883.5h39.705" transform="translate(10207.711 11700)" fill="none" stroke="#0f654d" stroke-width="3"/>
    <path id="Trazado_1031337" data-name="Trazado 1031337" d="M-9284.5-8883.5H-9687v-153.6" transform="translate(10360.711 12115)" fill="none" stroke="#0f654d" stroke-width="3"/>
    <path id="Trazado_1031334" data-name="Trazado 1031334" d="M-9565.109-8883.5H-9687v-21.611" transform="translate(10383.711 11758.75)" fill="none" stroke="#0f654d" stroke-width="3"/>
    <path id="Trazado_1031335" data-name="Trazado 1031335" d="M-9565-8883.5h-122v-21.611" transform="translate(10640.711 11816.111)" fill="none" stroke="#0f654d" stroke-width="3"/>
    <path id="Trazado_1031329" data-name="Trazado 1031329" d="M-9687-8883.5h45.411" transform="translate(-8466.789 12540.362) rotate(90)" fill="none" stroke="#0f654d" stroke-width="3"/>
    <path id="Trazado_1031330" data-name="Trazado 1031330" d="M-9687-8883.5h140.41" transform="translate(-8209.789 12540.362) rotate(90)" fill="none" stroke="#0f654d" stroke-width="3"/>
    <path id="Trazado_1031331" data-name="Trazado 1031331" d="M-9687-8883.5h177.774" transform="translate(-7952.789 12597.998) rotate(90)" fill="none" stroke="#0f654d" stroke-width="3"/>
    <path id="Trazado_1031332" data-name="Trazado 1031332" d="M-9687-8883.5h214.274" transform="translate(-7694.789 12656.998) rotate(90)" fill="none" stroke="#0f654d" stroke-width="3"/>
    <path id="Polígono_11" data-name="Polígono 11" d="M7.5,0,15,13H0Z" transform="translate(566.916 2809) rotate(90)" fill="#0f654d"/>
    <path id="Polígono_20" data-name="Polígono 20" d="M7.5,0,15,13H0Z" transform="translate(1082.711 3224) rotate(90)" fill="#0f654d"/>
    <path id="Polígono_17" data-name="Polígono 17" d="M7.5,0,15,13H0Z" transform="translate(825.102 2867.75) rotate(90)" fill="#0f654d"/>
    <path id="Polígono_18" data-name="Polígono 18" d="M7.5,0,15,13H0Z" transform="translate(1082.211 2925.111) rotate(90)" fill="#0f654d"/>
    <path id="Polígono_16" data-name="Polígono 16" d="M7.5,0,15,13H0Z" transform="translate(780 2824) rotate(-90)" fill="#0f654d"/>
    <path id="Polígono_19" data-name="Polígono 19" d="M7.5,0,15,13H0Z" transform="translate(1038.418 2882.75) rotate(-90)" fill="#0f654d"/>
    <path id="Polígono_21" data-name="Polígono 21" d="M7.5,0,15,13H0Z" transform="translate(1082.711 3201.362) rotate(90)" fill="#0f654d"/>
    <path id="Polígono_12" data-name="Polígono 12" d="M7.5,0,15,13H0Z" transform="translate(424.211 2908) rotate(180)" fill="#0f654d"/>
    <path id="Polígono_13" data-name="Polígono 13" d="M7.5,0,15,13H0Z" transform="translate(681.211 3003) rotate(180)" fill="#0f654d"/>
    <path id="Polígono_14" data-name="Polígono 14" d="M7.5,0,15,13H0Z" transform="translate(938.211 3098) rotate(180)" fill="#0f654d"/>
    <path id="Polígono_15" data-name="Polígono 15" d="M7.5,0,15,13H0Z" transform="translate(1196.211 3193.5) rotate(180)" fill="#0f654d"/>
  </g>
</svg>
