<svg xmlns="http://www.w3.org/2000/svg" width="396" height="499" viewBox="0 0 396 499">
  <g id="Grupo_1180428" data-name="Grupo 1180428" transform="translate(-185.711 -8580)">
    <rect id="Rectángulo_466682" data-name="Rectángulo 466682" width="396" height="499" rx="16" transform="translate(185.711 8580)" fill="#c0f6f2"/>
    <g id="Rectángulo_466691" data-name="Rectángulo 466691" transform="translate(192.915 8605)" fill="#fff" stroke="#0f654d" stroke-width="3">
      <rect width="155" height="62" rx="31" stroke="none"/>
      <rect x="-1.5" y="-1.5" width="158" height="65" rx="32.5" fill="none"/>
    </g>
    <g id="Rectángulo_466692" data-name="Rectángulo 466692" transform="translate(380.915 8605)" fill="#68eae0" stroke="#0f654d" stroke-width="3">
      <rect width="155" height="62" rx="14" stroke="none"/>
      <rect x="-1.5" y="-1.5" width="158" height="65" rx="15.5" fill="none"/>
    </g>
    <g id="Rectángulo_466697" data-name="Rectángulo 466697" transform="translate(416.915 8986)" fill="#68eae0" stroke="#0f654d" stroke-width="3">
      <rect width="155" height="66" rx="14" stroke="none"/>
      <rect x="-1.5" y="-1.5" width="158" height="69" rx="15.5" fill="none"/>
    </g>
    <g id="Rectángulo_466695" data-name="Rectángulo 466695" transform="translate(192.915 8704)" fill="#fff" stroke="#0f654d" stroke-width="3">
      <rect width="155" height="89" rx="27" stroke="none"/>
      <rect x="-1.5" y="-1.5" width="158" height="92" rx="28.5" fill="none"/>
    </g>
    <g id="Rectángulo_466698" data-name="Rectángulo 466698" transform="translate(245.847 8986)" fill="#fff" stroke="#0f654d" stroke-width="3">
      <rect width="140" height="65" rx="32.5" stroke="none"/>
      <rect x="-1.5" y="-1.5" width="143" height="68" rx="34" fill="none"/>
    </g>
    <text id="Estudio_de_viabilidad" data-name="Estudio de viabilidad" transform="translate(206.692 8611.438)" fill="#12263f" font-size="17" font-family="SegoeUI, Segoe UI"><tspan x="22.898" y="18">Estudio de </tspan><tspan x="26.355" y="42">viabilidad</tspan></text>
    <text id="Informe_de_viabilidad" data-name="Informe de viabilidad" transform="translate(395.644 8611.525)" fill="#12263f" font-size="17" font-family="SegoeUI, Segoe UI"><tspan x="21.105" y="18">Informe de </tspan><tspan x="26.355" y="42">viabilidad</tspan></text>
    <text id="Documentos_de_requisitos" data-name="Documentos de requisitos" transform="translate(431.478 8994.68)" fill="#12263f" font-size="17" font-family="SegoeUI, Segoe UI"><tspan x="2.818" y="18">Documentos de </tspan><tspan x="25.911" y="42">requisitos</tspan></text>
    <text id="Identificación_y_análisis_de_requisitos" data-name="Identificación y análisis de requisitos" transform="translate(207.915 8713)" fill="#12263f" font-size="17" font-family="SegoeUI, Segoe UI"><tspan x="5.851" y="18">Identificación y </tspan><tspan x="23.872" y="42">análisis de </tspan><tspan x="26.093" y="66">requisitos</tspan></text>
    <text id="Validación_de_requisitos" data-name="Validación de requisitos" transform="translate(253.528 8994.57)" fill="#12263f" font-size="17" font-family="SegoeUI, Segoe UI"><tspan x="12.335" y="18">Validación de </tspan><tspan x="25.911" y="42">requisitos</tspan></text>
    <path id="Trazado_1031514" data-name="Trazado 1031514" d="M0,16.316H95.936V0" transform="translate(214.626 8791.334) rotate(90)" fill="none" stroke="#0f654d" stroke-width="3"/>
    <path id="Trazado_1031523" data-name="Trazado 1031523" d="M0,16.316H94.741V0" transform="translate(243.487 8923.759) rotate(90)" fill="none" stroke="#0f654d" stroke-width="3"/>
    <path id="Trazado_1031521" data-name="Trazado 1031521" d="M0,26.765H88V0" transform="translate(521.761 8975.272) rotate(-90)" fill="none" stroke="#0f654d" stroke-width="3"/>
    <path id="Trazado_1031515" data-name="Trazado 1031515" d="M0,0H29.633" transform="translate(270.224 8667.076) rotate(90)" fill="none" stroke="#0f654d" stroke-width="3"/>
    <path id="Trazado_1031516" data-name="Trazado 1031516" d="M247.016,0H0V114.635" transform="translate(563.332 8734) rotate(90)" fill="none" stroke="#0f654d" stroke-width="3"/>
    <path id="Trazado_1031517" data-name="Trazado 1031517" d="M105.41,0H0V16.129" transform="translate(365.027 8754.59) rotate(90)" fill="none" stroke="#0f654d" stroke-width="3"/>
    <path id="Trazado_1031522" data-name="Trazado 1031522" d="M81.719,0H0V16.129" transform="translate(380.914 8903.049) rotate(90)" fill="none" stroke="#0f654d" stroke-width="3"/>
    <path id="Trazado_1031518" data-name="Trazado 1031518" d="M0,0H24.184" transform="translate(347.914 8635.021)" fill="none" stroke="#0f654d" stroke-width="3"/>
    <path id="Trazado_1031525" data-name="Trazado 1031525" d="M0,0H24.184" transform="translate(347.914 8734)" fill="none" stroke="#0f654d" stroke-width="3"/>
    <path id="Trazado_1031537" data-name="Trazado 1031537" d="M0,0H24.184" transform="translate(385.847 9018.5)" fill="none" stroke="#0f654d" stroke-width="3"/>
    <path id="Trazado_1031538" data-name="Trazado 1031538" d="M0,0H24.184" transform="translate(370.626 8887.269)" fill="none" stroke="#0f654d" stroke-width="3"/>
    <path id="Polígono_33" data-name="Polígono 33" d="M5.6,0l5.6,9.7H0Z" transform="translate(275.82 8701.561) rotate(180)" fill="#0f654d"/>
    <path id="Polígono_39" data-name="Polígono 39" d="M5.5,0,11,10H0Z" transform="translate(568.831 8984.016) rotate(180)" fill="#0f654d"/>
    <path id="Polígono_34" data-name="Polígono 34" d="M5.6,0l5.6,9.7H0Z" transform="translate(370.625 8862.679) rotate(180)" fill="#0f654d"/>
    <path id="Polígono_40" data-name="Polígono 40" d="M5.6,0l5.6,9.7H0Z" transform="translate(386.512 8990.719) rotate(180)" fill="#0f654d"/>
    <path id="Polígono_35" data-name="Polígono 35" d="M5.6,0l5.6,9.7H0Z" transform="translate(192.711 8788.148)" fill="#0f654d"/>
    <path id="Polígono_41" data-name="Polígono 41" d="M5.6,0l5.6,9.7H0Z" transform="translate(221.573 8918.907)" fill="#0f654d"/>
    <path id="Polígono_42" data-name="Polígono 42" d="M5.6,0l5.6,9.7H0Z" transform="translate(554.123 8984.016) rotate(180)" fill="#0f654d"/>
    <path id="Polígono_36" data-name="Polígono 36" d="M5.6,0l5.6,9.7H0Z" transform="translate(378.983 8629.424) rotate(90)" fill="#0f654d"/>
    <path id="Polígono_44" data-name="Polígono 44" d="M5.6,0l5.6,9.7H0Z" transform="translate(378.983 8728.402) rotate(90)" fill="#0f654d"/>
    <path id="Polígono_56" data-name="Polígono 56" d="M5.6,0l5.6,9.7H0Z" transform="translate(416.915 9012.902) rotate(90)" fill="#0f654d"/>
    <path id="Polígono_57" data-name="Polígono 57" d="M5.6,0l5.6,9.7H0Z" transform="translate(401.694 8881.671) rotate(90)" fill="#0f654d"/>
    <g id="Rectángulo_466693" data-name="Rectángulo 466693" transform="translate(380.915 8704)" fill="#68eae0" stroke="#0f654d" stroke-width="3">
      <rect width="155" height="60" rx="14" stroke="none"/>
      <rect x="-1.5" y="-1.5" width="158" height="63" rx="15.5" fill="none"/>
    </g>
    <text id="Modelos_del_sistema" data-name="Modelos del sistema" transform="translate(397.837 8710.417)" fill="#12263f" font-size="17" font-family="SegoeUI, Segoe UI"><tspan x="15.772" y="18">Modelos del </tspan><tspan x="34.075" y="42">sistema</tspan></text>
    <g id="Rectángulo_466694" data-name="Rectángulo 466694" transform="translate(403.915 8845)" fill="#68eae0" stroke="#0f654d" stroke-width="3">
      <rect width="132" height="85" rx="14" stroke="none"/>
      <rect x="-1.5" y="-1.5" width="135" height="88" rx="15.5" fill="none"/>
    </g>
    <text id="Requisitos_de_usuario_y_del_sistema" data-name="Requisitos de usuario y del sistema" transform="translate(407.597 8851.241)" fill="#12263f" font-size="17" font-family="SegoeUI, Segoe UI"><tspan x="12.252" y="18">Requisitos de </tspan><tspan x="14.493" y="42">usuario y del </tspan><tspan x="34.075" y="66">sistema</tspan></text>
    <g id="Rectángulo_466696" data-name="Rectángulo 466696" transform="translate(214.626 8852.977)" fill="#fff" stroke="#0f654d" stroke-width="3">
      <rect width="156" height="68.584" rx="34.292" stroke="none"/>
      <rect x="-1.5" y="-1.5" width="159" height="71.584" rx="35.792" fill="none"/>
    </g>
    <text id="Especificación_de_requisitos" data-name="Especificación de requisitos" transform="translate(230.487 8861.877)" fill="#12263f" font-size="17" font-family="SegoeUI, Segoe UI"><tspan x="10.239" y="18">Especificación </tspan><tspan x="14.132" y="42">de requisitos</tspan></text>
  </g>
</svg>
